<?xml version="1.0" standalone="no"?>
<!DOCTYPE svg PUBLIC "-//W3C//DTD SVG 1.1//EN" "http://www.w3.org/Graphics/SVG/1.1/DTD/svg11.dtd" >
<svg xmlns="http://www.w3.org/2000/svg" xmlns:xlink="http://www.w3.org/1999/xlink" version="1.1">
<metadata>
Created by FontForge 20161003 at Wed Jan 11 01:14:41 2017
 By www-data
Copyright (c) 2015, Paul  Davy
</metadata>
<defs>
<font id="SVNArchaic1897" horiz-adv-x="653" >
  <font-face 
    font-family="SVNArchaic1897"
    font-weight="400"
    font-stretch="normal"
    units-per-em="1024"
    panose-1="2 0 5 3 0 0 0 0 0 0"
    ascent="819"
    descent="-205"
    x-height="560"
    cap-height="795"
    bbox="-0.695652 -288 1181 1151"
    underline-thickness="51"
    underline-position="-202"
    unicode-range="U+0020-FB02"
  />
<missing-glyph horiz-adv-x="374" 
d="M34 0v682h272v-682h-272zM68 34h204v614h-204v-614z" />
    <glyph glyph-name=".notdef" horiz-adv-x="374" 
d="M34 0v682h272v-682h-272zM68 34h204v614h-204v-614z" />
    <glyph glyph-name=".null" horiz-adv-x="0" 
 />
    <glyph glyph-name="nonmarkingreturn" horiz-adv-x="341" 
 />
    <glyph glyph-name="space" unicode=" " horiz-adv-x="350" 
 />
    <glyph glyph-name="space" unicode="&#xa0;" horiz-adv-x="350" 
 />
    <glyph glyph-name="exclam" unicode="!" horiz-adv-x="146" 
d="M25 733q0 29 15 43.5t33 14.5t33 -14.5t15 -43.5q0 -54 -2.5 -122t-7.5 -152t-7.5 -151.5t-2.5 -121.5q0 -17 -9 -25t-19.5 -8t-19 8t-8.5 25q0 54 -2.5 121.5t-7.5 151.5t-7.5 152t-2.5 122zM43 12q-12 13 -12 30t12 29q13 13 30 13t29 -13q13 -12 13 -29t-13 -30
q-12 -12 -29 -12t-30 12z" />
    <glyph glyph-name="quotedbl" unicode="&#x22;" horiz-adv-x="159" 
d="M134 796v-8h-4l-10 -104h4v-8h-24v8h4l-10 104h-4v8h44zM69 796v-8h-4l-10 -104h4v-8h-24v8h4l-10 104h-4v8h44z" />
    <glyph glyph-name="numbersign" unicode="#" horiz-adv-x="528" 
d="M66 489h14l-2 -10h100l17 100h-10l3 14h90l-3 -14h-10l-17 -100h70l17 100h-10l3 14h90l-3 -14h-10l-17 -100h100l2 10h14l-16 -90h-14v10h-99l-12 -70h100l2 10h14l-16 -90h-14l2 10h-100l-18 -100h10l-2 -14h-90l2 14h10l18 100h-70l-18 -100h10l-2 -14h-90l2 14h10
l18 100h-100l-2 -10h-14l16 90h14l-2 -10h100l12 70h-100l-1 -10h-14zM293 339l12 70h-70l-12 -70h70z" />
    <glyph glyph-name="dollar" unicode="$" horiz-adv-x="581" 
d="M556 219q0 -57 -12.5 -101t-40.5 -73.5t-73 -44.5t-111 -15h-3v-54h9v-14h-90l1 14h10v59q-57 5 -101 7.5t-76 2.5q-9 0 -13.5 4.5t-4.5 9.5t4 9.5t11 4.5q19 0 19 34q0 72 -56 208q-4 8 -4 18q0 15 12 15q10 0 21 -18q6 -13 13 -29.5t15 -37.5q17 -42 30.5 -67.5
t34.5 -46.5q42 -43 95 -68v370q-26 14 -46 25.5t-36 21.5q-32 19 -66 48q-69 57 -69 133q0 35 10.5 61.5t28 45.5t38.5 31.5t41.5 20t39 10.5t29.5 3h18t12 -1v60h-10v14h89v-14h-10v-66q54 -6 149 -6q9 0 13.5 -4t4.5 -9.5t-4 -9.5t-11 -4q-19 0 -19 -34q0 -69 57 -207
q4 -8 4 -19q0 -14 -12 -14q-11 0 -20 17q-5 11 -11 24t-13 29t-12 28.5t-9 21.5q-8 18 -21.5 39.5t-28.5 38.5q-34 37 -67 55v-251q28 -13 50 -24t39 -21q34 -19 74 -53q78 -66 78 -177zM246 766h-13h-30q-37 0 -69 -22q-33 -23 -33 -61q0 -52 36.5 -87.5t108.5 -69.5v240z
M316 18h3q69 0 113.5 41t44.5 120q0 58 -42 101.5t-119 87.5v-350z" />
    <glyph glyph-name="percent" unicode="%" horiz-adv-x="586" 
d="M336 58q-38 59 -38 140t38 140q39 58 94 58q56 0 93 -58q38 -58 38 -140t-38 -141q-38 -57 -93 -57t-94 58zM385 320q-18 -50 -18 -122q0 -73 18 -122q19 -51 45 -51t44 51q19 48 19 122t-19 122q-18 51 -44 51t-45 -51zM63 489q-38 59 -38 140t38 140q39 58 94 58
q56 0 93 -58q38 -59 38 -140t-38 -140q-37 -58 -93 -58q-55 0 -94 58zM112 751q-18 -51 -18 -122t18 -122q19 -51 45 -51t44 51q19 50 19 122t-19 122q-18 51 -44 51t-45 -51zM538 838l-6 -13l-9 4l-405 -868l9 -4l-5 -13l-82 38l6 13l9 -4l405 868l-9 4l6 13z" />
    <glyph glyph-name="ampersand" unicode="&#x26;" horiz-adv-x="708" 
d="M25 238q0 84 64 148t152 69q-70 79 -70 165q0 76 52 124q52 49 120 49q79 0 128 -49q50 -50 50 -124q0 -54 -22 -88.5t-53 -55t-65 -28.5t-58 -8l208 -264q20 29 32.5 47.5t17.5 27.5q6 10 6 19q0 11 -9.5 18.5t-19.5 9.5l-10 1q-16 0 -15 12.5t15 15.5q51 15 98 15
q4 0 12 -3t2 -12q-17 -32 -45 -75q-28 -41 -50 -68l-21 -27l63 -78l76 -79h-149v78l-23 31q-83 -123 -209 -123q-130 0 -204 71q-73 72 -73 181zM346 765q-55 0 -80.5 -37.5t-25.5 -92.5q0 -73 62 -167q22 0 49 7t49.5 24.5t38 48t15.5 78.5q0 58 -31 98q-30 41 -77 41z
M328 65q114 0 166 61l-236 302q-6 0 -16.5 -2t-36.5 -14q-26 -11 -46 -29q-19 -18 -35.5 -56t-16.5 -89q0 -75 62 -125q63 -48 159 -48z" />
    <glyph glyph-name="quotesingle" unicode="'" horiz-adv-x="94" 
d="M69 796v-8h-4l-10 -104h4v-8h-24v8h4l-10 104h-4v8h44z" />
    <glyph glyph-name="parenleft" unicode="(" horiz-adv-x="188" 
d="M145 875q3 8 14 6q5 -2 4 -6q-2 -8 -6 -23.5t-10 -38.5q-11 -45 -15 -60q-3 -14 -12 -51q-4 -19 -6.5 -32.5t-4.5 -22.5t-4 -22t-4 -27.5l-4 -29t-3 -26.5q-2 -24 -3.5 -55.5t-1.5 -64.5q0 -34 1.5 -67t5.5 -65t7 -57.5t7 -43.5t10 -48.5t16 -73.5t16.5 -73.5t10.5 -50.5
q1 -6 -6 -7q-9 0 -12 7q-2 7 -8 21t-15 37q-8 23 -14 37t-8 19q-2 6 -6.5 18t-11.5 31t-11 31.5t-6 19.5q-2 8 -5.5 19.5t-8.5 27.5q-9 31 -12 51q-4 33 -10 78.5t-4 88.5q0 33 2.5 65t4.5 55q3 23 12 56q9 34 12 48q2 8 6.5 21.5t12.5 33.5t12.5 33t6.5 18t8.5 20t16.5 40
q11 25 17.5 40.5t8.5 22.5z" />
    <glyph glyph-name="parenright" unicode=")" horiz-adv-x="188" 
d="M43 875q2 -7 8.5 -22.5t16.5 -40.5q11 -25 17 -40l8 -20t7 -18t13 -33q15 -41 18 -55q2 -7 5 -19t8 -29q10 -35 11 -56q3 -23 5.5 -55t2.5 -65q0 -31 -1.5 -59t-6.5 -58q-2 -15 -3.5 -26.5l-3 -23t-4.5 -23.5t-8 -28t-8 -27.5t-5 -19.5q-5 -14 -18 -51q-7 -19 -11.5 -31
t-6.5 -18q-2 -5 -7.5 -19t-14.5 -37q-8 -23 -14 -37t-8 -21q-3 -9 -14 -6q-4 1 -4 6q4 20 10.5 50.5t16.5 73.5t16 73.5t10 48.5t7 43.5t7 57.5t5.5 65t1.5 67v36t-1 33q0 16 -2 34.5t-4.5 35.5t-4.5 32t-3 24q-1 19 -12 64q-5 23 -8 37t-5 19q-1 5 -5 22.5t-12 46.5
q-7 29 -11 46.5t-6 22.5q-2 6 6 6q9 1 12 -6z" />
    <glyph glyph-name="asterisk" unicode="*" horiz-adv-x="437" 
d="M242 557q170 -44 170 -92q0 -5 -5 -17q-11 -17 -28 -17q-19 0 -42.5 14.5t-45.5 33t-38.5 35.5t-22.5 23q26 -89 26 -135q0 -63 -37 -63q-38 0 -38 63q0 46 26 135q-99 -106 -149 -106q-17 0 -28 17q-5 12 -5 16q0 51 171 93q-171 42 -171 93q0 4 5 16q11 17 28 17
q19 0 42.5 -14.5t45.5 -33t38.5 -35.5t22.5 -23q-26 92 -26 136q0 62 38 62q37 0 37 -62q0 -44 -26 -136q6 6 22.5 23t38.5 35.5t45.5 33t42.5 14.5q17 0 28 -17q5 -12 5 -16q0 -49 -170 -93z" />
    <glyph glyph-name="plus" unicode="+" horiz-adv-x="408" 
d="M25 429h14v-10h130v130h-10v14h90v-14h-10v-130h130v10h14v-90h-14v10h-130v-130h10v-14h-90v14h10v130h-130v-10h-14v90z" />
    <glyph glyph-name="comma" unicode="," horiz-adv-x="134" 
d="M109 42q0 -52 -41 -90q0 48 -1 48q-14 0 -24 7.5t-14.5 18.5t-2.5 23.5t11 21.5q10 10 22.5 12t23.5 -2.5t18.5 -14.5t7.5 -24z" />
    <glyph glyph-name="hyphen" unicode="-" horiz-adv-x="408" 
d="M39 419h330v-70h-330v70z" />
    <glyph glyph-name="period" unicode="." horiz-adv-x="134" 
d="M37 12q-12 13 -12 30t12 29q13 13 30 13t29 -13q13 -12 13 -29t-13 -30q-12 -12 -29 -12t-30 12z" />
    <glyph glyph-name="slash" unicode="/" horiz-adv-x="548" 
d="M523 838l-6 -13l-9 4l-405 -868l9 -4l-5 -13l-82 38l6 13l9 -4l405 868l-9 4l6 13z" />
    <glyph glyph-name="zero" unicode="0" horiz-adv-x="587" 
d="M294 800q111 0 189 -119q79 -118 79 -285q0 -168 -79 -286q-78 -118 -189 -118q-112 0 -191 118q-78 118 -78 286q0 166 78 285q80 119 191 119zM180 660q-46 -108 -46 -264t46 -264t114 -108q66 0 113 108q47 111 47 264t-47 264q-46 109 -113 109q-68 0 -114 -109z" />
    <glyph glyph-name="one" unicode="1" horiz-adv-x="326" 
d="M301 0h-241l82 78v537q0 23 -106 41q-9 2 -10.5 11.5t7.5 14.5q9 4 23 9t29.5 11t30 15t25.5 21q8 8 16.5 18t16 18.5t13.5 14t10 4.5q16 0 19.5 -5.5t3.5 -20.5v-689z" />
    <glyph glyph-name="two" unicode="2" horiz-adv-x="528" 
d="M423 79l79 88l-28 -167h-436v79q0 76 31 139q16 32 47.5 67t79.5 72q7 5 18 13t25 19q15 11 25 18.5t15 11.5t13.5 10.5t19.5 14.5q11 9 18.5 15.5t11.5 10.5q8 8 22 22.5t19 24.5q9 16 17 36.5t6 43.5q0 74 -40 123q-41 50 -96 50q-23 0 -48 -5.5t-53 -19.5
q-27 -13 -44.5 -41.5t-17.5 -67.5q0 -79 99 -79q-23 -83 -45 -83q-136 0 -136 134q0 96 71 143q70 48 174 48q66 0 114.5 -20t72.5 -53q24 -32 35 -65t11 -67q0 -33 -19.5 -68t-55.5 -70q-18 -17 -33.5 -31t-29.5 -25q-13 -11 -29 -23t-35 -26q-5 -4 -9 -6.5t-6 -4.5
q-61 -46 -113 -116q-51 -71 -51 -145h301z" />
    <glyph glyph-name="three" unicode="3" horiz-adv-x="573" 
d="M285 799q103 0 162.5 -42.5t59.5 -124.5q0 -33 -11 -61t-26.5 -49.5t-32 -36t-26.5 -21.5l-11 -8q6 -3 16 -9.5t35 -27.5t45 -45q20 -23 36 -59.5t16 -74.5q0 -102 -79 -177q-80 -75 -184 -75q-108 0 -184 67t-76 155q0 62 35 99q34 37 69 37q63 0 63 -55q0 -16 -14 -22
t-30.5 -11t-30.5 -14.5t-14 -33.5q0 -161 184 -161q48 0 81.5 15t49.5 33q16 19 25 50q8 29 10 48q1 8 1 19v24q0 28 -8 60t-26 65q-17 34 -50 56t-78 22q-47 0 -47 21t47 21q13 0 35 8t43.5 26t37 46t15.5 69q0 76 -42 108q-41 33 -96 33q-34 0 -65 -9q-15 -4 -30 -13.5
t-26.5 -24t-19 -33.5t-7.5 -42q0 -30 15 -46.5t30 -18.5l15 -2q-2 -5 -4 -10.5t-4 -12.5q-4 -12 -21 -35q-16 -22 -34 -22q-31 0 -49.5 38t-18.5 104q0 68 60 110q61 43 159 43z" />
    <glyph glyph-name="four" unicode="4" horiz-adv-x="592" 
d="M532 257q17 0 25.5 -10.5t8.5 -23.5t-8.5 -23.5t-25.5 -10.5h-112v-112l77 -77h-241l77 77v112h-299q-9 0 -9 18q0 22 9 48q11 37 72 193q60 154 75 198q10 29 10 45q0 24 -7.5 32t-23.5 8q-10 0 -15.5 -11t-10.5 -23.5t-13 -23.5t-24 -11q-34 0 -34 64q0 16 6.5 32
t18.5 29t27.5 20.5t33.5 7.5q48 0 78 -36t30 -94q0 -24 -38 -132q-38 -107 -75 -201l-38 -95h227v508q0 10 13 17.5t30 7.5q20 0 32 -8.5t12 -17.5v-507h112z" />
    <glyph glyph-name="five" unicode="5" horiz-adv-x="549" 
d="M122 793h378l-52 -165l-16 93h-247l-22 -191q73 6 119 6q100 0 171 -62t71 -179q0 -127 -74 -216q-73 -88 -196 -88q-100 0 -165 71q-64 71 -64 143q0 58 32 96q33 38 76 38q89 0 89 -63q0 -21 -15 -33t-29 -13l-15 -2q0 40 -28 40q-48 0 -48 -63q0 -37 35 -96
q18 -28 52.5 -47.5t79.5 -19.5q52 0 90 28t56 71t26 81.5t8 72.5q0 62 -52 124q-51 63 -127 63q-56 0 -90 -30q-9 -8 -14.5 -13.5t-10.5 -11.5t-10.5 -13t-12.5 -17q-10 -13 -20 -13q-17 0 -15 23z" />
    <glyph glyph-name="six" unicode="6" horiz-adv-x="557" 
d="M279 553q106 0 179 -82q74 -83 74 -198q0 -116 -74 -199q-73 -82 -179 -82q-107 0 -180 82q-74 83 -74 199q0 245 100 385q100 142 288 142q31 0 31 -23t-31 -23q-96 0 -164.5 -64t-98.5 -175q59 38 129 38zM279 30q64 0 111 71q47 73 47 172q0 100 -47 171t-111 71
q-66 0 -113 -71q-46 -70 -46 -171q0 -102 46 -172q47 -71 113 -71z" />
    <glyph glyph-name="seven" unicode="7" horiz-adv-x="468" 
d="M211 749q-32 0 -55.5 -11t-41.5 -36t-30 -64.5t-21 -96.5q-6 -39 -19 -39q-7 0 -13 9.5t-6 19.5q0 23 1.5 50.5t5.5 59.5t7 59t7 48l7 42h390v-3q0 -152 -41 -226q-11 -21 -54 -77q-43 -57 -70.5 -109.5t-27.5 -106.5q0 -82 18 -149q18 -68 36 -93l17 -26h-200
q0 178 63 334q9 22 22 44.5t28 43t30 38t28 31.5q27 27 47 61.5t20 68.5q0 128 -148 128z" />
    <glyph glyph-name="eight" unicode="8" horiz-adv-x="564" 
d="M172 382q-45 -59 -45 -145q0 -87 46 -149q46 -63 110 -63q63 0 110 63q46 62 46 149t-46 145q-45 60 -110 60t-111 -60zM79 616q0 75 60 131q61 55 144 55q85 0 143 -55q59 -56 59 -131q0 -52 -32 -94t-86 -63q75 -22 124 -85q48 -62 48 -137q0 -104 -75 -174
q-76 -71 -181 -71q-107 0 -183 71q-75 70 -75 174q0 75 48 137q51 63 126 85q-54 21 -87 63t-33 94zM403 616q0 67 -35 114t-85 47t-85 -47t-35 -114q0 -56 35 -100q36 -42 85 -42t84 42q36 43 36 100z" />
    <glyph glyph-name="nine" unicode="9" horiz-adv-x="557" 
d="M278 239q-106 0 -179 82q-74 83 -74 198t74 198t179 83q106 0 180 -83t74 -198q0 -243 -101 -386q-101 -141 -287 -141q-16 0 -24 7t-8 16t8 16t24 7q96 0 164.5 64t98.5 175q-59 -38 -129 -38zM278 762q-66 0 -112 -72q-46 -70 -46 -171t46 -171q47 -71 112 -71t112 71
t47 171q0 101 -47 172t-112 71z" />
    <glyph glyph-name="colon" unicode=":" horiz-adv-x="134" 
d="M37 182q-12 13 -12 30t12 29q13 13 30 13t29 -13q13 -12 13 -29t-13 -30q-12 -12 -29 -12t-30 12zM37 12q-12 13 -12 30t12 29q13 13 30 13t29 -13q13 -12 13 -29t-13 -30q-12 -12 -29 -12t-30 12z" />
    <glyph glyph-name="semicolon" unicode=";" horiz-adv-x="134" 
d="M37 182q-12 13 -12 30t12 29q13 13 30 13t29 -13q13 -12 13 -29t-13 -30q-12 -12 -29 -12t-30 12zM109 42q0 -52 -41 -90q0 48 -1 48q-14 0 -24 7.5t-14.5 18.5t-2.5 23.5t11 21.5q10 10 22.5 12t23.5 -2.5t18.5 -14.5t7.5 -24z" />
    <glyph glyph-name="less" unicode="&#x3c;" horiz-adv-x="623" 
d="M598 162l-573 224l573 225v-79l-381 -148l381 -143v-79z" />
    <glyph glyph-name="equal" unicode="=" horiz-adv-x="408" 
d="M25 349h14v-10h330v10h14v-90h-14v10h-330v-10h-14v90zM25 489h14v-10h330v10h14v-90h-14v10h-330v-10h-14v90z" />
    <glyph glyph-name="greater" unicode="&#x3e;" horiz-adv-x="623" 
d="M25 611l573 -224l-573 -225v79l381 148l-381 143v79z" />
    <glyph glyph-name="question" unicode="?" horiz-adv-x="431" 
d="M171 12q-12 13 -12 30t12 29q13 13 30 13t29 -13q13 -12 13 -29t-13 -30q-12 -12 -29 -12t-30 12zM127 630q-62 -53 -88 -53q-13 0 -13 52q0 27 6.5 51t23.5 50q18 27 57 43t97 16q52 0 90 -13.5t58 -32.5q21 -21 31 -51q12 -31 14.5 -57t2.5 -62q0 -29 -12.5 -52
t-31 -43.5t-40 -39.5t-40 -40t-31 -45.5t-12.5 -54.5q0 -42 -2 -69.5t-7 -44.5t-12.5 -24t-17.5 -7q-19 0 -26 28q-6 28 -6 117q0 30 12.5 55.5t31.5 48t40.5 43t40.5 41t31.5 42t12.5 45.5q0 196 -127 196q-54 0 -78 -20t-24 -51q0 -15 5 -32t9 -26z" />
    <glyph glyph-name="at" unicode="@" horiz-adv-x="1103" 
d="M899 -72q10 0 17.5 -7.5t7.5 -18.5q0 -12 -7 -18q-153 -147 -365 -147q-219 0 -373 154t-154 372q0 219 154 373t373 154q218 0 372 -154q155 -155 155 -373q0 -119 -118 -200q-110 -75 -280 -75q-17 0 -23 12h-3v92q-57 -104 -142 -104q-69 0 -127 51t-58 147
q0 68 57 116q56 49 124 49q83 0 100 -17q10 -8 12.5 -14.5t2.5 -19.5q0 -26 -59 -70q-12 -9 -18 -1.5t5 17.5l14.5 14.5t7.5 26.5q0 35 -64 35q-23 0 -40.5 -11t-29 -29.5t-17.5 -44t-6 -53.5q0 -38 10 -65.5t27 -45t40 -26t49 -8.5q57 0 112 115v277q0 42 -22 76
q-23 35 -79 35q-45 0 -79 -21q-34 -19 -34 -43q0 -36 38 -36q23 0 23 -11q0 -10 -38 -33q-37 -22 -48 -22q-33 0 -46 30q-14 31 -14 56q0 32 19.5 54.5t51.5 33.5q32 12 63.5 17t64.5 5q30 1 62 -5t57.5 -19.5t42.5 -34t17 -49.5v-394l27 -28q108 17 186 74q80 59 80 147
q0 198 -139 337t-336 139q-198 0 -337 -139q-139 -140 -139 -337q0 -196 139 -336q139 -139 337 -139q192 0 329 133q8 7 18 7z" />
    <glyph glyph-name="A" unicode="A" 
d="M387 0l77 79l-74 342l-194 -113l-57 -229l77 -79h-191l77 79l159 637l-77 79h306l-77 -79l139 -637l76 -79h-241zM205 347l178 104l-63 291q-1 10 -8 10q-8 0 -9 -10z" />
    <glyph glyph-name="B" unicode="B" horiz-adv-x="611" 
d="M410 454q1 -1 6 -4t13 -8t14 -8.5t8 -5.5q4 -2 22 -15q17 -12 24.5 -19t21.5 -21q15 -13 22.5 -23.5t17.5 -27.5q27 -44 27 -106q0 -51 -27 -93.5t-67 -68.5q-40 -25 -82 -39.5t-76 -14.5h-309l77 79v637l-77 79h309q36 0 68 -7t64 -25q32 -17 50.5 -52t18.5 -86
q0 -85 -125 -171zM190 767v-425l171 115q12 8 21.5 15t16.5 14q14 14 28.5 50.5t14.5 90.5q0 46 -53 93t-111 47h-88zM304 27q61 0 112 55t51 132q-2 33 -3.5 57.5t-5 44t-8.5 34t-14 27.5q-13 21 -16 24q-2 3 -7 8t-13 12l-12 10.5t-5 4.5l-193 -128v-281h114z" />
    <glyph glyph-name="C" unicode="C" horiz-adv-x="572" 
d="M513 283q10 21 22 21t12 -18q0 -10 -4 -18q-56 -142 -56 -207q0 -35 19 -35q12 0 14 -12q2 -11 -12 -13q-2 -1 -6 -1q-102 0 -132 -6q-28 -7 -67 -7q-115 0 -197 120q-81 121 -81 290q0 170 81 290q82 120 197 120q37 0 67 -6t132 -6q17 0 18 -13q0 -12 -14 -14
q-19 0 -19 -34q0 -65 56 -207q4 -8 4 -18q0 -18 -12 -18t-22 20q-14 25 -45 96q-16 35 -28 61t-20 42q-20 37 -33 48q-26 20 -84 20q-35 0 -62 -16.5t-50 -58.5q-22 -42 -34 -118t-12 -188q0 -381 158 -381q32 0 52 4t33 16q6 6 10 10.5t7.5 9.5t6.5 11t8 17q7 14 18 37.5
t26 56.5q16 34 28 60t21 45z" />
    <glyph glyph-name="D" unicode="D" horiz-adv-x="615" 
d="M291 795q124 0 211 -116q88 -115 88 -280q0 -164 -88 -282q-89 -117 -211 -117h-266l77 79v637l-77 79h266zM190 27l101 1q43 1 79 24.5t62 69.5t40.5 115t14.5 162t-14.5 161.5t-40 114t-62 68.5t-79.5 23h-101v-739z" />
    <glyph glyph-name="E" unicode="E" horiz-adv-x="618" 
d="M559 285q10 21 22 21t12 -18q0 -10 -4 -18q-56 -142 -56 -207q0 -35 19 -35q14 0 14 -13q-3 -14 -18 -15h-523l77 79v637l-77 79h486q9 0 13.5 -4.5t4.5 -10t-4 -10t-11 -4.5q-19 0 -19 -34q0 -69 23 -123q4 -8 4 -18q0 -18 -13 -18q-10 0 -21 20q-8 15 -19 35
q-11 23 -19.5 36t-20.5 26q-44 45 -89 60q-45 16 -150 16v-378q64 28 103 63q20 17 31.5 29t11.5 37q0 5 -1 20t-3 39q-1 11 4 17t12 6q17 0 18 -22q2 -26 7.5 -58.5t14.5 -73.5t18 -75.5t19 -63.5q3 -11 -2 -19t-13 -8q-15 0 -19 18q-26 96 -83 96q-13 0 -24 -4
q-27 -9 -50.5 -18.5t-43.5 -19.5v-323q54 0 96.5 4t76 13t58.5 23.5t45 35.5q10 11 18.5 22.5t15.5 23.5q7 13 15 30t16 39q9 22 16 38.5t12 27.5z" />
    <glyph glyph-name="F" unicode="F" horiz-adv-x="554" 
d="M515 609q4 -16 4 -22q0 -14 -13 -14q-10 0 -21 20q-8 13 -18 36q-10 22 -18 36t-20 26q-44 45 -89 60q-47 15 -150 15v-376q64 28 103 63q30 26 37 41q5 15 5 34q0 6 -1.5 22.5t-1.5 27.5q0 23 16 23q17 0 18 -22q2 -26 7.5 -60.5t15.5 -77.5q10 -42 19 -75.5t18 -59.5
q3 -8 -2.5 -16.5t-13.5 -8.5q-15 0 -19 18q-26 96 -83 96q-13 0 -24 -4q-27 -9 -50.5 -18.5t-43.5 -19.5v-274l76 -79h-241l77 79v637l-77 79h486q9 0 13.5 -4.5t4.5 -10t-4 -10t-11 -4.5q-19 0 -19 -34q0 -51 20 -123z" />
    <glyph glyph-name="G" unicode="G" horiz-adv-x="646" 
d="M587 91q13 0 15 -12q-3 -13 -18 -14q-51 0 -88 -12t-56 -27t-54 -27t-83 -12q-115 0 -197 120q-81 121 -81 290q0 170 81 290q82 120 197 120q39 0 67 -7q30 -6 132 -6q18 0 18 -13q-1 -12 -14 -13q-19 0 -19 -34q0 -63 56 -208q4 -8 4 -18q0 -17 -12 -17t-22 20
q-5 10 -15 32.5t-27 59.5q-32 75 -51 107q-2 3 -7.5 13.5t-7.5 13.5t-8 11t-11 10q-12 9 -31 14.5t-52 5.5q-35 0 -62 -16.5t-50 -58.5q-22 -42 -34 -118t-12 -188q0 -381 158 -381q62 0 108 29q45 30 45 65v211l-77 78h242l-77 -78v-157q0 -39 8.5 -56t34.5 -17z" />
    <glyph glyph-name="H" unicode="H" horiz-adv-x="645" 
d="M543 716v-637l77 -79h-241l76 79v414l-265 -155v-259l76 -79h-241l77 79v637l-77 79h241l-76 -79v-344l265 155v189l-76 79h241z" />
    <glyph glyph-name="I" unicode="I" horiz-adv-x="291" 
d="M266 0h-241l77 79v637l-77 79h241l-76 -79v-637z" />
    <glyph glyph-name="J" unicode="J" horiz-adv-x="291" 
d="M55 -215q1 4 4.5 16.5t8.5 34.5t9.5 39.5t6.5 31.5q6 25 12 75q6 49 6 95v638l-77 79h241l-76 -79v-638q0 -133 -108 -299q-20 -31 -26.5 -26t-0.5 33z" />
    <glyph glyph-name="K" unicode="K" horiz-adv-x="644" 
d="M619 0h-242l77 79l-180 368l-84 -101v-267l76 -79h-241l77 79v637l-77 79h241l-76 -79v-325l264 325l-76 79h190l-232 -276l206 -440z" />
    <glyph glyph-name="L" unicode="L" horiz-adv-x="619" 
d="M267 795l-77 -79v-688q54 0 96.5 4t76 13t58.5 23.5t45 35.5q10 11 18.5 22.5t15.5 23.5q7 13 15 30t16 39q9 22 16 38.5t12 27.5q10 21 22 21q13 0 13 -19q0 -6 -4 -17q-57 -138 -57 -208q0 -34 19 -34q7 0 11 -4.5t4 -9.5t-4.5 -9.5t-13.5 -4.5h-524l77 79v637l-77 79
h242z" />
    <glyph glyph-name="M" unicode="M" horiz-adv-x="740" 
d="M638 716v-637l77 -79h-242l77 79v637l-212 -601l-199 601v-637l77 -79h-191l77 79v637l-77 79h279l-77 -79l138 -410l148 410l-77 79h279z" />
    <glyph glyph-name="N" unicode="N" horiz-adv-x="644" 
d="M542 716v-637l77 -79h-279l77 79l-278 634v-634l77 -79h-191l77 79v637l-77 79h277l-77 -79l280 -637v637l-77 79h191z" />
    <glyph glyph-name="O" unicode="O" horiz-adv-x="624" 
d="M25 396q0 170 84 290t203 120t203 -120t84 -290t-84 -290t-203 -120t-203 120q-84 121 -84 290zM312 15q25 0 48.5 8.5t43 29.5t35 58t24.5 94q7 39 10 86.5t3 104.5q0 227 -49 308q-15 30 -36.5 47t-45.5 23t-49.5 2t-47.5 -16q-21 -12 -39 -38.5t-31.5 -70.5
t-21.5 -107t-7 -148q0 -381 163 -381z" />
    <glyph glyph-name="P" unicode="P" horiz-adv-x="611" 
d="M409 436q-23 -14 -55 -32q-28 -16 -68.5 -40t-95.5 -56v-229l76 -79h-241l77 79v637l-77 79h334q37 0 72.5 -7t72.5 -25q37 -17 59.5 -52t22.5 -86q3 -28 -14.5 -54.5t-35.5 -46.5q-9 -11 -33 -28q-11 -8 -19 -13t-13 -9t-13.5 -9t-20.5 -13q-12 -7 -19 -11t-9 -5z
M190 767v-425q66 38 115 66.5t81 48.5q23 13 38 28t29 51.5t14 90.5q0 46 -53 93t-111 47h-113z" />
    <glyph glyph-name="Q" unicode="Q" horiz-adv-x="624" 
d="M409 10q39 -53 59 -53q15 0 27.5 2.5t16.5 4.5l5 3q-1 -2 -3 -5t-4 -7q-4 -8 -21 -20t-39 -12q-49 0 -95 67q-14 -2 -24.5 -3t-18.5 -1q-119 0 -203 120q-84 121 -84 290q0 170 84 290t203 120t203 -120t84 -290q0 -130 -53 -238q-52 -104 -137 -148zM312 15q5 0 11 0.5
t14 1.5q-2 3 -5 8t-8 12q-8 15 -12 22t-12 18q-11 18 -22.5 29t-24.5 11q-8 0 -15.5 -2t-11.5 -4l-4 -2q-1 1 1.5 6t8.5 11t15.5 11t23.5 6q20 0 43 -18q12 -9 20.5 -17t17 -17.5t17 -22t20.5 -28.5q87 70 87 356q0 227 -49 308q-23 40 -51 56.5t-64 16.5t-63.5 -16.5
t-51.5 -58.5q-23 -42 -35.5 -118t-12.5 -188q0 -381 163 -381z" />
    <glyph glyph-name="R" unicode="R" horiz-adv-x="664" 
d="M639 0h-241l77 79l-130 319l-155 -90v-229l76 -79h-241l77 79v637l-77 79h334q37 0 72.5 -7t72.5 -25q37 -17 59.5 -52t22.5 -86q0 -39 -31 -76q-16 -19 -29.5 -33t-26.5 -22l-30 -20t-42 -26q-4 -2 -6.5 -4t-4.5 -3l147 -362zM190 767v-425q66 38 115 66.5t81 48.5
q23 13 38 28t29 51.5t14 90.5q0 46 -53 93t-111 47h-113z" />
    <glyph glyph-name="S" unicode="S" horiz-adv-x="581" 
d="M556 219q0 -57 -12.5 -101t-40.5 -73.5t-73 -44.5t-111 -15q-11 0 -36.5 2t-65.5 6q-39 4 -76 5.5t-72 1.5q-9 0 -13.5 4.5t-4.5 9.5t4 9.5t11 4.5q19 0 19 34q0 72 -56 208q-4 8 -4 18q0 15 12 15q10 0 21 -18q6 -13 13 -29.5t15 -37.5q17 -42 30.5 -67.5t34.5 -46.5
q27 -29 75 -58q46 -28 93 -28q69 0 113.5 41t44.5 120q0 52 -33 90.5t-83 71t-108 62t-108 62.5t-83 73.5t-33 95.5q0 35 10.5 61.5t28 45.5t38.5 31.5t41.5 20t39 10.5t29.5 3q19 0 41.5 -1.5t49.5 -5.5q55 -6 157 -6q9 0 13.5 -4t4.5 -9.5t-4 -9.5t-11 -4q-19 0 -19 -34
q0 -69 57 -207q4 -8 4 -19q0 -14 -12 -14q-11 0 -20 17q-5 11 -11 24t-13 29t-12 28.5t-9 21.5q-8 18 -21.5 39.5t-28.5 38.5q-44 45 -79 60q-33 16 -100 16q-37 0 -69 -22q-33 -23 -33 -61q0 -50 33.5 -83t84.5 -60t109.5 -52t109.5 -60t84.5 -84.5t33.5 -124.5z" />
    <glyph glyph-name="T" unicode="T" horiz-adv-x="634" 
d="M593 571q3 -9 3 -15q0 -17 -14 -17q-12 0 -20 17q-3 6 -6.5 16t-7 21t-7.5 21.5t-7 18.5q-5 15 -14 32t-18 28q-40 42 -66 56t-74 19v-689l77 -79h-242l77 79v689q-47 -5 -74 -20q-28 -16 -66 -55q-9 -11 -18 -28.5t-15 -31.5q-2 -7 -5.5 -17t-8.5 -23q-4 -13 -7.5 -22
t-5.5 -15q-8 -17 -20 -17q-14 0 -14 17q0 6 3 15q30 111 30 152q0 45 -33 45q-14 0 -15 13q1 12 19 14h548q9 0 13.5 -4t4.5 -9.5t-4 -9.5t-11 -4q-33 0 -33 -45q0 -38 31 -152z" />
    <glyph glyph-name="U" unicode="U" horiz-adv-x="644" 
d="M377 794h242l-77 -78v-561q0 -49 -25.5 -84.5t-63.5 -52.5q-75 -31 -131 -31t-131 31q-38 17 -63.5 52.5t-25.5 84.5v561l-77 78h241l-76 -78v-587q0 -54 45 -84q47 -29 87 -29q39 0 86 30q46 30 46 83v587z" />
    <glyph glyph-name="V" unicode="V" 
d="M25 795h241l-76 -79l159 -524l165 524l-76 79h190l-77 -79l-224 -716l-225 716z" />
    <glyph glyph-name="W" unicode="W" horiz-adv-x="973" 
d="M757 795h191l-77 -79l-225 -716l-160 509l-159 -509l-225 716l-77 79h241l-76 -79l159 -524l163 516l157 -516l165 524z" />
    <glyph glyph-name="X" unicode="X" horiz-adv-x="622" 
d="M597 0h-241l77 79l-137 286l-157 -286l77 -79h-191l77 79l176 322l-151 315l-76 79h241l-77 -79l110 -230l126 230l-76 79h190l-77 -79l-145 -266l178 -371z" />
    <glyph glyph-name="Y" unicode="Y" horiz-adv-x="565" 
d="M326 467v-388l77 -79h-241l76 79v352l-136 285l-77 79h241l-76 -79l110 -230l126 230l-77 79h191l-77 -79z" />
    <glyph glyph-name="Z" unicode="Z" horiz-adv-x="582" 
d="M25 90q0 47 32 106q32 60 79.5 113t102.5 113q28 30 54 57t49 52q24 24 44.5 49t35.5 48.5t23.5 44t8.5 37.5q0 14 -8.5 24t-23 16.5t-33 9.5t-37.5 3q-66 0 -106.5 -16.5t-71.5 -53.5q-25 -29 -51 -92q-27 -63 -42 -90q-11 -18 -22 -18q-13 0 -13 17q0 6 4 17
q57 138 57 207q0 34 -19 34q-7 0 -11 4t-4 9.5t4.5 9.5t13.5 4h409q26 0 26 -32v-47q0 -49 -44 -117q-42 -64 -105 -130q-31 -32 -62 -62.5t-62 -61.5t-57.5 -60t-48.5 -58q-43 -55 -43 -91q0 -21 12 -38t33 -29t50 -18t63 -6q51 0 99 19q49 19 69 42q19 20 33 47
q7 13 14.5 30t15.5 37t15.5 37t14.5 30q9 19 21 19q13 0 13 -16q0 -10 -4 -18q-57 -140 -57 -208q0 -34 19 -34q7 0 11 -4.5t4 -10.5t-4.5 -10.5t-13.5 -4.5h-470q-17 0 -17 16v74z" />
    <glyph glyph-name="bracketleft" unicode="[" horiz-adv-x="240" 
d="M26 903h189v-14h-110l1 -958h109v-14h-190l1 14h10v958h-10v14z" />
    <glyph glyph-name="backslash" unicode="\" horiz-adv-x="548" 
d="M25 838l81 38l6 -13l-9 -4l405 -868l9 4l6 -13l-82 -38l-5 13l9 4l-405 868l-9 -4z" />
    <glyph glyph-name="bracketright" unicode="]" horiz-adv-x="240" 
d="M214 903v-14h-10v-958h10l1 -14h-190v14h109l1 958h-110v14h189z" />
    <glyph glyph-name="asciicircum" unicode="^" horiz-adv-x="158" 
d="M0 703l80 60l78 -60v-36l-78 60l-80 -60v36z" />
    <glyph glyph-name="underscore" unicode="_" horiz-adv-x="588" 
d="M25 -31h14v-10h510v10h14v-90h-14v10h-510v-10h-14v90z" />
    <glyph glyph-name="grave" unicode="`" horiz-adv-x="141" 
d="M19 769l122 -79l-10 -22l-131 61z" />
    <glyph glyph-name="a" unicode="a" horiz-adv-x="524" 
d="M353 0v92q-59 -104 -143 -104q-68 0 -127 50q-58 51 -58 147q0 68 57 116q56 49 124 49q54 0 80 -9q27 -8 31 -16t4 -25q0 -26 -59 -70q-13 -8 -18.5 -0.5t5.5 15.5q22 19 22 42q0 35 -64 35q-23 0 -40.5 -11t-29 -30t-17.5 -44.5t-6 -53.5q0 -38 10 -65t27 -44.5t40 -26
t49 -8.5q59 0 113 115v276q0 42 -23 77t-78 35q-45 0 -79 -21q-35 -21 -35 -44t11 -30t37 -7q13 0 13 -10q0 -13 -34 -34q-34 -20 -52 -20q-15 1 -25 11t-15.5 24t-7.5 28t-2 22q0 32 19 55t49 34q31 12 61 17t61 5q29 0 60.5 -6t57.5 -19t43 -34t17 -50v-393l68 -70h-146z
" />
    <glyph glyph-name="b" unicode="b" horiz-adv-x="531" 
d="M325 573q71 0 126 -76q55 -74 55 -213q0 -76 -19 -136t-50 -94q-30 -33 -62.5 -49.5t-63.5 -16.5q-39 0 -76 30q-38 31 -63 64v-82h-147l68 70v714q0 13 17 13q48 -26 80 -43t49 -25q11 -5 11.5 -11.5t-13.5 -6.5q-66 0 -66 -18v-560q57 -82 120 -82q42 0 93 64t51 172
q0 101 -15 160q-8 30 -17 48.5t-20.5 29.5t-26 15t-32.5 4q-64 0 -64 -47q0 -26 22 -42q11 -10 5 -16.5t-18 1.5q-10 8 -21 17.5t-24 20.5q-24 24 -24 32q-2 6 6 16.5t24.5 20.5t40.5 18t54 8z" />
    <glyph glyph-name="c" unicode="c" horiz-adv-x="481" 
d="M442 221q4 4 9 0.5t5 -15.5q0 -95 -65 -157q-65 -60 -149 -60q-90 0 -154 85q-63 85 -63 204q0 122 63 208q64 87 154 87q45 0 83 -16.5t59 -39.5t33 -42t12 -27q0 -16 -12 -23q-2 -1 -10 -6t-20 -11.5t-26 -15t-29 -17.5q-8 -5 -14.5 -3.5t-9.5 6.5t-1.5 11t7.5 11
q14 8 27.5 17.5t13.5 29.5q0 19 -8.5 37t-23.5 31.5t-36 21.5t-45 8q-73 0 -102.5 -65.5t-29.5 -201.5q0 -114 37 -187q38 -74 95 -74q58 0 107 37t49 70q0 28 -43 28q-17 0 -18.5 8.5t15.5 13.5q27 6 90 47z" />
    <glyph glyph-name="d" unicode="d" horiz-adv-x="531" 
d="M360 0v82q-73 -94 -140 -94q-31 0 -63.5 16.5t-62.5 49.5q-30 34 -49.5 93.5t-19.5 135.5q0 140 55 214q55 76 126 76q30 0 54 -7.5t40.5 -18t24 -21.5t6.5 -17q0 -8 -25 -32q-25 -23 -44 -38q-12 -9 -17.5 -2t4.5 17q7 7 14.5 15t7.5 27q0 48 -64 48q-55 0 -83 -55
q-28 -53 -28 -202q0 -108 51 -172t93 -64q63 0 120 82v560q0 18 -66 18q-14 1 -13 7t11 11l130 68q16 0 16 -13v-714l68 -70h-146z" />
    <glyph glyph-name="e" unicode="e" horiz-adv-x="481" 
d="M352 181q31 8 90 49q5 3 9.5 1t4.5 -16q0 -102 -61 -164q-62 -62 -145 -62q-82 0 -154 87q-71 89 -71 205q0 121 63 207q65 86 154 86q58 0 108 -38q50 -37 72.5 -77.5t22.5 -64.5q0 -9 -12 -16l-312 -201q16 -72 49.5 -115.5t79.5 -43.5q58 0 102 37q46 37 46 71
q0 32 -45 32q-17 0 -17 9t16 14zM110 281q0 -17 1.5 -34.5t3.5 -36.5l170 111q6 3 15 9q4 3 11 10.5t13 18t10.5 22.5t4.5 24q0 59 -28 99q-27 41 -69 41q-73 0 -102.5 -65t-29.5 -199z" />
    <glyph glyph-name="f" unicode="f" horiz-adv-x="496" 
d="M272 797q70 0 134 -49q65 -50 65 -113q0 -24 -14 -55q-14 -30 -46 -30q-11 0 -48 21q-19 11 -28 19t-10.5 13.5t3 8.5t10.5 3q3 0 9.5 -0.5t9.5 -0.5q29 0 29 37q0 33 -29 71q-28 37 -92 37q-94 0 -94 -161v-57q40 9 75 9q38 0 65 -21t27 -39q0 -11 -13 -11
q-37 0 -49.5 -20t-12.5 -57q0 -6 0.5 -20t0.5 -20q12 5 19 5q15 0 26 -11t11 -26q0 -18 -11.5 -27t-25.5 -9t-25.5 8.5t-11.5 25.5v166q0 19 -30 19q-16 0 -45 -8l1 -435l67 -70h-214l68 70v399q-2 -2 -8 -6t-14 -12q-17 -14 -24 -14q-17 0 -17 14q0 9 9 18q13 13 26.5 23
t27.5 18v125q0 63 48 113q48 49 131 49z" />
    <glyph glyph-name="g" unicode="g" horiz-adv-x="543" 
d="M510 495q9 -3 9 -11t-11 -8q-66 0 -66 -17v-186q1 -72 1 -120v-73q0 -22 9 -36.5t20 -22.5q11 -7 20 -32.5t9 -67.5q0 -30 -18 -65t-51 -67q-32 -32 -84.5 -53.5t-113.5 -21.5q-47 0 -85.5 9.5t-66 27t-42.5 42.5t-15 57q0 31 10.5 54.5t24 39.5t27 23.5t19.5 7.5
q7 0 33 -26t38 -44q8 -12 0.5 -17.5t-16.5 5.5q-11 12 -42 12q-20 0 -33.5 -13.5t-13.5 -40.5q0 -32 44 -54.5t126 -22.5q77 0 132 44q55 43 55 81q0 26 -10 46t-22.5 35t-22.5 25.5t-10 19.5v64q-26 -35 -65 -67q-39 -33 -79 -33q-31 0 -63.5 16.5t-62.5 49.5t-49.5 92.5
t-19.5 135.5q0 140 55 214q55 76 126 76q30 0 54 -7.5t40.5 -18t24 -21.5t6.5 -17q0 -8 -25 -32q-25 -23 -44 -38q-12 -9 -17.5 -2t4.5 17q7 7 14.5 15t7.5 27q0 46 -64 46q-37 0 -59 -19t-37 -76.5t-15 -159.5q0 -106 51 -170t93 -64q19 0 37.5 7.5t34 20.5t29 28.5
t23.5 32.5v408q0 12 17 12q48 -28 80 -44.5t49 -22.5z" />
    <glyph glyph-name="h" unicode="h" horiz-adv-x="556" 
d="M316 0l68 70v394q0 54 -32 54q-52 0 -170 -99v-349l68 -70h-214l69 70v623q0 18 -65 18q-15 0 -15 6t12 12l129 68q16 0 16 -13v-328q151 117 210 117q31 0 48 -20q18 -19 20.5 -33.5t2.5 -27.5v-422l68 -70h-215z" />
    <glyph glyph-name="i" unicode="i" horiz-adv-x="273" 
d="M34 0l68 70q1 152 1 247.5v138.5q0 18 -67 18q-13 0 -11.5 7t10.5 12l129 67q16 0 16 -13v-477l68 -70h-214zM109 665q-13 19 -13 46t13 46q14 19 33 19t32 -19t13 -46t-13 -46t-32 -19t-33 19z" />
    <glyph glyph-name="j" unicode="j" horiz-adv-x="213" 
d="M85 -213q-10 -14 -13.5 -12t0.5 20q2 13 9 40q4 14 6.5 26t4.5 21q4 17 7.5 50t3.5 68v237q1 91 1 145.5v74.5q0 18 -66 18q-14 0 -13.5 6.5t11.5 11.5l129 67q16 0 16 -12v-548q0 -57 -25 -104q-6 -12 -11.5 -21.5t-10.5 -17.5q-9 -15 -27 -39q-8 -12 -14 -19.5
t-8 -11.5zM97 710q0 27 13.5 46t32.5 19t32 -19t13 -46q0 -26 -13 -45t-32 -19t-32.5 19t-13.5 45z" />
    <glyph glyph-name="k" unicode="k" horiz-adv-x="541" 
d="M301 0l68 70l-61 224l-130 -88v-136l68 -70h-214l69 70v623q0 18 -67 18q-9 0 -9 7.5t8 10.5l129 68q16 0 16 -13v-329q151 118 210 118q27 -2 43 -9.5t24 -18.5t10.5 -25t1.5 -29q0 -30 -8 -53.5t-19 -40.5t-23 -27.5t-20 -15.5l-8 -4l-17 -12l76 -268l68 -70h-215z
M178 257q19 11 38 24t39 27t40.5 32t42.5 40q43 43 43 73q0 50 -39 50q-52 0 -164 -85v-161z" />
    <glyph glyph-name="l" unicode="l" horiz-adv-x="271" 
d="M246 0h-214l69 70v623q0 18 -67 18q-9 0 -9 7.5t8 10.5l129 68q16 0 16 -13v-714z" />
    <glyph glyph-name="m" unicode="m" horiz-adv-x="834" 
d="M596 0l68 70v394q0 37 -33 37q-49 0 -167 -83v-348l68 -70h-215l68 70v394q0 37 -33 37q-54 0 -169 -84v-347l68 -70h-214l69 70v387q0 18 -66 18q-17 0 -14 7t12 12l129 67q16 0 16 -13v-93q45 34 72 54q27 19 69 42q41 22 69 22q31 0 48 -20q18 -19 20.5 -33.5
t2.5 -27.5v-36q145 117 208 117q24 0 40 -11t22 -28q6 -16 7.5 -25.5t1.5 -16.5l-1 -422l68 -70h-214z" />
    <glyph glyph-name="n" unicode="n" horiz-adv-x="555" 
d="M316 0l68 70v394q0 37 -33 37q-54 0 -169 -84v-347l68 -70h-214l69 70v387q0 18 -66 18q-16 0 -13.5 7t11.5 12l129 67q16 0 16 -13v-93q45 34 72 54q27 19 69 42q41 22 69 22q31 0 48 -20q18 -19 20.5 -33.5t2.5 -27.5v-422l68 -70h-215z" />
    <glyph glyph-name="o" unicode="o" horiz-adv-x="484" 
d="M88 487q65 86 154 86q90 0 153 -86q64 -85 64 -206q0 -122 -64 -207q-63 -85 -153 -85t-154 85q-63 85 -63 207q0 120 63 206zM148 94q39 -77 94 -77t93 77q39 78 39 187t-39 186q-38 78 -93 78t-94 -78q-38 -78 -38 -186t38 -187z" />
    <glyph glyph-name="p" unicode="p" horiz-adv-x="537" 
d="M317 573q29 0 63 -15t63.5 -48t49 -85t19.5 -126q0 -145 -53 -228q-52 -82 -129 -82q-30 0 -53.5 7.5t-40 18t-24.5 21t-6 16.5q0 11 69 70q6 5 10.5 5t7 -3t2 -7.5t-6.5 -9.5l-14.5 -14.5t-7.5 -27.5q0 -47 64 -47q54 0 82.5 64t28.5 214q0 95 -51 154t-93 59
q-61 0 -116 -97v-598l68 -70h-214l69 70v645q0 17 -66 17q-17 0 -13 7.5t11 11.5l129 67q16 0 16 -12v-67q73 90 136 90z" />
    <glyph glyph-name="q" unicode="q" horiz-adv-x="537" 
d="M434 -159q5 -14 65 -14q15 0 12.5 -6.5t-10.5 -11.5l-129 -68q-16 0 -16 13v679q-58 76 -116 76q-42 0 -93 -59t-51 -154q0 -86 8 -140.5t22.5 -85t35 -41.5t45.5 -11q63 0 63 47q0 22 -21 42q-11 10 -5 16.5t18 -1.5q9 -7 19.5 -16t23.5 -22q26 -24 26 -32
q1 -6 -7 -16.5t-24.5 -21t-40 -18t-53.5 -7.5q-70 0 -126 80q-55 80 -55 230q0 74 19.5 126t49 85t63.5 48t63 15q62 0 136 -90v67q0 12 16 12q48 -26 80 -43t49 -24q9 -4 12 -11.5t-14 -7.5q-61 0 -65 -13v-622z" />
    <glyph glyph-name="r" unicode="r" horiz-adv-x="427" 
d="M324 573q79 0 79 -113q0 -11 -41 -49t-54 -38q-3 0 -3 2q0 1 9.5 23t9.5 62q0 35 -27 35q-40 0 -116 -69v-356l68 -70h-214l69 70v387q0 18 -66 18q-14 0 -12 7.5t10 12.5l129 66q16 0 16 -13v-81q14 17 26 29.5t22 22.5q19 19 46 36.5t49 17.5z" />
    <glyph glyph-name="s" unicode="s" horiz-adv-x="478" 
d="M236 573q78 0 131 -35t53 -85q0 -33 -9.5 -50.5t-22.5 -17.5q-20 2 -37 11t-33 22l-14 11q-15 11 5 14q3 1 8 1q39 0 39 33q0 15 -10 27t-26.5 20.5t-38 13.5t-45.5 5q-23 0 -43.5 -5.5t-35.5 -14.5t-24 -21t-9 -25q0 -40 34 -66t82 -43q34 -11 72 -25t69.5 -35.5t52 -53
t19.5 -76.5q0 -96 -62 -143q-61 -46 -159 -46q-86 0 -147 46q-60 46 -60 106q0 61 75 105q4 4 11 4t26 -16q5 -5 14 -12.5t20 -18.5q24 -21 28 -25q11 -10 4.5 -16t-17.5 2q-5 5 -13 9.5t-28 4.5q-23 0 -40 -11.5t-17 -38.5q0 -35 43 -72q44 -38 101 -38q67 0 104 40
q38 41 38 92q0 36 -32.5 64t-80.5 49q-33 15 -69.5 32t-66.5 39t-49.5 49.5t-19.5 63.5q0 42 22.5 70t57.5 39t56.5 14t39.5 3h4z" />
    <glyph glyph-name="t" unicode="t" horiz-adv-x="374" 
d="M325 132q0 10 4 14.5t8.5 4.5t8.5 -5t4 -14q0 -55 -33 -101q-32 -45 -94 -45q-37 0 -79 21t-42 61v395q-7 -5 -18.5 -16t-18.5 -11q-17 0 -17 14q0 7 9 18q16 19 45 36v188q0 18 -65 18q-14 0 -12 6.5t10 11.5l129 68q16 0 16 -13v-246q46 12 84 12q28 0 43.5 -6
t23.5 -15.5t10 -22.5t2 -27q0 -19 -40 -46q-40 -26 -55 -26q-3 0 -3 2q0 1 9.5 23t9.5 62q0 19 -29 19q-20 0 -55 -11v-413q0 -15 15.5 -33t40.5 -18q44 0 66 31q23 32 23 64z" />
    <glyph glyph-name="u" unicode="u" horiz-adv-x="548" 
d="M377 0v101q-145 -113 -205 -113q-23 0 -39 10t-22 25q-5 16 -7 26t-2 19v389q0 18 -68 18q-9 0 -9 7t9 12l129 67q16 0 16 -13v-452q0 -36 33 -36q53 0 165 80v317q0 18 -64 18q-9 0 -10 7.5t6 11.5l130 67q16 0 16 -13v-478l68 -70h-146z" />
    <glyph glyph-name="v" unicode="v" horiz-adv-x="512" 
d="M278 80q46 0 81.5 26.5t53.5 68.5t27 81t9 73q0 177 -95 177q-18 0 -27 -5t-14 -11.5t-9 -11.5t-11 -5q-14 0 -39 20q-23 21 -23 43q0 18 24.5 27.5t56.5 9.5q22 0 39 -2.5t44 -15.5q28 -13 46 -37t32 -73t14 -116q0 -141 -76 -241q-77 -99 -154 -99q-51 0 -104 32
q-51 33 -51 86v346q0 17 -67 17q-9 0 -10 6.5t10 12.5l129 67q9 0 12.5 -2.5t3.5 -10.5v-389q0 -31 23.5 -52.5t74.5 -21.5z" />
    <glyph glyph-name="w" unicode="w" horiz-adv-x="777" 
d="M576 573h14.5t11.5 -1q12 -1 31.5 -6t33.5 -14q17 -10 32.5 -27t27 -44t18.5 -64t7 -88q0 -141 -76 -241q-77 -99 -154 -99q-47 0 -99 29q-50 30 -56 77q-134 -106 -195 -106q-23 0 -39 10t-22 25q-5 16 -7 26t-2 19v390q0 17 -68 17q-11 0 -9.5 8t9.5 11l129 67
q16 0 16 -12v-453q0 -36 33 -36q52 0 155 73v325q0 17 -68 17q-11 0 -9.5 8t9.5 11l129 67q17 0 17 -12v-396q0 -31 23.5 -52.5t74.5 -21.5q48 0 81 27t52.5 65.5t28 81t8.5 73.5q0 179 -95 179q-15 0 -24.5 -5t-16 -11.5t-11 -11.5t-9.5 -5q-18 0 -40 18q-21 19 -21 41
q0 18 25 29.5t55 11.5z" />
    <glyph glyph-name="x" unicode="x" horiz-adv-x="511" 
d="M335 0l24 71q-101 156 -104 159q-11 -17 -26 -40q-13 -20 -32 -49.5t-45 -69.5l23 -71h-150q54 82 101 154.5t89 136.5q-17 28 -40 68q-20 34 -49.5 84t-68.5 119h150l-23 -72q14 -28 31.5 -61.5t39.5 -75.5q7 14 18 34l22.5 42.5t31.5 60.5l-23 72h150
q-42 -70 -81.5 -137.5t-77.5 -133.5q20 -31 48 -73q24 -37 59.5 -91t83.5 -127h-151z" />
    <glyph glyph-name="y" unicode="y" horiz-adv-x="542" 
d="M510 493q8 -4 8 -11.5t-8 -7.5q-68 0 -68 -17v-186q1 -72 1 -120v-73q0 -22 9 -36.5t20 -22.5q11 -7 20 -32.5t9 -67.5q0 -30 -18 -65t-51 -67q-32 -32 -84.5 -53.5t-113.5 -21.5q-47 0 -85.5 9.5t-66 27t-42.5 42.5t-15 57q0 31 10.5 54.5t24 39.5t27 23.5t19.5 7.5
q7 0 33 -26t38 -44q8 -12 0.5 -17.5t-16.5 5.5q-11 12 -42 12q-20 0 -33.5 -13.5t-13.5 -40.5q0 -32 44 -54.5t126 -22.5q77 0 132 44q55 43 55 81q0 26 -10 46t-22.5 35t-22.5 25.5t-10 19.5v81q-149 -117 -208 -117q-31 0 -49 19q-17 20 -19.5 34.5t-2.5 27.5v480
q0 4 4.5 8t9.5 4q12 0 38 -26t26 -41v-398q0 -36 32 -36q54 0 169 83v406q0 12 17 12q48 -25 80 -42t49 -25z" />
    <glyph glyph-name="z" unicode="z" horiz-adv-x="479" 
d="M37 0q-12 0 -12 16q0 39 37 103q38 68 90 131q27 33 54 65t52.5 61t49 54t41.5 44l37 38h-281q-12 0 -29 -20q-15 -20 -15 -35q0 -11 -6.5 -11t-6.5 11v91q0 5 4.5 9t7.5 4h368q15 0 15 -13v-36q-33 -36 -64.5 -73.5t-59 -73.5t-50.5 -69t-39 -60q-32 -54 -54.5 -98
t-30.5 -66l-8 -23h257q12 0 29 21q17 22 17 33q0 13 7 13t7 -13v-87q0 -16 -14 -16h-403z" />
    <glyph glyph-name="braceleft" unicode="{" horiz-adv-x="194" 
d="M169 -67q-15 6 -25.5 22t-17.5 39t-11 51.5t-5 59.5q-2 63 -6 126q-2 32 -7 62t-15 55.5t-24 44.5t-33 29q19 9 33.5 27.5t24.5 43t15 53t7 58.5q3 44 4.5 90t7 85.5t17 67t35.5 33.5v-9q-16 -6 -20 -21t-4 -53q0 -16 1.5 -43t3.5 -66t3.5 -68.5t1.5 -49.5q0 -51 -18 -91
t-50 -57q68 -38 68 -158q0 -20 -1.5 -50t-3.5 -71t-3.5 -69t-1.5 -44v-25.5t1 -17.5q1 -13 6.5 -27t16.5 -20v-7z" />
    <glyph glyph-name="bar" unicode="|" horiz-adv-x="140" 
d="M26 903h89v-14h-10l1 -958h9v-14h-90l1 14h10v958h-10v14z" />
    <glyph glyph-name="braceright" unicode="}" horiz-adv-x="194" 
d="M25 -60q16 8 20 27.5t4 62.5q0 16 -1.5 44t-3.5 69t-3.5 71t-1.5 50q0 120 68 158q-32 17 -50 57t-18 91q0 20 1.5 49.5t3.5 68.5t3.5 66t1.5 43q0 18 -0.5 30t-2.5 20t-7 13.5t-14 10.5v9q15 -5 25.5 -18.5t17.5 -34.5t10.5 -47t4.5 -56q1 -29 2 -59t3 -61
q2 -30 7.5 -58.5t15.5 -53t24 -43t34 -27.5q-19 -10 -33.5 -29t-24 -44.5t-15 -55.5t-7.5 -62q-2 -45 -3.5 -94t-7 -91t-17.5 -73t-36 -40v7z" />
    <glyph glyph-name="asciitilde" unicode="~" horiz-adv-x="278" 
d="M129 253q-60 27 -75 27q-9 0 -13 -3t-8 -7.5t-6 -7.5l-2 -2v9q0 26 15 37q11 8 30 8q24 0 79 -20q45 -19 65 -19q6 0 14 5q20 13 22 21l2 3q1 -5 1 -17q0 -26 -22 -42q-13 -10 -35 -10q-27 0 -67 18z" />
    <glyph glyph-name="exclamdown" unicode="&#xa1;" horiz-adv-x="146" 
d="M102 779q13 -12 13 -29t-13 -30q-12 -12 -29 -12t-30 12q-12 13 -12 30t12 29q13 13 30 13t29 -13zM121 59q0 -29 -15 -44t-33 -15t-33 15t-15 44q0 54 2.5 122t7.5 152t7.5 151.5t2.5 121.5q0 16 8.5 24.5t19 8.5t19.5 -8.5t9 -24.5q0 -54 2.5 -121.5t7.5 -151.5
t7.5 -152t2.5 -122z" />
    <glyph glyph-name="cent" unicode="&#xa2;" horiz-adv-x="394" 
d="M359 465q3 2 7 0.5t4 -12.5q0 -33 -10.5 -61.5t-29 -50.5t-43.5 -37t-54 -21v-43h10v-14h-90v14h10v43q-60 16 -99 81q-39 64 -39 147q0 84 39 149q40 66 99 82v39h-10v14h90v-14h-10v-38q28 -6 50 -20t37 -29.5t22 -29t6 -17.5q0 -12 -9 -19q-12 -7 -24 -15t-34 -22
q-7 -3 -12 -2t-7.5 5t-1.5 8.5t6 8.5q23 17 23 35q0 24 -15 44t-41 29v-413q18 5 34.5 14.5t29 20.5t19.5 23t7 23q0 23 -34 23q-14 0 -14 7t14 10q21 5 70 38zM163 718q-70 -28 -70 -207q0 -71 19 -124.5t51 -73.5v405z" />
    <glyph glyph-name="sterling" unicode="&#xa3;" horiz-adv-x="529" 
d="M273 807q34 0 67.5 -6.5t78.5 -6.5h10q18 0 19 -13q-1 -11 -15 -13q-19 0 -19 -34q0 -60 23 -138q4 -12 4 -18q0 -17 -12 -17q-14 0 -22 20q-24 72 -45 129q-6 16 -12 28t-15.5 20.5t-24.5 13t-37 6.5q-17 0 -32.5 -17t-27 -64t-18.5 -131t-7 -218h118v8h11v-72h-11v8
h-118l2 -264q67 0 108 18t78 58q10 11 18.5 22.5t15.5 23.5q7 13 15 30t16 39q9 22 16 38.5t12 27.5q10 21 22 21q13 0 13 -19q0 -6 -4 -17q-57 -138 -57 -208q0 -34 19 -34q7 0 11 -4.5t4 -9.5t-4.5 -9.5t-13.5 -4.5h-434l77 79l3 213h-33v-8h-11v72h11v-8h33q0 210 49 333
q49 126 119 126z" />
    <glyph glyph-name="currency" unicode="&#xa4;" horiz-adv-x="560" 
d="M493 91q-7 6 -18 17q-9 8 -22.5 21.5l-30.5 30.5q-64 -52 -145 -52t-143 52l-69 -69l-28 29q7 6 18 17l53 53q-53 65 -54 143v6q0 79 51 144q-21 20 -38 37l-31 31l30 32q6 -7 17 -17l22 -22t31 -30q62 50 142 50h4q80 -2 140 -53q22 20 39 37l31 31l31 -30
q-6 -7 -17 -17q-9 -8 -22.5 -21t-30.5 -30q46 -61 49 -135v-13q0 -76 -45 -139q20 -23 37 -40.5t30 -31.5zM278 156q74 0 126 52q53 53 53 127v2q0 73 -52 125t-125 52h-2q-76 0 -127 -53t-51 -127q0 -73 51 -125t125 -53h2z" />
    <glyph glyph-name="yen" unicode="&#xa5;" horiz-adv-x="565" 
d="M137 270h11v-8h90v74h-90v-8h-11v72h11v-8h90v39l-136 285l-77 79h241l-76 -79l110 -230l126 230l-77 79h191l-77 -79l-137 -249v-75h86v8h11v-72h-11v8h-86v-74h86v8h11v-72h-11v8h-86v-127l77 -79h-241l76 79v127h-90v-8h-11v72z" />
    <glyph glyph-name="brokenbar" unicode="&#xa6;" horiz-adv-x="148" 
d="M114 299v-368h9v-14h-90l1 14h10v368h70zM44 524v365h-10v14h89v-14h-10v-365h-69z" />
    <glyph glyph-name="section" unicode="&#xa7;" horiz-adv-x="478" 
d="M417 452q0 -118 -81 -164q55 -23 86 -56t31 -86q0 -96 -62 -143q-61 -46 -159 -46q-73 0 -141 47q-66 48 -66 105q0 24 10 42t22.5 31t25 20.5t17.5 11.5t11 4t25 -16q5 -4 12.5 -11t18.5 -17t19 -17t13 -11q14 -11 3 -17q-7 -3 -16 3q-5 5 -13 9.5t-28 4.5
q-23 0 -40.5 -11.5t-17.5 -38.5q0 -32 47 -71q46 -39 97 -39q61 0 102 41q40 40 40 91q0 33 -32 59.5t-80 45.5q-34 15 -70.5 30.5t-66.5 35.5t-49 45.5t-19 59.5q0 45 30 75t67.5 40.5t82.5 10.5q28 0 45 -4q-8 5 -20 11.5t-29 14.5q-35 18 -54 30q-16 10 -33 23
t-30.5 29.5t-21.5 35.5t-6 41q0 42 19 70t48 38q30 11 48.5 14.5t33.5 3.5q65 0 109 -35t44 -85q0 -68 -27 -68q-9 0 -20.5 6t-19.5 12q-7 6 -17.5 15.5t-11.5 10.5q-7 7 -3 11t14 4q32 0 32 33q0 30 -30 48.5t-70 18.5q-18 0 -35 -5.5t-30 -14.5t-20.5 -21.5t-7.5 -25.5
q0 -26 12 -43t31 -30t43.5 -23.5t50.5 -21.5q36 -17 66 -33t50.5 -49.5t20.5 -78.5zM286 307q28 17 46.5 48.5t18.5 69.5q0 32 -37 48q-36 18 -78 18t-77 -19q-35 -18 -35 -48q0 -43 41 -67q12 -7 19.5 -11t23.5 -11l24 -9q4 -2 11.5 -4.5t15.5 -5t15.5 -5.5t11.5 -4z" />
    <glyph glyph-name="dieresis" unicode="&#xa8;" horiz-adv-x="138" 
d="M90 705q-10 9 -8.5 20t9 19t18.5 9t20 -9q10 -9 9 -20t-9 -18.5t-19 -9t-20 8.5zM8 705q-10 9 -8.5 20t9 19t18.5 9t20 -9q10 -9 9 -20t-9 -18.5t-19 -9t-20 8.5z" />
    <glyph glyph-name="copyright" unicode="&#xa9;" horiz-adv-x="846" 
d="M585 352q4 3 7.5 0.5t3.5 -12.5q0 -76 -52 -125q-50 -49 -119 -49q-72 0 -123 68q-51 67 -51 164q0 98 51 167t123 69q38 0 66 -13.5t46.5 -31t27.5 -33.5t9 -22q0 -12 -9 -19q-2 -1 -19 -11t-49 -29q-7 -3 -12 -2t-7.5 5t-1.5 8.5t6 8.5q5 5 10.5 8t10.5 7t8.5 9t3.5 14
q0 31 -25.5 54.5t-64.5 23.5q-60 0 -83 -52t-23 -161q0 -90 29 -150q30 -59 77 -59q46 0 86 29q39 30 39 56q0 23 -35 23q-13 0 -13.5 7t13.5 10q21 5 70 38zM141 116q-116 118 -116 282t116 282q117 117 282 117t282 -117t117 -282t-117 -282q-118 -116 -282 -116t-282 116
zM176 645q-102 -102 -102 -247t102 -247t247 -102t247 102q103 102 103 247t-103 247q-102 103 -247 103t-247 -103z" />
    <glyph glyph-name="ordfeminine" unicode="&#xaa;" horiz-adv-x="239" 
d="M156 565v37q-23 -42 -57 -42q-27 0 -50.5 20.5t-23.5 58.5q0 27 22.5 46.5t49.5 19.5q17 0 26.5 -1.5t14 -4.5t5 -6.5t0.5 -7.5q0 -11 -23 -28q-5 -4 -7.5 -1t2.5 7q8 8 8 17q0 14 -25 14q-19 0 -28 -16.5t-9 -39.5q0 -30 14.5 -43.5t35.5 -13.5q24 0 45 46v110
q0 45 -40 45q-18 0 -32 -8.5t-14 -17.5q0 -15 19 -15q6 0 6 -4q0 -3 -4 -6.5t-9.5 -7t-11.5 -6t-10 -2.5q-12 0 -16 14t-4 20q0 24 24 34.5t52 10.5q27 0 49 -11.5t22 -32.5v-157l28 -28h-59z" />
    <glyph glyph-name="guillemotleft" unicode="&#xab;" horiz-adv-x="371" 
d="M346 162l-201 224l201 225v-79l-133 -148l133 -143v-79zM226 162l-201 224l201 225v-79l-133 -148l133 -143v-79z" />
    <glyph glyph-name="logicalnot" unicode="&#xac;" horiz-adv-x="644" 
d="M570 62v232h-545v54h594v-286h-49z" />
    <glyph glyph-name="uni00AD" unicode="&#xad;" horiz-adv-x="408" 
d="M25 429h14v-10h330v10h14v-90h-14v10h-330v-10h-14v90z" />
    <glyph glyph-name="registered" unicode="&#xae;" horiz-adv-x="846" 
d="M609 183h-135l43 44l-73 179l-87 -51v-128l43 -44h-135l43 44v357l-43 44h187q31 0 55 -7q13 -3 26 -10t23 -18.5t16.5 -26.5t6.5 -33q-1 -17 -8 -30t-21 -27l-12 -10.5t-15 -10.5q-12 -8 -13 -9q-2 -1 -6 -3.5t-8.5 -5t-8 -5l-3.5 -2.5l82 -203zM357 612v-238
q37 22 64.5 38t45.5 27q46 25 46 95q0 26 -30 52q-29 26 -62 26h-64zM141 116q-116 118 -116 282t116 282q117 117 282 117t282 -117t117 -282t-117 -282q-118 -116 -282 -116t-282 116zM176 645q-102 -102 -102 -247t102 -247t247 -102t247 102q103 102 103 247t-103 247
q-102 103 -247 103t-247 -103z" />
    <glyph glyph-name="macron" unicode="&#xaf;" horiz-adv-x="139" 
d="M0 748h7v-4h125v4h7v-44h-7v4h-125v-4h-7v44z" />
    <glyph glyph-name="degree" unicode="&#xb0;" horiz-adv-x="174" 
d="M56 755q-12 -12 -12 -30t12 -31q13 -12 31 -12t30 12q13 13 13 31t-13 30q-12 13 -30 13t-31 -13zM43 681q-18 19 -18 44t18 43q19 19 44 19t43 -19q19 -18 19 -43t-19 -44q-18 -18 -43 -18t-44 18z" />
    <glyph glyph-name="plusminus" unicode="&#xb1;" horiz-adv-x="408" 
d="M25 139h14v-10h330v10h14v-90h-14v10h-330v-10h-14v90zM25 429h14v-10h130v130h-10v14h90v-14h-10v-130h130v10h14v-90h-14v10h-130v-130h10v-14h-90v14h10v130h-130v-10h-14v90z" />
    <glyph glyph-name="uni00B2" unicode="&#xb2;" horiz-adv-x="194" 
d="M145 592l23 26l-8 -56h-131v30q0 38 46 75q29 23 43.5 37t14.5 35q0 20 -11.5 34t-22.5 14q-15 0 -29 -8t-14 -28q0 -24 24 -24q-6 -34 -11 -34q-44 0 -44 49q0 29 21.5 43.5t52.5 14.5q38 0 54 -19t16 -43q0 -20 -19 -41.5t-40 -34.5q-18 -11 -35 -30.5t-21 -39.5h91z
" />
    <glyph glyph-name="uni00B3" unicode="&#xb3;" horiz-adv-x="203" 
d="M172 750q0 -15 -7.5 -28t-14.5 -18l-8 -6q36 -24 36 -63q0 -30 -23 -51.5t-54 -21.5q-15 0 -29 5.5t-24.5 15t-16.5 21.5t-6 25q0 19 11 29.5t19 10.5q22 0 22 -19q0 -8 -10 -17.5t-10 -15.5q0 -34 45 -34q40 0 40 51q0 8 -2.5 18t-7.5 19t-12.5 15t-17.5 6q-13 0 -13 8
t13 8q8 0 19.5 11t11.5 31q0 36 -35 36q-37 0 -37 -30q0 -7 3.5 -13t7.5 -8l3 -2q-8 -24 -18 -24q-24 0 -24 47q0 16 19.5 29.5t48.5 13.5t50 -13t21 -36z" />
    <glyph glyph-name="acute" unicode="&#xb4;" horiz-adv-x="141" 
d="M122 769l19 -40l-131 -61l-10 22z" />
    <glyph glyph-name="mu" unicode="&#xb5;" horiz-adv-x="548" 
d="M102 430q0 18 -68 18q-9 0 -9 7t9 12l129 67q16 0 16 -13v-425q0 -36 33 -36q53 0 165 80v290q0 18 -64 18q-12 0 -11.5 7.5t9.5 12.5l128 66q16 0 16 -13v-451l68 -70h-146v101q-139 -109 -198 -113v-117q0 -21 -11.5 -33t-27.5 -12q-15 0 -26.5 12t-11.5 33v559z" />
    <glyph glyph-name="paragraph" unicode="&#xb6;" horiz-adv-x="1024" 
d="M640 793l-32 -27v-730l38 -36h-192l39 37v476h-10q-54 0 -95 41q-39 42 -39 99q0 59 37 99q38 41 95 41h159zM483 766q-44 0 -75 -34q-31 -32 -31 -79q0 -45 31 -79q31 -33 75 -33h10v225h-10zM570 37v729h-39v-729h39z" />
    <glyph glyph-name="periodcentered" unicode="&#xb7;" horiz-adv-x="134" 
d="M37 311q-12 13 -12 30t12 29q13 13 30 13t29 -13q13 -12 13 -29t-13 -30q-12 -12 -29 -12t-30 12z" />
    <glyph glyph-name="cedilla" unicode="&#xb8;" horiz-adv-x="261" 
d="M208 -120q0 -12 -5 -23.5t-14.5 -21t-22 -15.5t-27.5 -6q-32 0 -63 14q-30 14 -31 24q-1 4 1.5 7t6.5 2q1 0 22 -12t44 -12q24 0 39.5 12t15.5 29q0 15 -13 23.5t-29 8.5q-11 0 -27 -6q-17 -6 -18 -6q-7 0 -7 5q0 1 5 18l34 87h23l-27 -79q24 6 34 6q9 0 20 -3
q39 -14 39 -52z" />
    <glyph glyph-name="uni00B9" unicode="&#xb9;" horiz-adv-x="132" 
d="M108 562h-72l23 27v150q0 10 -30 16q-3 0 -3.5 3.5t2.5 5.5q24 11 31 16t11.5 12t9.5 7t5 -8v-202z" />
    <glyph glyph-name="ordmasculine" unicode="&#xba;" horiz-adv-x="224" 
d="M199 678q0 -24 -7 -45.5t-18.5 -37.5t-27.5 -25t-34 -9t-34 9t-27.5 25t-18.5 37.5t-7 45.5t7 45.5t18.5 37t27.5 25t34 9.5t34 -9.5t27.5 -25t18.5 -37t7 -45.5zM165 678q0 43 -15.5 74t-37.5 31t-37.5 -31t-15.5 -74q0 -45 15.5 -75.5t37.5 -30.5t37.5 30.5t15.5 75.5z
" />
    <glyph glyph-name="guillemotright" unicode="&#xbb;" horiz-adv-x="371" 
d="M25 611l201 -224l-201 -225v79l133 148l-133 143v79zM145 611l201 -224l-201 -225v79l133 148l-133 143v79z" />
    <glyph glyph-name="onequarter" unicode="&#xbc;" horiz-adv-x="626" 
d="M584 129q18 0 18 -17t-18 -17h-56v-49l38 -45h-120l38 45v49h-149q-5 0 -5 9q0 11 5 24q3 9 12 33t24 62t24 63.5t13 37.5q6 15 6 22q0 10 -16 10q-5 0 -11 -14q-5 -14 -21 -14q-22 0 -22 36q0 17 14 30.5t34 13.5q26 0 43 -18t17 -47q0 -13 -19 -66q-10 -26 -19 -51.5
t-19 -49.5l-19 -47h108v254q0 13 22 13q10 0 16 -4.5t6 -8.5v-254h56zM194 434h-120l38 46v250q0 14 -50 26q-5 0 -5.5 6t3.5 8q39 19 49 27q13 11 22 22t16 11q6 0 7.5 -3t1.5 -11v-336zM523 838l-6 -13l-9 4l-405 -868l9 -4l-5 -13l-82 38l6 13l9 -4l405 868l-9 4l6 13z
" />
    <glyph glyph-name="onehalf" unicode="&#xbd;" horiz-adv-x="590" 
d="M526 51l39 44l-14 -94h-218v50q0 31 16 60t61 65q6 5 18 14.5t16 13.5q23 19 37 34q14 14 19.5 27t5.5 31q0 16 -5.5 30.5t-13.5 25.5t-18.5 17.5t-19.5 6.5q-12 0 -25 -3t-23 -10.5t-16.5 -19t-6.5 -27.5q0 -40 39 -40q-9 -56 -17 -56q-11 0 -19.5 1.5t-23.5 7.5
q-14 7 -22.5 25.5t-8.5 47.5q0 48 36 71.5t87 23.5q31 0 53.5 -8.5t36.5 -23t20.5 -33t6.5 -38.5q0 -33 -33 -70q-32 -37 -66 -56q-31 -19 -58 -51q-28 -31 -34 -66h151zM194 434h-120l38 46v250q0 14 -50 26q-5 0 -5.5 6t3.5 8q39 19 49 27q13 11 22 22t16 11q6 0 7.5 -3
t1.5 -11v-336zM523 838l-6 -13l-11 4l-403 -868l9 -4l-5 -13l-82 38l6 13l9 -4l405 868l-9 4l6 13z" />
    <glyph glyph-name="threequarters" unicode="&#xbe;" horiz-adv-x="668" 
d="M152 826q24 0 46 -5.5t38.5 -16t26 -25.5t9.5 -35q0 -24 -13 -45.5t-26 -30.5l-13 -10q3 -2 7 -5t14 -14q14 -14 27.5 -36t13.5 -51q0 -48 -40 -84q-39 -36 -90 -36q-53 0 -90 34t-37 76q0 16 5.5 29t13 21.5t16.5 13t16 4.5q13 0 24.5 -8t11.5 -24q0 -13 -17 -30
t-17 -24q0 -58 76 -58q66 0 66 86q1 8 -2.5 24t-11 32t-20.5 28t-32 12q-21 0 -21 14q0 12 21 12q7 0 16 4.5t16.5 13.5t13 22t5.5 30q0 60 -57 60q-24 0 -43.5 -11.5t-19.5 -38.5q0 -12 6.5 -21.5t12.5 -12.5l6 -4q-12 -39 -32 -39q-19 0 -29 22.5t-10 56.5q0 13 8.5 25.5
t24 22.5t36 16t44.5 6zM626 129q17 0 17 -17t-17 -17h-56v-49l38 -45h-120l38 45v49h-149q-5 0 -5 9q0 11 5 24q3 10 12 34.5t24 62.5t24 63t13 36q5 15 5 22q0 10 -15 10q-5 0 -11 -14q-5 -14 -21 -14q-22 0 -22 36q0 17 14 30.5t34 13.5q26 0 42.5 -18t16.5 -47
q0 -13 -19 -66q-9 -26 -18 -51.5t-19 -49.5l-19 -47h108v254q0 13 22 13q10 0 16 -4.5t6 -8.5v-254h56zM565 838l-6 -13l-9 4l-405 -868l9 -4l-5 -13l-82 38l6 13l9 -4l405 868l-9 4l6 13z" />
    <glyph glyph-name="questiondown" unicode="&#xbf;" horiz-adv-x="431" 
d="M260 776q13 -12 13 -29t-13 -30q-12 -12 -29 -12t-30 12q-12 13 -12 30t12 29q13 13 30 13t29 -13zM305 159q62 53 88 53q13 0 13 -52q0 -27 -6.5 -51t-24.5 -51q-17 -26 -56 -42t-97 -16q-52 0 -90 13.5t-58 32.5q-21 21 -32 50q-11 32 -13.5 58t-2.5 62q0 31 12.5 55.5
t31 47t40 43t40 43t31 48.5t12.5 58q0 72 9 98.5t30 26.5q19 0 25 -25q7 -22 7 -100q0 -32 -12.5 -59.5t-31.5 -51.5t-40.5 -46t-40.5 -44t-31.5 -45t-12.5 -49q0 -196 127 -196q54 0 78 20t24 51q0 15 -5 32t-9 27z" />
    <glyph glyph-name="Agrave" unicode="&#xc0;" 
d="M267 979l171 -111l-14 -31l-184 86zM387 0l77 79l-74 342l-194 -113l-57 -229l77 -79h-191l77 79l159 637l-77 79h306l-77 -79l139 -637l76 -79h-241zM205 347l178 104l-63 291q-1 10 -8 10q-8 0 -9 -10z" />
    <glyph glyph-name="Aacute" unicode="&#xc1;" 
d="M440 923l-184 -86l-14 31l171 111zM387 0l77 79l-74 342l-194 -113l-57 -229l77 -79h-191l77 79l159 637l-77 79h306l-77 -79l139 -637l76 -79h-241zM205 347l178 104l-63 291q-1 10 -8 10q-8 0 -9 -10z" />
    <glyph glyph-name="Acircumflex" unicode="&#xc2;" 
d="M227 886l114 85l111 -85v-51l-111 70l-114 -70v51zM387 0l77 79l-74 342l-194 -113l-57 -229l77 -79h-191l77 79l159 637l-77 79h306l-77 -79l139 -637l76 -79h-241zM205 347l178 104l-63 291q-1 10 -8 10q-8 0 -9 -10z" />
    <glyph glyph-name="Atilde" unicode="&#xc3;" 
d="M326 867q-57 19 -80 14h-4q-2 0 -4.5 -0.5t-5.5 -0.5q-1 -2 -4 -6q-5 -6 -12 -18q-1 5 -1 11q0 5 -0.5 13.5t-0.5 19.5q0 -2 16 17q6 5 30 13q13 -1 34.5 -5t50.5 -11q48 -15 70 -14q2 1 5 2t7 3q9 8 15.5 16t7.5 11l2 3q2 -8 3 -43q1 -5 -22 -25q-13 -13 -35 -14
q-32 -2 -72 14zM387 0l77 79l-74 342l-194 -113l-57 -229l77 -79h-191l77 79l159 637l-77 79h306l-77 -79l139 -637l76 -79h-241zM205 347l178 104l-63 291q-1 10 -8 10q-8 0 -9 -10z" />
    <glyph glyph-name="Adieresis" unicode="&#xc4;" 
d="M358 844q-10 9 -8.5 20t9 19t18.5 9t20 -9q10 -9 9 -20t-9 -18.5t-19 -9t-20 8.5zM276 844q-10 9 -8.5 20t9 19t18.5 9t20 -9q10 -9 9 -20t-9 -18.5t-19 -9t-20 8.5zM387 0l77 79l-74 342l-194 -113l-57 -229l77 -79h-191l77 79l159 637l-77 79h306l-77 -79l139 -637
l76 -79h-241zM205 347l178 104l-63 291q-1 10 -8 10q-8 0 -9 -10z" />
    <glyph glyph-name="Aring" unicode="&#xc5;" 
d="M306 904q-12 -12 -12 -30t12 -31q13 -12 31 -12t30 12q13 13 13 31t-13 30q-12 13 -30 13t-31 -13zM293 830q-18 19 -18 44t18 43q19 19 44 19t43 -19q19 -18 19 -43t-19 -44q-18 -18 -43 -18t-44 18zM387 0l77 79l-74 342l-194 -113l-57 -229l77 -79h-191l77 79l159 637
l-77 79h306l-77 -79l139 -637l76 -79h-241zM205 347l178 104l-63 291q-1 10 -8 10q-8 0 -9 -10z" />
    <glyph glyph-name="AE" unicode="&#xc6;" horiz-adv-x="905" 
d="M205 347l178 104l-63 291q-1 10 -8 10q-8 0 -9 -10zM565 28q34 0 61 5t49 14t41 23t37 34q10 11 18.5 22.5t15.5 23.5q7 13 15 30t16 39q9 22 16 38.5t12 27.5q10 21 22 21t12 -18q0 -10 -4 -18q-56 -142 -56 -207q0 -35 19 -35q14 0 14 -13q-3 -14 -18 -15h-448l77 79
l-74 342l-194 -113l-57 -229l77 -79h-191l77 79l159 637l-77 79h614q9 0 13.5 -4.5t4.5 -10.5t-4 -10.5t-11 -4.5q-19 0 -19 -33q0 -69 23 -123q4 -8 4 -18q0 -18 -13 -18q-10 0 -21 20q-8 13 -18 36t-19 37t-22 24q-51 39 -104 56q-49 16 -151 19l-48 -49l71 -325
q61 30 96 60q19 16 25 22q6 7 12 20.5t6 32.5q0 5 -2 19.5t-2 24.5v6q0 23 16 23q17 0 18 -22q4 -64 21 -148q16 -83 39 -126q1 -1 1 -7q0 -7 -5 -12t-12 -5q-15 0 -19 18q-26 96 -83 96q-13 0 -24 -4q-20 -7 -40 -14.5t-40 -16.5z" />
    <glyph glyph-name="Ccedilla" unicode="&#xc7;" horiz-adv-x="572" 
d="M380 -135q0 -12 -5 -23.5t-14 -21t-21.5 -15.5t-27.5 -6q-32 0 -63 14q-30 14 -31 24q-2 4 1 7t7 2q1 0 21 -12q21 -12 45 -12t39 12t15 29q0 15 -13 23.5t-29 8.5q-5 0 -12 -2t-13.5 -4t-12 -4t-6.5 -2q-8 0 -8 5l6 18l31 81q-110 8 -187 127t-77 283q0 170 81 290
q82 120 197 120q37 0 67 -6t132 -6q17 0 18 -13q0 -12 -14 -14q-19 0 -19 -34q0 -65 56 -207q4 -8 4 -18q0 -18 -12 -18t-22 20q-5 10 -15 32.5t-27 59.5q-32 75 -51 107q-2 3 -7.5 13.5t-7.5 13.5t-8 11t-11 10q-12 9 -31 14.5t-52 5.5q-35 0 -62 -16.5t-50 -58.5
q-22 -42 -34 -118t-12 -188q0 -381 158 -381q35 0 52.5 6t30.5 13q5 3 11 11t8 11t7.5 13.5t7.5 13.5q10 16 22 42t28 62t27 60t16 35q10 21 22 21t12 -18q0 -10 -4 -18q-56 -142 -56 -207q0 -35 19 -35q12 0 14 -12q2 -11 -12 -13q-2 -1 -6 -1q-101 0 -132 -6
q-28 -7 -58 -7l-24 -73q24 6 34 6q8 0 20 -3q38 -14 38 -52z" />
    <glyph glyph-name="Egrave" unicode="&#xc8;" horiz-adv-x="618" 
d="M559 285q10 21 22 21t12 -18q0 -10 -4 -18q-56 -142 -56 -207q0 -35 19 -35q14 0 14 -13q-3 -14 -18 -15h-523l77 79v637l-77 79h486q9 0 13.5 -4.5t4.5 -10t-4 -10t-11 -4.5q-19 0 -19 -34q0 -69 23 -123q4 -8 4 -18q0 -18 -13 -18q-10 0 -21 20q-8 15 -19 35
q-11 23 -19.5 36t-20.5 26q-44 45 -89 60q-45 16 -150 16v-378q64 28 103 63q20 17 31.5 29t11.5 37q0 5 -1 20t-3 39q-1 11 4 17t12 6q17 0 18 -22q2 -26 7.5 -58.5t14.5 -73.5t18 -75.5t19 -63.5q3 -11 -2 -19t-13 -8q-15 0 -19 18q-26 96 -83 96q-13 0 -24 -4
q-27 -9 -50.5 -18.5t-43.5 -19.5v-323q54 0 96.5 4t76 13t58.5 23.5t45 35.5q10 11 18.5 22.5t15.5 23.5q7 13 15 30t16 39q9 22 16 38.5t12 27.5zM217 979l171 -111l-14 -31l-184 86z" />
    <glyph glyph-name="Eacute" unicode="&#xc9;" horiz-adv-x="618" 
d="M416 923l-184 -86l-14 31l171 111zM559 285q10 21 22 21t12 -18q0 -10 -4 -18q-56 -142 -56 -207q0 -35 19 -35q14 0 14 -13q-3 -14 -18 -15h-523l77 79v637l-77 79h486q9 0 13.5 -4.5t4.5 -10t-4 -10t-11 -4.5q-19 0 -19 -34q0 -69 23 -123q4 -8 4 -18q0 -18 -13 -18
q-10 0 -21 20q-8 15 -19 35q-11 23 -19.5 36t-20.5 26q-44 45 -89 60q-45 16 -150 16v-378q64 28 103 63q20 17 31.5 29t11.5 37q0 5 -1 20t-3 39q-1 11 4 17t12 6q17 0 18 -22q2 -26 7.5 -58.5t14.5 -73.5t18 -75.5t19 -63.5q3 -11 -2 -19t-13 -8q-15 0 -19 18
q-26 96 -83 96q-13 0 -24 -4q-27 -9 -50.5 -18.5t-43.5 -19.5v-323q54 0 96.5 4t76 13t58.5 23.5t45 35.5q10 11 18.5 22.5t15.5 23.5q7 13 15 30t16 39q9 22 16 38.5t12 27.5z" />
    <glyph glyph-name="Ecircumflex" unicode="&#xca;" horiz-adv-x="618" 
d="M187 886l114 85l111 -85v-51l-111 70l-114 -70v51zM559 285q10 21 22 21t12 -18q0 -10 -4 -18q-56 -142 -56 -207q0 -35 19 -35q14 0 14 -13q-3 -14 -18 -15h-523l77 79v637l-77 79h486q9 0 13.5 -4.5t4.5 -10t-4 -10t-11 -4.5q-19 0 -19 -34q0 -69 23 -123q4 -8 4 -18
q0 -18 -13 -18q-10 0 -21 20q-8 15 -19 35q-11 23 -19.5 36t-20.5 26q-44 45 -89 60q-45 16 -150 16v-378q64 28 103 63q20 17 31.5 29t11.5 37q0 5 -1 20t-3 39q-1 11 4 17t12 6q17 0 18 -22q2 -26 7.5 -58.5t14.5 -73.5t18 -75.5t19 -63.5q3 -11 -2 -19t-13 -8
q-15 0 -19 18q-26 96 -83 96q-13 0 -24 -4q-27 -9 -50.5 -18.5t-43.5 -19.5v-323q54 0 96.5 4t76 13t58.5 23.5t45 35.5q10 11 18.5 22.5t15.5 23.5q7 13 15 30t16 39q9 22 16 38.5t12 27.5z" />
    <glyph glyph-name="Edieresis" unicode="&#xcb;" horiz-adv-x="618" 
d="M289 844q-10 9 -8.5 20t9 19t18.5 9t20 -9q10 -9 9 -20t-9 -18.5t-19 -9t-20 8.5zM207 844q-10 9 -8.5 20t9 19t18.5 9t20 -9q10 -9 9 -20t-9 -18.5t-19 -9t-20 8.5zM559 285q10 21 22 21t12 -18q0 -10 -4 -18q-56 -142 -56 -207q0 -35 19 -35q14 0 14 -13
q-3 -14 -18 -15h-523l77 79v637l-77 79h486q9 0 13.5 -4.5t4.5 -10t-4 -10t-11 -4.5q-19 0 -19 -34q0 -69 23 -123q4 -8 4 -18q0 -18 -13 -18q-10 0 -21 20q-8 15 -19 35q-11 23 -19.5 36t-20.5 26q-44 45 -89 60q-45 16 -150 16v-378q64 28 103 63q20 17 31.5 29t11.5 37
q0 5 -1 20t-3 39q-1 11 4 17t12 6q17 0 18 -22q2 -26 7.5 -58.5t14.5 -73.5t18 -75.5t19 -63.5q3 -11 -2 -19t-13 -8q-15 0 -19 18q-26 96 -83 96q-13 0 -24 -4q-27 -9 -50.5 -18.5t-43.5 -19.5v-323q54 0 96.5 4t76 13t58.5 23.5t45 35.5q10 11 18.5 22.5t15.5 23.5
q7 13 15 30t16 39q9 22 16 38.5t12 27.5z" />
    <glyph glyph-name="Igrave" unicode="&#xcc;" horiz-adv-x="291" 
d="M266 0h-241l77 79v637l-77 79h241l-76 -79v-637zM53 979l171 -111l-14 -31l-184 86z" />
    <glyph glyph-name="Iacute" unicode="&#xcd;" horiz-adv-x="291" 
d="M279 923l-184 -86l-14 31l171 111zM266 0h-241l77 79v637l-77 79h241l-76 -79v-637z" />
    <glyph glyph-name="Icircumflex" unicode="&#xce;" horiz-adv-x="291" 
d="M66 872l80 60l78 -60v-36l-78 60l-80 -60v36zM266 0h-241l77 79v637l-77 79h241l-76 -79v-637z" />
    <glyph glyph-name="Idieresis" unicode="&#xcf;" horiz-adv-x="291" 
d="M166 844q-10 9 -8.5 20t9 19t18.5 9t20 -9q10 -9 9 -20t-9 -18.5t-19 -9t-20 8.5zM84 844q-10 9 -8.5 20t9 19t18.5 9t20 -9q10 -9 9 -20t-9 -18.5t-19 -9t-20 8.5zM266 0h-241l77 79v637l-77 79h241l-76 -79v-637z" />
    <glyph glyph-name="Eth" unicode="&#xd0;" horiz-adv-x="615" 
d="M190 27l101 1q43 1 79 24.5t62 69.5t40.5 115t14.5 162t-14.5 161.5t-40 114t-62 68.5t-79.5 23h-101v-347h37v10h14v-90h-14v10h-37v-322zM291 795q124 0 211 -116q88 -115 88 -280q0 -164 -88 -282q-89 -117 -211 -117h-266l77 79v270h-33v-10h-14v90h14v-10h33v297
l-77 79h266z" />
    <glyph glyph-name="Ntilde" unicode="&#xd1;" horiz-adv-x="644" 
d="M315 848q-37 19 -52 19h-10q-1 -2 -3 -4t-8 -10v7q0 17 11 26q7 5 21 5q16 0 55 -14q30 -13 46 -13q3 0 9 3q14 9 16 15l1 2q1 -3 1 -12q0 -19 -16 -29q-10 -7 -24 -7q-20 0 -47 12zM542 716v-637l77 -79h-279l77 79l-278 634v-634l77 -79h-191l77 79v637l-77 79h277
l-77 -79l280 -637v637l-77 79h191z" />
    <glyph glyph-name="Ograve" unicode="&#xd2;" horiz-adv-x="624" 
d="M251 979l171 -111l-14 -31l-184 86zM25 396q0 170 84 290t203 120t203 -120t84 -290t-84 -290t-203 -120t-203 120q-84 121 -84 290zM312 15q25 0 48.5 8.5t43 29.5t35 58t24.5 94q7 39 10 86.5t3 104.5q0 227 -49 308q-15 30 -36.5 47t-45.5 23t-49.5 2t-47.5 -16
q-21 -12 -39 -38.5t-31.5 -70.5t-21.5 -107t-7 -148q0 -381 163 -381z" />
    <glyph glyph-name="Oacute" unicode="&#xd3;" horiz-adv-x="624" 
d="M426 923l-184 -86l-14 31l171 111zM25 396q0 170 84 290t203 120t203 -120t84 -290t-84 -290t-203 -120t-203 120q-84 121 -84 290zM312 15q25 0 48.5 8.5t43 29.5t35 58t24.5 94q7 39 10 86.5t3 104.5q0 227 -49 308q-15 30 -36.5 47t-45.5 23t-49.5 2t-47.5 -16
q-21 -12 -39 -38.5t-31.5 -70.5t-21.5 -107t-7 -148q0 -381 163 -381z" />
    <glyph glyph-name="Ocircumflex" unicode="&#xd4;" horiz-adv-x="624" 
d="M197 886l114 85l111 -85v-51l-111 70l-114 -70v51zM25 396q0 170 84 290t203 120t203 -120t84 -290t-84 -290t-203 -120t-203 120q-84 121 -84 290zM312 15q25 0 48.5 8.5t43 29.5t35 58t24.5 94q7 39 10 86.5t3 104.5q0 227 -49 308q-15 30 -36.5 47t-45.5 23t-49.5 2
t-47.5 -16q-21 -12 -39 -38.5t-31.5 -70.5t-21.5 -107t-7 -148q0 -381 163 -381z" />
    <glyph glyph-name="Otilde" unicode="&#xd5;" horiz-adv-x="624" 
d="M313 867q-57 19 -80 14h-4q-2 0 -4.5 -0.5t-5.5 -0.5q-1 -2 -4 -6q-5 -6 -12 -18q-1 5 -1 11q0 5 -0.5 13.5t-0.5 19.5q0 -2 16 17q6 5 30 13q13 -1 34.5 -5t50.5 -11q48 -15 70 -14q2 1 5 2t7 3q9 8 15.5 16t7.5 11l2 3q2 -8 3 -43q1 -5 -22 -25q-13 -13 -35 -14
q-32 -2 -72 14zM25 396q0 170 84 290t203 120t203 -120t84 -290t-84 -290t-203 -120t-203 120q-84 121 -84 290zM312 15q25 0 48.5 8.5t43 29.5t35 58t24.5 94q7 39 10 86.5t3 104.5q0 227 -49 308q-15 30 -36.5 47t-45.5 23t-49.5 2t-47.5 -16q-21 -12 -39 -38.5
t-31.5 -70.5t-21.5 -107t-7 -148q0 -381 163 -381z" />
    <glyph glyph-name="Odieresis" unicode="&#xd6;" horiz-adv-x="624" 
d="M333 844q-10 9 -8.5 20t9 19t18.5 9t20 -9q10 -9 9 -20t-9 -18.5t-19 -9t-20 8.5zM251 844q-10 9 -8.5 20t9 19t18.5 9t20 -9q10 -9 9 -20t-9 -18.5t-19 -9t-20 8.5zM25 396q0 170 84 290t203 120t203 -120t84 -290t-84 -290t-203 -120t-203 120q-84 121 -84 290zM312 15
q25 0 48.5 8.5t43 29.5t35 58t24.5 94q7 39 10 86.5t3 104.5q0 227 -49 308q-15 30 -36.5 47t-45.5 23t-49.5 2t-47.5 -16q-21 -12 -39 -38.5t-31.5 -70.5t-21.5 -107t-7 -148q0 -381 163 -381z" />
    <glyph glyph-name="multiply" unicode="&#xd7;" horiz-adv-x="408" 
d="M109 542l10 -10l-7 -7l92 -92l92 92l-7 7l10 10l63 -63l-10 -10l-7 7l-92 -92l92 -92l7 7l10 -10l-63 -63l-10 10l7 7l-92 92l-92 -92l7 -7l-10 -10l-63 63l10 10l7 -7l92 92l-92 92l-7 -7l-10 10z" />
    <glyph glyph-name="Oslash" unicode="&#xd8;" horiz-adv-x="624" 
d="M312 15q36 0 64 16.5t51 56.5q49 81 49 308q0 200 -42 295l-225 -619q37 -57 103 -57zM25 396q0 170 84 290t203 120t203 -120t84 -290t-84 -290t-203 -120t-203 120q-84 121 -84 290zM414 725q-37 52 -102 52q-36 0 -63.5 -16.5t-51.5 -58.5q-23 -42 -35.5 -118
t-12.5 -188q0 -193 41 -287z" />
    <glyph glyph-name="Ugrave" unicode="&#xd9;" horiz-adv-x="644" 
d="M377 794h242l-77 -78v-561q0 -49 -25.5 -84.5t-63.5 -52.5q-75 -31 -131 -31t-131 31q-38 17 -63.5 52.5t-25.5 84.5v561l-77 78h241l-76 -78v-587q0 -54 45 -84q47 -29 87 -29q39 0 86 30q46 30 46 83v587zM226 979l171 -111l-14 -31l-184 86z" />
    <glyph glyph-name="Uacute" unicode="&#xda;" horiz-adv-x="644" 
d="M435 923l-184 -86l-14 31l171 111zM377 794h242l-77 -78v-561q0 -49 -25.5 -84.5t-63.5 -52.5q-75 -31 -131 -31t-131 31q-38 17 -63.5 52.5t-25.5 84.5v561l-77 78h241l-76 -78v-587q0 -54 45 -84q47 -29 87 -29q39 0 86 30q46 30 46 83v587z" />
    <glyph glyph-name="Ucircumflex" unicode="&#xdb;" horiz-adv-x="644" 
d="M243 872l80 60l78 -60v-36l-78 60l-80 -60v36zM377 794h242l-77 -78v-561q0 -49 -25.5 -84.5t-63.5 -52.5q-75 -31 -131 -31t-131 31q-38 17 -63.5 52.5t-25.5 84.5v561l-77 78h241l-76 -78v-587q0 -54 45 -84q47 -29 87 -29q39 0 86 30q46 30 46 83v587z" />
    <glyph glyph-name="Udieresis" unicode="&#xdc;" horiz-adv-x="644" 
d="M343 844q-10 9 -8.5 20t9 19t18.5 9t20 -9q10 -9 9 -20t-9 -18.5t-19 -9t-20 8.5zM261 844q-10 9 -8.5 20t9 19t18.5 9t20 -9q10 -9 9 -20t-9 -18.5t-19 -9t-20 8.5zM377 794h242l-77 -78v-561q0 -49 -25.5 -84.5t-63.5 -52.5q-75 -31 -131 -31t-131 31
q-38 17 -63.5 52.5t-25.5 84.5v561l-77 78h241l-76 -78v-587q0 -54 45 -84q47 -29 87 -29q39 0 86 30q46 30 46 83v587z" />
    <glyph glyph-name="Yacute" unicode="&#xdd;" horiz-adv-x="565" 
d="M407 923l-184 -86l-14 31l171 111zM326 467v-388l77 -79h-241l76 79v352l-136 285l-77 79h241l-76 -79l110 -230l126 230l-77 79h191l-77 -79z" />
    <glyph glyph-name="Thorn" unicode="&#xde;" horiz-adv-x="477" 
d="M266 0h-241l77 79v637l-77 79h241l-76 -79v-446q45 -57 90 -57q34 0 75 51q41 53 41 138q0 118 -23 162q-22 43 -66 43q-51 0 -51 -37q0 -19 17 -34q8 -8 4 -13.5t-14 1.5q-17 12 -36 30q-19 19 -19 26q-1 5 5.5 13.5t19 16.5t32 14t43.5 6q57 0 100 -61q44 -61 44 -170
q0 -116 -50 -177q-50 -60 -106 -60q-52 0 -106 69v-152z" />
    <glyph glyph-name="germandbls" unicode="&#xdf;" horiz-adv-x="580" 
d="M284 28h4h22t20.5 1.5t22.5 4t28 8.5q34 11 53 30q21 20 37 60.5t16 97.5q0 47 -11.5 78t-31.5 47q-16 13 -27.5 19.5t-34.5 11.5q-11 3 -19.5 4.5t-14.5 2.5t-15.5 2t-22.5 3q-5 1 -9.5 1t-7.5 1q-18 0 -36 4.5t-18 15.5q0 8 22 18.5t48 20.5q27 10 49 33.5t22 54.5
q0 58 -40 95q-39 39 -84 39q-25 0 -42 -9t-27 -29t-14.5 -53t-4.5 -81l-5 -509h-138l61 69v409v29t1.5 26t3.5 27t7 32q11 37 26 58q17 23 51 40.5t82 17.5q70 0 129 -44t59 -102q0 -52 -24 -82t-73 -47q33 -6 57.5 -13.5t54.5 -22.5q40 -20 67.5 -59t27.5 -104
q0 -60 -18.5 -104.5t-46.5 -70.5q-27 -25 -65 -42q-38 -16 -71.5 -21.5t-68.5 -5.5q-24 -2 -24 18q0 8 6 13t11 6z" />
    <glyph glyph-name="agrave" unicode="&#xe0;" horiz-adv-x="524" 
d="M186 757l171 -111l-14 -31l-184 86zM353 0v92q-59 -104 -143 -104q-68 0 -127 50q-58 51 -58 147q0 68 57 116q56 49 124 49q54 0 80 -9q27 -8 31 -16t4 -25q0 -26 -59 -70q-13 -8 -18.5 -0.5t5.5 15.5q22 19 22 42q0 35 -64 35q-23 0 -40.5 -11t-29 -30t-17.5 -44.5
t-6 -53.5q0 -38 10 -65t27 -44.5t40 -26t49 -8.5q59 0 113 115v276q0 42 -23 77t-78 35q-45 0 -79 -21q-35 -21 -35 -44t11 -30t37 -7q13 0 13 -10q0 -13 -34 -34q-34 -20 -52 -20q-15 1 -25 11t-15.5 24t-7.5 28t-2 22q0 32 19 55t49 34q31 12 61 17t61 5q29 0 60.5 -6
t57.5 -19t43 -34t17 -50v-393l68 -70h-146z" />
    <glyph glyph-name="aacute" unicode="&#xe1;" horiz-adv-x="524" 
d="M393 702l-184 -86l-14 31l171 111zM353 0v92q-59 -104 -143 -104q-68 0 -127 50q-58 51 -58 147q0 68 57 116q56 49 124 49q54 0 80 -9q27 -8 31 -16t4 -25q0 -26 -59 -70q-13 -8 -18.5 -0.5t5.5 15.5q22 19 22 42q0 35 -64 35q-23 0 -40.5 -11t-29 -30t-17.5 -44.5
t-6 -53.5q0 -38 10 -65t27 -44.5t40 -26t49 -8.5q59 0 113 115v276q0 42 -23 77t-78 35q-45 0 -79 -21q-35 -21 -35 -44t11 -30t37 -7q13 0 13 -10q0 -13 -34 -34q-34 -20 -52 -20q-15 1 -25 11t-15.5 24t-7.5 28t-2 22q0 32 19 55t49 34q31 12 61 17t61 5q29 0 60.5 -6
t57.5 -19t43 -34t17 -50v-393l68 -70h-146z" />
    <glyph glyph-name="acircumflex" unicode="&#xe2;" horiz-adv-x="524" 
d="M152 652l114 85l111 -85v-51l-111 70l-114 -70v51zM353 0v92q-59 -104 -143 -104q-68 0 -127 50q-58 51 -58 147q0 68 57 116q56 49 124 49q54 0 80 -9q27 -8 31 -16t4 -25q0 -26 -59 -70q-13 -8 -18.5 -0.5t5.5 15.5q22 19 22 42q0 35 -64 35q-23 0 -40.5 -11t-29 -30
t-17.5 -44.5t-6 -53.5q0 -38 10 -65t27 -44.5t40 -26t49 -8.5q59 0 113 115v276q0 42 -23 77t-78 35q-45 0 -79 -21q-35 -21 -35 -44t11 -30t37 -7q13 0 13 -10q0 -13 -34 -34q-34 -20 -52 -20q-15 1 -25 11t-15.5 24t-7.5 28t-2 22q0 32 19 55t49 34q31 12 61 17t61 5
q29 0 60.5 -6t57.5 -19t43 -34t17 -50v-393l68 -70h-146z" />
    <glyph glyph-name="atilde" unicode="&#xe3;" horiz-adv-x="524" 
d="M261 641q-57 19 -80 14h-4q-2 0 -4.5 -0.5t-5.5 -0.5q-1 -2 -4 -6q-5 -6 -12 -18q-1 5 -1 11q0 5 -0.5 13.5t-0.5 19.5q0 -2 16 17q6 5 30 13q13 -1 34.5 -5t50.5 -11q48 -15 70 -14q2 1 5 2t7 3q9 8 15.5 16t7.5 11l2 3q2 -8 3 -43q1 -5 -22 -25q-13 -13 -35 -14
q-32 -2 -72 14zM353 0v92q-59 -104 -143 -104q-68 0 -127 50q-58 51 -58 147q0 68 57 116q56 49 124 49q54 0 80 -9q27 -8 31 -16t4 -25q0 -26 -59 -70q-13 -8 -18.5 -0.5t5.5 15.5q22 19 22 42q0 35 -64 35q-23 0 -40.5 -11t-29 -30t-17.5 -44.5t-6 -53.5q0 -38 10 -65
t27 -44.5t40 -26t49 -8.5q59 0 113 115v276q0 42 -23 77t-78 35q-45 0 -79 -21q-35 -21 -35 -44t11 -30t37 -7q13 0 13 -10q0 -13 -34 -34q-34 -20 -52 -20q-15 1 -25 11t-15.5 24t-7.5 28t-2 22q0 32 19 55t49 34q31 12 61 17t61 5q29 0 60.5 -6t57.5 -19t43 -34t17 -50
v-393l68 -70h-146z" />
    <glyph glyph-name="adieresis" unicode="&#xe4;" horiz-adv-x="524" 
d="M274 611q-10 9 -8.5 20t9 19t18.5 9t20 -9q10 -9 9 -20t-9 -18.5t-19 -9t-20 8.5zM192 611q-10 9 -8.5 20t9 19t18.5 9t20 -9q10 -9 9 -20t-9 -18.5t-19 -9t-20 8.5zM353 0v92q-59 -104 -143 -104q-68 0 -127 50q-58 51 -58 147q0 68 57 116q56 49 124 49q54 0 80 -9
q27 -8 31 -16t4 -25q0 -26 -59 -70q-13 -8 -18.5 -0.5t5.5 15.5q22 19 22 42q0 35 -64 35q-23 0 -40.5 -11t-29 -30t-17.5 -44.5t-6 -53.5q0 -38 10 -65t27 -44.5t40 -26t49 -8.5q59 0 113 115v276q0 42 -23 77t-78 35q-45 0 -79 -21q-35 -21 -35 -44t11 -30t37 -7
q13 0 13 -10q0 -13 -34 -34q-34 -20 -52 -20q-15 1 -25 11t-15.5 24t-7.5 28t-2 22q0 32 19 55t49 34q31 12 61 17t61 5q29 0 60.5 -6t57.5 -19t43 -34t17 -50v-393l68 -70h-146z" />
    <glyph glyph-name="aring" unicode="&#xe5;" horiz-adv-x="524" 
d="M222 695q-12 -12 -12 -30t12 -31q13 -12 31 -12t30 12q13 13 13 31t-13 30q-12 13 -30 13t-31 -13zM209 621q-18 19 -18 44t18 43q19 19 44 19t43 -19q19 -18 19 -43t-19 -44q-18 -18 -43 -18t-44 18zM353 0v92q-59 -104 -143 -104q-68 0 -127 50q-58 51 -58 147
q0 68 57 116q56 49 124 49q54 0 80 -9q27 -8 31 -16t4 -25q0 -26 -59 -70q-13 -8 -18.5 -0.5t5.5 15.5q22 19 22 42q0 35 -64 35q-23 0 -40.5 -11t-29 -30t-17.5 -44.5t-6 -53.5q0 -38 10 -65t27 -44.5t40 -26t49 -8.5q59 0 113 115v276q0 42 -23 77t-78 35q-45 0 -79 -21
q-35 -21 -35 -44t11 -30t37 -7q13 0 13 -10q0 -13 -34 -34q-34 -20 -52 -20q-15 1 -25 11t-15.5 24t-7.5 28t-2 22q0 32 19 55t49 34q31 12 61 17t61 5q29 0 60.5 -6t57.5 -19t43 -34t17 -50v-393l68 -70h-146z" />
    <glyph glyph-name="ae" unicode="&#xe6;" horiz-adv-x="809" 
d="M438 281q0 -17 1.5 -34.5t3.5 -36.5l170 112q6 3 15 9q4 3 11 10.5t13 17.5t10.5 22t4.5 24q0 59 -28 99q-27 41 -69 41q-73 0 -102.5 -65t-29.5 -199zM680 181q44 11 90 49q5 3 9.5 1t4.5 -16q0 -101 -61 -163q-62 -63 -145 -63q-54 0 -107 38q-54 40 -85 101
q-72 -138 -176 -138q-68 0 -127 50q-58 49 -58 145q0 68 57 116q56 49 124 49q54 0 80 -9q27 -8 31 -16t4 -25q0 -26 -59 -70q-13 -8 -18.5 -0.5t5.5 15.5q22 19 22 42q0 35 -64 35q-23 0 -40.5 -11t-29 -30t-17.5 -44.5t-6 -53.5q0 -38 10 -65t27 -44.5t40 -26t49 -8.5
q59 0 113 115v127v149q0 42 -23 77t-78 35q-45 0 -79 -21q-35 -21 -35 -44t11 -30t37 -7q13 0 13 -10q0 -13 -34 -34q-34 -20 -52 -20q-15 1 -25 11t-15.5 24t-7.5 28t-2 22q0 32 19 55t49 34q31 12 61 17t61 5q56 0 104 -19q51 -20 67 -56q62 77 146 77q58 0 108 -38
q50 -37 72.5 -77.5t22.5 -64.5q0 -11 -12 -18l-312 -199q16 -72 49.5 -115.5t79.5 -43.5q58 0 102 37q46 37 46 71q0 32 -45 32q-17 0 -17 9.5t16 13.5z" />
    <glyph glyph-name="ccedilla" unicode="&#xe7;" horiz-adv-x="481" 
d="M320 -133q0 -12 -5 -23.5t-14.5 -21t-22.5 -15.5t-28 -6q-32 0 -63 14q-30 14 -31 24q0 4 2.5 7t5.5 2q1 0 22 -12t44 -12q24 0 40 12t16 29q0 15 -13 23.5t-29 8.5q-11 0 -27 -6q-17 -6 -19 -6q-6 0 -6 5q0 7 4 18l32 82q-86 7 -144 90q-59 85 -59 198q0 122 63 208
q64 87 154 87q45 0 83 -16.5t59 -39.5t33 -42t12 -27q0 -16 -12 -23q-2 -1 -10 -6t-20 -11.5t-26 -15t-29 -17.5q-8 -5 -14.5 -3.5t-9.5 6.5t-1.5 11t7.5 11q14 8 27.5 17.5t13.5 29.5q0 19 -8.5 37t-23.5 31.5t-36 21.5t-45 8q-73 0 -102.5 -65.5t-29.5 -201.5
q0 -114 37 -187q38 -74 95 -74q58 0 107 37t49 70q0 28 -43 28q-17 0 -18.5 8.5t15.5 13.5q27 6 90 47q4 4 9 0.5t5 -15.5q0 -93 -61 -153q-61 -59 -144 -64l-25 -73q24 6 34 6q11 0 20 -3q40 -13 40 -52z" />
    <glyph glyph-name="egrave" unicode="&#xe8;" horiz-adv-x="481" 
d="M164 757l171 -111l-14 -31l-184 86zM352 181q31 8 90 49q5 3 9.5 1t4.5 -16q0 -102 -61 -164q-62 -62 -145 -62q-82 0 -154 87q-71 89 -71 205q0 121 63 207q65 86 154 86q58 0 108 -38q50 -37 72.5 -77.5t22.5 -64.5q0 -9 -12 -16l-312 -201q16 -72 49.5 -115.5
t79.5 -43.5q58 0 102 37q46 37 46 71q0 32 -45 32q-17 0 -17 9t16 14zM110 281q0 -17 1.5 -34.5t3.5 -36.5l170 111q6 3 15 9q4 3 11 10.5t13 18t10.5 22.5t4.5 24q0 59 -28 99q-27 41 -69 41q-73 0 -102.5 -65t-29.5 -199z" />
    <glyph glyph-name="eacute" unicode="&#xe9;" horiz-adv-x="481" 
d="M346 702l-184 -86l-14 31l171 111zM352 181q31 8 90 49q5 3 9.5 1t4.5 -16q0 -102 -61 -164q-62 -62 -145 -62q-82 0 -154 87q-71 89 -71 205q0 121 63 207q65 86 154 86q58 0 108 -38q50 -37 72.5 -77.5t22.5 -64.5q0 -9 -12 -16l-312 -201q16 -72 49.5 -115.5
t79.5 -43.5q58 0 102 37q46 37 46 71q0 32 -45 32q-17 0 -17 9t16 14zM110 281q0 -17 1.5 -34.5t3.5 -36.5l170 111q6 3 15 9q4 3 11 10.5t13 18t10.5 22.5t4.5 24q0 59 -28 99q-27 41 -69 41q-73 0 -102.5 -65t-29.5 -199z" />
    <glyph glyph-name="ecircumflex" unicode="&#xea;" horiz-adv-x="481" 
d="M132 652l114 85l111 -85v-51l-111 70l-114 -70v51zM352 181q31 8 90 49q5 3 9.5 1t4.5 -16q0 -102 -61 -164q-62 -62 -145 -62q-82 0 -154 87q-71 89 -71 205q0 121 63 207q65 86 154 86q58 0 108 -38q50 -37 72.5 -77.5t22.5 -64.5q0 -9 -12 -16l-312 -201
q16 -72 49.5 -115.5t79.5 -43.5q58 0 102 37q46 37 46 71q0 32 -45 32q-17 0 -17 9t16 14zM110 281q0 -17 1.5 -34.5t3.5 -36.5l170 111q6 3 15 9q4 3 11 10.5t13 18t10.5 22.5t4.5 24q0 59 -28 99q-27 41 -69 41q-73 0 -102.5 -65t-29.5 -199z" />
    <glyph glyph-name="edieresis" unicode="&#xeb;" horiz-adv-x="481" 
d="M263 612q-10 9 -8.5 20t9 19t18.5 9t20 -9q10 -9 9 -20t-9 -18.5t-19 -9t-20 8.5zM181 612q-10 9 -8.5 20t9 19t18.5 9t20 -9q10 -9 9 -20t-9 -18.5t-19 -9t-20 8.5zM352 181q31 8 90 49q5 3 9.5 1t4.5 -16q0 -102 -61 -164q-62 -62 -145 -62q-82 0 -154 87
q-71 89 -71 205q0 121 63 207q65 86 154 86q58 0 108 -38q50 -37 72.5 -77.5t22.5 -64.5q0 -9 -12 -16l-312 -201q16 -72 49.5 -115.5t79.5 -43.5q58 0 102 37q46 37 46 71q0 32 -45 32q-17 0 -17 9t16 14zM110 281q0 -17 1.5 -34.5t3.5 -36.5l170 111q6 3 15 9q4 3 11 10.5
t13 18t10.5 22.5t4.5 24q0 59 -28 99q-27 41 -69 41q-73 0 -102.5 -65t-29.5 -199z" />
    <glyph glyph-name="igrave" unicode="&#xec;" horiz-adv-x="273" 
d="M35 757l171 -111l-14 -31l-184 86zM34 0l69 70v360q0 18 -67 18q-13 0 -11.5 7t10.5 12l129 67q16 0 16 -13v-451l68 -70h-214z" />
    <glyph glyph-name="iacute" unicode="&#xed;" horiz-adv-x="273" 
d="M192 704l19 -40l-131 -61l-10 22zM34 0l69 70v360q0 18 -67 18q-13 0 -11.5 7t10.5 12l129 67q16 0 16 -13v-451l68 -70h-214z" />
    <glyph glyph-name="icircumflex" unicode="&#xee;" horiz-adv-x="273" 
d="M62 639l80 60l78 -60v-36l-78 60l-80 -60v36zM34 0l69 70v360q0 18 -67 18q-13 0 -11.5 7t10.5 12l129 67q16 0 16 -13v-451l68 -70h-214z" />
    <glyph glyph-name="idieresis" unicode="&#xef;" horiz-adv-x="273" 
d="M162 611q-10 9 -8.5 20t9 19t18.5 9t20 -9q10 -9 9 -20t-9 -18.5t-19 -9t-20 8.5zM80 611q-10 9 -8.5 20t9 19t18.5 9t20 -9q10 -9 9 -20t-9 -18.5t-19 -9t-20 8.5zM34 0l69 70v360q0 18 -67 18q-13 0 -11.5 7t10.5 12l129 67q16 0 16 -13v-451l68 -70h-214z" />
    <glyph glyph-name="eth" unicode="&#xf0;" horiz-adv-x="531" 
d="M108 708q0 23 58 54t101 31q45 0 87 -20.5t65 -66.5l68 25l12 -33l-68 -25q7 -31 7 -66v-537l68 -70h-146v82q-73 -94 -140 -94q-31 0 -63.5 16.5t-62.5 49.5q-30 34 -49.5 93.5t-19.5 135.5q0 140 55 214q55 76 126 76q30 0 54 -7.5t40.5 -18t24 -21.5t6.5 -17
q0 -8 -25 -32q-25 -23 -44 -38q-12 -9 -17.5 -2t4.5 17q7 7 14.5 15t7.5 27q0 48 -64 48q-55 0 -83 -55q-28 -53 -28 -202q0 -108 51 -172t93 -64q63 0 120 82v491q0 18 -1 23l-76 -27l-12 33l79 29q-21 50 -86 50q-33 0 -91 -13q-60 -12 -63 -12q-2 0 -2 1z" />
    <glyph glyph-name="ntilde" unicode="&#xf1;" horiz-adv-x="555" 
d="M271 615q-37 19 -52 19h-10q-1 -2 -3 -4t-8 -10v7q0 17 11 26q7 5 21 5q16 0 55 -14q30 -13 46 -13q3 0 9 3q14 9 16 15l1 2q1 -3 1 -12q0 -19 -16 -29q-10 -7 -24 -7q-20 0 -47 12zM316 0l68 70v394q0 37 -33 37q-54 0 -169 -84v-347l68 -70h-214l69 70v387q0 18 -66 18
q-16 0 -13.5 7t11.5 12l129 67q16 0 16 -13v-93q45 34 72 54q27 19 69 42q41 22 69 22q31 0 48 -20q18 -19 20.5 -33.5t2.5 -27.5v-422l68 -70h-215z" />
    <glyph glyph-name="ograve" unicode="&#xf2;" horiz-adv-x="484" 
d="M166 757l171 -111l-14 -31l-184 86zM88 487q65 86 154 86q90 0 153 -86q64 -85 64 -206q0 -122 -64 -207q-63 -85 -153 -85t-154 85q-63 85 -63 207q0 120 63 206zM148 94q39 -77 94 -77t93 77q39 78 39 187t-39 186q-38 78 -93 78t-94 -78q-38 -78 -38 -186t38 -187z
" />
    <glyph glyph-name="oacute" unicode="&#xf3;" horiz-adv-x="484" 
d="M88 487q65 86 154 86q90 0 153 -86q64 -85 64 -206q0 -122 -64 -207q-63 -85 -153 -85t-154 85q-63 85 -63 207q0 120 63 206zM148 94q39 -77 94 -77t93 77q39 78 39 187t-39 186q-38 78 -93 78t-94 -78q-38 -78 -38 -186t38 -187zM368 702l-184 -86l-14 31l171 111z" />
    <glyph glyph-name="ocircumflex" unicode="&#xf4;" horiz-adv-x="484" 
d="M130 652l114 85l111 -85v-51l-111 70l-114 -70v51zM88 487q65 86 154 86q90 0 153 -86q64 -85 64 -206q0 -122 -64 -207q-63 -85 -153 -85t-154 85q-63 85 -63 207q0 120 63 206zM148 94q39 -77 94 -77t93 77q39 78 39 187t-39 186q-38 78 -93 78t-94 -78
q-38 -78 -38 -186t38 -187z" />
    <glyph glyph-name="otilde" unicode="&#xf5;" horiz-adv-x="484" 
d="M240 641q-57 19 -80 14h-4q-2 0 -4.5 -0.5t-5.5 -0.5q-1 -2 -4 -6q-5 -6 -12 -18q-1 5 -1 11q0 5 -0.5 13.5t-0.5 19.5q0 -2 16 17q6 5 30 13q13 -1 34.5 -5t50.5 -11q48 -15 70 -14q2 1 5 2t7 3q9 8 15.5 16t7.5 11l2 3q2 -8 3 -43q1 -5 -22 -25q-13 -13 -35 -14
q-32 -2 -72 14zM88 487q65 86 154 86q90 0 153 -86q64 -85 64 -206q0 -122 -64 -207q-63 -85 -153 -85t-154 85q-63 85 -63 207q0 120 63 206zM148 94q39 -77 94 -77t93 77q39 78 39 187t-39 186q-38 78 -93 78t-94 -78q-38 -78 -38 -186t38 -187z" />
    <glyph glyph-name="odieresis" unicode="&#xf6;" horiz-adv-x="484" 
d="M263 611q-10 9 -8.5 20t9 19t18.5 9t20 -9q10 -9 9 -20t-9 -18.5t-19 -9t-20 8.5zM181 611q-10 9 -8.5 20t9 19t18.5 9t20 -9q10 -9 9 -20t-9 -18.5t-19 -9t-20 8.5zM88 487q65 86 154 86q90 0 153 -86q64 -85 64 -206q0 -122 -64 -207q-63 -85 -153 -85t-154 85
q-63 85 -63 207q0 120 63 206zM148 94q39 -77 94 -77t93 77q39 78 39 187t-39 186q-38 78 -93 78t-94 -78q-38 -78 -38 -186t38 -187z" />
    <glyph glyph-name="divide" unicode="&#xf7;" horiz-adv-x="408" 
d="M174 470q-12 13 -12 30t12 29q13 13 30 13t29 -13q13 -12 13 -29t-13 -30q-12 -12 -29 -12t-30 12zM174 240q-12 13 -12 30t12 29q13 13 30 13t29 -13q13 -12 13 -29t-13 -30q-12 -12 -29 -12t-30 12zM25 429h14v-10h330v10h14v-90h-14v10h-330v-10h-14v90z" />
    <glyph glyph-name="oslash" unicode="&#xf8;" horiz-adv-x="484" 
d="M242 17q55 0 93 77q39 78 39 187q0 105 -38 186l-155 -420q28 -30 61 -30zM88 487q65 86 154 86q90 0 153 -86q64 -85 64 -206q0 -122 -64 -207q-63 -85 -153 -85t-154 85q-63 85 -63 207q0 120 63 206zM305 514q-28 31 -63 31q-55 0 -94 -78q-38 -78 -38 -186
q0 -112 39 -188z" />
    <glyph glyph-name="ugrave" unicode="&#xf9;" horiz-adv-x="548" 
d="M174 757l171 -111l-14 -31l-184 86zM377 0v101q-145 -113 -205 -113q-23 0 -39 10t-22 25q-5 16 -7 26t-2 19v389q0 18 -68 18q-9 0 -9 7t9 12l129 67q16 0 16 -13v-452q0 -36 33 -36q53 0 165 80v317q0 18 -64 18q-9 0 -10 7.5t6 11.5l130 67q16 0 16 -13v-478l68 -70
h-146z" />
    <glyph glyph-name="uacute" unicode="&#xfa;" horiz-adv-x="548" 
d="M392 702l-184 -86l-14 31l171 111zM377 0v101q-145 -113 -205 -113q-23 0 -39 10t-22 25q-5 16 -7 26t-2 19v389q0 18 -68 18q-9 0 -9 7t9 12l129 67q16 0 16 -13v-452q0 -36 33 -36q53 0 165 80v317q0 18 -64 18q-9 0 -10 7.5t6 11.5l130 67q16 0 16 -13v-478l68 -70
h-146z" />
    <glyph glyph-name="ucircumflex" unicode="&#xfb;" horiz-adv-x="548" 
d="M222 639l80 60l78 -60v-36l-78 60l-80 -60v36zM377 0v101q-145 -113 -205 -113q-23 0 -39 10t-22 25q-5 16 -7 26t-2 19v389q0 18 -68 18q-9 0 -9 7t9 12l129 67q16 0 16 -13v-452q0 -36 33 -36q53 0 165 80v317q0 18 -64 18q-9 0 -10 7.5t6 11.5l130 67q16 0 16 -13
v-478l68 -70h-146z" />
    <glyph glyph-name="udieresis" unicode="&#xfc;" horiz-adv-x="548" 
d="M322 611q-10 9 -8.5 20t9 19t18.5 9t20 -9q10 -9 9 -20t-9 -18.5t-19 -9t-20 8.5zM240 611q-10 9 -8.5 20t9 19t18.5 9t20 -9q10 -9 9 -20t-9 -18.5t-19 -9t-20 8.5zM377 0v101q-145 -113 -205 -113q-23 0 -39 10t-22 25q-5 16 -7 26t-2 19v389q0 18 -68 18q-9 0 -9 7
t9 12l129 67q16 0 16 -13v-452q0 -36 33 -36q53 0 165 80v317q0 18 -64 18q-9 0 -10 7.5t6 11.5l130 67q16 0 16 -13v-478l68 -70h-146z" />
    <glyph glyph-name="yacute" unicode="&#xfd;" horiz-adv-x="542" 
d="M376 702l-184 -86l-14 31l171 111zM510 493q8 -4 8 -11.5t-8 -7.5q-68 0 -68 -17v-186q1 -72 1 -120v-73q0 -22 9 -36.5t20 -22.5q11 -7 20 -32.5t9 -67.5q0 -30 -18 -65t-51 -67q-32 -32 -84.5 -53.5t-113.5 -21.5q-47 0 -85.5 9.5t-66 27t-42.5 42.5t-15 57
q0 31 10.5 54.5t24 39.5t27 23.5t19.5 7.5q7 0 33 -26t38 -44q8 -12 0.5 -17.5t-16.5 5.5q-11 12 -42 12q-20 0 -33.5 -13.5t-13.5 -40.5q0 -32 44 -54.5t126 -22.5q77 0 132 44q55 43 55 81q0 26 -10 46t-22.5 35t-22.5 25.5t-10 19.5v81q-149 -117 -208 -117q-31 0 -49 19
q-17 20 -19.5 34.5t-2.5 27.5v480q0 4 4.5 8t9.5 4q12 0 38 -26t26 -41v-398q0 -36 32 -36q54 0 169 83v406q0 12 17 12q48 -25 80 -42t49 -25z" />
    <glyph glyph-name="thorn" unicode="&#xfe;" horiz-adv-x="461" 
d="M246 0h-214l69 70v623q0 18 -67 18q-9 0 -9 7.5t8 10.5l129 68q16 0 16 -13v-519q43 -52 86 -52q34 0 75 51q41 53 41 138q0 118 -23 162q-22 43 -66 43q-51 0 -51 -37q0 -19 17 -34q8 -8 4 -13.5t-14 1.5q-17 12 -36 30q-19 19 -19 26q-1 5 5.5 13.5t19 16.5t32 14
t43.5 6q57 0 100 -61q44 -61 44 -170q0 -116 -50 -177q-50 -60 -106 -60q-50 0 -102 64v-156z" />
    <glyph glyph-name="ydieresis" unicode="&#xff;" horiz-adv-x="542" 
d="M261 611q-10 9 -8.5 20t9 19t18.5 9t20 -9q10 -9 9 -20t-9 -18.5t-19 -9t-20 8.5zM179 611q-10 9 -8.5 20t9 19t18.5 9t20 -9q10 -9 9 -20t-9 -18.5t-19 -9t-20 8.5zM510 493q8 -4 8 -11.5t-8 -7.5q-68 0 -68 -17v-186q1 -72 1 -120v-73q0 -22 9 -36.5t20 -22.5
q11 -7 20 -32.5t9 -67.5q0 -30 -18 -65t-51 -67q-32 -32 -84.5 -53.5t-113.5 -21.5q-47 0 -85.5 9.5t-66 27t-42.5 42.5t-15 57q0 31 10.5 54.5t24 39.5t27 23.5t19.5 7.5q7 0 33 -26t38 -44q8 -12 0.5 -17.5t-16.5 5.5q-11 12 -42 12q-20 0 -33.5 -13.5t-13.5 -40.5
q0 -32 44 -54.5t126 -22.5q77 0 132 44q55 43 55 81q0 26 -10 46t-22.5 35t-22.5 25.5t-10 19.5v81q-149 -117 -208 -117q-31 0 -49 19q-17 20 -19.5 34.5t-2.5 27.5v480q0 4 4.5 8t9.5 4q12 0 38 -26t26 -41v-398q0 -36 32 -36q54 0 169 83v406q0 12 17 12q48 -25 80 -42
t49 -25z" />
    <glyph glyph-name="Abreve" unicode="&#x102;" 
d="M239 945q17 -26 40.5 -37.5t50.5 -12.5q29 1 50 13t42 38l23 -32q-5 -11 -15 -23.5t-24 -22.5t-33 -16.5t-43 -6.5t-43 6.5t-34 17t-25 23.5t-15 26zM387 0l77 79l-74 342l-194 -113l-57 -229l77 -79h-191l77 79l159 637l-77 79h306l-77 -79l139 -637l76 -79h-241z
M205 347l178 104l-63 291q-1 10 -8 10q-8 0 -9 -10z" />
    <glyph glyph-name="abreve" unicode="&#x103;" horiz-adv-x="524" 
d="M175 719q17 -26 40.5 -37.5t50.5 -12.5q29 1 50 13t42 38l23 -32q-5 -11 -15 -23.5t-24 -22.5t-33 -16.5t-43 -6.5t-43 6.5t-34 17t-25 23.5t-15 26zM353 0v92q-59 -104 -143 -104q-68 0 -127 50q-58 51 -58 147q0 68 57 116q56 49 124 49q54 0 80 -9q27 -8 31 -16t4 -25
q0 -26 -59 -70q-13 -8 -18.5 -0.5t5.5 15.5q22 19 22 42q0 35 -64 35q-23 0 -40.5 -11t-29 -30t-17.5 -44.5t-6 -53.5q0 -38 10 -65t27 -44.5t40 -26t49 -8.5q59 0 113 115v276q0 42 -23 77t-78 35q-45 0 -79 -21q-35 -21 -35 -44t11 -30t37 -7q13 0 13 -10q0 -13 -34 -34
q-34 -20 -52 -20q-15 1 -25 11t-15.5 24t-7.5 28t-2 22q0 32 19 55t49 34q31 12 61 17t61 5q29 0 60.5 -6t57.5 -19t43 -34t17 -50v-393l68 -70h-146z" />
    <glyph glyph-name="Dcroat" unicode="&#x110;" horiz-adv-x="615" 
d="M38 376h64v340l-77 79h266q124 0 211 -116q88 -115 88 -280q0 -164 -88 -282q-89 -117 -211 -117h-266l77 79v266h-64v31zM190 27l101 1q43 1 79 24.5t62 69.5t40.5 115t14.5 162t-14.5 161.5t-40 114t-62 68.5t-79.5 23h-101v-390h144v-31h-144v-318z" />
    <glyph glyph-name="dcroat" unicode="&#x111;" horiz-adv-x="531" 
d="M360 0v82q-73 -94 -140 -94q-31 0 -63.5 16.5t-62.5 49.5q-30 34 -49.5 93.5t-19.5 135.5q0 140 55 214q55 76 126 76q30 0 54 -7.5t40.5 -18t24 -21.5t6.5 -17q0 -8 -25 -32q-25 -23 -44 -38q-12 -9 -17.5 -2t4.5 17l9 9q6 6 9.5 13t3.5 20q0 48 -64 48q-55 0 -83 -55
q-28 -53 -28 -202q0 -108 51 -172t93 -64q63 0 120 82v499h-143v31h143v30q0 18 -66 18q-14 1 -13 7t11 11l130 68q16 0 16 -13v-121h64v-31h-64v-562l68 -70h-146z" />
    <glyph glyph-name="Itilde" unicode="&#x128;" horiz-adv-x="291" 
d="M138 867q-57 19 -80 14h-4q-2 0 -4.5 -0.5t-5.5 -0.5q-1 -2 -4 -6q-5 -6 -12 -18q-1 5 -1 11q0 5 -0.5 13.5t-0.5 19.5q0 -2 16 17q6 5 30 13q13 -1 34.5 -5t50.5 -11q48 -15 70 -14q2 1 5 2t7 3q9 8 15.5 16t7.5 11l2 3q2 -8 3 -43q1 -5 -22 -25q-13 -13 -35 -14
q-32 -2 -72 14zM266 0h-241l77 79v637l-77 79h241l-76 -79v-637z" />
    <glyph glyph-name="itilde" unicode="&#x129;" horiz-adv-x="273" 
d="M34 0l68 70q1 152 1 247.5v138.5q0 18 -67 18q-13 0 -11.5 7t10.5 12l129 67q16 0 16 -13v-477l68 -70h-214zM137 641q-57 19 -80 14h-4q-2 0 -4.5 -0.5t-5.5 -0.5q-1 -2 -4 -6q-5 -6 -12 -18q-1 5 -1 11q0 5 -0.5 13.5t-0.5 19.5q0 -2 16 17q6 5 30 13q13 -1 34.5 -5
t50.5 -11q48 -15 70 -14q2 1 5 2t7 3q9 8 15.5 16t7.5 11l2 3q2 -8 3 -43q1 -5 -22 -25q-13 -13 -35 -14q-32 -2 -72 14z" />
    <glyph glyph-name="dotlessi" unicode="&#x131;" horiz-adv-x="273" 
d="M34 0l69 70v360q0 18 -67 18q-13 0 -11.5 7t10.5 12l129 67q16 0 16 -13v-451l68 -70h-214z" />
    <glyph glyph-name="Lslash" unicode="&#x141;" horiz-adv-x="619" 
d="M267 795l-77 -79v-261l50 18l14 -39l-64 -23v-383q54 0 96.5 4t76 13t58.5 23.5t45 35.5q10 11 18.5 22.5t15.5 23.5q7 13 15 30t16 39q9 22 16 38.5t12 27.5q10 21 22 21q13 0 13 -19q0 -6 -4 -17q-57 -138 -57 -208q0 -34 19 -34q7 0 11 -4.5t4 -9.5t-4.5 -9.5
t-13.5 -4.5h-524l77 79v300l-45 -16l-14 39l59 21v293l-77 79h242z" />
    <glyph glyph-name="lslash" unicode="&#x142;" horiz-adv-x="271" 
d="M246 0h-214l69 70v312l-54 -19l-14 39l68 25v266q0 18 -67 18q-9 0 -9 7.5t8 10.5l129 68q16 0 16 -13v-330l52 19l14 -39l-66 -24v-340z" />
    <glyph glyph-name="OE" unicode="&#x152;" horiz-adv-x="1004" 
d="M945 286q10 21 22 21t12 -18q0 -10 -4 -18q-56 -142 -56 -207q0 -35 19 -35q14 0 14 -13q-3 -14 -18 -15h-546q-36 -15 -76 -15q-119 0 -203 120q-84 121 -84 290q0 170 84 290t203 120q32 0 65 -10h520q9 0 13.5 -4.5t4.5 -10t-4 -10t-11 -4.5q-19 0 -19 -34
q0 -69 23 -123q4 -8 4 -18q0 -18 -13 -18q-10 0 -21 20q-8 15 -19 35q-11 23 -19.5 36t-20.5 26q-44 45 -89 60q-45 16 -150 16v-378q64 28 103 63q19 16 25 22q6 7 12 20.5t6 32.5q0 5 -2 19.5t-2 24.5v6q0 23 16 23q17 0 18 -22q4 -64 21 -148q16 -83 39 -126q1 -1 1 -7
q0 -7 -5 -12t-12 -5q-15 0 -19 18q-26 96 -83 96q-13 0 -24 -4q-27 -9 -50.5 -18.5t-43.5 -19.5v-323q112 0 173 16q62 16 103 60q10 11 18.5 22.5t15.5 23.5q7 13 15 30t16 39q9 22 16 38.5t12 27.5zM312 15q25 0 48.5 8.5t43 29.5t35 58t24.5 94q7 39 10 86.5t3 104.5
q0 227 -49 308q-15 30 -36.5 47t-45.5 23t-49.5 2t-47.5 -16q-21 -12 -39 -38.5t-31.5 -70.5t-21.5 -107t-7 -148q0 -381 163 -381z" />
    <glyph glyph-name="oe" unicode="&#x153;" horiz-adv-x="833" 
d="M462 281q0 -17 1.5 -34.5t3.5 -36.5l170 111q6 3 15 9q4 3 11 10.5t13 18t10.5 22.5t4.5 24q0 59 -28 99q-27 41 -69 41q-73 0 -102.5 -65t-29.5 -199zM704 181q31 8 90 49q5 3 9.5 1t4.5 -16q0 -102 -61 -164q-62 -62 -145 -62q-49 0 -98 34.5t-83 92.5
q-30 -60 -77 -93.5t-102 -33.5q-90 0 -154 85q-63 85 -63 207q0 120 63 206q65 86 154 86q54 0 99.5 -32t76.5 -89q30 57 76 89.5t100 32.5q58 0 108 -38q50 -37 72.5 -77.5t22.5 -64.5q0 -9 -12 -16l-312 -201q16 -72 49.5 -115.5t79.5 -43.5q58 0 102 37q46 37 46 71
q0 32 -45 32q-17 0 -17 9t16 14zM148 94q39 -77 94 -77t93 77q39 78 39 187t-39 186q-38 78 -93 78t-94 -78q-38 -78 -38 -186t38 -187z" />
    <glyph glyph-name="Scaron" unicode="&#x160;" horiz-adv-x="581" 
d="M345 896l-80 -60l-78 60v36l78 -60l80 60v-36zM556 219q0 -57 -12.5 -101t-40.5 -73.5t-73 -44.5t-111 -15q-11 0 -36.5 2t-65.5 6q-39 4 -76 5.5t-72 1.5q-9 0 -13.5 4.5t-4.5 9.5t4 9.5t11 4.5q19 0 19 34q0 72 -56 208q-4 8 -4 18q0 15 12 15q10 0 21 -18
q6 -13 13 -29.5t15 -37.5q17 -42 30.5 -67.5t34.5 -46.5q27 -29 75 -58q46 -28 93 -28q69 0 113.5 41t44.5 120q0 52 -33 90.5t-83 71t-108 62t-108 62.5t-83 73.5t-33 95.5q0 35 10.5 61.5t28 45.5t38.5 31.5t41.5 20t39 10.5t29.5 3q19 0 41.5 -1.5t49.5 -5.5
q55 -6 157 -6q9 0 13.5 -4t4.5 -9.5t-4 -9.5t-11 -4q-19 0 -19 -34q0 -69 57 -207q4 -8 4 -19q0 -14 -12 -14q-11 0 -20 17q-5 11 -11 24t-13 29t-12 28.5t-9 21.5q-8 18 -21.5 39.5t-28.5 38.5q-44 45 -79 60q-33 16 -100 16q-37 0 -69 -22q-33 -23 -33 -61q0 -50 33.5 -83
t84.5 -60t109.5 -52t109.5 -60t84.5 -84.5t33.5 -124.5z" />
    <glyph glyph-name="scaron" unicode="&#x161;" horiz-adv-x="478" 
d="M313 663l-80 -60l-78 60v36l78 -60l80 60v-36zM236 573q78 0 131 -35t53 -85q0 -33 -9.5 -50.5t-22.5 -17.5q-20 2 -37 11t-33 22l-14 11q-15 11 5 14q3 1 8 1q39 0 39 33q0 15 -10 27t-26.5 20.5t-38 13.5t-45.5 5q-23 0 -43.5 -5.5t-35.5 -14.5t-24 -21t-9 -25
q0 -40 34 -66t82 -43q34 -11 72 -25t69.5 -35.5t52 -53t19.5 -76.5q0 -96 -62 -143q-61 -46 -159 -46q-86 0 -147 46q-60 46 -60 106q0 61 75 105q4 4 11 4t26 -16q5 -5 14 -12.5t20 -18.5q24 -21 28 -25q11 -10 4.5 -16t-17.5 2q-5 5 -13 9.5t-28 4.5q-23 0 -40 -11.5
t-17 -38.5q0 -35 43 -72q44 -38 101 -38q67 0 104 40q38 41 38 92q0 36 -32.5 64t-80.5 49q-33 15 -69.5 32t-66.5 39t-49.5 49.5t-19.5 63.5q0 42 22.5 70t57.5 39t56.5 14t39.5 3h4z" />
    <glyph glyph-name="Utilde" unicode="&#x168;" horiz-adv-x="644" 
d="M309 867q-57 19 -80 14h-4q-2 0 -4.5 -0.5t-5.5 -0.5q-1 -2 -4 -6q-5 -6 -12 -18q-1 5 -1 11q0 5 -0.5 13.5t-0.5 19.5q0 -2 16 17q6 5 30 13q13 -1 34.5 -5t50.5 -11q48 -15 70 -14q2 1 5 2t7 3q9 8 15.5 16t7.5 11l2 3q2 -8 3 -43q1 -5 -22 -25q-13 -13 -35 -14
q-32 -2 -72 14zM377 794h242l-77 -78v-561q0 -49 -25.5 -84.5t-63.5 -52.5q-75 -31 -131 -31t-131 31q-38 17 -63.5 52.5t-25.5 84.5v561l-77 78h241l-76 -78v-587q0 -54 45 -84q47 -29 87 -29q39 0 86 30q46 30 46 83v587z" />
    <glyph glyph-name="utilde" unicode="&#x169;" horiz-adv-x="548" 
d="M280 641q-57 19 -80 14h-4q-2 0 -4.5 -0.5t-5.5 -0.5q-1 -2 -4 -6q-5 -6 -12 -18q-1 5 -1 11q0 5 -0.5 13.5t-0.5 19.5q0 -2 16 17q6 5 30 13q13 -1 34.5 -5t50.5 -11q48 -15 70 -14q2 1 5 2t7 3q9 8 15.5 16t7.5 11l2 3q2 -8 3 -43q1 -5 -22 -25q-13 -13 -35 -14
q-32 -2 -72 14zM377 0v101q-145 -113 -205 -113q-23 0 -39 10t-22 25q-5 16 -7 26t-2 19v389q0 18 -68 18q-9 0 -9 7t9 12l129 67q16 0 16 -13v-452q0 -36 33 -36q53 0 165 80v317q0 18 -64 18q-9 0 -10 7.5t6 11.5l130 67q16 0 16 -13v-478l68 -70h-146z" />
    <glyph glyph-name="Zcaron" unicode="&#x17d;" horiz-adv-x="582" 
d="M374 896l-80 -60l-78 60v36l78 -60l80 60v-36zM25 90q0 47 32 106q32 60 79.5 113t102.5 113q28 30 54 57t49 52q24 24 44.5 49t35.5 48.5t23.5 44t8.5 37.5q0 14 -8.5 24t-23 16.5t-33 9.5t-37.5 3q-66 0 -106.5 -16.5t-71.5 -53.5q-25 -29 -51 -92q-27 -63 -42 -90
q-11 -18 -22 -18q-13 0 -13 17q0 6 4 17q57 138 57 207q0 34 -19 34q-7 0 -11 4t-4 9.5t4.5 9.5t13.5 4h409q26 0 26 -32v-47q0 -49 -44 -117q-42 -64 -105 -130q-31 -32 -62 -62.5t-62 -61.5t-57.5 -60t-48.5 -58q-43 -55 -43 -91q0 -21 12 -38t33 -29t50 -18t63 -6
q51 0 99 19q49 19 69 42q19 20 33 47q7 13 14.5 30t15.5 37t15.5 37t14.5 30q9 19 21 19q13 0 13 -16q0 -10 -4 -18q-57 -140 -57 -208q0 -34 19 -34q7 0 11 -4.5t4 -10.5t-4.5 -10.5t-13.5 -4.5h-470q-17 0 -17 16v74z" />
    <glyph glyph-name="zcaron" unicode="&#x17e;" horiz-adv-x="479" 
d="M323 663l-80 -60l-78 60v36l78 -60l80 60v-36zM37 0q-12 0 -12 16q0 39 37 103q38 68 90 131q27 33 54 65t52.5 61t49 54t41.5 44l37 38h-281q-12 0 -29 -20q-15 -20 -15 -35q0 -11 -6.5 -11t-6.5 11v91q0 5 4.5 9t7.5 4h368q15 0 15 -13v-36q-33 -36 -64.5 -73.5
t-59 -73.5t-50.5 -69t-39 -60q-32 -54 -54.5 -98t-30.5 -66l-8 -23h257q12 0 29 21q17 22 17 33q0 13 7 13t7 -13v-87q0 -16 -14 -16h-403z" />
    <glyph glyph-name="florin" unicode="&#x192;" horiz-adv-x="464" 
d="M25 23q45 0 78.5 23t40.5 60l70 393h-58q-14 0 -9 12q2 11 13 11h58l17 96q27 158 204 158v-26q-109 0 -129 -107l-21 -121h65q10 0 12 -9q-5 -13 -16 -14h-65l-69 -393q-6 -31 -30 -54t-56 -33q-63 -19 -105 -19v23z" />
    <glyph glyph-name="Ohorn" unicode="&#x1a0;" horiz-adv-x="624" 
d="M25 396q0 170 84 290t203 120q63 0 118 -35l3 1q18 1 29 4.5t17 7.5t7.5 8t1.5 7q-28 -13 -48 2q-19 16 -19 37t15 36q12 13 28.5 15t31.5 -4t25 -18.5t9 -28.5q0 -77 -70 -90q30 -27 55 -62q84 -120 84 -290t-84 -290t-203 -120t-203 120q-84 121 -84 290zM312 15
q25 0 48.5 8.5t43 29.5t35 58t24.5 94q7 39 10 86.5t3 104.5q0 227 -49 308q-15 30 -36.5 47t-45.5 23t-49.5 2t-47.5 -16q-21 -12 -39 -38.5t-31.5 -70.5t-21.5 -107t-7 -148q0 -381 163 -381z" />
    <glyph glyph-name="ohorn" unicode="&#x1a1;" horiz-adv-x="484" 
d="M88 487q65 86 154 86q68 0 120 -49q34 12 43.5 27t8.5 21q-28 -13 -48 2q-19 16 -19 37t15 36q12 13 28.5 15t31.5 -4t25 -18.5t9 -28.5q0 -82 -72 -109q3 -4 6 -7.5t5 -7.5q64 -85 64 -206q0 -122 -64 -207q-63 -85 -153 -85t-154 85q-63 85 -63 207q0 120 63 206z
M148 94q39 -77 94 -77t93 77q39 78 39 187t-39 186q-38 78 -93 78t-94 -78q-38 -78 -38 -186t38 -187z" />
    <glyph glyph-name="Uhorn" unicode="&#x1af;" horiz-adv-x="644" 
d="M618 855q0 -75 -76 -90v-610q0 -49 -25.5 -84.5t-63.5 -52.5q-75 -31 -131 -31t-131 31q-38 17 -63.5 52.5t-25.5 84.5v561l-77 78h241l-76 -78v-587q0 -54 45 -84q47 -29 87 -29q39 0 86 30q46 30 46 83v587l-77 78h165q16 0 25.5 8t8.5 14q-28 -13 -48 2q-19 16 -19 37
t15 36q12 13 28.5 15t31.5 -4t25 -18.5t9 -28.5z" />
    <glyph glyph-name="uhorn" unicode="&#x1b0;" horiz-adv-x="548" 
d="M377 0v101q-145 -113 -205 -113q-23 0 -39 10t-22 25q-5 16 -7 26t-2 19v389q0 18 -68 18q-9 0 -9 7t9 12l129 67q16 0 16 -13v-452q0 -36 33 -36q53 0 165 80v317q0 18 -64 18q-9 0 -10 7.5t6 11.5l130 67q16 0 16 -13v-18q30 12 39 26q10 15 9 21q-28 -13 -48 2
q-19 16 -19 37t15 36q12 13 28.5 15t31.5 -4t25 -18.5t9 -28.5q0 -93 -90 -115v-431l68 -70h-146z" />
    <glyph glyph-name="caron" unicode="&#x2c7;" horiz-adv-x="158" 
d="M158 727l-80 -60l-78 60v36l78 -60l80 60v-36z" />
    <glyph glyph-name="breve" unicode="&#x2d8;" horiz-adv-x="221" 
d="M221 761q0 -21 -33 -52q-31 -31 -73 -31q-49 0 -82 30t-33 50q0 3 5.5 5.5t10.5 -4.5q27 -31 99 -31q65 0 87 31q4 5 11.5 5t7.5 -3z" />
    <glyph glyph-name="dotaccent" unicode="&#x2d9;" horiz-adv-x="138" 
d="M70 760q16 1 25 -10.5t9 -25.5t-8.5 -25.5t-25.5 -10.5q-18 -1 -27 10.5t-9 25.5t9 25.5t27 10.5z" />
    <glyph glyph-name="ring" unicode="&#x2da;" horiz-adv-x="174" 
d="M56 755q-12 -12 -12 -30t12 -31q13 -12 31 -12t30 12q13 13 13 31t-13 30q-12 13 -30 13t-31 -13zM43 681q-18 19 -18 44t18 43q19 19 44 19t43 -19q19 -18 19 -43t-19 -44q-18 -18 -43 -18t-44 18z" />
    <glyph glyph-name="ogonek" unicode="&#x2db;" horiz-adv-x="272" 
d="M235 -150q-56 -30 -105 -30q-18 0 -35.5 4.5t-31 13.5t-22 22t-8.5 30q0 15 9 30t24 29q9 8 15 13t16 13q5 4 9.5 7t6.5 5q6 3 17.5 11t14.5 10h21q-62 -74 -71 -94q-5 -12 -5 -19q0 -20 18.5 -33t44.5 -13q30 0 72 15z" />
    <glyph glyph-name="tilde" unicode="&#x2dc;" horiz-adv-x="278" 
d="M132 699q-37 19 -52 19h-10q-1 -2 -3 -4t-8 -10v7q0 17 11 26q7 5 21 5q16 0 55 -14q30 -13 46 -13q3 0 9 3q14 9 16 15l1 2q1 -3 1 -12q0 -19 -16 -29q-10 -7 -24 -7q-20 0 -47 12z" />
    <glyph glyph-name="hungarumlaut" unicode="&#x2dd;" horiz-adv-x="261" 
d="M242 769l19 -40l-131 -61l-10 22zM122 769l19 -40l-131 -61l-10 22z" />
    <glyph glyph-name="pi" unicode="&#x3c0;" horiz-adv-x="576" 
d="M36 367q14 35 28 61t28 42q42 47 124 47h282v-95h-107l-7 -118q-2 -42 -3 -67.5t-1 -33.5v-15q0 -124 54 -124q48 0 48 74h26q0 -138 -102 -138q-27 0 -49 21t-27 48q-10 43 -10 104q0 3 2 39t6 106l9 104h-103l-18 -226q-6 -48 -13 -88t-15 -75q-12 -52 -50 -52
q-39 0 -39 57q0 19 21 63q11 22 17.5 36.5t8.5 22.5q17 56 27 167l7 98q-55 0 -70 -9q-30 -20 -49 -53z" />
    <glyph glyph-name="uni1EA0" unicode="&#x1ea0;" 
d="M285 -132q-13 14 -10.5 30.5t13.5 27t26.5 12.5t28.5 -12q14 -13 12 -28.5t-12.5 -26.5t-27 -13.5t-30.5 10.5zM387 0l77 79l-74 342l-194 -113l-57 -229l77 -79h-191l77 79l159 637l-77 79h306l-77 -79l139 -637l76 -79h-241zM205 347l178 104l-63 291q-1 10 -8 10
q-8 0 -9 -10z" />
    <glyph glyph-name="uni1EA1" unicode="&#x1ea1;" horiz-adv-x="524" 
d="M210 -128q-13 14 -10.5 30.5t13.5 27t26.5 12.5t28.5 -12q14 -13 12 -28.5t-12.5 -26.5t-27 -13.5t-30.5 10.5zM353 0v92q-59 -104 -143 -104q-68 0 -127 50q-58 51 -58 147q0 68 57 116q56 49 124 49q54 0 80 -9q27 -8 31 -16t4 -25q0 -26 -59 -70q-13 -8 -18.5 -0.5
t5.5 15.5q22 19 22 42q0 35 -64 35q-23 0 -40.5 -11t-29 -30t-17.5 -44.5t-6 -53.5q0 -38 10 -65t27 -44.5t40 -26t49 -8.5q59 0 113 115v276q0 42 -23 77t-78 35q-45 0 -79 -21q-35 -21 -35 -44t11 -30t37 -7q13 0 13 -10q0 -13 -34 -34q-34 -20 -52 -20q-15 1 -25 11
t-15.5 24t-7.5 28t-2 22q0 32 19 55t49 34q31 12 61 17t61 5q29 0 60.5 -6t57.5 -19t43 -34t17 -50v-393l68 -70h-146z" />
    <glyph glyph-name="uni1EA2" unicode="&#x1ea2;" 
d="M324 850q-1 28 4.5 42.5t18.5 23.5q3 0 8 7q1 1 1.5 1t1.5 1q3 4 9 10.5t8 14.5q1 15 -8 29t-35 12q-11 -1 -23 -14t-15 -32q-11 5 -20.5 8t-20.5 8q8 29 28.5 51.5t52.5 24.5q24 0 41.5 -8t28.5 -20.5t15 -27.5t3 -29q-2 -16 -12.5 -29t-21.5 -22l-15 -13q-8 -6 -10 -14
t-3 -24h-36zM387 0l77 79l-74 342l-194 -113l-57 -229l77 -79h-191l77 79l159 637l-77 79h306l-77 -79l139 -637l76 -79h-241zM205 347l178 104l-63 291q-1 10 -8 10q-8 0 -9 -10z" />
    <glyph glyph-name="uni1EA3" unicode="&#x1ea3;" horiz-adv-x="524" 
d="M256 631q-1 28 4.5 42.5t18.5 23.5q3 0 8 7q1 1 1.5 1t1.5 1q3 4 9 10.5t8 14.5q1 15 -8 29t-35 12q-11 -1 -23 -14t-15 -32q-11 5 -20.5 8t-20.5 8q8 29 28.5 51.5t52.5 24.5q24 0 41.5 -8t28.5 -20.5t15 -27.5t3 -29q-2 -16 -12.5 -29t-21.5 -22l-15 -13q-8 -6 -10 -14
t-3 -24h-36zM353 0v92q-59 -104 -143 -104q-68 0 -127 50q-58 51 -58 147q0 68 57 116q56 49 124 49q54 0 80 -9q27 -8 31 -16t4 -25q0 -26 -59 -70q-13 -8 -18.5 -0.5t5.5 15.5q22 19 22 42q0 35 -64 35q-23 0 -40.5 -11t-29 -30t-17.5 -44.5t-6 -53.5q0 -38 10 -65
t27 -44.5t40 -26t49 -8.5q59 0 113 115v276q0 42 -23 77t-78 35q-45 0 -79 -21q-35 -21 -35 -44t11 -30t37 -7q13 0 13 -10q0 -13 -34 -34q-34 -20 -52 -20q-15 1 -25 11t-15.5 24t-7.5 28t-2 22q0 32 19 55t49 34q31 12 61 17t61 5q29 0 60.5 -6t57.5 -19t43 -34t17 -50
v-393l68 -70h-146z" />
    <glyph glyph-name="uni1EA4" unicode="&#x1ea4;" 
d="M227 886l114 85l111 -85v-51l-111 70l-114 -70v51zM387 0l77 79l-74 342l-194 -113l-57 -229l77 -79h-191l77 79l159 637l-77 79h306l-77 -79l139 -637l76 -79h-241zM205 347l178 104l-63 291q-1 10 -8 10q-8 0 -9 -10zM448 1071l-184 -86l-14 31l171 111z" />
    <glyph glyph-name="uni1EA5" unicode="&#x1ea5;" horiz-adv-x="524" 
d="M152 652l114 85l111 -85v-51l-111 70l-114 -70v51zM353 0v92q-59 -104 -143 -104q-68 0 -127 50q-58 51 -58 147q0 68 57 116q56 49 124 49q54 0 80 -9q27 -8 31 -16t4 -25q0 -26 -59 -70q-13 -8 -18.5 -0.5t5.5 15.5q22 19 22 42q0 35 -64 35q-23 0 -40.5 -11t-29 -30
t-17.5 -44.5t-6 -53.5q0 -38 10 -65t27 -44.5t40 -26t49 -8.5q59 0 113 115v276q0 42 -23 77t-78 35q-45 0 -79 -21q-35 -21 -35 -44t11 -30t37 -7q13 0 13 -10q0 -13 -34 -34q-34 -20 -52 -20q-15 1 -25 11t-15.5 24t-7.5 28t-2 22q0 32 19 55t49 34q31 12 61 17t61 5
q29 0 60.5 -6t57.5 -19t43 -34t17 -50v-393l68 -70h-146zM372 837l-184 -86l-14 31l171 111z" />
    <glyph glyph-name="uni1EA6" unicode="&#x1ea6;" 
d="M227 886l114 85l111 -85v-51l-111 70l-114 -70v51zM387 0l77 79l-74 342l-194 -113l-57 -229l77 -79h-191l77 79l159 637l-77 79h306l-77 -79l139 -637l76 -79h-241zM205 347l178 104l-63 291q-1 10 -8 10q-8 0 -9 -10zM260 1128l171 -111l-14 -31l-184 86z" />
    <glyph glyph-name="uni1EA7" unicode="&#x1ea7;" horiz-adv-x="524" 
d="M152 652l114 85l111 -85v-51l-111 70l-114 -70v51zM353 0v92q-59 -104 -143 -104q-68 0 -127 50q-58 51 -58 147q0 68 57 116q56 49 124 49q54 0 80 -9q27 -8 31 -16t4 -25q0 -26 -59 -70q-13 -8 -18.5 -0.5t5.5 15.5q22 19 22 42q0 35 -64 35q-23 0 -40.5 -11t-29 -30
t-17.5 -44.5t-6 -53.5q0 -38 10 -65t27 -44.5t40 -26t49 -8.5q59 0 113 115v276q0 42 -23 77t-78 35q-45 0 -79 -21q-35 -21 -35 -44t11 -30t37 -7q13 0 13 -10q0 -13 -34 -34q-34 -20 -52 -20q-15 1 -25 11t-15.5 24t-7.5 28t-2 22q0 32 19 55t49 34q31 12 61 17t61 5
q29 0 60.5 -6t57.5 -19t43 -34t17 -50v-393l68 -70h-146zM152 652l114 85l111 -85v-51l-111 70l-114 -70v51zM184 894l171 -111l-14 -31l-184 86z" />
    <glyph glyph-name="uni1EA8" unicode="&#x1ea8;" 
d="M409 957q-1 28 4.5 42.5t18.5 23.5q3 0 8 7q1 1 1.5 1t1.5 1q3 4 9 10.5t8 14.5q1 15 -8 29t-35 12q-11 -1 -23 -14t-15 -32q-11 5 -20.5 8t-20.5 8q8 29 28.5 51.5t52.5 24.5q24 0 41.5 -8t28.5 -20.5t15 -27.5t3 -29q-2 -16 -12.5 -29t-21.5 -22l-15 -13q-8 -6 -10 -14
t-3 -24h-36zM227 886l114 85l111 -85v-51l-111 70l-114 -70v51zM387 0l77 79l-74 342l-194 -113l-57 -229l77 -79h-191l77 79l159 637l-77 79h306l-77 -79l139 -637l76 -79h-241zM205 347l178 104l-63 291q-1 10 -8 10q-8 0 -9 -10z" />
    <glyph glyph-name="uni1EA9" unicode="&#x1ea9;" horiz-adv-x="524" 
d="M334 723q-1 28 4.5 42.5t18.5 23.5q3 0 8 7q1 1 1.5 1t1.5 1q3 4 9 10.5t8 14.5q1 15 -8 29t-35 12q-11 -1 -23 -14t-15 -32q-11 5 -20.5 8t-20.5 8q8 29 28.5 51.5t52.5 24.5q24 0 41.5 -8t28.5 -20.5t15 -27.5t3 -29q-2 -16 -12.5 -29t-21.5 -22l-15 -13q-8 -6 -10 -14
t-3 -24h-36zM152 652l114 85l111 -85v-51l-111 70l-114 -70v51zM353 0v92q-59 -104 -143 -104q-68 0 -127 50q-58 51 -58 147q0 68 57 116q56 49 124 49q54 0 80 -9q27 -8 31 -16t4 -25q0 -26 -59 -70q-13 -8 -18.5 -0.5t5.5 15.5q22 19 22 42q0 35 -64 35q-23 0 -40.5 -11
t-29 -30t-17.5 -44.5t-6 -53.5q0 -38 10 -65t27 -44.5t40 -26t49 -8.5q59 0 113 115v276q0 42 -23 77t-78 35q-45 0 -79 -21q-35 -21 -35 -44t11 -30t37 -7q13 0 13 -10q0 -13 -34 -34q-34 -20 -52 -20q-15 1 -25 11t-15.5 24t-7.5 28t-2 22q0 32 19 55t49 34q31 12 61 17
t61 5q29 0 60.5 -6t57.5 -19t43 -34t17 -50v-393l68 -70h-146z" />
    <glyph glyph-name="uni1EAA" unicode="&#x1eaa;" 
d="M227 886l114 85l111 -85v-51l-111 70l-114 -70v51zM387 0l77 79l-74 342l-194 -113l-57 -229l77 -79h-191l77 79l159 637l-77 79h306l-77 -79l139 -637l76 -79h-241zM205 347l178 104l-63 291q-1 10 -8 10q-8 0 -9 -10zM331 1013q-57 19 -80 14h-4q-2 0 -4.5 -0.5
t-5.5 -0.5q-1 -2 -4 -6q-5 -6 -12 -18q-1 5 -1 11q0 5 -0.5 13.5t-0.5 19.5q0 -2 16 17q6 5 30 13q13 -1 34.5 -5t50.5 -11q48 -15 70 -14q2 1 5 2t7 3q9 8 15.5 16t7.5 11l2 3q2 -8 3 -43q1 -5 -22 -25q-13 -13 -35 -14q-32 -2 -72 14z" />
    <glyph glyph-name="uni1EAB" unicode="&#x1eab;" horiz-adv-x="524" 
d="M152 652l114 85l111 -85v-51l-111 70l-114 -70v51zM353 0v92q-59 -104 -143 -104q-68 0 -127 50q-58 51 -58 147q0 68 57 116q56 49 124 49q54 0 80 -9q27 -8 31 -16t4 -25q0 -26 -59 -70q-13 -8 -18.5 -0.5t5.5 15.5q22 19 22 42q0 35 -64 35q-23 0 -40.5 -11t-29 -30
t-17.5 -44.5t-6 -53.5q0 -38 10 -65t27 -44.5t40 -26t49 -8.5q59 0 113 115v276q0 42 -23 77t-78 35q-45 0 -79 -21q-35 -21 -35 -44t11 -30t37 -7q13 0 13 -10q0 -13 -34 -34q-34 -20 -52 -20q-15 1 -25 11t-15.5 24t-7.5 28t-2 22q0 32 19 55t49 34q31 12 61 17t61 5
q29 0 60.5 -6t57.5 -19t43 -34t17 -50v-393l68 -70h-146zM255 779q-57 19 -80 14h-4q-2 0 -4.5 -0.5t-5.5 -0.5q-1 -2 -4 -6q-5 -6 -12 -18q-1 5 -1 11q0 5 -0.5 13.5t-0.5 19.5q0 -2 16 17q6 5 30 13q13 -1 34.5 -5t50.5 -11q48 -15 70 -14q2 1 5 2t7 3q9 8 15.5 16t7.5 11
l2 3q2 -8 3 -43q1 -5 -22 -25q-13 -13 -35 -14q-32 -2 -72 14z" />
    <glyph glyph-name="uni1EAC" unicode="&#x1eac;" 
d="M227 886l114 85l111 -85v-51l-111 70l-114 -70v51zM387 0l77 79l-74 342l-194 -113l-57 -229l77 -79h-191l77 79l159 637l-77 79h306l-77 -79l139 -637l76 -79h-241zM205 347l178 104l-63 291q-1 10 -8 10q-8 0 -9 -10zM285 -132q-13 14 -10.5 30.5t13.5 27t26.5 12.5
t28.5 -12q14 -13 12 -28.5t-12.5 -26.5t-27 -13.5t-30.5 10.5z" />
    <glyph glyph-name="uni1EAD" unicode="&#x1ead;" horiz-adv-x="524" 
d="M152 652l114 85l111 -85v-51l-111 70l-114 -70v51zM353 0v92q-59 -104 -143 -104q-68 0 -127 50q-58 51 -58 147q0 68 57 116q56 49 124 49q54 0 80 -9q27 -8 31 -16t4 -25q0 -26 -59 -70q-13 -8 -18.5 -0.5t5.5 15.5q22 19 22 42q0 35 -64 35q-23 0 -40.5 -11t-29 -30
t-17.5 -44.5t-6 -53.5q0 -38 10 -65t27 -44.5t40 -26t49 -8.5q59 0 113 115v276q0 42 -23 77t-78 35q-45 0 -79 -21q-35 -21 -35 -44t11 -30t37 -7q13 0 13 -10q0 -13 -34 -34q-34 -20 -52 -20q-15 1 -25 11t-15.5 24t-7.5 28t-2 22q0 32 19 55t49 34q31 12 61 17t61 5
q29 0 60.5 -6t57.5 -19t43 -34t17 -50v-393l68 -70h-146zM210 -128q-13 14 -10.5 30.5t13.5 27t26.5 12.5t28.5 -12q14 -13 12 -28.5t-12.5 -26.5t-27 -13.5t-30.5 10.5z" />
    <glyph glyph-name="uni1EAE" unicode="&#x1eae;" 
d="M239 945q17 -26 40.5 -37.5t50.5 -12.5q29 1 50 13t42 38l23 -32q-5 -11 -15 -23.5t-24 -22.5t-33 -16.5t-43 -6.5t-43 6.5t-34 17t-25 23.5t-15 26zM387 0l77 79l-74 342l-194 -113l-57 -229l77 -79h-191l77 79l159 637l-77 79h306l-77 -79l139 -637l76 -79h-241z
M205 347l178 104l-63 291q-1 10 -8 10q-8 0 -9 -10zM484 1032l-184 -86l-14 31l171 111z" />
    <glyph glyph-name="uni1EAF" unicode="&#x1eaf;" horiz-adv-x="524" 
d="M175 719q17 -26 40.5 -37.5t50.5 -12.5q29 1 50 13t42 38l23 -32q-5 -11 -15 -23.5t-24 -22.5t-33 -16.5t-43 -6.5t-43 6.5t-34 17t-25 23.5t-15 26zM353 0v92q-59 -104 -143 -104q-68 0 -127 50q-58 51 -58 147q0 68 57 116q56 49 124 49q54 0 80 -9q27 -8 31 -16t4 -25
q0 -26 -59 -70q-13 -8 -18.5 -0.5t5.5 15.5q22 19 22 42q0 35 -64 35q-23 0 -40.5 -11t-29 -30t-17.5 -44.5t-6 -53.5q0 -38 10 -65t27 -44.5t40 -26t49 -8.5q59 0 113 115v276q0 42 -23 77t-78 35q-45 0 -79 -21q-35 -21 -35 -44t11 -30t37 -7q13 0 13 -10q0 -13 -34 -34
q-34 -20 -52 -20q-15 1 -25 11t-15.5 24t-7.5 28t-2 22q0 32 19 55t49 34q31 12 61 17t61 5q29 0 60.5 -6t57.5 -19t43 -34t17 -50v-393l68 -70h-146zM420 806l-184 -86l-14 31l171 111z" />
    <glyph glyph-name="uni1EB0" unicode="&#x1eb0;" 
d="M239 945q17 -26 40.5 -37.5t50.5 -12.5q29 1 50 13t42 38l23 -32q-5 -11 -15 -23.5t-24 -22.5t-33 -16.5t-43 -6.5t-43 6.5t-34 17t-25 23.5t-15 26zM387 0l77 79l-74 342l-194 -113l-57 -229l77 -79h-191l77 79l159 637l-77 79h306l-77 -79l139 -637l76 -79h-241z
M205 347l178 104l-63 291q-1 10 -8 10q-8 0 -9 -10zM207 1088l171 -111l-14 -31l-184 86z" />
    <glyph glyph-name="uni1EB1" unicode="&#x1eb1;" horiz-adv-x="524" 
d="M175 719q17 -26 40.5 -37.5t50.5 -12.5q29 1 50 13t42 38l23 -32q-5 -11 -15 -23.5t-24 -22.5t-33 -16.5t-43 -6.5t-43 6.5t-34 17t-25 23.5t-15 26zM353 0v92q-59 -104 -143 -104q-68 0 -127 50q-58 51 -58 147q0 68 57 116q56 49 124 49q54 0 80 -9q27 -8 31 -16t4 -25
q0 -26 -59 -70q-13 -8 -18.5 -0.5t5.5 15.5q22 19 22 42q0 35 -64 35q-23 0 -40.5 -11t-29 -30t-17.5 -44.5t-6 -53.5q0 -38 10 -65t27 -44.5t40 -26t49 -8.5q59 0 113 115v276q0 42 -23 77t-78 35q-45 0 -79 -21q-35 -21 -35 -44t11 -30t37 -7q13 0 13 -10q0 -13 -34 -34
q-34 -20 -52 -20q-15 1 -25 11t-15.5 24t-7.5 28t-2 22q0 32 19 55t49 34q31 12 61 17t61 5q29 0 60.5 -6t57.5 -19t43 -34t17 -50v-393l68 -70h-146zM143 862l171 -111l-14 -31l-184 86z" />
    <glyph glyph-name="uni1EB2" unicode="&#x1eb2;" 
d="M239 945q17 -26 40.5 -37.5t50.5 -12.5q29 1 50 13t42 38l23 -32q-5 -11 -15 -23.5t-24 -22.5t-33 -16.5t-43 -6.5t-43 6.5t-34 17t-25 23.5t-15 26zM387 0l77 79l-74 342l-194 -113l-57 -229l77 -79h-191l77 79l159 637l-77 79h306l-77 -79l139 -637l76 -79h-241z
M205 347l178 104l-63 291q-1 10 -8 10q-8 0 -9 -10zM314 946q-1 28 4.5 42.5t18.5 23.5q3 0 8 7q1 1 1.5 1t1.5 1q3 4 9 10.5t8 14.5q1 15 -8 29t-35 12q-11 -1 -23 -14t-15 -32q-11 5 -20.5 8t-20.5 8q8 29 28.5 51.5t52.5 24.5q24 0 41.5 -8t28.5 -20.5t15 -27.5t3 -29
q-2 -16 -12.5 -29t-21.5 -22l-15 -13q-8 -6 -10 -14t-3 -24h-36z" />
    <glyph glyph-name="uni1EB3" unicode="&#x1eb3;" horiz-adv-x="524" 
d="M175 719q17 -26 40.5 -37.5t50.5 -12.5q29 1 50 13t42 38l23 -32q-5 -11 -15 -23.5t-24 -22.5t-33 -16.5t-43 -6.5t-43 6.5t-34 17t-25 23.5t-15 26zM353 0v92q-59 -104 -143 -104q-68 0 -127 50q-58 51 -58 147q0 68 57 116q56 49 124 49q54 0 80 -9q27 -8 31 -16t4 -25
q0 -26 -59 -70q-13 -8 -18.5 -0.5t5.5 15.5q22 19 22 42q0 35 -64 35q-23 0 -40.5 -11t-29 -30t-17.5 -44.5t-6 -53.5q0 -38 10 -65t27 -44.5t40 -26t49 -8.5q59 0 113 115v276q0 42 -23 77t-78 35q-45 0 -79 -21q-35 -21 -35 -44t11 -30t37 -7q13 0 13 -10q0 -13 -34 -34
q-34 -20 -52 -20q-15 1 -25 11t-15.5 24t-7.5 28t-2 22q0 32 19 55t49 34q31 12 61 17t61 5q29 0 60.5 -6t57.5 -19t43 -34t17 -50v-393l68 -70h-146zM250 720q-1 28 4.5 42.5t18.5 23.5q3 0 8 7q1 1 1.5 1t1.5 1q3 4 9 10.5t8 14.5q1 15 -8 29t-35 12q-11 -1 -23 -14
t-15 -32q-11 5 -20.5 8t-20.5 8q8 29 28.5 51.5t52.5 24.5q24 0 41.5 -8t28.5 -20.5t15 -27.5t3 -29q-2 -16 -12.5 -29t-21.5 -22l-15 -13q-8 -6 -10 -14t-3 -24h-36z" />
    <glyph glyph-name="uni1EB4" unicode="&#x1eb4;" 
d="M239 945q17 -26 40.5 -37.5t50.5 -12.5q29 1 50 13t42 38l23 -32q-5 -11 -15 -23.5t-24 -22.5t-33 -16.5t-43 -6.5t-43 6.5t-34 17t-25 23.5t-15 26zM387 0l77 79l-74 342l-194 -113l-57 -229l77 -79h-191l77 79l159 637l-77 79h306l-77 -79l139 -637l76 -79h-241z
M205 347l178 104l-63 291q-1 10 -8 10q-8 0 -9 -10zM320 989q-57 19 -80 14h-4q-2 0 -4.5 -0.5t-5.5 -0.5q-1 -2 -4 -6q-5 -6 -12 -18q-1 5 -1 11q0 5 -0.5 13.5t-0.5 19.5q0 -2 16 17q6 5 30 13q13 -1 34.5 -5t50.5 -11q48 -15 70 -14q2 1 5 2t7 3q9 8 15.5 16t7.5 11l2 3
q2 -8 3 -43q1 -5 -22 -25q-13 -13 -35 -14q-32 -2 -72 14z" />
    <glyph glyph-name="uni1EB5" unicode="&#x1eb5;" horiz-adv-x="524" 
d="M175 719q17 -26 40.5 -37.5t50.5 -12.5q29 1 50 13t42 38l23 -32q-5 -11 -15 -23.5t-24 -22.5t-33 -16.5t-43 -6.5t-43 6.5t-34 17t-25 23.5t-15 26zM353 0v92q-59 -104 -143 -104q-68 0 -127 50q-58 51 -58 147q0 68 57 116q56 49 124 49q54 0 80 -9q27 -8 31 -16t4 -25
q0 -26 -59 -70q-13 -8 -18.5 -0.5t5.5 15.5q22 19 22 42q0 35 -64 35q-23 0 -40.5 -11t-29 -30t-17.5 -44.5t-6 -53.5q0 -38 10 -65t27 -44.5t40 -26t49 -8.5q59 0 113 115v276q0 42 -23 77t-78 35q-45 0 -79 -21q-35 -21 -35 -44t11 -30t37 -7q13 0 13 -10q0 -13 -34 -34
q-34 -20 -52 -20q-15 1 -25 11t-15.5 24t-7.5 28t-2 22q0 32 19 55t49 34q31 12 61 17t61 5q29 0 60.5 -6t57.5 -19t43 -34t17 -50v-393l68 -70h-146zM256 763q-57 19 -80 14h-4q-2 0 -4.5 -0.5t-5.5 -0.5q-1 -2 -4 -6q-5 -6 -12 -18q-1 5 -1 11q0 5 -0.5 13.5t-0.5 19.5
q0 -2 16 17q6 5 30 13q13 -1 34.5 -5t50.5 -11q48 -15 70 -14q2 1 5 2t7 3q9 8 15.5 16t7.5 11l2 3q2 -8 3 -43q1 -5 -22 -25q-13 -13 -35 -14q-32 -2 -72 14z" />
    <glyph glyph-name="uni1EB6" unicode="&#x1eb6;" 
d="M239 945q17 -26 40.5 -37.5t50.5 -12.5q29 1 50 13t42 38l23 -32q-5 -11 -15 -23.5t-24 -22.5t-33 -16.5t-43 -6.5t-43 6.5t-34 17t-25 23.5t-15 26zM387 0l77 79l-74 342l-194 -113l-57 -229l77 -79h-191l77 79l159 637l-77 79h306l-77 -79l139 -637l76 -79h-241z
M205 347l178 104l-63 291q-1 10 -8 10q-8 0 -9 -10zM285 -132q-13 14 -10.5 30.5t13.5 27t26.5 12.5t28.5 -12q14 -13 12 -28.5t-12.5 -26.5t-27 -13.5t-30.5 10.5z" />
    <glyph glyph-name="uni1EB7" unicode="&#x1eb7;" horiz-adv-x="524" 
d="M175 719q17 -26 40.5 -37.5t50.5 -12.5q29 1 50 13t42 38l23 -32q-5 -11 -15 -23.5t-24 -22.5t-33 -16.5t-43 -6.5t-43 6.5t-34 17t-25 23.5t-15 26zM353 0v92q-59 -104 -143 -104q-68 0 -127 50q-58 51 -58 147q0 68 57 116q56 49 124 49q54 0 80 -9q27 -8 31 -16t4 -25
q0 -26 -59 -70q-13 -8 -18.5 -0.5t5.5 15.5q22 19 22 42q0 35 -64 35q-23 0 -40.5 -11t-29 -30t-17.5 -44.5t-6 -53.5q0 -38 10 -65t27 -44.5t40 -26t49 -8.5q59 0 113 115v276q0 42 -23 77t-78 35q-45 0 -79 -21q-35 -21 -35 -44t11 -30t37 -7q13 0 13 -10q0 -13 -34 -34
q-34 -20 -52 -20q-15 1 -25 11t-15.5 24t-7.5 28t-2 22q0 32 19 55t49 34q31 12 61 17t61 5q29 0 60.5 -6t57.5 -19t43 -34t17 -50v-393l68 -70h-146zM210 -128q-13 14 -10.5 30.5t13.5 27t26.5 12.5t28.5 -12q14 -13 12 -28.5t-12.5 -26.5t-27 -13.5t-30.5 10.5z" />
    <glyph glyph-name="uni1EB8" unicode="&#x1eb8;" horiz-adv-x="618" 
d="M277 -132q-13 14 -10.5 30.5t13.5 27t26.5 12.5t28.5 -12q14 -13 12 -28.5t-12.5 -26.5t-27 -13.5t-30.5 10.5zM559 285q10 21 22 21t12 -18q0 -10 -4 -18q-56 -142 -56 -207q0 -35 19 -35q14 0 14 -13q-3 -14 -18 -15h-523l77 79v637l-77 79h486q9 0 13.5 -4.5t4.5 -10
t-4 -10t-11 -4.5q-19 0 -19 -34q0 -69 23 -123q4 -8 4 -18q0 -18 -13 -18q-10 0 -21 20q-8 15 -19 35q-11 23 -19.5 36t-20.5 26q-44 45 -89 60q-45 16 -150 16v-378q64 28 103 63q20 17 31.5 29t11.5 37q0 5 -1 20t-3 39q-1 11 4 17t12 6q17 0 18 -22q2 -26 7.5 -58.5
t14.5 -73.5t18 -75.5t19 -63.5q3 -11 -2 -19t-13 -8q-15 0 -19 18q-26 96 -83 96q-13 0 -24 -4q-27 -9 -50.5 -18.5t-43.5 -19.5v-323q54 0 96.5 4t76 13t58.5 23.5t45 35.5q10 11 18.5 22.5t15.5 23.5q7 13 15 30t16 39q9 22 16 38.5t12 27.5z" />
    <glyph glyph-name="uni1EB9" unicode="&#x1eb9;" horiz-adv-x="481" 
d="M218 -128q-13 14 -10.5 30.5t13.5 27t26.5 12.5t28.5 -12q14 -13 12 -28.5t-12.5 -26.5t-27 -13.5t-30.5 10.5zM352 181q31 8 90 49q5 3 9.5 1t4.5 -16q0 -102 -61 -164q-62 -62 -145 -62q-82 0 -154 87q-71 89 -71 205q0 121 63 207q65 86 154 86q58 0 108 -38
q50 -37 72.5 -77.5t22.5 -64.5q0 -9 -12 -16l-312 -201q16 -72 49.5 -115.5t79.5 -43.5q58 0 102 37q46 37 46 71q0 32 -45 32q-17 0 -17 9t16 14zM110 281q0 -17 1.5 -34.5t3.5 -36.5l170 111q6 3 15 9q4 3 11 10.5t13 18t10.5 22.5t4.5 24q0 59 -28 99q-27 41 -69 41
q-73 0 -102.5 -65t-29.5 -199z" />
    <glyph glyph-name="uni1EBA" unicode="&#x1eba;" horiz-adv-x="618" 
d="M282 850q-1 28 4.5 42.5t18.5 23.5q3 0 8 7q1 1 1.5 1t1.5 1q3 4 9 10.5t8 14.5q1 15 -8 29t-35 12q-11 -1 -23 -14t-15 -32q-11 5 -20.5 8t-20.5 8q8 29 28.5 51.5t52.5 24.5q24 0 41.5 -8t28.5 -20.5t15 -27.5t3 -29q-2 -16 -12.5 -29t-21.5 -22l-15 -13q-8 -6 -10 -14
t-3 -24h-36zM559 285q10 21 22 21t12 -18q0 -10 -4 -18q-56 -142 -56 -207q0 -35 19 -35q14 0 14 -13q-3 -14 -18 -15h-523l77 79v637l-77 79h486q9 0 13.5 -4.5t4.5 -10t-4 -10t-11 -4.5q-19 0 -19 -34q0 -69 23 -123q4 -8 4 -18q0 -18 -13 -18q-10 0 -21 20q-8 15 -19 35
q-11 23 -19.5 36t-20.5 26q-44 45 -89 60q-45 16 -150 16v-378q64 28 103 63q20 17 31.5 29t11.5 37q0 5 -1 20t-3 39q-1 11 4 17t12 6q17 0 18 -22q2 -26 7.5 -58.5t14.5 -73.5t18 -75.5t19 -63.5q3 -11 -2 -19t-13 -8q-15 0 -19 18q-26 96 -83 96q-13 0 -24 -4
q-27 -9 -50.5 -18.5t-43.5 -19.5v-323q54 0 96.5 4t76 13t58.5 23.5t45 35.5q10 11 18.5 22.5t15.5 23.5q7 13 15 30t16 39q9 22 16 38.5t12 27.5z" />
    <glyph glyph-name="uni1EBB" unicode="&#x1ebb;" horiz-adv-x="481" 
d="M224 631q-1 28 4.5 42.5t18.5 23.5q3 0 8 7q1 1 1.5 1t1.5 1q3 4 9 10.5t8 14.5q1 15 -8 29t-35 12q-11 -1 -23 -14t-15 -32q-11 5 -20.5 8t-20.5 8q8 29 28.5 51.5t52.5 24.5q24 0 41.5 -8t28.5 -20.5t15 -27.5t3 -29q-2 -16 -12.5 -29t-21.5 -22l-15 -13q-8 -6 -10 -14
t-3 -24h-36zM352 181q31 8 90 49q5 3 9.5 1t4.5 -16q0 -102 -61 -164q-62 -62 -145 -62q-82 0 -154 87q-71 89 -71 205q0 121 63 207q65 86 154 86q58 0 108 -38q50 -37 72.5 -77.5t22.5 -64.5q0 -9 -12 -16l-312 -201q16 -72 49.5 -115.5t79.5 -43.5q58 0 102 37
q46 37 46 71q0 32 -45 32q-17 0 -17 9t16 14zM110 281q0 -17 1.5 -34.5t3.5 -36.5l170 111q6 3 15 9q4 3 11 10.5t13 18t10.5 22.5t4.5 24q0 59 -28 99q-27 41 -69 41q-73 0 -102.5 -65t-29.5 -199z" />
    <glyph glyph-name="uni1EBC" unicode="&#x1ebc;" horiz-adv-x="618" 
d="M559 285q10 21 22 21t12 -18q0 -10 -4 -18q-56 -142 -56 -207q0 -35 19 -35q14 0 14 -13q-3 -14 -18 -15h-523l77 79v637l-77 79h486q9 0 13.5 -4.5t4.5 -10t-4 -10t-11 -4.5q-19 0 -19 -34q0 -69 23 -123q4 -8 4 -18q0 -18 -13 -18q-10 0 -21 20q-8 15 -19 35
q-11 23 -19.5 36t-20.5 26q-44 45 -89 60q-45 16 -150 16v-378q64 28 103 63q20 17 31.5 29t11.5 37q0 5 -1 20t-3 39q-1 11 4 17t12 6q17 0 18 -22q2 -26 7.5 -58.5t14.5 -73.5t18 -75.5t19 -63.5q3 -11 -2 -19t-13 -8q-15 0 -19 18q-26 96 -83 96q-13 0 -24 -4
q-27 -9 -50.5 -18.5t-43.5 -19.5v-323q54 0 96.5 4t76 13t58.5 23.5t45 35.5q10 11 18.5 22.5t15.5 23.5q7 13 15 30t16 39q9 22 16 38.5t12 27.5zM302 867q-57 19 -80 14h-4q-2 0 -4.5 -0.5t-5.5 -0.5q-1 -2 -4 -6q-5 -6 -12 -18q-1 5 -1 11q0 5 -0.5 13.5t-0.5 19.5
q0 -2 16 17q6 5 30 13q13 -1 34.5 -5t50.5 -11q48 -15 70 -14q2 1 5 2t7 3q9 8 15.5 16t7.5 11l2 3q2 -8 3 -43q1 -5 -22 -25q-13 -13 -35 -14q-32 -2 -72 14z" />
    <glyph glyph-name="uni1EBD" unicode="&#x1ebd;" horiz-adv-x="481" 
d="M352 181q31 8 90 49q5 3 9.5 1t4.5 -16q0 -102 -61 -164q-62 -62 -145 -62q-82 0 -154 87q-71 89 -71 205q0 121 63 207q65 86 154 86q58 0 108 -38q50 -37 72.5 -77.5t22.5 -64.5q0 -9 -12 -16l-312 -201q16 -72 49.5 -115.5t79.5 -43.5q58 0 102 37q46 37 46 71
q0 32 -45 32q-17 0 -17 9t16 14zM110 281q0 -17 1.5 -34.5t3.5 -36.5l170 111q6 3 15 9q4 3 11 10.5t13 18t10.5 22.5t4.5 24q0 59 -28 99q-27 41 -69 41q-73 0 -102.5 -65t-29.5 -199zM242 641q-57 19 -80 14h-4q-2 0 -4.5 -0.5t-5.5 -0.5q-1 -2 -4 -6q-5 -6 -12 -18
q-1 5 -1 11q0 5 -0.5 13.5t-0.5 19.5q0 -2 16 17q6 5 30 13q13 -1 34.5 -5t50.5 -11q48 -15 70 -14q2 1 5 2t7 3q9 8 15.5 16t7.5 11l2 3q2 -8 3 -43q1 -5 -22 -25q-13 -13 -35 -14q-32 -2 -72 14z" />
    <glyph glyph-name="uni1EBE" unicode="&#x1ebe;" horiz-adv-x="618" 
d="M187 886l114 85l111 -85v-51l-111 70l-114 -70v51zM559 285q10 21 22 21t12 -18q0 -10 -4 -18q-56 -142 -56 -207q0 -35 19 -35q14 0 14 -13q-3 -14 -18 -15h-523l77 79v637l-77 79h486q9 0 13.5 -4.5t4.5 -10t-4 -10t-11 -4.5q-19 0 -19 -34q0 -69 23 -123q4 -8 4 -18
q0 -18 -13 -18q-10 0 -21 20q-8 15 -19 35q-11 23 -19.5 36t-20.5 26q-44 45 -89 60q-45 16 -150 16v-378q64 28 103 63q20 17 31.5 29t11.5 37q0 5 -1 20t-3 39q-1 11 4 17t12 6q17 0 18 -22q2 -26 7.5 -58.5t14.5 -73.5t18 -75.5t19 -63.5q3 -11 -2 -19t-13 -8
q-15 0 -19 18q-26 96 -83 96q-13 0 -24 -4q-27 -9 -50.5 -18.5t-43.5 -19.5v-323q54 0 96.5 4t76 13t58.5 23.5t45 35.5q10 11 18.5 22.5t15.5 23.5q7 13 15 30t16 39q9 22 16 38.5t12 27.5zM408 1071l-184 -86l-14 31l171 111z" />
    <glyph glyph-name="uni1EBF" unicode="&#x1ebf;" horiz-adv-x="481" 
d="M132 652l114 85l111 -85v-51l-111 70l-114 -70v51zM352 181q31 8 90 49q5 3 9.5 1t4.5 -16q0 -102 -61 -164q-62 -62 -145 -62q-82 0 -154 87q-71 89 -71 205q0 121 63 207q65 86 154 86q58 0 108 -38q50 -37 72.5 -77.5t22.5 -64.5q0 -9 -12 -16l-312 -201
q16 -72 49.5 -115.5t79.5 -43.5q58 0 102 37q46 37 46 71q0 32 -45 32q-17 0 -17 9t16 14zM110 281q0 -17 1.5 -34.5t3.5 -36.5l170 111q6 3 15 9q4 3 11 10.5t13 18t10.5 22.5t4.5 24q0 59 -28 99q-27 41 -69 41q-73 0 -102.5 -65t-29.5 -199zM352 837l-184 -86l-14 31
l171 111z" />
    <glyph glyph-name="uni1EC0" unicode="&#x1ec0;" horiz-adv-x="618" 
d="M187 886l114 85l111 -85v-51l-111 70l-114 -70v51zM559 285q10 21 22 21t12 -18q0 -10 -4 -18q-56 -142 -56 -207q0 -35 19 -35q14 0 14 -13q-3 -14 -18 -15h-523l77 79v637l-77 79h486q9 0 13.5 -4.5t4.5 -10t-4 -10t-11 -4.5q-19 0 -19 -34q0 -69 23 -123q4 -8 4 -18
q0 -18 -13 -18q-10 0 -21 20q-8 15 -19 35q-11 23 -19.5 36t-20.5 26q-44 45 -89 60q-45 16 -150 16v-378q64 28 103 63q20 17 31.5 29t11.5 37q0 5 -1 20t-3 39q-1 11 4 17t12 6q17 0 18 -22q2 -26 7.5 -58.5t14.5 -73.5t18 -75.5t19 -63.5q3 -11 -2 -19t-13 -8
q-15 0 -19 18q-26 96 -83 96q-13 0 -24 -4q-27 -9 -50.5 -18.5t-43.5 -19.5v-323q54 0 96.5 4t76 13t58.5 23.5t45 35.5q10 11 18.5 22.5t15.5 23.5q7 13 15 30t16 39q9 22 16 38.5t12 27.5zM220 1128l171 -111l-14 -31l-184 86z" />
    <glyph glyph-name="uni1EC1" unicode="&#x1ec1;" horiz-adv-x="481" 
d="M132 652l114 85l111 -85v-51l-111 70l-114 -70v51zM352 181q31 8 90 49q5 3 9.5 1t4.5 -16q0 -102 -61 -164q-62 -62 -145 -62q-82 0 -154 87q-71 89 -71 205q0 121 63 207q65 86 154 86q58 0 108 -38q50 -37 72.5 -77.5t22.5 -64.5q0 -9 -12 -16l-312 -201
q16 -72 49.5 -115.5t79.5 -43.5q58 0 102 37q46 37 46 71q0 32 -45 32q-17 0 -17 9t16 14zM110 281q0 -17 1.5 -34.5t3.5 -36.5l170 111q6 3 15 9q4 3 11 10.5t13 18t10.5 22.5t4.5 24q0 59 -28 99q-27 41 -69 41q-73 0 -102.5 -65t-29.5 -199zM164 894l171 -111l-14 -31
l-184 86z" />
    <glyph glyph-name="uni1EC2" unicode="&#x1ec2;" horiz-adv-x="618" 
d="M187 886l114 85l111 -85v-51l-111 70l-114 -70v51zM559 285q10 21 22 21t12 -18q0 -10 -4 -18q-56 -142 -56 -207q0 -35 19 -35q14 0 14 -13q-3 -14 -18 -15h-523l77 79v637l-77 79h486q9 0 13.5 -4.5t4.5 -10t-4 -10t-11 -4.5q-19 0 -19 -34q0 -69 23 -123q4 -8 4 -18
q0 -18 -13 -18q-10 0 -21 20q-8 15 -19 35q-11 23 -19.5 36t-20.5 26q-44 45 -89 60q-45 16 -150 16v-378q64 28 103 63q20 17 31.5 29t11.5 37q0 5 -1 20t-3 39q-1 11 4 17t12 6q17 0 18 -22q2 -26 7.5 -58.5t14.5 -73.5t18 -75.5t19 -63.5q3 -11 -2 -19t-13 -8
q-15 0 -19 18q-26 96 -83 96q-13 0 -24 -4q-27 -9 -50.5 -18.5t-43.5 -19.5v-323q54 0 96.5 4t76 13t58.5 23.5t45 35.5q10 11 18.5 22.5t15.5 23.5q7 13 15 30t16 39q9 22 16 38.5t12 27.5zM369 957q-1 28 4.5 42.5t18.5 23.5q3 0 8 7q1 1 1.5 1t1.5 1q3 4 9 10.5t8 14.5
q1 15 -8 29t-35 12q-11 -1 -23 -14t-15 -32q-11 5 -20.5 8t-20.5 8q8 29 28.5 51.5t52.5 24.5q24 0 41.5 -8t28.5 -20.5t15 -27.5t3 -29q-2 -16 -12.5 -29t-21.5 -22l-15 -13q-8 -6 -10 -14t-3 -24h-36z" />
    <glyph glyph-name="uni1EC3" unicode="&#x1ec3;" horiz-adv-x="481" 
d="M132 652l114 85l111 -85v-51l-111 70l-114 -70v51zM352 181q31 8 90 49q5 3 9.5 1t4.5 -16q0 -102 -61 -164q-62 -62 -145 -62q-82 0 -154 87q-71 89 -71 205q0 121 63 207q65 86 154 86q58 0 108 -38q50 -37 72.5 -77.5t22.5 -64.5q0 -9 -12 -16l-312 -201
q16 -72 49.5 -115.5t79.5 -43.5q58 0 102 37q46 37 46 71q0 32 -45 32q-17 0 -17 9t16 14zM110 281q0 -17 1.5 -34.5t3.5 -36.5l170 111q6 3 15 9q4 3 11 10.5t13 18t10.5 22.5t4.5 24q0 59 -28 99q-27 41 -69 41q-73 0 -102.5 -65t-29.5 -199zM314 723q-1 28 4.5 42.5
t18.5 23.5q3 0 8 7q1 1 1.5 1t1.5 1q3 4 9 10.5t8 14.5q1 15 -8 29t-35 12q-11 -1 -23 -14t-15 -32q-11 5 -20.5 8t-20.5 8q8 29 28.5 51.5t52.5 24.5q24 0 41.5 -8t28.5 -20.5t15 -27.5t3 -29q-2 -16 -12.5 -29t-21.5 -22l-15 -13q-8 -6 -10 -14t-3 -24h-36z" />
    <glyph glyph-name="uni1EC4" unicode="&#x1ec4;" horiz-adv-x="618" 
d="M187 886l114 85l111 -85v-51l-111 70l-114 -70v51zM559 285q10 21 22 21t12 -18q0 -10 -4 -18q-56 -142 -56 -207q0 -35 19 -35q14 0 14 -13q-3 -14 -18 -15h-523l77 79v637l-77 79h486q9 0 13.5 -4.5t4.5 -10t-4 -10t-11 -4.5q-19 0 -19 -34q0 -69 23 -123q4 -8 4 -18
q0 -18 -13 -18q-10 0 -21 20q-8 15 -19 35q-11 23 -19.5 36t-20.5 26q-44 45 -89 60q-45 16 -150 16v-378q64 28 103 63q20 17 31.5 29t11.5 37q0 5 -1 20t-3 39q-1 11 4 17t12 6q17 0 18 -22q2 -26 7.5 -58.5t14.5 -73.5t18 -75.5t19 -63.5q3 -11 -2 -19t-13 -8
q-15 0 -19 18q-26 96 -83 96q-13 0 -24 -4q-27 -9 -50.5 -18.5t-43.5 -19.5v-323q54 0 96.5 4t76 13t58.5 23.5t45 35.5q10 11 18.5 22.5t15.5 23.5q7 13 15 30t16 39q9 22 16 38.5t12 27.5zM291 1013q-57 19 -80 14h-4q-2 0 -4.5 -0.5t-5.5 -0.5q-1 -2 -4 -6q-5 -6 -12 -18
q-1 5 -1 11q0 5 -0.5 13.5t-0.5 19.5q0 -2 16 17q6 5 30 13q13 -1 34.5 -5t50.5 -11q48 -15 70 -14q2 1 5 2t7 3q9 8 15.5 16t7.5 11l2 3q2 -8 3 -43q1 -5 -22 -25q-13 -13 -35 -14q-32 -2 -72 14z" />
    <glyph glyph-name="uni1EC5" unicode="&#x1ec5;" horiz-adv-x="481" 
d="M132 652l114 85l111 -85v-51l-111 70l-114 -70v51zM352 181q31 8 90 49q5 3 9.5 1t4.5 -16q0 -102 -61 -164q-62 -62 -145 -62q-82 0 -154 87q-71 89 -71 205q0 121 63 207q65 86 154 86q58 0 108 -38q50 -37 72.5 -77.5t22.5 -64.5q0 -9 -12 -16l-312 -201
q16 -72 49.5 -115.5t79.5 -43.5q58 0 102 37q46 37 46 71q0 32 -45 32q-17 0 -17 9t16 14zM110 281q0 -17 1.5 -34.5t3.5 -36.5l170 111q6 3 15 9q4 3 11 10.5t13 18t10.5 22.5t4.5 24q0 59 -28 99q-27 41 -69 41q-73 0 -102.5 -65t-29.5 -199zM235 779q-57 19 -80 14h-4
q-2 0 -4.5 -0.5t-5.5 -0.5q-1 -2 -4 -6q-5 -6 -12 -18q-1 5 -1 11q0 5 -0.5 13.5t-0.5 19.5q0 -2 16 17q6 5 30 13q13 -1 34.5 -5t50.5 -11q48 -15 70 -14q2 1 5 2t7 3q9 8 15.5 16t7.5 11l2 3q2 -8 3 -43q1 -5 -22 -25q-13 -13 -35 -14q-32 -2 -72 14z" />
    <glyph glyph-name="uni1EC6" unicode="&#x1ec6;" horiz-adv-x="618" 
d="M187 886l114 85l111 -85v-51l-111 70l-114 -70v51zM559 285q10 21 22 21t12 -18q0 -10 -4 -18q-56 -142 -56 -207q0 -35 19 -35q14 0 14 -13q-3 -14 -18 -15h-523l77 79v637l-77 79h486q9 0 13.5 -4.5t4.5 -10t-4 -10t-11 -4.5q-19 0 -19 -34q0 -69 23 -123q4 -8 4 -18
q0 -18 -13 -18q-10 0 -21 20q-8 15 -19 35q-11 23 -19.5 36t-20.5 26q-44 45 -89 60q-45 16 -150 16v-378q64 28 103 63q20 17 31.5 29t11.5 37q0 5 -1 20t-3 39q-1 11 4 17t12 6q17 0 18 -22q2 -26 7.5 -58.5t14.5 -73.5t18 -75.5t19 -63.5q3 -11 -2 -19t-13 -8
q-15 0 -19 18q-26 96 -83 96q-13 0 -24 -4q-27 -9 -50.5 -18.5t-43.5 -19.5v-323q54 0 96.5 4t76 13t58.5 23.5t45 35.5q10 11 18.5 22.5t15.5 23.5q7 13 15 30t16 39q9 22 16 38.5t12 27.5zM277 -132q-13 14 -10.5 30.5t13.5 27t26.5 12.5t28.5 -12q14 -13 12 -28.5
t-12.5 -26.5t-27 -13.5t-30.5 10.5z" />
    <glyph glyph-name="uni1EC7" unicode="&#x1ec7;" horiz-adv-x="481" 
d="M132 652l114 85l111 -85v-51l-111 70l-114 -70v51zM352 181q31 8 90 49q5 3 9.5 1t4.5 -16q0 -102 -61 -164q-62 -62 -145 -62q-82 0 -154 87q-71 89 -71 205q0 121 63 207q65 86 154 86q58 0 108 -38q50 -37 72.5 -77.5t22.5 -64.5q0 -9 -12 -16l-312 -201
q16 -72 49.5 -115.5t79.5 -43.5q58 0 102 37q46 37 46 71q0 32 -45 32q-17 0 -17 9t16 14zM110 281q0 -17 1.5 -34.5t3.5 -36.5l170 111q6 3 15 9q4 3 11 10.5t13 18t10.5 22.5t4.5 24q0 59 -28 99q-27 41 -69 41q-73 0 -102.5 -65t-29.5 -199zM218 -128q-13 14 -10.5 30.5
t13.5 27t26.5 12.5t28.5 -12q14 -13 12 -28.5t-12.5 -26.5t-27 -13.5t-30.5 10.5z" />
    <glyph glyph-name="uni1EC8" unicode="&#x1ec8;" horiz-adv-x="291" 
d="M129 850q-1 28 4.5 42.5t18.5 23.5q3 0 8 7q1 1 1.5 1t1.5 1q3 4 9 10.5t8 14.5q1 15 -8 29t-35 12q-11 -1 -23 -14t-15 -32q-11 5 -20.5 8t-20.5 8q8 29 28.5 51.5t52.5 24.5q24 0 41.5 -8t28.5 -20.5t15 -27.5t3 -29q-2 -16 -12.5 -29t-21.5 -22l-15 -13q-8 -6 -10 -14
t-3 -24h-36zM266 0h-241l77 79v637l-77 79h241l-76 -79v-637z" />
    <glyph glyph-name="uni1EC9" unicode="&#x1ec9;" horiz-adv-x="273" 
d="M34 0l68 70q1 152 1 247.5v138.5q0 18 -67 18q-13 0 -11.5 7t10.5 12l129 67q16 0 16 -13v-477l68 -70h-214zM122 631q-1 28 4.5 42.5t18.5 23.5q3 0 8 7q1 1 1.5 1t1.5 1q3 4 9 10.5t8 14.5q1 15 -8 29t-35 12q-11 -1 -23 -14t-15 -32q-11 5 -20.5 8t-20.5 8
q8 29 28.5 51.5t52.5 24.5q24 0 41.5 -8t28.5 -20.5t15 -27.5t3 -29q-2 -16 -12.5 -29t-21.5 -22l-15 -13q-8 -6 -10 -14t-3 -24h-36z" />
    <glyph glyph-name="uni1ECA" unicode="&#x1eca;" horiz-adv-x="291" 
d="M118 -132q-13 14 -10.5 30.5t13.5 27t26.5 12.5t28.5 -12q14 -13 12 -28.5t-12.5 -26.5t-27 -13.5t-30.5 10.5zM266 0h-241l77 79v637l-77 79h241l-76 -79v-637z" />
    <glyph glyph-name="uni1ECB" unicode="&#x1ecb;" horiz-adv-x="273" 
d="M115 -128q-13 14 -10.5 30.5t13.5 27t26.5 12.5t28.5 -12q14 -13 12 -28.5t-12.5 -26.5t-27 -13.5t-30.5 10.5zM34 0l68 70q1 152 1 247.5v138.5q0 18 -67 18q-13 0 -11.5 7t10.5 12l129 67q16 0 16 -13v-477l68 -70h-214zM109 665q-13 19 -13 46t13 46q14 19 33 19
t32 -19t13 -46t-13 -46t-32 -19t-33 19z" />
    <glyph glyph-name="uni1ECC" unicode="&#x1ecc;" horiz-adv-x="624" 
d="M277 -132q-13 14 -10.5 30.5t13.5 27t26.5 12.5t28.5 -12q14 -13 12 -28.5t-12.5 -26.5t-27 -13.5t-30.5 10.5zM25 396q0 170 84 290t203 120t203 -120t84 -290t-84 -290t-203 -120t-203 120q-84 121 -84 290zM312 15q25 0 48.5 8.5t43 29.5t35 58t24.5 94q7 39 10 86.5
t3 104.5q0 227 -49 308q-15 30 -36.5 47t-45.5 23t-49.5 2t-47.5 -16q-21 -12 -39 -38.5t-31.5 -70.5t-21.5 -107t-7 -148q0 -381 163 -381z" />
    <glyph glyph-name="uni1ECD" unicode="&#x1ecd;" horiz-adv-x="484" 
d="M210 -128q-13 14 -10.5 30.5t13.5 27t26.5 12.5t28.5 -12q14 -13 12 -28.5t-12.5 -26.5t-27 -13.5t-30.5 10.5zM88 487q65 86 154 86q90 0 153 -86q64 -85 64 -206q0 -122 -64 -207q-63 -85 -153 -85t-154 85q-63 85 -63 207q0 120 63 206zM148 94q39 -77 94 -77t93 77
q39 78 39 187t-39 186q-38 78 -93 78t-94 -78q-38 -78 -38 -186t38 -187z" />
    <glyph glyph-name="uni1ECE" unicode="&#x1ece;" horiz-adv-x="624" 
d="M25 396q0 170 84 290t203 120t203 -120t84 -290t-84 -290t-203 -120t-203 120q-84 121 -84 290zM312 15q25 0 48.5 8.5t43 29.5t35 58t24.5 94q7 39 10 86.5t3 104.5q0 227 -49 308q-15 30 -36.5 47t-45.5 23t-49.5 2t-47.5 -16q-21 -12 -39 -38.5t-31.5 -70.5
t-21.5 -107t-7 -148q0 -381 163 -381zM296 850q-1 28 4.5 42.5t18.5 23.5q3 0 8 7q1 1 1.5 1t1.5 1q3 4 9 10.5t8 14.5q1 15 -8 29t-35 12q-11 -1 -23 -14t-15 -32q-11 5 -20.5 8t-20.5 8q8 29 28.5 51.5t52.5 24.5q24 0 41.5 -8t28.5 -20.5t15 -27.5t3 -29
q-2 -16 -12.5 -29t-21.5 -22l-15 -13q-8 -6 -10 -14t-3 -24h-36z" />
    <glyph glyph-name="uni1ECF" unicode="&#x1ecf;" horiz-adv-x="484" 
d="M234 631q-1 28 4.5 42.5t18.5 23.5q3 0 8 7q1 1 1.5 1t1.5 1q3 4 9 10.5t8 14.5q1 15 -8 29t-35 12q-11 -1 -23 -14t-15 -32q-11 5 -20.5 8t-20.5 8q8 29 28.5 51.5t52.5 24.5q24 0 41.5 -8t28.5 -20.5t15 -27.5t3 -29q-2 -16 -12.5 -29t-21.5 -22l-15 -13q-8 -6 -10 -14
t-3 -24h-36zM88 487q65 86 154 86q90 0 153 -86q64 -85 64 -206q0 -122 -64 -207q-63 -85 -153 -85t-154 85q-63 85 -63 207q0 120 63 206zM148 94q39 -77 94 -77t93 77q39 78 39 187t-39 186q-38 78 -93 78t-94 -78q-38 -78 -38 -186t38 -187z" />
    <glyph glyph-name="uni1ED0" unicode="&#x1ed0;" horiz-adv-x="624" 
d="M197 886l114 85l111 -85v-51l-111 70l-114 -70v51zM25 396q0 170 84 290t203 120t203 -120t84 -290t-84 -290t-203 -120t-203 120q-84 121 -84 290zM312 15q25 0 48.5 8.5t43 29.5t35 58t24.5 94q7 39 10 86.5t3 104.5q0 227 -49 308q-15 30 -36.5 47t-45.5 23t-49.5 2
t-47.5 -16q-21 -12 -39 -38.5t-31.5 -70.5t-21.5 -107t-7 -148q0 -381 163 -381zM418 1071l-184 -86l-14 31l171 111z" />
    <glyph glyph-name="uni1ED1" unicode="&#x1ed1;" horiz-adv-x="484" 
d="M130 652l114 85l111 -85v-51l-111 70l-114 -70v51zM88 487q65 86 154 86q90 0 153 -86q64 -85 64 -206q0 -122 -64 -207q-63 -85 -153 -85t-154 85q-63 85 -63 207q0 120 63 206zM148 94q39 -77 94 -77t93 77q39 78 39 187t-39 186q-38 78 -93 78t-94 -78
q-38 -78 -38 -186t38 -187zM350 837l-184 -86l-14 31l171 111z" />
    <glyph glyph-name="uni1ED2" unicode="&#x1ed2;" horiz-adv-x="624" 
d="M197 886l114 85l111 -85v-51l-111 70l-114 -70v51zM25 396q0 170 84 290t203 120t203 -120t84 -290t-84 -290t-203 -120t-203 120q-84 121 -84 290zM312 15q25 0 48.5 8.5t43 29.5t35 58t24.5 94q7 39 10 86.5t3 104.5q0 227 -49 308q-15 30 -36.5 47t-45.5 23t-49.5 2
t-47.5 -16q-21 -12 -39 -38.5t-31.5 -70.5t-21.5 -107t-7 -148q0 -381 163 -381zM230 1128l171 -111l-14 -31l-184 86z" />
    <glyph glyph-name="uni1ED3" unicode="&#x1ed3;" horiz-adv-x="484" 
d="M130 652l114 85l111 -85v-51l-111 70l-114 -70v51zM88 487q65 86 154 86q90 0 153 -86q64 -85 64 -206q0 -122 -64 -207q-63 -85 -153 -85t-154 85q-63 85 -63 207q0 120 63 206zM148 94q39 -77 94 -77t93 77q39 78 39 187t-39 186q-38 78 -93 78t-94 -78
q-38 -78 -38 -186t38 -187zM162 894l171 -111l-14 -31l-184 86z" />
    <glyph glyph-name="uni1ED4" unicode="&#x1ed4;" horiz-adv-x="624" 
d="M197 886l114 85l111 -85v-51l-111 70l-114 -70v51zM25 396q0 170 84 290t203 120t203 -120t84 -290t-84 -290t-203 -120t-203 120q-84 121 -84 290zM312 15q25 0 48.5 8.5t43 29.5t35 58t24.5 94q7 39 10 86.5t3 104.5q0 227 -49 308q-15 30 -36.5 47t-45.5 23t-49.5 2
t-47.5 -16q-21 -12 -39 -38.5t-31.5 -70.5t-21.5 -107t-7 -148q0 -381 163 -381zM379 957q-1 28 4.5 42.5t18.5 23.5q3 0 8 7q1 1 1.5 1t1.5 1q3 4 9 10.5t8 14.5q1 15 -8 29t-35 12q-11 -1 -23 -14t-15 -32q-11 5 -20.5 8t-20.5 8q8 29 28.5 51.5t52.5 24.5q24 0 41.5 -8
t28.5 -20.5t15 -27.5t3 -29q-2 -16 -12.5 -29t-21.5 -22l-15 -13q-8 -6 -10 -14t-3 -24h-36z" />
    <glyph glyph-name="uni1ED5" unicode="&#x1ed5;" horiz-adv-x="484" 
d="M130 652l114 85l111 -85v-51l-111 70l-114 -70v51zM88 487q65 86 154 86q90 0 153 -86q64 -85 64 -206q0 -122 -64 -207q-63 -85 -153 -85t-154 85q-63 85 -63 207q0 120 63 206zM148 94q39 -77 94 -77t93 77q39 78 39 187t-39 186q-38 78 -93 78t-94 -78
q-38 -78 -38 -186t38 -187zM312 723q-1 28 4.5 42.5t18.5 23.5q3 0 8 7q1 1 1.5 1t1.5 1q3 4 9 10.5t8 14.5q1 15 -8 29t-35 12q-11 -1 -23 -14t-15 -32q-11 5 -20.5 8t-20.5 8q8 29 28.5 51.5t52.5 24.5q24 0 41.5 -8t28.5 -20.5t15 -27.5t3 -29q-2 -16 -12.5 -29
t-21.5 -22l-15 -13q-8 -6 -10 -14t-3 -24h-36z" />
    <glyph glyph-name="uni1ED6" unicode="&#x1ed6;" horiz-adv-x="624" 
d="M197 886l114 85l111 -85v-51l-111 70l-114 -70v51zM25 396q0 170 84 290t203 120t203 -120t84 -290t-84 -290t-203 -120t-203 120q-84 121 -84 290zM312 15q25 0 48.5 8.5t43 29.5t35 58t24.5 94q7 39 10 86.5t3 104.5q0 227 -49 308q-15 30 -36.5 47t-45.5 23t-49.5 2
t-47.5 -16q-21 -12 -39 -38.5t-31.5 -70.5t-21.5 -107t-7 -148q0 -381 163 -381zM301 1013q-57 19 -80 14h-4q-2 0 -4.5 -0.5t-5.5 -0.5q-1 -2 -4 -6q-5 -6 -12 -18q-1 5 -1 11q0 5 -0.5 13.5t-0.5 19.5q0 -2 16 17q6 5 30 13q13 -1 34.5 -5t50.5 -11q48 -15 70 -14q2 1 5 2
t7 3q9 8 15.5 16t7.5 11l2 3q2 -8 3 -43q1 -5 -22 -25q-13 -13 -35 -14q-32 -2 -72 14z" />
    <glyph glyph-name="uni1ED7" unicode="&#x1ed7;" horiz-adv-x="484" 
d="M130 652l114 85l111 -85v-51l-111 70l-114 -70v51zM88 487q65 86 154 86q90 0 153 -86q64 -85 64 -206q0 -122 -64 -207q-63 -85 -153 -85t-154 85q-63 85 -63 207q0 120 63 206zM148 94q39 -77 94 -77t93 77q39 78 39 187t-39 186q-38 78 -93 78t-94 -78
q-38 -78 -38 -186t38 -187zM233 779q-57 19 -80 14h-4q-2 0 -4.5 -0.5t-5.5 -0.5q-1 -2 -4 -6q-5 -6 -12 -18q-1 5 -1 11q0 5 -0.5 13.5t-0.5 19.5q0 -2 16 17q6 5 30 13q13 -1 34.5 -5t50.5 -11q48 -15 70 -14q2 1 5 2t7 3q9 8 15.5 16t7.5 11l2 3q2 -8 3 -43q1 -5 -22 -25
q-13 -13 -35 -14q-32 -2 -72 14z" />
    <glyph glyph-name="uni1ED8" unicode="&#x1ed8;" horiz-adv-x="624" 
d="M197 886l114 85l111 -85v-51l-111 70l-114 -70v51zM25 396q0 170 84 290t203 120t203 -120t84 -290t-84 -290t-203 -120t-203 120q-84 121 -84 290zM312 15q25 0 48.5 8.5t43 29.5t35 58t24.5 94q7 39 10 86.5t3 104.5q0 227 -49 308q-15 30 -36.5 47t-45.5 23t-49.5 2
t-47.5 -16q-21 -12 -39 -38.5t-31.5 -70.5t-21.5 -107t-7 -148q0 -381 163 -381zM277 -132q-13 14 -10.5 30.5t13.5 27t26.5 12.5t28.5 -12q14 -13 12 -28.5t-12.5 -26.5t-27 -13.5t-30.5 10.5z" />
    <glyph glyph-name="uni1ED9" unicode="&#x1ed9;" horiz-adv-x="484" 
d="M130 652l114 85l111 -85v-51l-111 70l-114 -70v51zM88 487q65 86 154 86q90 0 153 -86q64 -85 64 -206q0 -122 -64 -207q-63 -85 -153 -85t-154 85q-63 85 -63 207q0 120 63 206zM148 94q39 -77 94 -77t93 77q39 78 39 187t-39 186q-38 78 -93 78t-94 -78
q-38 -78 -38 -186t38 -187zM210 -128q-13 14 -10.5 30.5t13.5 27t26.5 12.5t28.5 -12q14 -13 12 -28.5t-12.5 -26.5t-27 -13.5t-30.5 10.5z" />
    <glyph glyph-name="uni1EDA" unicode="&#x1eda;" horiz-adv-x="624" 
d="M25 396q0 170 84 290t203 120q63 0 118 -35l3 1q18 1 29 4.5t17 7.5t7.5 8t1.5 7q-28 -13 -48 2q-19 16 -19 37t15 36q12 13 28.5 15t31.5 -4t25 -18.5t9 -28.5q0 -77 -70 -90q30 -27 55 -62q84 -120 84 -290t-84 -290t-203 -120t-203 120q-84 121 -84 290zM312 15
q25 0 48.5 8.5t43 29.5t35 58t24.5 94q7 39 10 86.5t3 104.5q0 227 -49 308q-15 30 -36.5 47t-45.5 23t-49.5 2t-47.5 -16q-21 -12 -39 -38.5t-31.5 -70.5t-21.5 -107t-7 -148q0 -381 163 -381zM426 923l-184 -86l-14 31l171 111z" />
    <glyph glyph-name="uni1EDB" unicode="&#x1edb;" horiz-adv-x="484" 
d="M88 487q65 86 154 86q68 0 120 -49q34 12 43.5 27t8.5 21q-28 -13 -48 2q-19 16 -19 37t15 36q12 13 28.5 15t31.5 -4t25 -18.5t9 -28.5q0 -82 -72 -109q3 -4 6 -7.5t5 -7.5q64 -85 64 -206q0 -122 -64 -207q-63 -85 -153 -85t-154 85q-63 85 -63 207q0 120 63 206z
M148 94q39 -77 94 -77t93 77q39 78 39 187t-39 186q-38 78 -93 78t-94 -78q-38 -78 -38 -186t38 -187zM368 702l-184 -86l-14 31l171 111z" />
    <glyph glyph-name="uni1EDC" unicode="&#x1edc;" horiz-adv-x="624" 
d="M25 396q0 170 84 290t203 120q63 0 118 -35l3 1q18 1 29 4.5t17 7.5t7.5 8t1.5 7q-28 -13 -48 2q-19 16 -19 37t15 36q12 13 28.5 15t31.5 -4t25 -18.5t9 -28.5q0 -77 -70 -90q30 -27 55 -62q84 -120 84 -290t-84 -290t-203 -120t-203 120q-84 121 -84 290zM312 15
q25 0 48.5 8.5t43 29.5t35 58t24.5 94q7 39 10 86.5t3 104.5q0 227 -49 308q-15 30 -36.5 47t-45.5 23t-49.5 2t-47.5 -16q-21 -12 -39 -38.5t-31.5 -70.5t-21.5 -107t-7 -148q0 -381 163 -381zM220 982l171 -111l-14 -31l-184 86z" />
    <glyph glyph-name="uni1EDD" unicode="&#x1edd;" horiz-adv-x="484" 
d="M88 487q65 86 154 86q68 0 120 -49q34 12 43.5 27t8.5 21q-28 -13 -48 2q-19 16 -19 37t15 36q12 13 28.5 15t31.5 -4t25 -18.5t9 -28.5q0 -82 -72 -109q3 -4 6 -7.5t5 -7.5q64 -85 64 -206q0 -122 -64 -207q-63 -85 -153 -85t-154 85q-63 85 -63 207q0 120 63 206z
M148 94q39 -77 94 -77t93 77q39 78 39 187t-39 186q-38 78 -93 78t-94 -78q-38 -78 -38 -186t38 -187zM147 760l171 -111l-14 -31l-184 86z" />
    <glyph glyph-name="uni1EDE" unicode="&#x1ede;" horiz-adv-x="624" 
d="M25 396q0 170 84 290t203 120q63 0 118 -35l3 1q18 1 29 4.5t17 7.5t7.5 8t1.5 7q-28 -13 -48 2q-19 16 -19 37t15 36q12 13 28.5 15t31.5 -4t25 -18.5t9 -28.5q0 -77 -70 -90q30 -27 55 -62q84 -120 84 -290t-84 -290t-203 -120t-203 120q-84 121 -84 290zM312 15
q25 0 48.5 8.5t43 29.5t35 58t24.5 94q7 39 10 86.5t3 104.5q0 227 -49 308q-15 30 -36.5 47t-45.5 23t-49.5 2t-47.5 -16q-21 -12 -39 -38.5t-31.5 -70.5t-21.5 -107t-7 -148q0 -381 163 -381zM296 850q-1 28 4.5 42.5t18.5 23.5q3 0 8 7q1 1 1.5 1t1.5 1q3 4 9 10.5
t8 14.5q1 15 -8 29t-35 12q-11 -1 -23 -14t-15 -32q-11 5 -20.5 8t-20.5 8q8 29 28.5 51.5t52.5 24.5q24 0 41.5 -8t28.5 -20.5t15 -27.5t3 -29q-2 -16 -12.5 -29t-21.5 -22l-15 -13q-8 -6 -10 -14t-3 -24h-36z" />
    <glyph glyph-name="uni1EDF" unicode="&#x1edf;" horiz-adv-x="484" 
d="M88 487q65 86 154 86q68 0 120 -49q34 12 43.5 27t8.5 21q-28 -13 -48 2q-19 16 -19 37t15 36q12 13 28.5 15t31.5 -4t25 -18.5t9 -28.5q0 -82 -72 -109q3 -4 6 -7.5t5 -7.5q64 -85 64 -206q0 -122 -64 -207q-63 -85 -153 -85t-154 85q-63 85 -63 207q0 120 63 206z
M148 94q39 -77 94 -77t93 77q39 78 39 187t-39 186q-38 78 -93 78t-94 -78q-38 -78 -38 -186t38 -187zM234 631q-1 28 4.5 42.5t18.5 23.5q3 0 8 7q1 1 1.5 1t1.5 1q3 4 9 10.5t8 14.5q1 15 -8 29t-35 12q-11 -1 -23 -14t-15 -32q-11 5 -20.5 8t-20.5 8q8 29 28.5 51.5
t52.5 24.5q24 0 41.5 -8t28.5 -20.5t15 -27.5t3 -29q-2 -16 -12.5 -29t-21.5 -22l-15 -13q-8 -6 -10 -14t-3 -24h-36z" />
    <glyph glyph-name="uni1EE0" unicode="&#x1ee0;" horiz-adv-x="624" 
d="M25 396q0 170 84 290t203 120q63 0 118 -35l3 1q18 1 29 4.5t17 7.5t7.5 8t1.5 7q-28 -13 -48 2q-19 16 -19 37t15 36q12 13 28.5 15t31.5 -4t25 -18.5t9 -28.5q0 -77 -70 -90q30 -27 55 -62q84 -120 84 -290t-84 -290t-203 -120t-203 120q-84 121 -84 290zM312 15
q25 0 48.5 8.5t43 29.5t35 58t24.5 94q7 39 10 86.5t3 104.5q0 227 -49 308q-15 30 -36.5 47t-45.5 23t-49.5 2t-47.5 -16q-21 -12 -39 -38.5t-31.5 -70.5t-21.5 -107t-7 -148q0 -381 163 -381zM310 902q-53 20 -72 14h-3q-2 0 -4.5 -0.5t-5.5 -0.5q-2 -2 -4 -6
q-2 -3 -4.5 -7.5t-5.5 -10.5q-1 4 -1 11q0 5 -0.5 14t-0.5 20q0 -3 14 17q6 6 27 14q12 -2 31.5 -6t45.5 -11q43 -15 63 -14q2 1 5 2t6 3q8 8 14 16t7 12l1 3q1 -7 3 -44q2 -6 -20 -26q-10 -12 -31 -14q-29 -2 -65 14z" />
    <glyph glyph-name="uni1EE1" unicode="&#x1ee1;" horiz-adv-x="484" 
d="M88 487q65 86 154 86q68 0 120 -49q34 12 43.5 27t8.5 21q-28 -13 -48 2q-19 16 -19 37t15 36q12 13 28.5 15t31.5 -4t25 -18.5t9 -28.5q0 -82 -72 -109q3 -4 6 -7.5t5 -7.5q64 -85 64 -206q0 -122 -64 -207q-63 -85 -153 -85t-154 85q-63 85 -63 207q0 120 63 206z
M148 94q39 -77 94 -77t93 77q39 78 39 187t-39 186q-38 78 -93 78t-94 -78q-38 -78 -38 -186t38 -187zM234 670q-49 19 -69 14h-3q-2 0 -4 -0.5t-5 -0.5l-3 -6q-2 -3 -4.5 -7.5t-5.5 -10.5q-1 5 -1 11q0 5 -0.5 13t-0.5 19q0 -3 14 17q7 5 25 13q11 -1 29.5 -5t43.5 -11
q42 -15 60 -14q6 2 10 5q8 8 13.5 16t6.5 11l2 3q0 -4 0.5 -14.5t1.5 -27.5q1 -5 -19 -25q-10 -12 -30 -14q-27 -2 -61 14z" />
    <glyph glyph-name="uni1EE2" unicode="&#x1ee2;" horiz-adv-x="624" 
d="M25 396q0 170 84 290t203 120q63 0 118 -35l3 1q18 1 29 4.5t17 7.5t7.5 8t1.5 7q-28 -13 -48 2q-19 16 -19 37t15 36q12 13 28.5 15t31.5 -4t25 -18.5t9 -28.5q0 -77 -70 -90q30 -27 55 -62q84 -120 84 -290t-84 -290t-203 -120t-203 120q-84 121 -84 290zM312 15
q25 0 48.5 8.5t43 29.5t35 58t24.5 94q7 39 10 86.5t3 104.5q0 227 -49 308q-15 30 -36.5 47t-45.5 23t-49.5 2t-47.5 -16q-21 -12 -39 -38.5t-31.5 -70.5t-21.5 -107t-7 -148q0 -381 163 -381zM277 -132q-13 14 -10.5 30.5t13.5 27t26.5 12.5t28.5 -12q14 -13 12 -28.5
t-12.5 -26.5t-27 -13.5t-30.5 10.5z" />
    <glyph glyph-name="uni1EE3" unicode="&#x1ee3;" horiz-adv-x="484" 
d="M88 487q65 86 154 86q68 0 120 -49q34 12 43.5 27t8.5 21q-28 -13 -48 2q-19 16 -19 37t15 36q12 13 28.5 15t31.5 -4t25 -18.5t9 -28.5q0 -82 -72 -109q3 -4 6 -7.5t5 -7.5q64 -85 64 -206q0 -122 -64 -207q-63 -85 -153 -85t-154 85q-63 85 -63 207q0 120 63 206z
M148 94q39 -77 94 -77t93 77q39 78 39 187t-39 186q-38 78 -93 78t-94 -78q-38 -78 -38 -186t38 -187zM210 -128q-13 14 -10.5 30.5t13.5 27t26.5 12.5t28.5 -12q14 -13 12 -28.5t-12.5 -26.5t-27 -13.5t-30.5 10.5z" />
    <glyph glyph-name="uni1EE4" unicode="&#x1ee4;" horiz-adv-x="644" 
d="M291 -132q-13 14 -10.5 30.5t13.5 27t26.5 12.5t28.5 -12q14 -13 12 -28.5t-12.5 -26.5t-27 -13.5t-30.5 10.5zM377 794h242l-77 -78v-561q0 -49 -25.5 -84.5t-63.5 -52.5q-75 -31 -131 -31t-131 31q-38 17 -63.5 52.5t-25.5 84.5v561l-77 78h241l-76 -78v-587
q0 -54 45 -84q47 -29 87 -29q39 0 86 30q46 30 46 83v587z" />
    <glyph glyph-name="uni1EE5" unicode="&#x1ee5;" horiz-adv-x="548" 
d="M236 -128q-13 14 -10.5 30.5t13.5 27t26.5 12.5t28.5 -12q14 -13 12 -28.5t-12.5 -26.5t-27 -13.5t-30.5 10.5zM377 0v101q-145 -113 -205 -113q-23 0 -39 10t-22 25q-5 16 -7 26t-2 19v389q0 18 -68 18q-9 0 -9 7t9 12l129 67q16 0 16 -13v-452q0 -36 33 -36
q53 0 165 80v317q0 18 -64 18q-9 0 -10 7.5t6 11.5l130 67q16 0 16 -13v-478l68 -70h-146z" />
    <glyph glyph-name="uni1EE6" unicode="&#x1ee6;" horiz-adv-x="644" 
d="M305 850q-1 31 4.5 47t18.5 26q2 0 8 8q1 1 1.5 1t1.5 1q3 5 9 12.5t8 15.5q1 17 -8 32.5t-35 13.5q-11 -1 -23 -16t-15 -35q-11 6 -20.5 9.5t-20.5 8.5q8 32 28.5 57t52.5 27q24 0 41.5 -9t28.5 -22.5t15 -30.5t3 -33q-2 -17 -12.5 -31.5t-21.5 -24.5l-15 -15
q-8 -7 -10 -16t-3 -26h-36zM377 794h242l-77 -78v-561q0 -49 -25.5 -84.5t-63.5 -52.5q-75 -31 -131 -31t-131 31q-38 17 -63.5 52.5t-25.5 84.5v561l-77 78h241l-76 -78v-587q0 -54 45 -84q47 -29 87 -29q39 0 86 30q46 30 46 83v587z" />
    <glyph glyph-name="uni1EE7" unicode="&#x1ee7;" horiz-adv-x="548" 
d="M272 630q-1 31 4.5 47t18.5 26q2 0 8 8q1 1 1.5 1t1.5 1q3 5 9 12.5t8 15.5q1 17 -8 32.5t-35 13.5q-11 -1 -23 -16t-15 -35q-11 6 -20.5 9.5t-20.5 8.5q8 32 28.5 57t52.5 27q24 0 41.5 -9t28.5 -22.5t15 -30.5t3 -33q-2 -17 -12.5 -31.5t-21.5 -24.5l-15 -15
q-8 -7 -10 -16t-3 -26h-36zM377 0v101q-145 -113 -205 -113q-23 0 -39 10t-22 25q-5 16 -7 26t-2 19v389q0 18 -68 18q-9 0 -9 7t9 12l129 67q16 0 16 -13v-452q0 -36 33 -36q53 0 165 80v317q0 18 -64 18q-9 0 -10 7.5t6 11.5l130 67q16 0 16 -13v-478l68 -70h-146z" />
    <glyph glyph-name="uni1EE8" unicode="&#x1ee8;" horiz-adv-x="644" 
d="M618 855q0 -75 -76 -90v-610q0 -49 -25.5 -84.5t-63.5 -52.5q-75 -31 -131 -31t-131 31q-38 17 -63.5 52.5t-25.5 84.5v561l-77 78h241l-76 -78v-587q0 -54 45 -84q47 -29 87 -29q39 0 86 30q46 30 46 83v587l-77 78h165q16 0 25.5 8t8.5 14q-28 -13 -48 2q-19 16 -19 37
t15 36q12 13 28.5 15t31.5 -4t25 -18.5t9 -28.5zM435 923l-184 -86l-14 31l171 111z" />
    <glyph glyph-name="uni1EE9" unicode="&#x1ee9;" horiz-adv-x="548" 
d="M377 0v101q-145 -113 -205 -113q-23 0 -39 10t-22 25q-5 16 -7 26t-2 19v389q0 18 -68 18q-9 0 -9 7t9 12l129 67q16 0 16 -13v-452q0 -36 33 -36q53 0 165 80v317q0 18 -64 18q-9 0 -10 7.5t6 11.5l130 67q16 0 16 -13v-18q30 12 39 26q10 15 9 21q-28 -13 -48 2
q-19 16 -19 37t15 36q12 13 28.5 15t31.5 -4t25 -18.5t9 -28.5q0 -93 -90 -115v-431l68 -70h-146zM392 702l-184 -86l-14 31l171 111z" />
    <glyph glyph-name="uni1EEA" unicode="&#x1eea;" horiz-adv-x="644" 
d="M618 855q0 -75 -76 -90v-610q0 -49 -25.5 -84.5t-63.5 -52.5q-75 -31 -131 -31t-131 31q-38 17 -63.5 52.5t-25.5 84.5v561l-77 78h241l-76 -78v-587q0 -54 45 -84q47 -29 87 -29q39 0 86 30q46 30 46 83v587l-77 78h165q16 0 25.5 8t8.5 14q-28 -13 -48 2q-19 16 -19 37
t15 36q12 13 28.5 15t31.5 -4t25 -18.5t9 -28.5zM226 979l171 -111l-14 -31l-184 86z" />
    <glyph glyph-name="uni1EEB" unicode="&#x1eeb;" horiz-adv-x="548" 
d="M377 0v101q-145 -113 -205 -113q-23 0 -39 10t-22 25q-5 16 -7 26t-2 19v389q0 18 -68 18q-9 0 -9 7t9 12l129 67q16 0 16 -13v-452q0 -36 33 -36q53 0 165 80v317q0 18 -64 18q-9 0 -10 7.5t6 11.5l130 67q16 0 16 -13v-18q30 12 39 26q10 15 9 21q-28 -13 -48 2
q-19 16 -19 37t15 36q12 13 28.5 15t31.5 -4t25 -18.5t9 -28.5q0 -93 -90 -115v-431l68 -70h-146zM174 757l171 -111l-14 -31l-184 86z" />
    <glyph glyph-name="uni1EEC" unicode="&#x1eec;" horiz-adv-x="644" 
d="M618 855q0 -75 -76 -90v-610q0 -49 -25.5 -84.5t-63.5 -52.5q-75 -31 -131 -31t-131 31q-38 17 -63.5 52.5t-25.5 84.5v561l-77 78h241l-76 -78v-587q0 -54 45 -84q47 -29 87 -29q39 0 86 30q46 30 46 83v587l-77 78h165q16 0 25.5 8t8.5 14q-28 -13 -48 2q-19 16 -19 37
t15 36q12 13 28.5 15t31.5 -4t25 -18.5t9 -28.5zM305 850q-1 28 4.5 42.5t18.5 23.5q3 0 8 7q1 1 1.5 1t1.5 1q3 4 9 10.5t8 14.5q1 15 -8 29t-35 12q-11 -1 -23 -14t-15 -32q-11 5 -20.5 8t-20.5 8q8 29 28.5 51.5t52.5 24.5q24 0 41.5 -8t28.5 -20.5t15 -27.5t3 -29
q-2 -16 -12.5 -29t-21.5 -22l-15 -13q-8 -6 -10 -14t-3 -24h-36z" />
    <glyph glyph-name="uni1EED" unicode="&#x1eed;" horiz-adv-x="548" 
d="M377 0v101q-145 -113 -205 -113q-23 0 -39 10t-22 25q-5 16 -7 26t-2 19v389q0 18 -68 18q-9 0 -9 7t9 12l129 67q16 0 16 -13v-452q0 -36 33 -36q53 0 165 80v317q0 18 -64 18q-9 0 -10 7.5t6 11.5l130 67q16 0 16 -13v-18q30 12 39 26q10 15 9 21q-28 -13 -48 2
q-19 16 -19 37t15 36q12 13 28.5 15t31.5 -4t25 -18.5t9 -28.5q0 -93 -90 -115v-431l68 -70h-146zM272 631q-1 28 4.5 42.5t18.5 23.5q3 0 8 7q1 1 1.5 1t1.5 1q3 4 9 10.5t8 14.5q1 15 -8 29t-35 12q-11 -1 -23 -14t-15 -32q-11 5 -20.5 8t-20.5 8q8 29 28.5 51.5
t52.5 24.5q24 0 41.5 -8t28.5 -20.5t15 -27.5t3 -29q-2 -16 -12.5 -29t-21.5 -22l-15 -13q-8 -6 -10 -14t-3 -24h-36z" />
    <glyph glyph-name="uni1EEE" unicode="&#x1eee;" horiz-adv-x="644" 
d="M618 855q0 -75 -76 -90v-610q0 -49 -25.5 -84.5t-63.5 -52.5q-75 -31 -131 -31t-131 31q-38 17 -63.5 52.5t-25.5 84.5v561l-77 78h241l-76 -78v-587q0 -54 45 -84q47 -29 87 -29q39 0 86 30q46 30 46 83v587l-77 78h165q16 0 25.5 8t8.5 14q-28 -13 -48 2q-19 16 -19 37
t15 36q12 13 28.5 15t31.5 -4t25 -18.5t9 -28.5zM309 867q-57 19 -80 14h-4q-2 0 -4.5 -0.5t-5.5 -0.5q-1 -2 -4 -6q-5 -6 -12 -18q-1 5 -1 11q0 5 -0.5 13.5t-0.5 19.5q0 -2 16 17q6 5 30 13q13 -1 34.5 -5t50.5 -11q48 -15 70 -14q2 1 5 2t7 3q9 8 15.5 16t7.5 11l2 3
q2 -8 3 -43q1 -5 -22 -25q-13 -13 -35 -14q-32 -2 -72 14z" />
    <glyph glyph-name="uni1EEF" unicode="&#x1eef;" horiz-adv-x="548" 
d="M377 0v101q-145 -113 -205 -113q-23 0 -39 10t-22 25q-5 16 -7 26t-2 19v389q0 18 -68 18q-9 0 -9 7t9 12l129 67q16 0 16 -13v-452q0 -36 33 -36q53 0 165 80v317q0 18 -64 18q-9 0 -10 7.5t6 11.5l130 67q16 0 16 -13v-18q30 12 39 26q10 15 9 21q-28 -13 -48 2
q-19 16 -19 37t15 36q12 13 28.5 15t31.5 -4t25 -18.5t9 -28.5q0 -93 -90 -115v-431l68 -70h-146zM280 641q-57 19 -80 14h-4q-2 0 -4.5 -0.5t-5.5 -0.5q-1 -2 -4 -6q-5 -6 -12 -18q-1 5 -1 11q0 5 -0.5 13.5t-0.5 19.5q0 -2 16 17q6 5 30 13q13 -1 34.5 -5t50.5 -11
q48 -15 70 -14q2 1 5 2t7 3q9 8 15.5 16t7.5 11l2 3q2 -8 3 -43q1 -5 -22 -25q-13 -13 -35 -14q-32 -2 -72 14z" />
    <glyph glyph-name="uni1EF0" unicode="&#x1ef0;" horiz-adv-x="644" 
d="M618 855q0 -75 -76 -90v-610q0 -49 -25.5 -84.5t-63.5 -52.5q-75 -31 -131 -31t-131 31q-38 17 -63.5 52.5t-25.5 84.5v561l-77 78h241l-76 -78v-587q0 -54 45 -84q47 -29 87 -29q39 0 86 30q46 30 46 83v587l-77 78h165q16 0 25.5 8t8.5 14q-28 -13 -48 2q-19 16 -19 37
t15 36q12 13 28.5 15t31.5 -4t25 -18.5t9 -28.5zM291 -132q-13 14 -10.5 30.5t13.5 27t26.5 12.5t28.5 -12q14 -13 12 -28.5t-12.5 -26.5t-27 -13.5t-30.5 10.5z" />
    <glyph glyph-name="uni1EF1" unicode="&#x1ef1;" horiz-adv-x="548" 
d="M377 0v101q-145 -113 -205 -113q-23 0 -39 10t-22 25q-5 16 -7 26t-2 19v389q0 18 -68 18q-9 0 -9 7t9 12l129 67q16 0 16 -13v-452q0 -36 33 -36q53 0 165 80v317q0 18 -64 18q-9 0 -10 7.5t6 11.5l130 67q16 0 16 -13v-18q30 12 39 26q10 15 9 21q-28 -13 -48 2
q-19 16 -19 37t15 36q12 13 28.5 15t31.5 -4t25 -18.5t9 -28.5q0 -93 -90 -115v-431l68 -70h-146zM236 -128q-13 14 -10.5 30.5t13.5 27t26.5 12.5t28.5 -12q14 -13 12 -28.5t-12.5 -26.5t-27 -13.5t-30.5 10.5z" />
    <glyph glyph-name="Ygrave" unicode="&#x1ef2;" horiz-adv-x="565" 
d="M326 467v-388l77 -79h-241l76 79v352l-136 285l-77 79h241l-76 -79l110 -230l126 230l-77 79h191l-77 -79zM209 979l171 -111l-14 -31l-184 86z" />
    <glyph glyph-name="ygrave" unicode="&#x1ef3;" horiz-adv-x="542" 
d="M183 757l171 -111l-14 -31l-184 86zM510 493q8 -4 8 -11.5t-8 -7.5q-68 0 -68 -17v-186q1 -72 1 -120v-73q0 -22 9 -36.5t20 -22.5q11 -7 20 -32.5t9 -67.5q0 -30 -18 -65t-51 -67q-32 -32 -84.5 -53.5t-113.5 -21.5q-47 0 -85.5 9.5t-66 27t-42.5 42.5t-15 57
q0 31 10.5 54.5t24 39.5t27 23.5t19.5 7.5q7 0 33 -26t38 -44q8 -12 0.5 -17.5t-16.5 5.5q-11 12 -42 12q-20 0 -33.5 -13.5t-13.5 -40.5q0 -32 44 -54.5t126 -22.5q77 0 132 44q55 43 55 81q0 26 -10 46t-22.5 35t-22.5 25.5t-10 19.5v81q-149 -117 -208 -117q-31 0 -49 19
q-17 20 -19.5 34.5t-2.5 27.5v480q0 4 4.5 8t9.5 4q12 0 38 -26t26 -41v-398q0 -36 32 -36q54 0 169 83v406q0 12 17 12q48 -25 80 -42t49 -25z" />
    <glyph glyph-name="uni1EF4" unicode="&#x1ef4;" horiz-adv-x="565" 
d="M255 -132q-13 14 -10.5 30.5t13.5 27t26.5 12.5t28.5 -12q14 -13 12 -28.5t-12.5 -26.5t-27 -13.5t-30.5 10.5zM326 467v-388l77 -79h-241l76 79v352l-136 285l-77 79h241l-76 -79l110 -230l126 230l-77 79h191l-77 -79z" />
    <glyph glyph-name="uni1EF5" unicode="&#x1ef5;" horiz-adv-x="542" 
d="M236 -128q-13 14 -10.5 30.5t13.5 27t26.5 12.5t28.5 -12q14 -13 12 -28.5t-12.5 -26.5t-27 -13.5t-30.5 10.5zM510 493q8 -4 8 -11.5t-8 -7.5q-68 0 -68 -17v-186q1 -72 1 -120v-73q0 -22 9 -36.5t20 -22.5q11 -7 20 -32.5t9 -67.5q0 -30 -18 -65t-51 -67
q-32 -32 -84.5 -53.5t-113.5 -21.5q-47 0 -85.5 9.5t-66 27t-42.5 42.5t-15 57q0 31 10.5 54.5t24 39.5t27 23.5t19.5 7.5q7 0 33 -26t38 -44q8 -12 0.5 -17.5t-16.5 5.5q-11 12 -42 12q-20 0 -33.5 -13.5t-13.5 -40.5q0 -32 44 -54.5t126 -22.5q77 0 132 44q55 43 55 81
q0 26 -10 46t-22.5 35t-22.5 25.5t-10 19.5v81q-149 -117 -208 -117q-31 0 -49 19q-17 20 -19.5 34.5t-2.5 27.5v480q0 4 4.5 8t9.5 4q12 0 38 -26t26 -41v-398q0 -36 32 -36q54 0 169 83v406q0 12 17 12q48 -25 80 -42t49 -25z" />
    <glyph glyph-name="uni1EF6" unicode="&#x1ef6;" horiz-adv-x="565" 
d="M276 850q-1 28 4.5 42.5t18.5 23.5q3 0 8 7q1 1 1.5 1t1.5 1q3 4 9 10.5t8 14.5q1 15 -8 29t-35 12q-11 -1 -23 -14t-15 -32q-11 5 -20.5 8t-20.5 8q8 29 28.5 51.5t52.5 24.5q24 0 41.5 -8t28.5 -20.5t15 -27.5t3 -29q-2 -16 -12.5 -29t-21.5 -22l-15 -13q-8 -6 -10 -14
t-3 -24h-36zM326 467v-388l77 -79h-241l76 79v352l-136 285l-77 79h241l-76 -79l110 -230l126 230l-77 79h191l-77 -79z" />
    <glyph glyph-name="uni1EF7" unicode="&#x1ef7;" horiz-adv-x="542" 
d="M251 631q-1 28 4.5 42.5t18.5 23.5q3 0 8 7q1 1 1.5 1t1.5 1q3 4 9 10.5t8 14.5q1 15 -8 29t-35 12q-11 -1 -23 -14t-15 -32q-11 5 -20.5 8t-20.5 8q8 29 28.5 51.5t52.5 24.5q24 0 41.5 -8t28.5 -20.5t15 -27.5t3 -29q-2 -16 -12.5 -29t-21.5 -22l-15 -13q-8 -6 -10 -14
t-3 -24h-36zM510 493q8 -4 8 -11.5t-8 -7.5q-68 0 -68 -17v-186q1 -72 1 -120v-73q0 -22 9 -36.5t20 -22.5q11 -7 20 -32.5t9 -67.5q0 -30 -18 -65t-51 -67q-32 -32 -84.5 -53.5t-113.5 -21.5q-47 0 -85.5 9.5t-66 27t-42.5 42.5t-15 57q0 31 10.5 54.5t24 39.5t27 23.5
t19.5 7.5q7 0 33 -26t38 -44q8 -12 0.5 -17.5t-16.5 5.5q-11 12 -42 12q-20 0 -33.5 -13.5t-13.5 -40.5q0 -32 44 -54.5t126 -22.5q77 0 132 44q55 43 55 81q0 26 -10 46t-22.5 35t-22.5 25.5t-10 19.5v81q-149 -117 -208 -117q-31 0 -49 19q-17 20 -19.5 34.5t-2.5 27.5
v480q0 4 4.5 8t9.5 4q12 0 38 -26t26 -41v-398q0 -36 32 -36q54 0 169 83v406q0 12 17 12q48 -25 80 -42t49 -25z" />
    <glyph glyph-name="uni1EF8" unicode="&#x1ef8;" horiz-adv-x="565" 
d="M281 867q-57 19 -80 14h-4q-2 0 -4.5 -0.5t-5.5 -0.5q-1 -2 -4 -6q-5 -6 -12 -18q-1 5 -1 11q0 5 -0.5 13.5t-0.5 19.5q0 -2 16 17q6 5 30 13q13 -1 34.5 -5t50.5 -11q48 -15 70 -14q2 1 5 2t7 3q9 8 15.5 16t7.5 11l2 3q2 -8 3 -43q1 -5 -22 -25q-13 -13 -35 -14
q-32 -2 -72 14zM326 467v-388l77 -79h-241l76 79v352l-136 285l-77 79h241l-76 -79l110 -230l126 230l-77 79h191l-77 -79z" />
    <glyph glyph-name="uni1EF9" unicode="&#x1ef9;" horiz-adv-x="542" 
d="M258 641q-57 19 -80 14h-4q-2 0 -4.5 -0.5t-5.5 -0.5q-1 -2 -4 -6q-5 -6 -12 -18q-1 5 -1 11q0 5 -0.5 13.5t-0.5 19.5q0 -2 16 17q6 5 30 13q13 -1 34.5 -5t50.5 -11q48 -15 70 -14q2 1 5 2t7 3q9 8 15.5 16t7.5 11l2 3q2 -8 3 -43q1 -5 -22 -25q-13 -13 -35 -14
q-32 -2 -72 14zM510 493q8 -4 8 -11.5t-8 -7.5q-68 0 -68 -17v-186q1 -72 1 -120v-73q0 -22 9 -36.5t20 -22.5q11 -7 20 -32.5t9 -67.5q0 -30 -18 -65t-51 -67q-32 -32 -84.5 -53.5t-113.5 -21.5q-47 0 -85.5 9.5t-66 27t-42.5 42.5t-15 57q0 31 10.5 54.5t24 39.5t27 23.5
t19.5 7.5q7 0 33 -26t38 -44q8 -12 0.5 -17.5t-16.5 5.5q-11 12 -42 12q-20 0 -33.5 -13.5t-13.5 -40.5q0 -32 44 -54.5t126 -22.5q77 0 132 44q55 43 55 81q0 26 -10 46t-22.5 35t-22.5 25.5t-10 19.5v81q-149 -117 -208 -117q-31 0 -49 19q-17 20 -19.5 34.5t-2.5 27.5
v480q0 4 4.5 8t9.5 4q12 0 38 -26t26 -41v-398q0 -36 32 -36q54 0 169 83v406q0 12 17 12q48 -25 80 -42t49 -25z" />
    <glyph glyph-name="uni1EFA" unicode="&#x1efa;" horiz-adv-x="0" 
d="M412 943q-1 31 8.5 48.5t22.5 27.5q2 0 6 5q1 1 1.5 1t1.5 1q3 5 9 12.5t8 15.5q1 17 -8 32t-35 13q-11 -1 -23 -15.5t-15 -34.5q-11 6 -20.5 9.5t-20.5 8.5q8 32 28.5 57t52.5 27q24 0 41 -9t27.5 -22.5t15 -30.5t4.5 -33q-1 -30 -12 -43t-22 -23h-3q-8 -7 -14 -18.5
t-7 -28.5h-46z" />
    <glyph glyph-name="endash" unicode="&#x2013;" horiz-adv-x="408" 
d="M25 429h14v-10h330v10h14v-90h-14v10h-330v-10h-14v90z" />
    <glyph glyph-name="emdash" unicode="&#x2014;" horiz-adv-x="712" 
d="M25 429h14v-10h634v10h14v-90h-14v10h-634v-10h-14v90z" />
    <glyph glyph-name="quoteleft" unicode="&#x2018;" horiz-adv-x="134" 
d="M25 707q0 52 41 90q0 -48 1 -48q14 0 24 -7.5t14.5 -18.5t2.5 -23.5t-12 -22.5q-9 -9 -21.5 -11t-23.5 2.5t-18.5 14.5t-7.5 24z" />
    <glyph glyph-name="quoteright" unicode="&#x2019;" horiz-adv-x="134" 
d="M109 755q0 -52 -41 -90q0 48 -1 48q-14 0 -24 7.5t-14.5 18.5t-2.5 23.5t11 21.5q10 10 22.5 12t23.5 -2.5t18.5 -14.5t7.5 -24z" />
    <glyph glyph-name="quotesinglbase" unicode="&#x201a;" horiz-adv-x="134" 
d="M109 42q0 -52 -41 -90q0 48 -1 48q-14 0 -24 7.5t-14.5 18.5t-2.5 23.5t11 21.5q10 10 22.5 12t23.5 -2.5t18.5 -14.5t7.5 -24z" />
    <glyph glyph-name="quotedblleft" unicode="&#x201c;" horiz-adv-x="264" 
d="M155 707q0 52 41 90q0 -48 1 -48q14 0 24 -7.5t14.5 -18.5t2.5 -23.5t-12 -22.5q-9 -9 -21.5 -11t-23.5 2.5t-18.5 14.5t-7.5 24zM25 707q0 52 41 90q0 -48 1 -48q14 0 24 -7.5t14.5 -18.5t2.5 -23.5t-12 -22.5q-9 -9 -21.5 -11t-23.5 2.5t-18.5 14.5t-7.5 24z" />
    <glyph glyph-name="quotedblright" unicode="&#x201d;" horiz-adv-x="254" 
d="M239 755q0 -52 -41 -90q0 48 -1 48q-14 0 -24 7.5t-14.5 18.5t-2.5 23.5t11 21.5q10 10 22.5 12t23.5 -2.5t18.5 -14.5t7.5 -24zM109 755q0 -52 -41 -90q0 48 -1 48q-14 0 -24 7.5t-14.5 18.5t-2.5 23.5t11 21.5q10 10 22.5 12t23.5 -2.5t18.5 -14.5t7.5 -24z" />
    <glyph glyph-name="quotedblbase" unicode="&#x201e;" horiz-adv-x="264" 
d="M239 42q0 -52 -41 -90q0 48 -1 48q-14 0 -24 7.5t-14.5 18.5t-2.5 23.5t11 21.5q10 10 22.5 12t23.5 -2.5t18.5 -14.5t7.5 -24zM109 42q0 -52 -41 -90q0 48 -1 48q-14 0 -24 7.5t-14.5 18.5t-2.5 23.5t11 21.5q10 10 22.5 12t23.5 -2.5t18.5 -14.5t7.5 -24z" />
    <glyph glyph-name="dagger" unicode="&#x2020;" horiz-adv-x="172" 
d="M86 12q-27 87 -27 386v30h-30q-4 0 -4 6.5t4 6.5h36v44q-6 34 -6 89q0 54 12 92v57h4v17h23v-17h4v-57q12 -38 12 -92q0 -29 -1.5 -51t-5.5 -38l1 -44h36q4 0 4 -6.5t-4 -6.5h-31v-30q0 -305 -27 -386z" />
    <glyph glyph-name="daggerdbl" unicode="&#x2021;" horiz-adv-x="172" 
d="M29 317q-4 0 -4 6.5t4 6.5h31v68v30h-31q-4 0 -4 6.5t4 6.5h36v44q-2 14 -3.5 36.5t-1.5 52.5q0 56 11 92v57h4v17h23v-17h4v-57q12 -38 12 -92q0 -29 -1.5 -51t-5.5 -38l1 -44h36q4 0 4 -6.5t-4 -6.5h-31v-30v-68h31q4 0 4 -6.5t-4 -6.5h-32q-3 -231 -26 -305
q-23 74 -26 305h-31z" />
    <glyph glyph-name="bullet" unicode="&#x2022;" horiz-adv-x="426" 
d="M80 232q-55 55 -55 133t55 133t133 55t133 -55t55 -133t-55 -133t-133 -55t-133 55z" />
    <glyph glyph-name="ellipsis" unicode="&#x2026;" horiz-adv-x="474" 
d="M377 12q-12 13 -12 30t12 29q13 13 30 13t29 -13q13 -12 13 -29t-13 -30q-12 -12 -29 -12t-30 12zM207 12q-12 13 -12 30t12 29q13 13 30 13t29 -13q13 -12 13 -29t-13 -30q-12 -12 -29 -12t-30 12zM37 12q-12 13 -12 30t12 29q13 13 30 13t29 -13q13 -12 13 -29t-13 -30
q-12 -12 -29 -12t-30 12z" />
    <glyph glyph-name="perthousand" unicode="&#x2030;" horiz-adv-x="896" 
d="M646 58q-38 59 -38 140t38 140q39 58 94 58q56 0 93 -58q38 -58 38 -140t-38 -141q-38 -57 -93 -57t-94 58zM695 320q-18 -50 -18 -122q0 -73 18 -122q19 -51 45 -51t44 51q19 48 19 122t-19 122q-18 51 -44 51t-45 -51zM336 58q-38 59 -38 140t38 140q39 58 94 58
q56 0 93 -58q38 -58 38 -140t-38 -141q-38 -57 -93 -57t-94 58zM385 320q-18 -50 -18 -122q0 -73 18 -122q19 -51 45 -51t44 51q19 48 19 122t-19 122q-18 51 -44 51t-45 -51zM63 489q-38 59 -38 140t38 140q39 58 94 58q56 0 93 -58q38 -59 38 -140t-38 -140
q-37 -58 -93 -58q-55 0 -94 58zM112 751q-18 -51 -18 -122t18 -122q19 -51 45 -51t44 51q19 50 19 122t-19 122q-18 51 -44 51t-45 -51zM538 838l-6 -13l-9 4l-405 -868l9 -4l-5 -13l-82 38l6 13l9 -4l405 868l-9 4l6 13z" />
    <glyph glyph-name="uni2031" unicode="&#x2031;" horiz-adv-x="1206" 
d="M956 58q-38 59 -38 140t38 140q39 58 94 58q56 0 93 -58q38 -58 38 -140t-38 -141q-38 -57 -93 -57t-94 58zM1005 320q-18 -50 -18 -122q0 -73 18 -122q19 -51 45 -51t44 51q19 48 19 122t-19 122q-18 51 -44 51t-45 -51zM646 58q-38 59 -38 140t38 140q39 58 94 58
q56 0 93 -58q38 -58 38 -140t-38 -141q-38 -57 -93 -57t-94 58zM695 320q-18 -50 -18 -122q0 -73 18 -122q19 -51 45 -51t44 51q19 48 19 122t-19 122q-18 51 -44 51t-45 -51zM336 58q-38 59 -38 140t38 140q39 58 94 58q56 0 93 -58q38 -58 38 -140t-38 -141
q-38 -57 -93 -57t-94 58zM385 320q-18 -50 -18 -122q0 -73 18 -122q19 -51 45 -51t44 51q19 48 19 122t-19 122q-18 51 -44 51t-45 -51zM63 489q-38 59 -38 140t38 140q39 58 94 58q56 0 93 -58q38 -59 38 -140t-38 -140q-37 -58 -93 -58q-55 0 -94 58zM112 751
q-18 -51 -18 -122t18 -122q19 -51 45 -51t44 51q19 50 19 122t-19 122q-18 51 -44 51t-45 -51zM538 838l-6 -13l-9 4l-405 -868l9 -4l-5 -13l-82 38l6 13l9 -4l405 868l-9 4l6 13z" />
    <glyph glyph-name="guilsinglleft" unicode="&#x2039;" horiz-adv-x="251" 
d="M226 162l-201 224l201 225v-79l-133 -148l133 -143v-79z" />
    <glyph glyph-name="guilsinglright" unicode="&#x203a;" horiz-adv-x="251" 
d="M25 162v79l133 143l-133 148v79l201 -225z" />
    <glyph glyph-name="fraction" unicode="&#x2044;" horiz-adv-x="548" 
d="M523 838l-6 -13l-9 4l-405 -868l9 -4l-5 -13l-82 38l6 13l9 -4l405 868l-9 4l6 13z" />
    <glyph glyph-name="Euro" unicode="&#x20ac;" horiz-adv-x="589" 
d="M517 243q10 21 22 21t12 -18q0 -10 -4 -18q-8 -54 -12 -95.5t-4 -71.5q0 -35 19 -35q12 0 14 -12q2 -11 -12 -13q-2 -1 -6 -1q-102 0 -132 -6q-28 -7 -67 -7q-96 0 -170 92q-72 91 -92 234h-49v-8h-11v72h11v-8h43v28v26v13h-43v-8h-11v72h11v-8h50q21 138 94 226
q74 89 167 89q37 0 67 -6t132 -6q17 0 18 -13q0 -12 -14 -14q-19 0 -19 -34q0 -30 4 -71.5t12 -95.5q4 -8 4 -18q0 -18 -12 -18t-22 20q-2 8 -8 26.5t-16 47.5q-18 58 -29 85q-2 3 -7.5 13.5t-7.5 13.5t-8 11t-11 10q-12 9 -31 14.5t-52 5.5q-39 0 -68 -23
q-28 -23 -50 -88.5t-28 -174.5h99v8h11v-72h-11v8h-101v-39v-28h101v8h11v-72h-11v8h-99q15 -297 146 -297q35 0 52.5 6t30.5 13q5 3 11 11t8 11t7.5 13.5t7.5 13.5q11 27 29 85q10 29 16 47.5t8 26.5z" />
    <glyph glyph-name="uni2113" unicode="&#x2113;" horiz-adv-x="435" 
d="M157 -20q-29 0 -51.5 11.5t-38.5 32.5t-24 49t-8 61q0 126 43 259q22 69 47 125.5t54 104.5q97 160 165 160q56 0 56 -68q0 -112 -90 -263q-31 -52 -80.5 -112.5t-118.5 -129.5q-2 -29 -3.5 -47t-1.5 -26q0 -123 92 -123q35 0 116 81q9 9 15 2.5t-5 -18.5
q-98 -99 -167 -99zM112 235q35 37 76 92.5t87 131.5q98 164 98 247q0 46 -29 46q-24 0 -62.5 -46.5t-76.5 -134.5q-50 -111 -93 -336z" />
    <glyph glyph-name="uni2116" unicode="&#x2116;" horiz-adv-x="1010" 
d="M779 163q-60 27 -75 27q-9 0 -13 -3t-8 -7.5t-6 -7.5l-2 -2v9q0 26 15 37q11 8 30 8q24 0 79 -20q45 -19 65 -19q6 0 14 5q20 13 22 21l2 3q1 -5 1 -17q0 -26 -22 -42q-13 -10 -35 -10q-27 0 -67 18zM652 716q57 77 138 77t138 -77t57 -186q0 -110 -57 -186
q-57 -77 -138 -77t-138 77q-57 76 -57 186q0 109 57 186zM706 362q34 -70 84 -70t84 70q35 72 35 168t-35 168q-34 70 -84 70t-84 -70q-35 -72 -35 -168t35 -168zM542 716v-637l77 -79h-279l77 79l-278 634v-634l77 -79h-191l77 79v637l-77 79h277l-77 -79l280 -637v637
l-77 79h191z" />
    <glyph glyph-name="trademark" unicode="&#x2122;" horiz-adv-x="711" 
d="M309 681q1 -2 1 -8q0 -8 -7 -8q-5 0 -10 8q-2 5 -6.5 18.5t-7.5 20.5q-2 7 -6.5 16t-9.5 14q-19 20 -33 28t-37 9v-344l39 -40h-121l38 40v344q-38 -1 -70 -37q-8 -9 -15.5 -31t-14.5 -38q-3 -8 -10 -8t-7 8v8q17 63 17 76q0 22 -17 22q-6 0 -8 7t8 7h276q9 0 9 -7t-7 -7
q-17 0 -17 -22q0 -29 16 -76zM648 753v-318l39 -40h-121l38 40v318l-106 -300l-99 300v-318l38 -40h-95l38 40v318l-38 40h139l-38 -40l69 -205l74 205l-39 40h140z" />
    <glyph glyph-name="Omega" unicode="&#x2126;" horiz-adv-x="767" 
d="M727 182v-182h-276v140l3 1q85 27 137 108q54 81 54 184q0 135 -77 230t-184 95q-108 0 -185 -95q-76 -94 -76 -230q0 -102 53 -184q54 -81 137 -108l3 -1v-140h-275v182l111 -100h99v39q-102 38 -164 122q-62 86 -62 190q0 149 105 254t254 105t253 -105
q105 -105 105 -254q0 -105 -63 -190q-60 -84 -163 -122v-39h99z" />
    <glyph glyph-name="estimated" unicode="&#x212e;" horiz-adv-x="802" 
d="M164 149q0 -35 70 -78q71 -44 167 -44q69 0 132 30.5t106 78.5h70q-73 -80 -141 -107q-75 -29 -167 -29q-170 0 -272 96q-104 98 -104 248t105 248q103 96 271 96q150 0 260 -86q105 -83 116 -268h-599q-7 0 -10.5 -3t-3.5 -14v-168zM637 536q0 41 -79 84t-159 43
q-90 0 -163 -46q-72 -45 -72 -74v-179q0 -9 15 -9h441q11 0 14 3.5t3 13.5v164z" />
    <glyph glyph-name="partialdiff" unicode="&#x2202;" horiz-adv-x="550" 
d="M104 780q115 0 198 -38t131 -108q48 -69 70 -156t22 -196q0 -73 -18 -128.5t-50.5 -92.5t-78.5 -56t-102 -19q-104 0 -178 92q-73 91 -73 204q0 122 72 205q73 82 179 82q71 0 126 -61q-68 240 -296 240zM430 282q0 117 -39.5 183t-114.5 66q-85 0 -121.5 -64t-36.5 -185
q0 -104 42 -180q43 -76 116 -76q154 0 154 256z" />
    <glyph glyph-name="Delta" unicode="&#x2206;" horiz-adv-x="839" 
d="M814 0h-789l389 820zM698 32l-316 647l-307 -647h623z" />
    <glyph glyph-name="product" unicode="&#x220f;" horiz-adv-x="645" 
d="M620 795l-77 -78v-638l77 -79h-241l76 79v678h-265v-678l76 -79h-241l77 79v638l-77 78h595z" />
    <glyph glyph-name="summation" unicode="&#x2211;" horiz-adv-x="618" 
d="M190 28q54 0 96.5 4t76 13t58.5 23.5t45 35.5q10 11 18.5 22.5t15.5 23.5q7 13 15 30t16 39q9 22 16 38.5t12 27.5q10 21 22 21t12 -18q0 -10 -4 -18q-56 -142 -56 -207q0 -35 19 -35q14 0 14 -13q-3 -14 -18 -15h-523l77 79l180 337l-180 300l-77 79h486q9 0 13.5 -4.5
t4.5 -10t-4 -10t-11 -4.5q-19 0 -19 -34q0 -69 23 -123q4 -8 4 -18q0 -18 -13 -18q-10 0 -21 20q-8 15 -19 35q-11 23 -19.5 36t-20.5 26q-44 45 -89 60q-45 16 -150 16l180 -350z" />
    <glyph glyph-name="radical" unicode="&#x221a;" horiz-adv-x="656" 
d="M25 520h131l178 -389l252 662h45l-301 -793l-221 487h-84v33z" />
    <glyph glyph-name="infinity" unicode="&#x221e;" horiz-adv-x="719" 
d="M515 78q-100 0 -155 90q-59 -90 -156 -90q-76 0 -128 42q-51 43 -51 104q0 57 49 102t130 45q101 0 156 -91q52 91 155 91q80 0 129 -46q50 -47 50 -101q0 -60 -52 -103t-127 -43zM385 224q39 -98 130 -98q55 0 93 29q39 28 39 69t-39 70q-38 29 -93 29q-52 0 -83.5 -30
t-46.5 -69zM335 224q-42 99 -131 99q-53 0 -93 -29q-38 -29 -38 -70q0 -40 38 -69q40 -29 93 -29q87 0 131 98z" />
    <glyph glyph-name="integral" unicode="&#x222b;" horiz-adv-x="192" 
d="M167 733q-48 0 -48 -67v-559q0 -44 -28 -78q-27 -34 -66 -34v46q19 0 33.5 19.5t14.5 46.5v559q0 49 21 78q26 35 73 35v-46z" />
    <glyph glyph-name="approxequal" unicode="&#x2248;" horiz-adv-x="546" 
d="M521 442q-35 -37 -56 -48q-30 -15 -70 -15q-46 0 -128 21q-81 22 -111 22q-27 -1 -42.5 -10t-35.5 -33l-53 33q18 29 53 47.5t77 19.5q48 0 123 -20t109 -20q58 0 88 41zM521 320q-36 -38 -58 -48q-30 -14 -68 -14q-46 0 -128 21q-83 21 -111 21q-27 0 -42.5 -8.5
t-35.5 -33.5l-53 32q18 29 53 48t77 19q47 0 119 -20t116 -20q52 0 85 41z" />
    <glyph glyph-name="notequal" unicode="&#x2260;" horiz-adv-x="408" 
d="M25 489h14v-10h190l27 46h74l-27 -46h66v10h14v-90h-14v10h-107l-42 -70h149v10h14v-90h-14v10h-190l-29 -49h-74l29 49h-66v-10h-14v90h14v-10h107l42 70h-149v-10h-14v90z" />
    <glyph glyph-name="lessequal" unicode="&#x2264;" horiz-adv-x="623" 
d="M25 -31h14v-10h545v10h14v-90h-14v10h-545v-10h-14v90zM598 162l-573 224l573 225v-79l-381 -148l381 -143v-79z" />
    <glyph glyph-name="greaterequal" unicode="&#x2265;" horiz-adv-x="623" 
d="M598 -31v-90h-14v10h-545v-10h-14v90h14v-10h545v10h14zM25 162v79l381 143l-381 148v79l573 -225z" />
    <glyph glyph-name="lozenge" unicode="&#x25ca;" horiz-adv-x="528" 
d="M88 424l176 -330l178 331l-177 314zM30 426l235 416l234 -415l-235 -438z" />
    <glyph glyph-name="uniE004" unicode="&#xe004;" horiz-adv-x="1010" 
d="M513 283q10 21 22 21t12 -18q0 -10 -4 -18q-56 -142 -56 -207q0 -35 19 -35q12 0 14 -12q2 -11 -12 -13q-2 -1 -6 -1q-102 0 -132 -6q-28 -7 -67 -7q-115 0 -197 120q-81 121 -81 290q0 170 81 290q82 120 197 120q37 0 67 -6t132 -6q17 0 18 -13q0 -12 -14 -14
q-19 0 -19 -34q0 -65 56 -207q4 -8 4 -18q0 -18 -12 -18t-22 20q-14 25 -45 96q-16 35 -28 61t-20 42q-20 37 -33 48q-26 20 -84 20q-35 0 -62 -16.5t-50 -58.5q-22 -42 -34 -118t-12 -188q0 -381 158 -381q32 0 52 4t33 16q6 6 10 10.5t7.5 9.5t6.5 11t8 17q7 14 18 37.5
t26 56.5q16 34 28 60t21 45zM779 163q-60 27 -75 27q-9 0 -13 -3t-8 -7.5t-6 -7.5l-2 -2v9q0 26 15 37q11 8 30 8q24 0 79 -20q45 -19 65 -19q6 0 14 5q20 13 22 21l2 3q1 -5 1 -17q0 -26 -22 -42q-13 -10 -35 -10q-27 0 -67 18zM652 716q57 77 138 77t138 -77t57 -186
q0 -110 -57 -186q-57 -77 -138 -77t-138 77q-57 76 -57 186q0 109 57 186zM706 362q34 -70 84 -70t84 70q35 72 35 168t-35 168q-34 70 -84 70t-84 -70q-35 -72 -35 -168t35 -168z" />
    <glyph glyph-name="uniF8FF" unicode="&#xf8ff;" horiz-adv-x="769" 
d="M708 526v-25h12v-100h-12v-25h12v-100h-12v-26h12v-55l-48 -28l-6 10l-22 -12l5 -11l-86 -51l-6 12l-22 -13l6 -11l-88 -50l-7 10l-20 -12l5 -11l-48 -28l-48 28l6 11l-22 12l-6 -10l-86 50l6 11l-22 13l-6 -12l-86 51l6 11l-22 12l-6 -10l-48 28v55h12v26h-12v100h12v25
h-12v100h12v25h-12v55l48 29l6 -11l22 13l-6 10l86 50l6 -11l22 13l-6 11l86 49l6 -10l22 13l-6 10l48 28l48 -28l-5 -10l20 -13l7 10l88 -49l-6 -11l22 -13l6 11l86 -50l-5 -10l22 -13l6 11l48 -29v-55h-12zM86 215l297 -174l300 174v346l-300 172l-297 -172v-346zM270 437
q0 -19 8 -24l-83 -32l-43 23v-175q0 -20 8 -31l-55 30q8 11 8 26v159q0 18 -8 24q8 6 8 23v63q0 21 -8 27l173 100q-8 -18 -8 -27v-186zM152 453l43 -25l35 14v125l-78 -45v-69zM463 142q0 -11 7 -24l-87 -50l-86 49q8 14 8 25l-8 30l65 -40v280q0 18 -7 26q7 4 7 22v186
l-65 -39q8 19 8 29q0 8 -8 26l86 48l87 -50q-7 -10 -7 -24q0 -11 7 -29l-68 40v-187q0 -17 8 -23q-8 -6 -8 -25v-280l68 41q-7 -17 -7 -31zM497 413q0 18 -8 24q8 6 8 23v163q0 18 -8 26l48 -27v-411l78 44v64l47 -23q-7 -8 -7 -18v-31q0 -15 7 -19l-173 -99q8 18 8 28v256z
" />
    <glyph glyph-name="uniFB01" unicode="&#xfb01;" horiz-adv-x="719" 
d="M480 0l68 70q1 152 1 247.5v138.5q0 18 -67 18q-13 0 -11.5 7t10.5 12l129 67q16 0 16 -13v-477l68 -70h-214zM555 665q-13 19 -13 46t13 46q14 19 33 19t32 -19t13 -46t-13 -46t-32 -19t-33 19zM272 797q70 0 134 -49q65 -50 65 -113q0 -24 -14 -55q-14 -30 -46 -30
q-11 0 -48 21q-19 11 -28 19t-10.5 13.5t3 8.5t10.5 3q3 0 9.5 -0.5t9.5 -0.5q29 0 29 37q0 33 -29 71q-28 37 -92 37q-94 0 -94 -161v-57q40 9 75 9q38 0 65 -21t27 -39q0 -11 -13 -11q-37 0 -49.5 -20t-12.5 -57q0 -6 0.5 -20t0.5 -20q12 5 19 5q15 0 26 -11t11 -26
q0 -18 -11.5 -27t-25.5 -9t-25.5 8.5t-11.5 25.5v166q0 19 -30 19q-16 0 -45 -8l1 -435l67 -70h-214l68 70v399q-2 -2 -8 -6t-14 -12q-17 -14 -24 -14q-17 0 -17 14q0 9 9 18q13 13 26.5 23t27.5 18v125q0 63 48 113q48 49 131 49z" />
    <glyph glyph-name="uniFB02" unicode="&#xfb02;" horiz-adv-x="757" 
d="M732 0h-214l69 70v623q0 18 -67 18q-9 0 -9 7.5t8 10.5l129 68q16 0 16 -13v-714zM272 797q70 0 134 -49q65 -50 65 -113q0 -24 -14 -55q-14 -30 -46 -30q-11 0 -48 21q-19 11 -28 19t-10.5 13.5t3 8.5t10.5 3q3 0 9.5 -0.5t9.5 -0.5q29 0 29 37q0 33 -29 71
q-28 37 -92 37q-94 0 -94 -161v-57q40 9 75 9q38 0 65 -21t27 -39q0 -11 -13 -11q-37 0 -49.5 -20t-12.5 -57q0 -6 0.5 -20t0.5 -20q12 5 19 5q15 0 26 -11t11 -26q0 -18 -11.5 -27t-25.5 -9t-25.5 8.5t-11.5 25.5v166q0 19 -30 19q-16 0 -45 -8l1 -435l67 -70h-214l68 70
v399q-2 -2 -8 -6t-14 -12q-17 -14 -24 -14q-17 0 -17 14q0 9 9 18q13 13 26.5 23t27.5 18v125q0 63 48 113q48 49 131 49z" />
    <glyph glyph-name="NULL" horiz-adv-x="0" 
 />
    </font>
</defs>
</svg>
