<?xml version="1.0" standalone="no"?>
<!DOCTYPE svg PUBLIC "-//W3C//DTD SVG 1.1//EN" "http://www.w3.org/Graphics/SVG/1.1/DTD/svg11.dtd" >
<svg xmlns="http://www.w3.org/2000/svg" xmlns:xlink="http://www.w3.org/1999/xlink" version="1.1">
<metadata>
Created by FontForge 20161003 at Fri Dec  8 01:45:47 2017
 By www-data
Copyright (URW)++, copyright 1999 by (URW)++ Design &#38; Development; Cyrillic glyphs added by Valek Filippov, copyright 2001-2002; Vietnamese characters were added by Han The Thanh; copyright 2006, 2008 for TeX Gyre extensions by B. Jackowski and J.M. Nowacki (on behalf of TeX users groups). This work is released under the GUST Font License --  see http://tug.org/fonts/licenses/GUST-FONT-LICENSE.txt for details.
</metadata>
<defs>
<font id="texgyreadventorbolditalic" horiz-adv-x="640" >
  <font-face 
    font-family="texgyreadventorbolditalic"
    font-weight="700"
    font-style="italic"
    font-stretch="normal"
    units-per-em="1000"
    panose-1="0 0 8 0 0 0 0 0 0 0"
    ascent="815"
    descent="-185"
    x-height="554"
    cap-height="739"
    bbox="-575 -304 1663 1236"
    underline-thickness="90"
    underline-position="-183"
    slope="-10.5"
    unicode-range="U+0020-FB04"
  />
<missing-glyph horiz-adv-x="280" 
 />
    <glyph glyph-name="I_J" unicode="IJ" horiz-adv-x="713" 
d="M298 739l-137 -739h-137l137 739h137zM766 739l-98 -527q-21 -109 -87 -167t-154 -58q-77 0 -125.5 43t-48.5 110q0 7 2 35h137l1 -7q7 -49 55 -49q66 0 84 97l97 523h137z" />
    <glyph glyph-name="i_j" unicode="ij" horiz-adv-x="499" 
d="M260 554l-103 -554h-133l103 554h133zM300 766l-25 -132h-133l25 132h133zM518 554l-96 -517q-17 -103 -77 -161.5t-152 -60.5l24 129q38 7 50.5 24t22.5 72l95 514h133zM558 766l-25 -132h-133l25 132h133z" />
    <glyph glyph-name="f_k" unicode="fk" horiz-adv-x="860" 
d="M383 737l-24 -126h-18q-71 0 -80 -67h78l-21 -111h-78l-80 -433h-133l80 433h-48l21 111h48q26 99 83.5 147t132.5 48q17 0 39 -2zM805 0h-179l-141 259l-48 -259h-133l137 739h133l-83 -446l225 261h159l-248 -271z" />
    <glyph glyph-name="f_f" unicode="ff" horiz-adv-x="562" 
d="M660 737l-24 -126h-18q-71 0 -80 -67h78l-21 -111h-78l-80 -433h-133l80 433h-144l-80 -433h-133l80 433h-48l21 111h48q26 99 83.5 147t132.5 48q17 0 39 -2l-24 -126h-18q-71 0 -80 -67h144q26 99 83.5 147t132.5 48q17 0 39 -2z" />
    <glyph glyph-name="f_i" unicode="fi" horiz-adv-x="520" 
d="M383 737l-24 -126h-18q-71 0 -80 -67h78l-21 -111h-78l-80 -433h-133l80 433h-48l21 111h48q26 99 83.5 147t132.5 48q17 0 39 -2zM540 554l-103 -554h-133l103 554h133zM579 766l-25 -132h-133l25 132h133z" />
    <glyph glyph-name="f_l" unicode="fl" horiz-adv-x="520" 
d="M383 737l-24 -126h-18q-71 0 -80 -67h78l-21 -111h-78l-80 -433h-133l80 433h-48l21 111h48q26 99 83.5 147t132.5 48q17 0 39 -2zM574 739l-137 -739h-133l137 739h133z" />
    <glyph glyph-name="f_f_i" unicode="ffi" horiz-adv-x="797" 
d="M660 737l-24 -126h-18q-71 0 -80 -67h78l-21 -111h-78l-80 -433h-133l80 433h-144l-80 -433h-133l80 433h-48l21 111h48q26 99 83.5 147t132.5 48q17 0 39 -2l-24 -126h-18q-71 0 -80 -67h144q26 99 83.5 147t132.5 48q17 0 39 -2zM817 554l-103 -554h-133l103 554h133z
M856 766l-25 -132h-133l25 132h133z" />
    <glyph glyph-name="f_f_l" unicode="ffl" horiz-adv-x="797" 
d="M660 737l-24 -126h-18q-71 0 -80 -67h78l-21 -111h-78l-80 -433h-133l80 433h-144l-80 -433h-133l80 433h-48l21 111h48q26 99 83.5 147t132.5 48q17 0 39 -2l-24 -126h-18q-71 0 -80 -67h144q26 99 83.5 147t132.5 48q17 0 39 -2zM851 739l-137 -739h-133l137 739h133z
" />
    <glyph glyph-name=".notdef" horiz-adv-x="280" 
 />
    <glyph glyph-name=".null" horiz-adv-x="0" 
 />
    <glyph glyph-name="nonmarkingreturn" horiz-adv-x="333" 
 />
    <glyph glyph-name="space" unicode=" " horiz-adv-x="280" 
 />
    <glyph glyph-name="exclam" unicode="!" horiz-adv-x="280" 
d="M210 188h-133l102 551h133zM199 128l-24 -128h-133l24 128h133z" />
    <glyph glyph-name="quotedbl" unicode="&#x22;" horiz-adv-x="360" 
d="M257 739l-42 -226h-76l42 226h76zM390 739l-42 -226h-76l42 226h76z" />
    <glyph glyph-name="numbersign" unicode="#" horiz-adv-x="560" 
d="M575 422h-103l-28 -89h88l-19 -100h-102l-75 -233h-91l76 233h-84l-75 -233h-91l75 233h-99l19 100h111l29 89h-95l18 100h109l70 217h91l-70 -217h84l70 217h89l-69 -217h90zM381 422h-84l-29 -89h85z" />
    <glyph glyph-name="dollar" unicode="$" horiz-adv-x="560" 
d="M515 308q0 -95 -50.5 -164.5t-139.5 -97.5l-24 -132h-127l24 132q-61 16 -94.5 59t-33.5 102q0 19 5 42h134q-2 -18 -2 -21q0 -27 20 -46t48 -19q42 0 72.5 30t30.5 72q0 29 -28 51q-17 13 -96 45q-100 40 -100 137q0 77 46 142.5t124 82.5l24 133h127l-24 -133
q44 -11 69 -50t25 -84q0 -14 -3 -38h-126q0 29 -13.5 45.5t-37.5 16.5q-31 0 -52.5 -23t-21.5 -55q0 -30 18 -46q13 -11 31.5 -20t86.5 -36q88 -35 88 -125z" />
    <glyph glyph-name="percent" unicode="%" horiz-adv-x="860" 
d="M738 739l-443 -739h-102l442 739h103zM838 201q0 -85 -67 -149.5t-154 -64.5q-62 0 -104.5 42t-42.5 104q0 85 66 150t152 65q64 0 107 -42t43 -105zM730 183q0 24 -18.5 41.5t-44.5 17.5q-35 0 -62 -26.5t-27 -61.5q0 -26 17.5 -43t43.5 -17q35 0 63 27.5t28 61.5z
M462 605q0 -84 -67 -149t-153 -65q-64 0 -106 42.5t-42 106.5q0 83 66.5 147.5t151.5 64.5q64 0 107 -42t43 -105zM354 585q0 26 -18 43.5t-45 17.5q-33 0 -61 -26.5t-28 -57.5q0 -29 17 -46.5t46 -17.5q34 0 61.5 27t27.5 60z" />
    <glyph glyph-name="ampersand" unicode="&#x26;" horiz-adv-x="680" 
d="M648 72l-111 -85l-84 111q-58 -63 -103.5 -87t-104.5 -24q-90 0 -147 53.5t-57 138.5q0 159 184 254q-25 34 -33 54t-8 47q0 86 67.5 152t155.5 66q70 0 115.5 -40t45.5 -101q0 -70 -32 -120t-121 -102l54 -76l93 120h149l-169 -220zM438 584q0 18 -14.5 30.5t-36.5 12.5
q-30 0 -52.5 -22.5t-22.5 -52.5q0 -29 37 -71l8 4q81 32 81 99zM379 198l-92 124q-63 -27 -87.5 -57.5t-24.5 -66.5t23 -57.5t62 -21.5q65 0 119 79z" />
    <glyph glyph-name="quotesingle" unicode="'" horiz-adv-x="220" 
d="M257 739l-42 -226h-76l42 226h76z" />
    <glyph glyph-name="parenleft" unicode="(" horiz-adv-x="380" 
d="M456 739l-27 -144q-96 -68 -148 -163t-52 -203q0 -68 25.5 -130t65.5 -91l-27 -145q-85 29 -143 126.5t-58 222.5q0 104 50 216.5t132 194.5q40 40 79.5 65t102.5 51z" />
    <glyph glyph-name="parenright" unicode=")" horiz-adv-x="380" 
d="M347 395q0 -168 -100 -316.5t-264 -215.5l27 144q95 67 147.5 164t52.5 205q0 65 -26 127.5t-66 90.5l27 145q88 -31 145 -128t57 -216z" />
    <glyph glyph-name="asterisk" unicode="*" horiz-adv-x="440" 
d="M460 591l-13 -70l-96 22l38 -91l-65 -27l-30 96l-60 -79l-58 42l70 80l-100 11l13 71l98 -23l-37 96l69 20l28 -93l60 77l54 -47l-69 -73z" />
    <glyph glyph-name="plus" unicode="+" horiz-adv-x="600" 
d="M569 181h-177v-177h-138v177h-177v138h177v177h138v-177h177v-138z" />
    <glyph glyph-name="comma" unicode="," horiz-adv-x="280" 
d="M175 -7q-11 -59 -53 -96t-94 -37h-11l12 67q70 9 72 73h-58l24 128h133z" />
    <glyph glyph-name="hyphen" unicode="-" horiz-adv-x="420" 
d="M391 347l-22 -118h-277l22 118h277z" />
    <glyph glyph-name="period" unicode="." horiz-adv-x="280" 
d="M200 128l-24 -128h-134l24 128h134z" />
    <glyph glyph-name="slash" unicode="/" horiz-adv-x="460" 
d="M550 739l-483 -867h-95l484 867h94z" />
    <glyph glyph-name="zero" unicode="0" horiz-adv-x="560" 
d="M587 505l-48 -258q-23 -124 -101 -192t-187 -68q-100 0 -156.5 52.5t-56.5 145.5q0 31 6 62l47 251q22 117 100.5 185.5t191.5 68.5q96 0 153 -50t57 -135q0 -31 -6 -62zM453 498q4 19 4 42q0 43 -25 66.5t-69 23.5q-53 0 -90.5 -35.5t-48.5 -96.5l-46 -247
q-4 -19 -4 -44q0 -98 97 -98q109 0 135 138z" />
    <glyph glyph-name="one" unicode="1" horiz-adv-x="560" 
d="M486 739l-137 -739h-133l114 614h-93l23 125h226z" />
    <glyph glyph-name="two" unicode="2" horiz-adv-x="560" 
d="M487 0h-475l22 117l306 249q59 48 85.5 88.5t26.5 83.5q0 41 -23 66.5t-61 25.5q-106 0 -143 -146h-131q14 64 28 96.5t40 63.5q43 52 102.5 80t124.5 28q89 0 144.5 -53t55.5 -138t-41 -149t-152 -150l-177 -137h291z" />
    <glyph glyph-name="three" unicode="3" horiz-adv-x="560" 
d="M535 286q0 -123 -88.5 -211t-212.5 -88q-93 0 -152 56t-59 141q0 14 3 40h134v-7q0 -50 26 -79t71 -29q58 0 99.5 46t41.5 100q0 44 -31.5 72.5t-90.5 28.5h-23l24 128q66 1 96.5 23.5t30.5 67.5q0 26 -13.5 40.5t-36.5 14.5q-58 0 -75 -67h-135q23 89 86.5 139t144.5 50
q75 0 120.5 -44t45.5 -117q0 -110 -89 -165q44 -25 63.5 -57.5t19.5 -82.5z" />
    <glyph glyph-name="four" unicode="4" horiz-adv-x="560" 
d="M543 229l-22 -118h-78l-21 -111h-133l21 111h-320l20 107l437 521h112l-94 -510h78zM332 229l53 286l-237 -286h184z" />
    <glyph glyph-name="five" unicode="5" horiz-adv-x="560" 
d="M540 298q0 -122 -91.5 -216.5t-214.5 -94.5q-90 0 -152 58.5t-62 137.5q0 13 3 38h133q0 -54 26 -83t74 -29q60 0 103.5 50.5t43.5 115.5q0 46 -27 74t-71 28q-56 0 -112 -56l-112 32l141 386h334l-23 -125h-234l-50 -136q60 21 101 21q87 0 138.5 -54.5t51.5 -146.5z
" />
    <glyph glyph-name="six" unicode="6" horiz-adv-x="560" 
d="M554 302q0 -121 -91 -218t-217 -97q-92 0 -153 57t-61 140q0 131 114 265l247 290h159l-226 -263q31 10 63 10q77 0 121 -51t44 -133zM417 267q0 46 -27.5 74t-72.5 28q-62 0 -105 -46.5t-43 -113.5q0 -46 27.5 -73t74.5 -27q59 0 102.5 47t43.5 111z" />
    <glyph glyph-name="seven" unicode="7" horiz-adv-x="560" 
d="M584 614l-380 -614h-149l388 614h-293l23 125h434z" />
    <glyph glyph-name="eight" unicode="8" horiz-adv-x="560" 
d="M537 274q0 -113 -88.5 -200t-204.5 -87q-93 0 -149 55.5t-56 147.5q0 67 37 128t104 93q-38 52 -38 102q0 93 75 166t171 73q72 0 118 -44t46 -113q0 -54 -22.5 -103.5t-67.5 -80.5q41 -26 58 -56.5t17 -80.5zM424 565q0 31 -16 48t-45 17q-36 0 -64.5 -30t-28.5 -68
q0 -26 18 -44.5t44 -18.5q36 0 64 29t28 67zM400 247q0 41 -25.5 67.5t-65.5 26.5q-52 0 -92.5 -42t-40.5 -96q0 -43 25.5 -68.5t66.5 -25.5q52 0 92 42t40 96z" />
    <glyph glyph-name="nine" unicode="9" horiz-adv-x="560" 
d="M598 554q0 -130 -114 -264l-247 -290h-159l227 263q-35 -12 -63 -12q-74 0 -119 51t-45 135q0 122 91 218.5t215 96.5q94 0 154 -56t60 -142zM461 530q0 45 -28 72.5t-73 27.5q-62 0 -103.5 -49.5t-41.5 -111.5q0 -44 27.5 -72.5t70.5 -28.5q62 0 105 47t43 115z" />
    <glyph glyph-name="colon" unicode=":" horiz-adv-x="280" 
d="M268 502l-24 -128h-134l24 128h134zM200 128l-24 -128h-134l24 128h134z" />
    <glyph glyph-name="semicolon" unicode=";" horiz-adv-x="280" 
d="M175 -7q-11 -59 -53 -96t-94 -37h-11l12 67q70 9 72 73h-58l24 128h133zM268 502l-24 -128h-134l24 128h134z" />
    <glyph glyph-name="less" unicode="&#x3c;" horiz-adv-x="600" 
d="M515 -142l-427 338v108l427 338v-176l-273 -216l273 -216v-176z" />
    <glyph glyph-name="equal" unicode="=" horiz-adv-x="600" 
d="M569 273h-492v138h492v-138zM569 89h-492v138h492v-138z" />
    <glyph glyph-name="greater" unicode="&#x3e;" horiz-adv-x="600" 
d="M515 196l-427 -338v176l273 216l-273 216v176l427 -338v-108z" />
    <glyph glyph-name="question" unicode="?" horiz-adv-x="560" 
d="M556 568q0 -73 -40 -131q-25 -35 -100 -93q-48 -38 -65.5 -67t-27.5 -90h-133q18 97 49.5 145.5t117.5 109.5q62 45 62 104q0 33 -22 53.5t-57 20.5q-79 0 -108 -100h-133q25 106 99.5 169t172.5 63q82 0 133.5 -51t51.5 -133zM289 0h-133l23 128h133z" />
    <glyph glyph-name="at" unicode="@" horiz-adv-x="740" 
d="M801 483q0 -141 -76 -235t-190 -94q-82 0 -90 54q-47 -54 -125 -54q-61 0 -97 37t-36 101q0 115 75 200t176 85q75 0 106 -58l17 54h97l-89 -295q-4 -16 -4 -25q0 -16 24 -16q51 0 97.5 75t46.5 164q0 99 -65.5 158t-175.5 59q-159 0 -274.5 -114.5t-115.5 -271.5
q0 -109 77 -178t201 -69q84 0 162 47l35 -60q-56 -34 -101.5 -47t-107.5 -13q-151 0 -242.5 87t-91.5 220q0 125 63.5 234t171.5 173.5t231 64.5q135 0 218 -74t83 -209zM498 398q0 32 -15.5 49.5t-44.5 17.5q-50 0 -88.5 -41.5t-38.5 -95.5q0 -32 17 -50t48 -18q48 0 85 42
t37 96z" />
    <glyph glyph-name="A" unicode="A" horiz-adv-x="740" 
d="M703 0h-151l-44 191h-263l-117 -191h-151l445 739h108zM478 323l-38 223l-120 -223h158z" />
    <glyph glyph-name="B" unicode="B" horiz-adv-x="580" 
d="M563 264q0 -115 -87 -189.5t-241 -74.5h-197l137 739h153q84 0 123 -7t68 -28q58 -43 58 -124q0 -126 -110 -177q52 -22 74 -54t22 -85zM423 241q0 42 -29.5 60.5t-94.5 18.5h-65l-35 -188h68q156 0 156 109zM437 549q0 58 -94 58h-56l-28 -153h44q134 0 134 95z" />
    <glyph glyph-name="C" unicode="C" horiz-adv-x="780" 
d="M828 527h-154q-29 50 -70.5 71.5t-105.5 21.5q-114 0 -205 -87.5t-91 -205.5q0 -91 58 -149.5t147 -58.5q54 0 99 19.5t101 67.5h161q-60 -100 -164.5 -159.5t-218.5 -59.5q-142 0 -232.5 89.5t-90.5 226.5q0 114 64.5 218t170.5 167.5t221 63.5q114 0 197 -57.5
t113 -167.5z" />
    <glyph glyph-name="D" unicode="D" horiz-adv-x="700" 
d="M704 452q0 -111 -52 -215t-137 -163q-57 -40 -127.5 -57t-177.5 -17h-172l137 739h169q191 0 275.5 -72t84.5 -215zM564 421q0 96 -55.5 141.5t-193.5 45.5h-27l-89 -477h30q92 0 150 19t100 62q85 88 85 209z" />
    <glyph glyph-name="E" unicode="E" horiz-adv-x="520" 
d="M548 607h-260l-33 -172h249l-24 -132h-249l-32 -171h260l-24 -132h-397l137 739h397z" />
    <glyph glyph-name="F" unicode="F" horiz-adv-x="480" 
d="M527 607h-239l-33 -172h228l-24 -132h-228l-56 -303h-137l137 739h376z" />
    <glyph glyph-name="G" unicode="G" horiz-adv-x="840" 
d="M858 377q-10 -100 -77 -190.5t-169.5 -145t-211.5 -54.5q-149 0 -244 88t-95 225q0 116 65.5 221t174 168t228.5 63t211 -67t108 -163h-161q-60 98 -180 98q-125 0 -215.5 -89.5t-90.5 -206.5q0 -90 59.5 -147.5t157.5 -57.5q72 0 135.5 34.5t104.5 95.5h-306l24 128h482
z" />
    <glyph glyph-name="H" unicode="H" horiz-adv-x="680" 
d="M713 739l-137 -739h-137l57 310h-264l-57 -310h-137l137 739h137l-55 -297h264l55 297h137z" />
    <glyph glyph-name="I" unicode="I" horiz-adv-x="280" 
d="M312 739l-137 -739h-137l137 739h137z" />
    <glyph glyph-name="J" unicode="J" horiz-adv-x="480" 
d="M521 739l-98 -527q-21 -109 -87 -167t-154 -58q-77 0 -125.5 43t-48.5 110q0 7 2 35h137l1 -7q7 -49 55 -49q66 0 84 97l97 523h137z" />
    <glyph glyph-name="K" unicode="K" horiz-adv-x="620" 
d="M706 739l-344 -363l207 -376h-164l-170 325l-60 -325h-137l137 739h137l-59 -319l289 319h164z" />
    <glyph glyph-name="L" unicode="L" horiz-adv-x="440" 
d="M402 0h-364l137 739h137l-113 -607h227z" />
    <glyph glyph-name="M" unicode="M" horiz-adv-x="900" 
d="M947 739l-137 -739h-137l103 554l-296 -554h-112l-90 554l-103 -554h-137l137 739h188l95 -560l301 560h188z" />
    <glyph glyph-name="N" unicode="N" horiz-adv-x="740" 
d="M774 739l-137 -739h-153l-209 537l-100 -537h-137l137 739h156l206 -538l100 538h137z" />
    <glyph glyph-name="O" unicode="O" horiz-adv-x="840" 
d="M845 439q0 -117 -63.5 -221.5t-170 -167.5t-225.5 -63q-142 0 -233.5 88t-91.5 225q0 118 67 223.5t175.5 167t225.5 61.5q138 0 227 -88t89 -225zM705 419q0 88 -57 144.5t-146 56.5q-117 0 -209 -90.5t-92 -206.5q0 -89 59 -146.5t150 -57.5q116 0 205.5 89.5
t89.5 210.5z" />
    <glyph glyph-name="P" unicode="P" horiz-adv-x="560" 
d="M609 562q0 -57 -24 -114.5t-64 -95.5q-46 -43 -95 -57t-155 -14h-44l-52 -281h-137l137 739h183q134 0 182 -34q69 -49 69 -143zM469 529q0 44 -26.5 61t-108.5 17h-46l-37 -195h40q86 0 132 27t46 90z" />
    <glyph glyph-name="Q" unicode="Q" horiz-adv-x="840" 
d="M818 110l-23 -124q-10 -1 -24 -1q-47 0 -79.5 12t-78.5 48q-106 -58 -218 -58q-144 0 -239 89t-95 223q0 118 65.5 223t174 167.5t230.5 62.5q146 0 237 -85t91 -222q0 -194 -140 -316q34 -22 69 -22q10 0 30 3zM514 138q-97 97 -219 97q-30 0 -73 -8q62 -108 196 -108
q47 0 96 19zM719 418q0 90 -59 146t-154 56q-117 0 -206.5 -81t-99.5 -205q49 13 123 13q173 0 301 -143q44 36 69.5 93t25.5 121z" />
    <glyph glyph-name="R" unicode="R" horiz-adv-x="580" 
d="M538 0h-169l-142 283l-52 -283h-137l137 739h213q239 0 239 -186q0 -104 -61.5 -178t-176.5 -102zM487 521q0 46 -29.5 66t-108.5 20h-61l-41 -221h67q91 0 132 37.5t41 97.5z" />
    <glyph glyph-name="S" unicode="S" horiz-adv-x="520" 
d="M508 265q0 -109 -86 -193.5t-196 -84.5q-93 0 -150 51.5t-57 132.5q0 8 2 40h143q-1 -8 -1 -21q0 -33 22.5 -52t62.5 -19q50 0 85 31.5t35 76.5q0 38 -22 57q-15 12 -32 20.5t-86 36.5q-121 48 -121 165q0 97 77.5 171.5t177.5 74.5q80 0 133.5 -46.5t53.5 -116.5
q0 -22 -4 -47h-141q0 44 -15.5 61t-50.5 17q-38 0 -64.5 -27t-26.5 -64q0 -29 30 -51q15 -11 76 -33q83 -31 119 -73t36 -107z" />
    <glyph glyph-name="T" unicode="T" horiz-adv-x="420" 
d="M501 607h-139l-113 -607h-137l113 607h-136l24 132h412z" />
    <glyph glyph-name="U" unicode="U" 
d="M588 271q-25 -136 -107.5 -210t-195.5 -74q-89 0 -147.5 53.5t-58.5 135.5q0 44 10 95l86 468h137l-86 -468q-9 -48 -9 -70q0 -34 27 -58t65 -24q113 0 142 152l86 468h137z" />
    <glyph glyph-name="V" unicode="V" horiz-adv-x="700" 
d="M801 739l-423 -739h-112l-151 739h144l95 -562l303 562h144z" />
    <glyph glyph-name="W" unicode="W" horiz-adv-x="900" 
d="M1005 739l-353 -739h-109l-28 489l-213 -489h-108l-80 739h140l34 -516l222 516h100l28 -516l227 516h140z" />
    <glyph glyph-name="X" unicode="X" horiz-adv-x="680" 
d="M783 739l-325 -371l188 -368h-159l-130 255l-219 -255h-163l322 368l-185 371h163l124 -258l225 258h159z" />
    <glyph glyph-name="Y" unicode="Y" horiz-adv-x="620" 
d="M733 739l-329 -466l-51 -273h-137l51 273l-157 466h148l100 -340l227 340h148z" />
    <glyph glyph-name="Z" unicode="Z" horiz-adv-x="500" 
d="M450 0h-462l21 117l372 490h-265l24 132h428l-23 -124l-368 -483h297z" />
    <glyph glyph-name="bracketleft" unicode="[" horiz-adv-x="320" 
d="M237 -137q-79 19 -123 75.5t-44 134.5q0 53 11 114l48 259q20 115 89.5 190.5t180.5 102.5l-27 -147q-51 -19 -74.5 -56t-38.5 -117l-48 -255q-5 -30 -5 -56q0 -40 12.5 -61t45.5 -37z" />
    <glyph glyph-name="backslash" unicode="\" 
d="M473 0h-96l-186 739h96z" />
    <glyph glyph-name="bracketright" unicode="]" horiz-adv-x="320" 
d="M257 156q-22 -118 -91.5 -193t-182.5 -100l27 147q52 17 76.5 54t40.5 119l48 255q5 30 5 56q0 41 -13 61.5t-49 36.5l27 147q81 -15 126 -72.5t45 -137.5q0 -53 -11 -114z" />
    <glyph glyph-name="asciicircum" unicode="^" horiz-adv-x="600" 
d="M580 358l-115 -33l-83 270l-184 -271l-98 55l245 371h121z" />
    <glyph glyph-name="underscore" unicode="_" horiz-adv-x="500" 
d="M445 -138h-501l16 90h501z" />
    <glyph glyph-name="grave" unicode="`" horiz-adv-x="420" 
d="M401 691l-73 -88l-200 116l84 99z" />
    <glyph glyph-name="a" unicode="a" horiz-adv-x="660" 
d="M586 0h-122l13 72q-89 -85 -200 -85q-105 0 -168.5 62t-63.5 164q0 145 102 249.5t243 104.5q116 0 163 -87l13 74h122zM514 313q0 61 -36 96.5t-98 35.5q-80 0 -139 -61.5t-59 -143.5q0 -60 36.5 -95.5t98.5 -35.5q83 0 140 58.5t57 145.5z" />
    <glyph glyph-name="b" unicode="b" horiz-adv-x="660" 
d="M665 343q0 -145 -99.5 -250.5t-226.5 -105.5q-63 0 -101.5 17.5t-78.5 66.5l-13 -71h-122l137 739h133l-44 -236q48 39 90 55t100 16q98 0 161.5 -65t63.5 -166zM528 314q0 63 -36 100.5t-97 37.5q-82 0 -140 -62t-58 -149q0 -59 37.5 -95.5t97.5 -36.5q80 0 138 60.5
t58 144.5z" />
    <glyph glyph-name="c" unicode="c" 
d="M640 369h-150q-23 76 -113 76q-79 0 -136 -59t-57 -141q0 -62 36 -99t95 -37q86 0 140 73h150q-53 -94 -133.5 -144.5t-177.5 -50.5q-106 0 -176.5 67.5t-70.5 168.5q0 136 106 240t244 104q95 0 160.5 -50.5t82.5 -147.5z" />
    <glyph glyph-name="d" unicode="d" horiz-adv-x="660" 
d="M720 739l-137 -739h-122l14 72q-91 -85 -199 -85q-104 0 -167 64t-63 169q0 141 102.5 247.5t237.5 106.5q51 0 93.5 -18.5t64.5 -50.5l43 234h133zM516 314q0 62 -36.5 100t-96.5 38q-81 0 -140.5 -60.5t-59.5 -143.5q0 -62 38.5 -100.5t99.5 -38.5q76 0 135.5 62.5
t59.5 142.5z" />
    <glyph glyph-name="e" unicode="e" 
d="M615 218h-429q0 -48 36.5 -78.5t93.5 -30.5q80 0 135 55h145q-45 -82 -125 -129.5t-174 -47.5q-111 0 -181 66t-70 170q0 136 106.5 240t245.5 104q104 0 170.5 -63t66.5 -162q0 -76 -20 -124zM511 336q-6 109 -134 109q-58 0 -106 -30t-67 -79h307z" />
    <glyph glyph-name="f" unicode="f" horiz-adv-x="280" 
d="M383 737l-24 -126h-18q-71 0 -80 -67h78l-21 -111h-78l-80 -433h-133l80 433h-48l21 111h48q26 99 83.5 147t132.5 48q17 0 39 -2z" />
    <glyph glyph-name="g" unicode="g" horiz-adv-x="660" 
d="M601 105q-60 -326 -349 -326q-204 0 -252 176h151q23 -32 52.5 -45.5t76.5 -13.5q73 0 118.5 42t69.5 135q-48 -46 -93 -66t-104 -20q-103 0 -164 62.5t-61 167.5q0 143 99.5 246.5t235.5 103.5q58 0 96.5 -19.5t66.5 -63.5l13 70h127zM504 315q0 59 -36 94.5t-95 35.5
q-83 0 -136.5 -60t-53.5 -152q0 -58 34 -91t94 -33q83 0 138 61t55 145z" />
    <glyph glyph-name="h" unicode="h" horiz-adv-x="600" 
d="M515 0h-133l52 283q9 48 9 81q0 39 -23 60.5t-64 21.5q-59 0 -94.5 -37t-52.5 -128l-52 -281h-133l137 739h133l-41 -223q62 52 149 52q82 0 131.5 -43.5t49.5 -116.5q0 -44 -10 -95z" />
    <glyph glyph-name="i" unicode="i" horiz-adv-x="240" 
d="M260 554l-103 -554h-133l103 554h133zM300 766l-25 -132h-133l25 132h133z" />
    <glyph glyph-name="j" unicode="j" horiz-adv-x="260" 
d="M278 554l-96 -517q-17 -103 -77 -161.5t-152 -60.5l24 129q38 7 50.5 24t22.5 72l95 514h133zM318 766l-25 -132h-133l25 132h133z" />
    <glyph glyph-name="k" unicode="k" horiz-adv-x="580" 
d="M525 0h-179l-141 259l-48 -259h-133l137 739h133l-83 -446l225 261h159l-248 -271z" />
    <glyph glyph-name="l" unicode="l" horiz-adv-x="240" 
d="M294 739l-137 -739h-133l137 739h133z" />
    <glyph glyph-name="m" unicode="m" horiz-adv-x="940" 
d="M855 0h-133l56 304q7 44 7 67q0 32 -23 53t-60 21q-59 0 -92.5 -36t-52.5 -136l-51 -273h-133l56 304q7 40 7 55q0 86 -88 86q-59 0 -90.5 -36.5t-49.5 -135.5l-51 -273h-133l103 554h122l-10 -52q65 65 158 65q109 0 145 -86q77 86 195 86q88 0 136.5 -43.5t48.5 -121.5
q0 -36 -8 -82z" />
    <glyph glyph-name="n" unicode="n" horiz-adv-x="600" 
d="M516 0h-133l50 271q9 49 9 92q0 82 -84 82q-59 0 -96 -38.5t-57 -145.5l-48 -261h-133l103 554h123l-10 -53q46 37 82.5 51.5t82.5 14.5q86 0 132 -42.5t46 -121.5q0 -40 -12 -106z" />
    <glyph glyph-name="o" unicode="o" 
d="M645 327q0 -134 -108 -237t-249 -103q-103 0 -172.5 67t-69.5 167q0 137 107 241.5t248 104.5q106 0 175 -68t69 -172zM508 309q0 59 -37 97.5t-93 38.5q-76 0 -135.5 -61t-59.5 -140q0 -58 37.5 -96.5t94.5 -38.5q75 0 134 61.5t59 138.5z" />
    <glyph glyph-name="p" unicode="p" horiz-adv-x="660" 
d="M661 344q0 -147 -98.5 -252t-237.5 -105q-99 0 -158 65l-44 -237h-133l137 739h122l-12 -65q35 37 87 57.5t108 20.5q101 0 165 -60.5t64 -162.5zM524 309q0 58 -35.5 97t-95.5 39q-79 0 -137.5 -61t-58.5 -143q0 -57 38.5 -94.5t97.5 -37.5q74 0 132.5 61.5t58.5 138.5z
" />
    <glyph glyph-name="q" unicode="q" horiz-adv-x="660" 
d="M684 554l-137 -739h-133l44 238q-75 -66 -182 -66q-102 0 -165.5 65.5t-63.5 170.5q0 136 102.5 240t236.5 104q120 0 162 -84l14 71h122zM510 307q0 62 -35.5 100t-94.5 38q-80 0 -138 -60t-58 -142q0 -62 35.5 -98t96.5 -36q77 0 135.5 59.5t58.5 138.5z" />
    <glyph glyph-name="r" unicode="r" horiz-adv-x="320" 
d="M382 567l-24 -128q-59 -1 -97.5 -36t-46.5 -95l-57 -308h-133l103 554h122l-10 -54q32 39 63 53.5t80 13.5z" />
    <glyph glyph-name="s" unicode="s" horiz-adv-x="440" 
d="M425 209q0 -88 -71.5 -155t-165.5 -67q-75 0 -122 41.5t-47 108.5q0 9 2 39h134q2 -67 62 -67q29 0 50 19t21 45q0 20 -15.5 31.5t-66.5 29.5q-73 25 -99.5 54t-26.5 82q0 80 65.5 138.5t154.5 58.5q61 0 106.5 -38t45.5 -90q0 -15 -3 -38h-130q-2 44 -44 44
q-23 0 -40.5 -16.5t-17.5 -38.5q0 -17 12 -25.5t70 -26.5q71 -23 98.5 -51t27.5 -78z" />
    <glyph glyph-name="t" unicode="t" horiz-adv-x="300" 
d="M360 554l-23 -121h-80l-80 -433h-133l80 433h-65l23 121h65l34 185h133l-34 -185h80z" />
    <glyph glyph-name="u" unicode="u" horiz-adv-x="600" 
d="M620 554l-103 -554h-123l10 53q-80 -66 -174 -66q-81 0 -126.5 46.5t-45.5 118.5q0 40 12 105l55 297h133l-50 -271q-11 -57 -10 -96q0 -37 22 -57.5t60 -20.5q66 0 102.5 37.5t56.5 146.5l48 261h133z" />
    <glyph glyph-name="v" unicode="v" horiz-adv-x="560" 
d="M626 554l-326 -554h-106l-120 554h148l60 -367l194 367h150z" />
    <glyph glyph-name="w" unicode="w" horiz-adv-x="800" 
d="M858 554l-303 -554h-83l-38 359l-174 -359h-82l-95 554h143l36 -338l156 338h106l28 -338l164 338h142z" />
    <glyph glyph-name="x" unicode="x" horiz-adv-x="560" 
d="M524 0h-160l-81 190l-152 -190h-160l250 286l-120 268h150l69 -167l129 167h150l-219 -268z" />
    <glyph glyph-name="y" unicode="y" horiz-adv-x="580" 
d="M641 554l-455 -739h-143l146 237l-110 502h152l56 -359l201 359h153z" />
    <glyph glyph-name="z" unicode="z" horiz-adv-x="460" 
d="M435 118l-22 -118h-423l22 118l305 318h-217l22 118h376l-22 -118l-304 -318h263z" />
    <glyph glyph-name="braceleft" unicode="{" horiz-adv-x="340" 
d="M409 739l-15 -80q-40 -5 -57 -14.5t-24 -33.5l-13 -54l-23 -123q-17 -109 -104 -126q-5 -1 -10 -3q38 -8 54.5 -27t16.5 -55q0 -27 -4 -46l-23 -123q-7 -37 -7 -42l-3 -18l3 -15q5 -22 63 -27l-15 -80q-14 -1 -32 -1q-66 0 -96.5 23t-30.5 72q0 21 5 44l29 157q4 28 4 34
q0 51 -63 64l15 81q46 10 67 32t28 66l29 157q13 73 54.5 106t120.5 33q17 0 31 -1z" />
    <glyph glyph-name="bar" unicode="|" horiz-adv-x="600" 
d="M392 -137h-138v876h138v-876z" />
    <glyph glyph-name="braceright" unicode="}" horiz-adv-x="340" 
d="M315 265q-42 -7 -65 -30.5t-31 -67.5l-29 -157q-14 -76 -55 -107.5t-119 -31.5q-18 0 -32 1l15 80l7 1q49 6 60 18.5t27 82.5l23 123q10 57 35 86.5t70 39.5q4 1 9 3q-39 10 -55 29t-16 56q0 24 4 43l23 123q9 49 10 56q0 23 -12.5 31.5t-53.5 14.5l15 80q15 1 33 1
q65 0 95.5 -23t30.5 -72q0 -9 -5 -44l-29 -157q-3 -16 -3 -33q0 -26 16.5 -43.5t46.5 -21.5z" />
    <glyph glyph-name="asciitilde" unicode="~" horiz-adv-x="600" 
d="M589 347q-50 -63 -88 -90t-77 -27q-34 0 -88 24l-50 22q-46 20 -60 20q-26 0 -51 -22q-10 -9 -51 -60l-49 75q54 70 89.5 96.5t82.5 26.5q33 0 72 -16l63 -27q7 -3 16 -7t13 -5.5t9 -4t7.5 -3t5.5 -1.5t5 -1h4.5h5.5q36 0 91 74z" />
    <glyph glyph-name="uni00A0" unicode="&#xa0;" horiz-adv-x="280" 
 />
    <glyph glyph-name="exclamdown" unicode="&#xa1;" horiz-adv-x="280" 
d="M144 -185h-133l102 551h133zM281 554l-24 -128h-133l24 128h133z" />
    <glyph glyph-name="cent" unicode="&#xa2;" horiz-adv-x="560" 
d="M539 310q-41 -69 -87 -106.5t-111 -55.5l-21 -109h-125l21 109q-67 15 -103.5 66t-36.5 119q0 97 63.5 175.5t161.5 102.5l20 104h125l-20 -104q61 -14 98 -60t39 -108h-142q-8 19 -32 32.5t-49 13.5q-52 0 -89.5 -39t-37.5 -92q0 -40 24.5 -64t65.5 -24q23 0 40.5 8
t49.5 32h146z" />
    <glyph glyph-name="sterling" unicode="&#xa3;" horiz-adv-x="560" 
d="M576 243q0 -38 -25 -87t-61 -83q-43 -40 -92 -56.5t-127 -16.5h-261l23 125h140q34 46 34 99q0 45 -38 86h-142l24 125h58q-6 19 -6 39q0 109 86.5 193.5t198.5 84.5q85 0 141.5 -51.5t56.5 -128.5q0 -3 -2 -31h-135q0 42 -23.5 65.5t-55.5 23.5q-51 0 -90.5 -43
t-39.5 -98q0 -30 12 -54h207l-24 -125h-107q15 -41 15 -76q0 -46 -29 -109h10q114 0 117 149h132q3 -21 3 -31z" />
    <glyph glyph-name="currency" unicode="&#xa4;" horiz-adv-x="560" 
d="M610 572l-50 -43q17 -44 17 -83q0 -50 -13 -86.5t-52 -87.5l34 -43l-92 -81l-37 42q-66 -37 -142 -37q-62 0 -120 37l-51 -42l-65 81l51 43q-18 39 -18 74q0 101 66 183l-35 45l95 80l37 -44q64 36 134 36q71 0 126 -36l53 44zM454 422q0 44 -30 73.5t-73 29.5
q-59 0 -107.5 -44t-48.5 -110q0 -39 31.5 -68.5t72.5 -29.5q61 0 108 45.5t47 103.5z" />
    <glyph glyph-name="yen" unicode="&#xa5;" horiz-adv-x="560" 
d="M696 739l-191 -272h95l-16 -87h-144l-76 -106h192l-16 -87h-192l-35 -187h-133l35 187h-194l16 87h194l-36 106h-144l16 87h97l-90 272h149l97 -341l222 341h154z" />
    <glyph glyph-name="brokenbar" unicode="&#xa6;" horiz-adv-x="600" 
d="M392 389h-138v350h138v-350zM392 -137h-138v350h138v-350z" />
    <glyph glyph-name="section" unicode="&#xa7;" horiz-adv-x="560" 
d="M560 321q0 -47 -23 -86.5t-82 -84.5q31 -34 31 -87q0 -88 -74.5 -154t-180.5 -66q-89 0 -141 48t-52 118q0 19 3 46h133q-4 -16 -4 -31q0 -25 25.5 -42t62.5 -17q41 0 70.5 22.5t29.5 54.5q0 16 -11.5 27t-50.5 34l-148 84q-41 23 -58.5 51.5t-17.5 71.5q0 115 110 183
q-14 28 -14 62q0 84 68 140.5t169 56.5q82 0 127.5 -42t45.5 -118q0 -17 -1 -29h-126q-3 38 -20 52.5t-57 14.5q-36 0 -57 -15.5t-21 -43.5q0 -32 49 -59l149 -81q66 -35 66 -110zM432 286q0 15 -10 25t-42 28l-135 74q-53 -34 -53 -59l1 -12q3 -26 50 -51l138 -76
q51 36 51 71z" />
    <glyph glyph-name="dieresis" unicode="&#xa8;" horiz-adv-x="500" 
d="M318 766l-25 -132h-133l25 132h133zM528 766l-25 -132h-133l25 132h133z" />
    <glyph glyph-name="copyright" unicode="&#xa9;" horiz-adv-x="740" 
d="M743 337q0 -145 -102.5 -247.5t-247.5 -102.5t-247.5 102.5t-102.5 247.5t102.5 247.5t247.5 102.5t247.5 -102.5t102.5 -247.5zM683 337q0 120 -85 205t-205 85t-205 -85t-85 -205t85 -205t205 -85t205 85t85 205zM619 407h-106q-29 47 -96 47q-59 0 -105.5 -40.5
t-45.5 -95.5q1 -43 31.5 -70.5t77.5 -27.5q52 0 108 45h108q-32 -60 -95.5 -97t-135.5 -37q-83 0 -136.5 48.5t-55.5 121.5q-2 93 79 167.5t184 74.5q71 0 122 -35t66 -101z" />
    <glyph glyph-name="ordfeminine" unicode="&#xaa;" horiz-adv-x="360" 
d="M450 741l-56 -298h-66l8 41q-48 -51 -112 -51q-52 0 -84 36.5t-32 90.5q0 76 56 134t127 58q55 0 85 -50l8 39h66zM352 613q0 28 -19.5 47t-47.5 19q-37 0 -67.5 -32t-30.5 -71q0 -30 18.5 -50t46.5 -20q40 0 70 32t30 75zM388 382l-13 -70h-315l13 70h315z" />
    <glyph glyph-name="guillemotleft" unicode="&#xab;" horiz-adv-x="460" 
d="M193 231l-23 -123l-115 131l19 100l163 130l-23 -123l-78 -57zM406 231l-23 -123l-115 131l19 100l163 130l-23 -123l-78 -57z" />
    <glyph glyph-name="logicalnot" unicode="&#xac;" horiz-adv-x="600" 
d="M569 158h-138v115h-354v138h492v-253z" />
    <glyph glyph-name="uni00AD" unicode="&#xad;" horiz-adv-x="420" 
d="M391 347l-22 -118h-277l22 118h277z" />
    <glyph glyph-name="registered" unicode="&#xae;" horiz-adv-x="740" 
d="M743 337q0 -145 -102.5 -247.5t-247.5 -102.5t-247.5 102.5t-102.5 247.5t102.5 247.5t247.5 102.5t247.5 -102.5t102.5 -247.5zM683 337q0 120 -85 205t-205 85t-205 -85t-85 -205t85 -205t205 -85t205 85t85 205zM567 433q1 -54 -31 -93.5t-93 -57.5l89 -144h-121
l-72 126l-23 -126h-96l74 399h129q140 0 144 -104zM469 412q0 20 -15.5 28t-54.5 8h-25l-17 -92h28q86 0 84 56z" />
    <glyph glyph-name="macron" unicode="&#xaf;" horiz-adv-x="420" 
d="M441 651h-279l17 99h280z" />
    <glyph glyph-name="degree" unicode="&#xb0;" horiz-adv-x="400" 
d="M432 536q0 -62 -44.5 -106t-108.5 -44q-63 0 -107.5 44t-44.5 107q0 62 45 105.5t110 43.5q62 0 106 -44t44 -106zM375 536q0 38 -28 65.5t-66 27.5q-40 0 -68.5 -27t-28.5 -65q0 -39 28 -66.5t67 -27.5q40 0 68 27.5t28 65.5z" />
    <glyph glyph-name="plusminus" unicode="&#xb1;" horiz-adv-x="600" 
d="M569 319h-177v-57h-138v57h-177v138h177v177h138v-177h177v-138zM569 0h-492v138h492v-138z" />
    <glyph glyph-name="two.superior" unicode="&#xb2;" horiz-adv-x="336" 
d="M349 296h-309l15 75l193 147q70 53 70 97q0 24 -14 37.5t-39 13.5q-64 0 -86 -85h-89q17 82 67.5 123.5t122.5 41.5q57 0 93.5 -32.5t36.5 -83.5q0 -95 -120 -179l-104 -73h178z" />
    <glyph glyph-name="three.superior" unicode="&#xb3;" horiz-adv-x="336" 
d="M383 465q0 -71 -58 -124t-137 -53q-59 0 -97.5 35t-38.5 88q0 3 2 25h91v-8q0 -27 16 -43.5t42 -16.5q35 0 61.5 24.5t26.5 56.5q0 30 -22 43t-76 13l16 84q84 0 84 48q0 29 -34 29q-35 0 -43 -39h-92q14 55 53.5 87t94.5 32q50 0 81.5 -28.5t31.5 -72.5q0 -57 -56 -94
q54 -28 54 -86z" />
    <glyph glyph-name="acute" unicode="&#xb4;" horiz-adv-x="420" 
d="M498 719l-243 -116l-40 88l236 127z" />
    <glyph glyph-name="mu" unicode="&#xb5;" horiz-adv-x="576" 
d="M620 554l-103 -554h-123l10 53q-58 -66 -126 -66q-69 0 -111 65l-44 -237h-133l137 739h133l-52 -278q-4 -20 -4 -37q0 -57 29.5 -93.5t75.5 -36.5q57 0 92 51q13 20 19 41.5t19 91.5l48 261h133z" />
    <glyph glyph-name="paragraph" unicode="&#xb6;" horiz-adv-x="600" 
d="M634 739l-161 -867h-102l141 760h-83l-141 -760h-101l85 458q-82 4 -125.5 45t-43.5 114q0 52 23 102t61 84q40 35 92.5 49.5t136.5 14.5h218z" />
    <glyph glyph-name="periodcentered" unicode="&#xb7;" horiz-adv-x="280" 
d="M227 250q0 -26 -19 -45t-45 -19t-45 19t-19 45t19 45t45 19t45 -19t19 -45z" />
    <glyph glyph-name="cedilla" unicode="&#xb8;" horiz-adv-x="340" 
d="M211 -152q-8 -44 -39.5 -71t-74.5 -27q-39 0 -61.5 23t-22.5 61h61q7 -29 32 -29q18 0 33.5 16.5t15.5 36.5q0 15 -9 25.5t-23 10.5q-19 0 -43 -27l-47 26l66 112h52l-42 -63q20 7 30 7q32 0 53 -23t21 -58q0 -6 -2 -20z" />
    <glyph glyph-name="one.superior" unicode="&#xb9;" horiz-adv-x="336" 
d="M266 296h-87l67 361h-67l15 82h154z" />
    <glyph glyph-name="ordmasculine" unicode="&#xba;" horiz-adv-x="360" 
d="M421 625q0 -71 -56 -126t-129 -55q-53 0 -90.5 36.5t-37.5 88.5q0 73 56.5 128t130.5 55q57 0 91.5 -35t34.5 -92zM347 612q0 30 -19 50t-47 20q-39 0 -69 -30.5t-30 -69.5q0 -29 19 -47t49 -18q38 0 67.5 29t29.5 66zM380 383l-13 -70h-307l13 70h307z" />
    <glyph glyph-name="guillemotright" unicode="&#xbb;" horiz-adv-x="460" 
d="M250 339l-19 -100l-163 -131l23 123l79 58l-58 57l23 123zM463 339l-19 -100l-163 -131l23 123l79 58l-58 57l23 123z" />
    <glyph glyph-name="onequarter" unicode="&#xbc;" horiz-adv-x="840" 
d="M815 65h-48l-12 -65h-91l12 65h-198l13 68l270 310h76l-56 -301h48zM690 142l28 152l-130 -152h102zM717 739l-443 -739h-95l443 739h95zM266 296h-87l67 361h-67l15 82h154z" />
    <glyph glyph-name="onehalf" unicode="&#xbd;" horiz-adv-x="840" 
d="M713 739l-443 -739h-95l443 739h95zM798 0h-309l15 75l193 147q70 53 70 97q0 24 -14 37.5t-39 13.5q-64 0 -86 -85h-89q17 82 67.5 123.5t122.5 41.5q57 0 93.5 -32.5t36.5 -83.5q0 -95 -120 -179l-104 -73h178zM271 296h-87l67 361h-67l15 82h154z" />
    <glyph glyph-name="threequarters" unicode="&#xbe;" horiz-adv-x="840" 
d="M815 65h-48l-12 -65h-91l12 65h-198l13 68l270 310h76l-56 -301h48zM690 142l28 152l-130 -152h102zM749 739l-443 -739h-95l443 739h95zM383 465q0 -71 -58 -124t-137 -53q-59 0 -97.5 35t-38.5 88q0 3 2 25h91v-8q0 -27 16 -43.5t42 -16.5q35 0 61.5 24.5t26.5 56.5
q0 30 -22 43t-76 13l16 84q84 0 84 48q0 29 -34 29q-35 0 -43 -39h-92q14 55 53.5 87t94.5 32q50 0 81.5 -28.5t31.5 -72.5q0 -57 -56 -94q54 -28 54 -86z" />
    <glyph glyph-name="questiondown" unicode="&#xbf;" horiz-adv-x="560" 
d="M504 34q-25 -106 -99.5 -169t-172.5 -63q-82 0 -133.5 51t-51.5 133q0 73 40 131q25 35 100 93q48 38 65.5 67t27.5 90h133q-18 -97 -49.5 -145.5t-117.5 -109.5q-62 -45 -62 -104q0 -33 22 -53.5t57 -20.5q79 0 108 100h133zM424 426h-133l23 128h133z" />
    <glyph glyph-name="Agrave" unicode="&#xc0;" horiz-adv-x="740" 
d="M703 0h-151l-44 191h-263l-117 -191h-151l445 739h108zM478 323l-38 223l-120 -223h158zM592 866l-73 -88l-200 116l84 99z" />
    <glyph glyph-name="Aacute" unicode="&#xc1;" horiz-adv-x="740" 
d="M703 0h-151l-44 191h-263l-117 -191h-151l445 739h108zM478 323l-38 223l-120 -223h158zM690 894l-243 -116l-40 88l236 127z" />
    <glyph glyph-name="Acircumflex" unicode="&#xc2;" horiz-adv-x="740" 
d="M703 0h-151l-44 191h-263l-117 -191h-151l445 739h108zM478 323l-38 223l-120 -223h158zM688 806h-145l-41 64l-66 -64h-147l173 138h107z" />
    <glyph glyph-name="Atilde" unicode="&#xc3;" horiz-adv-x="740" 
d="M703 0h-151l-44 191h-263l-117 -191h-151l445 739h108zM478 323l-38 223l-120 -223h158zM659 862q-45 -56 -108 -56q-7 0 -60 15.5t-61 15.5q-20 0 -55 -30l-38 85q20 21 47.5 34.5t49.5 13.5q13 0 56.5 -15.5t53.5 -15.5q21 0 34 5.5t47 29.5z" />
    <glyph glyph-name="Adieresis" unicode="&#xc4;" horiz-adv-x="740" 
d="M703 0h-151l-44 191h-263l-117 -191h-151l445 739h108zM478 323l-38 223l-120 -223h158zM469 941l-25 -132h-133l25 132h133zM679 941l-25 -132h-133l25 132h133z" />
    <glyph glyph-name="Aring" unicode="&#xc5;" horiz-adv-x="740" 
d="M703 0h-151l-44 191h-263l-117 -191h-151l445 739h108zM478 323l-38 223l-120 -223h158zM619 910q0 -54 -41.5 -94.5t-96.5 -40.5q-41 0 -67 25.5t-26 65.5q0 54 41.5 94.5t95.5 40.5q40 0 67 -26t27 -65zM544 895q0 13 -10 23t-23 10q-19 0 -33.5 -15t-14.5 -34
q0 -12 10 -21.5t24 -9.5q18 0 32.5 14.5t14.5 32.5z" />
    <glyph glyph-name="AE" unicode="&#xc6;" horiz-adv-x="900" 
d="M926 607h-218l-33 -172h207l-24 -132h-207l-32 -171h218l-24 -132h-355l35 191h-194l-148 -191h-164l624 739h339zM518 323l35 190l-150 -190h115z" />
    <glyph glyph-name="Ccedilla" unicode="&#xc7;" horiz-adv-x="780" 
d="M828 527h-154q-29 50 -70.5 71.5t-105.5 21.5q-114 0 -205 -87.5t-91 -205.5q0 -91 58 -149.5t147 -58.5q54 0 99 19.5t101 67.5h161q-57 -94 -154 -153t-205 -65l-30 -46q20 7 30 7q32 0 53 -23t21 -58q0 -6 -2 -20q-8 -44 -39.5 -71t-74.5 -27q-39 0 -61.5 23t-22.5 61
h61q7 -29 32 -29q18 0 33.5 16.5t15.5 36.5q0 15 -9 25.5t-23 10.5q-19 0 -43 -27l-47 26l56 95q-132 9 -214.5 97t-82.5 218q0 114 64.5 218t170.5 167.5t221 63.5q114 0 197 -57.5t113 -167.5z" />
    <glyph glyph-name="Egrave" unicode="&#xc8;" horiz-adv-x="520" 
d="M548 607h-260l-33 -172h249l-24 -132h-249l-32 -171h260l-24 -132h-397l137 739h397zM490 866l-73 -88l-200 116l84 99z" />
    <glyph glyph-name="Eacute" unicode="&#xc9;" horiz-adv-x="520" 
d="M548 607h-260l-33 -172h249l-24 -132h-249l-32 -171h260l-24 -132h-397l137 739h397zM588 894l-243 -116l-40 88l236 127z" />
    <glyph glyph-name="Ecircumflex" unicode="&#xca;" horiz-adv-x="520" 
d="M548 607h-260l-33 -172h249l-24 -132h-249l-32 -171h260l-24 -132h-397l137 739h397zM586 806h-145l-41 64l-66 -64h-147l173 138h107z" />
    <glyph glyph-name="Edieresis" unicode="&#xcb;" horiz-adv-x="520" 
d="M548 607h-260l-33 -172h249l-24 -132h-249l-32 -171h260l-24 -132h-397l137 739h397zM367 941l-25 -132h-133l25 132h133zM577 941l-25 -132h-133l25 132h133z" />
    <glyph glyph-name="Igrave" unicode="&#xcc;" horiz-adv-x="280" 
d="M312 739l-137 -739h-137l137 739h137zM392 866l-73 -88l-200 116l84 99z" />
    <glyph glyph-name="Iacute" unicode="&#xcd;" horiz-adv-x="280" 
d="M312 739l-137 -739h-137l137 739h137zM426 894l-243 -116l-40 88l236 127z" />
    <glyph glyph-name="Icircumflex" unicode="&#xce;" horiz-adv-x="280" 
d="M312 739l-137 -739h-137l137 739h137zM456 806h-145l-41 64l-66 -64h-147l173 138h107z" />
    <glyph glyph-name="Idieresis" unicode="&#xcf;" horiz-adv-x="280" 
d="M312 739l-137 -739h-137l137 739h137zM237 941l-25 -132h-133l25 132h133zM447 941l-25 -132h-133l25 132h133z" />
    <glyph glyph-name="Eth" unicode="&#xd0;" horiz-adv-x="742" 
d="M746 456q0 -117 -51 -219t-140 -163q-59 -40 -129 -57t-176 -17h-172l59 321h-94l20 107h94l58 311h169q193 0 277.5 -72t84.5 -211zM606 424q0 94 -57 139t-195 45h-27l-33 -180h149l-20 -107h-149l-35 -190h30q92 0 151.5 19t100.5 62q39 40 62 97t23 115z" />
    <glyph glyph-name="Ntilde" unicode="&#xd1;" horiz-adv-x="740" 
d="M774 739l-137 -739h-153l-209 537l-100 -537h-137l137 739h156l206 -538l100 538h137zM658 862q-45 -56 -108 -56q-7 0 -60 15.5t-61 15.5q-20 0 -55 -30l-38 85q20 21 47.5 34.5t49.5 13.5q13 0 57 -15.5t53 -15.5q21 0 34 5.5t47 29.5z" />
    <glyph glyph-name="Ograve" unicode="&#xd2;" horiz-adv-x="840" 
d="M845 439q0 -117 -63.5 -221.5t-170 -167.5t-225.5 -63q-142 0 -233.5 88t-91.5 225q0 118 67 223.5t175.5 167t225.5 61.5q138 0 227 -88t89 -225zM705 419q0 88 -57 144.5t-146 56.5q-117 0 -209 -90.5t-92 -206.5q0 -89 59 -146.5t150 -57.5q116 0 205.5 89.5
t89.5 210.5zM643 866l-73 -88l-200 116l84 99z" />
    <glyph glyph-name="Oacute" unicode="&#xd3;" horiz-adv-x="840" 
d="M845 439q0 -117 -63.5 -221.5t-170 -167.5t-225.5 -63q-142 0 -233.5 88t-91.5 225q0 118 67 223.5t175.5 167t225.5 61.5q138 0 227 -88t89 -225zM705 419q0 88 -57 144.5t-146 56.5q-117 0 -209 -90.5t-92 -206.5q0 -89 59 -146.5t150 -57.5q116 0 205.5 89.5
t89.5 210.5zM741 894l-243 -116l-40 88l236 127z" />
    <glyph glyph-name="Ocircumflex" unicode="&#xd4;" horiz-adv-x="840" 
d="M845 439q0 -117 -63.5 -221.5t-170 -167.5t-225.5 -63q-142 0 -233.5 88t-91.5 225q0 118 67 223.5t175.5 167t225.5 61.5q138 0 227 -88t89 -225zM705 419q0 88 -57 144.5t-146 56.5q-117 0 -209 -90.5t-92 -206.5q0 -89 59 -146.5t150 -57.5q116 0 205.5 89.5
t89.5 210.5zM739 806h-145l-41 64l-66 -64h-147l173 138h107z" />
    <glyph glyph-name="Otilde" unicode="&#xd5;" horiz-adv-x="840" 
d="M845 439q0 -117 -63.5 -221.5t-170 -167.5t-225.5 -63q-142 0 -233.5 88t-91.5 225q0 118 67 223.5t175.5 167t225.5 61.5q138 0 227 -88t89 -225zM705 419q0 88 -57 144.5t-146 56.5q-117 0 -209 -90.5t-92 -206.5q0 -89 59 -146.5t150 -57.5q116 0 205.5 89.5
t89.5 210.5zM710 862q-45 -56 -108 -56q-7 0 -60 15.5t-61 15.5q-20 0 -55 -30l-38 85q20 21 47.5 34.5t49.5 13.5q13 0 57 -15.5t53 -15.5q21 0 34 5.5t47 29.5z" />
    <glyph glyph-name="Odieresis" unicode="&#xd6;" horiz-adv-x="840" 
d="M845 439q0 -117 -63.5 -221.5t-170 -167.5t-225.5 -63q-142 0 -233.5 88t-91.5 225q0 118 67 223.5t175.5 167t225.5 61.5q138 0 227 -88t89 -225zM705 419q0 88 -57 144.5t-146 56.5q-117 0 -209 -90.5t-92 -206.5q0 -89 59 -146.5t150 -57.5q116 0 205.5 89.5
t89.5 210.5zM520 941l-25 -132h-133l25 132h133zM730 941l-25 -132h-133l25 132h133z" />
    <glyph glyph-name="multiply" unicode="&#xd7;" horiz-adv-x="600" 
d="M546 125l-98 -98l-125 125l-125 -125l-98 98l125 125l-125 125l98 98l125 -125l125 125l98 -98l-125 -125z" />
    <glyph glyph-name="Oslash" unicode="&#xd8;" horiz-adv-x="840" 
d="M851 438q0 -110 -62.5 -214.5t-169.5 -170.5t-226 -66q-82 0 -164 36l-88 -103l-80 69l83 98q-78 91 -78 210q0 117 64.5 222.5t171 169t224.5 63.5q81 0 158 -33l92 107l81 -69l-88 -102q82 -79 82 -217zM587 606q-41 14 -83 14q-117 0 -207.5 -90.5t-90.5 -207.5
q0 -56 36 -121zM711 415q0 78 -38 127l-348 -406q43 -17 89 -17q119 0 208 89t89 207z" />
    <glyph glyph-name="Ugrave" unicode="&#xd9;" 
d="M588 271q-25 -136 -107.5 -210t-195.5 -74q-89 0 -147.5 53.5t-58.5 135.5q0 44 10 95l86 468h137l-86 -468q-9 -48 -9 -70q0 -34 27 -58t65 -24q113 0 142 152l86 468h137zM541 866l-73 -88l-200 116l84 99z" />
    <glyph glyph-name="Uacute" unicode="&#xda;" 
d="M588 271q-25 -136 -107.5 -210t-195.5 -74q-89 0 -147.5 53.5t-58.5 135.5q0 44 10 95l86 468h137l-86 -468q-9 -48 -9 -70q0 -34 27 -58t65 -24q113 0 142 152l86 468h137zM639 894l-243 -116l-40 88l236 127z" />
    <glyph glyph-name="Ucircumflex" unicode="&#xdb;" 
d="M588 271q-25 -136 -107.5 -210t-195.5 -74q-89 0 -147.5 53.5t-58.5 135.5q0 44 10 95l86 468h137l-86 -468q-9 -48 -9 -70q0 -34 27 -58t65 -24q113 0 142 152l86 468h137zM637 806h-145l-41 64l-66 -64h-147l173 138h107z" />
    <glyph glyph-name="Udieresis" unicode="&#xdc;" 
d="M588 271q-25 -136 -107.5 -210t-195.5 -74q-89 0 -147.5 53.5t-58.5 135.5q0 44 10 95l86 468h137l-86 -468q-9 -48 -9 -70q0 -34 27 -58t65 -24q113 0 142 152l86 468h137zM418 941l-25 -132h-133l25 132h133zM628 941l-25 -132h-133l25 132h133z" />
    <glyph glyph-name="Yacute" unicode="&#xdd;" horiz-adv-x="620" 
d="M733 739l-329 -466l-51 -273h-137l51 273l-157 466h148l100 -340l227 340h148zM636 894l-243 -116l-40 88l236 127z" />
    <glyph glyph-name="Thorn" unicode="&#xde;" horiz-adv-x="560" 
d="M583 422q0 -57 -24 -114.5t-64 -95.5q-46 -43 -95 -57t-155 -14h-44l-26 -141h-137l137 739h137l-26 -140h46q134 0 182 -34q69 -49 69 -143zM443 389q0 44 -26.5 61t-108.5 17h-46l-37 -195h40q86 0 132 27t46 90z" />
    <glyph glyph-name="germandbls" unicode="&#xdf;" horiz-adv-x="600" 
d="M598 260q0 -112 -83.5 -192.5t-195.5 -80.5q-126 0 -161 92l-15 -79h-122l90 487q22 121 94 193t177 72q81 0 132 -46.5t51 -120.5q0 -123 -104 -176q137 -36 137 -149zM461 226q0 48 -34 68.5t-133 20.5h-11l22 118h11q46 0 79 38.5t33 91.5q0 31 -19 49t-51 18
q-87 0 -111 -127l-58 -314h82q11 -80 80 -80q44 0 77 35t33 82z" />
    <glyph glyph-name="agrave" unicode="&#xe0;" horiz-adv-x="660" 
d="M586 0h-122l13 72q-89 -85 -200 -85q-105 0 -168.5 62t-63.5 164q0 145 102 249.5t243 104.5q116 0 163 -87l13 74h122zM514 313q0 61 -36 96.5t-98 35.5q-80 0 -139 -61.5t-59 -143.5q0 -60 36.5 -95.5t98.5 -35.5q83 0 140 58.5t57 145.5zM506 691l-73 -88l-200 116
l84 99z" />
    <glyph glyph-name="aacute" unicode="&#xe1;" horiz-adv-x="660" 
d="M586 0h-122l13 72q-89 -85 -200 -85q-105 0 -168.5 62t-63.5 164q0 145 102 249.5t243 104.5q116 0 163 -87l13 74h122zM514 313q0 61 -36 96.5t-98 35.5q-80 0 -139 -61.5t-59 -143.5q0 -60 36.5 -95.5t98.5 -35.5q83 0 140 58.5t57 145.5zM603 719l-243 -116l-40 88
l236 127z" />
    <glyph glyph-name="acircumflex" unicode="&#xe2;" horiz-adv-x="660" 
d="M586 0h-122l13 72q-89 -85 -200 -85q-105 0 -168.5 62t-63.5 164q0 145 102 249.5t243 104.5q116 0 163 -87l13 74h122zM514 313q0 61 -36 96.5t-98 35.5q-80 0 -139 -61.5t-59 -143.5q0 -60 36.5 -95.5t98.5 -35.5q83 0 140 58.5t57 145.5zM601 631h-145l-41 64l-66 -64
h-147l173 138h107z" />
    <glyph glyph-name="atilde" unicode="&#xe3;" horiz-adv-x="660" 
d="M586 0h-122l13 72q-89 -85 -200 -85q-105 0 -168.5 62t-63.5 164q0 145 102 249.5t243 104.5q116 0 163 -87l13 74h122zM514 313q0 61 -36 96.5t-98 35.5q-80 0 -139 -61.5t-59 -143.5q0 -60 36.5 -95.5t98.5 -35.5q83 0 140 58.5t57 145.5zM573 687q-45 -56 -108 -56
q-7 0 -60 15.5t-61 15.5q-20 0 -55 -30l-38 85q20 21 47.5 34.5t49.5 13.5q12 0 56 -15.5t54 -15.5q21 0 34 5.5t47 29.5z" />
    <glyph glyph-name="adieresis" unicode="&#xe4;" horiz-adv-x="660" 
d="M586 0h-122l13 72q-89 -85 -200 -85q-105 0 -168.5 62t-63.5 164q0 145 102 249.5t243 104.5q116 0 163 -87l13 74h122zM514 313q0 61 -36 96.5t-98 35.5q-80 0 -139 -61.5t-59 -143.5q0 -60 36.5 -95.5t98.5 -35.5q83 0 140 58.5t57 145.5zM383 766l-25 -132h-133
l25 132h133zM593 766l-25 -132h-133l25 132h133z" />
    <glyph glyph-name="aring" unicode="&#xe5;" horiz-adv-x="660" 
d="M586 0h-122l13 72q-89 -85 -200 -85q-105 0 -168.5 62t-63.5 164q0 145 102 249.5t243 104.5q116 0 163 -87l13 74h122zM514 313q0 61 -36 96.5t-98 35.5q-80 0 -139 -61.5t-59 -143.5q0 -60 36.5 -95.5t98.5 -35.5q83 0 140 58.5t57 145.5zM532 732q0 -54 -41.5 -94.5
t-95.5 -40.5q-41 0 -67.5 25.5t-26.5 65.5q0 54 41.5 94.5t96.5 40.5q39 0 66 -26t27 -65zM457 717q0 13 -10 23t-23 10q-19 0 -33.5 -15t-14.5 -34q0 -12 10 -21.5t24 -9.5q18 0 32.5 14.5t14.5 32.5z" />
    <glyph glyph-name="ae" unicode="&#xe6;" horiz-adv-x="1080" 
d="M1078 342q0 -58 -27 -123h-428q6 -50 42.5 -80t92.5 -30q74 0 128 55h145q-44 -80 -123 -128.5t-165 -48.5q-55 0 -92 16t-64 57l-12 -60h-122l12 60q-44 -41 -82.5 -57t-94.5 -16q-108 0 -175 63.5t-67 165.5q0 140 103.5 245.5t240.5 105.5q55 0 91 -16t65 -52l10 55
h122l-10 -55q76 68 184 68q97 0 161.5 -64t64.5 -161zM504 312q0 61 -38 97t-91 36q-79 0 -135.5 -60.5t-56.5 -144.5q0 -59 35.5 -95t94.5 -36q77 0 134 60.5t57 142.5zM942 337q-11 62 -42 85t-88 23q-118 0 -174 -108h304z" />
    <glyph glyph-name="ccedilla" unicode="&#xe7;" 
d="M640 369h-150q-23 76 -113 76q-79 0 -136 -59t-57 -141q0 -62 36 -99t95 -37q86 0 140 73h150q-49 -88 -122.5 -137.5t-162.5 -56.5l-31 -46q20 7 30 7q32 0 53 -23t21 -58q0 -6 -2 -20q-8 -44 -39.5 -71t-74.5 -27q-39 0 -61.5 23t-22.5 61h61q7 -29 32 -29
q18 0 33.5 16.5t15.5 36.5q0 15 -9 25.5t-23 10.5q-19 0 -43 -27l-47 26l56 95q-97 8 -159.5 74t-62.5 161q0 136 106 240t244 104q95 0 160.5 -50.5t82.5 -147.5z" />
    <glyph glyph-name="egrave" unicode="&#xe8;" 
d="M615 218h-429q0 -48 36.5 -78.5t93.5 -30.5q80 0 135 55h145q-45 -82 -125 -129.5t-174 -47.5q-111 0 -181 66t-70 170q0 136 106.5 240t245.5 104q104 0 170.5 -63t66.5 -162q0 -76 -20 -124zM511 336q-6 109 -134 109q-58 0 -106 -30t-67 -79h307zM514 691l-73 -88
l-200 116l84 99z" />
    <glyph glyph-name="eacute" unicode="&#xe9;" 
d="M615 218h-429q0 -48 36.5 -78.5t93.5 -30.5q80 0 135 55h145q-45 -82 -125 -129.5t-174 -47.5q-111 0 -181 66t-70 170q0 136 106.5 240t245.5 104q104 0 170.5 -63t66.5 -162q0 -76 -20 -124zM511 336q-6 109 -134 109q-58 0 -106 -30t-67 -79h307zM611 719l-243 -116
l-40 88l236 127z" />
    <glyph glyph-name="ecircumflex" unicode="&#xea;" 
d="M615 218h-429q0 -48 36.5 -78.5t93.5 -30.5q80 0 135 55h145q-45 -82 -125 -129.5t-174 -47.5q-111 0 -181 66t-70 170q0 136 106.5 240t245.5 104q104 0 170.5 -63t66.5 -162q0 -76 -20 -124zM511 336q-6 109 -134 109q-58 0 -106 -30t-67 -79h307zM609 631h-145l-41 64
l-66 -64h-147l173 138h107z" />
    <glyph glyph-name="edieresis" unicode="&#xeb;" 
d="M615 218h-429q0 -48 36.5 -78.5t93.5 -30.5q80 0 135 55h145q-45 -82 -125 -129.5t-174 -47.5q-111 0 -181 66t-70 170q0 136 106.5 240t245.5 104q104 0 170.5 -63t66.5 -162q0 -76 -20 -124zM511 336q-6 109 -134 109q-58 0 -106 -30t-67 -79h307zM391 766l-25 -132
h-133l25 132h133zM601 766l-25 -132h-133l25 132h133z" />
    <glyph glyph-name="igrave" unicode="&#xec;" horiz-adv-x="240" 
d="M260 554l-103 -554h-133l103 554h133zM342 691l-73 -88l-200 116l84 99z" />
    <glyph glyph-name="iacute" unicode="&#xed;" horiz-adv-x="240" 
d="M260 554l-103 -554h-133l103 554h133zM378 719l-243 -116l-40 88l236 127z" />
    <glyph glyph-name="icircumflex" unicode="&#xee;" horiz-adv-x="240" 
d="M260 554l-103 -554h-133l103 554h133zM407 631h-145l-41 64l-66 -64h-147l173 138h107z" />
    <glyph glyph-name="idieresis" unicode="&#xef;" horiz-adv-x="240" 
d="M260 554l-103 -554h-133l103 554h133zM189 766l-25 -132h-133l25 132h133zM399 766l-25 -132h-133l25 132h133z" />
    <glyph glyph-name="eth" unicode="&#xf0;" 
d="M650 343q0 -141 -107.5 -248.5t-248.5 -107.5q-109 0 -178.5 68t-69.5 174q0 128 102 227.5t232 99.5q27 0 70 -16q-41 49 -75 78l-85 -33l-34 48l75 30l-16 15l-40 31l93 48q43 -32 67 -55l92 37l42 -44l-87 -36q81 -70 124.5 -151.5t43.5 -164.5zM513 309
q0 59 -37.5 97.5t-94.5 38.5q-78 0 -138 -61t-60 -141q0 -58 38.5 -96t96.5 -38q76 0 135.5 61.5t59.5 138.5z" />
    <glyph glyph-name="ntilde" unicode="&#xf1;" horiz-adv-x="600" 
d="M516 0h-133l50 271q9 49 9 92q0 82 -84 82q-59 0 -96 -38.5t-57 -145.5l-48 -261h-133l103 554h123l-10 -53q46 37 82.5 51.5t82.5 14.5q86 0 132 -42.5t46 -121.5q0 -40 -12 -106zM558 687q-45 -56 -108 -56q-7 0 -60 15.5t-61 15.5q-20 0 -55 -30l-38 85
q20 21 47.5 34.5t49.5 13.5q13 0 57 -15.5t53 -15.5q21 0 34 5.5t47 29.5z" />
    <glyph glyph-name="ograve" unicode="&#xf2;" 
d="M645 327q0 -134 -108 -237t-249 -103q-103 0 -172.5 67t-69.5 167q0 137 107 241.5t248 104.5q106 0 175 -68t69 -172zM508 309q0 59 -37 97.5t-93 38.5q-76 0 -135.5 -61t-59.5 -140q0 -58 37.5 -96.5t94.5 -38.5q75 0 134 61.5t59 138.5zM517 691l-73 -88l-200 116
l84 99z" />
    <glyph glyph-name="oacute" unicode="&#xf3;" 
d="M645 327q0 -134 -108 -237t-249 -103q-103 0 -172.5 67t-69.5 167q0 137 107 241.5t248 104.5q106 0 175 -68t69 -172zM508 309q0 59 -37 97.5t-93 38.5q-76 0 -135.5 -61t-59.5 -140q0 -58 37.5 -96.5t94.5 -38.5q75 0 134 61.5t59 138.5zM614 719l-243 -116l-40 88
l236 127z" />
    <glyph glyph-name="ocircumflex" unicode="&#xf4;" 
d="M645 327q0 -134 -108 -237t-249 -103q-103 0 -172.5 67t-69.5 167q0 137 107 241.5t248 104.5q106 0 175 -68t69 -172zM508 309q0 59 -37 97.5t-93 38.5q-76 0 -135.5 -61t-59.5 -140q0 -58 37.5 -96.5t94.5 -38.5q75 0 134 61.5t59 138.5zM612 631h-145l-41 64l-66 -64
h-147l173 138h107z" />
    <glyph glyph-name="otilde" unicode="&#xf5;" 
d="M645 327q0 -134 -108 -237t-249 -103q-103 0 -172.5 67t-69.5 167q0 137 107 241.5t248 104.5q106 0 175 -68t69 -172zM508 309q0 59 -37 97.5t-93 38.5q-76 0 -135.5 -61t-59.5 -140q0 -58 37.5 -96.5t94.5 -38.5q75 0 134 61.5t59 138.5zM584 687q-45 -56 -108 -56
q-7 0 -60 15.5t-61 15.5q-20 0 -55 -30l-38 85q20 21 47.5 34.5t49.5 13.5q13 0 57 -15.5t53 -15.5q21 0 34 5.5t47 29.5z" />
    <glyph glyph-name="odieresis" unicode="&#xf6;" 
d="M645 327q0 -134 -108 -237t-249 -103q-103 0 -172.5 67t-69.5 167q0 137 107 241.5t248 104.5q106 0 175 -68t69 -172zM508 309q0 59 -37 97.5t-93 38.5q-76 0 -135.5 -61t-59.5 -140q0 -58 37.5 -96.5t94.5 -38.5q75 0 134 61.5t59 138.5zM394 766l-25 -132h-133l25 132
h133zM604 766l-25 -132h-133l25 132h133z" />
    <glyph glyph-name="divide" unicode="&#xf7;" horiz-adv-x="600" 
d="M569 181h-492v138h492v-138zM387 435q0 -27 -19 -45.5t-45 -18.5t-45 18.5t-19 45.5q0 26 19 45t45 19t45 -19t19 -45zM387 65q0 -26 -19 -45t-45 -19t-45 19t-19 45q0 27 19 45.5t45 18.5t45 -18.5t19 -45.5z" />
    <glyph glyph-name="oslash" unicode="&#xf8;" horiz-adv-x="660" 
d="M648 328q0 -132 -108 -236.5t-244 -104.5q-58 0 -114 24l-63 -75l-73 62l60 70q-57 71 -57 153q0 137 107 241.5t247 104.5q59 0 109 -23l65 76l73 -62l-60 -71q58 -69 58 -159zM511 308q0 46 -16 69l-222 -261q19 -7 41 -7q77 0 137 60.5t60 138.5zM423 438q-28 7 -45 7
q-74 0 -133 -62t-59 -140q0 -32 14 -65z" />
    <glyph glyph-name="ugrave" unicode="&#xf9;" horiz-adv-x="600" 
d="M620 554l-103 -554h-123l10 53q-80 -66 -174 -66q-81 0 -126.5 46.5t-45.5 118.5q0 40 12 105l55 297h133l-50 -271q-11 -57 -10 -96q0 -37 22 -57.5t60 -20.5q66 0 102.5 37.5t56.5 146.5l48 261h133zM491 691l-73 -88l-200 116l84 99z" />
    <glyph glyph-name="uacute" unicode="&#xfa;" horiz-adv-x="600" 
d="M620 554l-103 -554h-123l10 53q-80 -66 -174 -66q-81 0 -126.5 46.5t-45.5 118.5q0 40 12 105l55 297h133l-50 -271q-11 -57 -10 -96q0 -37 22 -57.5t60 -20.5q66 0 102.5 37.5t56.5 146.5l48 261h133zM588 719l-243 -116l-40 88l236 127z" />
    <glyph glyph-name="ucircumflex" unicode="&#xfb;" horiz-adv-x="600" 
d="M620 554l-103 -554h-123l10 53q-80 -66 -174 -66q-81 0 -126.5 46.5t-45.5 118.5q0 40 12 105l55 297h133l-50 -271q-11 -57 -10 -96q0 -37 22 -57.5t60 -20.5q66 0 102.5 37.5t56.5 146.5l48 261h133zM586 631h-145l-41 64l-66 -64h-147l173 138h107z" />
    <glyph glyph-name="udieresis" unicode="&#xfc;" horiz-adv-x="600" 
d="M620 554l-103 -554h-123l10 53q-80 -66 -174 -66q-81 0 -126.5 46.5t-45.5 118.5q0 40 12 105l55 297h133l-50 -271q-11 -57 -10 -96q0 -37 22 -57.5t60 -20.5q66 0 102.5 37.5t56.5 146.5l48 261h133zM368 766l-25 -132h-133l25 132h133zM578 766l-25 -132h-133l25 132
h133z" />
    <glyph glyph-name="yacute" unicode="&#xfd;" horiz-adv-x="580" 
d="M641 554l-455 -739h-143l146 237l-110 502h152l56 -359l201 359h153zM575 719l-243 -116l-40 88l236 127z" />
    <glyph glyph-name="thorn" unicode="&#xfe;" horiz-adv-x="660" 
d="M661 344q0 -147 -98.5 -252t-237.5 -105q-99 0 -158 65l-44 -237h-133l171 924h122l-46 -250q35 37 87 57.5t108 20.5q101 0 165 -60.5t64 -162.5zM524 309q0 58 -35.5 97t-95.5 39q-79 0 -137.5 -61t-58.5 -143q0 -57 38.5 -94.5t97.5 -37.5q74 0 132.5 61.5t58.5 138.5
z" />
    <glyph glyph-name="ydieresis" unicode="&#xff;" horiz-adv-x="580" 
d="M641 554l-455 -739h-143l146 237l-110 502h152l56 -359l201 359h153zM355 766l-25 -132h-133l25 132h133zM565 766l-25 -132h-133l25 132h133z" />
    <glyph glyph-name="Amacron" unicode="&#x100;" horiz-adv-x="740" 
d="M703 0h-151l-44 191h-263l-117 -191h-151l445 739h108zM478 323l-38 223l-120 -223h158zM632 826h-279l17 99h280z" />
    <glyph glyph-name="amacron" unicode="&#x101;" horiz-adv-x="660" 
d="M586 0h-122l13 72q-89 -85 -200 -85q-105 0 -168.5 62t-63.5 164q0 145 102 249.5t243 104.5q116 0 163 -87l13 74h122zM514 313q0 61 -36 96.5t-98 35.5q-80 0 -139 -61.5t-59 -143.5q0 -60 36.5 -95.5t98.5 -35.5q83 0 140 58.5t57 145.5zM546 651h-279l17 99h280z" />
    <glyph glyph-name="Abreve" unicode="&#x102;" horiz-adv-x="740" 
d="M703 0h-151l-44 191h-263l-117 -191h-151l445 739h108zM478 323l-38 223l-120 -223h158zM678 943q-14 -61 -66.5 -98.5t-120.5 -37.5q-67 0 -105 31t-38 86q0 11 1 19h98q9 -42 61 -42q47 0 71 42h99z" />
    <glyph glyph-name="abreve" unicode="&#x103;" horiz-adv-x="660" 
d="M586 0h-122l13 72q-89 -85 -200 -85q-105 0 -168.5 62t-63.5 164q0 145 102 249.5t243 104.5q116 0 163 -87l13 74h122zM514 313q0 61 -36 96.5t-98 35.5q-80 0 -139 -61.5t-59 -143.5q0 -60 36.5 -95.5t98.5 -35.5q83 0 140 58.5t57 145.5zM589 768q-14 -61 -66.5 -98.5
t-120.5 -37.5q-67 0 -105 31t-38 86q0 11 1 19h98q9 -42 61 -42q47 0 71 42h99z" />
    <glyph glyph-name="Aogonek" unicode="&#x104;" horiz-adv-x="740" 
d="M703 0q-50 -16 -81.5 -44t-31.5 -51q0 -20 10 -34.5t28 -14.5q28 0 48 3l-18 -103q-29 -6 -63 -6q-45 0 -76.5 36.5t-31.5 79.5q0 35 22 66t72 68h-29l-44 191h-263l-117 -191h-151l445 739h108zM478 323l-38 223l-120 -223h158z" />
    <glyph glyph-name="aogonek" unicode="&#x105;" horiz-adv-x="660" 
d="M586 0q-50 -16 -81.5 -44t-31.5 -51q0 -20 10 -34.5t28 -14.5q28 0 48 3l-18 -103q-29 -6 -63 -6q-45 0 -76.5 36.5t-31.5 79.5q0 35 22 66t72 68l13 72q-89 -85 -200 -85q-105 0 -168.5 62t-63.5 164q0 145 102 249.5t243 104.5q116 0 163 -87l13 74h122zM514 313
q0 61 -36 96.5t-98 35.5q-80 0 -139 -61.5t-59 -143.5q0 -60 36.5 -95.5t98.5 -35.5q83 0 140 58.5t57 145.5z" />
    <glyph glyph-name="Cacute" unicode="&#x106;" horiz-adv-x="780" 
d="M828 527h-154q-29 50 -70.5 71.5t-105.5 21.5q-114 0 -205 -87.5t-91 -205.5q0 -91 58 -149.5t147 -58.5q54 0 99 19.5t101 67.5h161q-60 -100 -164.5 -159.5t-218.5 -59.5q-142 0 -232.5 89.5t-90.5 226.5q0 114 64.5 218t170.5 167.5t221 63.5q114 0 197 -57.5
t113 -167.5zM730 894l-243 -116l-40 88l236 127z" />
    <glyph glyph-name="cacute" unicode="&#x107;" 
d="M640 369h-150q-23 76 -113 76q-79 0 -136 -59t-57 -141q0 -62 36 -99t95 -37q86 0 140 73h150q-53 -94 -133.5 -144.5t-177.5 -50.5q-106 0 -176.5 67.5t-70.5 168.5q0 136 106 240t244 104q95 0 160.5 -50.5t82.5 -147.5zM610 719l-243 -116l-40 88l236 127z" />
    <glyph glyph-name="Ccircumflex" unicode="&#x108;" horiz-adv-x="780" 
d="M828 527h-154q-29 50 -70.5 71.5t-105.5 21.5q-114 0 -205 -87.5t-91 -205.5q0 -91 58 -149.5t147 -58.5q54 0 99 19.5t101 67.5h161q-60 -100 -164.5 -159.5t-218.5 -59.5q-142 0 -232.5 89.5t-90.5 226.5q0 114 64.5 218t170.5 167.5t221 63.5q114 0 197 -57.5
t113 -167.5zM728 806h-145l-41 64l-66 -64h-147l173 138h107z" />
    <glyph glyph-name="ccircumflex" unicode="&#x109;" 
d="M640 369h-150q-23 76 -113 76q-79 0 -136 -59t-57 -141q0 -62 36 -99t95 -37q86 0 140 73h150q-53 -94 -133.5 -144.5t-177.5 -50.5q-106 0 -176.5 67.5t-70.5 168.5q0 136 106 240t244 104q95 0 160.5 -50.5t82.5 -147.5zM608 631h-145l-41 64l-66 -64h-147l173 138h107
z" />
    <glyph glyph-name="Cdotaccent" unicode="&#x10a;" horiz-adv-x="780" 
d="M828 527h-154q-29 50 -70.5 71.5t-105.5 21.5q-114 0 -205 -87.5t-91 -205.5q0 -91 58 -149.5t147 -58.5q54 0 99 19.5t101 67.5h161q-60 -100 -164.5 -159.5t-218.5 -59.5q-142 0 -232.5 89.5t-90.5 226.5q0 114 64.5 218t170.5 167.5t221 63.5q114 0 197 -57.5
t113 -167.5zM620 941l-25 -132h-133l25 132h133z" />
    <glyph glyph-name="cdotaccent" unicode="&#x10b;" 
d="M640 369h-150q-23 76 -113 76q-79 0 -136 -59t-57 -141q0 -62 36 -99t95 -37q86 0 140 73h150q-53 -94 -133.5 -144.5t-177.5 -50.5q-106 0 -176.5 67.5t-70.5 168.5q0 136 106 240t244 104q95 0 160.5 -50.5t82.5 -147.5zM501 766l-25 -132h-133l25 132h133z" />
    <glyph glyph-name="Ccaron" unicode="&#x10c;" horiz-adv-x="780" 
d="M828 527h-154q-29 50 -70.5 71.5t-105.5 21.5q-114 0 -205 -87.5t-91 -205.5q0 -91 58 -149.5t147 -58.5q54 0 99 19.5t101 67.5h161q-60 -100 -164.5 -159.5t-218.5 -59.5q-142 0 -232.5 89.5t-90.5 226.5q0 114 64.5 218t170.5 167.5t221 63.5q114 0 197 -57.5
t113 -167.5zM753 944l-173 -138h-107l-119 138h145l41 -64l66 64h147z" />
    <glyph glyph-name="ccaron" unicode="&#x10d;" 
d="M640 369h-150q-23 76 -113 76q-79 0 -136 -59t-57 -141q0 -62 36 -99t95 -37q86 0 140 73h150q-53 -94 -133.5 -144.5t-177.5 -50.5q-106 0 -176.5 67.5t-70.5 168.5q0 136 106 240t244 104q95 0 160.5 -50.5t82.5 -147.5zM634 769l-173 -138h-107l-119 138h145l41 -64
l66 64h147z" />
    <glyph glyph-name="Dcaron" unicode="&#x10e;" horiz-adv-x="700" 
d="M704 452q0 -111 -52 -215t-137 -163q-57 -40 -127.5 -57t-177.5 -17h-172l137 739h169q191 0 275.5 -72t84.5 -215zM564 421q0 96 -55.5 141.5t-193.5 45.5h-27l-89 -477h30q92 0 150 19t100 62q85 88 85 209zM703 944l-173 -138h-107l-119 138h145l41 -64l66 64h147z
" />
    <glyph glyph-name="dcaron" unicode="&#x10f;" horiz-adv-x="660" 
d="M720 739l-137 -739h-122l14 72q-91 -85 -199 -85q-104 0 -167 64t-63 169q0 141 102.5 247.5t237.5 106.5q51 0 93.5 -18.5t64.5 -50.5l43 234h133zM516 314q0 62 -36.5 100t-96.5 38q-81 0 -140.5 -60.5t-59.5 -143.5q0 -62 38.5 -100.5t99.5 -38.5q76 0 135.5 62.5
t59.5 142.5zM936 739l-94 -192h-104l93 192h105z" />
    <glyph glyph-name="Dcroat" unicode="&#x110;" horiz-adv-x="742" 
d="M746 456q0 -117 -51 -219t-140 -163q-59 -40 -129 -57t-176 -17h-172l59 321h-94l20 107h94l58 311h169q193 0 277.5 -72t84.5 -211zM606 424q0 94 -57 139t-195 45h-27l-33 -180h149l-20 -107h-149l-35 -190h30q92 0 151.5 19t100.5 62q39 40 62 97t23 115z" />
    <glyph glyph-name="dcroat" unicode="&#x111;" horiz-adv-x="660" 
d="M755 602h-60l-112 -602h-122l14 72q-91 -85 -199 -85q-103 0 -166 64t-63 169q0 140 102 247t236 107q51 0 93.5 -18.5t64.5 -50.5l19 97h-113l16 87h113l9 50h133l-9 -50h60zM516 314q0 62 -36.5 100t-96.5 38q-81 0 -140 -60.5t-59 -143.5q0 -62 38 -100.5t99 -38.5
q76 0 135.5 62.5t59.5 142.5z" />
    <glyph glyph-name="Emacron" unicode="&#x112;" horiz-adv-x="520" 
d="M548 607h-260l-33 -172h249l-24 -132h-249l-32 -171h260l-24 -132h-397l137 739h397zM530 826h-279l17 99h280z" />
    <glyph glyph-name="emacron" unicode="&#x113;" 
d="M615 218h-429q0 -48 36.5 -78.5t93.5 -30.5q80 0 135 55h145q-45 -82 -125 -129.5t-174 -47.5q-111 0 -181 66t-70 170q0 136 106.5 240t245.5 104q104 0 170.5 -63t66.5 -162q0 -76 -20 -124zM511 336q-6 109 -134 109q-58 0 -106 -30t-67 -79h307zM554 651h-279l17 99
h280z" />
    <glyph glyph-name="Ebreve" unicode="&#x114;" horiz-adv-x="520" 
d="M548 607h-260l-33 -172h249l-24 -132h-249l-32 -171h260l-24 -132h-397l137 739h397zM576 943q-14 -61 -66.5 -98.5t-120.5 -37.5q-67 0 -105 31t-38 86q0 11 1 19h98q9 -42 61 -42q47 0 71 42h99z" />
    <glyph glyph-name="ebreve" unicode="&#x115;" 
d="M615 218h-429q0 -48 36.5 -78.5t93.5 -30.5q80 0 135 55h145q-45 -82 -125 -129.5t-174 -47.5q-111 0 -181 66t-70 170q0 136 106.5 240t245.5 104q104 0 170.5 -63t66.5 -162q0 -76 -20 -124zM511 336q-6 109 -134 109q-58 0 -106 -30t-67 -79h307zM597 768
q-14 -61 -66.5 -98.5t-120.5 -37.5q-67 0 -105 31t-38 86q0 11 1 19h98q9 -42 61 -42q47 0 71 42h99z" />
    <glyph glyph-name="Edotaccent" unicode="&#x116;" horiz-adv-x="520" 
d="M548 607h-260l-33 -172h249l-24 -132h-249l-32 -171h260l-24 -132h-397l137 739h397zM478 941l-25 -132h-133l25 132h133z" />
    <glyph glyph-name="edotaccent" unicode="&#x117;" 
d="M615 218h-429q0 -48 36.5 -78.5t93.5 -30.5q80 0 135 55h145q-45 -82 -125 -129.5t-174 -47.5q-111 0 -181 66t-70 170q0 136 106.5 240t245.5 104q104 0 170.5 -63t66.5 -162q0 -76 -20 -124zM511 336q-6 109 -134 109q-58 0 -106 -30t-67 -79h307zM502 766l-25 -132
h-133l25 132h133z" />
    <glyph glyph-name="Eogonek" unicode="&#x118;" horiz-adv-x="520" 
d="M548 607h-260l-33 -172h249l-24 -132h-249l-32 -171h260l-24 -132q-50 -16 -81.5 -44t-31.5 -51q0 -19 10.5 -34t28.5 -15q28 0 48 3l-19 -103q-28 -6 -62 -6q-45 0 -77 36.5t-32 79.5q0 35 22 66t72 68h-275l137 739h397z" />
    <glyph glyph-name="eogonek" unicode="&#x119;" 
d="M615 218h-429q0 -48 36.5 -78.5t93.5 -30.5q80 0 135 55h145q-55 -101 -157 -146q-106 -50 -106 -113q0 -20 10 -34.5t28 -14.5q28 0 48 3l-18 -103q-29 -6 -63 -6q-45 0 -76.5 36.5t-31.5 79.5q0 60 77 121h-10q-111 0 -181 66t-70 170q0 136 106.5 240t245.5 104
q104 0 170.5 -63t66.5 -162q0 -76 -20 -124zM511 336q-6 109 -134 109q-58 0 -106 -30t-67 -79h307z" />
    <glyph glyph-name="Ecaron" unicode="&#x11a;" horiz-adv-x="520" 
d="M548 607h-260l-33 -172h249l-24 -132h-249l-32 -171h260l-24 -132h-397l137 739h397zM611 944l-173 -138h-107l-119 138h145l41 -64l66 64h147z" />
    <glyph glyph-name="ecaron" unicode="&#x11b;" 
d="M615 218h-429q0 -48 36.5 -78.5t93.5 -30.5q80 0 135 55h145q-45 -82 -125 -129.5t-174 -47.5q-111 0 -181 66t-70 170q0 136 106.5 240t245.5 104q104 0 170.5 -63t66.5 -162q0 -76 -20 -124zM511 336q-6 109 -134 109q-58 0 -106 -30t-67 -79h307zM635 769l-173 -138
h-107l-119 138h145l41 -64l66 64h147z" />
    <glyph glyph-name="Gcircumflex" unicode="&#x11c;" horiz-adv-x="840" 
d="M858 377q-10 -100 -77 -190.5t-169.5 -145t-211.5 -54.5q-149 0 -244 88t-95 225q0 116 65.5 221t174 168t228.5 63t211 -67t108 -163h-161q-60 98 -180 98q-125 0 -215.5 -89.5t-90.5 -206.5q0 -90 59.5 -147.5t157.5 -57.5q72 0 135.5 34.5t104.5 95.5h-306l24 128h482
zM739 806h-145l-41 64l-66 -64h-147l173 138h107z" />
    <glyph glyph-name="gcircumflex" unicode="&#x11d;" horiz-adv-x="660" 
d="M601 105q-60 -326 -349 -326q-204 0 -252 176h151q23 -32 52.5 -45.5t76.5 -13.5q73 0 118.5 42t69.5 135q-48 -46 -93 -66t-104 -20q-103 0 -164 62.5t-61 167.5q0 143 99.5 246.5t235.5 103.5q58 0 96.5 -19.5t66.5 -63.5l13 70h127zM504 315q0 59 -36 94.5t-95 35.5
q-83 0 -136.5 -60t-53.5 -152q0 -58 34 -91t94 -33q83 0 138 61t55 145zM592 631h-145l-41 64l-66 -64h-147l173 138h107z" />
    <glyph glyph-name="Gbreve" unicode="&#x11e;" horiz-adv-x="840" 
d="M858 377q-10 -100 -77 -190.5t-169.5 -145t-211.5 -54.5q-149 0 -244 88t-95 225q0 116 65.5 221t174 168t228.5 63t211 -67t108 -163h-161q-60 98 -180 98q-125 0 -215.5 -89.5t-90.5 -206.5q0 -90 59.5 -147.5t157.5 -57.5q72 0 135.5 34.5t104.5 95.5h-306l24 128h482
zM729 943q-14 -61 -66.5 -98.5t-120.5 -37.5q-67 0 -105 31t-38 86q0 11 1 19h98q9 -42 61 -42q47 0 71 42h99z" />
    <glyph glyph-name="gbreve" unicode="&#x11f;" horiz-adv-x="660" 
d="M601 105q-60 -326 -349 -326q-204 0 -252 176h151q23 -32 52.5 -45.5t76.5 -13.5q73 0 118.5 42t69.5 135q-48 -46 -93 -66t-104 -20q-103 0 -164 62.5t-61 167.5q0 143 99.5 246.5t235.5 103.5q58 0 96.5 -19.5t66.5 -63.5l13 70h127zM504 315q0 59 -36 94.5t-95 35.5
q-83 0 -136.5 -60t-53.5 -152q0 -58 34 -91t94 -33q83 0 138 61t55 145zM580 768q-14 -61 -66.5 -98.5t-120.5 -37.5q-67 0 -105 31t-38 86q0 11 1 19h98q9 -42 61 -42q47 0 71 42h99z" />
    <glyph glyph-name="Gdotaccent" unicode="&#x120;" horiz-adv-x="840" 
d="M858 377q-10 -100 -77 -190.5t-169.5 -145t-211.5 -54.5q-149 0 -244 88t-95 225q0 116 65.5 221t174 168t228.5 63t211 -67t108 -163h-161q-60 98 -180 98q-125 0 -215.5 -89.5t-90.5 -206.5q0 -90 59.5 -147.5t157.5 -57.5q72 0 135.5 34.5t104.5 95.5h-306l24 128h482
zM631 941l-25 -132h-133l25 132h133z" />
    <glyph glyph-name="gdotaccent" unicode="&#x121;" horiz-adv-x="660" 
d="M601 105q-60 -326 -349 -326q-204 0 -252 176h151q23 -32 52.5 -45.5t76.5 -13.5q73 0 118.5 42t69.5 135q-48 -46 -93 -66t-104 -20q-103 0 -164 62.5t-61 167.5q0 143 99.5 246.5t235.5 103.5q58 0 96.5 -19.5t66.5 -63.5l13 70h127zM504 315q0 59 -36 94.5t-95 35.5
q-83 0 -136.5 -60t-53.5 -152q0 -58 34 -91t94 -33q83 0 138 61t55 145zM485 766l-25 -132h-133l25 132h133z" />
    <glyph glyph-name="Gcommaaccent" unicode="&#x122;" horiz-adv-x="840" 
d="M858 377q-10 -100 -77 -190.5t-169.5 -145t-211.5 -54.5q-149 0 -244 88t-95 225q0 116 65.5 221t174 168t228.5 63t211 -67t108 -163h-161q-60 98 -180 98q-125 0 -215.5 -89.5t-90.5 -206.5q0 -90 59.5 -147.5t157.5 -57.5q72 0 135.5 34.5t104.5 95.5h-306l24 128h482
zM461 -53l-94 -192h-104l93 192h105z" />
    <glyph glyph-name="gcommaaccent" unicode="&#x123;" horiz-adv-x="660" 
d="M510 823l-93 -192h-105l94 192h104zM601 105q-60 -326 -349 -326q-204 0 -252 176h151q23 -32 52.5 -45.5t76.5 -13.5q73 0 118.5 42t69.5 135q-48 -46 -93 -66t-104 -20q-103 0 -164 62.5t-61 167.5q0 143 99.5 246.5t235.5 103.5q58 0 96.5 -19.5t66.5 -63.5l13 70h127
zM504 315q0 59 -36 94.5t-95 35.5q-83 0 -136.5 -60t-53.5 -152q0 -58 34 -91t94 -33q83 0 138 61t55 145z" />
    <glyph glyph-name="Hcircumflex" unicode="&#x124;" horiz-adv-x="680" 
d="M713 739l-137 -739h-137l57 310h-264l-57 -310h-137l137 739h137l-55 -297h264l55 297h137zM656 806h-145l-41 64l-66 -64h-147l173 138h107z" />
    <glyph glyph-name="hcircumflex" unicode="&#x125;" horiz-adv-x="600" 
d="M515 0h-133l52 283q9 48 9 81q0 39 -23 60.5t-64 21.5q-59 0 -94.5 -37t-52.5 -128l-52 -281h-133l137 739h133l-41 -223q62 52 149 52q82 0 131.5 -43.5t49.5 -116.5q0 -44 -10 -95zM619 806h-145l-41 64l-66 -64h-147l173 138h107z" />
    <glyph glyph-name="Hbar" unicode="&#x126;" horiz-adv-x="680" 
d="M744 549h-66l-102 -549h-137l57 310h-264l-57 -310h-137l102 549h-60l18 100h60l17 90h137l-17 -90h264l17 90h137l-17 -90h66zM521 441l20 108h-264l-20 -108h264z" />
    <glyph glyph-name="hbar" unicode="&#x127;" horiz-adv-x="600" 
d="M514 0h-133l52 283q17 87 -1.5 124.5t-76.5 37.5q-68 0 -107 -53q-26 -34 -40 -111l-52 -281h-133l112 602h-70l18 100h70l7 37h133l-7 -37h75l-18 -100h-74l-17 -86q66 52 150 52q124 0 164 -88q26 -57 6 -167z" />
    <glyph glyph-name="Itilde" unicode="&#x128;" horiz-adv-x="280" 
d="M312 739l-137 -739h-137l137 739h137zM427 862q-45 -56 -108 -56q-7 0 -60 15.5t-61 15.5q-20 0 -55 -30l-38 85q20 21 47.5 34.5t49.5 13.5q12 0 56 -15.5t54 -15.5q21 0 34 5.5t47 29.5z" />
    <glyph glyph-name="itilde" unicode="&#x129;" horiz-adv-x="240" 
d="M260 554l-103 -554h-133l103 554h133zM379 687q-45 -56 -108 -56q-7 0 -60 15.5t-61 15.5q-20 0 -55 -30l-38 85q20 21 47.5 34.5t49.5 13.5q12 0 56 -15.5t54 -15.5q21 0 34 5.5t47 29.5z" />
    <glyph glyph-name="Imacron" unicode="&#x12a;" horiz-adv-x="280" 
d="M312 739l-137 -739h-137l137 739h137zM400 826h-279l17 99h280z" />
    <glyph glyph-name="imacron" unicode="&#x12b;" horiz-adv-x="240" 
d="M260 554l-103 -554h-133l103 554h133zM352 651h-279l17 99h280z" />
    <glyph glyph-name="Ibreve" unicode="&#x12c;" horiz-adv-x="280" 
d="M312 739l-137 -739h-137l137 739h137zM446 943q-14 -61 -66.5 -98.5t-120.5 -37.5q-67 0 -105 31t-38 86q0 11 1 19h98q9 -42 61 -42q47 0 71 42h99z" />
    <glyph glyph-name="ibreve" unicode="&#x12d;" horiz-adv-x="240" 
d="M260 554l-103 -554h-133l103 554h133zM395 768q-14 -61 -66.5 -98.5t-120.5 -37.5q-67 0 -105 31t-38 86q0 11 1 19h98q9 -42 61 -42q47 0 71 42h99z" />
    <glyph glyph-name="Iogonek" unicode="&#x12e;" horiz-adv-x="280" 
d="M312 739l-137 -739q-50 -16 -81.5 -44t-31.5 -51q0 -20 10 -34.5t28 -14.5q28 0 48 3l-18 -103q-29 -6 -63 -6q-45 0 -76.5 36.5t-31.5 79.5q0 35 22 66t72 68h-15l137 739h137z" />
    <glyph glyph-name="iogonek" unicode="&#x12f;" horiz-adv-x="240" 
d="M260 554l-103 -554q-50 -16 -81.5 -44t-31.5 -51q0 -20 10 -34.5t28 -14.5q28 0 48 3l-18 -103q-28 -6 -63 -6q-45 0 -76.5 36.5t-31.5 79.5q0 35 22 66t72 68h-11l103 554h133zM299 766l-25 -132h-133l25 132h133z" />
    <glyph glyph-name="Idotaccent" unicode="&#x130;" horiz-adv-x="280" 
d="M312 739l-137 -739h-137l137 739h137zM348 941l-25 -132h-133l25 132h133z" />
    <glyph glyph-name="dotlessi" unicode="&#x131;" horiz-adv-x="240" 
d="M260 554l-103 -554h-133l103 554h133z" />
    <glyph glyph-name="Jcircumflex" unicode="&#x134;" horiz-adv-x="480" 
d="M521 739l-98 -527q-21 -109 -87 -167t-154 -58q-77 0 -125.5 43t-48.5 110q0 7 2 35h137l1 -7q7 -49 55 -49q66 0 84 97l97 523h137zM665 806h-145l-41 64l-66 -64h-147l173 138h107z" />
    <glyph glyph-name="jcircumflex" unicode="&#x135;" horiz-adv-x="260" 
d="M278 554l-96 -517q-17 -103 -77 -161.5t-152 -60.5l24 129q38 7 50.5 24t22.5 72l95 514h133zM425 631h-145l-41 64l-66 -64h-147l173 138h107z" />
    <glyph glyph-name="Kcommaaccent" unicode="&#x136;" horiz-adv-x="620" 
d="M706 739l-344 -363l207 -376h-164l-170 325l-60 -325h-137l137 739h137l-59 -319l289 319h164zM361 -53l-94 -192h-104l93 192h105z" />
    <glyph glyph-name="kcommaaccent" unicode="&#x137;" horiz-adv-x="580" 
d="M525 0h-179l-141 259l-48 -259h-133l137 739h133l-83 -446l225 261h159l-248 -271zM323 -53l-94 -192h-104l93 192h105z" />
    <glyph glyph-name="Lacute" unicode="&#x139;" horiz-adv-x="440" 
d="M402 0h-364l137 739h137l-113 -607h227zM426 894l-243 -116l-40 88l236 127z" />
    <glyph glyph-name="lacute" unicode="&#x13a;" horiz-adv-x="240" 
d="M294 739l-137 -739h-133l137 739h133zM412 894l-243 -116l-40 88l236 127z" />
    <glyph glyph-name="Lcommaaccent" unicode="&#x13b;" horiz-adv-x="440" 
d="M402 0h-364l137 739h137l-113 -607h227zM291 -53l-94 -192h-104l93 192h105z" />
    <glyph glyph-name="lcommaaccent" unicode="&#x13c;" horiz-adv-x="240" 
d="M294 739l-137 -739h-133l137 739h133zM161 -53l-94 -192h-104l93 192h105z" />
    <glyph glyph-name="Lcaron" unicode="&#x13d;" horiz-adv-x="440" 
d="M402 0h-364l137 739h137l-113 -607h227zM528 739l-94 -192h-104l93 192h105z" />
    <glyph glyph-name="lcaron" unicode="&#x13e;" horiz-adv-x="240" 
d="M294 739l-137 -739h-133l137 739h133zM510 739l-94 -192h-104l93 192h105z" />
    <glyph glyph-name="Ldot" unicode="&#x13f;" horiz-adv-x="440" 
d="M402 0h-364l137 739h137l-113 -607h227zM477 449l-25 -132h-133l25 132h133z" />
    <glyph glyph-name="ldot" unicode="&#x140;" horiz-adv-x="374" 
d="M294 739l-137 -739h-133l137 739h133zM427 449l-25 -132h-133l25 132h133z" />
    <glyph glyph-name="Lslash" unicode="&#x141;" horiz-adv-x="480" 
d="M468 128l-24 -128h-364l50 267l-111 -79l24 130l111 79l63 342h137l-49 -269l162 111l-24 -130l-163 -111l-39 -212h227z" />
    <glyph glyph-name="lslash" unicode="&#x142;" horiz-adv-x="320" 
d="M390 552l-22 -117l-98 -65l-69 -370h-133l58 308l-97 -67l22 116l97 68l57 314h133l-47 -252z" />
    <glyph glyph-name="Nacute" unicode="&#x143;" horiz-adv-x="740" 
d="M774 739l-137 -739h-153l-209 537l-100 -537h-137l137 739h156l206 -538l100 538h137zM689 894l-243 -116l-40 88l236 127z" />
    <glyph glyph-name="nacute" unicode="&#x144;" horiz-adv-x="600" 
d="M516 0h-133l50 271q9 49 9 92q0 82 -84 82q-59 0 -96 -38.5t-57 -145.5l-48 -261h-133l103 554h123l-10 -53q46 37 82.5 51.5t82.5 14.5q86 0 132 -42.5t46 -121.5q0 -40 -12 -106zM588 719l-243 -116l-40 88l236 127z" />
    <glyph glyph-name="Ncommaaccent" unicode="&#x145;" horiz-adv-x="740" 
d="M774 739l-137 -739h-153l-209 537l-100 -537h-137l137 739h156l206 -538l100 538h137zM409 -53l-94 -192h-104l93 192h105z" />
    <glyph glyph-name="ncommaaccent" unicode="&#x146;" horiz-adv-x="600" 
d="M516 0h-133l50 271q9 49 9 92q0 82 -84 82q-59 0 -96 -38.5t-57 -145.5l-48 -261h-133l103 554h123l-10 -53q46 37 82.5 51.5t82.5 14.5q86 0 132 -42.5t46 -121.5q0 -40 -12 -106zM341 -53l-94 -192h-104l93 192h105z" />
    <glyph glyph-name="Ncaron" unicode="&#x147;" horiz-adv-x="740" 
d="M774 739l-137 -739h-153l-209 537l-100 -537h-137l137 739h156l206 -538l100 538h137zM712 944l-173 -138h-107l-119 138h145l41 -64l66 64h147z" />
    <glyph glyph-name="ncaron" unicode="&#x148;" horiz-adv-x="600" 
d="M516 0h-133l50 271q9 49 9 92q0 82 -84 82q-59 0 -96 -38.5t-57 -145.5l-48 -261h-133l103 554h123l-10 -53q46 37 82.5 51.5t82.5 14.5q86 0 132 -42.5t46 -121.5q0 -40 -12 -106zM612 769l-173 -138h-107l-119 138h145l41 -64l66 64h147z" />
    <glyph glyph-name="Eng" unicode="&#x14a;" horiz-adv-x="740" 
d="M774 739l-142 -764q-21 -109 -87 -167t-154 -58q-77 0 -125.5 43t-48.5 110q0 7 2 35h137l1 -7q7 -49 55 -49q28 0 51 21t28 51l4 19l-220 564l-100 -537h-137l137 739h156l206 -538l100 538h137z" />
    <glyph glyph-name="eng" unicode="&#x14b;" horiz-adv-x="600" 
d="M571 297l-48 -260q-17 -103 -77 -161.5t-152 -60.5l24 129q38 7 50.5 24t22.5 72l42 231q9 49 9 92q0 82 -84 82q-59 0 -96 -38.5t-57 -145.5l-48 -261h-133l103 554h123l-10 -53q46 37 82.5 51.5t82.5 14.5q86 0 132 -42.5t46 -121.5q0 -40 -12 -106z" />
    <glyph glyph-name="Omacron" unicode="&#x14c;" horiz-adv-x="840" 
d="M845 439q0 -117 -63.5 -221.5t-170 -167.5t-225.5 -63q-142 0 -233.5 88t-91.5 225q0 118 67 223.5t175.5 167t225.5 61.5q138 0 227 -88t89 -225zM705 419q0 88 -57 144.5t-146 56.5q-117 0 -209 -90.5t-92 -206.5q0 -89 59 -146.5t150 -57.5q116 0 205.5 89.5
t89.5 210.5zM683 826h-279l17 99h280z" />
    <glyph glyph-name="omacron" unicode="&#x14d;" 
d="M645 327q0 -134 -108 -237t-249 -103q-103 0 -172.5 67t-69.5 167q0 137 107 241.5t248 104.5q106 0 175 -68t69 -172zM508 309q0 59 -37 97.5t-93 38.5q-76 0 -135.5 -61t-59.5 -140q0 -58 37.5 -96.5t94.5 -38.5q75 0 134 61.5t59 138.5zM557 651h-279l17 99h280z" />
    <glyph glyph-name="Obreve" unicode="&#x14e;" horiz-adv-x="840" 
d="M845 439q0 -117 -63.5 -221.5t-170 -167.5t-225.5 -63q-142 0 -233.5 88t-91.5 225q0 118 67 223.5t175.5 167t225.5 61.5q138 0 227 -88t89 -225zM705 419q0 88 -57 144.5t-146 56.5q-117 0 -209 -90.5t-92 -206.5q0 -89 59 -146.5t150 -57.5q116 0 205.5 89.5
t89.5 210.5zM729 943q-14 -61 -66.5 -98.5t-120.5 -37.5q-67 0 -105 31t-38 86q0 11 1 19h98q9 -42 61 -42q47 0 71 42h99z" />
    <glyph glyph-name="obreve" unicode="&#x14f;" 
d="M645 327q0 -134 -108 -237t-249 -103q-103 0 -172.5 67t-69.5 167q0 137 107 241.5t248 104.5q106 0 175 -68t69 -172zM508 309q0 59 -37 97.5t-93 38.5q-76 0 -135.5 -61t-59.5 -140q0 -58 37.5 -96.5t94.5 -38.5q75 0 134 61.5t59 138.5zM600 768q-14 -61 -66.5 -98.5
t-120.5 -37.5q-67 0 -105 31t-38 86q0 11 1 19h98q9 -42 61 -42q47 0 71 42h99z" />
    <glyph glyph-name="Ohungarumlaut" unicode="&#x150;" horiz-adv-x="840" 
d="M845 439q0 -117 -63.5 -221.5t-170 -167.5t-225.5 -63q-142 0 -233.5 88t-91.5 225q0 118 67 223.5t175.5 167t225.5 61.5q138 0 227 -88t89 -225zM705 419q0 88 -57 144.5t-146 56.5q-117 0 -209 -90.5t-92 -206.5q0 -89 59 -146.5t150 -57.5q116 0 205.5 89.5
t89.5 210.5zM625 907l-244 -132l-38 79l230 142zM907 907l-243 -132l-39 79l231 142z" />
    <glyph glyph-name="ohungarumlaut" unicode="&#x151;" 
d="M645 327q0 -134 -108 -237t-249 -103q-103 0 -172.5 67t-69.5 167q0 137 107 241.5t248 104.5q106 0 175 -68t69 -172zM508 309q0 59 -37 97.5t-93 38.5q-76 0 -135.5 -61t-59.5 -140q0 -58 37.5 -96.5t94.5 -38.5q75 0 134 61.5t59 138.5zM497 722l-244 -132l-38 79
l230 142zM779 722l-243 -132l-39 79l231 142z" />
    <glyph glyph-name="OE" unicode="&#x152;" horiz-adv-x="1060" 
d="M1087 607h-217l-33 -172h206l-24 -132h-206l-32 -171h217l-24 -132h-356l15 82q-46 -44 -111.5 -69.5t-133.5 -25.5q-140 0 -229 84.5t-89 218.5q0 122 62 228.5t167 170t224 63.5q154 0 217 -96l15 83h356zM695 421q0 89 -53.5 143.5t-140.5 54.5q-118 0 -204.5 -92
t-86.5 -209q0 -87 55 -142.5t144 -55.5q117 0 201.5 89t84.5 212z" />
    <glyph glyph-name="oe" unicode="&#x153;" horiz-adv-x="1080" 
d="M1052 218h-429q7 -52 44 -80.5t89 -28.5q35 0 71.5 15t59.5 39h141q-30 -71 -117.5 -123.5t-176.5 -52.5q-70 0 -124 30t-80 83q-98 -113 -241 -113q-108 0 -175.5 65t-67.5 170q0 136 104.5 240.5t241.5 104.5q72 0 120 -26.5t84 -84.5q62 60 116.5 85.5t120.5 25.5
q107 0 174.5 -61.5t67.5 -158.5q0 -50 -23 -129zM508 311q0 60 -36 97t-95 37q-78 0 -136 -60t-58 -142q0 -58 37.5 -96t94.5 -38q81 0 137 62.5t56 139.5zM941 336q-8 56 -39.5 82.5t-89.5 26.5q-113 0 -173 -109h302z" />
    <glyph glyph-name="Racute" unicode="&#x154;" horiz-adv-x="580" 
d="M538 0h-169l-142 283l-52 -283h-137l137 739h213q239 0 239 -186q0 -104 -61.5 -178t-176.5 -102zM487 521q0 46 -29.5 66t-108.5 20h-61l-41 -221h67q91 0 132 37.5t41 97.5zM602 894l-243 -116l-40 88l236 127z" />
    <glyph glyph-name="racute" unicode="&#x155;" horiz-adv-x="320" 
d="M382 567l-24 -128q-59 -1 -97.5 -36t-46.5 -95l-57 -308h-133l103 554h122l-10 -54q32 39 63 53.5t80 13.5zM464 719l-243 -116l-40 88l236 127z" />
    <glyph glyph-name="Rcommaaccent" unicode="&#x156;" horiz-adv-x="580" 
d="M538 0h-169l-142 283l-52 -283h-137l137 739h213q239 0 239 -186q0 -104 -61.5 -178t-176.5 -102zM487 521q0 46 -29.5 66t-108.5 20h-61l-41 -221h67q91 0 132 37.5t41 97.5zM322 -53l-94 -192h-104l93 192h105z" />
    <glyph glyph-name="rcommaaccent" unicode="&#x157;" horiz-adv-x="320" 
d="M382 567l-24 -128q-59 -1 -97.5 -36t-46.5 -95l-57 -308h-133l103 554h122l-10 -54q32 39 63 53.5t80 13.5zM162 -53l-94 -192h-104l93 192h105z" />
    <glyph glyph-name="Rcaron" unicode="&#x158;" horiz-adv-x="580" 
d="M538 0h-169l-142 283l-52 -283h-137l137 739h213q239 0 239 -186q0 -104 -61.5 -178t-176.5 -102zM487 521q0 46 -29.5 66t-108.5 20h-61l-41 -221h67q91 0 132 37.5t41 97.5zM625 944l-173 -138h-107l-119 138h145l41 -64l66 64h147z" />
    <glyph glyph-name="rcaron" unicode="&#x159;" horiz-adv-x="320" 
d="M382 567l-24 -128q-59 -1 -97.5 -36t-46.5 -95l-57 -308h-133l103 554h122l-10 -54q32 39 63 53.5t80 13.5zM488 769l-173 -138h-107l-119 138h145l41 -64l66 64h147z" />
    <glyph glyph-name="Sacute" unicode="&#x15a;" horiz-adv-x="520" 
d="M508 265q0 -109 -86 -193.5t-196 -84.5q-93 0 -150 51.5t-57 132.5q0 8 2 40h143q-1 -8 -1 -21q0 -33 22.5 -52t62.5 -19q50 0 85 31.5t35 76.5q0 38 -22 57q-15 12 -32 20.5t-86 36.5q-121 48 -121 165q0 97 77.5 171.5t177.5 74.5q80 0 133.5 -46.5t53.5 -116.5
q0 -22 -4 -47h-141q0 44 -15.5 61t-50.5 17q-38 0 -64.5 -27t-26.5 -64q0 -29 30 -51q15 -11 76 -33q83 -31 119 -73t36 -107zM574 894l-243 -116l-40 88l236 127z" />
    <glyph glyph-name="sacute" unicode="&#x15b;" horiz-adv-x="440" 
d="M425 209q0 -88 -71.5 -155t-165.5 -67q-75 0 -122 41.5t-47 108.5q0 9 2 39h134q2 -67 62 -67q29 0 50 19t21 45q0 20 -15.5 31.5t-66.5 29.5q-73 25 -99.5 54t-26.5 82q0 80 65.5 138.5t154.5 58.5q61 0 106.5 -38t45.5 -90q0 -15 -3 -38h-130q-2 44 -44 44
q-23 0 -40.5 -16.5t-17.5 -38.5q0 -17 12 -25.5t70 -26.5q71 -23 98.5 -51t27.5 -78zM513 719l-243 -116l-40 88l236 127z" />
    <glyph glyph-name="Scircumflex" unicode="&#x15c;" horiz-adv-x="520" 
d="M508 265q0 -109 -86 -193.5t-196 -84.5q-93 0 -150 51.5t-57 132.5q0 8 2 40h143q-1 -8 -1 -21q0 -33 22.5 -52t62.5 -19q50 0 85 31.5t35 76.5q0 38 -22 57q-15 12 -32 20.5t-86 36.5q-121 48 -121 165q0 97 77.5 171.5t177.5 74.5q80 0 133.5 -46.5t53.5 -116.5
q0 -22 -4 -47h-141q0 44 -15.5 61t-50.5 17q-38 0 -64.5 -27t-26.5 -64q0 -29 30 -51q15 -11 76 -33q83 -31 119 -73t36 -107zM572 806h-145l-41 64l-66 -64h-147l173 138h107z" />
    <glyph glyph-name="scircumflex" unicode="&#x15d;" horiz-adv-x="440" 
d="M425 209q0 -88 -71.5 -155t-165.5 -67q-75 0 -122 41.5t-47 108.5q0 9 2 39h134q2 -67 62 -67q29 0 50 19t21 45q0 20 -15.5 31.5t-66.5 29.5q-73 25 -99.5 54t-26.5 82q0 80 65.5 138.5t154.5 58.5q61 0 106.5 -38t45.5 -90q0 -15 -3 -38h-130q-2 44 -44 44
q-23 0 -40.5 -16.5t-17.5 -38.5q0 -17 12 -25.5t70 -26.5q71 -23 98.5 -51t27.5 -78zM511 631h-145l-41 64l-66 -64h-147l173 138h107z" />
    <glyph glyph-name="Scedilla" unicode="&#x15e;" horiz-adv-x="520" 
d="M508 265q0 -108 -84.5 -192t-194.5 -86l-30 -45q20 7 30 7q32 0 53 -23t21 -58q0 -6 -2 -20q-8 -44 -39.5 -71t-74.5 -27q-39 0 -61.5 23t-22.5 61h61q7 -29 32 -29q18 0 33.5 16.5t15.5 36.5q0 15 -9 25.5t-23 10.5q-19 0 -43 -27l-47 26l58 98q-74 12 -118 60.5
t-44 119.5q0 8 2 40h143q-1 -8 -1 -21q0 -33 22.5 -52t62.5 -19q50 0 85 31.5t35 76.5q0 38 -22 57q-15 12 -32 20.5t-86 36.5q-121 48 -121 165q0 97 77.5 171.5t177.5 74.5q80 0 133.5 -46.5t53.5 -116.5q0 -22 -4 -47h-141q0 44 -15.5 61t-50.5 17q-38 0 -64.5 -27
t-26.5 -64q0 -29 30 -51q15 -11 76 -33q83 -31 119 -73t36 -107z" />
    <glyph glyph-name="scedilla" unicode="&#x15f;" horiz-adv-x="440" 
d="M425 209q0 -82 -64 -147.5t-151 -73.5l-31 -46q20 7 30 7q32 0 53 -23t21 -58q0 -6 -2 -20q-8 -44 -39.5 -71t-74.5 -27q-39 0 -61.5 23t-22.5 61h61q7 -29 32 -29q18 0 33.5 16.5t15.5 36.5q0 15 -9 25.5t-23 10.5q-19 0 -43 -27l-47 26l56 96q-63 8 -101.5 48
t-38.5 100q0 9 2 39h134q2 -67 62 -67q29 0 50 19t21 45q0 20 -15.5 31.5t-66.5 29.5q-73 25 -99.5 54t-26.5 82q0 80 65.5 138.5t154.5 58.5q61 0 106.5 -38t45.5 -90q0 -15 -3 -38h-130q-2 44 -44 44q-23 0 -40.5 -16.5t-17.5 -38.5q0 -17 12 -25.5t70 -26.5
q71 -23 98.5 -51t27.5 -78z" />
    <glyph glyph-name="Scaron" unicode="&#x160;" horiz-adv-x="520" 
d="M508 265q0 -109 -86 -193.5t-196 -84.5q-93 0 -150 51.5t-57 132.5q0 8 2 40h143q-1 -8 -1 -21q0 -33 22.5 -52t62.5 -19q50 0 85 31.5t35 76.5q0 38 -22 57q-15 12 -32 20.5t-86 36.5q-121 48 -121 165q0 97 77.5 171.5t177.5 74.5q80 0 133.5 -46.5t53.5 -116.5
q0 -22 -4 -47h-141q0 44 -15.5 61t-50.5 17q-38 0 -64.5 -27t-26.5 -64q0 -29 30 -51q15 -11 76 -33q83 -31 119 -73t36 -107zM597 944l-173 -138h-107l-119 138h145l41 -64l66 64h147z" />
    <glyph glyph-name="scaron" unicode="&#x161;" horiz-adv-x="440" 
d="M425 209q0 -88 -71.5 -155t-165.5 -67q-75 0 -122 41.5t-47 108.5q0 9 2 39h134q2 -67 62 -67q29 0 50 19t21 45q0 20 -15.5 31.5t-66.5 29.5q-73 25 -99.5 54t-26.5 82q0 80 65.5 138.5t154.5 58.5q61 0 106.5 -38t45.5 -90q0 -15 -3 -38h-130q-2 44 -44 44
q-23 0 -40.5 -16.5t-17.5 -38.5q0 -17 12 -25.5t70 -26.5q71 -23 98.5 -51t27.5 -78zM537 769l-173 -138h-107l-119 138h145l41 -64l66 64h147z" />
    <glyph glyph-name="Tcedilla" unicode="&#x162;" horiz-adv-x="420" 
d="M501 607h-139l-113 -607h-41l-39 -58q20 7 30 7q32 0 53 -23t21 -58q0 -6 -2 -20q-8 -44 -39.5 -71t-74.5 -27q-39 0 -61.5 23t-22.5 61h61q7 -29 32 -29q18 0 33.5 16.5t15.5 36.5q0 15 -9 25.5t-23 10.5q-19 0 -43 -27l-47 26l63 107h-44l113 607h-136l24 132h412z" />
    <glyph glyph-name="tcedilla" unicode="&#x163;" horiz-adv-x="300" 
d="M360 554l-23 -121h-80l-80 -433h-39l-39 -58q20 7 30 7q32 0 53 -23t21 -58q0 -6 -2 -20q-8 -44 -39.5 -71t-74.5 -27q-39 0 -61.5 23t-22.5 61h61q7 -29 32 -29q18 0 33.5 16.5t15.5 36.5q0 15 -9 25.5t-23 10.5q-19 0 -43 -27l-47 26l63 107h-42l80 433h-65l23 121h65
l34 185h133l-34 -185h80z" />
    <glyph glyph-name="Tcaron" unicode="&#x164;" horiz-adv-x="420" 
d="M501 607h-139l-113 -607h-137l113 607h-136l24 132h412zM555 944l-173 -138h-107l-119 138h145l41 -64l66 64h147z" />
    <glyph glyph-name="tcaron" unicode="&#x165;" horiz-adv-x="300" 
d="M360 554l-23 -121h-80l-80 -433h-133l80 433h-65l23 121h65l34 185h133l-34 -185h80zM510 773l-94 -192h-104l93 192h105z" />
    <glyph glyph-name="Utilde" unicode="&#x168;" 
d="M588 271q-25 -136 -107.5 -210t-195.5 -74q-89 0 -147.5 53.5t-58.5 135.5q0 44 10 95l86 468h137l-86 -468q-9 -48 -9 -70q0 -34 27 -58t65 -24q113 0 142 152l86 468h137zM608 862q-45 -56 -108 -56q-7 0 -60 15.5t-61 15.5q-20 0 -55 -30l-38 85q20 21 47.5 34.5
t49.5 13.5q13 0 57 -15.5t53 -15.5q21 0 34 5.5t47 29.5z" />
    <glyph glyph-name="utilde" unicode="&#x169;" horiz-adv-x="600" 
d="M620 554l-103 -554h-123l10 53q-80 -66 -174 -66q-81 0 -126.5 46.5t-45.5 118.5q0 40 12 105l55 297h133l-50 -271q-11 -57 -10 -96q0 -37 22 -57.5t60 -20.5q66 0 102.5 37.5t56.5 146.5l48 261h133zM558 687q-45 -56 -108 -56q-7 0 -60 15.5t-61 15.5q-20 0 -55 -30
l-38 85q20 21 47.5 34.5t49.5 13.5q13 0 57 -15.5t53 -15.5q21 0 34 5.5t47 29.5z" />
    <glyph glyph-name="Umacron" unicode="&#x16a;" 
d="M588 271q-25 -136 -107.5 -210t-195.5 -74q-89 0 -147.5 53.5t-58.5 135.5q0 44 10 95l86 468h137l-86 -468q-9 -48 -9 -70q0 -34 27 -58t65 -24q113 0 142 152l86 468h137zM581 826h-279l17 99h280z" />
    <glyph glyph-name="umacron" unicode="&#x16b;" horiz-adv-x="600" 
d="M620 554l-103 -554h-123l10 53q-80 -66 -174 -66q-81 0 -126.5 46.5t-45.5 118.5q0 40 12 105l55 297h133l-50 -271q-11 -57 -10 -96q0 -37 22 -57.5t60 -20.5q66 0 102.5 37.5t56.5 146.5l48 261h133zM531 651h-279l17 99h280z" />
    <glyph glyph-name="Ubreve" unicode="&#x16c;" 
d="M588 271q-25 -136 -107.5 -210t-195.5 -74q-89 0 -147.5 53.5t-58.5 135.5q0 44 10 95l86 468h137l-86 -468q-9 -48 -9 -70q0 -34 27 -58t65 -24q113 0 142 152l86 468h137zM627 943q-14 -61 -66.5 -98.5t-120.5 -37.5q-67 0 -105 31t-38 86q0 11 1 19h98q9 -42 61 -42
q47 0 71 42h99z" />
    <glyph glyph-name="ubreve" unicode="&#x16d;" horiz-adv-x="600" 
d="M620 554l-103 -554h-123l10 53q-80 -66 -174 -66q-81 0 -126.5 46.5t-45.5 118.5q0 40 12 105l55 297h133l-50 -271q-11 -57 -10 -96q0 -37 22 -57.5t60 -20.5q66 0 102.5 37.5t56.5 146.5l48 261h133zM574 768q-14 -61 -66.5 -98.5t-120.5 -37.5q-67 0 -105 31t-38 86
q0 11 1 19h98q9 -42 61 -42q47 0 71 42h99z" />
    <glyph glyph-name="Uring" unicode="&#x16e;" 
d="M588 271q-25 -136 -107.5 -210t-195.5 -74q-89 0 -147.5 53.5t-58.5 135.5q0 44 10 95l86 468h137l-86 -468q-9 -48 -9 -70q0 -34 27 -58t65 -24q113 0 142 152l86 468h137zM568 910q0 -54 -41.5 -94.5t-96.5 -40.5q-41 0 -67 25.5t-26 65.5q0 54 41.5 94.5t95.5 40.5
q40 0 67 -26t27 -65zM493 895q0 13 -10 23t-23 10q-19 0 -33.5 -15t-14.5 -34q0 -12 10 -21.5t24 -9.5q18 0 32.5 14.5t14.5 32.5z" />
    <glyph glyph-name="uring" unicode="&#x16f;" horiz-adv-x="600" 
d="M620 554l-103 -554h-123l10 53q-80 -66 -174 -66q-81 0 -126.5 46.5t-45.5 118.5q0 40 12 105l55 297h133l-50 -271q-11 -57 -10 -96q0 -37 22 -57.5t60 -20.5q66 0 102.5 37.5t56.5 146.5l48 261h133zM517 732q0 -54 -41.5 -94.5t-95.5 -40.5q-41 0 -67.5 25.5
t-26.5 65.5q0 54 41.5 94.5t96.5 40.5q39 0 66 -26t27 -65zM442 717q0 13 -10 23t-23 10q-19 0 -33.5 -15t-14.5 -34q0 -12 10 -21.5t24 -9.5q18 0 32.5 14.5t14.5 32.5z" />
    <glyph glyph-name="Uhungarumlaut" unicode="&#x170;" 
d="M588 271q-25 -136 -107.5 -210t-195.5 -74q-89 0 -147.5 53.5t-58.5 135.5q0 44 10 95l86 468h137l-86 -468q-9 -48 -9 -70q0 -34 27 -58t65 -24q113 0 142 152l86 468h137zM523 907l-244 -132l-38 79l230 142zM805 907l-243 -132l-39 79l231 142z" />
    <glyph glyph-name="uhungarumlaut" unicode="&#x171;" horiz-adv-x="600" 
d="M620 554l-103 -554h-123l10 53q-80 -66 -174 -66q-81 0 -126.5 46.5t-45.5 118.5q0 40 12 105l55 297h133l-50 -271q-11 -57 -10 -96q0 -37 22 -57.5t60 -20.5q66 0 102.5 37.5t56.5 146.5l48 261h133zM471 722l-244 -132l-38 79l230 142zM753 722l-243 -132l-39 79
l231 142z" />
    <glyph glyph-name="Uogonek" unicode="&#x172;" 
d="M588 271q-32 -177 -161 -249q-106 -57 -106 -117q0 -20 10 -34.5t28 -14.5q28 0 48 3l-18 -103q-28 -6 -62 -6q-45 0 -77 36.5t-32 79.5q0 60 78 121h-11q-89 0 -147.5 53.5t-58.5 135.5q0 44 10 95l86 468h137l-86 -468q-9 -48 -9 -70q0 -34 27 -58t65 -24
q113 0 142 152l86 468h137z" />
    <glyph glyph-name="uogonek" unicode="&#x173;" horiz-adv-x="600" 
d="M620 554l-103 -554q-50 -16 -81.5 -44t-31.5 -51q0 -20 10 -34.5t28 -14.5q28 0 48 3l-18 -103q-28 -6 -63 -6q-45 0 -76.5 36.5t-31.5 79.5q0 35 22 66t72 68l2 13q2 13 5 27l2 13q-80 -66 -174 -66q-81 0 -126.5 46.5t-45.5 118.5q0 40 12 105l55 297h133l-50 -271
q-11 -57 -10 -96q0 -37 22 -57.5t60 -20.5q66 0 102.5 37.5t56.5 146.5l48 261h133z" />
    <glyph glyph-name="Wcircumflex" unicode="&#x174;" horiz-adv-x="900" 
d="M1005 739l-353 -739h-109l-28 489l-213 -489h-108l-80 739h140l34 -516l222 516h100l28 -516l227 516h140zM772 806h-145l-41 64l-66 -64h-147l173 138h107z" />
    <glyph glyph-name="wcircumflex" unicode="&#x175;" horiz-adv-x="800" 
d="M858 554l-303 -554h-83l-38 359l-174 -359h-82l-95 554h143l36 -338l156 338h106l28 -338l164 338h142zM684 631h-145l-41 64l-66 -64h-147l173 138h107z" />
    <glyph glyph-name="Ycircumflex" unicode="&#x176;" horiz-adv-x="620" 
d="M733 739l-329 -466l-51 -273h-137l51 273l-157 466h148l100 -340l227 340h148zM634 806h-145l-41 64l-66 -64h-147l173 138h107z" />
    <glyph glyph-name="ycircumflex" unicode="&#x177;" horiz-adv-x="580" 
d="M641 554l-455 -739h-143l146 237l-110 502h152l56 -359l201 359h153zM573 631h-145l-41 64l-66 -64h-147l173 138h107z" />
    <glyph glyph-name="Ydieresis" unicode="&#x178;" horiz-adv-x="620" 
d="M733 739l-329 -466l-51 -273h-137l51 273l-157 466h148l100 -340l227 340h148zM415 941l-25 -132h-133l25 132h133zM625 941l-25 -132h-133l25 132h133z" />
    <glyph glyph-name="Zacute" unicode="&#x179;" horiz-adv-x="500" 
d="M450 0h-462l21 117l372 490h-265l24 132h428l-23 -124l-368 -483h297zM568 894l-243 -116l-40 88l236 127z" />
    <glyph glyph-name="zacute" unicode="&#x17a;" horiz-adv-x="460" 
d="M435 118l-22 -118h-423l22 118l305 318h-217l22 118h376l-22 -118l-304 -318h263zM525 719l-243 -116l-40 88l236 127z" />
    <glyph glyph-name="Zdotaccent" unicode="&#x17b;" horiz-adv-x="500" 
d="M450 0h-462l21 117l372 490h-265l24 132h428l-23 -124l-368 -483h297zM458 941l-25 -132h-133l25 132h133z" />
    <glyph glyph-name="zdotaccent" unicode="&#x17c;" horiz-adv-x="460" 
d="M435 118l-22 -118h-423l22 118l305 318h-217l22 118h376l-22 -118l-304 -318h263zM416 766l-25 -132h-133l25 132h133z" />
    <glyph glyph-name="Zcaron" unicode="&#x17d;" horiz-adv-x="500" 
d="M450 0h-462l21 117l372 490h-265l24 132h428l-23 -124l-368 -483h297zM591 944l-173 -138h-107l-119 138h145l41 -64l66 64h147z" />
    <glyph glyph-name="zcaron" unicode="&#x17e;" horiz-adv-x="460" 
d="M435 118l-22 -118h-423l22 118l305 318h-217l22 118h376l-22 -118l-304 -318h263zM549 769l-173 -138h-107l-119 138h145l41 -64l66 64h147z" />
    <glyph glyph-name="longs" unicode="&#x17f;" horiz-adv-x="280" 
d="M383 737l-24 -126h-7h-11q-71 0 -80 -67l-101 -544h-133l80 433h-48l21 111h48q23 87 68 132q63 63 148 63q17 0 39 -2z" />
    <glyph glyph-name="Ereversed" unicode="&#x18e;" horiz-adv-x="520" 
d="M435 0h-397l25 132h260l32 171h-249l25 132h249l30 172h-260l25 132h397z" />
    <glyph glyph-name="florin" unicode="&#x192;" horiz-adv-x="560" 
d="M616 817l-41 -117q-28 0 -47.5 -6t-34.5 -23.5t-24.5 -35t-26.5 -53.5h92l-40 -112h-93l-130 -364q-30 -85 -53 -126t-56 -67q-78 -62 -182 -62q-29 0 -54 7l41 116h12q10 -1 22 -1q56 0 87 31.5t64 123.5l123 342h-94l40 112h95l10 26q23 60 37.5 85t41.5 51
q36 35 83 55.5t90 20.5q11 0 38 -3z" />
    <glyph glyph-name="Ohorn" unicode="&#x1a0;" horiz-adv-x="856" 
d="M924 739q-15 -132 -95 -195q16 -48 16 -105q0 -117 -63.5 -221.5t-170 -167.5t-225.5 -63q-142 0 -233.5 88t-91.5 225q0 76 32.5 154.5t88.5 140.5q70 76 159.5 116.5t187.5 40.5q80 0 145.5 -31.5t108.5 -87.5q42 44 46 106h95zM705 419q0 88 -57 144.5t-146 56.5
q-144 0 -235 -119q-66 -85 -66 -178q0 -89 59 -146.5t150 -57.5q68 0 128.5 31t103.5 88q63 84 63 181z" />
    <glyph glyph-name="ohorn" unicode="&#x1a1;" horiz-adv-x="722" 
d="M752 554q-16 -142 -108 -205q0 -3 0.5 -11t0.5 -11q0 -134 -108 -237t-249 -103q-103 0 -172.5 67t-69.5 167q0 137 107 241.5t248 104.5q70 0 126 -31t86 -86q40 43 44 104h95zM508 309q0 59 -37 97.5t-93 38.5q-76 0 -135.5 -61t-59.5 -140q0 -58 37.5 -96.5
t94.5 -38.5q75 0 134 61.5t59 138.5z" />
    <glyph glyph-name="Uhorn" unicode="&#x1af;" horiz-adv-x="732" 
d="M819 739q-12 -110 -63 -165t-127 -78l-41 -225q-22 -122 -85 -189q-41 -44 -100 -69.5t-118 -25.5q-89 0 -147.5 53.5t-58.5 135.5q0 44 10 95l86 468h137l-86 -468q-9 -48 -9 -70q0 -34 27 -58t65 -24q64 0 104 50q26 33 38 102l86 468h137l-24 -129q67 45 74 129h95z
" />
    <glyph glyph-name="uhorn" unicode="&#x1b0;" horiz-adv-x="733" 
d="M772 554q-7 -60 -26 -104.5t-48 -71.5t-58 -43t-66 -26l-57 -309h-123l10 53q-80 -66 -174 -66q-81 0 -125 44q-20 21 -33.5 55t-13.5 66q0 40 12 105l55 297h133l-50 -271q-10 -50 -10 -96q0 -37 22 -57.5t60 -20.5q73 0 113 51q27 32 46 133l48 261h133l-25 -135
q76 47 82 135h95z" />
    <glyph glyph-name="eturned" unicode="&#x1dd;" 
d="M636 331q0 -136 -106.5 -240t-245.5 -104q-104 0 -170.5 63t-66.5 162q0 76 20 124h429q0 48 -36.5 78.5t-93.5 30.5q-80 0 -135 -55h-145q45 82 125 129.5t174 47.5q111 0 181 -66t70 -170zM478 218h-307q6 -109 134 -109q58 0 106 30t67 79z" />
    <glyph glyph-name="Gcaron" unicode="&#x1e6;" horiz-adv-x="840" 
d="M858 377q-10 -100 -77 -190.5t-169.5 -145t-211.5 -54.5q-149 0 -244 88t-95 225q0 116 65.5 221t174 168t228.5 63t211 -67t108 -163h-161q-60 98 -180 98q-125 0 -215.5 -89.5t-90.5 -206.5q0 -90 59.5 -147.5t157.5 -57.5q72 0 135.5 34.5t104.5 95.5h-306l24 128h482
zM764 944l-173 -138h-107l-119 138h145l41 -64l66 64h147z" />
    <glyph glyph-name="gcaron" unicode="&#x1e7;" horiz-adv-x="660" 
d="M601 105q-60 -326 -349 -326q-204 0 -252 176h151q23 -32 52.5 -45.5t76.5 -13.5q73 0 118.5 42t69.5 135q-48 -46 -93 -66t-104 -20q-103 0 -164 62.5t-61 167.5q0 143 99.5 246.5t235.5 103.5q58 0 96.5 -19.5t66.5 -63.5l13 70h127zM504 315q0 59 -36 94.5t-95 35.5
q-83 0 -136.5 -60t-53.5 -152q0 -58 34 -91t94 -33q83 0 138 61t55 145zM618 769l-173 -138h-107l-119 138h145l41 -64l66 64h147z" />
    <glyph glyph-name="Oogonek" unicode="&#x1ea;" horiz-adv-x="840" 
d="M845 439q0 -131 -80 -245.5t-205 -169.5q-30 -13 -48.5 -22.5t-41.5 -24.5t-34 -33t-11 -39q0 -20 10 -34.5t28 -14.5q28 0 48 3l-18 -103q-28 -6 -62 -6q-45 0 -77 36.5t-32 79.5q0 60 78 121h-14q-142 0 -233.5 88t-91.5 225q0 118 67 223.5t175.5 167t225.5 61.5
q138 0 227 -88t89 -225zM705 419q0 88 -57 144.5t-146 56.5q-117 0 -209 -90.5t-92 -206.5q0 -89 59 -146.5t150 -57.5q116 0 205.5 89.5t89.5 210.5z" />
    <glyph glyph-name="oogonek" unicode="&#x1eb;" 
d="M645 327q0 -88 -50.5 -167t-131.5 -126q-42 -24 -67 -39.5t-50 -41t-25 -48.5q0 -20 10 -34.5t28 -14.5q28 0 48 3l-18 -103q-28 -6 -62 -6q-45 0 -77 36.5t-32 79.5q0 60 77 121h-7q-103 0 -172.5 67t-69.5 167q0 137 107 241.5t248 104.5q106 0 175 -68t69 -172z
M508 309q0 59 -37 97.5t-93 38.5q-76 0 -135.5 -61t-59.5 -140q0 -58 37.5 -96.5t94.5 -38.5q75 0 134 61.5t59 138.5z" />
    <glyph glyph-name="Gacute" unicode="&#x1f4;" horiz-adv-x="840" 
d="M858 377q-10 -100 -77 -190.5t-169.5 -145t-211.5 -54.5q-149 0 -244 88t-95 225q0 116 65.5 221t174 168t228.5 63t211 -67t108 -163h-161q-60 98 -180 98q-125 0 -215.5 -89.5t-90.5 -206.5q0 -90 59.5 -147.5t157.5 -57.5q72 0 135.5 34.5t104.5 95.5h-306l24 128h482
zM741 894l-243 -116l-40 88l236 127z" />
    <glyph glyph-name="gacute" unicode="&#x1f5;" horiz-adv-x="660" 
d="M601 105q-60 -326 -349 -326q-204 0 -252 176h151q23 -32 52.5 -45.5t76.5 -13.5q73 0 118.5 42t69.5 135q-48 -46 -93 -66t-104 -20q-103 0 -164 62.5t-61 167.5q0 143 99.5 246.5t235.5 103.5q58 0 96.5 -19.5t66.5 -63.5l13 70h127zM504 315q0 59 -36 94.5t-95 35.5
q-83 0 -136.5 -60t-53.5 -152q0 -58 34 -91t94 -33q83 0 138 61t55 145zM594 719l-243 -116l-40 88l236 127z" />
    <glyph glyph-name="Aringacute" unicode="&#x1fa;" horiz-adv-x="740" 
d="M703 0h-151l-44 191h-263l-117 -191h-151l445 739h108zM478 323l-38 223l-120 -223h158zM735 1137l-243 -116l-40 88l236 127zM619 910q0 -54 -41.5 -94.5t-96.5 -40.5q-41 0 -67 25.5t-26 65.5q0 54 41.5 94.5t95.5 40.5q40 0 67 -26t27 -65zM544 895q0 13 -10 23
t-23 10q-19 0 -33.5 -15t-14.5 -34q0 -12 10 -21.5t24 -9.5q18 0 32.5 14.5t14.5 32.5z" />
    <glyph glyph-name="aringacute" unicode="&#x1fb;" horiz-adv-x="660" 
d="M586 0h-122l13 72q-89 -85 -200 -85q-105 0 -168.5 62t-63.5 164q0 145 102 249.5t243 104.5q116 0 163 -87l13 74h122zM514 313q0 61 -36 96.5t-98 35.5q-80 0 -139 -61.5t-59 -143.5q0 -60 36.5 -95.5t98.5 -35.5q83 0 140 58.5t57 145.5zM647 952l-243 -116l-40 88
l236 127zM531 725q0 -54 -41.5 -94.5t-96.5 -40.5q-41 0 -67 25.5t-26 65.5q0 54 41.5 94.5t95.5 40.5q40 0 67 -26t27 -65zM456 710q0 13 -10 23t-23 10q-19 0 -33.5 -15t-14.5 -34q0 -12 10 -21.5t24 -9.5q18 0 32.5 14.5t14.5 32.5z" />
    <glyph glyph-name="AEacute" unicode="&#x1fc;" horiz-adv-x="900" 
d="M926 607h-218l-33 -172h207l-24 -132h-207l-32 -171h218l-24 -132h-355l35 191h-194l-148 -191h-164l624 739h339zM518 323l35 190l-150 -190h115zM878 894l-243 -116l-40 88l236 127z" />
    <glyph glyph-name="aeacute" unicode="&#x1fd;" horiz-adv-x="1080" 
d="M1078 342q0 -58 -27 -123h-428q6 -50 42.5 -80t92.5 -30q74 0 128 55h145q-44 -80 -123 -128.5t-165 -48.5q-55 0 -92 16t-64 57l-12 -60h-122l12 60q-44 -41 -82.5 -57t-94.5 -16q-108 0 -175 63.5t-67 165.5q0 140 103.5 245.5t240.5 105.5q55 0 91 -16t65 -52l10 55
h122l-10 -55q76 68 184 68q97 0 161.5 -64t64.5 -161zM504 312q0 61 -38 97t-91 36q-79 0 -135.5 -60.5t-56.5 -144.5q0 -59 35.5 -95t94.5 -36q77 0 134 60.5t57 142.5zM942 337q-11 62 -42 85t-88 23q-118 0 -174 -108h304zM828 719l-243 -116l-40 88l236 127z" />
    <glyph glyph-name="Oslashacute" unicode="&#x1fe;" horiz-adv-x="840" 
d="M851 438q0 -110 -62.5 -214.5t-169.5 -170.5t-226 -66q-82 0 -164 36l-88 -103l-80 69l83 98q-78 91 -78 210q0 117 64.5 222.5t171 169t224.5 63.5q81 0 158 -33l92 107l81 -69l-88 -102q82 -79 82 -217zM587 606q-41 14 -83 14q-117 0 -207.5 -90.5t-90.5 -207.5
q0 -56 36 -121zM711 415q0 78 -38 127l-348 -406q43 -17 89 -17q119 0 208 89t89 207zM741 894l-243 -116l-40 88l236 127z" />
    <glyph glyph-name="oslashacute" unicode="&#x1ff;" horiz-adv-x="660" 
d="M648 328q0 -132 -108 -236.5t-244 -104.5q-58 0 -114 24l-63 -75l-73 62l60 70q-57 71 -57 153q0 137 107 241.5t247 104.5q59 0 109 -23l65 76l73 -62l-60 -71q58 -69 58 -159zM511 308q0 46 -16 69l-222 -261q19 -7 41 -7q77 0 137 60.5t60 138.5zM423 438q-28 7 -45 7
q-74 0 -133 -62t-59 -140q0 -32 14 -65zM618 719l-243 -116l-40 88l236 127z" />
    <glyph glyph-name="Adblgrave" unicode="&#x200;" horiz-adv-x="740" 
d="M703 0h-151l-44 191h-263l-117 -191h-151l445 739h108zM478 323l-38 223l-120 -223h158zM702 854l-67 -79l-195 132l85 89zM420 854l-68 -79l-194 132l84 89z" />
    <glyph glyph-name="adblgrave" unicode="&#x201;" horiz-adv-x="660" 
d="M586 0h-122l13 72q-89 -85 -200 -85q-105 0 -168.5 62t-63.5 164q0 145 102 249.5t243 104.5q116 0 163 -87l13 74h122zM514 313q0 61 -36 96.5t-98 35.5q-80 0 -139 -61.5t-59 -143.5q0 -60 36.5 -95.5t98.5 -35.5q83 0 140 58.5t57 145.5zM614 669l-67 -79l-195 132
l85 89zM332 669l-68 -79l-194 132l84 89z" />
    <glyph glyph-name="Edblgrave" unicode="&#x204;" horiz-adv-x="520" 
d="M548 607h-260l-33 -172h249l-24 -132h-249l-32 -171h260l-24 -132h-397l137 739h397zM600 854l-67 -79l-195 132l85 89zM318 854l-68 -79l-194 132l84 89z" />
    <glyph glyph-name="edblgrave" unicode="&#x205;" 
d="M615 218h-429q0 -48 36.5 -78.5t93.5 -30.5q80 0 135 55h145q-45 -82 -125 -129.5t-174 -47.5q-111 0 -181 66t-70 170q0 136 106.5 240t245.5 104q104 0 170.5 -63t66.5 -162q0 -76 -20 -124zM511 336q-6 109 -134 109q-58 0 -106 -30t-67 -79h307zM622 669l-67 -79
l-195 132l85 89zM340 669l-68 -79l-194 132l84 89z" />
    <glyph glyph-name="Idblgrave" unicode="&#x208;" horiz-adv-x="280" 
d="M312 739l-137 -739h-137l137 739h137zM470 854l-67 -79l-195 132l85 89zM188 854l-68 -79l-194 132l84 89z" />
    <glyph glyph-name="idblgrave" unicode="&#x209;" horiz-adv-x="240" 
d="M260 554l-103 -554h-133l103 554h133zM420 669l-67 -79l-195 132l85 89zM138 669l-68 -79l-194 132l84 89z" />
    <glyph glyph-name="Odblgrave" unicode="&#x20c;" horiz-adv-x="840" 
d="M845 439q0 -117 -63.5 -221.5t-170 -167.5t-225.5 -63q-142 0 -233.5 88t-91.5 225q0 118 67 223.5t175.5 167t225.5 61.5q138 0 227 -88t89 -225zM705 419q0 88 -57 144.5t-146 56.5q-117 0 -209 -90.5t-92 -206.5q0 -89 59 -146.5t150 -57.5q116 0 205.5 89.5
t89.5 210.5zM753 854l-67 -79l-195 132l85 89zM471 854l-68 -79l-194 132l84 89z" />
    <glyph glyph-name="odblgrave" unicode="&#x20d;" 
d="M645 327q0 -134 -108 -237t-249 -103q-103 0 -172.5 67t-69.5 167q0 137 107 241.5t248 104.5q106 0 175 -68t69 -172zM508 309q0 59 -37 97.5t-93 38.5q-76 0 -135.5 -61t-59.5 -140q0 -58 37.5 -96.5t94.5 -38.5q75 0 134 61.5t59 138.5zM625 669l-67 -79l-195 132
l85 89zM343 669l-68 -79l-194 132l84 89z" />
    <glyph glyph-name="Rdblgrave" unicode="&#x210;" horiz-adv-x="580" 
d="M538 0h-169l-142 283l-52 -283h-137l137 739h213q239 0 239 -186q0 -104 -61.5 -178t-176.5 -102zM487 521q0 46 -29.5 66t-108.5 20h-61l-41 -221h67q91 0 132 37.5t41 97.5zM614 854l-67 -79l-195 132l85 89zM332 854l-68 -79l-194 132l84 89z" />
    <glyph glyph-name="rdblgrave" unicode="&#x211;" horiz-adv-x="320" 
d="M382 567l-24 -128q-59 -1 -97.5 -36t-46.5 -95l-57 -308h-133l103 554h122l-10 -54q32 39 63 53.5t80 13.5zM475 669l-67 -79l-195 132l85 89zM193 669l-68 -79l-194 132l84 89z" />
    <glyph glyph-name="Udblgrave" unicode="&#x214;" 
d="M588 271q-25 -136 -107.5 -210t-195.5 -74q-89 0 -147.5 53.5t-58.5 135.5q0 44 10 95l86 468h137l-86 -468q-9 -48 -9 -70q0 -34 27 -58t65 -24q113 0 142 152l86 468h137zM651 854l-67 -79l-195 132l85 89zM369 854l-68 -79l-194 132l84 89z" />
    <glyph glyph-name="udblgrave" unicode="&#x215;" horiz-adv-x="600" 
d="M620 554l-103 -554h-123l10 53q-80 -66 -174 -66q-81 0 -126.5 46.5t-45.5 118.5q0 40 12 105l55 297h133l-50 -271q-11 -57 -10 -96q0 -37 22 -57.5t60 -20.5q66 0 102.5 37.5t56.5 146.5l48 261h133zM599 669l-67 -79l-195 132l85 89zM317 669l-68 -79l-194 132l84 89z
" />
    <glyph glyph-name="uni0218" unicode="&#x218;" horiz-adv-x="520" 
d="M508 265q0 -109 -86 -193.5t-196 -84.5q-93 0 -150 51.5t-57 132.5q0 8 2 40h143q-1 -8 -1 -21q0 -33 22.5 -52t62.5 -19q50 0 85 31.5t35 76.5q0 38 -22 57q-15 12 -32 20.5t-86 36.5q-121 48 -121 165q0 97 77.5 171.5t177.5 74.5q80 0 133.5 -46.5t53.5 -116.5
q0 -22 -4 -47h-141q0 44 -15.5 61t-50.5 17q-38 0 -64.5 -27t-26.5 -64q0 -29 30 -51q15 -11 76 -33q83 -31 119 -73t36 -107zM294 -53l-94 -192h-104l93 192h105z" />
    <glyph glyph-name="uni0219" unicode="&#x219;" horiz-adv-x="440" 
d="M425 209q0 -88 -71.5 -155t-165.5 -67q-75 0 -122 41.5t-47 108.5q0 9 2 39h134q2 -67 62 -67q29 0 50 19t21 45q0 20 -15.5 31.5t-66.5 29.5q-73 25 -99.5 54t-26.5 82q0 80 65.5 138.5t154.5 58.5q61 0 106.5 -38t45.5 -90q0 -15 -3 -38h-130q-2 44 -44 44
q-23 0 -40.5 -16.5t-17.5 -38.5q0 -17 12 -25.5t70 -26.5q71 -23 98.5 -51t27.5 -78zM266 -53l-94 -192h-104l93 192h105z" />
    <glyph glyph-name="uni021A" unicode="&#x21a;" horiz-adv-x="420" 
d="M501 607h-139l-113 -607h-137l113 607h-136l24 132h412zM252 -53l-94 -192h-104l93 192h105z" />
    <glyph glyph-name="uni021B" unicode="&#x21b;" horiz-adv-x="300" 
d="M360 554l-23 -121h-80l-80 -433h-133l80 433h-65l23 121h65l34 185h133l-34 -185h80zM191 -53l-94 -192h-104l93 192h105z" />
    <glyph glyph-name="ereversed" unicode="&#x258;" 
d="M616 223q-39 -104 -133.5 -170t-205.5 -66q-94 0 -156.5 47.5t-76.5 129.5h145q35 -55 114 -55q57 0 105 30.5t66 78.5h-429q-3 47 26 124q37 99 126.5 162t193.5 63q91 0 155.5 -49t82 -125.5t-12.5 -169.5zM499 336q-1 49 -37.5 79t-94.5 30q-128 0 -175 -109h307z" />
    <glyph glyph-name="schwa" unicode="&#x259;" 
d="M636 331q0 -136 -106.5 -240t-245.5 -104q-104 0 -170.5 63t-66.5 162q0 76 20 124h429q0 48 -36.5 78.5t-93.5 30.5q-80 0 -135 -55h-145q45 82 125 129.5t174 47.5q111 0 181 -66t70 -170zM478 218h-307q6 -109 134 -109q58 0 106 30t67 79z" />
    <glyph glyph-name="ringhalfright" unicode="&#x2be;" horiz-adv-x="505" 
d="M520 556q0 -94 -73.5 -166.5t-168.5 -72.5q-66 0 -111.5 35t-57.5 102q-1 4 2 7.5t7 3.5h100q6 0 6 -4q16 -47 70 -47q49 0 84 37t35 87q0 38 -22 61t-59 23q-54 0 -85 -44q-4 -4 -8 -4h-100q-11 0 -6 11q37 65 93 100t123 35q73 0 122 -47t49 -117z" />
    <glyph glyph-name="ringhalfleft" unicode="&#x2bf;" horiz-adv-x="505" 
d="M504 452q-37 -65 -93 -100t-123 -35q-73 0 -122 47t-49 117q-1 94 72.5 166.5t169.5 72.5q66 0 111.5 -35t57.5 -102q1 -4 -2 -7.5t-7 -3.5h-100q-6 0 -6 4q-16 47 -70 47q-49 0 -84 -37t-35 -87q0 -38 22 -61t59 -23q54 0 85 44q4 4 8 4h100q5 0 6.5 -3.5t-0.5 -7.5z
" />
    <glyph glyph-name="circumflex" unicode="&#x2c6;" horiz-adv-x="540" 
d="M556 631h-145l-41 64l-66 -64h-147l173 138h107z" />
    <glyph glyph-name="caron" unicode="&#x2c7;" horiz-adv-x="540" 
d="M582 769l-173 -138h-107l-119 138h145l41 -64l66 64h147z" />
    <glyph glyph-name="breve" unicode="&#x2d8;" horiz-adv-x="480" 
d="M514 768q-14 -61 -66.5 -98.5t-120.5 -37.5q-67 0 -105 31t-38 86q0 11 1 19h98q9 -42 61 -42q47 0 71 42h99z" />
    <glyph glyph-name="dotaccent" unicode="&#x2d9;" horiz-adv-x="280" 
d="M319 766l-25 -132h-133l25 132h133z" />
    <glyph glyph-name="ring" unicode="&#x2da;" horiz-adv-x="360" 
d="M397 732q0 -54 -41.5 -94.5t-95.5 -40.5q-41 0 -67.5 25.5t-26.5 65.5q0 54 41.5 94.5t96.5 40.5q39 0 66 -26t27 -65zM322 717q0 13 -10 23t-23 10q-19 0 -33.5 -15t-14.5 -34q0 -12 10 -21.5t24 -9.5q18 0 32.5 14.5t14.5 32.5z" />
    <glyph glyph-name="ogonek" unicode="&#x2db;" horiz-adv-x="340" 
d="M236 0q-50 -16 -81.5 -44t-31.5 -51q0 -20 10 -34.5t28 -14.5q28 0 48 3l-18 -103q-29 -6 -63 -6q-45 0 -76.5 36.5t-31.5 79.5q0 35 22 66t72 68h122z" />
    <glyph glyph-name="tilde" unicode="&#x2dc;" horiz-adv-x="480" 
d="M498 687q-45 -56 -108 -56q-7 0 -60 15.5t-61 15.5q-20 0 -55 -30l-38 85q20 21 47.5 34.5t49.5 13.5q13 0 56.5 -15.5t53.5 -15.5q21 0 34 5.5t47 29.5z" />
    <glyph glyph-name="hungarumlaut" unicode="&#x2dd;" horiz-adv-x="700" 
d="M521 722l-244 -132l-38 79l230 142zM803 722l-243 -132l-39 79l231 142z" />
    <glyph glyph-name="uni0300" unicode="&#x300;" horiz-adv-x="0" 
d="M-139 691l-73 -88l-200 116l84 99z" />
    <glyph glyph-name="uni0301" unicode="&#x301;" horiz-adv-x="0" 
d="M-42 719l-243 -116l-40 88l236 127z" />
    <glyph glyph-name="uni0302" unicode="&#x302;" horiz-adv-x="0" 
d="M-44 631h-145l-41 64l-66 -64h-147l173 138h107z" />
    <glyph glyph-name="uni0303" unicode="&#x303;" horiz-adv-x="0" 
d="M-72 687q-45 -56 -108 -56q-7 0 -60 15.5t-61 15.5q-20 0 -55 -30l-38 85q20 21 47.5 34.5t49.5 13.5q13 0 56.5 -15.5t53.5 -15.5q21 0 34 5.5t47 29.5z" />
    <glyph glyph-name="uni0304" unicode="&#x304;" horiz-adv-x="0" 
d="M-99 651h-279l17 99h280z" />
    <glyph glyph-name="uni0306" unicode="&#x306;" horiz-adv-x="0" 
d="M-56 768q-14 -61 -66.5 -98.5t-120.5 -37.5q-67 0 -105 31t-38 86q0 11 1 19h98q9 -42 61 -42q47 0 71 42h99z" />
    <glyph glyph-name="uni0307" unicode="&#x307;" horiz-adv-x="0" 
d="M-151 766l-25 -132h-133l25 132h133z" />
    <glyph glyph-name="uni0308" unicode="&#x308;" horiz-adv-x="0" 
d="M-262 766l-25 -132h-133l25 132h133zM-52 766l-25 -132h-133l25 132h133z" />
    <glyph glyph-name="uni0309" unicode="&#x309;" horiz-adv-x="0" 
d="M-88 774q0 -31 -16 -54.5t-62 -51.5q-26 -16 -34.5 -28.5t-14.5 -41.5h-85q12 53 30 77t65 52q30 17 30 38q0 10 -10 16.5t-25 6.5q-20 0 -32 -9.5t-23 -34.5h-86q17 54 59.5 86.5t97.5 32.5q47 0 76.5 -24.5t29.5 -64.5z" />
    <glyph glyph-name="uni030A" unicode="&#x30a;" horiz-adv-x="0" 
d="M-113 732q0 -54 -41.5 -94.5t-95.5 -40.5q-41 0 -67.5 25.5t-26.5 65.5q0 54 41.5 94.5t96.5 40.5q39 0 66 -26t27 -65zM-188 717q0 13 -10 23t-23 10q-19 0 -33.5 -15t-14.5 -34q0 -12 10 -21.5t24 -9.5q18 0 32.5 14.5t14.5 32.5z" />
    <glyph glyph-name="uni030B" unicode="&#x30b;" horiz-adv-x="0" 
d="M-159 722l-244 -132l-38 79l230 142zM123 722l-243 -132l-39 79l231 142z" />
    <glyph glyph-name="uni030C" unicode="&#x30c;" horiz-adv-x="0" 
d="M-18 769l-173 -138h-107l-119 138h145l41 -64l66 64h147z" />
    <glyph glyph-name="uni030F" unicode="&#x30f;" horiz-adv-x="0" 
d="M-31 669l-67 -79l-195 132l85 89zM-313 669l-68 -79l-194 132l84 89z" />
    <glyph glyph-name="uni0311" unicode="&#x311;" horiz-adv-x="0" 
d="M-81 632h-98q-9 42 -61 42q-47 0 -71 -42h-99q14 61 66.5 98.5t120.5 37.5q67 0 105 -31t38 -86q0 -11 -1 -19z" />
    <glyph glyph-name="uni0323" unicode="&#x323;" horiz-adv-x="0" 
d="M-308 -80l-25 -132h-133l25 132h133z" />
    <glyph glyph-name="uni0326" unicode="&#x326;" horiz-adv-x="0" 
d="M-289 -53l-94 -192h-104l93 192h105z" />
    <glyph glyph-name="uni032E" unicode="&#x32e;" horiz-adv-x="0" 
d="M-210 -78q-14 -61 -66.5 -98.5t-120.5 -37.5q-67 0 -105 31t-38 86q0 11 1 19h98q9 -42 61 -42q47 0 71 42h99z" />
    <glyph glyph-name="uni032F" unicode="&#x32f;" horiz-adv-x="0" 
d="M-235 -214h-98q-9 42 -61 42q-47 0 -71 -42h-99q14 61 66.5 98.5t120.5 37.5q67 0 105 -31t38 -86q0 -11 -1 -19z" />
    <glyph glyph-name="uni0330" unicode="&#x330;" horiz-adv-x="0" 
d="M-229 -159q-45 -56 -108 -56q-7 0 -60 15.5t-61 15.5q-20 0 -55 -30l-38 85q20 21 47.5 34.5t49.5 13.5q12 0 56 -15.5t54 -15.5q21 0 34 5.5t47 29.5z" />
    <glyph glyph-name="uni0331" unicode="&#x331;" horiz-adv-x="0" 
d="M-256 -195h-279l17 99h280z" />
    <glyph glyph-name="uni0332" unicode="&#x332;" horiz-adv-x="0" 
d="M-256 -195h-279l17 99h280z" />
    <glyph glyph-name="Alpha" unicode="&#x391;" horiz-adv-x="740" 
d="M703 0h-151l-44 191h-263l-117 -191h-151l445 739h108zM478 323l-38 223l-120 -223h158z" />
    <glyph glyph-name="Beta" unicode="&#x392;" horiz-adv-x="580" 
d="M563 264q0 -115 -87 -189.5t-241 -74.5h-197l137 739h153q84 0 123 -7t68 -28q58 -43 58 -124q0 -126 -110 -177q52 -22 74 -54t22 -85zM423 241q0 42 -29.5 60.5t-94.5 18.5h-65l-35 -188h68q156 0 156 109zM437 549q0 58 -94 58h-56l-28 -153h44q134 0 134 95z" />
    <glyph glyph-name="Gamma" unicode="&#x393;" horiz-adv-x="480" 
d="M527 607h-239l-113 -607h-137l137 739h376z" />
    <glyph glyph-name="Delta" unicode="&#x394;" horiz-adv-x="606" 
d="M622 -1h-655l391 684h114zM449 134l-67 361l-194 -361h261z" />
    <glyph glyph-name="Epsilon" unicode="&#x395;" horiz-adv-x="520" 
d="M548 607h-260l-33 -172h249l-24 -132h-249l-32 -171h260l-24 -132h-397l137 739h397z" />
    <glyph glyph-name="Zeta" unicode="&#x396;" horiz-adv-x="500" 
d="M450 0h-462l21 117l372 490h-265l24 132h428l-23 -124l-368 -483h297z" />
    <glyph glyph-name="Eta" unicode="&#x397;" horiz-adv-x="680" 
d="M713 739l-137 -739h-137l57 310h-264l-57 -310h-137l137 739h137l-55 -297h264l55 297h137z" />
    <glyph glyph-name="Theta" unicode="&#x398;" horiz-adv-x="840" 
d="M845 439q0 -117 -63.5 -221.5t-170 -167.5t-225.5 -63q-142 0 -233.5 88t-91.5 225q0 118 67 223.5t175.5 167t225.5 61.5q138 0 227 -88t89 -225zM705 419q0 88 -57 144.5t-146 56.5q-117 0 -209 -90.5t-92 -206.5q0 -89 59 -146.5t150 -57.5q116 0 205.5 89.5
t89.5 210.5zM583 301h-285l25 138h285z" />
    <glyph glyph-name="Iota" unicode="&#x399;" horiz-adv-x="280" 
d="M312 739l-137 -739h-137l137 739h137z" />
    <glyph glyph-name="Kappa" unicode="&#x39a;" horiz-adv-x="620" 
d="M706 739l-344 -363l207 -376h-164l-170 325l-60 -325h-137l137 739h137l-59 -319l289 319h164z" />
    <glyph glyph-name="Lambda" unicode="&#x39b;" horiz-adv-x="740" 
d="M703 0h-151l-112 546l-312 -546h-151l445 739h108z" />
    <glyph glyph-name="Mu" unicode="&#x39c;" horiz-adv-x="900" 
d="M947 739l-137 -739h-137l103 554l-296 -554h-112l-90 554l-103 -554h-137l137 739h188l95 -560l301 560h188z" />
    <glyph glyph-name="Nu" unicode="&#x39d;" horiz-adv-x="740" 
d="M774 739l-137 -739h-153l-209 537l-100 -537h-137l137 739h156l206 -538l100 538h137z" />
    <glyph glyph-name="Xi" unicode="&#x39e;" horiz-adv-x="680" 
d="M697 601h-551l25 138h552zM501 301h-271l26 138h271zM586 0h-552l26 138h551z" />
    <glyph glyph-name="Omicron" unicode="&#x39f;" horiz-adv-x="840" 
d="M845 439q0 -117 -63.5 -221.5t-170 -167.5t-225.5 -63q-142 0 -233.5 88t-91.5 225q0 118 67 223.5t175.5 167t225.5 61.5q138 0 227 -88t89 -225zM705 419q0 88 -57 144.5t-146 56.5q-117 0 -209 -90.5t-92 -206.5q0 -89 59 -146.5t150 -57.5q116 0 205.5 89.5
t89.5 210.5z" />
    <glyph glyph-name="Pi" unicode="&#x3a0;" horiz-adv-x="790" 
d="M538 0h-141l97 549h-230l-97 -549h-141l121 684h512z" />
    <glyph glyph-name="Rho" unicode="&#x3a1;" horiz-adv-x="560" 
d="M609 562q0 -57 -24 -114.5t-64 -95.5q-46 -43 -95 -57t-155 -14h-44l-52 -281h-137l137 739h183q134 0 182 -34q69 -49 69 -143zM469 529q0 44 -26.5 61t-108.5 17h-46l-37 -195h40q86 0 132 27t46 90z" />
    <glyph glyph-name="Sigma" unicode="&#x3a3;" horiz-adv-x="580" 
d="M421 0h-441l19 115l180 236l-89 211l22 122h410l-24 -135h-240l83 -198l-167 -217h271z" />
    <glyph glyph-name="Tau" unicode="&#x3a4;" horiz-adv-x="420" 
d="M501 607h-139l-113 -607h-137l113 607h-136l24 132h412z" />
    <glyph glyph-name="Upsilon" unicode="&#x3a5;" horiz-adv-x="620" 
d="M733 739l-329 -466l-51 -273h-137l51 273l-157 466h148l100 -340l227 340h148z" />
    <glyph glyph-name="Phi" unicode="&#x3a6;" horiz-adv-x="848" 
d="M832 370q-19 -104 -117.5 -169.5t-229.5 -80.5l-23 -120h-137l23 120q-126 15 -200.5 80.5t-55.5 169.5q20 103 118.5 168.5t229.5 80.5l22 120h137l-22 -120q126 -15 200.5 -80.5t54.5 -168.5zM694 370q10 52 -30 78.5t-112 33.5l-42 -225q166 15 184 113zM415 482
q-166 -15 -185 -112q-10 -53 30.5 -79.5t112.5 -33.5z" />
    <glyph glyph-name="Chi" unicode="&#x3a7;" horiz-adv-x="680" 
d="M783 739l-325 -371l188 -368h-159l-130 255l-219 -255h-163l322 368l-185 371h163l124 -258l225 258h159z" />
    <glyph glyph-name="Psi" unicode="&#x3a8;" horiz-adv-x="897" 
d="M916 554q-24 -130 -135.5 -224.5t-253.5 -116.5l-40 -213h-137l40 213q-135 22 -211 116.5t-52 224.5l34 185h138l-34 -185q-14 -75 29 -129t121 -72l72 386h137l-72 -386q85 18 148.5 72t77.5 129l34 185h138z" />
    <glyph glyph-name="Omega" unicode="&#x3a9;" horiz-adv-x="786" 
d="M778 339q-11 -61 -40.5 -116.5t-70.5 -85.5h59l-24 -138h-249l9 135q66 27 115 81t61 124q4 28 4 42q0 67 -42 116q-53 62 -139 65l1 -2q-101 0 -178 -64.5t-93 -157.5q-4 -17 -4 -38q0 -57 29.5 -100t78.5 -66l-39 -135h-253l24 138h62q-45 44 -45 137q0 31 6 64
q25 150 151 254q126 105 276 105q152 0 239 -104q68 -80 68 -188q0 -31 -6 -66z" />
    <glyph glyph-name="alpha" unicode="&#x3b1;" horiz-adv-x="761" 
d="M780 554q-33 -41 -57.5 -91.5t-49.5 -115.5t-42 -99q4 -37 8 -59.5t16.5 -43t32.5 -20.5l-25 -138q-97 0 -142 105q-112 -105 -237 -105q-109 0 -171.5 76.5t-42.5 185.5q24 129 116 223.5t206 94.5q112 0 177 -99q20 50 48 86h163zM488 252q-18 177 -122 177
q-58 0 -101 -53.5t-57 -126.5q-10 -52 20 -88t82 -36q51 0 98 35.5t80 91.5z" />
    <glyph glyph-name="beta" unicode="&#x3b2;" horiz-adv-x="590" 
d="M546 214q-18 -97 -98.5 -166t-176.5 -69q-56 0 -110 17q-21 -107 -57 -185h-144q48 102 64 189l103 554q16 90 101.5 148t187.5 58q90 0 141.5 -66t34.5 -158q-17 -93 -104 -154q76 -66 58 -168zM408 214q9 47 -26.5 76t-91.5 29l23 122q50 0 91.5 26.5t49.5 68.5
q7 35 -11.5 60.5t-52.5 25.5q-46 0 -82.5 -17t-42.5 -51l-79 -427q44 -10 111 -10q39 0 71 28.5t40 68.5z" />
    <glyph glyph-name="gamma" unicode="&#x3b3;" horiz-adv-x="503" 
d="M658 554l-331 -567l-33 -176h-138l35 189q28 151 -12 292t-132 262h190q88 -116 106 -285l166 285h149z" />
    <glyph glyph-name="delta" unicode="&#x3b4;" horiz-adv-x="697" 
d="M669 327q0 -134 -108 -237t-249 -103q-103 0 -172.5 67t-69.5 167q0 108 69.5 199t174.5 128l-110 84l56 114h384l-23 -124h-181q64 -52 132 -99q97 -70 97 -196zM532 309q0 59 -37 97.5t-93 38.5q-76 0 -135.5 -61t-59.5 -140q0 -58 37.5 -96.5t94.5 -38.5
q75 0 134 61.5t59 138.5z" />
    <glyph glyph-name="epsilon" unicode="&#x3b5;" horiz-adv-x="469" 
d="M394 -4q-111 -43 -187 -43q-82 0 -124.5 66t-25.5 157q13 74 85 125q-41 45 -29 109q14 77 67.5 134.5t120.5 57.5q84 0 183 -46l-69 -115q-51 23 -139 23q-16 0 -25 -54q-5 -27 21 -38t68 -11l-23 -124q-47 0 -81.5 -14.5t-40.5 -46.5q-7 -35 2.5 -60t35.5 -25
q84 0 133 19z" />
    <glyph glyph-name="zeta" unicode="&#x3b6;" horiz-adv-x="469" 
d="M499 615h-51q-92 -56 -154 -146t-81 -192q-6 -32 -8 -50t-2 -42t9.5 -35.5t28.5 -11.5h25q64 0 90 -59t11 -139l-24 -129h-124l24 129q12 60 -3 60h-24q-89 0 -125.5 82.5t-15.5 194.5q36 190 189 338h-126l23 124h361z" />
    <glyph glyph-name="eta" unicode="&#x3b7;" horiz-adv-x="590" 
d="M471 -189h-138l103 558q6 28 -16.5 44t-57.5 16q-43 0 -80.5 -29t-58.5 -73l-61 -327h-138l103 554h138l-4 -21q63 34 126 34q91 0 147 -56.5t40 -141.5z" />
    <glyph glyph-name="theta" unicode="&#x3b8;" horiz-adv-x="507" 
d="M486 342q-13 -69 -34.5 -129.5t-53.5 -112.5t-77.5 -82.5t-99.5 -30.5t-88 30.5t-47 82.5t-12.5 112.5t13.5 129.5q78 410 276 410q201 0 123 -410zM361 411q34 203 -23 203q-59 0 -99 -203h122zM335 273h-122q-12 -58 -5.5 -103t39.5 -45q55 0 88 148z" />
    <glyph glyph-name="iota" unicode="&#x3b9;" horiz-adv-x="415" 
d="M327 -20q-104 0 -165.5 70.5t-42.5 171.5l62 332h138l-62 -332q-8 -44 20.5 -74t75.5 -30z" />
    <glyph glyph-name="kappa" unicode="&#x3ba;" horiz-adv-x="580" 
d="M525 0h-179l-141 259l-48 -259h-133l103 554h133l-49 -261l225 261h159l-248 -271z" />
    <glyph glyph-name="lambda" unicode="&#x3bb;" horiz-adv-x="722" 
d="M639 0h-148l-66 334l-243 -334h-158l367 504l-5 25q-7 40 -40 63t-78 23l26 138q87 0 150.5 -47.5t79.5 -126.5z" />
    <glyph glyph-name="mu.greek" unicode="&#x3bc;" horiz-adv-x="576" 
d="M492 0h-138l4 22q-47 -28 -101 -28t-91 28l-39 -211h-138l138 743h138l-61 -330q7 -92 78 -92t114 92l61 330h138z" />
    <glyph glyph-name="nu" unicode="&#x3bd;" horiz-adv-x="540" 
d="M524 369q-22 -120 -100.5 -225.5t-192.5 -167.5l-95 41l-39 537h143l28 -396q96 90 118 211q16 82 21 185h139q-3 -86 -22 -185z" />
    <glyph glyph-name="xi" unicode="&#x3be;" horiz-adv-x="470" 
d="M500 615h-159q-56 -21 -65 -69q-7 -39 30 -53.5t100 -14.5l-24 -125q-62 0 -114 -30t-61 -81q-19 -104 35 -104h24q64 0 90.5 -59t11.5 -139l-24 -129h-124l24 129q12 60 -3 60h-25q-84 0 -124.5 72t-22.5 170q19 101 118 169q-64 52 -49 135q7 35 28 69h-28l23 124h362z
" />
    <glyph glyph-name="omicron" unicode="&#x3bf;" 
d="M645 327q0 -134 -108 -237t-249 -103q-103 0 -172.5 67t-69.5 167q0 137 107 241.5t248 104.5q106 0 175 -68t69 -172zM508 309q0 59 -37 97.5t-93 38.5q-76 0 -135.5 -61t-59.5 -140q0 -58 37.5 -96.5t94.5 -38.5q75 0 134 61.5t59 138.5z" />
    <glyph glyph-name="pi" unicode="&#x3c0;" horiz-adv-x="708" 
d="M701 416h-78l-77 -416h-138l77 416h-60l-77 -416h-138l77 416h-13q-16 0 -28 -14t-16 -33h-138q14 76 74.5 130.5t133.5 54.5h427z" />
    <glyph glyph-name="rho" unicode="&#x3c1;" horiz-adv-x="579" 
d="M546 277q-22 -117 -104 -203.5t-185 -86.5q-50 0 -93 24l-37 -200h-138l86 466q22 117 104.5 203.5t185.5 86.5t153 -86.5t28 -203.5zM408 277q12 63 -5 107.5t-64 44.5t-81 -45t-45 -107l-21 -116q27 -36 91 -36q47 0 80.5 45t44.5 107z" />
    <glyph glyph-name="uni03C2" unicode="&#x3c2;" horiz-adv-x="480" 
d="M354 -189h-124l24 129q11 60 -7 60h-25q-62 0 -101 41.5t-47 104.5t3 138q21 115 89.5 199t160.5 84q79 0 118 -62t11 -142l-119 21q7 18 -4.5 31.5t-31.5 13.5q-21 0 -36 -12t-24.5 -36.5t-14.5 -44.5t-11 -52q-6 -33 -8.5 -53t-2 -44.5t11 -36.5t31.5 -12h26
q65 0 92.5 -59t12.5 -139z" />
    <glyph glyph-name="sigma" unicode="&#x3c3;" horiz-adv-x="732" 
d="M768 504q-62 -26 -138 -41q39 -59 39 -136q0 -134 -108 -237t-249 -103q-103 0 -172.5 67t-69.5 167q0 137 107 241.5t248 104.5q36 0 69 -9q98 15 242 72zM532 309q0 59 -37 97.5t-93 38.5q-76 0 -135.5 -61t-59.5 -140q0 -58 37.5 -96.5t94.5 -38.5q75 0 134 61.5
t59 138.5z" />
    <glyph glyph-name="tau" unicode="&#x3c4;" horiz-adv-x="390" 
d="M303 -14q-89 0 -136.5 70t-29.5 166l36 194h-72l26 138h282l-26 -138h-72l-36 -194q-7 -40 7.5 -69t46.5 -29z" />
    <glyph glyph-name="upsilon" unicode="&#x3c5;" horiz-adv-x="550" 
d="M512 250q-20 -107 -101.5 -185t-180.5 -78q-85 0 -136 57.5t-36 140.5l69 369h138l-69 -369q-4 -26 13.5 -43t45.5 -17q43 0 76.5 37.5t42.5 87.5q27 144 30 304h140q-3 -148 -32 -304z" />
    <glyph glyph-name="phi" unicode="&#x3c6;" horiz-adv-x="743" 
d="M710 277q-19 -105 -104.5 -183.5t-196.5 -99.5l-34 -183h-138l34 183q-103 21 -159.5 99.5t-37.5 183.5q17 86 72.5 161t137.5 119l50 -118q-47 -25 -79.5 -68.5t-42.5 -93.5q-9 -49 15 -86.5t71 -54.5l21 114q15 83 47 152t86 117t119 48q62 0 99.5 -43t44 -107.5
t-4.5 -139.5zM572 277q4 23 6 36t4.5 34t1.5 33t-4.5 24.5t-12.5 18.5t-22 6t-24.5 -7t-20 -22.5t-14.5 -29t-12 -38.5t-9 -39.5t-8 -42.5l-21 -113q52 17 89.5 54t46.5 86z" />
    <glyph glyph-name="chi" unicode="&#x3c7;" horiz-adv-x="746" 
d="M627 -189h-164l-110 243l-200 -243h-164l306 371l-168 372h164l110 -243l200 243h164l-306 -371z" />
    <glyph glyph-name="psi" unicode="&#x3c8;" horiz-adv-x="743" 
d="M693 185q-16 -83 -95 -132.5t-189 -61.5l-33 -180h-138l33 180q-105 12 -166.5 61.5t-45.5 132.5l69 369h138l-69 -369q-4 -20 10 -33t35 -18.5t54 -7.5l114 613h138l-114 -613q111 7 121 59l69 369h138z" />
    <glyph glyph-name="omega" unicode="&#x3c9;" horiz-adv-x="717" 
d="M690 305q-11 -61 -32 -116t-51 -101t-72 -73.5t-91 -27.5q-74 0 -108 60q-57 -60 -128 -60q-49 0 -81 27.5t-44.5 73.5t-12.5 101t11 116q21 119 94 249h133q-65 -115 -89 -249l-7.5 -42t-6 -39.5t-3 -39.5t2.5 -29.5t9.5 -22.5t19.5 -7q50 0 76 118q6 65 18 126h138
q-6 -34 -10 -55.5t-8.5 -54t-5.5 -53t0.5 -41t8 -30.5t18.5 -10q17 0 31 15t24 46.5t15 54.5t13 64q24 138 2 249h133q25 -125 3 -249z" />
    <glyph glyph-name="uni03D1" unicode="&#x3d1;" horiz-adv-x="619" 
d="M606 381l-69 1l-30 -160q-17 -97 -94.5 -166t-169.5 -69q-93 0 -144 69t-34 166l27 147h138l-27 -147q-7 -39 11.5 -68t53.5 -29q36 0 65 29t36 68l31 167q-129 14 -196.5 59.5t-50.5 142.5q17 86 87 148t153 62q94 0 144 -73t32 -174l-9 -48l69 -1zM431 554
q9 50 -6.5 86.5t-54.5 36.5q-33 0 -59.5 -25.5t-32.5 -60.5q-7 -35 32.5 -53.5t112.5 -25.5z" />
    <glyph glyph-name="uni03D5" unicode="&#x3d5;" 
d="M645 327q0 -114 -81.5 -209t-199.5 -122l-34 -185h-141l34 184q-79 20 -128 81.5t-49 144.5q0 118 82 214.5t200 123.5l33 180h141l-33 -180q80 -20 128 -83t48 -149zM508 309q0 81 -64 119l-56 -302q52 24 86 75t34 108zM303 428q-52 -25 -86 -76t-34 -108
q0 -80 64 -118z" />
    <glyph glyph-name="uni03D6" unicode="&#x3d6;" horiz-adv-x="717" 
d="M690 305q-11 -61 -32 -116t-51 -101t-72 -73.5t-91 -27.5q-74 0 -108 60q-57 -60 -128 -60q-49 0 -81 27.5t-44.5 73.5t-12.5 101t11 116q21 119 94 249h133q-65 -115 -89 -249l-7.5 -42t-6 -39.5t-3 -39.5t2.5 -29.5t9.5 -22.5t19.5 -7q50 0 76 118q6 65 18 126h138
q-6 -34 -10 -55.5t-8.5 -54t-5.5 -53t0.5 -41t8 -30.5t18.5 -10q17 0 31 15t24 46.5t15 54.5t13 64q31 172 26 237q-9 111 -98 111q-110 0 -211 -59l-48 105q138 79 282 79q72 0 119.5 -40.5t65.5 -110t18.5 -150.5t-16.5 -172z" />
    <glyph glyph-name="epsilon.alt" unicode="&#x3f5;" 
d="M577 139q-110 -152 -283 -152q-106 0 -176.5 67.5t-70.5 168.5q0 136 106 240t244 104q82 0 143.5 -38.5t87.5 -112.5h-166q-31 29 -85 29q-53 0 -99 -29t-71 -77h253l-24 -124h-249q8 -49 42.5 -77.5t85.5 -28.5q52 0 95 29z" />
    <glyph glyph-name="uni0400" unicode="&#x400;" horiz-adv-x="520" 
d="M454 897l-67 -85l-206 124l70 91zM548 607h-260l-33 -172h249l-24 -132h-249l-32 -171h260l-24 -132h-397l137 739h397z" />
    <glyph glyph-name="afii10023" unicode="&#x401;" horiz-adv-x="520" 
d="M548 607h-260l-33 -172h249l-24 -132h-249l-32 -171h260l-24 -132h-397l137 739h397zM371 937l-25 -132h-133l25 132h133zM572 937l-25 -132h-133l25 132h133z" />
    <glyph glyph-name="afii10051" unicode="&#x402;" horiz-adv-x="420" 
d="M622 0q-14 -74 -62.5 -117t-128.5 -43h-57l21 114h4q81 0 97 82l26 147q9 48 9 81q0 38 -27.5 60t-69.5 22q-67 0 -108 -53q-29 -44 -39 -91l-38 -202h-137l113 607h-136l24 132h412l-24 -132h-139l-36 -191q62 52 154 52q84 0 137.5 -44t53.5 -116q0 -44 -10 -95z" />
    <glyph glyph-name="afii10052" unicode="&#x403;" horiz-adv-x="480" 
d="M620 928l-243 -116l-40 88l236 127zM527 607h-239l-113 -607h-137l137 739h376z" />
    <glyph glyph-name="afii10053" unicode="&#x404;" horiz-adv-x="780" 
d="M828 527h-154q-21 36 -43 54q-50 39 -133 39q-146 0 -238 -125q-20 -27 -34 -60h278l-24 -132h-277q8 -82 64.5 -133t139.5 -51q54 0 99 19.5t101 67.5h161q-60 -100 -164.5 -159.5t-218.5 -59.5q-155 0 -244 101q-37 41 -58 98.5t-21 116.5q0 114 64.5 218t170.5 167.5
t221 63.5q140 0 231 -85q55 -51 79 -140z" />
    <glyph glyph-name="afii10054" unicode="&#x405;" horiz-adv-x="520" 
d="M508 265q0 -109 -86 -193.5t-196 -84.5q-43 0 -84.5 14t-66.5 37t-40.5 59.5t-15.5 73.5q0 8 2 40h143q-1 -8 -1 -21q0 -33 22.5 -52t62.5 -19q50 0 85 31.5t35 76.5q0 37 -22 57q-15 12 -32 20.5t-86 36.5q-121 48 -121 165q0 97 77.5 171.5t177.5 74.5
q80 0 133.5 -46.5t53.5 -116.5q0 -22 -4 -47h-141q0 35 -7 49q-15 29 -59 29q-38 0 -64.5 -27t-26.5 -64q0 -29 30 -51q15 -11 76 -33q83 -31 119 -73t36 -107z" />
    <glyph glyph-name="afii10055" unicode="&#x406;" horiz-adv-x="280" 
d="M312 739l-137 -739h-137l137 739h137z" />
    <glyph glyph-name="afii10056" unicode="&#x407;" horiz-adv-x="280" 
d="M312 739l-137 -739h-137l137 739h137zM241 937l-25 -132h-133l25 132h133zM451 937l-25 -132h-133l25 132h133z" />
    <glyph glyph-name="afii10057" unicode="&#x408;" horiz-adv-x="480" 
d="M521 739l-98 -527q-19 -98 -70 -150q-72 -75 -171 -75q-77 0 -125.5 43t-48.5 110q0 7 2 35h137l1 -7q7 -49 55 -49q66 0 84 97l97 523h137z" />
    <glyph glyph-name="afii10058" unicode="&#x409;" horiz-adv-x="1021" 
d="M1004 264q0 -53 -23 -103t-63 -86q-84 -75 -242 -75h-157l-95 562l-303 -562h-144l423 739h112l58 -285h177q102 0 169 -34q88 -43 88 -156zM864 241q0 42 -29.5 60.5t-94.5 18.5h-143l38 -188h73q53 0 81.5 9t47.5 31q27 30 27 69z" />
    <glyph glyph-name="afii10059" unicode="&#x40a;" horiz-adv-x="981" 
d="M964 264q0 -53 -23 -103t-63 -86q-84 -75 -242 -75h-197l57 310h-264l-57 -310h-137l137 739h137l-55 -297h264l55 297h136l-52 -285h47q102 0 169 -34q88 -43 88 -156zM824 241q0 42 -29.5 60.5t-94.5 18.5h-65l-35 -188h68q53 0 81.5 9t47.5 31q27 30 27 69z" />
    <glyph glyph-name="afii10060" unicode="&#x40b;" horiz-adv-x="420" 
d="M622 0h-133l33 183q9 48 9 81q0 38 -27.5 60t-69.5 22q-67 0 -108 -53q-29 -44 -39 -91l-38 -202h-137l113 607h-136l24 132h412l-24 -132h-139l-36 -191q62 52 154 52q84 0 137.5 -44t53.5 -116q0 -44 -10 -95z" />
    <glyph glyph-name="afii10061" unicode="&#x40c;" horiz-adv-x="620" 
d="M697 928l-243 -116l-40 88l236 127zM706 739l-344 -363l207 -376h-163l-171 325l-60 -325h-137l137 739h137l-59 -319l293 319h160z" />
    <glyph glyph-name="uni040D" unicode="&#x40d;" horiz-adv-x="740" 
d="M649 924l-67 -85l-206 124l70 91zM774 739l-137 -739h-137l99 537l-405 -537h-156l137 739h137l-100 -538l409 538h153z" />
    <glyph glyph-name="afii10062" unicode="&#x40e;" horiz-adv-x="620" 
d="M625 948q-14 -61 -66.5 -98.5t-120.5 -37.5q-67 0 -105 31t-38 86q0 11 1 19h98q9 -42 61 -42q47 0 71 42h99zM733 739l-521 -739h-148l199 284l-153 455h143l101 -327l231 327h148z" />
    <glyph glyph-name="afii10145" unicode="&#x40f;" horiz-adv-x="680" 
d="M713 739l-137 -739h-194l-31 -158h-144l31 158h-200l137 739h137l-113 -607h264l113 607h137z" />
    <glyph glyph-name="afii10017" unicode="&#x410;" horiz-adv-x="740" 
d="M703 0h-151l-44 191h-263l-117 -191h-151l445 739h108zM478 323l-38 223l-120 -223h158z" />
    <glyph glyph-name="afii10018" unicode="&#x411;" horiz-adv-x="580" 
d="M664 321q0 -147 -104.5 -234t-277.5 -87h-247l144 739h508l-25 -130h-371l-19 -94h110q133 0 207.5 -47.5t74.5 -146.5zM524 281q0 48 -47.5 75.5t-110.5 27.5h-119l-49 -253h116q75 0 142.5 42.5t67.5 107.5z" />
    <glyph glyph-name="afii10019" unicode="&#x412;" horiz-adv-x="580" 
d="M592 268q0 -119 -91.5 -193.5t-232.5 -74.5h-233l144 739h233q199 0 199 -146q0 -65 -30 -123.5t-74 -75.5q85 -28 85 -126zM452 246q0 74 -122 74h-96l-36 -189h96q77 0 117.5 30.5t40.5 84.5zM468 547q0 58 -82 58h-96l-30 -151h96q46 0 79 26t33 67z" />
    <glyph glyph-name="afii10020" unicode="&#x413;" horiz-adv-x="480" 
d="M527 607h-239l-113 -607h-137l137 739h376z" />
    <glyph glyph-name="afii10021" unicode="&#x414;" horiz-adv-x="862" 
d="M609 132l-81 425l-234 -425h315zM852 -140h-137l26 140h-601l-26 -140h-137l50 272h130l347 607h112l124 -607h162z" />
    <glyph glyph-name="afii10022" unicode="&#x415;" horiz-adv-x="520" 
d="M548 607h-260l-33 -172h249l-24 -132h-249l-32 -171h260l-24 -132h-397l137 739h397z" />
    <glyph glyph-name="afii10024" unicode="&#x416;" horiz-adv-x="951" 
d="M1037 739l-344 -363l206 -376h-163l-170 325l-60 -325h-137l59 319l-291 -319h-162l344 363l-207 376h164l170 -325l60 325h137l-59 -319l293 319h160z" />
    <glyph glyph-name="afii10025" unicode="&#x417;" horiz-adv-x="573" 
d="M682 258q0 -120 -99 -195.5t-260 -75.5q-75 0 -132.5 23.5t-86.5 56.5t-47.5 66.5t-22.5 56.5l-5 24h136q10 -36 52 -66t126 -30q89 0 145 34.5t56 92.5q0 74 -122 74l-113 1l28 141h112q48 0 80 25t32 63q0 28 -35.5 47t-82.5 19q-77 0 -118 -20.5t-67 -55.5h-137
q2 4 5.5 12t18 30t31.5 42t46 44.5t62 42.5t80 30t98 12q106 0 173 -48t67 -122q0 -76 -32.5 -126.5t-83.5 -67.5q44 -7 70 -42.5t26 -87.5z" />
    <glyph glyph-name="afii10026" unicode="&#x418;" horiz-adv-x="740" 
d="M774 739l-137 -739h-137l99 537l-405 -537h-156l137 739h137l-100 -538l409 538h153z" />
    <glyph glyph-name="afii10027" unicode="&#x419;" horiz-adv-x="740" 
d="M647 882q-14 -61 -66.5 -98.5t-120.5 -37.5q-67 0 -105 31t-38 86q0 11 1 19h98q9 -42 61 -42q47 0 71 42h99zM774 739l-137 -739h-137l99 537l-405 -537h-156l137 739h137l-100 -538l409 538h153z" />
    <glyph glyph-name="afii10028" unicode="&#x41a;" horiz-adv-x="620" 
d="M706 739l-344 -363l207 -376h-163l-171 325l-60 -325h-137l137 739h137l-59 -319l293 319h160z" />
    <glyph glyph-name="afii10029" unicode="&#x41b;" horiz-adv-x="700" 
d="M663 0h-131l-105 550l-306 -550h-144l423 739h112z" />
    <glyph glyph-name="afii10030" unicode="&#x41c;" horiz-adv-x="900" 
d="M947 739l-137 -739h-137l103 554l-296 -554h-112l-90 554l-103 -554h-137l137 739h188l95 -560l301 560h188z" />
    <glyph glyph-name="afii10031" unicode="&#x41d;" horiz-adv-x="680" 
d="M713 739l-137 -739h-137l57 310h-264l-57 -310h-137l137 739h137l-55 -297h264l55 297h137z" />
    <glyph glyph-name="afii10032" unicode="&#x41e;" horiz-adv-x="840" 
d="M845 439q0 -117 -63.5 -221.5t-170 -167.5t-225.5 -63q-142 0 -233.5 88t-91.5 225q0 76 32.5 154.5t88.5 140.5q70 76 159.5 116.5t187.5 40.5q138 0 227 -88t89 -225zM705 419q0 88 -57 144.5t-146 56.5q-144 0 -235 -119q-66 -85 -66 -178q0 -89 59 -146.5t150 -57.5
q68 0 128.5 31t103.5 88q63 84 63 181z" />
    <glyph glyph-name="afii10033" unicode="&#x41f;" horiz-adv-x="680" 
d="M713 739l-137 -739h-137l113 607h-264l-113 -607h-137l137 739h538z" />
    <glyph glyph-name="afii10034" unicode="&#x420;" horiz-adv-x="560" 
d="M609 562q0 -66 -16 -115t-53 -87.5t-104.5 -58.5t-164.5 -20h-44l-52 -281h-137l137 739h183q134 0 182 -34q69 -48 69 -143zM469 529q0 48 -31 63t-104 15h-46l-37 -195h40q178 0 178 117z" />
    <glyph glyph-name="afii10035" unicode="&#x421;" horiz-adv-x="780" 
d="M828 527h-154q-21 36 -43 54q-50 39 -133 39q-146 0 -238 -125q-58 -78 -58 -168q0 -91 58 -149.5t147 -58.5q54 0 99 19.5t101 67.5h161q-60 -100 -164.5 -159.5t-218.5 -59.5q-155 0 -244 101q-37 41 -58 98.5t-21 116.5q0 114 64.5 218t170.5 167.5t221 63.5
q140 0 231 -85q55 -51 79 -140z" />
    <glyph glyph-name="afii10036" unicode="&#x422;" horiz-adv-x="420" 
d="M501 607h-139l-113 -607h-137l113 607h-136l24 132h412z" />
    <glyph glyph-name="afii10037" unicode="&#x423;" horiz-adv-x="620" 
d="M733 739l-521 -739h-148l199 284l-153 455h143l101 -327l231 327h148z" />
    <glyph glyph-name="afii10038" unicode="&#x424;" horiz-adv-x="944" 
d="M979 460q0 -116 -63.5 -220.5t-170 -168t-224.5 -63.5l-11 -53h-137l11 53q-141 1 -232 89t-91 224q0 76 32.5 154.5t88.5 140.5q143 155 343 157l5 27h137l-4 -27q138 -1 227 -89t89 -224zM839 440q0 87 -56.5 143.5t-144.5 57.5l-92 -501q141 2 230 119q63 84 63 181z
M408 140l92 501q-142 0 -233 -119q-66 -85 -66 -178q0 -89 58 -146t149 -58z" />
    <glyph glyph-name="afii10039" unicode="&#x425;" horiz-adv-x="680" 
d="M783 739l-325 -371l188 -368h-159l-130 255l-219 -255h-163l322 368l-185 371h163l124 -258l225 258h159z" />
    <glyph glyph-name="afii10040" unicode="&#x426;" horiz-adv-x="738" 
d="M679 -140h-137l26 140h-530l137 739h137l-113 -607h264l113 607h137l-112 -607h128z" />
    <glyph glyph-name="afii10041" unicode="&#x427;" horiz-adv-x="530" 
d="M586 739l-137 -739h-137l53 290h-221q-114 0 -114 101q0 17 3 35l58 313h137l-48 -263q-4 -12 -4 -24q0 -28 36 -30h178l59 317h137z" />
    <glyph glyph-name="afii10042" unicode="&#x428;" horiz-adv-x="947" 
d="M1001 739l-137 -739h-826l137 739h137l-113 -607h207l113 607h137l-112 -607h207l113 607h137z" />
    <glyph glyph-name="afii10043" unicode="&#x429;" horiz-adv-x="1026" 
d="M963 -140h-137l26 140h-814l137 739h137l-113 -607h207l113 607h137l-112 -607h207l113 607h137l-113 -607h125z" />
    <glyph glyph-name="afii10044" unicode="&#x42a;" horiz-adv-x="665" 
d="M768 332q0 -149 -106.5 -240.5t-277.5 -91.5h-247l112 603h-216l25 136h360l-40 -204h110q131 0 205.5 -51t74.5 -152zM628 292q0 50 -46.5 81t-109.5 31h-119l-53 -273h116q76 0 144 46t68 115z" />
    <glyph glyph-name="afii10045" unicode="&#x42b;" horiz-adv-x="841" 
d="M669 332q0 -149 -106.5 -240.5t-277.5 -91.5h-247l144 739h137l-40 -204h110q131 0 205.5 -51t74.5 -152zM529 292q0 50 -46.5 81t-109.5 31h-119l-53 -273h116q76 0 144 46t68 115zM954 738l-137 -739h-137l137 739h137z" />
    <glyph glyph-name="afii10046" unicode="&#x42c;" horiz-adv-x="580" 
d="M669 332q0 -149 -106.5 -240.5t-277.5 -91.5h-247l144 739h137l-40 -204h110q131 0 205.5 -51t74.5 -152zM529 292q0 50 -46.5 81t-109.5 31h-119l-53 -273h116q76 0 144 46t68 115z" />
    <glyph glyph-name="afii10047" unicode="&#x42d;" horiz-adv-x="780" 
d="M828 436q0 -115 -60 -218.5t-166 -167t-230 -63.5q-118 0 -202.5 59.5t-107.5 165.5h154q27 -51 67.5 -72t108.5 -21q93 0 171 53t104 138h-346l25 132h340q-9 79 -65 128.5t-138 49.5q-54 0 -99 -19.5t-101 -67.5h-161q60 100 164.5 159.5t218.5 59.5q138 0 230.5 -90.5
t92.5 -225.5z" />
    <glyph glyph-name="afii10048" unicode="&#x42e;" horiz-adv-x="1121" 
d="M1081 444q0 -96 -41.5 -182.5t-107.5 -146t-148.5 -94t-164.5 -34.5q-143 0 -232.5 87.5t-89.5 221.5v14h-62l-60 -310h-137l144 739h137l-58 -298h63q52 136 176 223.5t268 87.5q138 0 225.5 -87.5t87.5 -220.5zM941 419q0 88 -55.5 144.5t-144.5 56.5
q-117 0 -210.5 -90t-93.5 -211q0 -87 57.5 -143.5t148.5 -56.5q115 0 206.5 89.5t91.5 210.5z" />
    <glyph glyph-name="afii10049" unicode="&#x42f;" horiz-adv-x="511" 
d="M489 608h-116q-76 0 -144 -46t-68 -115q0 -50 46.5 -81t109.5 -31h119zM652 739l-144 -739h-137l40 204h-110l-209 -204h-169l240 223q-142 45 -142 183q0 150 106 241.5t278 91.5h247z" />
    <glyph glyph-name="afii10065" unicode="&#x430;" horiz-adv-x="660" 
d="M586 0h-122l13 72q-89 -85 -200 -85q-105 0 -168.5 62t-63.5 164q0 145 102 249.5t243 104.5q116 0 163 -87l13 74h122zM514 313q0 61 -36 96.5t-98 35.5q-80 0 -139 -61.5t-59 -143.5q0 -60 36.5 -95.5t98.5 -35.5q102 0 160 82q37 56 37 122z" />
    <glyph glyph-name="afii10066" unicode="&#x431;" 
d="M509 309q0 59 -37 97.5t-93 38.5q-76 0 -135.5 -61t-59.5 -140q0 -58 37.5 -96.5t94.5 -38.5q75 0 134 61.5t59 138.5zM646 329q0 -84 -44.5 -162t-127.5 -129t-183 -51q-107 0 -175 67t-68 166q0 60 15 133.5t43 149t76.5 139.5t108.5 93q34 13 64.5 21t68.5 12.5
t51.5 6t63.5 3t54 1.5q68 4 118 26l1 -110q-3 -1 -17 -7t-17.5 -7t-19.5 -5.5t-23 -3t-30 0.5q-14 -1 -71 -4.5t-79.5 -6t-64.5 -13t-77 -27.5q-37 -29 -57 -54t-22 -36l-1 -10q32 16 46 22.5t48.5 14t74.5 7.5q105 0 174.5 -66.5t69.5 -170.5z" />
    <glyph glyph-name="afii10067" unicode="&#x432;" horiz-adv-x="475" 
d="M388 407q0 35 -47 35h-81l-17 -88h81q27 0 45.5 14t18.5 39zM420 188q0 26 -19 40.5t-51 14.5h-128l-27 -138h125q42 0 71 21t29 62zM542 203q0 -88 -73 -145.5t-172 -57.5h-255l106 547h225q73 0 106.5 -33t33.5 -80q0 -63 -54 -112q83 -36 83 -119z" />
    <glyph glyph-name="afii10068" unicode="&#x433;" horiz-adv-x="387" 
d="M492 554l-23 -121h-212l-80 -433h-133l103 554h345z" />
    <glyph glyph-name="afii10069" unicode="&#x434;" horiz-adv-x="693" 
d="M690 121l-45 -241h-133l22 120h-402l-23 -120h-133l45 241h101l255 433h106l93 -433h114zM441 121l-46 237l-130 -237h176z" />
    <glyph glyph-name="afii10070" unicode="&#x435;" 
d="M615 218h-429q0 -48 36.5 -78.5t93.5 -30.5q80 0 135 55h145q-45 -82 -125 -129.5t-174 -47.5q-111 0 -181 66t-70 170q0 136 106.5 240t245.5 104q104 0 170.5 -63t66.5 -162q0 -76 -20 -124zM511 336q-6 109 -134 109q-58 0 -106 -30t-67 -79h307z" />
    <glyph glyph-name="afii10072" unicode="&#x436;" horiz-adv-x="867" 
d="M812 0h-166l-154 259l-48 -259h-133l48 261l-228 -261h-156l248 271l-178 283h167l153 -259l48 259h134l-49 -261l229 261h155l-248 -271z" />
    <glyph glyph-name="afii10073" unicode="&#x437;" horiz-adv-x="521" 
d="M513 184q0 -90 -74 -143.5t-189 -53.5q-57 0 -99 17.5t-62 43t-31.5 51t-13.5 43.5l-2 17h124q1 -2 2 -6.5t8.5 -15t18 -18.5t30.5 -14.5t46 -6.5q118 0 118 75q0 53 -86 53h-88l24 126h87q40 0 62.5 17.5t22.5 49.5q0 38 -70 38q-32 0 -57.5 -12t-35.5 -24l-9 -12h-109
q2 6 7 16.5t24 36.5t43 45.5t66.5 36t91.5 16.5q83 0 121 -32t38 -82t-29.5 -92.5t-64.5 -56.5q39 -6 62.5 -37t23.5 -76z" />
    <glyph glyph-name="afii10074" unicode="&#x438;" horiz-adv-x="565" 
d="M619 554l-103 -554h-133l69 376l-278 -376h-150l103 554h133l-75 -390l279 390h155z" />
    <glyph glyph-name="afii10075" unicode="&#x439;" horiz-adv-x="565" 
d="M576 706q-14 -61 -66.5 -98.5t-120.5 -37.5q-67 0 -105 31t-38 86q0 11 1 19h98q9 -42 61 -42q47 0 71 42h99zM619 554l-103 -554h-133l69 376l-278 -376h-150l103 554h133l-75 -390l279 390h155z" />
    <glyph glyph-name="afii10076" unicode="&#x43a;" horiz-adv-x="580" 
d="M525 0h-166l-154 259l-48 -259h-133l102 554h134l-49 -261l229 261h155l-248 -271z" />
    <glyph glyph-name="afii10077" unicode="&#x43b;" horiz-adv-x="562" 
d="M527 0h-134l-72 360l-204 -360h-142l326 554h106z" />
    <glyph glyph-name="afii10078" unicode="&#x43c;" horiz-adv-x="577" 
d="M631 554l-104 -554h-133l41 221l-130 -221h-106l-49 226l-42 -226h-133l104 554h130l78 -367l194 367h150z" />
    <glyph glyph-name="afii10079" unicode="&#x43d;" horiz-adv-x="565" 
d="M619 554l-103 -554h-133l40 216h-226l-40 -216h-133l103 554h133l-40 -217h225l41 217h133z" />
    <glyph glyph-name="afii10080" unicode="&#x43e;" horiz-adv-x="615" 
d="M645 327q0 -134 -108 -237t-249 -103q-103 0 -172.5 67t-69.5 167q0 137 107 241.5t248 104.5q106 0 175 -68t69 -172zM508 309q0 59 -37 97.5t-93 38.5q-76 0 -135.5 -61t-59.5 -140q0 -58 37.5 -96.5t94.5 -38.5q75 0 134 61.5t59 138.5z" />
    <glyph glyph-name="afii10081" unicode="&#x43f;" horiz-adv-x="565" 
d="M619 554l-104 -554h-133l81 433h-226l-80 -433h-133l103 554h492z" />
    <glyph glyph-name="afii10082" unicode="&#x440;" horiz-adv-x="650" 
d="M661 344q0 -147 -98.5 -252t-237.5 -105q-99 0 -158 65l-44 -237h-133l137 739h122l-12 -65q35 37 87 57.5t108 20.5q121 0 185 -83q44 -58 44 -140zM524 309q0 53 -30 92q-15 19 -43.5 31.5t-57.5 12.5q-79 0 -137.5 -61t-58.5 -143q0 -57 38.5 -94.5t97.5 -37.5
q42 0 82.5 22t67.5 59q41 61 41 119z" />
    <glyph glyph-name="afii10083" unicode="&#x441;" horiz-adv-x="620" 
d="M640 369h-150q-23 76 -113 76q-79 0 -136 -59t-57 -141q0 -62 36 -99t95 -37q86 0 140 73h150q-53 -94 -133.5 -144.5t-177.5 -50.5q-106 0 -176.5 67.5t-70.5 168.5q0 136 106 240t244 104q95 0 161 -51t82 -147z" />
    <glyph glyph-name="afii10084" unicode="&#x442;" horiz-adv-x="424" 
d="M429 554l-23 -121h-120l-80 -433h-133l80 433h-120l23 121h373z" />
    <glyph glyph-name="afii10085" unicode="&#x443;" horiz-adv-x="580" 
d="M641 554l-455 -739h-143l146 237l-110 502h152l56 -357l201 357h153z" />
    <glyph glyph-name="afii10086" unicode="&#x444;" horiz-adv-x="762" 
d="M767 327q0 -134 -106 -236.5t-246 -103.5l-20 -113h-130l21 113q-102 0 -171 67.5t-69 166.5q0 137 106.5 241t246.5 105l8 46h125l-7 -46q106 -1 174 -68.5t68 -171.5zM630 309q0 58 -36.5 96.5t-91.5 39.5l-63 -336q74 1 132.5 62t58.5 138zM377 445
q-77 -1 -135.5 -61.5t-58.5 -139.5q0 -58 37 -96t93 -39z" />
    <glyph glyph-name="afii10087" unicode="&#x445;" horiz-adv-x="560" 
d="M524 0h-160l-81 190l-152 -190h-160l250 286l-120 268h150l69 -167l129 167h150l-219 -268z" />
    <glyph glyph-name="afii10088" unicode="&#x446;" horiz-adv-x="660" 
d="M622 121l-45 -241h-133l22 120h-442l103 554h133l-81 -433h208l80 433h133l-80 -433h102z" />
    <glyph glyph-name="afii10089" unicode="&#x447;" horiz-adv-x="474" 
d="M529 554l-103 -554h-133l34 186h-189q-42 0 -76.5 23.5t-34.5 71.5q0 7 2 25l45 248h133l-36 -196q-1 -6 -1 -16q0 -35 40 -35h139l47 247h133z" />
    <glyph glyph-name="afii10090" unicode="&#x448;" horiz-adv-x="820" 
d="M874 554l-103 -554h-747l105 554h133l-81 -433h173l80 433h133l-80 -433h174l80 433h133z" />
    <glyph glyph-name="afii10091" unicode="&#x449;" horiz-adv-x="906" 
d="M896 121l-45 -241h-133l22 120h-716l105 554h133l-81 -433h173l80 433h133l-80 -433h174l80 433h133l-80 -433h102z" />
    <glyph glyph-name="afii10092" unicode="&#x44a;" horiz-adv-x="576" 
d="M576 231q0 -100 -79.5 -165.5t-194.5 -65.5h-208l82 433h-182l22 121h319l-35 -177h75q95 0 148 -36.5t53 -109.5zM450 205q0 23 -14.5 41t-49.5 18h-108l-28 -144h111q43 0 66 27t23 58z" />
    <glyph glyph-name="afii10093" unicode="&#x44b;" horiz-adv-x="678" 
d="M524 231q0 -100 -79.5 -165.5t-194.5 -65.5h-208l108 554h133l-35 -177h75q95 0 148 -36.5t53 -109.5zM398 205q0 23 -14.5 41t-49.5 18h-108l-28 -144h111q43 0 66 27t23 58zM782 554l-103 -554h-133l103 554h133z" />
    <glyph glyph-name="afii10094" unicode="&#x44c;" horiz-adv-x="475" 
d="M506 231q0 -100 -79.5 -165.5t-194.5 -65.5h-208l108 554h133l-35 -177h75q95 0 148 -36.5t53 -109.5zM380 205q0 23 -14.5 41t-49.5 18h-108l-28 -144h111q43 0 66 27t23 58z" />
    <glyph glyph-name="afii10095" unicode="&#x44d;" 
d="M640 331q0 -136 -106 -240t-244 -104q-118 0 -190 78q-40 43 -53 120h150q23 -76 113 -76q54 0 100 29.5t71 77.5h-227l23 121h224q-8 50 -42.5 79t-86.5 29q-86 0 -140 -73h-150q53 94 133.5 144.5t177.5 50.5q106 0 176.5 -67.5t70.5 -168.5z" />
    <glyph glyph-name="afii10096" unicode="&#x44e;" horiz-adv-x="853" 
d="M859 331q0 -94 -55 -175t-136.5 -125t-164.5 -44q-103 0 -171 64t-71 162h-62l-42 -213h-133l108 554h133l-41 -210h62q43 96 134.5 159.5t193.5 63.5q109 0 177 -66.5t68 -169.5zM723 310q0 58 -36.5 96.5t-94.5 38.5q-73 0 -134.5 -60t-61.5 -141q0 -59 36 -97t95 -38
q72 0 134 60.5t62 140.5z" />
    <glyph glyph-name="afii10097" unicode="&#x44f;" horiz-adv-x="407" 
d="M362 434h-111q-43 0 -66 -27t-23 -58q0 -23 14.5 -41t49.5 -18h108zM518 554l-108 -554h-133l35 177h-39l-180 -177h-138l192 187q-111 30 -111 136q0 101 80 166t194 65h208z" />
    <glyph glyph-name="uni0450" unicode="&#x450;" 
d="M476 712l-67 -85l-206 124l70 91zM615 218h-429q0 -48 36.5 -78.5t93.5 -30.5q80 0 135 55h145q-45 -82 -125 -129.5t-174 -47.5q-111 0 -181 66t-70 170q0 136 106.5 240t245.5 104q104 0 170.5 -63t66.5 -162q0 -76 -20 -124zM511 336q-6 109 -134 109q-58 0 -106 -30
t-67 -79h307z" />
    <glyph glyph-name="afii10071" unicode="&#x451;" 
d="M615 218h-429q0 -48 36.5 -78.5t93.5 -30.5q80 0 135 55h145q-45 -82 -125 -129.5t-174 -47.5q-111 0 -181 66t-70 170q0 136 106.5 240t245.5 104q104 0 170.5 -63t66.5 -162q0 -76 -20 -124zM511 336q-6 109 -134 109q-58 0 -106 -30t-67 -79h307zM400 762l-25 -132
h-133l25 132h133zM610 762l-25 -132h-133l25 132h133z" />
    <glyph glyph-name="afii10099" unicode="&#x452;" horiz-adv-x="378" 
d="M515 0q-29 -160 -181 -160h-58l19 99q42 0 61 13t26 48l46 253q9 48 9 81q0 39 -23 60.5t-64 21.5q-67 0 -108 -53q-25 -35 -39 -112l-46 -251h-133l111 600h-57l17 99h59l7 40h133l-7 -40h128l-18 -99h-129l-21 -114q62 52 149 52q82 0 131.5 -43.5t49.5 -116.5
q0 -44 -10 -95z" />
    <glyph glyph-name="afii10100" unicode="&#x453;" horiz-adv-x="434" 
d="M566 743l-243 -116l-40 88l236 127zM492 554l-23 -121h-212l-80 -433h-133l103 554h345z" />
    <glyph glyph-name="afii10101" unicode="&#x454;" 
d="M640 369h-150q-23 76 -113 76q-54 0 -99.5 -29.5t-70.5 -78.5h204l-23 -121h-202q8 -49 43 -78t86 -29q86 0 140 73h150q-53 -94 -133.5 -144.5t-177.5 -50.5q-106 0 -176.5 67.5t-70.5 168.5q0 136 106 240t244 104q118 0 190 -78q40 -43 53 -120z" />
    <glyph glyph-name="afii10102" unicode="&#x455;" horiz-adv-x="440" 
d="M425 209q0 -88 -71.5 -155t-165.5 -67q-75 0 -122 41.5t-47 108.5q0 9 2 39h134q2 -67 62 -67q29 0 50 19t21 45q0 20 -15.5 31.5t-66.5 29.5q-73 25 -99.5 54t-26.5 82q0 80 65.5 138.5t154.5 58.5q61 0 106.5 -38t45.5 -90q0 -15 -3 -38h-130q-2 44 -44 44
q-23 0 -40.5 -16.5t-17.5 -38.5q0 -17 20 -29q12 -7 62 -23q71 -23 98.5 -51t27.5 -78z" />
    <glyph glyph-name="afii10103" unicode="&#x456;" horiz-adv-x="240" 
d="M260 554l-103 -554h-133l103 554h133zM271 614h-133l23 125h133z" />
    <glyph glyph-name="afii10104" unicode="&#x457;" horiz-adv-x="240" 
d="M260 554l-103 -554h-133l103 554h133zM187 762l-25 -132h-133l25 132h133zM397 762l-25 -132h-133l25 132h133z" />
    <glyph glyph-name="afii10105" unicode="&#x458;" horiz-adv-x="260" 
d="M278 554l-96 -517q-17 -103 -77 -161.5t-152 -60.5l24 129q38 7 50.5 24t22.5 72l95 514h133zM289 614h-133l23 125h133z" />
    <glyph glyph-name="afii10106" unicode="&#x459;" horiz-adv-x="769" 
d="M640 171q0 36 -22.5 47.5t-70.5 11.5h-70l24 -109h22q114 0 117 50zM756 198q0 -96 -58.5 -147t-198.5 -51h-120l-60 367l-194 -367h-150l326 554h106l48 -223q69 0 110.5 -2t82.5 -9.5t62 -22t33.5 -39t12.5 -60.5z" />
    <glyph glyph-name="afii10107" unicode="&#x45a;" horiz-adv-x="815" 
d="M684 171q12 34 -15 46.5t-78 12.5h-33l-20 -109h29q105 0 117 50zM800 198q-7 -94 -73 -146t-184 -52h-160l40 216h-226l-40 -216h-133l103 554h133l-40 -217h225l41 217h132l-41 -223q54 0 91 -4t72 -17t50.5 -41t9.5 -71z" />
    <glyph glyph-name="afii10108" unicode="&#x45b;" horiz-adv-x="378" 
d="M515 0h-133l46 253q9 48 9 81q0 39 -23 60.5t-64 21.5q-67 0 -108 -53q-25 -35 -39 -112l-46 -251h-133l111 600h-57l17 99h59l7 40h133l-7 -40h128l-18 -99h-129l-21 -114q62 52 149 52q82 0 131.5 -43.5t49.5 -116.5q0 -44 -10 -95z" />
    <glyph glyph-name="afii10109" unicode="&#x45c;" horiz-adv-x="580" 
d="M527 728l-243 -116l-40 88l236 127zM525 0h-179l-141 259l-48 -259h-133l102 554h134l-49 -261l225 261h159l-248 -271z" />
    <glyph glyph-name="uni045D" unicode="&#x45d;" horiz-adv-x="565" 
d="M547 739l-67 -85l-206 124l70 91zM619 554l-103 -554h-133l69 376l-278 -376h-150l103 554h133l-76 -398l280 398h155z" />
    <glyph glyph-name="afii10110" unicode="&#x45e;" horiz-adv-x="580" 
d="M572 705q-14 -61 -66.5 -98.5t-120.5 -37.5q-67 0 -105 31t-38 86q0 11 1 19h98q9 -42 61 -42q47 0 71 42h99zM641 554l-455 -739h-143l146 237l-110 502h152l56 -359l201 359h153z" />
    <glyph glyph-name="afii10193" unicode="&#x45f;" horiz-adv-x="565" 
d="M619 554l-103 -554h-164l-27 -140h-146l27 140h-181l103 554h133l-81 -433h226l80 433h133z" />
    <glyph glyph-name="uni048C" unicode="&#x48c;" horiz-adv-x="580" 
d="M423 241q0 42 -29.5 60.5t-94.5 18.5h-65l-35 -188h68q53 0 81.5 9t47.5 31q27 30 27 69zM563 264q0 -53 -23 -103t-63 -86q-84 -75 -242 -75h-197l103 553h-74l17 99h75l16 87h136l-16 -87h69l-18 -99h-69l-18 -99h47q102 0 169 -34q88 -43 88 -156z" />
    <glyph glyph-name="uni048D" unicode="&#x48d;" horiz-adv-x="475" 
d="M345 171q12 34 -15 46.5t-78 12.5h-33l-20 -109h29q105 0 117 50zM461 198q-7 -94 -73 -146t-184 -52h-160l74 396h-73l17 99h74l11 59h132l-11 -59h74l-18 -99h-74l-12 -65q54 0 91 -4t72 -17t50.5 -41t9.5 -71z" />
    <glyph glyph-name="uni048E" unicode="&#x48e;" horiz-adv-x="560" 
d="M469 529q0 50 -40 68q-24 10 -95 10h-46l-37 -195h40q51 0 88 8l-44 65l91 42l32 -47q11 24 11 49zM585 296l-92 -41l-37 53q-36 -17 -79 -23q-31 -4 -106 -4h-44l-52 -281h-137l137 739h183q134 0 182 -34q69 -48 69 -143q0 -109 -73 -194z" />
    <glyph glyph-name="uni048F" unicode="&#x48f;" horiz-adv-x="660" 
d="M524 309q0 53 -30 92q-15 19 -43.5 31.5t-57.5 12.5q-79 0 -137.5 -61t-58.5 -143q0 -57 38.5 -94.5t97.5 -37.5q51 0 99 32l-53 77l92 42l28 -42q25 50 25 91zM629 29l-92 -41l-36 52q-82 -53 -176 -53q-99 0 -158 65l-44 -237h-133l137 739h122l-12 -65q35 37 87 57.5
t108 20.5q121 0 185 -83q44 -58 44 -140q0 -136 -85 -237z" />
    <glyph glyph-name="afii10050" unicode="&#x490;" horiz-adv-x="480" 
d="M527 607h-239l-113 -607h-137l137 739l239 1l21 114h137z" />
    <glyph glyph-name="afii10098" unicode="&#x491;" horiz-adv-x="434" 
d="M494 670l-45 -237h-192l-80 -433h-133l103 554h192l22 116h133z" />
    <glyph glyph-name="uni0492" unicode="&#x492;" horiz-adv-x="480" 
d="M527 607h-239l-20 -105h70l-18 -99h-70l-75 -403h-137l75 403h-72l17 99h73l44 237h376z" />
    <glyph glyph-name="uni0493" unicode="&#x493;" horiz-adv-x="434" 
d="M472 554l-23 -121h-192l-16 -84h76l-18 -99h-76l-46 -250h-133l46 250h-70l17 99h72l38 205h325z" />
    <glyph glyph-name="uni0494" unicode="&#x494;" horiz-adv-x="480" 
d="M527 607h-239l-113 -607h-137l137 739h376z" />
    <glyph glyph-name="uni0495" unicode="&#x495;" horiz-adv-x="434" 
d="M472 554l-23 -121h-192l-80 -433h-133l103 554h325z" />
    <glyph glyph-name="uni0496" unicode="&#x496;" horiz-adv-x="951" 
d="M1037 739l-344 -363l207 -376h-164l-170 325l-60 -325h-137l59 319l-289 -319h-164l344 363l-207 376h164l170 -325l60 325h137l-59 -319l289 319h164z" />
    <glyph glyph-name="uni0497" unicode="&#x497;" horiz-adv-x="867" 
d="M812 0h-179l-141 259l-48 -259h-133l48 261l-225 -261h-159l248 271l-178 283h179l141 -259l48 259h134l-49 -261l225 261h159l-248 -271z" />
    <glyph glyph-name="uni0498" unicode="&#x498;" horiz-adv-x="573" 
d="M560 241q-3 -34 -6.5 -55t-11 -51t-18.5 -48.5t-30.5 -39.5t-45.5 -32.5t-64 -20t-86 -8.5q-65 -1 -116 20.5t-78 53t-44 62.5t-22 53l-5 22h161q1 -3 3 -8.5t10 -19t18.5 -24t30.5 -19t44 -8.5q59 0 85 28t31 85q3 35 -29 57t-95 22h-65l25 136h44q80 0 111 35
q9 11 16 33t7 39q0 61 -82 61q-26 0 -43 -14t-21 -28l-4 -13h-136q2 8 6.5 21t21.5 46t39 58.5t61 46.5t84 21q102 5 157.5 -38t56.5 -128q-6 -94 -36 -134q-26 -35 -74 -57q52 -22 78.5 -63t21.5 -91z" />
    <glyph glyph-name="uni0499" unicode="&#x499;" horiz-adv-x="475" 
d="M461 191q-5 -105 -55 -155t-148 -49q-55 0 -97 17t-63 41t-34.5 48t-16.5 41l-3 16h152q1 -2 2 -5t6.5 -11t13 -14t21.5 -10.5t31 -4.5q31 0 46.5 8.5t19 17.5t9.5 33q-1 39 -23.5 53t-69.5 14h-39l16 103h26q89 0 101 64q0 31 -13.5 44t-40.5 12q-20 0 -34 -11t-18 -21
l-5 -11h-110q1 6 3 16.5t14 37.5t29.5 47.5t53 37.5t81.5 17q69 0 110.5 -33t45.5 -102q2 -32 -22 -72.5t-61 -53.5q36 -16 56 -53t16 -62z" />
    <glyph glyph-name="uni049A" unicode="&#x49a;" horiz-adv-x="620" 
d="M706 739l-344 -363l207 -376h-164l-170 325l-60 -325h-137l137 739h137l-59 -319l289 319h164z" />
    <glyph glyph-name="uni049B" unicode="&#x49b;" horiz-adv-x="580" 
d="M525 0h-179l-141 259l-48 -259h-133l102 554h134l-49 -261l225 261h159l-248 -271z" />
    <glyph glyph-name="uni049C" unicode="&#x49c;" horiz-adv-x="620" 
d="M706 739l-344 -363l207 -376h-164l-170 325l-60 -325h-137l137 739h137l-59 -319l289 319h164z" />
    <glyph glyph-name="uni049D" unicode="&#x49d;" horiz-adv-x="580" 
d="M525 0h-179l-141 259l-48 -259h-133l102 554h134l-49 -261l225 261h159l-248 -271z" />
    <glyph glyph-name="uni049E" unicode="&#x49e;" horiz-adv-x="620" 
d="M706 739l-344 -363l207 -376h-164l-170 325l-60 -325h-137l109 587h-70l17 99h71l10 53h137l-10 -53h72l-18 -99h-72l-31 -167l289 319h164z" />
    <glyph glyph-name="uni049F" unicode="&#x49f;" horiz-adv-x="580" 
d="M525 0h-179l-141 259l-48 -259h-133l79 428h-71l17 99h72l5 27h134l-5 -27h74l-18 -99h-75l-25 -135l225 261h159l-248 -271z" />
    <glyph glyph-name="uni04A0" unicode="&#x4a0;" horiz-adv-x="620" 
d="M706 739l-344 -363l207 -376h-164l-170 325l-60 -325h-137l137 739h137l-59 -319l289 319h164z" />
    <glyph glyph-name="uni04A1" unicode="&#x4a1;" horiz-adv-x="580" 
d="M525 0h-179l-141 259l-48 -259h-133l102 554h134l-49 -261l225 261h159l-248 -271z" />
    <glyph glyph-name="uni04A2" unicode="&#x4a2;" horiz-adv-x="680" 
d="M713 739l-137 -739h-137l57 310h-264l-57 -310h-137l137 739h137l-55 -297h264l55 297h137z" />
    <glyph glyph-name="uni04A3" unicode="&#x4a3;" horiz-adv-x="565" 
d="M619 554l-103 -554h-133l40 216h-226l-40 -216h-133l103 554h133l-40 -217h225l41 217h133z" />
    <glyph glyph-name="uni04A4" unicode="&#x4a4;" horiz-adv-x="680" 
d="M713 739l-137 -739h-137l57 310h-264l-57 -310h-137l137 739h137l-55 -297h264l55 297h137z" />
    <glyph glyph-name="uni04A5" unicode="&#x4a5;" horiz-adv-x="565" 
d="M619 554l-103 -554h-133l40 216h-226l-40 -216h-133l103 554h133l-40 -217h225l41 217h133z" />
    <glyph glyph-name="uni04A6" unicode="&#x4a6;" horiz-adv-x="680" 
d="M713 739l-137 -739h-137l113 607h-264l-113 -607h-137l137 739h538z" />
    <glyph glyph-name="uni04A7" unicode="&#x4a7;" horiz-adv-x="565" 
d="M619 554l-104 -554h-133l81 433h-226l-80 -433h-133l103 554h492z" />
    <glyph glyph-name="uni04A8" unicode="&#x4a8;" horiz-adv-x="780" 
d="M828 527h-154q-21 36 -43 54q-50 39 -133 39q-146 0 -238 -125q-58 -78 -58 -168q0 -91 58 -149.5t147 -58.5q54 0 99 19.5t101 67.5h161q-60 -100 -164.5 -159.5t-218.5 -59.5q-155 0 -244 101q-37 41 -58 98.5t-21 116.5q0 114 64.5 218t170.5 167.5t221 63.5
q140 0 231 -85q55 -51 79 -140z" />
    <glyph glyph-name="uni04A9" unicode="&#x4a9;" 
d="M640 369h-150q-23 76 -113 76q-79 0 -136 -59t-57 -141q0 -62 36 -99t95 -37q86 0 140 73h150q-53 -94 -133.5 -144.5t-177.5 -50.5q-106 0 -176.5 67.5t-70.5 168.5q0 136 106 240t244 104q118 0 190 -78q40 -43 53 -120z" />
    <glyph glyph-name="uni04AA" unicode="&#x4aa;" horiz-adv-x="780" 
d="M828 527h-154q-21 36 -43 54q-50 39 -133 39q-146 0 -238 -125q-58 -78 -58 -168q0 -91 58 -149.5t147 -58.5q54 0 99 19.5t101 67.5h161q-60 -100 -164.5 -159.5t-218.5 -59.5q-155 0 -244 101q-37 41 -58 98.5t-21 116.5q0 114 64.5 218t170.5 167.5t221 63.5
q140 0 231 -85q55 -51 79 -140z" />
    <glyph glyph-name="uni04AB" unicode="&#x4ab;" 
d="M640 369h-150q-23 76 -113 76q-79 0 -136 -59t-57 -141q0 -62 36 -99t95 -37q86 0 140 73h150q-53 -94 -133.5 -144.5t-177.5 -50.5q-106 0 -176.5 67.5t-70.5 168.5q0 136 106 240t244 104q118 0 190 -78q40 -43 53 -120z" />
    <glyph glyph-name="uni04AC" unicode="&#x4ac;" horiz-adv-x="420" 
d="M501 607h-139l-113 -607h-137l113 607h-136l24 132h412z" />
    <glyph glyph-name="uni04AD" unicode="&#x4ad;" horiz-adv-x="378" 
d="M429 554l-23 -121h-120l-80 -433h-133l80 433h-120l23 121h373z" />
    <glyph glyph-name="uni04AE" unicode="&#x4ae;" horiz-adv-x="620" 
d="M733 739l-329 -466l-51 -273h-137l51 273l-157 466h148l100 -340l227 340h148z" />
    <glyph glyph-name="uni04AF" unicode="&#x4af;" horiz-adv-x="560" 
d="M626 554l-326 -554h-106l-120 554h148l60 -367l194 367h150z" />
    <glyph glyph-name="uni04B0" unicode="&#x4b0;" horiz-adv-x="620" 
d="M733 739l-297 -421h48l-18 -99h-72l-41 -219h-137l41 219h-70l17 99h48l-142 421h148l100 -340l227 340h148z" />
    <glyph glyph-name="uni04B1" unicode="&#x4b1;" horiz-adv-x="560" 
d="M626 554l-326 -554h-106l-120 554h148l60 -367l194 367h150z" />
    <glyph glyph-name="uni04B2" unicode="&#x4b2;" horiz-adv-x="680" 
d="M783 739l-325 -371l188 -368h-159l-130 255l-219 -255h-163l322 368l-185 371h163l124 -258l225 258h159z" />
    <glyph glyph-name="uni04B3" unicode="&#x4b3;" horiz-adv-x="560" 
d="M524 0h-160l-81 190l-152 -190h-160l250 286l-120 268h150l69 -167l129 167h150l-219 -268z" />
    <glyph glyph-name="uni04B4" unicode="&#x4b4;" horiz-adv-x="738" 
d="M679 -140h-137l26 140h-530l137 739h137l-113 -607h264l113 607h137l-112 -607h128z" />
    <glyph glyph-name="uni04B5" unicode="&#x4b5;" horiz-adv-x="660" 
d="M622 121l-45 -241h-133l22 120h-442l103 554h133l-81 -433h208l80 433h133l-80 -433h102z" />
    <glyph glyph-name="uni04B6" unicode="&#x4b6;" horiz-adv-x="530" 
d="M586 739l-137 -739h-137l53 290h-221q-114 0 -114 101q0 17 3 35l58 313h137l-48 -263q-4 -12 -4 -24q0 -28 36 -30h178l59 317h137z" />
    <glyph glyph-name="uni04B7" unicode="&#x4b7;" horiz-adv-x="474" 
d="M529 554l-103 -554h-133l34 186h-189q-42 0 -76.5 23.5t-34.5 71.5q0 7 2 25l45 248h133l-36 -196q-1 -6 -1 -16q0 -35 40 -35h139l47 247h133z" />
    <glyph glyph-name="uni04B8" unicode="&#x4b8;" horiz-adv-x="530" 
d="M586 739l-137 -739h-137l53 290h-221q-114 0 -114 101q0 17 3 35l58 313h137l-48 -263q-4 -12 -4 -24q0 -28 36 -30h178l59 317h137z" />
    <glyph glyph-name="uni04B9" unicode="&#x4b9;" horiz-adv-x="474" 
d="M529 554l-103 -554h-133l34 186h-189q-42 0 -76.5 23.5t-34.5 71.5q0 7 2 25l45 248h133l-36 -196q-1 -6 -1 -16q0 -35 40 -35h139l47 247h133z" />
    <glyph glyph-name="uni04BA" unicode="&#x4ba;" horiz-adv-x="530" 
d="M525 0h-137l48 263q4 18 4 24q0 28 -36 30h-178l-59 -317h-137l137 739h137l-53 -290h221q114 0 114 -101q0 -17 -3 -35z" />
    <glyph glyph-name="uni04BB" unicode="&#x4bb;" horiz-adv-x="474" 
d="M482 0h-133l36 196q1 6 1 16q0 35 -40 35h-139l-47 -247h-133l103 554h133l-34 -186h189q42 0 76.5 -23.5t34.5 -71.5q0 -7 -2 -25z" />
    <glyph glyph-name="uni04BC" unicode="&#x4bc;" horiz-adv-x="780" 
d="M828 527h-154q-21 36 -43 54q-50 39 -133 39q-146 0 -238 -125q-58 -78 -58 -168q0 -91 58 -149.5t147 -58.5q54 0 99 19.5t101 67.5h161q-60 -100 -164.5 -159.5t-218.5 -59.5q-155 0 -244 101q-37 41 -58 98.5t-21 116.5q0 114 64.5 218t170.5 167.5t221 63.5
q140 0 231 -85q55 -51 79 -140z" />
    <glyph glyph-name="uni04BD" unicode="&#x4bd;" 
d="M640 369h-150q-23 76 -113 76q-79 0 -136 -59t-57 -141q0 -62 36 -99t95 -37q86 0 140 73h150q-53 -94 -133.5 -144.5t-177.5 -50.5q-106 0 -176.5 67.5t-70.5 168.5q0 136 106 240t244 104q118 0 190 -78q40 -43 53 -120z" />
    <glyph glyph-name="uni04BE" unicode="&#x4be;" horiz-adv-x="780" 
d="M828 527h-154q-21 36 -43 54q-50 39 -133 39q-146 0 -238 -125q-58 -78 -58 -168q0 -91 58 -149.5t147 -58.5q54 0 99 19.5t101 67.5h161q-60 -100 -164.5 -159.5t-218.5 -59.5q-155 0 -244 101q-37 41 -58 98.5t-21 116.5q0 114 64.5 218t170.5 167.5t221 63.5
q140 0 231 -85q55 -51 79 -140z" />
    <glyph glyph-name="uni04BF" unicode="&#x4bf;" 
d="M640 369h-150q-23 76 -113 76q-79 0 -136 -59t-57 -141q0 -62 36 -99t95 -37q86 0 140 73h150q-53 -94 -133.5 -144.5t-177.5 -50.5q-106 0 -176.5 67.5t-70.5 168.5q0 136 106 240t244 104q118 0 190 -78q40 -43 53 -120z" />
    <glyph glyph-name="uni04C0" unicode="&#x4c0;" horiz-adv-x="280" 
d="M312 739l-137 -739h-137l137 739h137z" />
    <glyph glyph-name="uni04C1" unicode="&#x4c1;" horiz-adv-x="951" 
d="M778 948q-14 -61 -66.5 -98.5t-120.5 -37.5q-67 0 -105 31t-38 86q0 11 1 19h98q9 -42 61 -42q47 0 71 42h99zM1037 739l-344 -363l206 -376h-163l-170 325l-60 -325h-137l59 319l-291 -319h-162l344 363l-207 376h164l170 -325l60 325h137l-59 -319l293 319h160z" />
    <glyph glyph-name="uni04C2" unicode="&#x4c2;" horiz-adv-x="867" 
d="M667 763q-14 -61 -66.5 -98.5t-120.5 -37.5q-67 0 -105 31t-38 86q0 11 1 19h98q9 -42 61 -42q47 0 71 42h99zM812 0h-166l-154 259l-48 -259h-133l48 261l-228 -261h-156l248 271l-178 283h167l153 -259l48 259h134l-49 -261l229 261h155l-248 -271z" />
    <glyph glyph-name="uni04C3" unicode="&#x4c3;" horiz-adv-x="620" 
d="M706 739l-344 -363l207 -376h-164l-170 325l-60 -325h-137l137 739h137l-59 -319l289 319h164z" />
    <glyph glyph-name="uni04C4" unicode="&#x4c4;" horiz-adv-x="580" 
d="M525 0h-179l-141 259l-48 -259h-133l102 554h134l-49 -261l225 261h159l-248 -271z" />
    <glyph glyph-name="uni04C7" unicode="&#x4c7;" horiz-adv-x="680" 
d="M713 739l-137 -739h-137l57 310h-264l-57 -310h-137l137 739h137l-55 -297h264l55 297h137z" />
    <glyph glyph-name="uni04C8" unicode="&#x4c8;" horiz-adv-x="565" 
d="M619 554l-103 -554h-133l40 216h-226l-40 -216h-133l103 554h133l-40 -217h225l41 217h133z" />
    <glyph glyph-name="uni04CB" unicode="&#x4cb;" horiz-adv-x="530" 
d="M586 739l-137 -739h-137l53 290h-221q-114 0 -114 101q0 17 3 35l58 313h137l-48 -263q-4 -12 -4 -24q0 -28 36 -30h178l59 317h137z" />
    <glyph glyph-name="uni04CC" unicode="&#x4cc;" horiz-adv-x="474" 
d="M529 554l-103 -554h-133l34 186h-189q-42 0 -76.5 23.5t-34.5 71.5q0 7 2 25l45 248h133l-36 -196q-1 -6 -1 -16q0 -35 40 -35h139l47 247h133z" />
    <glyph glyph-name="uni04D0" unicode="&#x4d0;" horiz-adv-x="740" 
d="M679 948q-14 -61 -66.5 -98.5t-120.5 -37.5q-67 0 -105 31t-38 86q0 11 1 19h98q9 -42 61 -42q47 0 71 42h99zM703 0h-151l-44 191h-263l-117 -191h-151l445 739h108zM478 323l-38 223l-120 -223h158z" />
    <glyph glyph-name="uni04D1" unicode="&#x4d1;" horiz-adv-x="660" 
d="M591 763q-14 -61 -66.5 -98.5t-120.5 -37.5q-67 0 -105 31t-38 86q0 11 1 19h98q9 -42 61 -42q47 0 71 42h99zM586 0h-122l13 72q-89 -85 -200 -85q-105 0 -168.5 62t-63.5 164q0 145 102 249.5t243 104.5q116 0 163 -87l13 74h122zM514 313q0 61 -36 96.5t-98 35.5
q-80 0 -139 -61.5t-59 -143.5q0 -60 36.5 -95.5t98.5 -35.5q102 0 160 82q37 56 37 122z" />
    <glyph glyph-name="uni04D2" unicode="&#x4d2;" horiz-adv-x="740" 
d="M476 944l-25 -132h-133l25 132h133zM686 944l-25 -132h-133l25 132h133zM703 0h-151l-44 191h-263l-117 -191h-151l445 739h108zM478 323l-38 223l-120 -223h158z" />
    <glyph glyph-name="uni04D3" unicode="&#x4d3;" horiz-adv-x="660" 
d="M388 759l-25 -132h-133l25 132h133zM598 759l-25 -132h-133l25 132h133zM586 0h-122l13 72q-89 -85 -200 -85q-105 0 -168.5 62t-63.5 164q0 145 102 249.5t243 104.5q116 0 163 -87l13 74h122zM514 313q0 61 -36 96.5t-98 35.5q-80 0 -139 -61.5t-59 -143.5
q0 -60 36.5 -95.5t98.5 -35.5q102 0 160 82q37 56 37 122z" />
    <glyph glyph-name="uni04D4" unicode="&#x4d4;" horiz-adv-x="900" 
d="M926 607h-218l-33 -172h207l-24 -132h-207l-32 -171h218l-24 -132h-355l35 191h-194l-148 -191h-164l624 739h339zM518 323l35 190l-150 -190h115z" />
    <glyph glyph-name="uni04D5" unicode="&#x4d5;" horiz-adv-x="1080" 
d="M1078 342q0 -58 -27 -123h-428q6 -50 42.5 -80t92.5 -30q74 0 128 55h145q-44 -80 -123 -128.5t-165 -48.5q-64 0 -109 25q-25 14 -47 48l-12 -60h-122l12 60q-44 -41 -82.5 -57t-94.5 -16q-108 0 -175 63.5t-67 165.5q0 140 103.5 245.5t240.5 105.5q55 0 91 -16t65 -52
l10 55h122l-10 -55q76 68 184 68q97 0 161.5 -64t64.5 -161zM504 312q0 54 -29 87q-40 46 -100 46q-79 0 -135.5 -60.5t-56.5 -144.5q0 -59 35.5 -95t94.5 -36q77 0 134 60.5t57 142.5zM942 337q-9 51 -26 71q-37 37 -104 37q-118 0 -174 -108h304z" />
    <glyph glyph-name="uni04D6" unicode="&#x4d6;" horiz-adv-x="520" 
d="M577 948q-14 -61 -66.5 -98.5t-120.5 -37.5q-67 0 -105 31t-38 86q0 11 1 19h98q9 -42 61 -42q47 0 71 42h99zM548 607h-260l-33 -172h249l-24 -132h-249l-32 -171h260l-24 -132h-397l137 739h397z" />
    <glyph glyph-name="uni04D7" unicode="&#x4d7;" 
d="M599 763q-14 -61 -66.5 -98.5t-120.5 -37.5q-67 0 -105 31t-38 86q0 11 1 19h98q9 -42 61 -42q47 0 71 42h99zM615 218h-429q0 -48 36.5 -78.5t93.5 -30.5q80 0 135 55h145q-45 -82 -125 -129.5t-174 -47.5q-111 0 -181 66t-70 170q0 136 106.5 240t245.5 104
q104 0 170.5 -63t66.5 -162q0 -76 -20 -124zM511 336q-6 109 -134 109q-58 0 -106 -30t-67 -79h307z" />
    <glyph glyph-name="uni04D8" unicode="&#x4d8;" horiz-adv-x="780" 
d="M828 436q0 -179 -131.5 -313.5t-324.5 -135.5q-119 3 -203 61.5t-107 163.5h154q26 -49 65.5 -68.5t110.5 -24.5q90 -4 169.5 50.5t105.5 140.5h-346l25 132h340q-9 79 -65 128.5t-138 49.5q-54 0 -99 -19.5t-101 -67.5h-161q60 100 164.5 159.5t218.5 59.5
q138 4 230 -87.5t93 -228.5z" />
    <glyph glyph-name="afii10846" unicode="&#x4d9;" 
d="M640 331q0 -136 -106 -240t-244 -104q-118 0 -190 78q-40 43 -53 120h150q23 -76 113 -76q54 0 100 29.5t71 77.5h-227l23 121h224q-8 50 -42.5 79t-86.5 29q-86 0 -140 -73h-150q53 94 133.5 144.5t177.5 50.5q106 0 176.5 -67.5t70.5 -168.5z" />
    <glyph glyph-name="uni04DA" unicode="&#x4da;" horiz-adv-x="780" 
d="M514 944l-25 -132h-133l25 132h133zM724 944l-25 -132h-133l25 132h133zM828 436q0 -179 -131.5 -313.5t-324.5 -135.5q-119 3 -203 61.5t-107 163.5h154q26 -49 65.5 -68.5t110.5 -24.5q90 -4 169.5 50.5t105.5 140.5h-346l25 132h340q-9 79 -65 128.5t-138 49.5
q-54 0 -99 -19.5t-101 -67.5h-161q60 100 164.5 159.5t218.5 59.5q138 4 230 -87.5t93 -228.5z" />
    <glyph glyph-name="uni04DB" unicode="&#x4db;" 
d="M391 759l-25 -132h-133l25 132h133zM601 759l-25 -132h-133l25 132h133zM640 331q0 -136 -106 -240t-244 -104q-118 0 -190 78q-40 43 -53 120h150q23 -76 113 -76q54 0 100 29.5t71 77.5h-227l23 121h224q-8 50 -42.5 79t-86.5 29q-86 0 -140 -73h-150
q53 94 133.5 144.5t177.5 50.5q106 0 176.5 -67.5t70.5 -168.5z" />
    <glyph glyph-name="uni04DC" unicode="&#x4dc;" horiz-adv-x="951" 
d="M574 944l-25 -132h-133l25 132h133zM784 944l-25 -132h-133l25 132h133zM1037 739l-344 -363l206 -376h-163l-170 325l-60 -325h-137l59 319l-291 -319h-162l344 363l-207 376h164l170 -325l60 325h137l-59 -319l293 319h160z" />
    <glyph glyph-name="uni04DD" unicode="&#x4dd;" horiz-adv-x="867" 
d="M463 759l-25 -132h-133l25 132h133zM673 759l-25 -132h-133l25 132h133zM812 0h-166l-154 259l-48 -259h-133l48 261l-228 -261h-156l248 271l-178 283h167l153 -259l48 259h134l-49 -261l229 261h155l-248 -271z" />
    <glyph glyph-name="uni04DE" unicode="&#x4de;" horiz-adv-x="573" 
d="M460 944l-25 -132h-133l25 132h133zM670 944l-25 -132h-133l25 132h133zM682 258q0 -120 -99 -195.5t-260 -75.5q-75 0 -132.5 23.5t-86.5 56.5t-47.5 66.5t-22.5 56.5l-5 24h136q10 -36 52 -66t126 -30q89 0 145 34.5t56 92.5q0 74 -122 74l-113 1l28 141h112
q48 0 80 25t32 63q0 28 -35.5 47t-82.5 19q-77 0 -118 -20.5t-67 -55.5h-137q2 4 5.5 12t18 30t31.5 42t46 44.5t62 42.5t80 30t98 12q106 0 173 -48t67 -122q0 -76 -32.5 -126.5t-83.5 -67.5q44 -7 70 -42.5t26 -87.5z" />
    <glyph glyph-name="uni04DF" unicode="&#x4df;" horiz-adv-x="475" 
d="M361 759l-25 -132h-133l25 132h133zM571 759l-25 -132h-133l25 132h133zM513 184q0 -90 -74 -143.5t-189 -53.5q-57 0 -99 17.5t-62 43t-31.5 51t-13.5 43.5l-2 17h124q1 -2 2 -6.5t8.5 -15t18 -18.5t30.5 -14.5t46 -6.5q118 0 118 75q0 53 -86 53h-88l24 126h87
q40 0 62.5 17.5t22.5 49.5q0 38 -70 38q-32 0 -57.5 -12t-35.5 -24l-9 -12h-109q2 6 7 16.5t24 36.5t43 45.5t66.5 36t91.5 16.5q83 0 121 -32t38 -82t-29.5 -92.5t-64.5 -56.5q39 -6 62.5 -37t23.5 -76z" />
    <glyph glyph-name="uni04E0" unicode="&#x4e0;" horiz-adv-x="573" 
d="M560 241q-3 -34 -6.5 -55t-11 -51t-18.5 -48.5t-30.5 -39.5t-45.5 -32.5t-64 -20t-86 -8.5q-65 -1 -116 20.5t-78 53t-44 62.5t-22 53l-5 22h161q1 -3 3 -8.5t10 -19t18.5 -24t30.5 -19t44 -8.5q59 0 85 28t31 85q3 35 -29 57t-95 22h-65l25 136h44q80 0 111 35
q9 11 16 33t7 39q0 61 -82 61q-26 0 -43 -14t-21 -28l-4 -13h-136q2 8 6.5 21t21.5 46t39 58.5t61 46.5t84 21q102 5 157.5 -38t56.5 -128q-6 -94 -36 -134q-26 -35 -74 -57q52 -22 78.5 -63t21.5 -91z" />
    <glyph glyph-name="uni04E1" unicode="&#x4e1;" horiz-adv-x="475" 
d="M461 191q-5 -105 -55 -155t-148 -49q-55 0 -97 17t-63 41t-34.5 48t-16.5 41l-3 16h152q1 -2 2 -5t6.5 -11t13 -14t21.5 -10.5t31 -4.5q31 0 46.5 8.5t19 17.5t9.5 33q-1 39 -23.5 53t-69.5 14h-39l16 103h26q89 0 101 64q0 31 -13.5 44t-40.5 12q-20 0 -34 -11t-18 -21
l-5 -11h-110q1 6 3 16.5t14 37.5t29.5 47.5t53 37.5t81.5 17q69 0 110.5 -33t45.5 -102q2 -32 -22 -72.5t-61 -53.5q36 -16 56 -53t16 -62z" />
    <glyph glyph-name="uni04E2" unicode="&#x4e2;" horiz-adv-x="740" 
d="M628 812h-279l17 99h280zM774 739l-137 -739h-137l99 537l-405 -537h-156l137 739h137l-100 -538l409 538h153z" />
    <glyph glyph-name="uni04E3" unicode="&#x4e3;" horiz-adv-x="565" 
d="M527 627h-279l17 99h280zM619 554l-103 -554h-133l69 376l-278 -376h-150l103 554h133l-75 -390l279 390h155z" />
    <glyph glyph-name="uni04E4" unicode="&#x4e4;" horiz-adv-x="740" 
d="M474 944l-25 -132h-133l25 132h133zM684 944l-25 -132h-133l25 132h133zM774 739l-137 -739h-137l99 537l-405 -537h-156l137 739h137l-100 -538l409 538h153z" />
    <glyph glyph-name="uni04E5" unicode="&#x4e5;" horiz-adv-x="565" 
d="M373 759l-25 -132h-133l25 132h133zM583 759l-25 -132h-133l25 132h133zM619 554l-103 -554h-133l69 376l-278 -376h-150l103 554h133l-75 -390l279 390h155z" />
    <glyph glyph-name="uni04E6" unicode="&#x4e6;" horiz-adv-x="840" 
d="M527 944l-25 -132h-133l25 132h133zM737 944l-25 -132h-133l25 132h133zM845 439q0 -117 -63.5 -221.5t-170 -167.5t-225.5 -63q-142 0 -233.5 88t-91.5 225q0 76 32.5 154.5t88.5 140.5q70 76 159.5 116.5t187.5 40.5q138 0 227 -88t89 -225zM705 419q0 88 -57 144.5
t-146 56.5q-144 0 -235 -119q-66 -85 -66 -178q0 -89 59 -146.5t150 -57.5q68 0 128.5 31t103.5 88q63 84 63 181z" />
    <glyph glyph-name="uni04E7" unicode="&#x4e7;" 
d="M399 759l-25 -132h-133l25 132h133zM609 759l-25 -132h-133l25 132h133zM645 327q0 -134 -108 -237t-249 -103q-103 0 -172.5 67t-69.5 167q0 137 107 241.5t248 104.5q106 0 175 -68t69 -172zM508 309q0 59 -37 97.5t-93 38.5q-76 0 -135.5 -61t-59.5 -140
q0 -58 37.5 -96.5t94.5 -38.5q75 0 134 61.5t59 138.5z" />
    <glyph glyph-name="uni04E8" unicode="&#x4e8;" horiz-adv-x="840" 
d="M845 439q0 -117 -63.5 -221.5t-170 -167.5t-225.5 -63q-142 0 -233.5 88t-91.5 225q0 76 32.5 154.5t88.5 140.5q70 76 159.5 116.5t187.5 40.5q138 0 227 -88t89 -225zM687 323h-486q0 -89 59 -146.5t150 -57.5q68 0 128.5 31t103.5 88q27 35 45 85zM705 422
q-1 86 -58 142t-145 56q-144 0 -235 -119q-28 -35 -45 -79h483z" />
    <glyph glyph-name="uni04E9" unicode="&#x4e9;" 
d="M645 327q0 -134 -108 -237t-249 -103q-103 0 -172.5 67t-69.5 167q0 137 107 241.5t248 104.5q106 0 175 -68t69 -172zM491 232h-308q5 -54 41.5 -88.5t90.5 -34.5q55 0 103.5 35t72.5 88zM506 331q-7 51 -42 82.5t-86 31.5q-53 0 -100.5 -32t-73.5 -82h302z" />
    <glyph glyph-name="uni04EA" unicode="&#x4ea;" horiz-adv-x="840" 
d="M527 944l-25 -132h-133l25 132h133zM737 944l-25 -132h-133l25 132h133zM845 439q0 -117 -63.5 -221.5t-170 -167.5t-225.5 -63q-142 0 -233.5 88t-91.5 225q0 76 32.5 154.5t88.5 140.5q70 76 159.5 116.5t187.5 40.5q138 0 227 -88t89 -225zM687 323h-486
q0 -89 59 -146.5t150 -57.5q68 0 128.5 31t103.5 88q27 35 45 85zM705 422q-1 86 -58 142t-145 56q-144 0 -235 -119q-28 -35 -45 -79h483z" />
    <glyph glyph-name="uni04EB" unicode="&#x4eb;" 
d="M399 759l-25 -132h-133l25 132h133zM609 759l-25 -132h-133l25 132h133zM645 327q0 -134 -108 -237t-249 -103q-103 0 -172.5 67t-69.5 167q0 137 107 241.5t248 104.5q106 0 175 -68t69 -172zM491 232h-308q5 -54 41.5 -88.5t90.5 -34.5q55 0 103.5 35t72.5 88zM506 331
q-7 51 -42 82.5t-86 31.5q-53 0 -100.5 -32t-73.5 -82h302z" />
    <glyph glyph-name="uni04EC" unicode="&#x4ec;" horiz-adv-x="780" 
d="M503 944l-25 -132h-133l25 132h133zM713 944l-25 -132h-133l25 132h133zM828 436q0 -115 -60 -218.5t-166 -167t-230 -63.5q-118 0 -202.5 59.5t-107.5 165.5h154q27 -51 67.5 -72t108.5 -21q93 0 171 53t104 138h-346l25 132h340q-9 79 -65 128.5t-138 49.5
q-54 0 -99 -19.5t-101 -67.5h-161q60 100 164.5 159.5t218.5 59.5q138 0 230.5 -90.5t92.5 -225.5z" />
    <glyph glyph-name="uni04ED" unicode="&#x4ed;" 
d="M391 759l-25 -132h-133l25 132h133zM601 759l-25 -132h-133l25 132h133zM640 331q0 -136 -106 -240t-244 -104q-118 0 -190 78q-40 43 -53 120h150q23 -76 113 -76q54 0 100 29.5t71 77.5h-227l23 121h224q-8 50 -42.5 79t-86.5 29q-86 0 -140 -73h-150
q53 94 133.5 144.5t177.5 50.5q106 0 176.5 -67.5t70.5 -168.5z" />
    <glyph glyph-name="uni04EE" unicode="&#x4ee;" horiz-adv-x="620" 
d="M575 812h-279l17 99h280zM733 739l-521 -739h-148l199 284l-153 455h143l101 -327l231 327h148z" />
    <glyph glyph-name="uni04EF" unicode="&#x4ef;" horiz-adv-x="580" 
d="M514 627h-279l17 99h280zM641 554l-455 -739h-143l146 237l-110 502h152l56 -357l201 357h153z" />
    <glyph glyph-name="uni04F0" unicode="&#x4f0;" horiz-adv-x="620" 
d="M421 944l-25 -132h-133l25 132h133zM631 944l-25 -132h-133l25 132h133zM733 739l-521 -739h-148l199 284l-153 455h143l101 -327l231 327h148z" />
    <glyph glyph-name="uni04F1" unicode="&#x4f1;" horiz-adv-x="580" 
d="M360 759l-25 -132h-133l25 132h133zM570 759l-25 -132h-133l25 132h133zM641 554l-455 -739h-143l146 237l-110 502h152l56 -357l201 357h153z" />
    <glyph glyph-name="uni04F2" unicode="&#x4f2;" horiz-adv-x="620" 
d="M538 944l-244 -132l-38 79l230 142zM820 944l-243 -132l-39 79l231 142zM733 739l-521 -739h-148l199 284l-153 455h143l101 -327l231 327h148z" />
    <glyph glyph-name="uni04F3" unicode="&#x4f3;" horiz-adv-x="580" 
d="M476 759l-244 -132l-38 79l230 142zM758 759l-243 -132l-39 79l231 142zM641 554l-455 -739h-143l146 237l-110 502h152l56 -357l201 357h153z" />
    <glyph glyph-name="uni04F4" unicode="&#x4f4;" horiz-adv-x="530" 
d="M338 944l-25 -132h-133l25 132h133zM548 944l-25 -132h-133l25 132h133zM586 739l-137 -739h-137l53 290h-221q-114 0 -114 101q0 17 3 35l58 313h137l-48 -263q-4 -12 -4 -24q0 -28 36 -30h178l59 317h137z" />
    <glyph glyph-name="uni04F5" unicode="&#x4f5;" horiz-adv-x="474" 
d="M301 759l-25 -132h-133l25 132h133zM511 759l-25 -132h-133l25 132h133zM529 554l-103 -554h-133l34 186h-189q-42 0 -76.5 23.5t-34.5 71.5q0 7 2 25l45 248h133l-36 -196q-1 -6 -1 -16q0 -35 40 -35h139l47 247h133z" />
    <glyph glyph-name="uni04F8" unicode="&#x4f8;" horiz-adv-x="841" 
d="M570 944l-25 -132h-133l25 132h133zM780 944l-25 -132h-133l25 132h133zM669 332q0 -149 -106.5 -240.5t-277.5 -91.5h-247l144 739h137l-40 -204h110q131 0 205.5 -51t74.5 -152zM529 292q0 50 -46.5 81t-109.5 31h-119l-53 -273h116q76 0 144 46t68 115zM954 738
l-137 -739h-137l137 739h137z" />
    <glyph glyph-name="uni04F9" unicode="&#x4f9;" horiz-adv-x="678" 
d="M466 759l-25 -132h-133l25 132h133zM676 759l-25 -132h-133l25 132h133zM524 231q0 -100 -79.5 -165.5t-194.5 -65.5h-208l108 554h133l-35 -177h75q95 0 148 -36.5t53 -109.5zM398 205q0 23 -14.5 41t-49.5 18h-108l-28 -144h111q43 0 66 27t23 58zM782 554l-103 -554
h-133l103 554h133z" />
    <glyph glyph-name="baht" unicode="&#xe3f;" horiz-adv-x="580" 
d="M563 264q0 -100 -67.5 -171t-189.5 -88l-17 -88h-97l15 83h-169l137 739h153h16l16 83h97l-16 -88q46 -7 78 -30q58 -43 58 -124q0 -126 -110 -177q52 -22 74 -54t22 -85zM423 241q0 42 -29.5 60.5t-94.5 18.5h-65l-35 -188h68q156 0 156 109zM437 549q0 58 -94 58h-56
l-28 -153h44q134 0 134 95z" />
    <glyph glyph-name="Ddotbelow" unicode="&#x1e0c;" horiz-adv-x="700" 
d="M704 452q0 -111 -52 -215t-137 -163q-57 -40 -127.5 -57t-177.5 -17h-172l137 739h169q191 0 275.5 -72t84.5 -215zM564 421q0 96 -55.5 141.5t-193.5 45.5h-27l-89 -477h30q92 0 150 19t100 62q85 88 85 209zM381 -80l-25 -132h-133l25 132h133z" />
    <glyph glyph-name="ddotbelow" unicode="&#x1e0d;" horiz-adv-x="660" 
d="M720 739l-137 -739h-122l14 72q-91 -85 -199 -85q-104 0 -167 64t-63 169q0 141 102.5 247.5t237.5 106.5q51 0 93.5 -18.5t64.5 -50.5l43 234h133zM516 314q0 62 -36.5 100t-96.5 38q-81 0 -140.5 -60.5t-59.5 -143.5q0 -62 38.5 -100.5t99.5 -38.5q76 0 135.5 62.5
t59.5 142.5zM352 -80l-25 -132h-133l25 132h133z" />
    <glyph glyph-name="Dlinebelow" unicode="&#x1e0e;" horiz-adv-x="700" 
d="M704 452q0 -111 -52 -215t-137 -163q-57 -40 -127.5 -57t-177.5 -17h-172l137 739h169q191 0 275.5 -72t84.5 -215zM564 421q0 96 -55.5 141.5t-193.5 45.5h-27l-89 -477h30q92 0 150 19t100 62q85 88 85 209zM433 -195h-279l17 99h280z" />
    <glyph glyph-name="dlinebelow" unicode="&#x1e0f;" horiz-adv-x="660" 
d="M720 739l-137 -739h-122l14 72q-91 -85 -199 -85q-104 0 -167 64t-63 169q0 141 102.5 247.5t237.5 106.5q51 0 93.5 -18.5t64.5 -50.5l43 234h133zM516 314q0 62 -36.5 100t-96.5 38q-81 0 -140.5 -60.5t-59.5 -143.5q0 -62 38.5 -100.5t99.5 -38.5q76 0 135.5 62.5
t59.5 142.5zM404 -195h-279l17 99h280z" />
    <glyph glyph-name="Hdotbelow" unicode="&#x1e24;" horiz-adv-x="680" 
d="M713 739l-137 -739h-137l57 310h-264l-57 -310h-137l137 739h137l-55 -297h264l55 297h137zM359 -80l-25 -132h-133l25 132h133z" />
    <glyph glyph-name="hdotbelow" unicode="&#x1e25;" horiz-adv-x="600" 
d="M515 0h-133l52 283q9 48 9 81q0 39 -23 60.5t-64 21.5q-59 0 -94.5 -37t-52.5 -128l-52 -281h-133l137 739h133l-41 -223q62 52 149 52q82 0 131.5 -43.5t49.5 -116.5q0 -44 -10 -95zM322 -80l-25 -132h-133l25 132h133z" />
    <glyph glyph-name="Hdieresis" unicode="&#x1e26;" horiz-adv-x="680" 
d="M713 739l-137 -739h-137l57 310h-264l-57 -310h-137l137 739h137l-55 -297h264l55 297h137zM437 941l-25 -132h-133l25 132h133zM647 941l-25 -132h-133l25 132h133z" />
    <glyph glyph-name="hdieresis" unicode="&#x1e27;" horiz-adv-x="600" 
d="M515 0h-133l52 283q9 48 9 81q0 39 -23 60.5t-64 21.5q-59 0 -94.5 -37t-52.5 -128l-52 -281h-133l137 739h133l-41 -223q62 52 149 52q82 0 131.5 -43.5t49.5 -116.5q0 -44 -10 -95zM400 941l-25 -132h-133l25 132h133zM610 941l-25 -132h-133l25 132h133z" />
    <glyph glyph-name="Hbrevebelow" unicode="&#x1e2a;" horiz-adv-x="680" 
d="M713 739l-137 -739h-137l57 310h-264l-57 -310h-137l137 739h137l-55 -297h264l55 297h137zM457 -78q-14 -61 -66.5 -98.5t-120.5 -37.5q-67 0 -105 31t-38 86q0 11 1 19h98q9 -42 61 -42q47 0 71 42h99z" />
    <glyph glyph-name="hbrevebelow" unicode="&#x1e2b;" horiz-adv-x="600" 
d="M515 0h-133l52 283q9 48 9 81q0 39 -23 60.5t-64 21.5q-59 0 -94.5 -37t-52.5 -128l-52 -281h-133l137 739h133l-41 -223q62 52 149 52q82 0 131.5 -43.5t49.5 -116.5q0 -44 -10 -95zM420 -78q-14 -61 -66.5 -98.5t-120.5 -37.5q-67 0 -105 31t-38 86q0 11 1 19h98
q9 -42 61 -42q47 0 71 42h99z" />
    <glyph glyph-name="Ldotbelow" unicode="&#x1e36;" horiz-adv-x="440" 
d="M402 0h-364l137 739h137l-113 -607h227zM272 -80l-25 -132h-133l25 132h133z" />
    <glyph glyph-name="ldotbelow" unicode="&#x1e37;" horiz-adv-x="240" 
d="M294 739l-137 -739h-133l137 739h133zM142 -80l-25 -132h-133l25 132h133z" />
    <glyph glyph-name="Ldotbelowmacron" unicode="&#x1e38;" horiz-adv-x="440" 
d="M402 0h-364l137 739h137l-113 -607h227zM272 -80l-25 -132h-133l25 132h133zM400 826h-279l17 99h280z" />
    <glyph glyph-name="ldotbelowmacron" unicode="&#x1e39;" horiz-adv-x="240" 
d="M294 739l-137 -739h-133l137 739h133zM142 -80l-25 -132h-133l25 132h133zM384 826h-279l17 99h280z" />
    <glyph glyph-name="Mdotbelow" unicode="&#x1e42;" horiz-adv-x="900" 
d="M947 739l-137 -739h-137l103 554l-296 -554h-112l-90 554l-103 -554h-137l137 739h188l95 -560l301 560h188zM472 -80l-25 -132h-133l25 132h133z" />
    <glyph glyph-name="mdotbelow" unicode="&#x1e43;" horiz-adv-x="940" 
d="M855 0h-133l56 304q7 44 7 67q0 32 -23 53t-60 21q-59 0 -92.5 -36t-52.5 -136l-51 -273h-133l56 304q7 40 7 55q0 86 -88 86q-59 0 -90.5 -36.5t-49.5 -135.5l-51 -273h-133l103 554h122l-10 -52q65 65 158 65q109 0 145 -86q77 86 195 86q88 0 136.5 -43.5t48.5 -121.5
q0 -36 -8 -82zM492 -80l-25 -132h-133l25 132h133z" />
    <glyph glyph-name="Ndotaccent" unicode="&#x1e44;" horiz-adv-x="740" 
d="M774 739l-137 -739h-153l-209 537l-100 -537h-137l137 739h156l206 -538l100 538h137zM579 941l-25 -132h-133l25 132h133z" />
    <glyph glyph-name="ndotaccent" unicode="&#x1e45;" horiz-adv-x="600" 
d="M516 0h-133l50 271q9 49 9 92q0 82 -84 82q-59 0 -96 -38.5t-57 -145.5l-48 -261h-133l103 554h123l-10 -53q46 37 82.5 51.5t82.5 14.5q86 0 132 -42.5t46 -121.5q0 -40 -12 -106zM479 766l-25 -132h-133l25 132h133z" />
    <glyph glyph-name="Ndotbelow" unicode="&#x1e46;" horiz-adv-x="740" 
d="M774 739l-137 -739h-153l-209 537l-100 -537h-137l137 739h156l206 -538l100 538h137zM390 -80l-25 -132h-133l25 132h133z" />
    <glyph glyph-name="ndotbelow" unicode="&#x1e47;" horiz-adv-x="600" 
d="M516 0h-133l50 271q9 49 9 92q0 82 -84 82q-59 0 -96 -38.5t-57 -145.5l-48 -261h-133l103 554h123l-10 -53q46 37 82.5 51.5t82.5 14.5q86 0 132 -42.5t46 -121.5q0 -40 -12 -106zM322 -80l-25 -132h-133l25 132h133z" />
    <glyph glyph-name="Rdotaccent" unicode="&#x1e58;" horiz-adv-x="580" 
d="M538 0h-169l-142 283l-52 -283h-137l137 739h213q239 0 239 -186q0 -104 -61.5 -178t-176.5 -102zM487 521q0 46 -29.5 66t-108.5 20h-61l-41 -221h67q91 0 132 37.5t41 97.5zM492 941l-25 -132h-133l25 132h133z" />
    <glyph glyph-name="rdotaccent" unicode="&#x1e59;" horiz-adv-x="320" 
d="M382 567l-24 -128q-59 -1 -97.5 -36t-46.5 -95l-57 -308h-133l103 554h122l-10 -54q32 39 63 53.5t80 13.5zM355 766l-25 -132h-133l25 132h133z" />
    <glyph glyph-name="Rdotbelow" unicode="&#x1e5a;" horiz-adv-x="580" 
d="M538 0h-169l-142 283l-52 -283h-137l137 739h213q239 0 239 -186q0 -104 -61.5 -178t-176.5 -102zM487 521q0 46 -29.5 66t-108.5 20h-61l-41 -221h67q91 0 132 37.5t41 97.5zM303 -80l-25 -132h-133l25 132h133z" />
    <glyph glyph-name="rdotbelow" unicode="&#x1e5b;" horiz-adv-x="320" 
d="M382 567l-24 -128q-59 -1 -97.5 -36t-46.5 -95l-57 -308h-133l103 554h122l-10 -54q32 39 63 53.5t80 13.5zM143 -80l-25 -132h-133l25 132h133z" />
    <glyph glyph-name="Rdotbelowmacron" unicode="&#x1e5c;" horiz-adv-x="580" 
d="M538 0h-169l-142 283l-52 -283h-137l137 739h213q239 0 239 -186q0 -104 -61.5 -178t-176.5 -102zM487 521q0 46 -29.5 66t-108.5 20h-61l-41 -221h67q91 0 132 37.5t41 97.5zM303 -80l-25 -132h-133l25 132h133zM544 826h-279l17 99h280z" />
    <glyph glyph-name="rdotbelowmacron" unicode="&#x1e5d;" horiz-adv-x="320" 
d="M382 567l-24 -128q-59 -1 -97.5 -36t-46.5 -95l-57 -308h-133l103 554h122l-10 -54q32 39 63 53.5t80 13.5zM143 -80l-25 -132h-133l25 132h133zM410 664h-279l17 99h280z" />
    <glyph glyph-name="Sdotbelow" unicode="&#x1e62;" horiz-adv-x="520" 
d="M508 265q0 -109 -86 -193.5t-196 -84.5q-93 0 -150 51.5t-57 132.5q0 8 2 40h143q-1 -8 -1 -21q0 -33 22.5 -52t62.5 -19q50 0 85 31.5t35 76.5q0 38 -22 57q-15 12 -32 20.5t-86 36.5q-121 48 -121 165q0 97 77.5 171.5t177.5 74.5q80 0 133.5 -46.5t53.5 -116.5
q0 -22 -4 -47h-141q0 44 -15.5 61t-50.5 17q-38 0 -64.5 -27t-26.5 -64q0 -29 30 -51q15 -11 76 -33q83 -31 119 -73t36 -107zM275 -80l-25 -132h-133l25 132h133z" />
    <glyph glyph-name="sdotbelow" unicode="&#x1e63;" horiz-adv-x="440" 
d="M425 209q0 -88 -71.5 -155t-165.5 -67q-75 0 -122 41.5t-47 108.5q0 9 2 39h134q2 -67 62 -67q29 0 50 19t21 45q0 20 -15.5 31.5t-66.5 29.5q-73 25 -99.5 54t-26.5 82q0 80 65.5 138.5t154.5 58.5q61 0 106.5 -38t45.5 -90q0 -15 -3 -38h-130q-2 44 -44 44
q-23 0 -40.5 -16.5t-17.5 -38.5q0 -17 12 -25.5t70 -26.5q71 -23 98.5 -51t27.5 -78zM247 -80l-25 -132h-133l25 132h133z" />
    <glyph glyph-name="Tdotbelow" unicode="&#x1e6c;" horiz-adv-x="420" 
d="M501 607h-139l-113 -607h-137l113 607h-136l24 132h412zM233 -80l-25 -132h-133l25 132h133z" />
    <glyph glyph-name="tdotbelow" unicode="&#x1e6d;" horiz-adv-x="300" 
d="M360 554l-23 -121h-80l-80 -433h-133l80 433h-65l23 121h65l34 185h133l-34 -185h80zM172 -80l-25 -132h-133l25 132h133z" />
    <glyph glyph-name="Tlinebelow" unicode="&#x1e6e;" horiz-adv-x="420" 
d="M501 607h-139l-113 -607h-137l113 607h-136l24 132h412zM285 -195h-279l17 99h280z" />
    <glyph glyph-name="tlinebelow" unicode="&#x1e6f;" horiz-adv-x="300" 
d="M360 554l-23 -121h-80l-80 -433h-133l80 433h-65l23 121h65l34 185h133l-34 -185h80zM224 -195h-279l17 99h280z" />
    <glyph glyph-name="Wgrave" unicode="&#x1e80;" horiz-adv-x="900" 
d="M1005 739l-353 -739h-109l-28 489l-213 -489h-108l-80 739h140l34 -516l222 516h100l28 -516l227 516h140zM676 866l-73 -88l-200 116l84 99z" />
    <glyph glyph-name="wgrave" unicode="&#x1e81;" horiz-adv-x="800" 
d="M858 554l-303 -554h-83l-38 359l-174 -359h-82l-95 554h143l36 -338l156 338h106l28 -338l164 338h142zM589 691l-73 -88l-200 116l84 99z" />
    <glyph glyph-name="Wacute" unicode="&#x1e82;" horiz-adv-x="900" 
d="M1005 739l-353 -739h-109l-28 489l-213 -489h-108l-80 739h140l34 -516l222 516h100l28 -516l227 516h140zM774 894l-243 -116l-40 88l236 127z" />
    <glyph glyph-name="wacute" unicode="&#x1e83;" horiz-adv-x="800" 
d="M858 554l-303 -554h-83l-38 359l-174 -359h-82l-95 554h143l36 -338l156 338h106l28 -338l164 338h142zM686 719l-243 -116l-40 88l236 127z" />
    <glyph glyph-name="Wdieresis" unicode="&#x1e84;" horiz-adv-x="900" 
d="M1005 739l-353 -739h-109l-28 489l-213 -489h-108l-80 739h140l34 -516l222 516h100l28 -516l227 516h140zM553 941l-25 -132h-133l25 132h133zM763 941l-25 -132h-133l25 132h133z" />
    <glyph glyph-name="wdieresis" unicode="&#x1e85;" horiz-adv-x="800" 
d="M858 554l-303 -554h-83l-38 359l-174 -359h-82l-95 554h143l36 -338l156 338h106l28 -338l164 338h142zM466 766l-25 -132h-133l25 132h133zM676 766l-25 -132h-133l25 132h133z" />
    <glyph glyph-name="Zdotbelow" unicode="&#x1e92;" horiz-adv-x="500" 
d="M450 0h-462l21 117l372 490h-265l24 132h428l-23 -124l-368 -483h297zM269 -80l-25 -132h-133l25 132h133z" />
    <glyph glyph-name="zdotbelow" unicode="&#x1e93;" horiz-adv-x="460" 
d="M435 118l-22 -118h-423l22 118l305 318h-217l22 118h376l-22 -118l-304 -318h263zM259 -80l-25 -132h-133l25 132h133z" />
    <glyph glyph-name="tdieresis" unicode="&#x1e97;" horiz-adv-x="300" 
d="M360 554l-23 -121h-80l-80 -433h-133l80 433h-65l23 121h65l34 185h133l-34 -185h80zM241 941l-25 -132h-133l25 132h133zM451 941l-25 -132h-133l25 132h133z" />
    <glyph glyph-name="Adotbelow" unicode="&#x1ea0;" horiz-adv-x="740" 
d="M703 0h-151l-44 191h-263l-117 -191h-151l445 739h108zM478 323l-38 223l-120 -223h158zM392 -80l-25 -132h-133l25 132h133z" />
    <glyph glyph-name="adotbelow" unicode="&#x1ea1;" horiz-adv-x="660" 
d="M586 0h-122l13 72q-89 -85 -200 -85q-105 0 -168.5 62t-63.5 164q0 145 102 249.5t243 104.5q116 0 163 -87l13 74h122zM514 313q0 61 -36 96.5t-98 35.5q-80 0 -139 -61.5t-59 -143.5q0 -60 36.5 -95.5t98.5 -35.5q83 0 140 58.5t57 145.5zM337 -80l-25 -132h-133
l25 132h133z" />
    <glyph glyph-name="Ahookabove" unicode="&#x1ea2;" horiz-adv-x="740" 
d="M703 0h-151l-44 191h-263l-117 -191h-151l445 739h108zM478 323l-38 223l-120 -223h158zM644 959q0 -31 -16 -54.5t-62 -51.5q-26 -16 -34.5 -28.5t-14.5 -41.5h-85q12 53 30 77t65 52q30 17 30 38q0 10 -10 16.5t-25 6.5q-20 0 -32 -9.5t-23 -34.5h-86q17 54 59.5 86.5
t97.5 32.5q47 0 76.5 -24.5t29.5 -64.5z" />
    <glyph glyph-name="ahookabove" unicode="&#x1ea3;" horiz-adv-x="660" 
d="M586 0h-122l13 72q-89 -85 -200 -85q-105 0 -168.5 62t-63.5 164q0 145 102 249.5t243 104.5q116 0 163 -87l13 74h122zM514 313q0 61 -36 96.5t-98 35.5q-80 0 -139 -61.5t-59 -143.5q0 -60 36.5 -95.5t98.5 -35.5q83 0 140 58.5t57 145.5zM556 774q0 -31 -16 -54.5
t-62 -51.5q-26 -16 -34.5 -28.5t-14.5 -41.5h-85q12 53 30 77t65 52q30 17 30 38q0 10 -10 16.5t-25 6.5q-20 0 -32 -9.5t-23 -34.5h-86q17 54 59.5 86.5t97.5 32.5q47 0 76.5 -24.5t29.5 -64.5z" />
    <glyph glyph-name="Acircumflexacute" unicode="&#x1ea4;" horiz-adv-x="740" 
d="M703 0h-151l-44 191h-263l-117 -191h-151l445 739h108zM478 323l-38 223l-120 -223h158zM724 1080l-243 -116l-40 88l236 127zM688 806h-145l-41 64l-66 -64h-147l173 138h107z" />
    <glyph glyph-name="acircumflexacute" unicode="&#x1ea5;" horiz-adv-x="660" 
d="M586 0h-122l13 72q-89 -85 -200 -85q-105 0 -168.5 62t-63.5 164q0 145 102 249.5t243 104.5q116 0 163 -87l13 74h122zM514 313q0 61 -36 96.5t-98 35.5q-80 0 -139 -61.5t-59 -143.5q0 -60 36.5 -95.5t98.5 -35.5q83 0 140 58.5t57 145.5zM636 895l-243 -116l-40 88
l236 127zM600 621h-145l-41 64l-66 -64h-147l173 138h107z" />
    <glyph glyph-name="Acircumflexgrave" unicode="&#x1ea6;" horiz-adv-x="740" 
d="M703 0h-151l-44 191h-263l-117 -191h-151l445 739h108zM478 323l-38 223l-120 -223h158zM626 1052l-72 -88l-200 116l83 99zM688 806h-145l-41 64l-66 -64h-147l173 138h107z" />
    <glyph glyph-name="acircumflexgrave" unicode="&#x1ea7;" horiz-adv-x="660" 
d="M586 0h-122l13 72q-89 -85 -200 -85q-105 0 -168.5 62t-63.5 164q0 145 102 249.5t243 104.5q116 0 163 -87l13 74h122zM514 313q0 61 -36 96.5t-98 35.5q-80 0 -139 -61.5t-59 -143.5q0 -60 36.5 -95.5t98.5 -35.5q83 0 140 58.5t57 145.5zM538 867l-72 -88l-200 116
l83 99zM600 621h-145l-41 64l-66 -64h-147l173 138h107z" />
    <glyph glyph-name="Acircumflexhookabove" unicode="&#x1ea8;" horiz-adv-x="740" 
d="M703 0h-151l-44 191h-263l-117 -191h-151l445 739h108zM478 323l-38 223l-120 -223h158zM749 1147q0 -31 -16 -54.5t-62 -51.5q-26 -16 -34.5 -28.5t-14.5 -41.5h-85q12 53 30 77t65 52q30 17 30 38q0 10 -10 16.5t-25 6.5q-20 0 -32 -9.5t-23 -34.5h-86q17 54 59.5 86.5
t97.5 32.5q47 0 76.5 -24.5t29.5 -64.5zM688 806h-145l-41 64l-66 -64h-147l173 138h107z" />
    <glyph glyph-name="acircumflexhookabove" unicode="&#x1ea9;" horiz-adv-x="660" 
d="M586 0h-122l13 72q-89 -85 -200 -85q-105 0 -168.5 62t-63.5 164q0 145 102 249.5t243 104.5q116 0 163 -87l13 74h122zM514 313q0 61 -36 96.5t-98 35.5q-80 0 -139 -61.5t-59 -143.5q0 -60 36.5 -95.5t98.5 -35.5q83 0 140 58.5t57 145.5zM661 962q0 -31 -16 -54.5
t-62 -51.5q-25 -16 -34 -28.5t-15 -41.5h-85q12 53 30 77t65 52q30 17 30 38q0 10 -10 16.5t-25 6.5q-20 0 -32 -9.5t-23 -34.5h-86q17 54 59.5 86.5t97.5 32.5q47 0 76.5 -24.5t29.5 -64.5zM600 621h-145l-41 64l-66 -64h-147l173 138h107z" />
    <glyph glyph-name="Acircumflextilde" unicode="&#x1eaa;" horiz-adv-x="740" 
d="M703 0h-151l-44 191h-263l-117 -191h-151l445 739h108zM478 323l-38 223l-120 -223h158zM690 1030q-45 -56 -108 -56q-7 0 -60 15.5t-61 15.5q-20 0 -55 -30l-38 85q20 21 47.5 34.5t49.5 13.5q13 0 57 -15.5t53 -15.5q21 0 34 5.5t47 29.5zM688 806h-145l-41 64l-66 -64
h-147l173 138h107z" />
    <glyph glyph-name="acircumflextilde" unicode="&#x1eab;" horiz-adv-x="660" 
d="M586 0h-122l13 72q-89 -85 -200 -85q-105 0 -168.5 62t-63.5 164q0 145 102 249.5t243 104.5q116 0 163 -87l13 74h122zM514 313q0 61 -36 96.5t-98 35.5q-80 0 -139 -61.5t-59 -143.5q0 -60 36.5 -95.5t98.5 -35.5q83 0 140 58.5t57 145.5zM602 845q-45 -56 -108 -56
q-7 0 -60 15.5t-61 15.5q-20 0 -55 -30l-38 85q20 21 47.5 34.5t49.5 13.5q13 0 57 -15.5t53 -15.5q21 0 34 5.5t47 29.5zM600 621h-145l-41 64l-66 -64h-147l173 138h107z" />
    <glyph glyph-name="Acircumflexdotbelow" unicode="&#x1eac;" horiz-adv-x="740" 
d="M703 0h-151l-44 191h-263l-117 -191h-151l445 739h108zM478 323l-38 223l-120 -223h158zM688 806h-145l-41 64l-66 -64h-147l173 138h107zM392 -80l-25 -132h-133l25 132h133z" />
    <glyph glyph-name="acircumflexdotbelow" unicode="&#x1ead;" horiz-adv-x="660" 
d="M586 0h-122l13 72q-89 -85 -200 -85q-105 0 -168.5 62t-63.5 164q0 145 102 249.5t243 104.5q116 0 163 -87l13 74h122zM514 313q0 61 -36 96.5t-98 35.5q-80 0 -139 -61.5t-59 -143.5q0 -60 36.5 -95.5t98.5 -35.5q83 0 140 58.5t57 145.5zM601 631h-145l-41 64l-66 -64
h-147l173 138h107zM337 -80l-25 -132h-133l25 132h133z" />
    <glyph glyph-name="Abreveacute" unicode="&#x1eae;" horiz-adv-x="740" 
d="M703 0h-151l-44 191h-263l-117 -191h-151l445 739h108zM478 323l-38 223l-120 -223h158zM745 1086l-243 -116l-40 88l236 127zM678 943q-14 -61 -66.5 -98.5t-120.5 -37.5q-67 0 -105 31t-38 86q0 11 1 19h98q9 -42 61 -42q47 0 71 42h99z" />
    <glyph glyph-name="abreveacute" unicode="&#x1eaf;" horiz-adv-x="660" 
d="M586 0h-122l13 72q-89 -85 -200 -85q-105 0 -168.5 62t-63.5 164q0 145 102 249.5t243 104.5q116 0 163 -87l13 74h122zM514 313q0 61 -36 96.5t-98 35.5q-80 0 -139 -61.5t-59 -143.5q0 -60 36.5 -95.5t98.5 -35.5q83 0 140 58.5t57 145.5zM657 901l-243 -116l-40 88
l236 127zM590 758q-14 -61 -66.5 -98.5t-120.5 -37.5q-67 0 -105 31t-38 86q0 11 1 19h98q9 -42 61 -42q47 0 71 42h99z" />
    <glyph glyph-name="Abrevegrave" unicode="&#x1eb0;" horiz-adv-x="740" 
d="M703 0h-151l-44 191h-263l-117 -191h-151l445 739h108zM478 323l-38 223l-120 -223h158zM607 1058l-72 -88l-200 116l83 99zM678 943q-14 -61 -66.5 -98.5t-120.5 -37.5q-67 0 -105 31t-38 86q0 11 1 19h98q9 -42 61 -42q47 0 71 42h99z" />
    <glyph glyph-name="abrevegrave" unicode="&#x1eb1;" horiz-adv-x="660" 
d="M586 0h-122l13 72q-89 -85 -200 -85q-105 0 -168.5 62t-63.5 164q0 145 102 249.5t243 104.5q116 0 163 -87l13 74h122zM514 313q0 61 -36 96.5t-98 35.5q-80 0 -139 -61.5t-59 -143.5q0 -60 36.5 -95.5t98.5 -35.5q83 0 140 58.5t57 145.5zM519 873l-72 -88l-200 116
l83 99zM590 758q-14 -61 -66.5 -98.5t-120.5 -37.5q-67 0 -105 31t-38 86q0 11 1 19h98q9 -42 61 -42q47 0 71 42h99z" />
    <glyph glyph-name="Abrevehookabove" unicode="&#x1eb2;" horiz-adv-x="740" 
d="M703 0h-151l-44 191h-263l-117 -191h-151l445 739h108zM478 323l-38 223l-120 -223h158zM676 1132q0 -31 -16 -54.5t-62 -51.5q-26 -16 -34.5 -28.5t-14.5 -41.5h-85q12 53 30 77t65 52q30 17 30 38q0 10 -10 16.5t-25 6.5q-20 0 -32 -9.5t-23 -34.5h-86q17 54 59.5 86.5
t97.5 32.5q47 0 76.5 -24.5t29.5 -64.5zM678 943q-14 -61 -66.5 -98.5t-120.5 -37.5q-67 0 -105 31t-38 86q0 11 1 19h98q9 -42 61 -42q47 0 71 42h99z" />
    <glyph glyph-name="abrevehookabove" unicode="&#x1eb3;" horiz-adv-x="660" 
d="M586 0h-122l13 72q-89 -85 -200 -85q-105 0 -168.5 62t-63.5 164q0 145 102 249.5t243 104.5q116 0 163 -87l13 74h122zM514 313q0 61 -36 96.5t-98 35.5q-80 0 -139 -61.5t-59 -143.5q0 -60 36.5 -95.5t98.5 -35.5q83 0 140 58.5t57 145.5zM588 947q0 -31 -16 -54.5
t-62 -51.5q-26 -16 -34.5 -28.5t-14.5 -41.5h-85q12 53 30 77t65 52q30 17 30 38q0 10 -10 16.5t-25 6.5q-20 0 -32 -9.5t-23 -34.5h-86q17 54 59.5 86.5t97.5 32.5q47 0 76.5 -24.5t29.5 -64.5zM590 758q-14 -61 -66.5 -98.5t-120.5 -37.5q-67 0 -105 31t-38 86q0 11 1 19
h98q9 -42 61 -42q47 0 71 42h99z" />
    <glyph glyph-name="Abrevetilde" unicode="&#x1eb4;" horiz-adv-x="740" 
d="M703 0h-151l-44 191h-263l-117 -191h-151l445 739h108zM478 323l-38 223l-120 -223h158zM691 1035q-45 -56 -108 -56q-7 0 -60 15.5t-61 15.5q-20 0 -55 -30l-38 85q20 21 47.5 34.5t49.5 13.5q12 0 56 -15.5t54 -15.5q21 0 34 5.5t47 29.5zM678 943q-14 -61 -66.5 -98.5
t-120.5 -37.5q-67 0 -105 31t-38 86q0 11 1 19h98q9 -42 61 -42q47 0 71 42h99z" />
    <glyph glyph-name="abrevetilde" unicode="&#x1eb5;" horiz-adv-x="660" 
d="M586 0h-122l13 72q-89 -85 -200 -85q-105 0 -168.5 62t-63.5 164q0 145 102 249.5t243 104.5q116 0 163 -87l13 74h122zM514 313q0 61 -36 96.5t-98 35.5q-80 0 -139 -61.5t-59 -143.5q0 -60 36.5 -95.5t98.5 -35.5q83 0 140 58.5t57 145.5zM603 850q-45 -56 -108 -56
q-7 0 -60 15.5t-61 15.5q-20 0 -55 -30l-38 85q20 21 47.5 34.5t49.5 13.5q12 0 56 -15.5t54 -15.5q21 0 34 5.5t47 29.5zM590 758q-14 -61 -66.5 -98.5t-120.5 -37.5q-67 0 -105 31t-38 86q0 11 1 19h98q9 -42 61 -42q47 0 71 42h99z" />
    <glyph glyph-name="Abrevedotbelow" unicode="&#x1eb6;" horiz-adv-x="740" 
d="M703 0h-151l-44 191h-263l-117 -191h-151l445 739h108zM478 323l-38 223l-120 -223h158zM678 943q-14 -61 -66.5 -98.5t-120.5 -37.5q-67 0 -105 31t-38 86q0 11 1 19h98q9 -42 61 -42q47 0 71 42h99zM392 -80l-25 -132h-133l25 132h133z" />
    <glyph glyph-name="abrevedotbelow" unicode="&#x1eb7;" horiz-adv-x="660" 
d="M586 0h-122l13 72q-89 -85 -200 -85q-105 0 -168.5 62t-63.5 164q0 145 102 249.5t243 104.5q116 0 163 -87l13 74h122zM514 313q0 61 -36 96.5t-98 35.5q-80 0 -139 -61.5t-59 -143.5q0 -60 36.5 -95.5t98.5 -35.5q83 0 140 58.5t57 145.5zM589 768q-14 -61 -66.5 -98.5
t-120.5 -37.5q-67 0 -105 31t-38 86q0 11 1 19h98q9 -42 61 -42q47 0 71 42h99zM337 -80l-25 -132h-133l25 132h133z" />
    <glyph glyph-name="Edotbelow" unicode="&#x1eb8;" horiz-adv-x="520" 
d="M548 607h-260l-33 -172h249l-24 -132h-249l-32 -171h260l-24 -132h-397l137 739h397zM282 -80l-25 -132h-133l25 132h133z" />
    <glyph glyph-name="edotbelow" unicode="&#x1eb9;" 
d="M615 218h-429q0 -48 36.5 -78.5t93.5 -30.5q80 0 135 55h145q-45 -82 -125 -129.5t-174 -47.5q-111 0 -181 66t-70 170q0 136 106.5 240t245.5 104q104 0 170.5 -63t66.5 -162q0 -76 -20 -124zM511 336q-6 109 -134 109q-58 0 -106 -30t-67 -79h307zM345 -80l-25 -132
h-133l25 132h133z" />
    <glyph glyph-name="Ehookabove" unicode="&#x1eba;" horiz-adv-x="520" 
d="M548 607h-260l-33 -172h249l-24 -132h-249l-32 -171h260l-24 -132h-397l137 739h397zM542 959q0 -31 -16 -54.5t-62 -51.5q-26 -16 -34.5 -28.5t-14.5 -41.5h-85q12 53 30 77t65 52q30 17 30 38q0 10 -10 16.5t-25 6.5q-20 0 -32 -9.5t-23 -34.5h-86q17 54 59.5 86.5
t97.5 32.5q47 0 76.5 -24.5t29.5 -64.5z" />
    <glyph glyph-name="ehookabove" unicode="&#x1ebb;" 
d="M615 218h-429q0 -48 36.5 -78.5t93.5 -30.5q80 0 135 55h145q-45 -82 -125 -129.5t-174 -47.5q-111 0 -181 66t-70 170q0 136 106.5 240t245.5 104q104 0 170.5 -63t66.5 -162q0 -76 -20 -124zM511 336q-6 109 -134 109q-58 0 -106 -30t-67 -79h307zM564 774
q0 -31 -16 -54.5t-62 -51.5q-26 -16 -34.5 -28.5t-14.5 -41.5h-85q12 53 30 77t65 52q30 17 30 38q0 10 -10 16.5t-25 6.5q-20 0 -32 -9.5t-23 -34.5h-86q17 54 59.5 86.5t97.5 32.5q47 0 76.5 -24.5t29.5 -64.5z" />
    <glyph glyph-name="Etilde" unicode="&#x1ebc;" horiz-adv-x="520" 
d="M548 607h-260l-33 -172h249l-24 -132h-249l-32 -171h260l-24 -132h-397l137 739h397zM557 862q-45 -56 -108 -56q-7 0 -60 15.5t-61 15.5q-20 0 -55 -30l-38 85q20 21 47.5 34.5t49.5 13.5q12 0 56 -15.5t54 -15.5q21 0 34 5.5t47 29.5z" />
    <glyph glyph-name="etilde" unicode="&#x1ebd;" 
d="M615 218h-429q0 -48 36.5 -78.5t93.5 -30.5q80 0 135 55h145q-45 -82 -125 -129.5t-174 -47.5q-111 0 -181 66t-70 170q0 136 106.5 240t245.5 104q104 0 170.5 -63t66.5 -162q0 -76 -20 -124zM511 336q-6 109 -134 109q-58 0 -106 -30t-67 -79h307zM581 687
q-45 -56 -108 -56q-7 0 -60 15.5t-61 15.5q-20 0 -55 -30l-38 85q20 21 47.5 34.5t49.5 13.5q12 0 56 -15.5t54 -15.5q21 0 34 5.5t47 29.5z" />
    <glyph glyph-name="Ecircumflexacute" unicode="&#x1ebe;" horiz-adv-x="520" 
d="M548 607h-260l-33 -172h249l-24 -132h-249l-32 -171h260l-24 -132h-397l137 739h397zM622 1080l-243 -116l-40 88l236 127zM586 806h-145l-41 64l-66 -64h-147l173 138h107z" />
    <glyph glyph-name="ecircumflexacute" unicode="&#x1ebf;" 
d="M615 218h-429q0 -48 36.5 -78.5t93.5 -30.5q80 0 135 55h145q-45 -82 -125 -129.5t-174 -47.5q-111 0 -181 66t-70 170q0 136 106.5 240t245.5 104q104 0 170.5 -63t66.5 -162q0 -76 -20 -124zM511 336q-6 109 -134 109q-58 0 -106 -30t-67 -79h307zM644 895l-243 -116
l-40 88l236 127zM608 621h-145l-41 64l-66 -64h-147l173 138h107z" />
    <glyph glyph-name="Ecircumflexgrave" unicode="&#x1ec0;" horiz-adv-x="520" 
d="M548 607h-260l-33 -172h249l-24 -132h-249l-32 -171h260l-24 -132h-397l137 739h397zM524 1052l-72 -88l-200 116l83 99zM586 806h-145l-41 64l-66 -64h-147l173 138h107z" />
    <glyph glyph-name="ecircumflexgrave" unicode="&#x1ec1;" 
d="M615 218h-429q0 -48 36.5 -78.5t93.5 -30.5q80 0 135 55h145q-45 -82 -125 -129.5t-174 -47.5q-111 0 -181 66t-70 170q0 136 106.5 240t245.5 104q104 0 170.5 -63t66.5 -162q0 -76 -20 -124zM511 336q-6 109 -134 109q-58 0 -106 -30t-67 -79h307zM546 867l-72 -88
l-200 116l83 99zM608 621h-145l-41 64l-66 -64h-147l173 138h107z" />
    <glyph glyph-name="Ecircumflexhookabove" unicode="&#x1ec2;" horiz-adv-x="520" 
d="M548 607h-260l-33 -172h249l-24 -132h-249l-32 -171h260l-24 -132h-397l137 739h397zM647 1147q0 -31 -16 -54.5t-62 -51.5q-25 -16 -34 -28.5t-15 -41.5h-85q12 53 30 77t65 52q30 17 30 38q0 10 -10 16.5t-25 6.5q-20 0 -32 -9.5t-23 -34.5h-86q17 54 59.5 86.5
t97.5 32.5q47 0 76.5 -24.5t29.5 -64.5zM586 806h-145l-41 64l-66 -64h-147l173 138h107z" />
    <glyph glyph-name="ecircumflexhookabove" unicode="&#x1ec3;" 
d="M615 218h-429q0 -48 36.5 -78.5t93.5 -30.5q80 0 135 55h145q-45 -82 -125 -129.5t-174 -47.5q-111 0 -181 66t-70 170q0 136 106.5 240t245.5 104q104 0 170.5 -63t66.5 -162q0 -76 -20 -124zM511 336q-6 109 -134 109q-58 0 -106 -30t-67 -79h307zM669 962
q0 -31 -16 -54.5t-62 -51.5q-25 -16 -34 -28.5t-15 -41.5h-85q12 53 30 77t65 52q30 17 30 38q0 10 -10 16.5t-25 6.5q-20 0 -32 -9.5t-23 -34.5h-86q17 54 59.5 86.5t97.5 32.5q47 0 76.5 -24.5t29.5 -64.5zM608 621h-145l-41 64l-66 -64h-147l173 138h107z" />
    <glyph glyph-name="Ecircumflextilde" unicode="&#x1ec4;" horiz-adv-x="520" 
d="M548 607h-260l-33 -172h249l-24 -132h-249l-32 -171h260l-24 -132h-397l137 739h397zM588 1030q-45 -56 -108 -56q-7 0 -60 15.5t-61 15.5q-20 0 -55 -30l-38 85q20 21 47.5 34.5t49.5 13.5q13 0 57 -15.5t53 -15.5q21 0 34 5.5t47 29.5zM586 806h-145l-41 64l-66 -64
h-147l173 138h107z" />
    <glyph glyph-name="ecircumflextilde" unicode="&#x1ec5;" 
d="M615 218h-429q0 -48 36.5 -78.5t93.5 -30.5q80 0 135 55h145q-45 -82 -125 -129.5t-174 -47.5q-111 0 -181 66t-70 170q0 136 106.5 240t245.5 104q104 0 170.5 -63t66.5 -162q0 -76 -20 -124zM511 336q-6 109 -134 109q-58 0 -106 -30t-67 -79h307zM610 845
q-45 -56 -108 -56q-7 0 -60 15.5t-61 15.5q-20 0 -55 -30l-38 85q20 21 47.5 34.5t49.5 13.5q13 0 57 -15.5t53 -15.5q21 0 34 5.5t47 29.5zM608 621h-145l-41 64l-66 -64h-147l173 138h107z" />
    <glyph glyph-name="Ecircumflexdotbelow" unicode="&#x1ec6;" horiz-adv-x="520" 
d="M548 607h-260l-33 -172h249l-24 -132h-249l-32 -171h260l-24 -132h-397l137 739h397zM586 806h-145l-41 64l-66 -64h-147l173 138h107zM282 -80l-25 -132h-133l25 132h133z" />
    <glyph glyph-name="ecircumflexdotbelow" unicode="&#x1ec7;" 
d="M615 218h-429q0 -48 36.5 -78.5t93.5 -30.5q80 0 135 55h145q-45 -82 -125 -129.5t-174 -47.5q-111 0 -181 66t-70 170q0 136 106.5 240t245.5 104q104 0 170.5 -63t66.5 -162q0 -76 -20 -124zM511 336q-6 109 -134 109q-58 0 -106 -30t-67 -79h307zM609 631h-145l-41 64
l-66 -64h-147l173 138h107zM345 -80l-25 -132h-133l25 132h133z" />
    <glyph glyph-name="Ihookabove" unicode="&#x1ec8;" horiz-adv-x="280" 
d="M312 739l-137 -739h-137l137 739h137zM412 959q0 -31 -16 -54.5t-62 -51.5q-25 -16 -34 -28.5t-15 -41.5h-85q12 53 30 77t65 52q30 17 30 38q0 10 -10 16.5t-25 6.5q-20 0 -32 -9.5t-23 -34.5h-86q17 54 59.5 86.5t97.5 32.5q47 0 76.5 -24.5t29.5 -64.5z" />
    <glyph glyph-name="ihookabove" unicode="&#x1ec9;" horiz-adv-x="240" 
d="M260 554l-103 -554h-133l103 554h133zM362 774q0 -31 -16 -54.5t-62 -51.5q-25 -16 -34 -28.5t-15 -41.5h-85q12 53 30 77t65 52q30 17 30 38q0 10 -10 16.5t-25 6.5q-20 0 -32 -9.5t-23 -34.5h-86q17 54 59.5 86.5t97.5 32.5q47 0 76.5 -24.5t29.5 -64.5z" />
    <glyph glyph-name="Idotbelow" unicode="&#x1eca;" horiz-adv-x="280" 
d="M312 739l-137 -739h-137l137 739h137zM159 -80l-25 -132h-133l25 132h133z" />
    <glyph glyph-name="idotbelow" unicode="&#x1ecb;" horiz-adv-x="240" 
d="M260 554l-103 -554h-133l103 554h133zM300 766l-25 -132h-133l25 132h133zM142 -80l-25 -132h-133l25 132h133z" />
    <glyph glyph-name="Odotbelow" unicode="&#x1ecc;" horiz-adv-x="840" 
d="M845 439q0 -117 -63.5 -221.5t-170 -167.5t-225.5 -63q-142 0 -233.5 88t-91.5 225q0 118 67 223.5t175.5 167t225.5 61.5q138 0 227 -88t89 -225zM705 419q0 88 -57 144.5t-146 56.5q-117 0 -209 -90.5t-92 -206.5q0 -89 59 -146.5t150 -57.5q116 0 205.5 89.5
t89.5 210.5zM442 -80l-25 -132h-133l25 132h133z" />
    <glyph glyph-name="odotbelow" unicode="&#x1ecd;" 
d="M645 327q0 -134 -108 -237t-249 -103q-103 0 -172.5 67t-69.5 167q0 137 107 241.5t248 104.5q106 0 175 -68t69 -172zM508 309q0 59 -37 97.5t-93 38.5q-76 0 -135.5 -61t-59.5 -140q0 -58 37.5 -96.5t94.5 -38.5q75 0 134 61.5t59 138.5zM348 -80l-25 -132h-133l25 132
h133z" />
    <glyph glyph-name="Ohookabove" unicode="&#x1ece;" horiz-adv-x="840" 
d="M845 439q0 -117 -63.5 -221.5t-170 -167.5t-225.5 -63q-142 0 -233.5 88t-91.5 225q0 118 67 223.5t175.5 167t225.5 61.5q138 0 227 -88t89 -225zM705 419q0 88 -57 144.5t-146 56.5q-117 0 -209 -90.5t-92 -206.5q0 -89 59 -146.5t150 -57.5q116 0 205.5 89.5
t89.5 210.5zM695 959q0 -31 -16 -54.5t-62 -51.5q-25 -16 -34 -28.5t-15 -41.5h-85q12 53 30 77t65 52q30 17 30 38q0 10 -10 16.5t-25 6.5q-20 0 -32 -9.5t-23 -34.5h-86q17 54 59.5 86.5t97.5 32.5q47 0 76.5 -24.5t29.5 -64.5z" />
    <glyph glyph-name="ohookabove" unicode="&#x1ecf;" 
d="M645 327q0 -134 -108 -237t-249 -103q-103 0 -172.5 67t-69.5 167q0 137 107 241.5t248 104.5q106 0 175 -68t69 -172zM508 309q0 59 -37 97.5t-93 38.5q-76 0 -135.5 -61t-59.5 -140q0 -58 37.5 -96.5t94.5 -38.5q75 0 134 61.5t59 138.5zM567 774q0 -31 -16 -54.5
t-62 -51.5q-26 -16 -34.5 -28.5t-14.5 -41.5h-85q12 53 30 77t65 52q30 17 30 38q0 10 -10 16.5t-25 6.5q-20 0 -32 -9.5t-23 -34.5h-86q17 54 59.5 86.5t97.5 32.5q47 0 76.5 -24.5t29.5 -64.5z" />
    <glyph glyph-name="Ocircumflexacute" unicode="&#x1ed0;" horiz-adv-x="840" 
d="M845 439q0 -117 -63.5 -221.5t-170 -167.5t-225.5 -63q-142 0 -233.5 88t-91.5 225q0 118 67 223.5t175.5 167t225.5 61.5q138 0 227 -88t89 -225zM705 419q0 88 -57 144.5t-146 56.5q-117 0 -209 -90.5t-92 -206.5q0 -89 59 -146.5t150 -57.5q116 0 205.5 89.5
t89.5 210.5zM775 1080l-243 -116l-40 88l236 127zM739 806h-145l-41 64l-66 -64h-147l173 138h107z" />
    <glyph glyph-name="ocircumflexacute" unicode="&#x1ed1;" 
d="M645 327q0 -134 -108 -237t-249 -103q-103 0 -172.5 67t-69.5 167q0 137 107 241.5t248 104.5q106 0 175 -68t69 -172zM508 309q0 59 -37 97.5t-93 38.5q-76 0 -135.5 -61t-59.5 -140q0 -58 37.5 -96.5t94.5 -38.5q75 0 134 61.5t59 138.5zM647 895l-243 -116l-40 88
l236 127zM611 621h-145l-41 64l-66 -64h-147l173 138h107z" />
    <glyph glyph-name="Ocircumflexgrave" unicode="&#x1ed2;" horiz-adv-x="840" 
d="M845 439q0 -117 -63.5 -221.5t-170 -167.5t-225.5 -63q-142 0 -233.5 88t-91.5 225q0 118 67 223.5t175.5 167t225.5 61.5q138 0 227 -88t89 -225zM705 419q0 88 -57 144.5t-146 56.5q-117 0 -209 -90.5t-92 -206.5q0 -89 59 -146.5t150 -57.5q116 0 205.5 89.5
t89.5 210.5zM677 1052l-72 -88l-200 116l83 99zM739 806h-145l-41 64l-66 -64h-147l173 138h107z" />
    <glyph glyph-name="ocircumflexgrave" unicode="&#x1ed3;" 
d="M645 327q0 -134 -108 -237t-249 -103q-103 0 -172.5 67t-69.5 167q0 137 107 241.5t248 104.5q106 0 175 -68t69 -172zM508 309q0 59 -37 97.5t-93 38.5q-76 0 -135.5 -61t-59.5 -140q0 -58 37.5 -96.5t94.5 -38.5q75 0 134 61.5t59 138.5zM549 867l-72 -88l-200 116
l83 99zM611 621h-145l-41 64l-66 -64h-147l173 138h107z" />
    <glyph glyph-name="Ocircumflexhookabove" unicode="&#x1ed4;" horiz-adv-x="840" 
d="M845 439q0 -117 -63.5 -221.5t-170 -167.5t-225.5 -63q-142 0 -233.5 88t-91.5 225q0 118 67 223.5t175.5 167t225.5 61.5q138 0 227 -88t89 -225zM705 419q0 88 -57 144.5t-146 56.5q-117 0 -209 -90.5t-92 -206.5q0 -89 59 -146.5t150 -57.5q116 0 205.5 89.5
t89.5 210.5zM800 1147q0 -31 -16 -54.5t-62 -51.5q-26 -16 -34.5 -28.5t-14.5 -41.5h-85q12 53 30 77t65 52q30 17 30 38q0 10 -10 16.5t-25 6.5q-20 0 -32 -9.5t-23 -34.5h-86q17 54 59.5 86.5t97.5 32.5q47 0 76.5 -24.5t29.5 -64.5zM739 806h-145l-41 64l-66 -64h-147
l173 138h107z" />
    <glyph glyph-name="ocircumflexhookabove" unicode="&#x1ed5;" 
d="M645 327q0 -134 -108 -237t-249 -103q-103 0 -172.5 67t-69.5 167q0 137 107 241.5t248 104.5q106 0 175 -68t69 -172zM508 309q0 59 -37 97.5t-93 38.5q-76 0 -135.5 -61t-59.5 -140q0 -58 37.5 -96.5t94.5 -38.5q75 0 134 61.5t59 138.5zM672 962q0 -31 -16 -54.5
t-62 -51.5q-26 -16 -34.5 -28.5t-14.5 -41.5h-85q12 53 30 77t65 52q30 17 30 38q0 10 -10 16.5t-25 6.5q-20 0 -32 -9.5t-23 -34.5h-86q17 54 59.5 86.5t97.5 32.5q47 0 76.5 -24.5t29.5 -64.5zM611 621h-145l-41 64l-66 -64h-147l173 138h107z" />
    <glyph glyph-name="Ocircumflextilde" unicode="&#x1ed6;" horiz-adv-x="840" 
d="M845 439q0 -117 -63.5 -221.5t-170 -167.5t-225.5 -63q-142 0 -233.5 88t-91.5 225q0 118 67 223.5t175.5 167t225.5 61.5q138 0 227 -88t89 -225zM705 419q0 88 -57 144.5t-146 56.5q-117 0 -209 -90.5t-92 -206.5q0 -89 59 -146.5t150 -57.5q116 0 205.5 89.5
t89.5 210.5zM741 1030q-45 -56 -108 -56q-7 0 -60 15.5t-61 15.5q-20 0 -55 -30l-38 85q20 21 47.5 34.5t49.5 13.5q12 0 56 -15.5t54 -15.5q21 0 34 5.5t47 29.5zM739 806h-145l-41 64l-66 -64h-147l173 138h107z" />
    </font>
</defs>
</svg>
