<svg xmlns="http://www.w3.org/2000/svg">
<defs>
<font id="UTMCharlemagne" horiz-adv-x="1458" >
  <font-face 
    font-family="UTMCharlemagne"
    font-weight="400"
    font-stretch="normal"
    units-per-em="2048"
    panose-1="2 4 6 3 5 5 6 2 2 4"
    ascent="1638"
    descent="-410"
    x-height="1442"
    cap-height="1442"
    bbox="-112 -532 4942 2263"
    underline-thickness="109"
    underline-position="-359"
    unicode-range="U+0020-2026"
  />
<missing-glyph horiz-adv-x="5040" 
d="M3351 2045h10q37 -10 37 -52q0 -12 -32 -57h-28q0 24 28 54l2 10q-5 13 -10 15h-9q-8 0 -10 -19h-30q6 49 42 49zM2019 2016l29 -31q0 -16 -40 -30h-19l-59 12l-11 -12l-28 25q11 29 43 29h11l42 -11h2q10 0 30 18zM468 1980h142v-60h-94v-75h89v-59h-89v-129l-5 -5h-49
v323zM1155 1980h43l6 -5v-78h30v-52h-30v-188l-6 -5h-49v193h-25v52h25v78zM1621 1980h42l4 -5v-94h3q23 24 54 24h2q58 0 83 -71l2 -39v-143h-52v115q0 80 -42 80h-7q-43 0 -43 -86v-109h-51v323zM2200 1980h49l5 -5v-222q10 -51 45 -51q44 7 44 59v214l5 5h49v-216
q0 -85 -66 -112q-15 -8 -35 -8q-47 0 -82 55q-14 24 -14 57v224zM2435 1980h159v-60h-56v-268h-53v268h-55v55zM2621 1980h71q7 -4 83 -251h2l80 251h73v-328h-54v242h-2l-74 -242h-44q-4 0 -58 182l-19 60h-3v-242h-55v328zM3760 1980h52v-328h-45l-5 5v11l3 2l-3 14
q-29 -40 -78 -40q-67 0 -100 91l-5 39v3q0 94 92 125l23 3q35 0 63 -32h3v107zM2057 1928h36l4 -6v-49h-45v-221h-48v23q-23 -31 -59 -31q-89 14 -89 97v156h51v-104q0 -79 26 -86l18 -5h6q26 0 39 36l3 26v133h53v25zM3476 1928v-55h-31v-221h-47v25h-2q-15 -33 -57 -33
q-68 0 -86 78l-3 29v146h52v-120q0 -50 19 -68l21 -7h9q42 0 42 69v126h27q4 0 4 28l3 3h49zM758 1905q68 0 103 -77q9 -18 12 -54q0 -88 -90 -127l-32 -3q-63 0 -101 73q-12 22 -12 52v10q0 94 101 126h19zM1011 1905h3q74 0 83 -101v-152h-51v119q0 76 -42 76h-5
q-44 0 -44 -76v-119h-52v245h46v-21q30 29 62 29zM1466 1905h7q72 0 105 -89h-60q-16 31 -42 31h-17q-53 -14 -53 -61l-3 -15q12 -69 61 -69h9q22 0 47 27h40l2 3h3l2 -3l2 3l3 -3l2 3l2 -7q-33 -81 -110 -81q-76 0 -110 94l-4 36v3q0 85 77 120q15 8 37 8zM3141 1905h2

<glyph glyph-name=".notdef" horiz-adv-x="5040" 
d="M3351 2045h10q37 -10 37 -52q0 -12 -32 -57h-28q0 24 28 54l2 10q-5 13 -10 15h-9q-8 0 -10 -19h-30q6 49 42 49zM2019 2016l29 -31q0 -16 -40 -30h-19l-59 12l-11 -12l-28 25q11 29 43 29h11l42 -11h2q10 0 30 18zM468 1980h142v-60h-94v-75h89v-59h-89v-129l-5 -5h-49
v323zM1155 1980h43l6 -5v-78h30v-52h-30v-188l-6 -5h-49v193h-25v52h25v78zM1621 1980h42l4 -5v-94h3q23 24 54 24h2q58 0 83 -71l2 -39v-143h-52v115q0 80 -42 80h-7q-43 0 -43 -86v-109h-51v323zM2200 1980h49l5 -5v-222q10 -51 45 -51q44 7 44 59v214l5 5h49v-216
q0 -85 -66 -112q-15 -8 -35 -8q-47 0 -82 55q-14 24 -14 57v224zM2435 1980h159v-60h-56v-268h-53v268h-55v55zM2621 1980h71q7 -4 83 -251h2l80 251h73v-328h-54v242h-2l-74 -242h-44q-4 0 -58 182l-19 60h-3v-242h-55v328zM3760 1980h52v-328h-45l-5 5v11l3 2l-3 14
q-29 -40 -78 -40q-67 0 -100 91l-5 39v3q0 94 92 125l23 3q35 0 63 -32h3v107zM2057 1928h36l4 -6v-49h-45v-221h-48v23q-23 -31 -59 -31q-89 14 -89 97v156h51v-104q0 -79 26 -86l18 -5h6q26 0 39 36l3 26v133h53v25zM3476 1928v-55h-31v-221h-47v25h-2q-15 -33 -57 -33
q-68 0 -86 78l-3 29v146h52v-120q0 -50 19 -68l21 -7h9q42 0 42 69v126h27q4 0 4 28l3 3h49zM758 1905q68 0 103 -77q9 -18 12 -54q0 -88 -90 -127l-32 -3q-63 0 -101 73q-12 22 -12 52v10q0 94 101 126h19zM1011 1905h3q74 0 83 -101v-152h-51v119q0 76 -42 76h-5
q-44 0 -44 -76v-119h-52v245h46v-21q30 29 62 29zM1466 1905h7q72 0 105 -89h-60q-16 31 -42 31h-17q-53 -14 -53 -61l-3 -15q12 -69 61 -69h9q22 0 47 27h40l2 3h3l2 -3l2 3l3 -3l2 3l2 -7q-33 -81 -110 -81q-76 0 -110 94l-4 36v3q0 85 77 120q15 8 37 8zM3141 1905h2
q49 0 70 -60v-14h-52q0 16 -16 16h-4q-14 0 -19 -13v-13q0 -9 68 -35q30 -19 30 -59q0 -58 -61 -80l-23 -3q-76 12 -76 83h54q0 -20 27 -25h4q19 0 24 23q0 22 -68 44q-34 27 -34 59q0 66 74 77zM4203 1905q55 0 77 -63q7 -18 7 -65v-125h-52v112q0 83 -40 83h-11
q-33 0 -40 -54v-141h-52v5h-2l2 2v238h47v-21q25 29 64 29zM4432 1905h5q40 0 69 -40v18l-3 3l3 11h47v-208q0 -97 -85 -132l-33 -4h-7q-70 0 -104 80h59q24 -22 45 -23h13q22 0 43 22q15 13 22 52h-3q-32 -40 -73 -40q-57 0 -96 70q-10 18 -14 63q0 88 87 125zM3851 1897
h53v-136q6 -59 40 -59h7q46 0 46 93v102h51v-245h-47l-3 10h3l-3 3v5l3 2v3h-4q0 -23 -57 -31h-3q-59 0 -84 75l-2 85v93zM690 1771q10 -69 63 -69h7q59 14 59 65v15q-13 65 -59 65h-5q-58 0 -65 -76zM3630 1774q13 -72 61 -72h5q58 0 66 75q0 49 -51 70h-22q-37 0 -56 -57z
M4374 1774q8 -72 65 -72h5q59 12 59 72q0 61 -59 73h-14q-56 -16 -56 -62v-11zM3928 1620h52v-57h-52v57zM1054 1402q43 -11 43 -49v-4q0 -17 -32 -60h-28q0 25 31 57v7q0 12 -7 15h-12q-10 -4 -10 -19h-28v6q0 32 33 44zM3349 1339q92 0 138 -99h-60q-37 42 -80 42
q-55 0 -87 -68q-10 -22 -10 -47q0 -78 81 -110l18 -1q36 0 75 39h61q-44 -97 -138 -97q-93 0 -141 112q-10 31 -10 62q0 97 90 152q29 15 63 15zM3664 1339q57 0 103 -47q46 -51 46 -115v-20q0 -89 -91 -146q-33 -13 -63 -13q-89 0 -138 101q-13 33 -13 60v18q0 98 98 151
q29 11 58 11zM2261 1337h2l47 -11h3q11 0 26 11l18 -36q-18 -19 -35 -19h-3l-54 10l-20 -7l-20 36q18 16 36 16zM716 1334h19q118 0 129 -26q25 -26 25 -62q-10 -57 -30 -57v-6q47 -23 47 -66v-18q0 -63 -69 -88l-54 -5h-67v328zM2550 1334h53v-217q6 -61 45 -61q29 0 44 39
l3 30v203l4 6h45l5 -6v-171q0 -118 -40 -133q-24 -26 -64 -26q-55 0 -91 76l-4 54v206zM2805 1334h59q4 0 122 -237h4v237h50l4 -6v-322h-58q-29 48 -125 238h-3v-238h-53v328zM3101 1334h54v-328h-54v328zM3859 1334h8q155 0 174 -40q23 -11 47 -75l4 -36v-11l3 -2
q0 -94 -82 -149q-35 -15 -99 -15h-55v328zM4141 1334h153v-60h-103v-75h101v-57h-101v-74l4 -5h99v-57h-157v322zM3563 1175v-10q0 -76 79 -108l19 -1q68 0 96 86l3 20v15q0 61 -60 94q-12 8 -39 11q-66 0 -96 -83zM770 1274v-67h9q54 0 54 28l3 14q-11 25 -29 25h-37z
M3912 1274v-206l2 -3v-2q104 0 122 76l2 15v29q0 34 -32 68q-25 23 -78 23h-16zM1041 1259h5q38 0 71 -40v32h49v-245h-49v32q-36 -40 -80 -40q-75 0 -101 97l-5 36q0 89 85 125zM1314 1259h3q74 0 83 -102v-151h-51v128q0 67 -42 67h-10q-34 0 -39 -62v-133h-52v245h47v-21
q28 29 61 29zM1543 1259h5q45 0 71 -40v32h47v-219q0 -95 -104 -126h-16q-74 0 -108 82h59q26 -25 44 -25h14q52 0 64 77q-33 -42 -76 -42q-60 0 -101 81l-7 44v16q0 79 85 117zM1912 1259h2q43 0 61 -37h2q32 37 69 37h4q57 0 79 -55q8 -25 8 -45v-153h-52v138q0 44 -23 55
l-12 2h-15q-32 0 -36 -65v-130h-52v136q0 59 -43 59h-8q-32 0 -36 -57v-138h-54v245h50v-21h2q6 24 54 29zM2282 1259q47 0 75 -42v34h47v-245h-47v32q-36 -40 -78 -40q-74 0 -102 92l-6 41q0 90 85 125zM985 1117q0 -48 61 -61h4q45 0 62 46l3 15v22q-12 62 -57 62h-14
q-41 0 -59 -57v-27zM1487 1128q0 -48 43 -68l18 -4h5q47 0 63 57v23q-11 65 -58 65h-12q-50 0 -59 -73zM2225 1131v-14q15 -61 57 -61h14q58 12 58 64v11q0 45 -37 65l-18 5h-10q-64 -8 -64 -70zM770 1150v-82q0 -5 7 -5q77 0 77 45q0 34 -47 42h-37zM2966 753l24 -28
l-51 -55q-18 12 -27 26zM1524 727l85 -54q0 -15 -21 -42l-87 54q18 41 23 42zM2850 693h38l55 -60h-54l-21 26l-23 -26h-54q54 60 59 60zM3422 693h40l56 -60h-54l-24 26h-1q0 -5 -19 -26h-54zM622 685h52q8 -4 47 -137l34 -110q9 8 34 100l48 147h54v-2l-112 -326h-44z
M1159 685h51v-54h-51v54zM1354 685h46l6 -5v-323h-52v328zM2317 685h45l4 -5v-78h31v-52h-31v-193h-53v193h-26v52h26v78zM2425 685h52v-98h2q23 23 54 23h3q57 0 81 -71l3 -38v-144h-52v115q0 81 -39 81h-10q-42 0 -42 -87v-109h-52v328zM2664 685h52v-54h-52v54zM3028 685
h44l6 -5v-78h29v-52h-29v-193h-54v193h-27v52h27v78zM3234 685h52v-328h-52v328zM3957 685h52v-328h-52v328zM4316 685h51v-54h-51v54zM1555 610h5q83 0 110 -102l3 -23v-11q0 -83 -85 -120l-35 -5q-76 0 -111 97l-4 32q0 97 93 130zM1811 610h4q53 0 78 -60q7 -25 7 -81
v-112h-54v146q-7 50 -37 50h-10q-38 0 -42 -57v-139h-54v245h49v-21q26 29 59 29zM2046 610h4q45 0 63 -39h3v31h49v-206q0 -102 -89 -135l-28 -3h-5q-73 0 -106 81h52l37 -20l15 -3h14q50 0 61 72q-33 -39 -73 -39q-62 0 -98 76q-11 23 -12 60q0 85 86 123zM2866 610h2
q82 0 111 -104l2 -25l-2 -27h-172q15 -45 45 -45l14 -3q29 0 49 22h57v-3q-35 -76 -108 -76q-77 0 -111 97l-1 28v8q0 49 32 89q34 39 82 39zM3429 610h5q41 0 70 -39h2v31h47v-245h-47v31h-2q-35 -39 -77 -39q-71 0 -101 89l-5 36v14q0 86 84 120zM3711 610h7
q88 0 107 -128l-2 -1v-15q0 -65 -66 -106q-21 -11 -46 -11q-34 0 -64 32v-99l-5 -5h-49v325h49v-28q31 36 69 36zM4151 610q44 0 75 -39v31h49v-245h-49v31q-35 -39 -77 -39q-92 0 -108 132q0 84 73 121q15 8 37 8zM922 602h50v-136q3 -60 42 -60h5q44 0 44 87v109h52v-245
h-47v24h-5q0 -23 -56 -32h-3q-55 0 -82 68q-4 35 -4 99v81zM1159 602h51v-245h-51v245zM2664 602h52v-245h-52v245zM4316 602h51v-245h-51v245zM1492 488v-16q13 -66 59 -66h4q59 0 66 76q-13 71 -59 71h-11q-59 -16 -59 -65zM1987 472q15 -66 59 -66h11q48 0 59 75v1
q-13 71 -59 71h-14q-39 0 -56 -57v-24zM2805 506h122v2q-16 45 -59 45h-7q-35 0 -56 -47zM3373 474q13 -68 61 -68h5q52 0 65 63v12q-10 72 -57 72h-16q-56 -14 -56 -63zM3642 478q12 -72 61 -72h3q50 0 65 60v22q0 43 -49 65h-22q-47 0 -58 -72v-3zM4095 472q10 -66 66 -66
q43 0 61 48l2 15v16q0 54 -52 68h-18q-42 0 -59 -60v-21zM3416 321h51v-52h-51v52zM4137 321h51v-52h-51v52zM2733 133h4q35 0 43 -50v-2q0 -16 -24 -41l-10 -17h-28q0 25 28 56l3 2v2q-3 19 -9 19h-10q-8 0 -9 -19h-30q6 50 42 50zM1546 116l52 -60l-26 -19l-52 52zM352 79
h4q75 -48 85 -60l-20 -37q-88 49 -88 58zM3490 79l86 -58l-18 -39q-10 0 -91 55q15 36 23 42zM4578 76l19 -42l-91 -52l-20 39l92 58v-3zM1204 53h51v-19l5 -5h14v-36h-14l-5 -5v-279h-46v31q-34 -40 -81 -40q-72 0 -102 105l-3 26q0 102 101 131h14q33 0 66 -33v59l-6 5
h-43v36h49v24zM1480 45h40l56 -61h-53l-23 27l-23 -27h-53zM2641 45h33q12 0 63 -61h-54l-23 27q-19 -21 -19 -27h-58v4zM49 37h160v-60h-56v-268h-50l-4 5v245l2 3v2l-2 2l2 3l-2 2l2 3l-2 3h-54v54zM699 37h47v-73l2 -2l-2 -3v-3l2 -2l-2 -3v-3l2 -2v-2l-2 -3l2 -3h3
q17 24 51 24h3q53 0 77 -58q7 -17 7 -42v-153h-52v127q0 68 -40 68h-8q-43 0 -43 -86v-109h-52v322zM1297 37h47l5 -6v-49h-52v55zM1987 37h52v-198l70 115h62l-78 -118l90 -125v-2h-70q-10 22 -74 115v-115h-52v328zM2271 37v-99q24 24 53 24q57 0 80 -56q10 -19 10 -77
v-120h-54v133q0 62 -41 62h-11q-31 0 -37 -55v-140h-53v314l-1 3v3l1 2l-1 3l1 3h53zM2458 37h51v-55h-51v55zM3148 37h51v-108q27 33 68 33h3q75 0 105 -94l5 -37q0 -75 -64 -120q-30 -11 -49 -11q-41 0 -72 40v-31h-47v328zM4275 37h52v-99h2q23 24 54 24h3q60 0 82 -74
l2 -41v-138h-52v111q0 82 -32 82l-10 2h-12q-37 0 -37 -80v-115h-52v328zM329 -38h3v-58h-5q-42 0 -42 -57v-138h-53v245h47v-21q18 29 50 29zM564 -38q71 0 86 -87v-166h-51v136q-6 59 -41 59h-6q-45 0 -45 -84v-111h-52v245h50v-21q25 29 59 29zM1504 -38q72 0 105 -94
l5 -39q-2 -24 -7 -24h-169q17 -47 62 -47q24 0 48 21h57q-33 -79 -108 -79q-82 0 -113 105v37q0 81 89 117zM2657 -38h5q77 0 107 -97l3 -26v-21l-3 -13h-170q18 -47 53 -47h12q21 0 42 21h59q-34 -79 -105 -79q-84 0 -115 102l-2 29q0 93 91 128zM2915 -38h4q54 0 78 -60
q7 -25 7 -82v-111h-54v138q0 48 -35 57h-11q-38 0 -43 -57v-138h-54v245h50v-21q25 29 58 29zM3508 -38h6q40 0 70 -40h2v32h47v-245h-47v31h-2q-34 -40 -78 -40q-71 0 -101 90l-4 37v12q0 82 77 117q11 6 30 6zM3781 -38h4q62 0 82 -78l3 -84v-91h-54v138q0 48 -38 57h-9
q-38 0 -42 -52v-143h-54v245h49v-21q26 29 59 29zM4133 -38h1q74 0 104 -93l4 -40q0 -88 -84 -126l-25 -3q-41 0 -68 34v-106h-52v326h47v-29q30 37 73 37zM4714 -38h5q34 0 63 -37q27 37 69 37h6q56 0 79 -66l6 -51v-136h-52v122q0 73 -39 73h-7q-35 0 -41 -50v-140l-5 -5
h-48v140q0 42 -31 55h-17q-40 0 -40 -77v-118h-51v245h47v-21q22 29 56 29zM359 -46h49l5 -6v-234l-5 -5h-49v245zM1297 -46h52v-245h-52v245zM1649 -46h52v-136q4 -60 43 -60h4q44 0 44 81v115h52v-245h-47v24h-5q-12 -33 -59 -33q-52 0 -79 63q-5 12 -5 34v157zM2458 -46
h51v-245h-51v245zM4515 -46h51v-245h-51v245zM1077 -169q0 -53 51 -73h12q54 0 66 66v10q0 53 -54 70h-17q-38 0 -58 -57v-16zM1438 -143h122q-18 47 -53 47h-7q-43 0 -62 -44v-3zM2599 -143h122q-21 47 -54 47h-7q-46 0 -61 -47zM3196 -158v-11q10 -73 61 -73h5q64 8 64 71
v5q0 45 -38 65l-18 5h-14q-60 -14 -60 -62zM3452 -173q14 -69 62 -69h11q41 0 59 60v13q-8 73 -56 73h-17q-47 0 -59 -73v-4zM4062 -158v-22q0 -47 59 -62h9q50 0 61 76q-13 70 -58 70h-15q-56 -17 -56 -62z" />
    <glyph glyph-name=".null" horiz-adv-x="0" 
 />
    <glyph glyph-name="nonmarkingreturn" horiz-adv-x="571" 
 />
    <glyph glyph-name="space" unicode=" " horiz-adv-x="512" 
 />
    <glyph glyph-name="exclam" unicode="!" horiz-adv-x="737" 
d="M284 373q2 106 -14 507q-8 192 -16 327q-10 159 -19 210q151 14 283 35q-11 -50 -35 -200q-22 -140 -48 -317q-26 -179 -44 -322q-20 -156 -25 -216zM227 -31l-6 219l219 27l12 -217z" />
    <glyph glyph-name="quotedbl" unicode="&#x22;" horiz-adv-x="581" 
d="M121 958q-28 299 -70 531l201 -23l-70 -495zM397 958q-28 299 -70 531l203 -23l-69 -495z" />
    <glyph glyph-name="numbersign" unicode="#" horiz-adv-x="1126" 
d="M665 686q5 53 10 108l8 107h-114l-115 -4q-5 -51 -10 -105l-8 -106h229zM87 686h242q10 96 16 207q-72 -4 -143 -11l-119 -12l17 125h252l20 353l139 10q-22 -140 -47 -363h223l21 353l139 10q-23 -140 -47 -363h254l-16 -104q-74 5 -114 7q-60 3 -134 3q-6 -51 -10 -107
l-9 -108h273l-17 -104q-110 10 -262 10q-16 -231 -20 -408l-139 -8l25 190q6 49 13 112l13 114q-105 0 -228 -6l-20 -402l-139 -8q11 70 25 184q12 104 24 222q-157 -10 -248 -21z" />
    <glyph glyph-name="dollar" unicode="$" horiz-adv-x="1087" 
d="M461 -336q4 32 10 82l24 182q7 55 15 109q-61 -9 -117 0l-39 -354l-98 -19q17 68 29 130q17 94 37 247q-118 15 -168 51l-21 -108l-47 -11q34 253 23 445l47 -6l6 -154q65 -101 172 -131l59 596q-111 69 -161 138q-62 86 -62 208q0 112 63 199q75 103 220 137l12 334
l90 14q-10 -66 -16 -127q-8 -77 -17 -209q43 4 109 0l24 322l99 14q-25 -95 -56 -344q44 -7 92 -20l62 -21l16 72l49 6q-11 -58 -19 -153q-11 -121 -11 -251l-47 17v123q-32 115 -148 149l-47 -530q118 -69 179 -150q75 -101 75 -237q0 -304 -324 -369l-20 -362zM446 1341
q-54 -11 -97 -67q-46 -60 -46 -133q0 -132 109 -197zM629 1352q-76 13 -111 2l-43 -455l109 -57zM582 119q67 15 117 75q57 66 57 154q0 151 -127 238zM399 109q73 -8 113 0l51 518l-106 59z" />
    <glyph glyph-name="percent" unicode="%" horiz-adv-x="1566" 
d="M592 1155q-8 56 -25 99q-46 124 -146 124q-67 0 -111 -55q-52 -66 -52 -193q0 -36 6 -78q9 -55 26 -98q48 -118 148 -118q57 0 102 52q58 67 58 193q0 34 -6 74zM102 1079q0 147 98 250q99 105 246 105q307 0 307 -301q0 -148 -103 -253q-101 -104 -241 -104
q-307 0 -307 303zM297 -12q23 31 94 151q59 98 150 256l446 778q62 109 96 171q20 37 31 59q11 24 12 31l162 4q-25 -29 -83 -117q-51 -77 -121 -191q-135 -217 -226 -376q-230 -399 -398 -754zM813 303q0 145 97 248q100 104 247 104q307 0 307 -301q0 -149 -102 -252
q-101 -102 -242 -102q-307 0 -307 303zM1251 112q57 68 57 195q0 12 -1 28q-1 20 -4 40q-8 55 -24 99q-47 126 -147 126q-68 0 -112 -54q-52 -65 -52 -192q0 -33 7 -74q9 -55 26 -98q49 -123 150 -123q56 0 100 53z" />
    <glyph glyph-name="ampersand" unicode="&#x26;" horiz-adv-x="1667" 
d="M1454 -57q-63 30 -156 97l-58 43l-20 14l-77 57q-92 -83 -200 -128q-141 -59 -314 -59q-212 0 -355 104q-145 106 -145 263q0 145 120 264q99 98 247 154q-230 212 -230 378q0 140 130 238q129 98 311 98q185 0 294 -91q99 -82 99 -197q0 -102 -104 -212
q-96 -102 -257 -188l112 -119l333 -344q45 71 74 190q32 124 20 206q-51 10 -158 22l-14 43q59 -3 124 -5q76 -3 140 -3l139 3l70 2q31 2 41 3l-14 -43l-82 -10q-48 -7 -70 -12q-16 -108 -65 -214q-54 -117 -148 -235q208 -215 311 -295zM474 161q103 -93 247 -93
q116 0 218 44q84 36 142 95q-65 50 -138 113q-66 57 -140 126q-63 60 -135 131q-55 55 -127 128q-176 -98 -176 -295q0 -150 109 -249zM829 1332q-67 63 -159 63q-203 0 -203 -217q0 -73 67 -171q51 -75 152 -178q115 67 171 160q46 78 46 162q0 112 -74 181z" />
    <glyph glyph-name="quotesingle" unicode="'" horiz-adv-x="471" 
d="M100 1018q41 128 61 266q18 120 21 256l190 -67q-24 -43 -54 -103q-24 -50 -56 -117l-107 -233z" />
    <glyph glyph-name="parenleft" unicode="(" horiz-adv-x="716" 
d="M520 -272q-42 36 -93 99q-67 82 -121 176q-68 118 -106 240q-45 145 -45 287q0 254 84 494q90 257 299 569l94 13q-43 -63 -85 -143q-54 -102 -94 -213q-49 -134 -76 -272q-32 -161 -32 -323q0 -184 28 -345q24 -139 69 -260q36 -97 86 -185l80 -123z" />
    <glyph glyph-name="parenright" unicode=")" horiz-adv-x="716" 
d="M196 1606q41 -36 92 -99q67 -83 121 -177q68 -118 106 -239q45 -145 45 -288q0 -254 -84 -494q-90 -257 -299 -569l-94 -12q44 63 85 142q54 102 94 213q50 134 76 272q32 161 32 323q0 184 -28 346q-24 138 -69 259q-36 97 -86 185l-79 123z" />
    <glyph glyph-name="asterisk" unicode="*" horiz-adv-x="839" 
d="M524 946q-24 75 -59 161l-42 95q-2 6 -3 8q-26 -82 -45 -262l-197 96q161 124 221 181q-98 4 -262 -8l59 198q126 -119 209 -170q-9 29 -40 113l-54 143l205 21q-11 -38 -27 -84l-49 -144q-9 -30 -12 -45l4 -4l34 35q24 25 47 48q60 65 91 104l98 -183l-142 -9
q-89 -8 -120 -13q26 -19 101 -59q66 -36 133 -68z" />
    <glyph glyph-name="plus" unicode="+" horiz-adv-x="1249" 
d="M700 1186q-23 -197 -29 -432h424l-16 -109q-102 8 -204 10l-206 -2q-1 -91 2 -219q3 -109 8 -205l-139 -22q20 180 27 446q-212 -5 -414 -28l16 129h400q1 84 -2 214q-1 51 -3 109l-3 92z" />
    <glyph glyph-name="comma" unicode="," horiz-adv-x="655" 
d="M306 -367q63 239 7 338l-105 -4l-4 213l242 23q4 -79 3 -140q0 -72 -8 -136q-16 -145 -73 -285z" />
    <glyph glyph-name="hyphen" unicode="-" horiz-adv-x="921" 
d="M778 819l-27 -98q-82 0 -285 -22l-179 -21q-91 -13 -144 -25l16 166h619z" />
    <glyph glyph-name="hyphen" unicode="&#x2010;" horiz-adv-x="921" 
d="M778 819l-27 -98q-82 0 -285 -22l-179 -21q-91 -13 -144 -25l16 166h619z" />
    <glyph glyph-name="period" unicode="." horiz-adv-x="655" 
d="M210 -31l-6 219l238 45l10 -219z" />
    <glyph glyph-name="slash" unicode="/" horiz-adv-x="1003" 
d="M8 -12q23 30 95 150q58 98 149 256l258 454l188 325q63 109 96 171q20 37 31 59q12 24 12 31l160 2q-22 -26 -79 -113q-49 -76 -120 -191l-126 -209q-59 -100 -99 -169q-229 -399 -397 -754z" />
    <glyph glyph-name="zero" unicode="0" horiz-adv-x="1384" 
d="M475 2q-128 48 -211 154q-55 69 -91 156q-29 72 -44 155q-12 62 -15 128q-1 12 -2 25v50q0 335 174 566q172 230 422 230q271 0 422 -202q72 -98 108 -231q33 -122 33 -267q0 -336 -174 -568q-173 -231 -424 -231q-104 0 -198 35zM1022 887q-20 136 -60 240
q-47 121 -115 187q-78 75 -180 75q-165 0 -252 -204q-37 -85 -55 -196q-17 -101 -17 -207q0 -117 18 -235q21 -136 61 -240q47 -121 115 -187q78 -75 179 -75q165 0 253 205q36 85 54 196q17 100 17 205q0 119 -18 236z" />
    <glyph glyph-name="one" unicode="1" horiz-adv-x="948" 
d="M616 725q0 -217 3 -415l3 -162q2 -68 5 -82l56 -8l232 -23l11 -43q-19 1 -76 3l-122 2l-230 3l-244 -3l-129 -2q-60 -2 -80 -3l8 43l328 31q5 59 8 267q1 83 2 183v397q-1 73 -2 140l-8 247q-55 -2 -163 -18l-161 -25l-14 43q48 12 245 74l353 113q-8 -85 -16 -279
q-4 -98 -6 -195q-3 -108 -3 -200v-88z" />
    <glyph glyph-name="two" unicode="2" horiz-adv-x="1183" 
d="M1045 432q-5 -45 -20 -152l-12 -94q-8 -57 -13 -96q-13 -101 -25 -256l-45 14q-3 83 -10 146q-149 4 -281 5l-653 1q93 66 169 123q68 51 123 97q47 39 89 76q30 28 65 62q302 295 302 580q0 115 -33 205q-29 80 -82 135q-94 98 -219 98q-74 0 -125 -16q-38 -13 -66 -37
l-47 -250l-49 -10q19 116 30 245q13 148 13 275l47 -14q7 -83 14 -131q54 15 101 20q52 8 125 8q250 0 391 -113q137 -111 137 -302q0 -166 -104 -340q-89 -147 -265 -318q-100 -100 -305 -248v-4l213 6q132 4 259 25q138 22 173 51q15 45 29 96q18 62 25 103z" />
    <glyph glyph-name="three" unicode="3" horiz-adv-x="1189" 
d="M167 1098q7 39 14 108l31 375l43 -14l3 -100v-4l1 -21q57 -6 142 -7q35 -1 82 -1h550l-362 -403q-60 -67 -88 -101q219 -59 340 -163q127 -109 127 -253q0 -206 -182 -379q-79 -74 -193 -118q-130 -50 -278 -50h-46q-28 1 -50 2q-59 5 -107 21q-11 -18 -18 -44l-11 -46
l-47 -6q15 73 25 228q9 146 8 243l47 -21q-1 -49 2 -96l6 -80q45 -69 133 -99q64 -22 146 -22q139 0 240 103q102 102 102 241q0 161 -135 271q-117 96 -324 145q60 62 185 202l124 140q65 75 105 125h-304q-149 0 -225 -27q-19 -40 -37 -137z" />
    <glyph glyph-name="four" unicode="4" horiz-adv-x="1302" 
d="M-28 430q80 86 218 242l763 866q-4 -27 -7 -130l-6 -233q-5 -284 -5 -522v-92q157 0 217 35l49 211l47 4l-19 -124q-4 -29 -7 -58q-8 -72 -11 -150q-4 -95 -2 -203l-47 11q-2 37 -6 75q-4 43 -8 58q-39 7 -98 9q-36 1 -115 1v-68q0 -90 2 -176q3 -90 8 -123
q23 -4 107 -15l114 -13l10 -43q-32 3 -166 5l-209 3l-196 -3l-113 -2q-54 -2 -74 -3l9 43l139 14q117 11 158 14q4 43 7 134q3 85 3 159v74h-762zM734 1176q-32 -37 -103 -117l-285 -324q-83 -96 -149 -174h537v615z" />
    <glyph glyph-name="five" unicode="5" horiz-adv-x="1179" 
d="M1009 1585q-14 -67 -19 -98q-11 -56 -18 -108q-19 -128 -33 -312l-47 14l2 87q0 53 -2 85q-37 9 -117 13q-92 6 -235 6h-213l-39 -250q80 -12 137 -24q74 -15 134 -32q145 -41 249 -108q207 -132 207 -326q0 -223 -185 -391q-190 -174 -456 -174q-66 0 -117 4
q-62 5 -104 17q-11 -24 -27 -86l-45 -8q14 81 24 234q9 136 9 234l47 -18q0 -115 8 -180q82 -119 258 -119q142 0 244 89q117 101 117 274q0 108 -68 202q-26 35 -59 66q-26 24 -54 43q-66 46 -155 78q-105 39 -254 65l59 572h287q196 0 293 12q37 4 61 11l31 11l33 111z
" />
    <glyph glyph-name="six" unicode="6" horiz-adv-x="1292" 
d="M958 1530q-106 -85 -199 -180q-111 -115 -192 -235q-94 -140 -145 -281q-57 -161 -57 -320q0 -228 96 -356q84 -113 211 -113q262 0 262 315q0 188 -110 299q-103 106 -275 115l29 47q100 15 198 5q107 -12 190 -52q92 -45 143 -122q56 -86 56 -208q0 -179 -142 -320
q-158 -157 -402 -157q-225 0 -355 120q-137 126 -137 362q0 289 202 583q192 278 517 494z" />
    <glyph glyph-name="seven" unicode="7" horiz-adv-x="1097" 
d="M755 -8q-151 8 -336 8l-146 -3l-159 -5l13 43q50 5 103 14l50 8q23 5 33 9q27 76 131 292q103 215 186 371q92 171 175 327l69 131q29 55 33 64l-225 1q-132 0 -216 -3q-229 -6 -268 -32q-13 -34 -27 -97q-5 -21 -12 -52l-10 -46l-49 -16q45 326 55 579l47 -10
q0 -70 7 -125q30 -9 127 -13q98 -3 321 -3h266q123 0 178 2q-15 -39 -58 -129q-16 -34 -43 -88q-6 -13 -23 -49q-16 -32 -25 -51l-104 -217q-58 -123 -97 -216q-191 -456 -209 -620l205 -31z" />
    <glyph glyph-name="eight" unicode="8" horiz-adv-x="1259" 
d="M372 1q-87 30 -149 84q-111 99 -111 230q0 84 37 159q31 65 90 123q49 48 117 90q49 32 112 63q-177 95 -241 188q-49 72 -49 180q0 126 119 228q64 56 153 86q99 34 219 34q115 0 201 -28q75 -24 125 -70q84 -76 84 -186q0 -231 -328 -367q214 -93 307 -211
q74 -93 74 -205q0 -187 -156 -310q-154 -122 -385 -122q-122 0 -219 34zM832 112q79 74 79 193q0 116 -66 197q-88 108 -321 209q-91 -71 -134 -138q-59 -92 -59 -215q0 -144 91 -233q86 -84 212 -84q121 0 198 71zM811 961q59 81 59 186q0 129 -86 195q-68 53 -164 53
q-111 0 -180 -64q-66 -62 -66 -153q0 -119 97 -204q38 -33 96 -67q35 -20 106 -55q86 39 138 109z" />
    <glyph glyph-name="nine" unicode="9" horiz-adv-x="1290" 
d="M403 -86q38 41 71 80l80 96q94 120 163 237q84 145 130 286q53 164 53 321q0 221 -92 345q-80 110 -196 110q-119 0 -192 -84q-79 -91 -79 -258q0 -172 111 -275t285 -92l-29 -47q-221 -57 -395 29q-197 96 -197 327q0 174 137 315q74 75 173 116q110 46 243 46
q211 0 340 -115q141 -127 141 -360q0 -133 -53 -282q-49 -138 -142 -284q-86 -135 -203 -269q-110 -125 -237 -238z" />
    <glyph glyph-name="colon" unicode=":" horiz-adv-x="655" 
d="M210 -33l-6 219l238 45l10 -219zM210 569l-6 219l238 46l10 -220z" />
    <glyph glyph-name="semicolon" unicode=";" horiz-adv-x="655" 
d="M446 203q4 -79 3 -140q0 -72 -8 -136q-16 -145 -73 -285l-62 -9q63 239 7 338l-105 -4l-4 213zM210 569l-6 219l233 46l11 -220z" />
    <glyph glyph-name="less" unicode="&#x3c;" horiz-adv-x="1249" 
d="M1046 219q-84 48 -219 120l-362 192q-9 5 -15 7q-75 40 -115 61q-124 65 -182 97v4q206 106 438 229q247 130 467 251l27 -109q-432 -224 -739 -366l364 -165q217 -98 389 -178z" />
    <glyph glyph-name="equal" unicode="=" horiz-adv-x="1249" 
d="M1079 797q-101 8 -234 9l-235 -1q-268 -7 -457 -29l16 129h926zM1079 485q-101 9 -234 10l-235 -1q-268 -7 -457 -29l16 129h926z" />
    <glyph glyph-name="greater" unicode="&#x3e;" horiz-adv-x="1249" 
d="M212 1180q84 -48 216 -119l677 -359v-4q-196 -99 -437 -227q-232 -123 -468 -252l-27 109q432 224 740 366l-365 164q-217 99 -389 178z" />
    <glyph glyph-name="question" unicode="?" horiz-adv-x="1249" 
d="M485 322q-4 37 -10 81l-18 111q-1 6 -2 10l-7 40q-8 46 -12 81l32 15q18 8 30 13q31 14 54 26q55 30 121 79q103 78 140 174q15 38 20 82q4 31 4 74q0 105 -64 189q-76 100 -206 100q-103 0 -186 -52q-63 -40 -99 -96q-23 -58 -45 -192l-47 -15q17 140 28 321
q9 165 9 300l47 -16l2 -59q1 -34 2 -59q2 -65 6 -106q144 43 295 43q257 0 393 -88q119 -79 119 -204q0 -120 -84 -229q-33 -43 -80 -85q-34 -31 -82 -67q-45 -35 -102 -67l-48 -26l-50 -30q-17 -35 -38 -139l-36 -189zM426 -33l-3 197l228 33l12 -201z" />
    <glyph glyph-name="at" unicode="@" horiz-adv-x="1820" 
d="M1567 378q-164 -160 -422 -151q0 62 -13 127q-68 -57 -132 -91q-83 -44 -150 -44q-127 0 -193 64q-53 51 -53 127q0 129 151 189q62 24 155 39q74 11 179 17q-2 27 -6 51l-6 33q-1 6 -2 13q-14 92 -45 140q-40 60 -111 60q-37 0 -86 -18q-18 -7 -37 -15l-26 -14l-47 -166
l-43 -8l23 173q10 95 10 200l43 -2q2 -28 7 -64q2 -12 4 -32l5 -33q37 17 83 31q57 18 93 18q117 0 186 -67q61 -57 76 -152l34 -219q2 -11 2 -14l8 -53l22 -134q9 -51 51 -51q120 0 198 108q85 117 85 318q0 259 -187 435q-180 169 -428 169q-349 0 -552 -212
q-199 -207 -199 -552q0 -325 197 -526q185 -189 456 -189q231 0 463 148l30 -51q-270 -185 -514 -185q-330 0 -543 176q-115 96 -176 234q-67 149 -67 342q0 380 253 636q254 257 636 257q314 0 531 -181q220 -185 220 -462q0 -259 -163 -419zM1102 594q-195 -26 -264 -59
q-76 -37 -76 -117q0 -109 153 -109q48 0 109 37q41 25 100 76z" />
    <glyph glyph-name="A" unicode="A" 
d="M875 35q129 11 207 28l-173 497q-31 83 -42 104q-65 0 -235 -9l-142 -9q-69 -5 -96 -9l-25 -80q-21 -74 -44 -158q-27 -102 -45 -183q-22 -98 -30 -153q35 -9 86 -17q36 -5 91 -11l8 -43l-156 5l-153 3q-144 0 -238 -8l6 43q88 9 176 28q26 45 107 248l249 647l154 414
q-29 8 -79 16l-83 11l-2 43l143 -6l124 -2l185 2l165 6l-6 -43q-96 -11 -156 -27q17 -62 88 -266q60 -176 127 -361l25 -67q15 -41 30 -80q37 -100 71 -185l77 -189q43 -97 76 -161l89 -15l91 -13l6 -43q-9 1 -48 3l-91 2q-113 3 -201 3l-175 -3l-102 -2q-50 -2 -69 -3z
M853 725q-15 43 -47 137l-162 475h-4l-157 -431l-27 -76q-27 -74 -33 -97z" />
    <glyph glyph-name="B" unicode="B" horiz-adv-x="1398" 
d="M334 819q0 125 -5 299q-4 194 -10 252q-45 8 -109 13q-23 2 -54 4q-5 1 -12 1l-36 3l-10 43l451 14l137 2q141 0 240 -28q86 -24 140 -69q44 -37 65 -87q16 -39 16 -82q0 -55 -8 -88q-11 -49 -46 -105q-50 -79 -135 -140q-60 -44 -129 -73v-6q166 -27 286 -128
q134 -114 134 -267q0 -177 -132 -285t-345 -108l-278 13l-85 3l-150 -3l-94 -2q-46 -2 -67 -3l8 43l108 11q77 9 105 17q5 50 8 133l5 166q1 77 1 174zM555 600q0 -133 8 -310l8 -132q5 -56 8 -66q32 -22 85 -34q41 -9 79 -9q277 0 277 250q0 102 -60 203q-63 106 -164 160
q-56 29 -133 43q-66 11 -108 6v-111zM555 772q60 0 117 13q76 18 128 57q119 86 119 258q0 295 -276 295q-55 0 -82 -13q-2 -7 -3 -60q-1 -47 -2 -126q-1 -147 -1 -309v-115z" />
    <glyph glyph-name="C" unicode="C" horiz-adv-x="1656" 
d="M1472 987q0 100 -12 170q-35 81 -163 153q-69 39 -148 60q-89 25 -183 25q-272 0 -444 -175q-164 -168 -164 -415q0 -303 219 -519q222 -218 543 -218q132 0 246 23q138 27 239 87l-29 -88q-20 -16 -64 -36q-52 -22 -121 -40q-80 -21 -171 -33q-106 -14 -219 -14
q-39 0 -81 3q-61 3 -118 12q-72 10 -134 27q-74 20 -132 48q-424 209 -424 627q0 201 94 367q84 148 230 245q148 100 307 139q71 17 150 25q68 6 153 6q119 0 260 -20q109 -16 168 -33q4 9 11 36l13 56l19 90l47 11q-22 -161 -33 -328q-10 -150 -12 -305z" />
    <glyph glyph-name="D" unicode="D" horiz-adv-x="1925" 
d="M333 975l-7 311q-3 70 -7 84q-97 19 -217 29l-4 43q11 -2 54 -3l94 -3l190 -2l473 8q383 0 578 -94q170 -82 257 -221q78 -125 78 -275q0 -356 -268 -590q-144 -126 -350 -193q-224 -73 -508 -73l-598 -4l8 43q40 2 103 10q78 9 110 18q4 13 7 81l7 362v469zM567 682
q0 -108 4 -299l5 -166l5 -104q60 -23 126 -32q25 -3 53 -4l45 -1q314 0 529 169q237 185 237 496q0 143 -48 255q-56 129 -176 218q-104 78 -277 118q-148 34 -308 34q-41 0 -92 -3q-59 -4 -89 -9q-2 -11 -5 -93l-4 -181q-5 -229 -5 -318v-80z" />
    <glyph glyph-name="E" unicode="E" horiz-adv-x="1304" 
d="M334 797q0 152 -5 332l-4 151l-6 90q-24 5 -102 15l-111 14l-8 43l184 -6l99 -1q3 0 11 -1h184q105 0 191 1l189 5l70 3q29 2 39 5q10 41 16 96l47 8q-3 -15 -10 -75q-6 -51 -13 -129q-13 -150 -18 -220l-45 15l1 64q0 58 -1 83q-24 40 -203 66q-143 20 -258 20
q-2 -10 -5 -80q-2 -62 -4 -158q-5 -203 -5 -307v-40q134 0 260 9q128 10 164 23q14 42 20 88l43 4l-53 -383l-39 17q4 86 4 137q-45 23 -157 35q-100 10 -242 10v-41q0 -107 5 -340q2 -110 4 -185q3 -85 5 -106q169 0 288 15q138 18 204 55q8 25 15 52q3 12 6 25l24 103
l47 13q-5 -22 -15 -85l-21 -136q-26 -177 -32 -253l-43 9q0 92 -2 125q-10 1 -39 3l-68 4l-188 6q-222 5 -348 5q-151 0 -311 -8l10 43q36 2 97 10q78 9 114 18q3 14 6 84l4 165q5 203 5 390v95z" />
    <glyph glyph-name="F" unicode="F" horiz-adv-x="1302" 
d="M334 799q0 156 -3 333l-4 151q-2 67 -4 87q-9 4 -36 9q-23 4 -59 8q-26 3 -66 6q-6 1 -15 2l-41 4l-8 43l176 -6l315 -2q115 0 209 1q125 1 200 4q44 1 71 3q29 2 37 4q15 60 26 145l47 11q-12 -69 -22 -231q-11 -155 -12 -273l-48 16l-2 79q-4 56 -8 83q-26 24 -95 44
q-59 17 -146 30q-72 11 -151 17q-68 5 -112 5q-3 -10 -7 -76q-2 -58 -5 -151q-4 -177 -4 -322v-45q103 0 229 7q160 8 203 22q4 11 8 26l21 95l43 6q-10 -80 -20 -208q-10 -140 -13 -249l-43 12q0 72 -10 175q-18 13 -70 23q-45 9 -114 16q-120 12 -234 12v-62
q0 -153 4 -337q3 -97 5 -160q4 -72 7 -93q51 -10 125 -18q26 -3 57 -6q10 -1 24 -2l20 -2l8 -43q-144 8 -377 8q-199 0 -342 -8l8 43q7 1 36 4l127 14q35 5 54 10q2 17 4 83l4 154q3 185 3 372v127z" />
    <glyph glyph-name="G" unicode="G" horiz-adv-x="1853" 
d="M1585 149l4 -114q-231 -68 -525 -68q-59 0 -116 3q-74 5 -140 14q-80 11 -148 30q-78 21 -138 52q-408 203 -408 616q0 205 94 371q84 148 230 247q132 90 292 131q140 35 310 35q318 0 458 -51q23 90 37 191l47 10q-10 -70 -21 -275q-5 -101 -7 -190q-2 -101 0 -168
l-47 25q-3 47 -10 102q-6 44 -13 86q-26 31 -59 58q-45 37 -102 65q-70 35 -155 54q-99 22 -216 22q-263 0 -431 -173q-163 -169 -163 -419q0 -274 197 -506q101 -118 230 -184q141 -72 300 -72q24 0 51 2q34 2 67 8q85 13 142 43q6 46 6 203v109q0 114 -8 163l-104 10
q-79 8 -103 13l-12 43l336 -6q90 0 188 1q53 1 86 2q38 1 47 3l-10 -43l-79 -8q-71 -8 -99 -15q-4 -23 -7 -105q-2 -63 -2 -122z" />
    <glyph glyph-name="H" unicode="H" horiz-adv-x="1984" 
d="M331 1110l-3 160q-2 77 -5 100q-80 18 -215 29l-10 43q26 -3 144 -6q116 -2 216 -2q97 0 203 2q107 3 131 6l-10 -43q-118 -9 -199 -29q-6 -41 -11 -191q-5 -149 -5 -282v-100l413 -3q171 0 277 2q132 2 160 7v228q-1 83 -2 143q-1 76 -3 123q-3 55 -7 73q-89 21 -203 29
l-10 43q25 -3 141 -6q113 -2 211 -2q100 0 207 2q107 3 135 6l-12 -43q-25 -3 -98 -13l-111 -16q-2 -7 -4 -32q-1 -22 -3 -58l-7 -330v-433l3 -194q5 -212 15 -260q122 -24 207 -28l10 -43q-28 3 -151 5l-193 3l-182 -3l-168 -5l10 43q105 7 203 28q8 47 10 219q1 67 2 161
v286q-35 -1 -169 -7l-640 -36q-36 -3 -41 -4v-72q0 -154 5 -323q5 -166 11 -224q109 -24 199 -28l10 -43l-150 5l-184 3q-81 0 -197 -3l-163 -5l12 43q97 4 213 28l8 276q2 81 2 175z" />
    <glyph glyph-name="I" unicode="I" horiz-adv-x="901" 
d="M567 505q1 -114 2 -201l3 -159q2 -67 5 -82q33 -7 112 -17l103 -11l11 -43l-162 5q-125 3 -224 3l-162 -3l-157 -5l8 43q96 5 217 28q3 31 5 113l3 177q2 91 2 200l-2 556l-3 160q-2 77 -5 101q-27 6 -108 16l-107 13l-10 43q29 -3 148 -6q121 -2 241 -2q82 0 184 2
q106 3 132 6l-11 -43l-95 -13q-81 -12 -120 -16q-5 -28 -8 -186q-1 -68 -2 -161v-518z" />
    <glyph glyph-name="J" unicode="J" horiz-adv-x="858" 
d="M567 260q0 -141 -15 -214q-19 -93 -81 -200q-42 -72 -112 -144q-85 -86 -240 -204l-43 15q106 112 160 215q21 40 36 82q10 29 21 69q24 83 36 278q13 207 13 541l-3 396l-6 159q-4 80 -9 117q-35 6 -132 16l-139 13l-8 43q35 -3 178 -6l225 -2q215 0 355 8l-6 -43
l-220 -29q-1 -11 -2 -39q-2 -25 -3 -64l-5 -392v-615z" />
    <glyph glyph-name="K" unicode="K" horiz-adv-x="1638" 
d="M334 838q0 157 -3 317l-4 136q-2 59 -4 79q-125 21 -219 29l-6 43q15 -2 62 -3l102 -3l196 -2l182 2l96 3q45 1 58 3l-8 -43l-209 -29q-5 -44 -8 -237q-1 -75 -2 -166v-211l151 131l205 182q120 107 192 179q89 87 109 122q-64 17 -151 29l-8 43q172 -8 311 -8
q84 0 223 8l-12 -43l-59 -9q-42 -7 -76 -16q-31 -16 -112 -78l-167 -132q-188 -154 -276 -234q29 -46 140 -191q104 -136 238 -303q138 -173 243 -298q117 -140 155 -175l-70 -22q-55 21 -201 146q-62 54 -141 127q-69 64 -150 141q-69 67 -145 142l-221 222q-36 37 -49 51
q-68 -50 -129 -106v-199q1 -87 2 -159q3 -181 8 -232q19 -8 55 -15q29 -6 70 -12l109 -12l4 -43q-28 3 -157 5q-121 3 -210 3q-75 0 -189 -3l-161 -5l8 43q51 4 109 11q76 9 108 17q5 67 8 253q3 183 3 405v117z" />
    <glyph glyph-name="L" unicode="L" horiz-adv-x="1206" 
d="M333 989q0 81 -2 150q-2 188 -8 231q-112 21 -219 29l-6 43q102 -8 354 -8q105 0 225 2l152 6l-10 -43l-176 -22q-39 -4 -66 -7q-5 -44 -8 -225q-1 -71 -2 -157v-433q1 -124 2 -220l3 -178q2 -75 5 -91q170 0 307 33q117 27 183 71q19 44 42 121l31 112l50 9
q-34 -150 -59 -303q-30 -178 -50 -371l-47 10l10 240q-16 1 -97 3l-177 4q-234 5 -324 5q-79 0 -191 -3l-157 -5l8 43q15 1 41 3q33 3 63 7q86 9 113 18q3 32 5 118l3 184q2 94 2 206v418z" />
    <glyph glyph-name="M" unicode="M" horiz-adv-x="2170" 
d="M1491 35q10 1 42 4l183 20q-1 26 -30 191l-177 958h-8l-421 -1001q-78 -183 -99 -223q-20 44 -94 234l-152 397q-81 216 -146 389q-66 178 -75 206h-8l-106 -592q-30 -180 -45 -308q-18 -154 -15 -247q24 -5 93 -15l89 -13l8 -43q-10 1 -54 3l-94 2l-157 3q-92 0 -227 -8
l14 43l50 8q11 1 19 3q49 8 77 15q16 46 61 236l94 404l90 412l54 257l-203 29l-12 43q9 -2 42 -3l74 -3q95 -2 179 -2q192 0 307 8l-8 -43q-37 -4 -84 -14l-70 -15q21 -66 74 -215l111 -302q135 -365 188 -495q21 43 90 201l139 331q79 190 130 319q27 68 42 109
q16 44 17 52q-25 9 -71 18q-9 1 -19 3l-50 8l-10 43q131 -8 277 -8l149 2l135 6l-6 -43l-81 -12q-63 -10 -91 -17q14 -82 53 -283l83 -408l81 -389q39 -180 51 -227q32 -7 91 -16l79 -12l11 -43q-140 8 -289 8l-203 -3l-176 -5z" />
    <glyph glyph-name="N" unicode="N" horiz-adv-x="1859" 
d="M81 1434q35 1 99 2q15 1 57 2q38 1 61 1l250 9q16 -25 91 -122q65 -84 159 -202l156 -196l440 -516q67 -76 90 -95l-3 405l-3 167q-5 186 -13 304q-10 140 -24 177q-108 22 -207 29l-10 43q13 -2 58 -3l92 -3l155 -2l130 2l128 6l-8 -43l-57 -11q-6 -1 -10 -2
q-57 -11 -89 -16q-8 -28 -16 -92q-6 -53 -11 -130l-12 -212q-2 -30 -6 -191q-1 -32 -2 -76l-17 -588q-5 -155 -10 -183q-21 19 -124 137l-219 250l-359 415l-459 553q-1 -7 -1 -59l2 -133l9 -390q8 -240 16 -396q10 -186 19 -212q11 -3 43 -8q26 -4 66 -8l114 -12l7 -43
q-13 1 -56 3l-90 2l-157 3l-140 -3l-139 -5l6 43l89 12q51 7 81 16q12 30 24 231l25 653l8 419q-77 17 -225 25z" />
    <glyph glyph-name="O" unicode="O" horiz-adv-x="1939" 
d="M782 -24q-87 10 -163 33q-180 55 -310 188q-109 111 -155 233q-42 112 -42 262q0 319 238 539q119 111 282 171q173 64 379 64q174 0 298 -33q142 -39 269 -133q248 -181 248 -507q0 -371 -253 -601q-248 -225 -632 -225q-86 0 -159 9zM1419 224q157 174 157 419
q0 319 -193 536q-187 210 -448 210q-234 0 -399 -147q-88 -79 -136 -190q-52 -122 -52 -274q0 -284 197 -501q206 -226 497 -226q220 0 377 173z" />
    <glyph glyph-name="P" unicode="P" horiz-adv-x="1308" 
d="M563 595q1 -121 2 -221l3 -200q1 -43 2 -70q2 -30 3 -41q32 -5 125 -15l135 -13l10 -43l-185 5l-206 3q-79 0 -194 -3l-160 -5l8 43l165 20q34 5 52 8q3 32 5 124l3 197q2 99 2 217l-2 514l-3 156q-2 75 -5 99q-25 9 -105 18l-114 11l-6 43l197 1h18l240 1q348 0 493 -60
q119 -49 169 -135q18 -31 26 -66q3 -14 5 -28q1 -11 1 -22q0 -99 -40 -185q-35 -75 -101 -141q-48 -47 -114 -87q-57 -34 -124 -60q-56 -22 -113 -37q-46 -12 -79 -17l6 51l81 27q61 26 107 65q60 50 93 119q40 83 40 191q0 197 -166 278q-47 23 -123 35q-67 10 -141 10
q-3 -21 -5 -82l-3 -137q-1 -71 -2 -159v-409z" />
    <glyph glyph-name="Q" unicode="Q" horiz-adv-x="1937" 
d="M1920 -483q-44 8 -160 68q-101 54 -236 137q-289 178 -384 262l-62 -8l-87 -6q-36 -3 -60 -3q-78 0 -150 9q-87 10 -164 32q-187 55 -310 178q-67 67 -111 149q-37 69 -58 147q-16 61 -22 127l-3 50l-1 37q0 309 227 528q117 114 278 176q175 66 386 66q198 0 351 -50
q167 -55 284 -171q60 -59 101 -131q36 -60 56 -129q17 -56 24 -114q5 -41 5 -83q0 -238 -119 -428q-109 -174 -303 -284q40 -60 125 -149q72 -76 169 -164q188 -172 271 -226zM1436 236q146 178 146 446q0 290 -202 501q-198 208 -461 208q-240 0 -402 -159
q-176 -172 -176 -460q0 -269 203 -495q208 -232 471 -232q264 0 421 191z" />
    <glyph glyph-name="R" unicode="R" horiz-adv-x="1531" 
d="M329 1130l-3 155q-2 72 -5 85q-22 5 -105 14l-114 11l-6 43l442 2q94 0 153 -1q88 -2 157 -7q175 -13 268 -50q176 -69 176 -233q0 -96 -85 -209q-84 -111 -204 -178q30 -68 211 -341q96 -144 180 -257q101 -137 175 -215l-91 -15q-49 23 -168 137q-97 93 -234 241
l-212 236q-89 101 -106 124q-71 -6 -115 -9q-58 -4 -82 -4v-53q0 -117 3 -286q3 -192 7 -257q23 -6 104 -16q60 -7 111 -12l8 -43l-160 5l-192 3l-187 -3l-159 -5l8 43q14 1 38 3q31 3 60 7q82 9 119 18q3 21 5 101l3 179q2 93 2 208zM561 723q66 0 119 7q71 9 131 32
q89 33 150 101q83 94 83 229q0 115 -103 194q-127 96 -370 96q-2 -29 -4 -108l-3 -167q-3 -189 -3 -321v-63z" />
    <glyph glyph-name="S" unicode="S" horiz-adv-x="1130" 
d="M129 -207q2 15 7 53l11 96q15 136 15 187l8 260q0 47 -2 64l47 -13l1 -34l3 -52q5 -65 10 -94q95 -223 318 -223q123 0 206 72q85 74 85 186q0 111 -82 197q-32 34 -83 72l-98 65q-91 60 -141 97q-70 53 -114 104q-105 119 -105 276q0 139 97 240q116 120 325 120
q79 0 165 -13q32 -6 64 -13l47 -10q9 29 20 80l6 32q1 7 2 11l9 42l47 7q-23 -167 -35 -294q-14 -149 -14 -268l-47 21q0 47 -2 90q-2 32 -6 66q-20 64 -91 119q-83 65 -181 65q-122 0 -191 -68q-59 -58 -59 -137q0 -88 89 -165q34 -29 94 -68l175 -111q35 -22 62 -43
q66 -49 109 -99q108 -124 108 -296q0 -207 -148 -330q-139 -117 -356 -117q-187 0 -283 51q-17 -64 -45 -213z" />
    <glyph glyph-name="T" unicode="T" horiz-adv-x="1527" 
d="M647 846q0 132 -3 290l-3 135q-2 60 -5 77q-116 0 -213 -9q-85 -7 -154 -21q-59 -12 -103 -28q-36 -14 -60 -28q-10 -29 -22 -88l-19 -105l-47 -12l28 381q3 79 3 135l47 -8l4 -61q4 -45 8 -72q28 -6 239 -13q103 -4 207 -6q118 -2 216 -2q105 0 227 2q108 2 214 6
q214 7 243 13l28 127l52 8l-15 -94l-40 -333l-11 -102l-47 13q7 143 4 211q-38 30 -212 58q-173 28 -323 28q-2 -20 -4 -81l-3 -136q-3 -157 -3 -285v-92q0 -148 3 -352q3 -223 7 -339l265 -28l8 -43q-35 3 -177 5l-225 3l-211 -3l-112 -2q-53 -2 -74 -3l10 43q34 3 131 13
l131 15q5 113 8 339q3 204 3 352v92z" />
    <glyph glyph-name="U" unicode="U" horiz-adv-x="1755" 
d="M268 907q0 145 -3 279q-3 143 -7 184q-52 13 -162 29l-6 43q115 -8 346 -8q201 0 303 8l-10 -43l-47 -6q-31 -3 -56 -6q-67 -9 -110 -17q-4 -24 -7 -182q-3 -144 -3 -289v-272q0 -306 120 -454q103 -128 285 -128q191 0 295 98q78 74 110 213q27 117 27 318l-2 441
l-3 156q-2 76 -5 99q-118 21 -223 29l-14 43q102 -8 331 -8q181 0 250 8l-12 -43l-143 -29q-3 -11 -5 -59l-3 -103l-2 -341q0 -22 1 -65l2 -124q0 -189 -41 -318q-48 -151 -159 -249q-77 -68 -174 -104q-110 -40 -254 -40q-307 0 -469 176q-150 163 -150 445v319z" />
    <glyph glyph-name="V" unicode="V" horiz-adv-x="1529" 
d="M-63 1442q54 -4 129 -6q85 -2 166 -2q96 0 208 2l146 6l-10 -43l-99 -11q-71 -10 -94 -18q6 -25 72 -189q64 -155 148 -352q90 -209 156 -352q75 -163 93 -186l156 325l152 342l69 165q68 172 82 247l-188 29l-10 43q10 -2 41 -3l72 -3q93 -2 186 -2q131 0 229 8l-10 -43
l-80 -18q-5 -2 -9 -2l-36 -9q-8 -4 -43 -67q-32 -57 -87 -162l-115 -226l-130 -260q-63 -126 -129 -261l-113 -232q-110 -225 -121 -252q-20 36 -122 257l-156 339q-31 69 -57 125q-64 141 -114 246l-105 222q-108 224 -142 271l-49 14q-34 8 -78 15z" />
    <glyph glyph-name="W" unicode="W" horiz-adv-x="2158" 
d="M-55 1442q52 -4 113 -6q81 -2 188 -2q121 0 213 2q77 2 117 6l-10 -43l-187 -29l48 -188l88 -334q54 -200 92 -334q44 -158 57 -190h4l237 613q32 86 57 154q57 160 73 226l-201 33l-10 43l130 -6q80 -3 160 -3q195 0 293 9l-6 -43l-90 -14q-49 -9 -74 -19l293 -792
q57 -155 80 -214h4l23 76q1 2 4 12q5 17 8 27l112 375q26 92 48 171l42 162q42 168 46 236q-35 7 -93 15l-100 14l-10 43q86 -8 268 -8q81 0 154 2q55 2 113 6l-7 -43q-81 -11 -131 -29q-10 -11 -39 -79q-25 -61 -65 -169q-37 -96 -84 -229l-90 -259q-211 -608 -250 -740
q-20 42 -92 217l-151 376q-87 216 -153 385q-72 186 -94 246l-229 -583l-147 -368q-75 -186 -113 -273q-23 55 -89 269l-135 442l-142 456q-74 227 -111 309q-32 8 -72 15q-15 3 -39 7l-43 7z" />
    <glyph glyph-name="X" unicode="X" horiz-adv-x="1452" 
d="M1389 -94q-99 74 -218 195q-96 98 -208 228q-43 51 -91 109l-188 230q-45 -50 -180 -265q-62 -99 -113 -185q-56 -97 -84 -155q84 -19 170 -28l6 -43l-305 8q-77 0 -135 -3l-88 -5l14 43l66 10q38 8 63 18q29 18 110 115q65 77 165 207l262 348q-46 59 -124 164l-138 187
q-81 110 -128 171q-63 81 -95 115q-24 8 -65 16l-69 13l-6 43q21 -4 97 -6q87 -2 217 -2q76 0 172 2q84 2 153 6l-12 -43q-103 -11 -174 -29l54 -88l198 -292q50 -69 67 -89q61 80 160 225l92 138q44 69 62 106q-22 8 -76 18l-70 11l-8 43q94 -8 266 -8q60 0 120 2
q49 2 93 6l-4 -43q-21 -6 -66 -15l-61 -14q-6 -2 -28 -23l-51 -54q-55 -61 -142 -164l-148 -176q-64 -79 -94 -115q38 -52 131 -184l278 -397q52 -73 92 -130l147 -201z" />
    <glyph glyph-name="Y" unicode="Y" horiz-adv-x="1339" 
d="M586 574q-2 43 -6 77q-3 10 -22 43l-49 80q-64 99 -149 224q-92 133 -164 230q-82 111 -115 142q-10 4 -28 9q-15 3 -39 7q-8 1 -20 3q-4 1 -11 2l-46 8l-8 43q70 -8 356 -8q87 0 175 2q86 3 108 6l-10 -43l-134 -21q-27 -4 -42 -8q41 -72 103 -171q26 -42 57 -90l58 -88
q12 -19 28 -43l76 -116q51 -78 71 -112l187 301q73 119 114 195q51 95 53 124l-160 29l-6 43q62 -8 258 -8q154 0 248 8l-6 -43l-65 -12q-48 -9 -74 -17q-8 -2 -33 -30l-60 -73q-69 -89 -161 -220q-92 -130 -159 -234q-73 -113 -83 -145q-8 -47 -8 -146v-153q1 -62 2 -117
l3 -115q2 -56 5 -74l36 -6q21 -3 58 -8l105 -14l4 -43l-147 5q-115 3 -220 3q-166 0 -280 -8l10 43q39 4 87 11q62 9 93 17q3 11 5 55l3 101q1 54 2 120v235z" />
    <glyph glyph-name="Z" unicode="Z" horiz-adv-x="1470" 
d="M1382 465q-1 -5 -3 -17q0 -2 -1 -5l-53 -311q-22 -134 -36 -222q-17 -109 -20 -146l-47 15l6 98q5 75 5 98q-9 6 -81 10q-63 5 -167 8q-204 7 -371 7q-194 0 -559 -12q36 38 189 242q137 183 319 435q180 248 313 437q145 205 168 248q-140 4 -412 -21q-138 -13 -228 -29
q-104 -18 -126 -38l-73 -238l-48 -6q16 68 29 166q10 80 19 181l18 265l47 -10l6 -190q8 -2 33 -4l59 -3q64 -3 164 -6q202 -6 262 -6l447 6l139 4q-41 -51 -185 -247l-306 -417l-305 -423q-144 -201 -183 -260q222 -9 479 19q135 15 227 37q104 25 142 56q9 12 23 49
l63 218z" />
    <glyph glyph-name="bracketleft" unicode="[" horiz-adv-x="716" 
d="M377 196l4 -238q3 -106 10 -132l243 -31l-14 -53l-426 14q4 33 6 152q1 99 2 263l-2 1086l-6 326l440 14l-10 -53l-233 -22q-3 -10 -5 -39l-3 -69l-7 -465z" />
    <glyph glyph-name="backslash" unicode="\" horiz-adv-x="1003" 
d="M829 0q-167 355 -397 754q-40 69 -99 169l-126 209q-71 115 -120 191q-57 87 -79 113l160 -2q0 -7 12 -31q11 -22 31 -59q34 -62 96 -171l188 -325l258 -454q91 -158 149 -256q72 -120 95 -150z" />
    <glyph glyph-name="bracketright" unicode="]" horiz-adv-x="716" 
d="M336 1222l-4 192l-3 69q-2 29 -4 39l-234 22l-10 53l440 -14l-5 -326l-3 -1086q1 -164 3 -263q2 -119 5 -152l-426 -14l-14 53l244 31q6 26 10 132l4 238z" />
    <glyph glyph-name="asciicircum" unicode="^" horiz-adv-x="1249" 
d="M956 582q-39 77 -87 176l-251 518q-61 -124 -163 -315l-200 -365l-106 25l251 433q130 228 226 404l288 -508q36 -63 66 -115q72 -124 119 -202z" />
    <glyph glyph-name="underscore" unicode="_" horiz-adv-x="1024" 
d="M0 -256v102h1024v-102h-1024z" />
    <glyph glyph-name="grave" unicode="`" horiz-adv-x="471" 
d="M179 1532q26 -123 67 -244q48 -136 101 -223l-196 -47l-11 252l-16 270z" />
    <glyph glyph-name="a" unicode="a" 
d="M875 35q129 11 207 28l-173 497q-31 83 -42 104q-65 0 -235 -9l-142 -9q-69 -5 -96 -9l-25 -80q-21 -74 -44 -158q-27 -102 -45 -183q-22 -98 -30 -153q35 -9 86 -17q36 -5 91 -11l8 -43l-156 5l-153 3q-144 0 -238 -8l6 43q88 9 176 28q26 45 107 248l249 647l154 414
q-29 8 -79 16l-83 11l-2 43l143 -6l124 -2l185 2l165 6l-6 -43q-96 -11 -156 -27q17 -62 88 -266q60 -176 127 -361l25 -67q15 -41 30 -80q37 -100 71 -185l77 -189q43 -97 76 -161l89 -15l91 -13l6 -43q-9 1 -48 3l-91 2q-113 3 -201 3l-175 -3l-102 -2q-50 -2 -69 -3z
M853 725q-15 43 -47 137l-162 475h-4l-157 -431l-27 -76q-27 -74 -33 -97z" />
    <glyph glyph-name="b" unicode="b" horiz-adv-x="1398" 
d="M334 819q0 125 -5 299q-4 194 -10 252q-45 8 -109 13q-23 2 -54 4q-5 1 -12 1l-36 3l-10 43l451 14l137 2q141 0 240 -28q86 -24 140 -69q44 -37 65 -87q16 -39 16 -82q0 -55 -8 -88q-11 -49 -46 -105q-50 -79 -135 -140q-60 -44 -129 -73v-6q166 -27 286 -128
q134 -114 134 -267q0 -177 -132 -285t-345 -108l-278 13l-85 3l-150 -3l-94 -2q-46 -2 -67 -3l8 43l108 11q77 9 105 17q5 50 8 133l5 166q1 77 1 174zM555 600q0 -133 8 -310l8 -132q5 -56 8 -66q32 -22 85 -34q41 -9 79 -9q277 0 277 250q0 102 -60 203q-63 106 -164 160
q-56 29 -133 43q-66 11 -108 6v-111zM555 772q60 0 117 13q76 18 128 57q119 86 119 258q0 295 -276 295q-55 0 -82 -13q-2 -7 -3 -60q-1 -47 -2 -126q-1 -147 -1 -309v-115z" />
    <glyph glyph-name="c" unicode="c" horiz-adv-x="1656" 
d="M1472 987q0 100 -12 170q-35 81 -163 153q-69 39 -148 60q-89 25 -183 25q-272 0 -444 -175q-164 -168 -164 -415q0 -303 219 -519q222 -218 543 -218q132 0 246 23q138 27 239 87l-29 -88q-20 -16 -64 -36q-52 -22 -121 -40q-80 -21 -171 -33q-106 -14 -219 -14
q-39 0 -81 3q-61 3 -118 12q-72 10 -134 27q-74 20 -132 48q-424 209 -424 627q0 201 94 367q84 148 230 245q148 100 307 139q71 17 150 25q68 6 153 6q119 0 260 -20q109 -16 168 -33q4 9 11 36l13 56l19 90l47 11q-22 -161 -33 -328q-10 -150 -12 -305z" />
    <glyph glyph-name="d" unicode="d" horiz-adv-x="1925" 
d="M333 975l-7 311q-3 70 -7 84q-97 19 -217 29l-4 43q11 -2 54 -3l94 -3l190 -2l473 8q383 0 578 -94q170 -82 257 -221q78 -125 78 -275q0 -356 -268 -590q-144 -126 -350 -193q-224 -73 -508 -73l-598 -4l8 43q40 2 103 10q78 9 110 18q4 13 7 81l7 362v469zM567 682
q0 -108 4 -299l5 -166l5 -104q60 -23 126 -32q25 -3 53 -4l45 -1q314 0 529 169q237 185 237 496q0 143 -48 255q-56 129 -176 218q-104 78 -277 118q-148 34 -308 34q-41 0 -92 -3q-59 -4 -89 -9q-2 -11 -5 -93l-4 -181q-5 -229 -5 -318v-80z" />
    <glyph glyph-name="e" unicode="e" horiz-adv-x="1304" 
d="M334 797q0 152 -5 332l-4 151l-6 90q-24 5 -102 15l-111 14l-8 43l184 -6l99 -1q3 0 11 -1h184q105 0 191 1l189 5l70 3q29 2 39 5q10 41 16 96l47 8q-3 -15 -10 -75q-6 -51 -13 -129q-13 -150 -18 -220l-45 15l1 64q0 58 -1 83q-24 40 -203 66q-143 20 -258 20
q-2 -10 -5 -80q-2 -62 -4 -158q-5 -203 -5 -307v-40q134 0 260 9q128 10 164 23q14 42 20 88l43 4l-53 -383l-39 17q4 86 4 137q-45 23 -157 35q-100 10 -242 10v-41q0 -107 5 -340q2 -110 4 -185q3 -85 5 -106q169 0 288 15q138 18 204 55q8 25 15 52q3 12 6 25l24 103
l47 13q-5 -22 -15 -85l-21 -136q-26 -177 -32 -253l-43 9q0 92 -2 125q-10 1 -39 3l-68 4l-188 6q-222 5 -348 5q-151 0 -311 -8l10 43q36 2 97 10q78 9 114 18q3 14 6 84l4 165q5 203 5 390v95z" />
    <glyph glyph-name="f" unicode="f" horiz-adv-x="1302" 
d="M334 799q0 156 -3 333l-4 151q-2 67 -4 87q-9 4 -36 9q-23 4 -59 8q-26 3 -66 6q-6 1 -15 2l-41 4l-8 43l176 -6l315 -2q115 0 209 1q125 1 200 4q44 1 71 3q29 2 37 4q15 60 26 145l47 11q-12 -69 -22 -231q-11 -155 -12 -273l-48 16l-2 79q-4 56 -8 83q-26 24 -95 44
q-59 17 -146 30q-72 11 -151 17q-68 5 -112 5q-3 -10 -7 -76q-2 -58 -5 -151q-4 -177 -4 -322v-45q103 0 229 7q160 8 203 22q4 11 8 26l21 95l43 6q-10 -80 -20 -208q-10 -140 -13 -249l-43 12q0 72 -10 175q-18 13 -70 23q-45 9 -114 16q-120 12 -234 12v-62
q0 -153 4 -337q3 -97 5 -160q4 -72 7 -93q51 -10 125 -18q26 -3 57 -6q10 -1 24 -2l20 -2l8 -43q-144 8 -377 8q-199 0 -342 -8l8 43q7 1 36 4l127 14q35 5 54 10q2 17 4 83l4 154q3 185 3 372v127z" />
    <glyph glyph-name="g" unicode="g" horiz-adv-x="1853" 
d="M1585 149l4 -114q-231 -68 -525 -68q-59 0 -116 3q-74 5 -140 14q-80 11 -148 30q-78 21 -138 52q-408 203 -408 616q0 205 94 371q84 148 230 247q132 90 292 131q140 35 310 35q318 0 458 -51q23 90 37 191l47 10q-10 -70 -21 -275q-5 -101 -7 -190q-2 -101 0 -168
l-47 25q-3 47 -10 102q-6 44 -13 86q-26 31 -59 58q-45 37 -102 65q-70 35 -155 54q-99 22 -216 22q-263 0 -431 -173q-163 -169 -163 -419q0 -274 197 -506q101 -118 230 -184q141 -72 300 -72q24 0 51 2q34 2 67 8q85 13 142 43q6 46 6 203v109q0 114 -8 163l-104 10
q-79 8 -103 13l-12 43l336 -6q90 0 188 1q53 1 86 2q38 1 47 3l-10 -43l-79 -8q-71 -8 -99 -15q-4 -23 -7 -105q-2 -63 -2 -122z" />
    <glyph glyph-name="h" unicode="h" horiz-adv-x="1984" 
d="M331 1110l-3 160q-2 77 -5 100q-80 18 -215 29l-10 43q26 -3 144 -6q116 -2 216 -2q97 0 203 2q107 3 131 6l-10 -43q-118 -9 -199 -29q-6 -41 -11 -191q-5 -149 -5 -282v-100l413 -3q171 0 277 2q132 2 160 7v228q-1 83 -2 143q-1 76 -3 123q-3 55 -7 73q-89 21 -203 29
l-10 43q25 -3 141 -6q113 -2 211 -2q100 0 207 2q107 3 135 6l-12 -43q-25 -3 -98 -13l-111 -16q-2 -7 -4 -32q-1 -22 -3 -58l-7 -330v-433l3 -194q5 -212 15 -260q122 -24 207 -28l10 -43q-28 3 -151 5l-193 3l-182 -3l-168 -5l10 43q105 7 203 28q8 47 10 219q1 67 2 161
v286q-35 -1 -169 -7l-640 -36q-36 -3 -41 -4v-72q0 -154 5 -323q5 -166 11 -224q109 -24 199 -28l10 -43l-150 5l-184 3q-81 0 -197 -3l-163 -5l12 43q97 4 213 28l8 276q2 81 2 175z" />
    <glyph glyph-name="i" unicode="i" horiz-adv-x="901" 
d="M567 505q1 -114 2 -201l3 -159q2 -67 5 -82q33 -7 112 -17l103 -11l11 -43l-162 5q-125 3 -224 3l-162 -3l-157 -5l8 43q96 5 217 28q3 31 5 113l3 177q2 91 2 200l-2 556l-3 160q-2 77 -5 101q-27 6 -108 16l-107 13l-10 43q29 -3 148 -6q121 -2 241 -2q82 0 184 2
q106 3 132 6l-11 -43l-95 -13q-81 -12 -120 -16q-5 -28 -8 -186q-1 -68 -2 -161v-518z" />
    <glyph glyph-name="j" unicode="j" horiz-adv-x="858" 
d="M567 260q0 -141 -15 -214q-19 -93 -81 -200q-42 -72 -112 -144q-85 -86 -240 -204l-43 15q106 112 160 215q21 40 36 82q10 29 21 69q24 83 36 278q13 207 13 541l-3 396l-6 159q-4 80 -9 117q-35 6 -132 16l-139 13l-8 43q35 -3 178 -6l225 -2q215 0 355 8l-6 -43
l-220 -29q-1 -11 -2 -39q-2 -25 -3 -64l-5 -392v-615z" />
    <glyph glyph-name="k" unicode="k" horiz-adv-x="1638" 
d="M334 838q0 157 -3 317l-4 136q-2 59 -4 79q-125 21 -219 29l-6 43q15 -2 62 -3l102 -3l196 -2l182 2l96 3q45 1 58 3l-8 -43l-209 -29q-5 -44 -8 -237q-1 -75 -2 -166v-211l151 131l205 182q120 107 192 179q89 87 109 122q-64 17 -151 29l-8 43q172 -8 311 -8
q84 0 223 8l-12 -43l-59 -9q-42 -7 -76 -16q-31 -16 -112 -78l-167 -132q-188 -154 -276 -234q29 -46 140 -191q104 -136 238 -303q138 -173 243 -298q117 -140 155 -175l-70 -22q-55 21 -201 146q-62 54 -141 127q-69 64 -150 141q-69 67 -145 142l-221 222q-36 37 -49 51
q-68 -50 -129 -106v-199q1 -87 2 -159q3 -181 8 -232q19 -8 55 -15q29 -6 70 -12l109 -12l4 -43q-28 3 -157 5q-121 3 -210 3q-75 0 -189 -3l-161 -5l8 43q51 4 109 11q76 9 108 17q5 67 8 253q3 183 3 405v117z" />
    <glyph glyph-name="l" unicode="l" horiz-adv-x="1206" 
d="M333 989q0 81 -2 150q-2 188 -8 231q-112 21 -219 29l-6 43q102 -8 354 -8q105 0 225 2l152 6l-10 -43l-176 -22q-39 -4 -66 -7q-5 -44 -8 -225q-1 -71 -2 -157v-433q1 -124 2 -220l3 -178q2 -75 5 -91q170 0 307 33q117 27 183 71q19 44 42 121l31 112l50 9
q-34 -150 -59 -303q-30 -178 -50 -371l-47 10l10 240q-16 1 -97 3l-177 4q-234 5 -324 5q-79 0 -191 -3l-157 -5l8 43q15 1 41 3q33 3 63 7q86 9 113 18q3 32 5 118l3 184q2 94 2 206v418z" />
    <glyph glyph-name="m" unicode="m" horiz-adv-x="2170" 
d="M1491 35q10 1 42 4l183 20q-1 26 -30 191l-177 958h-8l-421 -1001q-78 -183 -99 -223q-20 44 -94 234l-152 397q-81 216 -146 389q-66 178 -75 206h-8l-106 -592q-30 -180 -45 -308q-18 -154 -15 -247q24 -5 93 -15l89 -13l8 -43q-10 1 -54 3l-94 2l-157 3q-92 0 -227 -8
l14 43l50 8q11 1 19 3q49 8 77 15q16 46 61 236l94 404l90 412l54 257l-203 29l-12 43q9 -2 42 -3l74 -3q95 -2 179 -2q192 0 307 8l-8 -43q-37 -4 -84 -14l-70 -15q21 -66 74 -215l111 -302q135 -365 188 -495q21 43 90 201l139 331q79 190 130 319q27 68 42 109
q16 44 17 52q-25 9 -71 18q-9 1 -19 3l-50 8l-10 43q131 -8 277 -8l149 2l135 6l-6 -43l-81 -12q-63 -10 -91 -17q14 -82 53 -283l83 -408l81 -389q39 -180 51 -227q32 -7 91 -16l79 -12l11 -43q-140 8 -289 8l-203 -3l-176 -5z" />
    <glyph glyph-name="n" unicode="n" horiz-adv-x="1859" 
d="M81 1434q35 1 99 2q15 1 57 2q38 1 61 1l250 9q16 -25 91 -122q65 -84 159 -202l156 -196l440 -516q67 -76 90 -95l-3 405l-3 167q-5 186 -13 304q-10 140 -24 177q-108 22 -207 29l-10 43q13 -2 58 -3l92 -3l155 -2l130 2l128 6l-8 -43l-57 -11q-6 -1 -10 -2
q-57 -11 -89 -16q-8 -28 -16 -92q-6 -53 -11 -130l-12 -212q-2 -30 -6 -191q-1 -32 -2 -76l-17 -588q-5 -155 -10 -183q-21 19 -124 137l-219 250l-359 415l-459 553q-1 -7 -1 -59l2 -133l9 -390q8 -240 16 -396q10 -186 19 -212q11 -3 43 -8q26 -4 66 -8l114 -12l7 -43
q-13 1 -56 3l-90 2l-157 3l-140 -3l-139 -5l6 43l89 12q51 7 81 16q12 30 24 231l25 653l8 419q-77 17 -225 25z" />
    <glyph glyph-name="o" unicode="o" horiz-adv-x="1939" 
d="M782 -24q-87 10 -163 33q-180 55 -310 188q-109 111 -155 233q-42 112 -42 262q0 319 238 539q119 111 282 171q173 64 379 64q174 0 298 -33q142 -39 269 -133q248 -181 248 -507q0 -371 -253 -601q-248 -225 -632 -225q-86 0 -159 9zM1419 224q157 174 157 419
q0 319 -193 536q-187 210 -448 210q-234 0 -399 -147q-88 -79 -136 -190q-52 -122 -52 -274q0 -284 197 -501q206 -226 497 -226q220 0 377 173z" />
    <glyph glyph-name="p" unicode="p" horiz-adv-x="1308" 
d="M563 595q1 -121 2 -221l3 -200q1 -43 2 -70q2 -30 3 -41q32 -5 125 -15l135 -13l10 -43l-185 5l-206 3q-79 0 -194 -3l-160 -5l8 43l165 20q34 5 52 8q3 32 5 124l3 197q2 99 2 217l-2 514l-3 156q-2 75 -5 99q-25 9 -105 18l-114 11l-6 43l197 1h18l240 1q348 0 493 -60
q119 -49 169 -135q18 -31 26 -66q3 -14 5 -28q1 -11 1 -22q0 -99 -40 -185q-35 -75 -101 -141q-48 -47 -114 -87q-57 -34 -124 -60q-56 -22 -113 -37q-46 -12 -79 -17l6 51l81 27q61 26 107 65q60 50 93 119q40 83 40 191q0 197 -166 278q-47 23 -123 35q-67 10 -141 10
q-3 -21 -5 -82l-3 -137q-1 -71 -2 -159v-409z" />
    <glyph glyph-name="q" unicode="q" horiz-adv-x="1937" 
d="M1920 -483q-44 8 -160 68q-101 54 -236 137q-289 178 -384 262l-62 -8l-87 -6q-36 -3 -60 -3q-78 0 -150 9q-87 10 -164 32q-187 55 -310 178q-67 67 -111 149q-37 69 -58 147q-16 61 -22 127l-3 50l-1 37q0 309 227 528q117 114 278 176q175 66 386 66q198 0 351 -50
q167 -55 284 -171q60 -59 101 -131q36 -60 56 -129q17 -56 24 -114q5 -41 5 -83q0 -238 -119 -428q-109 -174 -303 -284q40 -60 125 -149q72 -76 169 -164q188 -172 271 -226zM1436 236q146 178 146 446q0 290 -202 501q-198 208 -461 208q-240 0 -402 -159
q-176 -172 -176 -460q0 -269 203 -495q208 -232 471 -232q264 0 421 191z" />
    <glyph glyph-name="r" unicode="r" horiz-adv-x="1531" 
d="M329 1130l-3 155q-2 72 -5 85q-22 5 -105 14l-114 11l-6 43l442 2q94 0 153 -1q88 -2 157 -7q175 -13 268 -50q176 -69 176 -233q0 -96 -85 -209q-84 -111 -204 -178q30 -68 211 -341q96 -144 180 -257q101 -137 175 -215l-91 -15q-49 23 -168 137q-97 93 -234 241
l-212 236q-89 101 -106 124q-71 -6 -115 -9q-58 -4 -82 -4v-53q0 -117 3 -286q3 -192 7 -257q23 -6 104 -16q60 -7 111 -12l8 -43l-160 5l-192 3l-187 -3l-159 -5l8 43q14 1 38 3q31 3 60 7q82 9 119 18q3 21 5 101l3 179q2 93 2 208zM561 723q66 0 119 7q71 9 131 32
q89 33 150 101q83 94 83 229q0 115 -103 194q-127 96 -370 96q-2 -29 -4 -108l-3 -167q-3 -189 -3 -321v-63z" />
    <glyph glyph-name="s" unicode="s" horiz-adv-x="1130" 
d="M129 -207q2 15 7 53l11 96q15 136 15 187l8 260q0 47 -2 64l47 -13l1 -34l3 -52q5 -65 10 -94q95 -223 318 -223q123 0 206 72q85 74 85 186q0 111 -82 197q-32 34 -83 72l-98 65q-91 60 -141 97q-70 53 -114 104q-105 119 -105 276q0 139 97 240q116 120 325 120
q79 0 165 -13q32 -6 64 -13l47 -10q9 29 20 80l6 32q1 7 2 11l9 42l47 7q-23 -167 -35 -294q-14 -149 -14 -268l-47 21q0 47 -2 90q-2 32 -6 66q-20 64 -91 119q-83 65 -181 65q-122 0 -191 -68q-59 -58 -59 -137q0 -88 89 -165q34 -29 94 -68l175 -111q35 -22 62 -43
q66 -49 109 -99q108 -124 108 -296q0 -207 -148 -330q-139 -117 -356 -117q-187 0 -283 51q-17 -64 -45 -213z" />
    <glyph glyph-name="t" unicode="t" horiz-adv-x="1527" 
d="M647 846q0 132 -3 290l-3 135q-2 60 -5 77q-116 0 -213 -9q-85 -7 -154 -21q-59 -12 -103 -28q-36 -14 -60 -28q-10 -29 -22 -88l-19 -105l-47 -12l28 381q3 79 3 135l47 -8l4 -61q4 -45 8 -72q28 -6 239 -13q103 -4 207 -6q118 -2 216 -2q105 0 227 2q108 2 214 6
q214 7 243 13l28 127l52 8l-15 -94l-40 -333l-11 -102l-47 13q7 143 4 211q-38 30 -212 58q-173 28 -323 28q-2 -20 -4 -81l-3 -136q-3 -157 -3 -285v-92q0 -148 3 -352q3 -223 7 -339l265 -28l8 -43q-35 3 -177 5l-225 3l-211 -3l-112 -2q-53 -2 -74 -3l10 43q34 3 131 13
l131 15q5 113 8 339q3 204 3 352v92z" />
    <glyph glyph-name="u" unicode="u" horiz-adv-x="1755" 
d="M268 907q0 145 -3 279q-3 143 -7 184q-52 13 -162 29l-6 43q115 -8 346 -8q201 0 303 8l-10 -43l-47 -6q-31 -3 -56 -6q-67 -9 -110 -17q-4 -24 -7 -182q-3 -144 -3 -289v-272q0 -306 120 -454q103 -128 285 -128q191 0 295 98q78 74 110 213q27 117 27 318l-2 441
l-3 156q-2 76 -5 99q-118 21 -223 29l-14 43q102 -8 331 -8q181 0 250 8l-12 -43l-143 -29q-3 -11 -5 -59l-3 -103l-2 -341q0 -22 1 -65l2 -124q0 -189 -41 -318q-48 -151 -159 -249q-77 -68 -174 -104q-110 -40 -254 -40q-307 0 -469 176q-150 163 -150 445v319z" />
    <glyph glyph-name="v" unicode="v" horiz-adv-x="1529" 
d="M-63 1442q54 -4 129 -6q85 -2 166 -2q96 0 208 2l146 6l-10 -43l-99 -11q-71 -10 -94 -18q6 -25 72 -189q64 -155 148 -352q90 -209 156 -352q75 -163 93 -186l156 325l152 342l69 165q68 172 82 247l-188 29l-10 43q10 -2 41 -3l72 -3q93 -2 186 -2q131 0 229 8l-10 -43
l-80 -18q-5 -2 -9 -2l-36 -9q-8 -4 -43 -67q-32 -57 -87 -162l-115 -226l-130 -260q-63 -126 -129 -261l-113 -232q-110 -225 -121 -252q-20 36 -122 257l-156 339q-31 69 -57 125q-64 141 -114 246l-105 222q-108 224 -142 271l-49 14q-34 8 -78 15z" />
    <glyph glyph-name="w" unicode="w" horiz-adv-x="2158" 
d="M-55 1442q52 -4 113 -6q81 -2 188 -2q121 0 213 2q77 2 117 6l-10 -43l-187 -29l48 -188l88 -334q54 -200 92 -334q44 -158 57 -190h4l237 613q32 86 57 154q57 160 73 226l-201 33l-10 43l130 -6q80 -3 160 -3q195 0 293 9l-6 -43l-90 -14q-49 -9 -74 -19l293 -792
q57 -155 80 -214h4l23 76q1 2 4 12q5 17 8 27l112 375q26 92 48 171l42 162q42 168 46 236q-35 7 -93 15l-100 14l-10 43q86 -8 268 -8q81 0 154 2q55 2 113 6l-7 -43q-81 -11 -131 -29q-10 -11 -39 -79q-25 -61 -65 -169q-37 -96 -84 -229l-90 -259q-211 -608 -250 -740
q-20 42 -92 217l-151 376q-87 216 -153 385q-72 186 -94 246l-229 -583l-147 -368q-75 -186 -113 -273q-23 55 -89 269l-135 442l-142 456q-74 227 -111 309q-32 8 -72 15q-15 3 -39 7l-43 7z" />
    <glyph glyph-name="x" unicode="x" horiz-adv-x="1452" 
d="M1389 -94q-99 74 -218 195q-96 98 -208 228q-43 51 -91 109l-188 230q-45 -50 -180 -265q-62 -99 -113 -185q-56 -97 -84 -155q84 -19 170 -28l6 -43l-305 8q-77 0 -135 -3l-88 -5l14 43l66 10q38 8 63 18q29 18 110 115q65 77 165 207l262 348q-46 59 -124 164l-138 187
q-81 110 -128 171q-63 81 -95 115q-24 8 -65 16l-69 13l-6 43q21 -4 97 -6q87 -2 217 -2q76 0 172 2q84 2 153 6l-12 -43q-103 -11 -174 -29l54 -88l198 -292q50 -69 67 -89q61 80 160 225l92 138q44 69 62 106q-22 8 -76 18l-70 11l-8 43q94 -8 266 -8q60 0 120 2
q49 2 93 6l-4 -43q-21 -6 -66 -15l-61 -14q-6 -2 -28 -23l-51 -54q-55 -61 -142 -164l-148 -176q-64 -79 -94 -115q38 -52 131 -184l278 -397q52 -73 92 -130l147 -201z" />
    <glyph glyph-name="y" unicode="y" horiz-adv-x="1339" 
d="M586 574q-2 43 -6 77q-3 10 -22 43l-49 80q-64 99 -149 224q-92 133 -164 230q-82 111 -115 142q-10 4 -28 9q-15 3 -39 7q-8 1 -20 3q-4 1 -11 2l-46 8l-8 43q70 -8 356 -8q87 0 175 2q86 3 108 6l-10 -43l-134 -21q-27 -4 -42 -8q41 -72 103 -171q26 -42 57 -90l58 -88
q12 -19 28 -43l76 -116q51 -78 71 -112l187 301q73 119 114 195q51 95 53 124l-160 29l-6 43q62 -8 258 -8q154 0 248 8l-6 -43l-65 -12q-48 -9 -74 -17q-8 -2 -33 -30l-60 -73q-69 -89 -161 -220q-92 -130 -159 -234q-73 -113 -83 -145q-8 -47 -8 -146v-153q1 -62 2 -117
l3 -115q2 -56 5 -74l36 -6q21 -3 58 -8l105 -14l4 -43l-147 5q-115 3 -220 3q-166 0 -280 -8l10 43q39 4 87 11q62 9 93 17q3 11 5 55l3 101q1 54 2 120v235z" />
    <glyph glyph-name="z" unicode="z" horiz-adv-x="1470" 
d="M1382 465q-1 -5 -3 -17q0 -2 -1 -5l-53 -311q-22 -134 -36 -222q-17 -109 -20 -146l-47 15l6 98q5 75 5 98q-9 6 -81 10q-63 5 -167 8q-204 7 -371 7q-194 0 -559 -12q36 38 189 242q137 183 319 435q180 248 313 437q145 205 168 248q-140 4 -412 -21q-138 -13 -228 -29
q-104 -18 -126 -38l-73 -238l-48 -6q16 68 29 166q10 80 19 181l18 265l47 -10l6 -190q8 -2 33 -4l59 -3q64 -3 164 -6q202 -6 262 -6l447 6l139 4q-41 -51 -185 -247l-306 -417l-305 -423q-144 -201 -183 -260q222 -9 479 19q135 15 227 37q104 25 142 56q9 12 23 49
l63 218z" />
    <glyph glyph-name="braceleft" unicode="{" horiz-adv-x="716" 
d="M608 -262q-169 15 -284 92q-144 96 -144 260q0 22 8 89l38 276q9 69 9 92q0 151 -174 178l16 47q146 0 146 152q0 13 -4 60l-17 199q-4 52 -4 74q0 141 103 227q111 94 329 113l-10 -57q-98 -4 -158 -53q-76 -62 -73 -191l6 -288q2 -106 -66 -181q-24 -25 -59 -50
l-49 -34q102 -45 150 -130q42 -77 34 -171l-31 -354q-14 -163 81 -235q36 -27 90 -44l89 -20z" />
    <glyph glyph-name="bar" unicode="|" horiz-adv-x="575" 
d="M221 -532v2136h135v-2136h-135z" />
    <glyph glyph-name="braceright" unicode="}" horiz-adv-x="716" 
d="M81 -211l5 1q4 1 5 1l80 18q54 17 89 44q96 72 81 235l-31 354q-8 94 35 171q48 85 150 130l-50 34q-35 25 -58 50q-69 75 -66 181l6 288q3 129 -74 191q-59 49 -158 53l-10 57q219 -19 330 -113q102 -86 102 -227q0 -22 -4 -74l-17 -199q-3 -47 -3 -60q0 -152 145 -152
l16 -47q-174 -27 -174 -178q0 -23 9 -92l38 -276q9 -67 9 -89q0 -164 -144 -260q-116 -77 -284 -92z" />
    <glyph glyph-name="asciitilde" unicode="~" horiz-adv-x="1249" 
d="M1078 750q-4 -5 -10 -13q0 -1 -5 -7l-18 -22q-7 -8 -13 -15q-30 -37 -56 -61q-71 -68 -131 -67q-35 0 -123 28q-31 10 -69 23l-160 60q-85 31 -109 31q-32 0 -94 -44q-23 -16 -48 -37q-19 -16 -34 -30l-45 37l45 55q30 36 57 61q74 68 131 68q19 0 55 -9q29 -8 71 -23
l229 -86q75 -24 110 -23q39 1 94 42q20 15 44 36l36 32z" />
    <glyph glyph-name="dieresis" unicode="&#xa8;" horiz-adv-x="1024" 
 />
    <glyph glyph-name="copyright" unicode="&#xa9;" horiz-adv-x="1720" 
d="M1415 172q-225 -219 -556 -219t-556 219q-222 217 -222 530q0 314 222 531q225 219 556 219q337 0 562 -228q216 -219 216 -522q0 -313 -222 -530zM1191 350q-7 -5 -14 -9l-20 -11q-28 -15 -59 -25q-87 -31 -196 -31l-92 7q-85 13 -145 43q-234 115 -234 350
q0 241 180 368q71 50 160 71q66 15 148 15q58 0 121 -14q53 -11 79 -24q19 52 25 79l35 5l-25 -351l-37 6l-8 121q-26 45 -78 77q-64 40 -139 40q-139 0 -219 -105q-70 -93 -70 -227q0 -174 109 -284q103 -105 254 -105q124 0 245 80zM394 1186q-194 -193 -194 -471
q0 -279 203 -484q201 -202 466 -202q259 0 456 194q202 199 202 475q0 277 -207 480q-202 198 -469 198q-266 0 -457 -190z" />
    <glyph glyph-name="registered" unicode="&#xae;" horiz-adv-x="786" 
d="M634 937q-97 -89 -241 -89t-241 89q-97 88 -97 216q0 129 97 218q98 91 241 91t241 -91q97 -89 97 -218q0 -128 -97 -216zM584 1341q-84 80 -197 80t-190 -74q-79 -75 -79 -188q0 -112 86 -193q84 -79 197 -79q111 0 189 73q79 75 79 187t-85 194zM446 1292
q-30 21 -94 21v-142l30 -2q20 0 35 7q19 6 33 23q19 22 19 52q0 25 -23 41zM561 985q-7 4 -34 28q-23 19 -57 50q-68 62 -85 80l-31 -4v-9q0 -65 4 -114l47 -8l4 -23q-88 3 -174 0l4 23l47 10v289l-43 6l-4 24h101q65 0 90 -2q24 0 61 -12q45 -17 45 -57q0 -56 -78 -97
q5 -7 21 -31l37 -51q47 -65 69 -94z" />
    <glyph glyph-name="acute" unicode="&#xb4;" horiz-adv-x="1024" 
 />
    <glyph glyph-name="paragraph" unicode="&#xb6;" horiz-adv-x="1077" 
d="M624 -129q3 82 4 175q2 80 2 176l-2 1030q-2 83 -4 116q-108 -18 -169 -120q-69 -116 -69 -330q0 -177 60 -270q44 -69 115 -83l4 -67q-117 14 -201 39q-103 31 -172 81q-166 119 -166 363q0 230 196 351q166 103 414 102l453 -2l-8 -41l-85 -9q-51 -6 -73 -12
q-2 -10 -4 -64l-4 -136q-4 -181 -4 -382v-381q0 -86 1 -154q2 -172 9 -304l121 8l10 -39l-164 -39q-93 -23 -149 -41l-172 -54q-93 -31 -160 -60l6 55zM785 1374q-34 -1 -59 -2q-4 -32 -8 -211q-4 -181 -4 -373l2 -553q3 -188 10 -329q20 5 48 11l47 9l4 164q1 73 2 157
l-3 848l-3 171q-2 83 -4 108h-32z" />
    <glyph glyph-name="onequarter" unicode="&#xbc;" horiz-adv-x="1294" 
 />
    <glyph glyph-name="onehalf" unicode="&#xbd;" horiz-adv-x="1386" 
 />
    <glyph glyph-name="threequarters" unicode="&#xbe;" horiz-adv-x="1421" 
 />
    <glyph glyph-name="Agrave" unicode="&#xc0;" 
d="M875 35q129 11 207 28l-173 497q-31 83 -42 104q-65 0 -235 -9l-142 -9q-69 -5 -96 -9l-25 -80q-21 -74 -44 -158q-27 -102 -45 -183q-22 -98 -30 -153q35 -9 86 -17q36 -5 91 -11l8 -43l-156 5l-153 3q-144 0 -238 -8l6 43q88 9 176 28q26 45 107 248l249 647l154 414
q-29 8 -79 16l-83 11l-2 43l143 -6l124 -2l185 2l165 6l-6 -43q-96 -11 -156 -27q17 -62 88 -266q60 -176 127 -361l25 -67q15 -41 30 -80q37 -100 71 -185l77 -189q43 -97 76 -161l89 -15l91 -13l6 -43q-9 1 -48 3l-91 2q-113 3 -201 3l-175 -3l-102 -2q-50 -2 -69 -3z
M853 725q-15 43 -47 137l-162 475h-4l-157 -431l-27 -76q-27 -74 -33 -97zM445 1896q67 -46 220 -144l123 -78q55 -34 63 -36l-25 -65q-51 24 -227 90q-90 35 -148 54q-70 23 -86 22z" />
    <glyph glyph-name="Aacute" unicode="&#xc1;" 
d="M875 35q129 11 207 28l-173 497q-31 83 -42 104q-65 0 -235 -9l-142 -9q-69 -5 -96 -9l-25 -80q-21 -74 -44 -158q-27 -102 -45 -183q-22 -98 -30 -153q35 -9 86 -17q36 -5 91 -11l8 -43l-156 5l-153 3q-144 0 -238 -8l6 43q88 9 176 28q26 45 107 248l249 647l154 414
q-29 8 -79 16l-83 11l-2 43l143 -6l124 -2l185 2l165 6l-6 -43q-96 -11 -156 -27q17 -62 88 -266q60 -176 127 -361l25 -67q15 -41 30 -80q37 -100 71 -185l77 -189q43 -97 76 -161l89 -15l91 -13l6 -43q-9 1 -48 3l-91 2q-113 3 -201 3l-175 -3l-102 -2q-50 -2 -69 -3z
M853 725q-15 43 -47 137l-162 475h-4l-157 -431l-27 -76q-27 -74 -33 -97zM1096 1739q-15 1 -86 -22q-58 -19 -148 -54q-182 -69 -224 -90l-25 65q7 2 63 36l123 78q152 98 219 144z" />
    <glyph glyph-name="Acircumflex" unicode="&#xc2;" 
d="M875 35q129 11 207 28l-173 497q-31 83 -42 104q-65 0 -235 -9l-142 -9q-69 -5 -96 -9l-25 -80q-21 -74 -44 -158q-27 -102 -45 -183q-22 -98 -30 -153q35 -9 86 -17q36 -5 91 -11l8 -43l-156 5l-153 3q-144 0 -238 -8l6 43q88 9 176 28q26 45 107 248l249 647l154 414
q-29 8 -79 16l-83 11l-2 43l143 -6l124 -2l185 2l165 6l-6 -43q-96 -11 -156 -27q17 -62 88 -266q60 -176 127 -361l25 -67q15 -41 30 -80q37 -100 71 -185l77 -189q43 -97 76 -161l89 -15l91 -13l6 -43q-9 1 -48 3l-91 2q-113 3 -201 3l-175 -3l-102 -2q-50 -2 -69 -3z
M853 725q-15 43 -47 137l-162 475h-4l-157 -431l-27 -76q-27 -74 -33 -97zM459 1628q41 36 135 125l77 74q36 37 48 51l232 -206q35 -31 49 -42l-39 -49l-246 135q-34 -15 -117 -68q-73 -47 -100 -67z" />
    <glyph glyph-name="Atilde" unicode="&#xc3;" 
d="M875 35q129 11 207 28l-173 497q-31 83 -42 104q-65 0 -235 -9l-142 -9q-69 -5 -96 -9l-25 -80q-21 -74 -44 -158q-27 -102 -45 -183q-22 -98 -30 -153q35 -9 86 -17q36 -5 91 -11l8 -43l-156 5l-153 3q-144 0 -238 -8l6 43q88 9 176 28q26 45 107 248l249 647l154 414
q-29 8 -79 16l-83 11l-2 43l143 -6l124 -2l185 2l165 6l-6 -43q-96 -11 -156 -27q17 -62 88 -266q60 -176 127 -361l25 -67q15 -41 30 -80q37 -100 71 -185l77 -189q43 -97 76 -161l89 -15l91 -13l6 -43q-9 1 -48 3l-91 2q-113 3 -201 3l-175 -3l-102 -2q-50 -2 -69 -3z
M853 725q-15 43 -47 137l-162 475h-4l-157 -431l-27 -76q-27 -74 -33 -97zM1057 1774q-19 -56 -62 -110q-52 -65 -97 -65q-30 0 -74 15q-33 10 -82 31q-118 47 -160 47q-34 0 -59 -13q-35 -17 -62 -61l-57 12q19 54 63 114q54 75 95 75q27 0 67 -14l169 -65q53 -18 91 -18
l24 1q15 1 27 6q35 13 60 57z" />
    <glyph glyph-name="Egrave" unicode="&#xc8;" horiz-adv-x="1304" 
d="M334 797q0 152 -5 332l-4 151l-6 90q-24 5 -102 15l-111 14l-8 43l184 -6l99 -1q3 0 11 -1h184q105 0 191 1l189 5l70 3q29 2 39 5q10 41 16 96l47 8q-3 -15 -10 -75q-6 -51 -13 -129q-13 -150 -18 -220l-45 15l1 64q0 58 -1 83q-24 40 -203 66q-143 20 -258 20
q-2 -10 -5 -80q-2 -62 -4 -158q-5 -203 -5 -307v-40q134 0 260 9q128 10 164 23q14 42 20 88l43 4l-53 -383l-39 17q4 86 4 137q-45 23 -157 35q-100 10 -242 10v-41q0 -107 5 -340q2 -110 4 -185q3 -85 5 -106q169 0 288 15q138 18 204 55q8 25 15 52q3 12 6 25l24 103
l47 13q-5 -22 -15 -85l-21 -136q-26 -177 -32 -253l-43 9q0 92 -2 125q-10 1 -39 3l-68 4l-188 6q-222 5 -348 5q-151 0 -311 -8l10 43q36 2 97 10q78 9 114 18q3 14 6 84l4 165q5 203 5 390v95zM428 1896q67 -46 219 -144l123 -78q56 -34 63 -36l-24 -65q-51 24 -227 90
q-90 35 -148 54q-71 23 -86 22z" />
    <glyph glyph-name="Eacute" unicode="&#xc9;" horiz-adv-x="1304" 
d="M334 797q0 152 -5 332l-4 151l-6 90q-24 5 -102 15l-111 14l-8 43l184 -6l99 -1q3 0 11 -1h184q105 0 191 1l189 5l70 3q29 2 39 5q10 41 16 96l47 8q-3 -15 -10 -75q-6 -51 -13 -129q-13 -150 -18 -220l-45 15l1 64q0 58 -1 83q-24 40 -203 66q-143 20 -258 20
q-2 -10 -5 -80q-2 -62 -4 -158q-5 -203 -5 -307v-40q134 0 260 9q128 10 164 23q14 42 20 88l43 4l-53 -383l-39 17q4 86 4 137q-45 23 -157 35q-100 10 -242 10v-41q0 -107 5 -340q2 -110 4 -185q3 -85 5 -106q169 0 288 15q138 18 204 55q8 25 15 52q3 12 6 25l24 103
l47 13q-5 -22 -15 -85l-21 -136q-26 -177 -32 -253l-43 9q0 92 -2 125q-10 1 -39 3l-68 4l-188 6q-222 5 -348 5q-151 0 -311 -8l10 43q36 2 97 10q78 9 114 18q3 14 6 84l4 165q5 203 5 390v95zM1018 1739q-16 1 -87 -22q-58 -19 -147 -54q-183 -69 -225 -90l-25 65
q7 2 63 36l123 78q153 98 220 144z" />
    <glyph glyph-name="Ecircumflex" unicode="&#xca;" horiz-adv-x="1304" 
d="M334 797q0 152 -5 332l-4 151l-6 90q-24 5 -102 15l-111 14l-8 43l184 -6l99 -1q3 0 11 -1h184q105 0 191 1l189 5l70 3q29 2 39 5q10 41 16 96l47 8q-3 -15 -10 -75q-6 -51 -13 -129q-13 -150 -18 -220l-45 15l1 64q0 58 -1 83q-24 40 -203 66q-143 20 -258 20
q-2 -10 -5 -80q-2 -62 -4 -158q-5 -203 -5 -307v-40q134 0 260 9q128 10 164 23q14 42 20 88l43 4l-53 -383l-39 17q4 86 4 137q-45 23 -157 35q-100 10 -242 10v-41q0 -107 5 -340q2 -110 4 -185q3 -85 5 -106q169 0 288 15q138 18 204 55q8 25 15 52q3 12 6 25l24 103
l47 13q-5 -22 -15 -85l-21 -136q-26 -177 -32 -253l-43 9q0 92 -2 125q-10 1 -39 3l-68 4l-188 6q-222 5 -348 5q-151 0 -311 -8l10 43q36 2 97 10q78 9 114 18q3 14 6 84l4 165q5 203 5 390v95zM381 1628q41 36 134 125l77 74q36 37 49 51l231 -206q36 -31 49 -42l-39 -49
l-245 135q-35 -15 -118 -68q-73 -47 -99 -67z" />
    <glyph glyph-name="Igrave" unicode="&#xcc;" horiz-adv-x="901" 
d="M568 505q0 -114 1 -201l3 -159q3 -67 6 -82q32 -7 111 -17l104 -11l10 -43l-162 5q-125 3 -223 3l-163 -3l-157 -5l8 43q97 5 218 28q2 31 5 113l3 177q1 91 1 200l-1 556l-3 160q-3 77 -5 101q-28 6 -109 16l-106 13l-11 43q30 -3 149 -6q120 -2 240 -2q82 0 184 2
q107 3 132 6l-10 -43l-96 -13q-80 -12 -119 -16q-6 -28 -9 -186q-1 -68 -1 -161v-518zM166 1896q67 -46 220 -144l123 -78q55 -34 62 -36l-24 -65q-51 24 -227 90q-90 35 -148 54q-70 23 -86 22z" />
    <glyph glyph-name="Iacute" unicode="&#xcd;" horiz-adv-x="901" 
d="M567 505q1 -114 2 -201l3 -159q2 -67 5 -82q33 -7 112 -17l103 -11l11 -43l-162 5q-125 3 -224 3l-162 -3l-157 -5l8 43q96 5 217 28q3 31 5 113l3 177q2 91 2 200l-2 556l-3 160q-2 77 -5 101q-27 6 -108 16l-107 13l-10 43q29 -3 148 -6q121 -2 241 -2q82 0 184 2
q106 3 132 6l-11 -43l-95 -13q-81 -12 -120 -16q-5 -28 -8 -186q-1 -68 -2 -161v-518zM817 1739q-16 1 -86 -22q-59 -19 -148 -54q-182 -69 -225 -90l-24 65q7 2 62 36l123 78q153 98 220 144z" />
    <glyph glyph-name="Eth" unicode="&#xd0;" horiz-adv-x="1925" 
d="M952 705q-260 9 -385 12v-39q0 -105 4 -296l5 -166l5 -103q54 -19 135 -30q60 -7 101 -7q302 0 514 165q112 88 173 210q67 133 67 297q0 136 -51 249q-57 128 -175 220q-109 84 -262 119q-133 30 -338 30q-110 0 -164 -10q-2 -10 -5 -76q-2 -59 -4 -150q-5 -194 -5 -307
v-37h80q57 1 105 2q136 3 223 15zM133 788q45 -3 104 -3l97 1l-1 189l-7 311q-3 70 -7 84q-97 19 -217 29l-4 43q11 -2 54 -3l98 -3q122 -2 213 -2l446 8q381 0 578 -92q171 -81 257 -216q78 -121 78 -272q0 -361 -265 -599q-141 -126 -342 -194q-217 -73 -492 -73l-625 -4
l8 43q40 2 103 10q78 9 110 18q4 13 7 81l7 348l1 223l-108 -5q-61 -4 -116 -14z" />
    <glyph glyph-name="Ograve" unicode="&#xd2;" horiz-adv-x="1939" 
d="M782 -24q-87 10 -163 33q-180 55 -310 188q-109 111 -155 233q-42 112 -42 262q0 319 238 539q119 111 282 171q173 64 379 64q174 0 298 -33q142 -39 269 -133q248 -181 248 -507q0 -371 -253 -601q-248 -225 -632 -225q-86 0 -159 9zM1419 224q157 174 157 419
q0 319 -193 536q-187 210 -448 210q-234 0 -399 -147q-88 -79 -136 -190q-52 -122 -52 -274q0 -284 197 -501q206 -226 497 -226q220 0 377 173zM683 1896q68 -46 220 -144l123 -78q56 -34 63 -36l-25 -65q-51 24 -226 90q-90 35 -148 54q-71 23 -86 22z" />
    <glyph glyph-name="Oacute" unicode="&#xd3;" horiz-adv-x="1939" 
d="M782 -24q-87 10 -163 33q-180 55 -310 188q-109 111 -155 233q-42 112 -42 262q0 319 238 539q119 111 282 171q173 64 379 64q174 0 298 -33q142 -39 269 -133q248 -181 248 -507q0 -371 -253 -601q-248 -225 -632 -225q-86 0 -159 9zM1419 224q157 174 157 419
q0 319 -193 536q-187 210 -448 210q-234 0 -399 -147q-88 -79 -136 -190q-52 -122 -52 -274q0 -284 197 -501q206 -226 497 -226q220 0 377 173zM1335 1739q-16 1 -86 -22q-59 -19 -148 -54q-182 -69 -225 -90l-25 65q7 2 63 36l123 78q153 98 220 144z" />
    <glyph glyph-name="Ocircumflex" unicode="&#xd4;" horiz-adv-x="1939" 
d="M782 -24q-87 10 -163 33q-180 55 -310 188q-109 111 -155 233q-42 112 -42 262q0 319 238 539q119 111 282 171q173 64 379 64q174 0 298 -33q142 -39 269 -133q248 -181 248 -507q0 -371 -253 -601q-248 -225 -632 -225q-86 0 -159 9zM1419 224q157 174 157 419
q0 319 -193 536q-187 210 -448 210q-234 0 -399 -147q-88 -79 -136 -190q-52 -122 -52 -274q0 -284 197 -501q206 -226 497 -226q220 0 377 173zM718 1628q41 36 135 125l77 74q36 37 48 51l232 -206q35 -31 49 -42l-39 -49l-246 135q-34 -15 -118 -68q-73 -47 -99 -67z" />
    <glyph glyph-name="Otilde" unicode="&#xd5;" horiz-adv-x="1939" 
d="M782 -24q-87 10 -163 33q-180 55 -310 188q-109 111 -155 233q-42 112 -42 262q0 319 238 539q119 111 282 171q173 64 379 64q174 0 298 -33q142 -39 269 -133q248 -181 248 -507q0 -371 -253 -601q-248 -225 -632 -225q-86 0 -159 9zM1419 224q157 174 157 419
q0 319 -193 536q-187 210 -448 210q-234 0 -399 -147q-88 -79 -136 -190q-52 -122 -52 -274q0 -284 197 -501q206 -226 497 -226q220 0 377 173zM1296 1774q-19 -56 -62 -110q-52 -65 -98 -65q-29 0 -74 15q-33 10 -82 31q-117 47 -159 47q-35 0 -60 -13q-35 -17 -61 -61
l-58 12q19 54 63 114q54 75 95 75q28 0 67 -14l169 -65q53 -18 92 -18l23 1q15 1 27 6q35 13 60 57z" />
    <glyph glyph-name="Ugrave" unicode="&#xd9;" horiz-adv-x="1755" 
d="M268 907q0 145 -3 279q-3 143 -7 184q-52 13 -162 29l-6 43q115 -8 346 -8q201 0 303 8l-10 -43l-47 -6q-31 -3 -56 -6q-67 -9 -110 -17q-4 -24 -7 -182q-3 -144 -3 -289v-272q0 -306 120 -454q103 -128 285 -128q191 0 295 98q78 74 110 213q27 117 27 318l-2 441
l-3 156q-2 76 -5 99q-118 21 -223 29l-14 43q102 -8 331 -8q181 0 250 8l-12 -43l-143 -29q-3 -11 -5 -59l-3 -103l-2 -341q0 -22 1 -65l2 -124q0 -189 -41 -318q-48 -151 -159 -249q-77 -68 -174 -104q-110 -40 -254 -40q-307 0 -469 176q-150 163 -150 445v319zM592 1896
q67 -46 219 -144l123 -78q56 -34 63 -36l-24 -65q-51 24 -227 90q-90 35 -148 54q-71 23 -86 22z" />
    <glyph glyph-name="Uacute" unicode="&#xda;" horiz-adv-x="1755" 
d="M268 907q0 145 -3 279q-3 143 -7 184q-52 13 -162 29l-6 43q115 -8 346 -8q201 0 303 8l-10 -43l-47 -6q-31 -3 -56 -6q-67 -9 -110 -17q-4 -24 -7 -182q-3 -144 -3 -289v-272q0 -306 120 -454q103 -128 285 -128q191 0 295 98q78 74 110 213q27 117 27 318l-2 441
l-3 156q-2 76 -5 99q-118 21 -223 29l-14 43q102 -8 331 -8q181 0 250 8l-12 -43l-143 -29q-3 -11 -5 -59l-3 -103l-2 -341q0 -22 1 -65l2 -124q0 -189 -41 -318q-48 -151 -159 -249q-77 -68 -174 -104q-110 -40 -254 -40q-307 0 -469 176q-150 163 -150 445v319zM1304 1739
q-15 1 -86 -22q-58 -19 -148 -54q-182 -69 -224 -90l-25 65q7 2 63 36l123 78q153 98 220 144z" />
    <glyph glyph-name="Yacute" unicode="&#xdd;" horiz-adv-x="1339" 
d="M586 574q-2 43 -6 77q-3 10 -22 43l-49 80q-64 99 -149 224q-92 133 -164 230q-82 111 -115 142q-10 4 -28 9q-15 3 -39 7q-8 1 -20 3q-4 1 -11 2l-46 8l-8 43q70 -8 356 -8q87 0 175 2q86 3 108 6l-10 -43l-134 -21q-27 -4 -42 -8q41 -72 103 -171q26 -42 57 -90l58 -88
q12 -19 28 -43l76 -116q51 -78 71 -112l187 301q73 119 114 195q51 95 53 124l-160 29l-6 43q62 -8 258 -8q154 0 248 8l-6 -43l-65 -12q-48 -9 -74 -17q-8 -2 -33 -30l-60 -73q-69 -89 -161 -220q-92 -130 -159 -234q-73 -113 -83 -145q-8 -47 -8 -146v-153q1 -62 2 -117
l3 -115q2 -56 5 -74l36 -6q21 -3 58 -8l105 -14l4 -43l-147 5q-115 3 -220 3q-166 0 -280 -8l10 43q39 4 87 11q62 9 93 17q3 11 5 55l3 101q1 54 2 120v235zM1100 1739q-15 1 -86 -22q-58 -19 -148 -54q-182 -69 -224 -90l-25 65q7 2 63 36l123 78q152 98 219 144z" />
    <glyph glyph-name="agrave" unicode="&#xe0;" 
d="M875 35q129 11 207 28l-173 497q-31 83 -42 104q-65 0 -235 -9l-142 -9q-69 -5 -96 -9l-25 -80q-21 -74 -44 -158q-27 -102 -45 -183q-22 -98 -30 -153q35 -9 86 -17q36 -5 91 -11l8 -43l-156 5l-153 3q-144 0 -238 -8l6 43q88 9 176 28q26 45 107 248l249 647l154 414
q-29 8 -79 16l-83 11l-2 43l143 -6l124 -2l185 2l165 6l-6 -43q-96 -11 -156 -27q17 -62 88 -266q60 -176 127 -361l25 -67q15 -41 30 -80q37 -100 71 -185l77 -189q43 -97 76 -161l89 -15l91 -13l6 -43q-9 1 -48 3l-91 2q-113 3 -201 3l-175 -3l-102 -2q-50 -2 -69 -3z
M853 725q-15 43 -47 137l-162 475h-4l-157 -431l-27 -76q-27 -74 -33 -97zM445 1896q67 -46 220 -144l123 -78q55 -34 63 -36l-25 -65q-51 24 -227 90q-90 35 -148 54q-70 23 -86 22z" />
    <glyph glyph-name="aacute" unicode="&#xe1;" 
d="M875 35q129 11 207 28l-173 497q-31 83 -42 104q-65 0 -235 -9l-142 -9q-69 -5 -96 -9l-25 -80q-21 -74 -44 -158q-27 -102 -45 -183q-22 -98 -30 -153q35 -9 86 -17q36 -5 91 -11l8 -43l-156 5l-153 3q-144 0 -238 -8l6 43q88 9 176 28q26 45 107 248l249 647l154 414
q-29 8 -79 16l-83 11l-2 43l143 -6l124 -2l185 2l165 6l-6 -43q-96 -11 -156 -27q17 -62 88 -266q60 -176 127 -361l25 -67q15 -41 30 -80q37 -100 71 -185l77 -189q43 -97 76 -161l89 -15l91 -13l6 -43q-9 1 -48 3l-91 2q-113 3 -201 3l-175 -3l-102 -2q-50 -2 -69 -3z
M853 725q-15 43 -47 137l-162 475h-4l-157 -431l-27 -76q-27 -74 -33 -97zM1096 1739q-15 1 -86 -22q-58 -19 -148 -54q-182 -69 -224 -90l-25 65q7 2 63 36l123 78q152 98 219 144z" />
    <glyph glyph-name="acircumflex" unicode="&#xe2;" 
d="M875 35q129 11 207 28l-173 497q-31 83 -42 104q-65 0 -235 -9l-142 -9q-69 -5 -96 -9l-25 -80q-21 -74 -44 -158q-27 -102 -45 -183q-22 -98 -30 -153q35 -9 86 -17q36 -5 91 -11l8 -43l-156 5l-153 3q-144 0 -238 -8l6 43q88 9 176 28q26 45 107 248l249 647l154 414
q-29 8 -79 16l-83 11l-2 43l143 -6l124 -2l185 2l165 6l-6 -43q-96 -11 -156 -27q17 -62 88 -266q60 -176 127 -361l25 -67q15 -41 30 -80q37 -100 71 -185l77 -189q43 -97 76 -161l89 -15l91 -13l6 -43q-9 1 -48 3l-91 2q-113 3 -201 3l-175 -3l-102 -2q-50 -2 -69 -3z
M853 725q-15 43 -47 137l-162 475h-4l-157 -431l-27 -76q-27 -74 -33 -97zM459 1628q41 36 135 125l77 74q36 37 48 51l232 -206q35 -31 49 -42l-39 -49l-246 135q-34 -15 -117 -68q-73 -47 -100 -67z" />
    <glyph glyph-name="atilde" unicode="&#xe3;" 
d="M875 35q129 11 207 28l-173 497q-31 83 -42 104q-65 0 -235 -9l-142 -9q-69 -5 -96 -9l-25 -80q-21 -74 -44 -158q-27 -102 -45 -183q-22 -98 -30 -153q35 -9 86 -17q36 -5 91 -11l8 -43l-156 5l-153 3q-144 0 -238 -8l6 43q88 9 176 28q26 45 107 248l249 647l154 414
q-29 8 -79 16l-83 11l-2 43l143 -6l124 -2l185 2l165 6l-6 -43q-96 -11 -156 -27q17 -62 88 -266q60 -176 127 -361l25 -67q15 -41 30 -80q37 -100 71 -185l77 -189q43 -97 76 -161l89 -15l91 -13l6 -43q-9 1 -48 3l-91 2q-113 3 -201 3l-175 -3l-102 -2q-50 -2 -69 -3z
M853 725q-15 43 -47 137l-162 475h-4l-157 -431l-27 -76q-27 -74 -33 -97zM1057 1774q-19 -56 -62 -110q-52 -65 -97 -65q-30 0 -74 15q-33 10 -82 31q-118 47 -160 47q-34 0 -59 -13q-35 -17 -62 -61l-57 12q19 54 63 114q54 75 95 75q27 0 67 -14l169 -65q53 -18 91 -18
l24 1q15 1 27 6q35 13 60 57z" />
    <glyph glyph-name="egrave" unicode="&#xe8;" horiz-adv-x="1304" 
d="M334 797q0 152 -5 332l-4 151l-6 90q-24 5 -102 15l-111 14l-8 43l184 -6l99 -1q3 0 11 -1h184q105 0 191 1l189 5l70 3q29 2 39 5q10 41 16 96l47 8q-3 -15 -10 -75q-6 -51 -13 -129q-13 -150 -18 -220l-45 15l1 64q0 58 -1 83q-24 40 -203 66q-143 20 -258 20
q-2 -10 -5 -80q-2 -62 -4 -158q-5 -203 -5 -307v-40q134 0 260 9q128 10 164 23q14 42 20 88l43 4l-53 -383l-39 17q4 86 4 137q-45 23 -157 35q-100 10 -242 10v-41q0 -107 5 -340q2 -110 4 -185q3 -85 5 -106q169 0 288 15q138 18 204 55q8 25 15 52q3 12 6 25l24 103
l47 13q-5 -22 -15 -85l-21 -136q-26 -177 -32 -253l-43 9q0 92 -2 125q-10 1 -39 3l-68 4l-188 6q-222 5 -348 5q-151 0 -311 -8l10 43q36 2 97 10q78 9 114 18q3 14 6 84l4 165q5 203 5 390v95zM428 1896q67 -46 219 -144l123 -78q56 -34 63 -36l-24 -65q-51 24 -227 90
q-90 35 -148 54q-71 23 -86 22z" />
    <glyph glyph-name="eacute" unicode="&#xe9;" horiz-adv-x="1304" 
d="M334 797q0 152 -5 332l-4 151l-6 90q-24 5 -102 15l-111 14l-8 43l184 -6l99 -1q3 0 11 -1h184q105 0 191 1l189 5l70 3q29 2 39 5q10 41 16 96l47 8q-3 -15 -10 -75q-6 -51 -13 -129q-13 -150 -18 -220l-45 15l1 64q0 58 -1 83q-24 40 -203 66q-143 20 -258 20
q-2 -10 -5 -80q-2 -62 -4 -158q-5 -203 -5 -307v-40q134 0 260 9q128 10 164 23q14 42 20 88l43 4l-53 -383l-39 17q4 86 4 137q-45 23 -157 35q-100 10 -242 10v-41q0 -107 5 -340q2 -110 4 -185q3 -85 5 -106q169 0 288 15q138 18 204 55q8 25 15 52q3 12 6 25l24 103
l47 13q-5 -22 -15 -85l-21 -136q-26 -177 -32 -253l-43 9q0 92 -2 125q-10 1 -39 3l-68 4l-188 6q-222 5 -348 5q-151 0 -311 -8l10 43q36 2 97 10q78 9 114 18q3 14 6 84l4 165q5 203 5 390v95zM1018 1739q-16 1 -87 -22q-58 -19 -147 -54q-183 -69 -225 -90l-25 65
q7 2 63 36l123 78q153 98 220 144z" />
    <glyph glyph-name="ecircumflex" unicode="&#xea;" horiz-adv-x="1304" 
d="M334 797q0 152 -5 332l-4 151l-6 90q-24 5 -102 15l-111 14l-8 43l184 -6l99 -1q3 0 11 -1h184q105 0 191 1l189 5l70 3q29 2 39 5q10 41 16 96l47 8q-3 -15 -10 -75q-6 -51 -13 -129q-13 -150 -18 -220l-45 15l1 64q0 58 -1 83q-24 40 -203 66q-143 20 -258 20
q-2 -10 -5 -80q-2 -62 -4 -158q-5 -203 -5 -307v-40q134 0 260 9q128 10 164 23q14 42 20 88l43 4l-53 -383l-39 17q4 86 4 137q-45 23 -157 35q-100 10 -242 10v-41q0 -107 5 -340q2 -110 4 -185q3 -85 5 -106q169 0 288 15q138 18 204 55q8 25 15 52q3 12 6 25l24 103
l47 13q-5 -22 -15 -85l-21 -136q-26 -177 -32 -253l-43 9q0 92 -2 125q-10 1 -39 3l-68 4l-188 6q-222 5 -348 5q-151 0 -311 -8l10 43q36 2 97 10q78 9 114 18q3 14 6 84l4 165q5 203 5 390v95zM381 1628q41 36 134 125l77 74q36 37 49 51l231 -206q36 -31 49 -42l-39 -49
l-245 135q-35 -15 -118 -68q-73 -47 -99 -67z" />
    <glyph glyph-name="igrave" unicode="&#xec;" horiz-adv-x="901" 
d="M568 505q0 -114 1 -201l3 -159q3 -67 6 -82q32 -7 111 -17l104 -11l10 -43l-162 5q-125 3 -223 3l-163 -3l-157 -5l8 43q97 5 218 28q2 31 5 113l3 177q1 91 1 200l-1 556l-3 160q-3 77 -5 101q-28 6 -109 16l-106 13l-11 43q30 -3 149 -6q120 -2 240 -2q82 0 184 2
q107 3 132 6l-10 -43l-96 -13q-80 -12 -119 -16q-6 -28 -9 -186q-1 -68 -1 -161v-518zM166 1896q67 -46 220 -144l123 -78q55 -34 62 -36l-24 -65q-51 24 -227 90q-90 35 -148 54q-70 23 -86 22z" />
    <glyph glyph-name="iacute" unicode="&#xed;" horiz-adv-x="901" 
d="M567 505q1 -114 2 -201l3 -159q2 -67 5 -82q33 -7 112 -17l103 -11l11 -43l-162 5q-125 3 -224 3l-162 -3l-157 -5l8 43q96 5 217 28q3 31 5 113l3 177q2 91 2 200l-2 556l-3 160q-2 77 -5 101q-27 6 -108 16l-107 13l-10 43q29 -3 148 -6q121 -2 241 -2q82 0 184 2
q106 3 132 6l-11 -43l-95 -13q-81 -12 -120 -16q-5 -28 -8 -186q-1 -68 -2 -161v-518zM817 1739q-16 1 -86 -22q-59 -19 -148 -54q-182 -69 -225 -90l-24 65q7 2 62 36l123 78q153 98 220 144z" />
    <glyph glyph-name="ograve" unicode="&#xf2;" horiz-adv-x="1939" 
d="M782 -24q-87 10 -163 33q-180 55 -310 188q-109 111 -155 233q-42 112 -42 262q0 319 238 539q119 111 282 171q173 64 379 64q174 0 298 -33q142 -39 269 -133q248 -181 248 -507q0 -371 -253 -601q-248 -225 -632 -225q-86 0 -159 9zM1419 224q157 174 157 419
q0 319 -193 536q-187 210 -448 210q-234 0 -399 -147q-88 -79 -136 -190q-52 -122 -52 -274q0 -284 197 -501q206 -226 497 -226q220 0 377 173zM683 1896q68 -46 220 -144l123 -78q56 -34 63 -36l-25 -65q-51 24 -226 90q-90 35 -148 54q-71 23 -86 22z" />
    <glyph glyph-name="oacute" unicode="&#xf3;" horiz-adv-x="1939" 
d="M782 -24q-87 10 -163 33q-180 55 -310 188q-109 111 -155 233q-42 112 -42 262q0 319 238 539q119 111 282 171q173 64 379 64q174 0 298 -33q142 -39 269 -133q248 -181 248 -507q0 -371 -253 -601q-248 -225 -632 -225q-86 0 -159 9zM1419 224q157 174 157 419
q0 319 -193 536q-187 210 -448 210q-234 0 -399 -147q-88 -79 -136 -190q-52 -122 -52 -274q0 -284 197 -501q206 -226 497 -226q220 0 377 173zM1335 1739q-16 1 -86 -22q-59 -19 -148 -54q-182 -69 -225 -90l-25 65q7 2 63 36l123 78q153 98 220 144z" />
    <glyph glyph-name="ocircumflex" unicode="&#xf4;" horiz-adv-x="1939" 
d="M782 -24q-87 10 -163 33q-180 55 -310 188q-109 111 -155 233q-42 112 -42 262q0 319 238 539q119 111 282 171q173 64 379 64q174 0 298 -33q142 -39 269 -133q248 -181 248 -507q0 -371 -253 -601q-248 -225 -632 -225q-86 0 -159 9zM1419 224q157 174 157 419
q0 319 -193 536q-187 210 -448 210q-234 0 -399 -147q-88 -79 -136 -190q-52 -122 -52 -274q0 -284 197 -501q206 -226 497 -226q220 0 377 173zM718 1628q41 36 135 125l77 74q36 37 48 51l232 -206q35 -31 49 -42l-39 -49l-246 135q-34 -15 -118 -68q-73 -47 -99 -67z" />
    <glyph glyph-name="otilde" unicode="&#xf5;" horiz-adv-x="1939" 
d="M782 -24q-87 10 -163 33q-180 55 -310 188q-109 111 -155 233q-42 112 -42 262q0 319 238 539q119 111 282 171q173 64 379 64q174 0 298 -33q142 -39 269 -133q248 -181 248 -507q0 -371 -253 -601q-248 -225 -632 -225q-86 0 -159 9zM1419 224q157 174 157 419
q0 319 -193 536q-187 210 -448 210q-234 0 -399 -147q-88 -79 -136 -190q-52 -122 -52 -274q0 -284 197 -501q206 -226 497 -226q220 0 377 173zM1296 1774q-19 -56 -62 -110q-52 -65 -98 -65q-29 0 -74 15q-33 10 -82 31q-117 47 -159 47q-35 0 -60 -13q-35 -17 -61 -61
l-58 12q19 54 63 114q54 75 95 75q28 0 67 -14l169 -65q53 -18 92 -18l23 1q15 1 27 6q35 13 60 57z" />
    <glyph glyph-name="divide" unicode="&#xf7;" horiz-adv-x="1706" 
 />
    <glyph glyph-name="glyph217" unicode="&#xf9;" horiz-adv-x="1755" 
d="M268 907q0 145 -3 279q-3 143 -7 184q-52 13 -162 29l-6 43q115 -8 346 -8q201 0 303 8l-10 -43l-47 -6q-31 -3 -56 -6q-67 -9 -110 -17q-4 -24 -7 -182q-3 -144 -3 -289v-272q0 -306 120 -454q103 -128 285 -128q191 0 295 98q78 74 110 213q27 117 27 318l-2 441
l-3 156q-2 76 -5 99q-118 21 -223 29l-14 43q102 -8 331 -8q181 0 250 8l-12 -43l-143 -29q-3 -11 -5 -59l-3 -103l-2 -341q0 -22 1 -65l2 -124q0 -189 -41 -318q-48 -151 -159 -249q-77 -68 -174 -104q-110 -40 -254 -40q-307 0 -469 176q-150 163 -150 445v319zM592 1896
q67 -46 219 -144l123 -78q56 -34 63 -36l-24 -65q-51 24 -227 90q-90 35 -148 54q-71 23 -86 22z" />
    <glyph glyph-name="glyph218" unicode="&#xfa;" horiz-adv-x="1755" 
d="M268 907q0 145 -3 279q-3 143 -7 184q-52 13 -162 29l-6 43q115 -8 346 -8q201 0 303 8l-10 -43l-47 -6q-31 -3 -56 -6q-67 -9 -110 -17q-4 -24 -7 -182q-3 -144 -3 -289v-272q0 -306 120 -454q103 -128 285 -128q191 0 295 98q78 74 110 213q27 117 27 318l-2 441
l-3 156q-2 76 -5 99q-118 21 -223 29l-14 43q102 -8 331 -8q181 0 250 8l-12 -43l-143 -29q-3 -11 -5 -59l-3 -103l-2 -341q0 -22 1 -65l2 -124q0 -189 -41 -318q-48 -151 -159 -249q-77 -68 -174 -104q-110 -40 -254 -40q-307 0 -469 176q-150 163 -150 445v319zM1304 1739
q-15 1 -86 -22q-58 -19 -148 -54q-182 -69 -224 -90l-25 65q7 2 63 36l123 78q153 98 220 144z" />
    <glyph glyph-name="glyph235" unicode="&#xfd;" horiz-adv-x="1339" 
d="M586 574q-2 43 -6 77q-3 10 -22 43l-49 80q-64 99 -149 224q-92 133 -164 230q-82 111 -115 142q-10 4 -28 9q-15 3 -39 7q-8 1 -20 3q-4 1 -11 2l-46 8l-8 43q70 -8 356 -8q87 0 175 2q86 3 108 6l-10 -43l-134 -21q-27 -4 -42 -8q41 -72 103 -171q26 -42 57 -90l58 -88
q12 -19 28 -43l76 -116q51 -78 71 -112l187 301q73 119 114 195q51 95 53 124l-160 29l-6 43q62 -8 258 -8q154 0 248 8l-6 -43l-65 -12q-48 -9 -74 -17q-8 -2 -33 -30l-60 -73q-69 -89 -161 -220q-92 -130 -159 -234q-73 -113 -83 -145q-8 -47 -8 -146v-153q1 -62 2 -117
l3 -115q2 -56 5 -74l36 -6q21 -3 58 -8l105 -14l4 -43l-147 5q-115 3 -220 3q-166 0 -280 -8l10 43q39 4 87 11q62 9 93 17q3 11 5 55l3 101q1 54 2 120v235zM1100 1739q-15 1 -86 -22q-58 -19 -148 -54q-182 -69 -224 -90l-25 65q7 2 63 36l123 78q152 98 219 144z" />
    <glyph glyph-name="Abreve" unicode="&#x102;" 
d="M875 35q129 11 207 28l-173 497q-31 83 -42 104q-65 0 -235 -9l-142 -9q-69 -5 -96 -9l-25 -80q-21 -74 -44 -158q-27 -102 -45 -183q-22 -98 -30 -153q35 -9 86 -17q36 -5 91 -11l8 -43l-156 5l-153 3q-144 0 -238 -8l6 43q88 9 176 28q26 45 107 248l249 647l154 414
q-29 8 -79 16l-83 11l-2 43l143 -6l124 -2l185 2l165 6l-6 -43q-96 -11 -156 -27q17 -62 88 -266q60 -176 127 -361l25 -67q15 -41 30 -80q37 -100 71 -185l77 -189q43 -97 76 -161l89 -15l91 -13l6 -43q-9 1 -48 3l-91 2q-113 3 -201 3l-175 -3l-102 -2q-50 -2 -69 -3z
M853 725q-15 43 -47 137l-162 475h-4l-157 -431l-27 -76q-27 -74 -33 -97zM1000 1747q-45 -74 -108 -121q-89 -65 -199 -65q-105 0 -186 64q-62 49 -95 122l39 33q78 -99 258 -99q93 0 168 35q59 27 88 64z" />
    <glyph glyph-name="abreve" unicode="&#x103;" 
d="M875 35q129 11 207 28l-173 497q-31 83 -42 104q-65 0 -235 -9l-142 -9q-69 -5 -96 -9l-25 -80q-21 -74 -44 -158q-27 -102 -45 -183q-22 -98 -30 -153q35 -9 86 -17q36 -5 91 -11l8 -43l-156 5l-153 3q-144 0 -238 -8l6 43q88 9 176 28q26 45 107 248l249 647l154 414
q-29 8 -79 16l-83 11l-2 43l143 -6l124 -2l185 2l165 6l-6 -43q-96 -11 -156 -27q17 -62 88 -266q60 -176 127 -361l25 -67q15 -41 30 -80q37 -100 71 -185l77 -189q43 -97 76 -161l89 -15l91 -13l6 -43q-9 1 -48 3l-91 2q-113 3 -201 3l-175 -3l-102 -2q-50 -2 -69 -3z
M853 725q-15 43 -47 137l-162 475h-4l-157 -431l-27 -76q-27 -74 -33 -97zM1000 1747q-45 -74 -108 -121q-89 -65 -199 -65q-105 0 -186 64q-62 49 -95 122l39 33q78 -99 258 -99q93 0 168 35q59 27 88 64z" />
    <glyph glyph-name="Ccaron" unicode="&#x10c;" horiz-adv-x="1274" 
 />
    <glyph glyph-name="ccaron" unicode="&#x10d;" horiz-adv-x="922" 
 />
    <glyph glyph-name="Dslash" unicode="&#x110;" horiz-adv-x="1925" 
d="M952 705q-260 9 -385 12v-39q0 -105 4 -296l5 -166l5 -103q54 -19 135 -30q60 -7 101 -7q302 0 514 165q112 88 173 210q67 133 67 297q0 136 -51 249q-57 128 -175 220q-109 84 -262 119q-133 30 -338 30q-110 0 -164 -10q-2 -10 -5 -76q-2 -59 -4 -150q-5 -194 -5 -307
v-37h80q57 1 105 2q136 3 223 15zM133 788q45 -3 104 -3l97 1l-1 189l-7 311q-3 70 -7 84q-97 19 -217 29l-4 43q11 -2 54 -3l98 -3q122 -2 213 -2l446 8q381 0 578 -92q171 -81 257 -216q78 -121 78 -272q0 -361 -265 -599q-141 -126 -342 -194q-217 -73 -492 -73l-625 -4
l8 43q40 2 103 10q78 9 110 18q4 13 7 81l7 348l1 223l-108 -5q-61 -4 -116 -14z" />
    <glyph glyph-name="dcroat" unicode="&#x111;" horiz-adv-x="1925" 
d="M952 705q-260 9 -385 12v-39q0 -105 4 -296l5 -166l5 -103q54 -19 135 -30q60 -7 101 -7q302 0 514 165q112 88 173 210q67 133 67 297q0 136 -51 249q-57 128 -175 220q-109 84 -262 119q-133 30 -338 30q-110 0 -164 -10q-2 -10 -5 -76q-2 -59 -4 -150q-5 -194 -5 -307
v-37h80q57 1 105 2q136 3 223 15zM133 788q45 -3 104 -3l97 1l-1 189l-7 311q-3 70 -7 84q-97 19 -217 29l-4 43q11 -2 54 -3l98 -3q122 -2 213 -2l446 8q381 0 578 -92q171 -81 257 -216q78 -121 78 -272q0 -361 -265 -599q-141 -126 -342 -194q-217 -73 -492 -73l-625 -4
l8 43q40 2 103 10q78 9 110 18q4 13 7 81l7 348l1 223l-108 -5q-61 -4 -116 -14z" />
    <glyph glyph-name="Itilde" unicode="&#x128;" horiz-adv-x="901" 
d="M567 505q1 -114 2 -201l3 -159q2 -67 5 -82q33 -7 112 -17l103 -11l11 -43l-162 5q-125 3 -224 3l-162 -3l-157 -5l8 43q96 5 217 28q3 31 5 113l3 177q2 91 2 200l-2 556l-3 160q-2 77 -5 101q-27 6 -108 16l-107 13l-10 43q29 -3 148 -6q121 -2 241 -2q82 0 184 2
q106 3 132 6l-11 -43l-95 -13q-81 -12 -120 -16q-5 -28 -8 -186q-1 -68 -2 -161v-518zM834 1774q-19 -56 -62 -110q-52 -65 -98 -65q-29 0 -74 15q-32 10 -81 31q-118 47 -160 47q-35 0 -60 -13q-35 -17 -61 -61l-57 12q18 54 63 114q54 75 94 75q28 0 68 -14l168 -65
q53 -18 92 -18l23 1q15 1 28 6q35 13 60 57z" />
    <glyph glyph-name="itilde" unicode="&#x129;" horiz-adv-x="901" 
d="M567 505q1 -114 2 -201l3 -159q2 -67 5 -82q33 -7 112 -17l103 -11l11 -43l-162 5q-125 3 -224 3l-162 -3l-157 -5l8 43q96 5 217 28q3 31 5 113l3 177q2 91 2 200l-2 556l-3 160q-2 77 -5 101q-27 6 -108 16l-107 13l-10 43q29 -3 148 -6q121 -2 241 -2q82 0 184 2
q106 3 132 6l-11 -43l-95 -13q-81 -12 -120 -16q-5 -28 -8 -186q-1 -68 -2 -161v-518zM834 1774q-19 -56 -62 -110q-52 -65 -98 -65q-29 0 -74 15q-32 10 -81 31q-118 47 -160 47q-35 0 -60 -13q-35 -17 -61 -61l-57 12q18 54 63 114q54 75 94 75q28 0 68 -14l168 -65
q53 -18 92 -18l23 1q15 1 28 6q35 13 60 57z" />
    <glyph glyph-name="Utilde" unicode="&#x168;" horiz-adv-x="1755" 
d="M268 907q0 145 -3 279q-3 143 -7 184q-52 13 -162 29l-6 43q115 -8 346 -8q201 0 303 8l-10 -43l-47 -6q-31 -3 -56 -6q-67 -9 -110 -17q-4 -24 -7 -182q-3 -144 -3 -289v-272q0 -306 120 -454q103 -128 285 -128q191 0 295 98q78 74 110 213q27 117 27 318l-2 441
l-3 156q-2 76 -5 99q-118 21 -223 29l-14 43q102 -8 331 -8q181 0 250 8l-12 -43l-143 -29q-3 -11 -5 -59l-3 -103l-2 -341q0 -22 1 -65l2 -124q0 -189 -41 -318q-48 -151 -159 -249q-77 -68 -174 -104q-110 -40 -254 -40q-307 0 -469 176q-150 163 -150 445v319zM1296 1774
q-19 -56 -62 -110q-52 -65 -97 -65q-30 0 -74 15q-33 10 -82 31q-118 47 -160 47q-35 0 -60 -13q-34 -17 -61 -61l-57 12q18 54 63 114q54 75 95 75q27 0 67 -14l168 -65q54 -18 92 -18l23 1q15 1 28 6q35 13 60 57z" />
    <glyph glyph-name="utilde" unicode="&#x169;" horiz-adv-x="1755" 
d="M268 907q0 145 -3 279q-3 143 -7 184q-52 13 -162 29l-6 43q115 -8 346 -8q201 0 303 8l-10 -43l-47 -6q-31 -3 -56 -6q-67 -9 -110 -17q-4 -24 -7 -182q-3 -144 -3 -289v-272q0 -306 120 -454q103 -128 285 -128q191 0 295 98q78 74 110 213q27 117 27 318l-2 441
l-3 156q-2 76 -5 99q-118 21 -223 29l-14 43q102 -8 331 -8q181 0 250 8l-12 -43l-143 -29q-3 -11 -5 -59l-3 -103l-2 -341q0 -22 1 -65l2 -124q0 -189 -41 -318q-48 -151 -159 -249q-77 -68 -174 -104q-110 -40 -254 -40q-307 0 -469 176q-150 163 -150 445v319zM1296 1774
q-19 -56 -62 -110q-52 -65 -97 -65q-30 0 -74 15q-33 10 -82 31q-118 47 -160 47q-35 0 -60 -13q-34 -17 -61 -61l-57 12q18 54 63 114q54 75 95 75q27 0 67 -14l168 -65q54 -18 92 -18l23 1q15 1 28 6q35 13 60 57z" />
    <glyph glyph-name="Ohorn" unicode="&#x1a0;" horiz-adv-x="1939" 
d="M1419 224q157 174 157 419q0 319 -193 536q-187 210 -448 210q-235 0 -399 -147q-89 -79 -136 -190q-53 -122 -53 -274q0 -284 198 -501q205 -226 496 -226q221 0 378 173zM1646 1243q180 -173 180 -450q0 -371 -254 -601q-247 -225 -631 -225q-86 0 -159 9
q-88 10 -163 33q-181 55 -311 188q-108 111 -154 233q-42 112 -42 262q0 319 237 539q120 111 283 171q173 64 379 64q173 0 298 -33q142 -39 269 -133q14 -10 26 -20q74 135 57 213l-86 24l52 174l203 -44q-17 -65 -34 -114q-19 -59 -41 -109q-43 -95 -109 -181z" />
    <glyph glyph-name="ohorn" unicode="&#x1a1;" horiz-adv-x="1939" 
d="M1419 224q157 174 157 419q0 319 -193 536q-187 210 -448 210q-235 0 -399 -147q-89 -79 -136 -190q-53 -122 -53 -274q0 -284 198 -501q205 -226 496 -226q221 0 378 173zM1646 1243q180 -173 180 -450q0 -371 -254 -601q-247 -225 -631 -225q-86 0 -159 9
q-88 10 -163 33q-181 55 -311 188q-108 111 -154 233q-42 112 -42 262q0 319 237 539q120 111 283 171q173 64 379 64q173 0 298 -33q142 -39 269 -133q14 -10 26 -20q74 135 57 213l-86 24l52 174l203 -44q-17 -65 -34 -114q-19 -59 -41 -109q-43 -95 -109 -181z" />
    <glyph glyph-name="Uhorn" unicode="&#x1af;" horiz-adv-x="1755" 
d="M1514 1215v-7l-2 -341q0 -22 1 -65l3 -124q0 -189 -42 -318q-48 -151 -159 -249q-76 -68 -173 -104q-111 -40 -255 -40q-306 0 -468 176q-151 163 -151 445v319q0 145 -3 279q-3 143 -7 184q-52 13 -162 29l-6 43q115 -8 346 -8q201 0 303 8l-10 -43l-47 -6
q-30 -3 -56 -6q-67 -9 -110 -17q-4 -24 -7 -182q-3 -144 -3 -289v-272q0 -306 120 -454q103 -128 285 -128q191 0 295 98q78 74 110 213q27 117 27 318l-2 441l-3 156q-2 76 -5 99q-118 21 -223 29l-14 43q102 -8 331 -8q56 0 101 1l-6 -65q-2 -11 -5 -59l-1 -40
q79 141 61 222l-86 24l52 174l203 -44q-17 -65 -34 -114q-19 -59 -41 -109q-51 -113 -134 -213z" />
    <glyph glyph-name="uhorn" unicode="&#x1b0;" horiz-adv-x="1755" 
d="M1514 1215v-7l-2 -341q0 -22 1 -65l3 -124q0 -189 -42 -318q-48 -151 -159 -249q-76 -68 -173 -104q-111 -40 -255 -40q-306 0 -468 176q-151 163 -151 445v319q0 145 -3 279q-3 143 -7 184q-52 13 -162 29l-6 43q115 -8 346 -8q201 0 303 8l-10 -43l-47 -6
q-30 -3 -56 -6q-67 -9 -110 -17q-4 -24 -7 -182q-3 -144 -3 -289v-272q0 -306 120 -454q103 -128 285 -128q191 0 295 98q78 74 110 213q27 117 27 318l-2 441l-3 156q-2 76 -5 99q-118 21 -223 29l-14 43q102 -8 331 -8q56 0 101 1l-6 -65q-2 -11 -5 -59l-1 -40
q79 141 61 222l-86 24l52 174l203 -44q-17 -65 -34 -114q-19 -59 -41 -109q-51 -113 -134 -213z" />
    <glyph glyph-name="uni1EA0" unicode="&#x1ea0;" 
d="M875 35q129 11 207 28l-173 497q-31 83 -42 104q-65 0 -235 -9l-142 -9q-69 -5 -96 -9l-25 -80q-21 -74 -44 -158q-27 -102 -45 -183q-22 -98 -30 -153q35 -9 86 -17q36 -5 91 -11l8 -43l-156 5l-153 3q-144 0 -238 -8l6 43q88 9 176 28q26 45 107 248l249 647l154 414
q-29 8 -79 16l-83 11l-2 43l143 -6l124 -2l185 2l165 6l-6 -43q-96 -11 -156 -27q17 -62 88 -266q60 -176 127 -361l25 -67q15 -41 30 -80q37 -100 71 -185l77 -189q43 -97 76 -161l89 -15l91 -13l6 -43q-9 1 -48 3l-91 2q-113 3 -201 3l-175 -3l-102 -2q-50 -2 -69 -3z
M853 725q-15 43 -47 137l-162 475h-4l-157 -431l-27 -76q-27 -74 -33 -97zM627 -123l158 -106l-103 -158l-153 104z" />
    <glyph glyph-name="uni1EA1" unicode="&#x1ea1;" 
d="M875 35q129 11 207 28l-173 497q-31 83 -42 104q-65 0 -235 -9l-142 -9q-69 -5 -96 -9l-25 -80q-21 -74 -44 -158q-27 -102 -45 -183q-22 -98 -30 -153q35 -9 86 -17q36 -5 91 -11l8 -43l-156 5l-153 3q-144 0 -238 -8l6 43q88 9 176 28q26 45 107 248l249 647l154 414
q-29 8 -79 16l-83 11l-2 43l143 -6l124 -2l185 2l165 6l-6 -43q-96 -11 -156 -27q17 -62 88 -266q60 -176 127 -361l25 -67q15 -41 30 -80q37 -100 71 -185l77 -189q43 -97 76 -161l89 -15l91 -13l6 -43q-9 1 -48 3l-91 2q-113 3 -201 3l-175 -3l-102 -2q-50 -2 -69 -3z
M853 725q-15 43 -47 137l-162 475h-4l-157 -431l-27 -76q-27 -74 -33 -97zM627 -123l158 -106l-103 -158l-153 104z" />
    <glyph glyph-name="uni1EA2" unicode="&#x1ea2;" 
d="M875 35q129 11 207 28l-173 497q-31 83 -42 104q-65 0 -235 -9l-142 -9q-69 -5 -96 -9l-25 -80q-21 -74 -44 -158q-27 -102 -45 -183q-22 -98 -30 -153q35 -9 86 -17q36 -5 91 -11l8 -43l-156 5l-153 3q-144 0 -238 -8l6 43q88 9 176 28q26 45 107 248l249 647l154 414
q-29 8 -79 16l-83 11l-2 43l143 -6l124 -2l185 2l165 6l-6 -43q-96 -11 -156 -27q17 -62 88 -266q60 -176 127 -361l25 -67q15 -41 30 -80q37 -100 71 -185l77 -189q43 -97 76 -161l89 -15l91 -13l6 -43q-9 1 -48 3l-91 2q-113 3 -201 3l-175 -3l-102 -2q-50 -2 -69 -3z
M853 725q-15 43 -47 137l-162 475h-4l-157 -431l-27 -76q-27 -74 -33 -97zM679 1535q-1 4 -1 7l-2 15q-4 19 -7 45l23 10q7 3 12 6q13 5 22 10q22 12 49 32q40 30 54 66q5 15 7 31q2 12 2 29q0 39 -24 70q-28 37 -75 37q-39 0 -70 -20q-24 -15 -36 -34q-9 -22 -19 -85
l-48 -15q9 79 13 155q1 20 3 56l38 -18q59 18 124 18q111 0 171 -39q57 -38 57 -98q0 -54 -39 -104q-14 -19 -35 -37q-14 -13 -34 -29q-20 -15 -45 -29l-20 -10l-41 -21q-5 -9 -13 -50l-2 -9l-59 -17z" />
    <glyph glyph-name="uni1EA3" unicode="&#x1ea3;" 
d="M875 35q129 11 207 28l-173 497q-31 83 -42 104q-65 0 -235 -9l-142 -9q-69 -5 -96 -9l-25 -80q-21 -74 -44 -158q-27 -102 -45 -183q-22 -98 -30 -153q35 -9 86 -17q36 -5 91 -11l8 -43l-156 5l-153 3q-144 0 -238 -8l6 43q88 9 176 28q26 45 107 248l249 647l154 414
q-29 8 -79 16l-83 11l-2 43l143 -6l124 -2l185 2l165 6l-6 -43q-96 -11 -156 -27q17 -62 88 -266q60 -176 127 -361l25 -67q15 -41 30 -80q37 -100 71 -185l77 -189q43 -97 76 -161l89 -15l91 -13l6 -43q-9 1 -48 3l-91 2q-113 3 -201 3l-175 -3l-102 -2q-50 -2 -69 -3z
M853 725q-15 43 -47 137l-162 475h-4l-157 -431l-27 -76q-27 -74 -33 -97zM679 1535q-1 4 -1 7l-2 15q-4 19 -7 45l23 10q7 3 12 6q13 5 22 10q22 12 49 32q40 30 54 66q5 15 7 31q2 12 2 29q0 39 -24 70q-28 37 -75 37q-39 0 -70 -20q-24 -15 -36 -34q-9 -22 -19 -85
l-48 -15q9 79 13 155q1 20 3 56l38 -18q59 18 124 18q111 0 171 -39q57 -38 57 -98q0 -54 -39 -104q-14 -19 -35 -37q-14 -13 -34 -29q-20 -15 -45 -29l-20 -10l-41 -21q-5 -9 -13 -50l-2 -9l-59 -17z" />
    <glyph glyph-name="uni1EA4" unicode="&#x1ea4;" 
d="M875 35q129 11 207 28l-173 497q-31 83 -42 104q-65 0 -235 -9l-142 -9q-69 -5 -96 -9l-25 -80q-21 -74 -44 -158q-27 -102 -45 -183q-22 -98 -30 -153q35 -9 86 -17q36 -5 91 -11l8 -43l-156 5l-153 3q-144 0 -238 -8l6 43q88 9 176 28q26 45 107 248l249 647l154 414
q-29 8 -79 16l-83 11l-2 43l143 -6l124 -2l185 2l165 6l-6 -43q-96 -11 -156 -27q17 -62 88 -266q60 -176 127 -361l25 -67q15 -41 30 -80q37 -100 71 -185l77 -189q43 -97 76 -161l89 -15l91 -13l6 -43q-9 1 -48 3l-91 2q-113 3 -201 3l-175 -3l-102 -2q-50 -2 -69 -3z
M853 725q-15 43 -47 137l-162 475h-4l-157 -431l-27 -76q-27 -74 -33 -97zM1012 2006q-15 1 -86 -22q-58 -19 -148 -54q-182 -69 -224 -90l-25 65q7 2 63 36l123 78q152 98 219 144zM459 1628q41 36 134 125l77 74q37 37 49 51l231 -206q36 -31 49 -42l-38 -49l-246 135
q-34 -15 -118 -68q-73 -47 -99 -67z" />
    <glyph glyph-name="uni1EA5" unicode="&#x1ea5;" 
d="M875 35q129 11 207 28l-173 497q-31 83 -42 104q-65 0 -235 -9l-142 -9q-69 -5 -96 -9l-25 -80q-21 -74 -44 -158q-27 -102 -45 -183q-22 -98 -30 -153q35 -9 86 -17q36 -5 91 -11l8 -43l-156 5l-153 3q-144 0 -238 -8l6 43q88 9 176 28q26 45 107 248l249 647l154 414
q-29 8 -79 16l-83 11l-2 43l143 -6l124 -2l185 2l165 6l-6 -43q-96 -11 -156 -27q17 -62 88 -266q60 -176 127 -361l25 -67q15 -41 30 -80q37 -100 71 -185l77 -189q43 -97 76 -161l89 -15l91 -13l6 -43q-9 1 -48 3l-91 2q-113 3 -201 3l-175 -3l-102 -2q-50 -2 -69 -3z
M853 725q-15 43 -47 137l-162 475h-4l-157 -431l-27 -76q-27 -74 -33 -97zM1012 2006q-15 1 -86 -22q-58 -19 -148 -54q-182 -69 -224 -90l-25 65q7 2 63 36l123 78q152 98 219 144zM459 1628q41 36 134 125l77 74q37 37 49 51l231 -206q36 -31 49 -42l-38 -49l-246 135
q-34 -15 -118 -68q-73 -47 -99 -67z" />
    <glyph glyph-name="uni1EA6" unicode="&#x1ea6;" 
d="M875 35q129 11 207 28l-173 497q-31 83 -42 104q-65 0 -235 -9l-142 -9q-69 -5 -96 -9l-25 -80q-21 -74 -44 -158q-27 -102 -45 -183q-22 -98 -30 -153q35 -9 86 -17q36 -5 91 -11l8 -43l-156 5l-153 3q-144 0 -238 -8l6 43q88 9 176 28q26 45 107 248l249 647l154 414
q-29 8 -79 16l-83 11l-2 43l143 -6l124 -2l185 2l165 6l-6 -43q-96 -11 -156 -27q17 -62 88 -266q60 -176 127 -361l25 -67q15 -41 30 -80q37 -100 71 -185l77 -189q43 -97 76 -161l89 -15l91 -13l6 -43q-9 1 -48 3l-91 2q-113 3 -201 3l-175 -3l-102 -2q-50 -2 -69 -3z
M853 725q-15 43 -47 137l-162 475h-4l-157 -431l-27 -76q-27 -74 -33 -97zM552 2153q67 -46 220 -144l123 -78q55 -34 63 -36l-25 -65q-51 24 -227 90q-90 35 -148 54q-70 23 -86 22zM459 1628q41 36 134 125l77 74q37 37 49 51l231 -206q36 -31 49 -42l-38 -49l-246 135
q-34 -15 -118 -68q-73 -47 -99 -67z" />
    <glyph glyph-name="uni1EA7" unicode="&#x1ea7;" 
d="M875 35q129 11 207 28l-173 497q-31 83 -42 104q-65 0 -235 -9l-142 -9q-69 -5 -96 -9l-25 -80q-21 -74 -44 -158q-27 -102 -45 -183q-22 -98 -30 -153q35 -9 86 -17q36 -5 91 -11l8 -43l-156 5l-153 3q-144 0 -238 -8l6 43q88 9 176 28q26 45 107 248l249 647l154 414
q-29 8 -79 16l-83 11l-2 43l143 -6l124 -2l185 2l165 6l-6 -43q-96 -11 -156 -27q17 -62 88 -266q60 -176 127 -361l25 -67q15 -41 30 -80q37 -100 71 -185l77 -189q43 -97 76 -161l89 -15l91 -13l6 -43q-9 1 -48 3l-91 2q-113 3 -201 3l-175 -3l-102 -2q-50 -2 -69 -3z
M853 725q-15 43 -47 137l-162 475h-4l-157 -431l-27 -76q-27 -74 -33 -97zM552 2153q67 -46 220 -144l123 -78q55 -34 63 -36l-25 -65q-51 24 -227 90q-90 35 -148 54q-70 23 -86 22zM459 1628q41 36 134 125l77 74q37 37 49 51l231 -206q36 -31 49 -42l-38 -49l-246 135
q-34 -15 -118 -68q-73 -47 -99 -67z" />
    <glyph glyph-name="uni1EA8" unicode="&#x1ea8;" 
d="M875 35q129 11 207 28l-173 497q-31 83 -42 104q-65 0 -235 -9l-142 -9q-69 -5 -96 -9l-25 -80q-21 -74 -44 -158q-27 -102 -45 -183q-22 -98 -30 -153q35 -9 86 -17q36 -5 91 -11l8 -43l-156 5l-153 3q-144 0 -238 -8l6 43q88 9 176 28q26 45 107 248l249 647l154 414
q-29 8 -79 16l-83 11l-2 43l143 -6l124 -2l185 2l165 6l-6 -43q-96 -11 -156 -27q17 -62 88 -266q60 -176 127 -361l25 -67q15 -41 30 -80q37 -100 71 -185l77 -189q43 -97 76 -161l89 -15l91 -13l6 -43q-9 1 -48 3l-91 2q-113 3 -201 3l-175 -3l-102 -2q-50 -2 -69 -3z
M853 725q-15 43 -47 137l-162 475h-4l-157 -431l-27 -76q-27 -74 -33 -97zM900 1848q-1 4 -1 7l-2 15q-4 19 -7 45l23 10q7 3 12 6q13 5 22 10q22 12 49 32q40 30 54 66q5 15 7 31q2 12 2 29q0 39 -24 70q-28 37 -75 37q-39 0 -70 -20q-24 -15 -36 -34q-9 -22 -19 -85
l-48 -15q9 79 13 155q1 20 3 56l38 -18q59 18 124 18q111 0 171 -39q57 -38 57 -98q0 -54 -39 -104q-14 -19 -35 -37q-14 -13 -34 -29q-20 -15 -45 -29l-20 -10l-41 -21q-5 -9 -13 -50l-2 -9l-59 -17zM459 1628q41 36 134 125l77 74q37 37 49 51l231 -206q36 -31 49 -42
l-38 -49l-246 135q-34 -15 -118 -68q-73 -47 -99 -67z" />
    <glyph glyph-name="uni1EA9" unicode="&#x1ea9;" 
d="M875 35q129 11 207 28l-173 497q-31 83 -42 104q-65 0 -235 -9l-142 -9q-69 -5 -96 -9l-25 -80q-21 -74 -44 -158q-27 -102 -45 -183q-22 -98 -30 -153q35 -9 86 -17q36 -5 91 -11l8 -43l-156 5l-153 3q-144 0 -238 -8l6 43q88 9 176 28q26 45 107 248l249 647l154 414
q-29 8 -79 16l-83 11l-2 43l143 -6l124 -2l185 2l165 6l-6 -43q-96 -11 -156 -27q17 -62 88 -266q60 -176 127 -361l25 -67q15 -41 30 -80q37 -100 71 -185l77 -189q43 -97 76 -161l89 -15l91 -13l6 -43q-9 1 -48 3l-91 2q-113 3 -201 3l-175 -3l-102 -2q-50 -2 -69 -3z
M853 725q-15 43 -47 137l-162 475h-4l-157 -431l-27 -76q-27 -74 -33 -97zM900 1848q-1 4 -1 7l-2 15q-4 19 -7 45l23 10q7 3 12 6q13 5 22 10q22 12 49 32q40 30 54 66q5 15 7 31q2 12 2 29q0 39 -24 70q-28 37 -75 37q-39 0 -70 -20q-24 -15 -36 -34q-9 -22 -19 -85
l-48 -15q9 79 13 155q1 20 3 56l38 -18q59 18 124 18q111 0 171 -39q57 -38 57 -98q0 -54 -39 -104q-14 -19 -35 -37q-14 -13 -34 -29q-20 -15 -45 -29l-20 -10l-41 -21q-5 -9 -13 -50l-2 -9l-59 -17zM459 1628q41 36 134 125l77 74q37 37 49 51l231 -206q36 -31 49 -42
l-38 -49l-246 135q-34 -15 -118 -68q-73 -47 -99 -67z" />
    <glyph glyph-name="uni1EAA" unicode="&#x1eaa;" 
d="M875 35q129 11 207 28l-173 497q-31 83 -42 104q-65 0 -235 -9l-142 -9q-69 -5 -96 -9l-25 -80q-21 -74 -44 -158q-27 -102 -45 -183q-22 -98 -30 -153q35 -9 86 -17q36 -5 91 -11l8 -43l-156 5l-153 3q-144 0 -238 -8l6 43q88 9 176 28q26 45 107 248l249 647l154 414
q-29 8 -79 16l-83 11l-2 43l143 -6l124 -2l185 2l165 6l-6 -43q-96 -11 -156 -27q17 -62 88 -266q60 -176 127 -361l25 -67q15 -41 30 -80q37 -100 71 -185l77 -189q43 -97 76 -161l89 -15l91 -13l6 -43q-9 1 -48 3l-91 2q-113 3 -201 3l-175 -3l-102 -2q-50 -2 -69 -3z
M853 725q-15 43 -47 137l-162 475h-4l-157 -431l-27 -76q-27 -74 -33 -97zM1138 2026q-19 -56 -62 -110q-52 -65 -97 -65q-30 0 -74 15q-33 10 -82 31q-118 47 -160 47q-34 0 -59 -13q-35 -17 -62 -61l-57 12q19 54 63 114q54 75 95 75q27 0 67 -14l169 -65q53 -18 91 -18
l24 1q15 1 27 6q35 13 60 57zM459 1628q41 36 134 125l77 74q37 37 49 51l231 -206q36 -31 49 -42l-38 -49l-246 135q-34 -15 -118 -68q-73 -47 -99 -67z" />
    <glyph glyph-name="uni1EAB" unicode="&#x1eab;" 
d="M875 35q129 11 207 28l-173 497q-31 83 -42 104q-65 0 -235 -9l-142 -9q-69 -5 -96 -9l-25 -80q-21 -74 -44 -158q-27 -102 -45 -183q-22 -98 -30 -153q35 -9 86 -17q36 -5 91 -11l8 -43l-156 5l-153 3q-144 0 -238 -8l6 43q88 9 176 28q26 45 107 248l249 647l154 414
q-29 8 -79 16l-83 11l-2 43l143 -6l124 -2l185 2l165 6l-6 -43q-96 -11 -156 -27q17 -62 88 -266q60 -176 127 -361l25 -67q15 -41 30 -80q37 -100 71 -185l77 -189q43 -97 76 -161l89 -15l91 -13l6 -43q-9 1 -48 3l-91 2q-113 3 -201 3l-175 -3l-102 -2q-50 -2 -69 -3z
M853 725q-15 43 -47 137l-162 475h-4l-157 -431l-27 -76q-27 -74 -33 -97zM1138 2026q-19 -56 -62 -110q-52 -65 -97 -65q-30 0 -74 15q-33 10 -82 31q-118 47 -160 47q-34 0 -59 -13q-35 -17 -62 -61l-57 12q19 54 63 114q54 75 95 75q27 0 67 -14l169 -65q53 -18 91 -18
l24 1q15 1 27 6q35 13 60 57zM459 1628q41 36 134 125l77 74q37 37 49 51l231 -206q36 -31 49 -42l-38 -49l-246 135q-34 -15 -118 -68q-73 -47 -99 -67z" />
    <glyph glyph-name="uni1EAC" unicode="&#x1eac;" 
d="M875 35q129 11 207 28l-173 497q-31 83 -42 104q-65 0 -235 -9l-142 -9q-69 -5 -96 -9l-25 -80q-21 -74 -44 -158q-27 -102 -45 -183q-22 -98 -30 -153q35 -9 86 -17q36 -5 91 -11l8 -43l-156 5l-153 3q-144 0 -238 -8l6 43q88 9 176 28q26 45 107 248l249 647l154 414
q-29 8 -79 16l-83 11l-2 43l143 -6l124 -2l185 2l165 6l-6 -43q-96 -11 -156 -27q17 -62 88 -266q60 -176 127 -361l25 -67q15 -41 30 -80q37 -100 71 -185l77 -189q43 -97 76 -161l89 -15l91 -13l6 -43q-9 1 -48 3l-91 2q-113 3 -201 3l-175 -3l-102 -2q-50 -2 -69 -3z
M853 725q-15 43 -47 137l-162 475h-4l-157 -431l-27 -76q-27 -74 -33 -97zM627 -123l158 -106l-103 -158l-153 104zM459 1628q41 36 134 125l77 74q37 37 49 51l231 -206q36 -31 49 -42l-38 -49l-246 135q-34 -15 -118 -68q-73 -47 -99 -67z" />
    <glyph glyph-name="uni1EAD" unicode="&#x1ead;" 
d="M875 35q129 11 207 28l-173 497q-31 83 -42 104q-65 0 -235 -9l-142 -9q-69 -5 -96 -9l-25 -80q-21 -74 -44 -158q-27 -102 -45 -183q-22 -98 -30 -153q35 -9 86 -17q36 -5 91 -11l8 -43l-156 5l-153 3q-144 0 -238 -8l6 43q88 9 176 28q26 45 107 248l249 647l154 414
q-29 8 -79 16l-83 11l-2 43l143 -6l124 -2l185 2l165 6l-6 -43q-96 -11 -156 -27q17 -62 88 -266q60 -176 127 -361l25 -67q15 -41 30 -80q37 -100 71 -185l77 -189q43 -97 76 -161l89 -15l91 -13l6 -43q-9 1 -48 3l-91 2q-113 3 -201 3l-175 -3l-102 -2q-50 -2 -69 -3z
M853 725q-15 43 -47 137l-162 475h-4l-157 -431l-27 -76q-27 -74 -33 -97zM627 -123l158 -106l-103 -158l-153 104zM459 1628q41 36 134 125l77 74q37 37 49 51l231 -206q36 -31 49 -42l-38 -49l-246 135q-34 -15 -118 -68q-73 -47 -99 -67z" />
    <glyph glyph-name="uni1EAE" unicode="&#x1eae;" 
d="M875 35q129 11 207 28l-173 497q-31 83 -42 104q-65 0 -235 -9l-142 -9q-69 -5 -96 -9l-25 -80q-21 -74 -44 -158q-27 -102 -45 -183q-22 -98 -30 -153q35 -9 86 -17q36 -5 91 -11l8 -43l-156 5l-153 3q-144 0 -238 -8l6 43q88 9 176 28q26 45 107 248l249 647l154 414
q-29 8 -79 16l-83 11l-2 43l143 -6l124 -2l185 2l165 6l-6 -43q-96 -11 -156 -27q17 -62 88 -266q60 -176 127 -361l25 -67q15 -41 30 -80q37 -100 71 -185l77 -189q43 -97 76 -161l89 -15l91 -13l6 -43q-9 1 -48 3l-91 2q-113 3 -201 3l-175 -3l-102 -2q-50 -2 -69 -3z
M853 725q-15 43 -47 137l-162 475h-4l-157 -431l-27 -76q-27 -74 -33 -97zM1021 1925q-15 1 -86 -22q-58 -19 -148 -54q-182 -69 -224 -90l-25 65q7 2 63 36l123 78q152 98 219 144zM999 1747q-45 -74 -108 -121q-88 -65 -199 -65q-105 0 -185 64q-63 49 -95 122l39 33
q77 -99 258 -99q92 0 168 35q59 27 88 64z" />
    <glyph glyph-name="uni1EAF" unicode="&#x1eaf;" 
d="M875 35q129 11 207 28l-173 497q-31 83 -42 104q-65 0 -235 -9l-142 -9q-69 -5 -96 -9l-25 -80q-21 -74 -44 -158q-27 -102 -45 -183q-22 -98 -30 -153q35 -9 86 -17q36 -5 91 -11l8 -43l-156 5l-153 3q-144 0 -238 -8l6 43q88 9 176 28q26 45 107 248l249 647l154 414
q-29 8 -79 16l-83 11l-2 43l143 -6l124 -2l185 2l165 6l-6 -43q-96 -11 -156 -27q17 -62 88 -266q60 -176 127 -361l25 -67q15 -41 30 -80q37 -100 71 -185l77 -189q43 -97 76 -161l89 -15l91 -13l6 -43q-9 1 -48 3l-91 2q-113 3 -201 3l-175 -3l-102 -2q-50 -2 -69 -3z
M853 725q-15 43 -47 137l-162 475h-4l-157 -431l-27 -76q-27 -74 -33 -97zM1021 1925q-15 1 -86 -22q-58 -19 -148 -54q-182 -69 -224 -90l-25 65q7 2 63 36l123 78q152 98 219 144zM999 1747q-45 -74 -108 -121q-88 -65 -199 -65q-105 0 -185 64q-63 49 -95 122l39 33
q77 -99 258 -99q92 0 168 35q59 27 88 64z" />
    <glyph glyph-name="uni1EB0" unicode="&#x1eb0;" 
d="M875 35q129 11 207 28l-173 497q-31 83 -42 104q-65 0 -235 -9l-142 -9q-69 -5 -96 -9l-25 -80q-21 -74 -44 -158q-27 -102 -45 -183q-22 -98 -30 -153q35 -9 86 -17q36 -5 91 -11l8 -43l-156 5l-153 3q-144 0 -238 -8l6 43q88 9 176 28q26 45 107 248l249 647l154 414
q-29 8 -79 16l-83 11l-2 43l143 -6l124 -2l185 2l165 6l-6 -43q-96 -11 -156 -27q17 -62 88 -266q60 -176 127 -361l25 -67q15 -41 30 -80q37 -100 71 -185l77 -189q43 -97 76 -161l89 -15l91 -13l6 -43q-9 1 -48 3l-91 2q-113 3 -201 3l-175 -3l-102 -2q-50 -2 -69 -3z
M853 725q-15 43 -47 137l-162 475h-4l-157 -431l-27 -76q-27 -74 -33 -97zM498 2099q67 -46 220 -144l123 -78q55 -34 63 -36l-25 -65q-51 24 -227 90q-90 35 -148 54q-70 23 -86 22zM999 1747q-45 -74 -108 -121q-88 -65 -199 -65q-105 0 -185 64q-63 49 -95 122l39 33
q77 -99 258 -99q92 0 168 35q59 27 88 64z" />
    <glyph glyph-name="uni1EB1" unicode="&#x1eb1;" 
d="M875 35q129 11 207 28l-173 497q-31 83 -42 104q-65 0 -235 -9l-142 -9q-69 -5 -96 -9l-25 -80q-21 -74 -44 -158q-27 -102 -45 -183q-22 -98 -30 -153q35 -9 86 -17q36 -5 91 -11l8 -43l-156 5l-153 3q-144 0 -238 -8l6 43q88 9 176 28q26 45 107 248l249 647l154 414
q-29 8 -79 16l-83 11l-2 43l143 -6l124 -2l185 2l165 6l-6 -43q-96 -11 -156 -27q17 -62 88 -266q60 -176 127 -361l25 -67q15 -41 30 -80q37 -100 71 -185l77 -189q43 -97 76 -161l89 -15l91 -13l6 -43q-9 1 -48 3l-91 2q-113 3 -201 3l-175 -3l-102 -2q-50 -2 -69 -3z
M853 725q-15 43 -47 137l-162 475h-4l-157 -431l-27 -76q-27 -74 -33 -97zM498 2099q67 -46 220 -144l123 -78q55 -34 63 -36l-25 -65q-51 24 -227 90q-90 35 -148 54q-70 23 -86 22zM999 1747q-45 -74 -108 -121q-88 -65 -199 -65q-105 0 -185 64q-63 49 -95 122l39 33
q77 -99 258 -99q92 0 168 35q59 27 88 64z" />
    <glyph glyph-name="uni1EB2" unicode="&#x1eb2;" 
d="M875 35q129 11 207 28l-173 497q-31 83 -42 104q-65 0 -235 -9l-142 -9q-69 -5 -96 -9l-25 -80q-21 -74 -44 -158q-27 -102 -45 -183q-22 -98 -30 -153q35 -9 86 -17q36 -5 91 -11l8 -43l-156 5l-153 3q-144 0 -238 -8l6 43q88 9 176 28q26 45 107 248l249 647l154 414
q-29 8 -79 16l-83 11l-2 43l143 -6l124 -2l185 2l165 6l-6 -43q-96 -11 -156 -27q17 -62 88 -266q60 -176 127 -361l25 -67q15 -41 30 -80q37 -100 71 -185l77 -189q43 -97 76 -161l89 -15l91 -13l6 -43q-9 1 -48 3l-91 2q-113 3 -201 3l-175 -3l-102 -2q-50 -2 -69 -3z
M853 725q-15 43 -47 137l-162 475h-4l-157 -431l-27 -76q-27 -74 -33 -97zM677 1776q-1 4 -1 7l-2 15q-4 19 -7 45l23 10q7 3 12 6q13 5 22 10q22 12 49 32q40 30 54 66q5 15 7 31q2 12 2 29q0 39 -24 70q-28 37 -75 37q-39 0 -70 -20q-24 -15 -36 -34q-9 -22 -19 -85
l-48 -15q9 79 13 155q1 20 3 56l38 -18q59 18 124 18q111 0 171 -39q57 -38 57 -98q0 -54 -39 -104q-14 -19 -35 -37q-14 -13 -34 -29q-20 -15 -45 -29l-20 -10l-41 -21q-5 -9 -13 -50l-2 -9l-59 -17zM999 1747q-45 -74 -108 -121q-88 -65 -199 -65q-105 0 -185 64
q-63 49 -95 122l39 33q77 -99 258 -99q92 0 168 35q59 27 88 64z" />
    <glyph glyph-name="uni1EB3" unicode="&#x1eb3;" 
d="M875 35q129 11 207 28l-173 497q-31 83 -42 104q-65 0 -235 -9l-142 -9q-69 -5 -96 -9l-25 -80q-21 -74 -44 -158q-27 -102 -45 -183q-22 -98 -30 -153q35 -9 86 -17q36 -5 91 -11l8 -43l-156 5l-153 3q-144 0 -238 -8l6 43q88 9 176 28q26 45 107 248l249 647l154 414
q-29 8 -79 16l-83 11l-2 43l143 -6l124 -2l185 2l165 6l-6 -43q-96 -11 -156 -27q17 -62 88 -266q60 -176 127 -361l25 -67q15 -41 30 -80q37 -100 71 -185l77 -189q43 -97 76 -161l89 -15l91 -13l6 -43q-9 1 -48 3l-91 2q-113 3 -201 3l-175 -3l-102 -2q-50 -2 -69 -3z
M853 725q-15 43 -47 137l-162 475h-4l-157 -431l-27 -76q-27 -74 -33 -97zM677 1776q-1 4 -1 7l-2 15q-4 19 -7 45l23 10q7 3 12 6q13 5 22 10q22 12 49 32q40 30 54 66q5 15 7 31q2 12 2 29q0 39 -24 70q-28 37 -75 37q-39 0 -70 -20q-24 -15 -36 -34q-9 -22 -19 -85
l-48 -15q9 79 13 155q1 20 3 56l38 -18q59 18 124 18q111 0 171 -39q57 -38 57 -98q0 -54 -39 -104q-14 -19 -35 -37q-14 -13 -34 -29q-20 -15 -45 -29l-20 -10l-41 -21q-5 -9 -13 -50l-2 -9l-59 -17zM999 1747q-45 -74 -108 -121q-88 -65 -199 -65q-105 0 -185 64
q-63 49 -95 122l39 33q77 -99 258 -99q92 0 168 35q59 27 88 64z" />
    <glyph glyph-name="uni1EB4" unicode="&#x1eb4;" 
d="M875 35q129 11 207 28l-173 497q-31 83 -42 104q-65 0 -235 -9l-142 -9q-69 -5 -96 -9l-25 -80q-21 -74 -44 -158q-27 -102 -45 -183q-22 -98 -30 -153q35 -9 86 -17q36 -5 91 -11l8 -43l-156 5l-153 3q-144 0 -238 -8l6 43q88 9 176 28q26 45 107 248l249 647l154 414
q-29 8 -79 16l-83 11l-2 43l143 -6l124 -2l185 2l165 6l-6 -43q-96 -11 -156 -27q17 -62 88 -266q60 -176 127 -361l25 -67q15 -41 30 -80q37 -100 71 -185l77 -189q43 -97 76 -161l89 -15l91 -13l6 -43q-9 1 -48 3l-91 2q-113 3 -201 3l-175 -3l-102 -2q-50 -2 -69 -3z
M853 725q-15 43 -47 137l-162 475h-4l-157 -431l-27 -76q-27 -74 -33 -97zM1103 1990q-19 -56 -62 -110q-52 -65 -97 -65q-30 0 -74 15q-33 10 -82 31q-118 47 -160 47q-34 0 -59 -13q-35 -17 -62 -61l-57 12q19 54 63 114q54 75 95 75q27 0 67 -14l169 -65q53 -18 91 -18
l24 1q15 1 27 6q35 13 60 57zM999 1747q-45 -74 -108 -121q-88 -65 -199 -65q-105 0 -185 64q-63 49 -95 122l39 33q77 -99 258 -99q92 0 168 35q59 27 88 64z" />
    <glyph glyph-name="uni1EB5" unicode="&#x1eb5;" 
d="M875 35q129 11 207 28l-173 497q-31 83 -42 104q-65 0 -235 -9l-142 -9q-69 -5 -96 -9l-25 -80q-21 -74 -44 -158q-27 -102 -45 -183q-22 -98 -30 -153q35 -9 86 -17q36 -5 91 -11l8 -43l-156 5l-153 3q-144 0 -238 -8l6 43q88 9 176 28q26 45 107 248l249 647l154 414
q-29 8 -79 16l-83 11l-2 43l143 -6l124 -2l185 2l165 6l-6 -43q-96 -11 -156 -27q17 -62 88 -266q60 -176 127 -361l25 -67q15 -41 30 -80q37 -100 71 -185l77 -189q43 -97 76 -161l89 -15l91 -13l6 -43q-9 1 -48 3l-91 2q-113 3 -201 3l-175 -3l-102 -2q-50 -2 -69 -3z
M853 725q-15 43 -47 137l-162 475h-4l-157 -431l-27 -76q-27 -74 -33 -97zM1103 1990q-19 -56 -62 -110q-52 -65 -97 -65q-30 0 -74 15q-33 10 -82 31q-118 47 -160 47q-34 0 -59 -13q-35 -17 -62 -61l-57 12q19 54 63 114q54 75 95 75q27 0 67 -14l169 -65q53 -18 91 -18
l24 1q15 1 27 6q35 13 60 57zM999 1747q-45 -74 -108 -121q-88 -65 -199 -65q-105 0 -185 64q-63 49 -95 122l39 33q77 -99 258 -99q92 0 168 35q59 27 88 64z" />
    <glyph glyph-name="uni1EB6" unicode="&#x1eb6;" 
d="M875 35q129 11 207 28l-173 497q-31 83 -42 104q-65 0 -235 -9l-142 -9q-69 -5 -96 -9l-25 -80q-21 -74 -44 -158q-27 -102 -45 -183q-22 -98 -30 -153q35 -9 86 -17q36 -5 91 -11l8 -43l-156 5l-153 3q-144 0 -238 -8l6 43q88 9 176 28q26 45 107 248l249 647l154 414
q-29 8 -79 16l-83 11l-2 43l143 -6l124 -2l185 2l165 6l-6 -43q-96 -11 -156 -27q17 -62 88 -266q60 -176 127 -361l25 -67q15 -41 30 -80q37 -100 71 -185l77 -189q43 -97 76 -161l89 -15l91 -13l6 -43q-9 1 -48 3l-91 2q-113 3 -201 3l-175 -3l-102 -2q-50 -2 -69 -3z
M853 725q-15 43 -47 137l-162 475h-4l-157 -431l-27 -76q-27 -74 -33 -97zM627 -123l158 -106l-103 -158l-153 104zM999 1747q-45 -74 -108 -121q-88 -65 -199 -65q-105 0 -185 64q-63 49 -95 122l39 33q77 -99 258 -99q92 0 168 35q59 27 88 64z" />
    <glyph glyph-name="uni1EB7" unicode="&#x1eb7;" 
d="M875 35q129 11 207 28l-173 497q-31 83 -42 104q-65 0 -235 -9l-142 -9q-69 -5 -96 -9l-25 -80q-21 -74 -44 -158q-27 -102 -45 -183q-22 -98 -30 -153q35 -9 86 -17q36 -5 91 -11l8 -43l-156 5l-153 3q-144 0 -238 -8l6 43q88 9 176 28q26 45 107 248l249 647l154 414
q-29 8 -79 16l-83 11l-2 43l143 -6l124 -2l185 2l165 6l-6 -43q-96 -11 -156 -27q17 -62 88 -266q60 -176 127 -361l25 -67q15 -41 30 -80q37 -100 71 -185l77 -189q43 -97 76 -161l89 -15l91 -13l6 -43q-9 1 -48 3l-91 2q-113 3 -201 3l-175 -3l-102 -2q-50 -2 -69 -3z
M853 725q-15 43 -47 137l-162 475h-4l-157 -431l-27 -76q-27 -74 -33 -97zM627 -123l158 -106l-103 -158l-153 104zM999 1747q-45 -74 -108 -121q-88 -65 -199 -65q-105 0 -185 64q-63 49 -95 122l39 33q77 -99 258 -99q92 0 168 35q59 27 88 64z" />
    <glyph glyph-name="uni1EB8" unicode="&#x1eb8;" horiz-adv-x="1304" 
d="M334 797q0 152 -5 332l-4 151l-6 90q-24 5 -102 15l-111 14l-8 43l184 -6l99 -1q3 0 11 -1h184q105 0 191 1l189 5l70 3q29 2 39 5q10 41 16 96l47 8q-3 -15 -10 -75q-6 -51 -13 -129q-13 -150 -18 -220l-45 15l1 64q0 58 -1 83q-24 40 -203 66q-143 20 -258 20
q-2 -10 -5 -80q-2 -62 -4 -158q-5 -203 -5 -307v-40q134 0 260 9q128 10 164 23q14 42 20 88l43 4l-53 -383l-39 17q4 86 4 137q-45 23 -157 35q-100 10 -242 10v-41q0 -107 5 -340q2 -110 4 -185q3 -85 5 -106q169 0 288 15q138 18 204 55q8 25 15 52q3 12 6 25l24 103
l47 13q-5 -22 -15 -85l-21 -136q-26 -177 -32 -253l-43 9q0 92 -2 125q-10 1 -39 3l-68 4l-188 6q-222 5 -348 5q-151 0 -311 -8l10 43q36 2 97 10q78 9 114 18q3 14 6 84l4 165q5 203 5 390v95zM627 -123l157 -106l-102 -158l-154 104z" />
    <glyph glyph-name="uni1EB9" unicode="&#x1eb9;" horiz-adv-x="1304" 
d="M334 797q0 152 -5 332l-4 151l-6 90q-24 5 -102 15l-111 14l-8 43l184 -6l99 -1q3 0 11 -1h184q105 0 191 1l189 5l70 3q29 2 39 5q10 41 16 96l47 8q-3 -15 -10 -75q-6 -51 -13 -129q-13 -150 -18 -220l-45 15l1 64q0 58 -1 83q-24 40 -203 66q-143 20 -258 20
q-2 -10 -5 -80q-2 -62 -4 -158q-5 -203 -5 -307v-40q134 0 260 9q128 10 164 23q14 42 20 88l43 4l-53 -383l-39 17q4 86 4 137q-45 23 -157 35q-100 10 -242 10v-41q0 -107 5 -340q2 -110 4 -185q3 -85 5 -106q169 0 288 15q138 18 204 55q8 25 15 52q3 12 6 25l24 103
l47 13q-5 -22 -15 -85l-21 -136q-26 -177 -32 -253l-43 9q0 92 -2 125q-10 1 -39 3l-68 4l-188 6q-222 5 -348 5q-151 0 -311 -8l10 43q36 2 97 10q78 9 114 18q3 14 6 84l4 165q5 203 5 390v95zM627 -123l157 -106l-102 -158l-154 104z" />
    <glyph glyph-name="uni1EBA" unicode="&#x1eba;" horiz-adv-x="1304" 
d="M334 797q0 152 -5 332l-4 151l-6 90q-24 5 -102 15l-111 14l-8 43l184 -6l99 -1q3 0 11 -1h184q105 0 191 1l189 5l70 3q29 2 39 5q10 41 16 96l47 8q-3 -15 -10 -75q-6 -51 -13 -129q-13 -150 -18 -220l-45 15l1 64q0 58 -1 83q-24 40 -203 66q-143 20 -258 20
q-2 -10 -5 -80q-2 -62 -4 -158q-5 -203 -5 -307v-40q134 0 260 9q128 10 164 23q14 42 20 88l43 4l-53 -383l-39 17q4 86 4 137q-45 23 -157 35q-100 10 -242 10v-41q0 -107 5 -340q2 -110 4 -185q3 -85 5 -106q169 0 288 15q138 18 204 55q8 25 15 52q3 12 6 25l24 103
l47 13q-5 -22 -15 -85l-21 -136q-26 -177 -32 -253l-43 9q0 92 -2 125q-10 1 -39 3l-68 4l-188 6q-222 5 -348 5q-151 0 -311 -8l10 43q36 2 97 10q78 9 114 18q3 14 6 84l4 165q5 203 5 390v95zM679 1535q-1 4 -1 7l-2 15q-4 19 -7 45l23 10q7 3 12 6q13 5 22 10
q22 12 49 32q40 30 54 66q5 15 7 31q2 12 2 29q0 39 -24 70q-28 37 -75 37q-39 0 -70 -20q-24 -15 -36 -34q-9 -22 -19 -85l-48 -15q9 79 13 155q1 20 3 56l38 -18q59 18 124 18q111 0 171 -39q57 -38 57 -98q0 -54 -39 -104q-14 -19 -35 -37q-14 -13 -34 -29
q-20 -15 -45 -29l-20 -10l-41 -21q-5 -9 -13 -50l-2 -9l-59 -17z" />
    <glyph glyph-name="uni1EBB" unicode="&#x1ebb;" horiz-adv-x="1304" 
d="M334 797q0 152 -5 332l-4 151l-6 90q-24 5 -102 15l-111 14l-8 43l184 -6l99 -1q3 0 11 -1h184q105 0 191 1l189 5l70 3q29 2 39 5q10 41 16 96l47 8q-3 -15 -10 -75q-6 -51 -13 -129q-13 -150 -18 -220l-45 15l1 64q0 58 -1 83q-24 40 -203 66q-143 20 -258 20
q-2 -10 -5 -80q-2 -62 -4 -158q-5 -203 -5 -307v-40q134 0 260 9q128 10 164 23q14 42 20 88l43 4l-53 -383l-39 17q4 86 4 137q-45 23 -157 35q-100 10 -242 10v-41q0 -107 5 -340q2 -110 4 -185q3 -85 5 -106q169 0 288 15q138 18 204 55q8 25 15 52q3 12 6 25l24 103
l47 13q-5 -22 -15 -85l-21 -136q-26 -177 -32 -253l-43 9q0 92 -2 125q-10 1 -39 3l-68 4l-188 6q-222 5 -348 5q-151 0 -311 -8l10 43q36 2 97 10q78 9 114 18q3 14 6 84l4 165q5 203 5 390v95zM679 1535q-1 4 -1 7l-2 15q-4 19 -7 45l23 10q7 3 12 6q13 5 22 10
q22 12 49 32q40 30 54 66q5 15 7 31q2 12 2 29q0 39 -24 70q-28 37 -75 37q-39 0 -70 -20q-24 -15 -36 -34q-9 -22 -19 -85l-48 -15q9 79 13 155q1 20 3 56l38 -18q59 18 124 18q111 0 171 -39q57 -38 57 -98q0 -54 -39 -104q-14 -19 -35 -37q-14 -13 -34 -29
q-20 -15 -45 -29l-20 -10l-41 -21q-5 -9 -13 -50l-2 -9l-59 -17z" />
    <glyph glyph-name="uni1EBC" unicode="&#x1ebc;" horiz-adv-x="1304" 
d="M334 797q0 152 -5 332l-4 151l-6 90q-24 5 -102 15l-111 14l-8 43l184 -6l99 -1q3 0 11 -1h184q105 0 191 1l189 5l70 3q29 2 39 5q10 41 16 96l47 8q-3 -15 -10 -75q-6 -51 -13 -129q-13 -150 -18 -220l-45 15l1 64q0 58 -1 83q-24 40 -203 66q-143 20 -258 20
q-2 -10 -5 -80q-2 -62 -4 -158q-5 -203 -5 -307v-40q134 0 260 9q128 10 164 23q14 42 20 88l43 4l-53 -383l-39 17q4 86 4 137q-45 23 -157 35q-100 10 -242 10v-41q0 -107 5 -340q2 -110 4 -185q3 -85 5 -106q169 0 288 15q138 18 204 55q8 25 15 52q3 12 6 25l24 103
l47 13q-5 -22 -15 -85l-21 -136q-26 -177 -32 -253l-43 9q0 92 -2 125q-10 1 -39 3l-68 4l-188 6q-222 5 -348 5q-151 0 -311 -8l10 43q36 2 97 10q78 9 114 18q3 14 6 84l4 165q5 203 5 390v95zM1057 1774q-19 -56 -62 -110q-52 -65 -98 -65q-29 0 -74 15q-32 10 -81 31
q-118 47 -160 47q-35 0 -60 -13q-35 -17 -61 -61l-57 12q18 54 63 114q54 75 94 75q28 0 68 -14l168 -65q53 -18 92 -18l23 1q15 1 28 6q35 13 60 57z" />
    <glyph glyph-name="uni1EBD" unicode="&#x1ebd;" horiz-adv-x="1304" 
d="M334 797q0 152 -5 332l-4 151l-6 90q-24 5 -102 15l-111 14l-8 43l184 -6l99 -1q3 0 11 -1h184q105 0 191 1l189 5l70 3q29 2 39 5q10 41 16 96l47 8q-3 -15 -10 -75q-6 -51 -13 -129q-13 -150 -18 -220l-45 15l1 64q0 58 -1 83q-24 40 -203 66q-143 20 -258 20
q-2 -10 -5 -80q-2 -62 -4 -158q-5 -203 -5 -307v-40q134 0 260 9q128 10 164 23q14 42 20 88l43 4l-53 -383l-39 17q4 86 4 137q-45 23 -157 35q-100 10 -242 10v-41q0 -107 5 -340q2 -110 4 -185q3 -85 5 -106q169 0 288 15q138 18 204 55q8 25 15 52q3 12 6 25l24 103
l47 13q-5 -22 -15 -85l-21 -136q-26 -177 -32 -253l-43 9q0 92 -2 125q-10 1 -39 3l-68 4l-188 6q-222 5 -348 5q-151 0 -311 -8l10 43q36 2 97 10q78 9 114 18q3 14 6 84l4 165q5 203 5 390v95zM1057 1774q-19 -56 -62 -110q-52 -65 -98 -65q-29 0 -74 15q-32 10 -81 31
q-118 47 -160 47q-35 0 -60 -13q-35 -17 -61 -61l-57 12q18 54 63 114q54 75 94 75q28 0 68 -14l168 -65q53 -18 92 -18l23 1q15 1 28 6q35 13 60 57z" />
    <glyph glyph-name="uni1EBE" unicode="&#x1ebe;" horiz-adv-x="1304" 
d="M334 797q0 152 -5 332l-4 151l-6 90q-24 5 -102 15l-111 14l-8 43l184 -6l99 -1q3 0 11 -1h184q105 0 191 1l189 5l70 3q29 2 39 5q10 41 16 96l47 8q-3 -15 -10 -75q-6 -51 -13 -129q-13 -150 -18 -220l-45 15l1 64q0 58 -1 83q-24 40 -203 66q-143 20 -258 20
q-2 -10 -5 -80q-2 -62 -4 -158q-5 -203 -5 -307v-40q134 0 260 9q128 10 164 23q14 42 20 88l43 4l-53 -383l-39 17q4 86 4 137q-45 23 -157 35q-100 10 -242 10v-41q0 -107 5 -340q2 -110 4 -185q3 -85 5 -106q169 0 288 15q138 18 204 55q8 25 15 52q3 12 6 25l24 103
l47 13q-5 -22 -15 -85l-21 -136q-26 -177 -32 -253l-43 9q0 92 -2 125q-10 1 -39 3l-68 4l-188 6q-222 5 -348 5q-151 0 -311 -8l10 43q36 2 97 10q78 9 114 18q3 14 6 84l4 165q5 203 5 390v95zM913 2007q-16 1 -87 -22q-58 -19 -147 -54q-183 -69 -225 -90l-25 65
q7 2 63 36l123 78q153 98 220 144zM381 1628q41 36 134 125l77 74q36 37 49 51l231 -206q36 -31 49 -42l-39 -49l-245 135q-35 -15 -118 -68q-73 -47 -99 -67z" />
    <glyph glyph-name="uni1EBF" unicode="&#x1ebf;" horiz-adv-x="1304" 
d="M334 797q0 152 -5 332l-4 151l-6 90q-24 5 -102 15l-111 14l-8 43l184 -6l99 -1q3 0 11 -1h184q105 0 191 1l189 5l70 3q29 2 39 5q10 41 16 96l47 8q-3 -15 -10 -75q-6 -51 -13 -129q-13 -150 -18 -220l-45 15l1 64q0 58 -1 83q-24 40 -203 66q-143 20 -258 20
q-2 -10 -5 -80q-2 -62 -4 -158q-5 -203 -5 -307v-40q134 0 260 9q128 10 164 23q14 42 20 88l43 4l-53 -383l-39 17q4 86 4 137q-45 23 -157 35q-100 10 -242 10v-41q0 -107 5 -340q2 -110 4 -185q3 -85 5 -106q169 0 288 15q138 18 204 55q8 25 15 52q3 12 6 25l24 103
l47 13q-5 -22 -15 -85l-21 -136q-26 -177 -32 -253l-43 9q0 92 -2 125q-10 1 -39 3l-68 4l-188 6q-222 5 -348 5q-151 0 -311 -8l10 43q36 2 97 10q78 9 114 18q3 14 6 84l4 165q5 203 5 390v95zM913 2007q-16 1 -87 -22q-58 -19 -147 -54q-183 -69 -225 -90l-25 65
q7 2 63 36l123 78q153 98 220 144zM381 1628q41 36 134 125l77 74q36 37 49 51l231 -206q36 -31 49 -42l-39 -49l-245 135q-35 -15 -118 -68q-73 -47 -99 -67z" />
    <glyph glyph-name="uni1EC0" unicode="&#x1ec0;" horiz-adv-x="1304" 
d="M334 797q0 152 -5 332l-4 151l-6 90q-24 5 -102 15l-111 14l-8 43l184 -6l99 -1q3 0 11 -1h184q105 0 191 1l189 5l70 3q29 2 39 5q10 41 16 96l47 8q-3 -15 -10 -75q-6 -51 -13 -129q-13 -150 -18 -220l-45 15l1 64q0 58 -1 83q-24 40 -203 66q-143 20 -258 20
q-2 -10 -5 -80q-2 -62 -4 -158q-5 -203 -5 -307v-40q134 0 260 9q128 10 164 23q14 42 20 88l43 4l-53 -383l-39 17q4 86 4 137q-45 23 -157 35q-100 10 -242 10v-41q0 -107 5 -340q2 -110 4 -185q3 -85 5 -106q169 0 288 15q138 18 204 55q8 25 15 52q3 12 6 25l24 103
l47 13q-5 -22 -15 -85l-21 -136q-26 -177 -32 -253l-43 9q0 92 -2 125q-10 1 -39 3l-68 4l-188 6q-222 5 -348 5q-151 0 -311 -8l10 43q36 2 97 10q78 9 114 18q3 14 6 84l4 165q5 203 5 390v95zM473 2154q67 -46 219 -144l123 -78q56 -34 63 -36l-24 -65q-51 24 -227 90
q-90 35 -148 54q-71 23 -86 22zM381 1628q41 36 134 125l77 74q36 37 49 51l231 -206q36 -31 49 -42l-39 -49l-245 135q-35 -15 -118 -68q-73 -47 -99 -67z" />
    <glyph glyph-name="uni1EC1" unicode="&#x1ec1;" horiz-adv-x="1304" 
d="M334 797q0 152 -5 332l-4 151l-6 90q-24 5 -102 15l-111 14l-8 43l184 -6l99 -1q3 0 11 -1h184q105 0 191 1l189 5l70 3q29 2 39 5q10 41 16 96l47 8q-3 -15 -10 -75q-6 -51 -13 -129q-13 -150 -18 -220l-45 15l1 64q0 58 -1 83q-24 40 -203 66q-143 20 -258 20
q-2 -10 -5 -80q-2 -62 -4 -158q-5 -203 -5 -307v-40q134 0 260 9q128 10 164 23q14 42 20 88l43 4l-53 -383l-39 17q4 86 4 137q-45 23 -157 35q-100 10 -242 10v-41q0 -107 5 -340q2 -110 4 -185q3 -85 5 -106q169 0 288 15q138 18 204 55q8 25 15 52q3 12 6 25l24 103
l47 13q-5 -22 -15 -85l-21 -136q-26 -177 -32 -253l-43 9q0 92 -2 125q-10 1 -39 3l-68 4l-188 6q-222 5 -348 5q-151 0 -311 -8l10 43q36 2 97 10q78 9 114 18q3 14 6 84l4 165q5 203 5 390v95zM473 2154q67 -46 219 -144l123 -78q56 -34 63 -36l-24 -65q-51 24 -227 90
q-90 35 -148 54q-71 23 -86 22zM381 1628q41 36 134 125l77 74q36 37 49 51l231 -206q36 -31 49 -42l-39 -49l-245 135q-35 -15 -118 -68q-73 -47 -99 -67z" />
    <glyph glyph-name="uni1EC2" unicode="&#x1ec2;" horiz-adv-x="1304" 
d="M334 797q0 152 -5 332l-4 151l-6 90q-24 5 -102 15l-111 14l-8 43l184 -6l99 -1q3 0 11 -1h184q105 0 191 1l189 5l70 3q29 2 39 5q10 41 16 96l47 8q-3 -15 -10 -75q-6 -51 -13 -129q-13 -150 -18 -220l-45 15l1 64q0 58 -1 83q-24 40 -203 66q-143 20 -258 20
q-2 -10 -5 -80q-2 -62 -4 -158q-5 -203 -5 -307v-40q134 0 260 9q128 10 164 23q14 42 20 88l43 4l-53 -383l-39 17q4 86 4 137q-45 23 -157 35q-100 10 -242 10v-41q0 -107 5 -340q2 -110 4 -185q3 -85 5 -106q169 0 288 15q138 18 204 55q8 25 15 52q3 12 6 25l24 103
l47 13q-5 -22 -15 -85l-21 -136q-26 -177 -32 -253l-43 9q0 92 -2 125q-10 1 -39 3l-68 4l-188 6q-222 5 -348 5q-151 0 -311 -8l10 43q36 2 97 10q78 9 114 18q3 14 6 84l4 165q5 203 5 390v95zM819 1785q-1 4 -1 7l-2 15q-4 19 -7 45l23 10q7 3 12 6q13 5 22 10
q22 12 49 32q40 30 54 66q5 15 7 31q2 12 2 29q0 39 -24 70q-28 37 -75 37q-39 0 -70 -20q-24 -15 -36 -34q-9 -22 -19 -85l-48 -15q9 79 13 155q1 20 3 56l38 -18q59 18 124 18q111 0 171 -39q57 -38 57 -98q0 -54 -39 -104q-14 -19 -35 -37q-14 -13 -34 -29
q-20 -15 -45 -29l-20 -10l-41 -21q-5 -9 -13 -50l-2 -9l-59 -17zM381 1628q41 36 134 125l77 74q36 37 49 51l231 -206q36 -31 49 -42l-39 -49l-245 135q-35 -15 -118 -68q-73 -47 -99 -67z" />
    <glyph glyph-name="uni1EC3" unicode="&#x1ec3;" horiz-adv-x="1304" 
d="M334 797q0 152 -5 332l-4 151l-6 90q-24 5 -102 15l-111 14l-8 43l184 -6l99 -1q3 0 11 -1h184q105 0 191 1l189 5l70 3q29 2 39 5q10 41 16 96l47 8q-3 -15 -10 -75q-6 -51 -13 -129q-13 -150 -18 -220l-45 15l1 64q0 58 -1 83q-24 40 -203 66q-143 20 -258 20
q-2 -10 -5 -80q-2 -62 -4 -158q-5 -203 -5 -307v-40q134 0 260 9q128 10 164 23q14 42 20 88l43 4l-53 -383l-39 17q4 86 4 137q-45 23 -157 35q-100 10 -242 10v-41q0 -107 5 -340q2 -110 4 -185q3 -85 5 -106q169 0 288 15q138 18 204 55q8 25 15 52q3 12 6 25l24 103
l47 13q-5 -22 -15 -85l-21 -136q-26 -177 -32 -253l-43 9q0 92 -2 125q-10 1 -39 3l-68 4l-188 6q-222 5 -348 5q-151 0 -311 -8l10 43q36 2 97 10q78 9 114 18q3 14 6 84l4 165q5 203 5 390v95zM819 1785q-1 4 -1 7l-2 15q-4 19 -7 45l23 10q7 3 12 6q13 5 22 10
q22 12 49 32q40 30 54 66q5 15 7 31q2 12 2 29q0 39 -24 70q-28 37 -75 37q-39 0 -70 -20q-24 -15 -36 -34q-9 -22 -19 -85l-48 -15q9 79 13 155q1 20 3 56l38 -18q59 18 124 18q111 0 171 -39q57 -38 57 -98q0 -54 -39 -104q-14 -19 -35 -37q-14 -13 -34 -29
q-20 -15 -45 -29l-20 -10l-41 -21q-5 -9 -13 -50l-2 -9l-59 -17zM381 1628q41 36 134 125l77 74q36 37 49 51l231 -206q36 -31 49 -42l-39 -49l-245 135q-35 -15 -118 -68q-73 -47 -99 -67z" />
    <glyph glyph-name="uni1EC4" unicode="&#x1ec4;" horiz-adv-x="1304" 
d="M334 797q0 152 -5 332l-4 151l-6 90q-24 5 -102 15l-111 14l-8 43l184 -6l99 -1q3 0 11 -1h184q105 0 191 1l189 5l70 3q29 2 39 5q10 41 16 96l47 8q-3 -15 -10 -75q-6 -51 -13 -129q-13 -150 -18 -220l-45 15l1 64q0 58 -1 83q-24 40 -203 66q-143 20 -258 20
q-2 -10 -5 -80q-2 -62 -4 -158q-5 -203 -5 -307v-40q134 0 260 9q128 10 164 23q14 42 20 88l43 4l-53 -383l-39 17q4 86 4 137q-45 23 -157 35q-100 10 -242 10v-41q0 -107 5 -340q2 -110 4 -185q3 -85 5 -106q169 0 288 15q138 18 204 55q8 25 15 52q3 12 6 25l24 103
l47 13q-5 -22 -15 -85l-21 -136q-26 -177 -32 -253l-43 9q0 92 -2 125q-10 1 -39 3l-68 4l-188 6q-222 5 -348 5q-151 0 -311 -8l10 43q36 2 97 10q78 9 114 18q3 14 6 84l4 165q5 203 5 390v95zM1066 2031q-19 -56 -62 -110q-52 -65 -98 -65q-29 0 -74 15q-32 10 -81 31
q-118 47 -160 47q-35 0 -60 -13q-35 -17 -61 -61l-57 12q18 54 63 114q54 75 94 75q28 0 68 -14l168 -65q53 -18 92 -18l23 1q15 1 28 6q35 13 60 57zM381 1628q41 36 134 125l77 74q36 37 49 51l231 -206q36 -31 49 -42l-39 -49l-245 135q-35 -15 -118 -68q-73 -47 -99 -67
z" />
    <glyph glyph-name="uni1EC5" unicode="&#x1ec5;" horiz-adv-x="1304" 
d="M334 797q0 152 -5 332l-4 151l-6 90q-24 5 -102 15l-111 14l-8 43l184 -6l99 -1q3 0 11 -1h184q105 0 191 1l189 5l70 3q29 2 39 5q10 41 16 96l47 8q-3 -15 -10 -75q-6 -51 -13 -129q-13 -150 -18 -220l-45 15l1 64q0 58 -1 83q-24 40 -203 66q-143 20 -258 20
q-2 -10 -5 -80q-2 -62 -4 -158q-5 -203 -5 -307v-40q134 0 260 9q128 10 164 23q14 42 20 88l43 4l-53 -383l-39 17q4 86 4 137q-45 23 -157 35q-100 10 -242 10v-41q0 -107 5 -340q2 -110 4 -185q3 -85 5 -106q169 0 288 15q138 18 204 55q8 25 15 52q3 12 6 25l24 103
l47 13q-5 -22 -15 -85l-21 -136q-26 -177 -32 -253l-43 9q0 92 -2 125q-10 1 -39 3l-68 4l-188 6q-222 5 -348 5q-151 0 -311 -8l10 43q36 2 97 10q78 9 114 18q3 14 6 84l4 165q5 203 5 390v95zM1066 2031q-19 -56 -62 -110q-52 -65 -98 -65q-29 0 -74 15q-32 10 -81 31
q-118 47 -160 47q-35 0 -60 -13q-35 -17 -61 -61l-57 12q18 54 63 114q54 75 94 75q28 0 68 -14l168 -65q53 -18 92 -18l23 1q15 1 28 6q35 13 60 57zM381 1628q41 36 134 125l77 74q36 37 49 51l231 -206q36 -31 49 -42l-39 -49l-245 135q-35 -15 -118 -68q-73 -47 -99 -67
z" />
    <glyph glyph-name="uni1EC6" unicode="&#x1ec6;" horiz-adv-x="1304" 
d="M334 797q0 152 -5 332l-4 151l-6 90q-24 5 -102 15l-111 14l-8 43l184 -6l99 -1q3 0 11 -1h184q105 0 191 1l189 5l70 3q29 2 39 5q10 41 16 96l47 8q-3 -15 -10 -75q-6 -51 -13 -129q-13 -150 -18 -220l-45 15l1 64q0 58 -1 83q-24 40 -203 66q-143 20 -258 20
q-2 -10 -5 -80q-2 -62 -4 -158q-5 -203 -5 -307v-40q134 0 260 9q128 10 164 23q14 42 20 88l43 4l-53 -383l-39 17q4 86 4 137q-45 23 -157 35q-100 10 -242 10v-41q0 -107 5 -340q2 -110 4 -185q3 -85 5 -106q169 0 288 15q138 18 204 55q8 25 15 52q3 12 6 25l24 103
l47 13q-5 -22 -15 -85l-21 -136q-26 -177 -32 -253l-43 9q0 92 -2 125q-10 1 -39 3l-68 4l-188 6q-222 5 -348 5q-151 0 -311 -8l10 43q36 2 97 10q78 9 114 18q3 14 6 84l4 165q5 203 5 390v95zM627 -123l157 -106l-102 -158l-154 104zM381 1628q41 36 134 125l77 74
q36 37 49 51l231 -206q36 -31 49 -42l-39 -49l-245 135q-35 -15 -118 -68q-73 -47 -99 -67z" />
    <glyph glyph-name="uni1EC7" unicode="&#x1ec7;" horiz-adv-x="1304" 
d="M334 797q0 152 -5 332l-4 151l-6 90q-24 5 -102 15l-111 14l-8 43l184 -6l99 -1q3 0 11 -1h184q105 0 191 1l189 5l70 3q29 2 39 5q10 41 16 96l47 8q-3 -15 -10 -75q-6 -51 -13 -129q-13 -150 -18 -220l-45 15l1 64q0 58 -1 83q-24 40 -203 66q-143 20 -258 20
q-2 -10 -5 -80q-2 -62 -4 -158q-5 -203 -5 -307v-40q134 0 260 9q128 10 164 23q14 42 20 88l43 4l-53 -383l-39 17q4 86 4 137q-45 23 -157 35q-100 10 -242 10v-41q0 -107 5 -340q2 -110 4 -185q3 -85 5 -106q169 0 288 15q138 18 204 55q8 25 15 52q3 12 6 25l24 103
l47 13q-5 -22 -15 -85l-21 -136q-26 -177 -32 -253l-43 9q0 92 -2 125q-10 1 -39 3l-68 4l-188 6q-222 5 -348 5q-151 0 -311 -8l10 43q36 2 97 10q78 9 114 18q3 14 6 84l4 165q5 203 5 390v95zM627 -123l157 -106l-102 -158l-154 104zM381 1628q41 36 134 125l77 74
q36 37 49 51l231 -206q36 -31 49 -42l-39 -49l-245 135q-35 -15 -118 -68q-73 -47 -99 -67z" />
    <glyph glyph-name="uni1EC8" unicode="&#x1ec8;" horiz-adv-x="901" 
d="M567 505q1 -114 2 -201l3 -159q2 -67 5 -82q33 -7 112 -17l103 -11l11 -43l-162 5q-125 3 -224 3l-162 -3l-157 -5l8 43q96 5 217 28q3 31 5 113l3 177q2 91 2 200l-2 556l-3 160q-2 77 -5 101q-27 6 -108 16l-107 13l-10 43q29 -3 148 -6q121 -2 241 -2q82 0 184 2
q106 3 132 6l-11 -43l-95 -13q-81 -12 -120 -16q-5 -28 -8 -186q-1 -68 -2 -161v-518zM428 1535q-1 4 -1 7l-2 15q-4 19 -7 45l23 10q7 3 12 6q13 5 22 10q22 12 49 32q40 30 54 66q5 15 7 31q2 12 2 29q0 39 -24 70q-28 37 -75 37q-39 0 -70 -20q-24 -15 -36 -34
q-9 -22 -19 -85l-48 -15q9 79 13 155q1 20 3 56l38 -18q59 18 124 18q111 0 171 -39q57 -38 57 -98q0 -54 -39 -104q-14 -19 -35 -37q-14 -13 -34 -29q-20 -15 -45 -29l-20 -10l-41 -21q-5 -9 -13 -50l-2 -9l-59 -17z" />
    <glyph glyph-name="uni1EC9" unicode="&#x1ec9;" horiz-adv-x="901" 
d="M567 505q1 -114 2 -201l3 -159q2 -67 5 -82q33 -7 112 -17l103 -11l11 -43l-162 5q-125 3 -224 3l-162 -3l-157 -5l8 43q96 5 217 28q3 31 5 113l3 177q2 91 2 200l-2 556l-3 160q-2 77 -5 101q-27 6 -108 16l-107 13l-10 43q29 -3 148 -6q121 -2 241 -2q82 0 184 2
q106 3 132 6l-11 -43l-95 -13q-81 -12 -120 -16q-5 -28 -8 -186q-1 -68 -2 -161v-518zM428 1535q-1 4 -1 7l-2 15q-4 19 -7 45l23 10q7 3 12 6q13 5 22 10q22 12 49 32q40 30 54 66q5 15 7 31q2 12 2 29q0 39 -24 70q-28 37 -75 37q-39 0 -70 -20q-24 -15 -36 -34
q-9 -22 -19 -85l-48 -15q9 79 13 155q1 20 3 56l38 -18q59 18 124 18q111 0 171 -39q57 -38 57 -98q0 -54 -39 -104q-14 -19 -35 -37q-14 -13 -34 -29q-20 -15 -45 -29l-20 -10l-41 -21q-5 -9 -13 -50l-2 -9l-59 -17z" />
    <glyph glyph-name="uni1ECA" unicode="&#x1eca;" horiz-adv-x="901" 
d="M567 505q1 -114 2 -201l3 -159q2 -67 5 -82q33 -7 112 -17l103 -11l11 -43l-162 5q-125 3 -224 3l-162 -3l-157 -5l8 43q96 5 217 28q3 31 5 113l3 177q2 91 2 200l-2 556l-3 160q-2 77 -5 101q-27 6 -108 16l-107 13l-10 43q29 -3 148 -6q121 -2 241 -2q82 0 184 2
q106 3 132 6l-11 -43l-95 -13q-81 -12 -120 -16q-5 -28 -8 -186q-1 -68 -2 -161v-518zM422 -123l157 -106l-102 -158l-154 104z" />
    <glyph glyph-name="uni1ECB" unicode="&#x1ecb;" horiz-adv-x="901" 
d="M567 505q1 -114 2 -201l3 -159q2 -67 5 -82q33 -7 112 -17l103 -11l11 -43l-162 5q-125 3 -224 3l-162 -3l-157 -5l8 43q96 5 217 28q3 31 5 113l3 177q2 91 2 200l-2 556l-3 160q-2 77 -5 101q-27 6 -108 16l-107 13l-10 43q29 -3 148 -6q121 -2 241 -2q82 0 184 2
q106 3 132 6l-11 -43l-95 -13q-81 -12 -120 -16q-5 -28 -8 -186q-1 -68 -2 -161v-518zM422 -123l157 -106l-102 -158l-154 104z" />
    <glyph glyph-name="uni1ECC" unicode="&#x1ecc;" horiz-adv-x="1939" 
d="M782 -24q-87 10 -163 33q-180 55 -310 188q-109 111 -155 233q-42 112 -42 262q0 319 238 539q119 111 282 171q173 64 379 64q174 0 298 -33q142 -39 269 -133q248 -181 248 -507q0 -371 -253 -601q-248 -225 -632 -225q-86 0 -159 9zM1419 224q157 174 157 419
q0 319 -193 536q-187 210 -448 210q-234 0 -399 -147q-88 -79 -136 -190q-52 -122 -52 -274q0 -284 197 -501q206 -226 497 -226q220 0 377 173zM983 -123l158 -106l-102 -158l-154 104z" />
    <glyph glyph-name="uni1ECD" unicode="&#x1ecd;" horiz-adv-x="1939" 
d="M782 -24q-87 10 -163 33q-180 55 -310 188q-109 111 -155 233q-42 112 -42 262q0 319 238 539q119 111 282 171q173 64 379 64q174 0 298 -33q142 -39 269 -133q248 -181 248 -507q0 -371 -253 -601q-248 -225 -632 -225q-86 0 -159 9zM1419 224q157 174 157 419
q0 319 -193 536q-187 210 -448 210q-234 0 -399 -147q-88 -79 -136 -190q-52 -122 -52 -274q0 -284 197 -501q206 -226 497 -226q220 0 377 173zM983 -123l158 -106l-102 -158l-154 104z" />
    <glyph glyph-name="uni1ECE" unicode="&#x1ece;" horiz-adv-x="1939" 
d="M782 -24q-87 10 -163 33q-180 55 -310 188q-109 111 -155 233q-42 112 -42 262q0 319 238 539q119 111 282 171q173 64 379 64q174 0 298 -33q142 -39 269 -133q248 -181 248 -507q0 -371 -253 -601q-248 -225 -632 -225q-86 0 -159 9zM1419 224q157 174 157 419
q0 319 -193 536q-187 210 -448 210q-234 0 -399 -147q-88 -79 -136 -190q-52 -122 -52 -274q0 -284 197 -501q206 -226 497 -226q220 0 377 173zM900 1535q-1 4 -1 7l-2 15q-4 19 -7 45l23 10q7 3 12 6q13 5 22 10q22 12 49 32q40 30 54 66q5 15 7 31q2 12 2 29q0 39 -24 70
q-28 37 -75 37q-39 0 -70 -20q-24 -15 -36 -34q-9 -22 -19 -85l-48 -15q9 79 13 155q1 20 3 56l38 -18q59 18 124 18q111 0 171 -39q57 -38 57 -98q0 -54 -39 -104q-14 -19 -35 -37q-14 -13 -34 -29q-20 -15 -45 -29l-20 -10l-41 -21q-5 -9 -13 -50l-1 -9l-60 -17z" />
    <glyph glyph-name="uni1ECF" unicode="&#x1ecf;" horiz-adv-x="1939" 
d="M782 -24q-87 10 -163 33q-180 55 -310 188q-109 111 -155 233q-42 112 -42 262q0 319 238 539q119 111 282 171q173 64 379 64q174 0 298 -33q142 -39 269 -133q248 -181 248 -507q0 -371 -253 -601q-248 -225 -632 -225q-86 0 -159 9zM1419 224q157 174 157 419
q0 319 -193 536q-187 210 -448 210q-234 0 -399 -147q-88 -79 -136 -190q-52 -122 -52 -274q0 -284 197 -501q206 -226 497 -226q220 0 377 173zM900 1535q-1 4 -1 7l-2 15q-4 19 -7 45l23 10q7 3 12 6q13 5 22 10q22 12 49 32q40 30 54 66q5 15 7 31q2 12 2 29q0 39 -24 70
q-28 37 -75 37q-39 0 -70 -20q-24 -15 -36 -34q-9 -22 -19 -85l-48 -15q9 79 13 155q1 20 3 56l38 -18q59 18 124 18q111 0 171 -39q57 -38 57 -98q0 -54 -39 -104q-14 -19 -35 -37q-14 -13 -34 -29q-20 -15 -45 -29l-20 -10l-41 -21q-5 -9 -13 -50l-1 -9l-60 -17z" />
    <glyph glyph-name="uni1ED0" unicode="&#x1ed0;" horiz-adv-x="1939" 
d="M782 -24q-87 10 -163 33q-180 55 -310 188q-109 111 -155 233q-42 112 -42 262q0 319 238 539q119 111 282 171q173 64 379 64q174 0 298 -33q142 -39 269 -133q248 -181 248 -507q0 -371 -253 -601q-248 -225 -632 -225q-86 0 -159 9zM1419 224q157 174 157 419
q0 319 -193 536q-187 210 -448 210q-234 0 -399 -147q-88 -79 -136 -190q-52 -122 -52 -274q0 -284 197 -501q206 -226 497 -226q220 0 377 173zM1246 2015q-16 1 -86 -22q-59 -19 -148 -54q-182 -69 -225 -90l-25 65q7 2 63 36l123 78q153 98 220 144zM718 1628
q41 36 135 125l77 74q36 37 48 51l232 -206q35 -31 49 -42l-39 -49l-246 135q-34 -15 -118 -68q-73 -47 -99 -67z" />
    <glyph glyph-name="uni1ED1" unicode="&#x1ed1;" horiz-adv-x="1939" 
d="M782 -24q-87 10 -163 33q-180 55 -310 188q-109 111 -155 233q-42 112 -42 262q0 319 238 539q119 111 282 171q173 64 379 64q174 0 298 -33q142 -39 269 -133q248 -181 248 -507q0 -371 -253 -601q-248 -225 -632 -225q-86 0 -159 9zM1419 224q157 174 157 419
q0 319 -193 536q-187 210 -448 210q-234 0 -399 -147q-88 -79 -136 -190q-52 -122 -52 -274q0 -284 197 -501q206 -226 497 -226q220 0 377 173zM1246 2015q-16 1 -86 -22q-59 -19 -148 -54q-182 -69 -225 -90l-25 65q7 2 63 36l123 78q153 98 220 144zM718 1628
q41 36 135 125l77 74q36 37 48 51l232 -206q35 -31 49 -42l-39 -49l-246 135q-34 -15 -118 -68q-73 -47 -99 -67z" />
    <glyph glyph-name="uni1ED2" unicode="&#x1ed2;" horiz-adv-x="1939" 
d="M782 -24q-87 10 -163 33q-180 55 -310 188q-109 111 -155 233q-42 112 -42 262q0 319 238 539q119 111 282 171q173 64 379 64q174 0 298 -33q142 -39 269 -133q248 -181 248 -507q0 -371 -253 -601q-248 -225 -632 -225q-86 0 -159 9zM1419 224q157 174 157 419
q0 319 -193 536q-187 210 -448 210q-234 0 -399 -147q-88 -79 -136 -190q-52 -122 -52 -274q0 -284 197 -501q206 -226 497 -226q220 0 377 173zM808 2156q68 -46 220 -144l123 -78q56 -34 63 -36l-25 -65q-51 24 -226 90q-90 35 -148 54q-71 23 -86 22zM718 1628
q41 36 135 125l77 74q36 37 48 51l232 -206q35 -31 49 -42l-39 -49l-246 135q-34 -15 -118 -68q-73 -47 -99 -67z" />
    <glyph glyph-name="uni1ED3" unicode="&#x1ed3;" horiz-adv-x="1939" 
d="M782 -24q-87 10 -163 33q-180 55 -310 188q-109 111 -155 233q-42 112 -42 262q0 319 238 539q119 111 282 171q173 64 379 64q174 0 298 -33q142 -39 269 -133q248 -181 248 -507q0 -371 -253 -601q-248 -225 -632 -225q-86 0 -159 9zM1419 224q157 174 157 419
q0 319 -193 536q-187 210 -448 210q-234 0 -399 -147q-88 -79 -136 -190q-52 -122 -52 -274q0 -284 197 -501q206 -226 497 -226q220 0 377 173zM808 2156q68 -46 220 -144l123 -78q56 -34 63 -36l-25 -65q-51 24 -226 90q-90 35 -148 54q-71 23 -86 22zM718 1628
q41 36 135 125l77 74q36 37 48 51l232 -206q35 -31 49 -42l-39 -49l-246 135q-34 -15 -118 -68q-73 -47 -99 -67z" />
    <glyph glyph-name="uni1ED4" unicode="&#x1ed4;" horiz-adv-x="1939" 
d="M782 -24q-87 10 -163 33q-180 55 -310 188q-109 111 -155 233q-42 112 -42 262q0 319 238 539q119 111 282 171q173 64 379 64q174 0 298 -33q142 -39 269 -133q248 -181 248 -507q0 -371 -253 -601q-248 -225 -632 -225q-86 0 -159 9zM1419 224q157 174 157 419
q0 319 -193 536q-187 210 -448 210q-234 0 -399 -147q-88 -79 -136 -190q-52 -122 -52 -274q0 -284 197 -501q206 -226 497 -226q220 0 377 173zM1114 1819q-1 4 -1 7l-2 15q-4 19 -7 45l23 10q7 3 12 6q13 5 22 10q22 12 49 32q40 30 54 66q5 15 7 31q2 12 2 29
q0 39 -24 70q-28 37 -75 37q-39 0 -70 -20q-24 -15 -36 -34q-9 -22 -19 -85l-48 -15q9 79 13 155q1 20 3 56l38 -18q59 18 124 18q111 0 171 -39q57 -38 57 -98q0 -54 -39 -104q-14 -19 -35 -37q-14 -13 -34 -29q-20 -15 -45 -29l-20 -10l-41 -21q-5 -9 -13 -50l-1 -9
l-60 -17zM718 1628q41 36 135 125l77 74q36 37 48 51l232 -206q35 -31 49 -42l-39 -49l-246 135q-34 -15 -118 -68q-73 -47 -99 -67z" />
    <glyph glyph-name="uni1ED5" unicode="&#x1ed5;" horiz-adv-x="1939" 
d="M782 -24q-87 10 -163 33q-180 55 -310 188q-109 111 -155 233q-42 112 -42 262q0 319 238 539q119 111 282 171q173 64 379 64q174 0 298 -33q142 -39 269 -133q248 -181 248 -507q0 -371 -253 -601q-248 -225 -632 -225q-86 0 -159 9zM1419 224q157 174 157 419
q0 319 -193 536q-187 210 -448 210q-234 0 -399 -147q-88 -79 -136 -190q-52 -122 -52 -274q0 -284 197 -501q206 -226 497 -226q220 0 377 173zM1114 1819q-1 4 -1 7l-2 15q-4 19 -7 45l23 10q7 3 12 6q13 5 22 10q22 12 49 32q40 30 54 66q5 15 7 31q2 12 2 29
q0 39 -24 70q-28 37 -75 37q-39 0 -70 -20q-24 -15 -36 -34q-9 -22 -19 -85l-48 -15q9 79 13 155q1 20 3 56l38 -18q59 18 124 18q111 0 171 -39q57 -38 57 -98q0 -54 -39 -104q-14 -19 -35 -37q-14 -13 -34 -29q-20 -15 -45 -29l-20 -10l-41 -21q-5 -9 -13 -50l-1 -9
l-60 -17zM718 1628q41 36 135 125l77 74q36 37 48 51l232 -206q35 -31 49 -42l-39 -49l-246 135q-34 -15 -118 -68q-73 -47 -99 -67z" />
    <glyph glyph-name="uni1ED6" unicode="&#x1ed6;" horiz-adv-x="1939" 
d="M782 -24q-87 10 -163 33q-180 55 -310 188q-109 111 -155 233q-42 112 -42 262q0 319 238 539q119 111 282 171q173 64 379 64q174 0 298 -33q142 -39 269 -133q248 -181 248 -507q0 -371 -253 -601q-248 -225 -632 -225q-86 0 -159 9zM1419 224q157 174 157 419
q0 319 -193 536q-187 210 -448 210q-234 0 -399 -147q-88 -79 -136 -190q-52 -122 -52 -274q0 -284 197 -501q206 -226 497 -226q220 0 377 173zM1386 2032q-19 -56 -62 -110q-52 -65 -98 -65q-29 0 -74 15q-33 10 -82 31q-117 47 -159 47q-35 0 -60 -13q-35 -17 -61 -61
l-58 12q19 54 63 114q54 75 95 75q28 0 67 -14l169 -65q53 -18 92 -18l23 1q15 1 27 6q35 13 60 57zM718 1628q41 36 135 125l77 74q36 37 48 51l232 -206q35 -31 49 -42l-39 -49l-246 135q-34 -15 -118 -68q-73 -47 -99 -67z" />
    <glyph glyph-name="uni1ED7" unicode="&#x1ed7;" horiz-adv-x="1939" 
d="M782 -24q-87 10 -163 33q-180 55 -310 188q-109 111 -155 233q-42 112 -42 262q0 319 238 539q119 111 282 171q173 64 379 64q174 0 298 -33q142 -39 269 -133q248 -181 248 -507q0 -371 -253 -601q-248 -225 -632 -225q-86 0 -159 9zM1419 224q157 174 157 419
q0 319 -193 536q-187 210 -448 210q-234 0 -399 -147q-88 -79 -136 -190q-52 -122 -52 -274q0 -284 197 -501q206 -226 497 -226q220 0 377 173zM1386 2032q-19 -56 -62 -110q-52 -65 -98 -65q-29 0 -74 15q-33 10 -82 31q-117 47 -159 47q-35 0 -60 -13q-35 -17 -61 -61
l-58 12q19 54 63 114q54 75 95 75q28 0 67 -14l169 -65q53 -18 92 -18l23 1q15 1 27 6q35 13 60 57zM718 1628q41 36 135 125l77 74q36 37 48 51l232 -206q35 -31 49 -42l-39 -49l-246 135q-34 -15 -118 -68q-73 -47 -99 -67z" />
    <glyph glyph-name="uni1ED8" unicode="&#x1ed8;" horiz-adv-x="1939" 
d="M782 -24q-87 10 -163 33q-180 55 -310 188q-109 111 -155 233q-42 112 -42 262q0 319 238 539q119 111 282 171q173 64 379 64q174 0 298 -33q142 -39 269 -133q248 -181 248 -507q0 -371 -253 -601q-248 -225 -632 -225q-86 0 -159 9zM1419 224q157 174 157 419
q0 319 -193 536q-187 210 -448 210q-234 0 -399 -147q-88 -79 -136 -190q-52 -122 -52 -274q0 -284 197 -501q206 -226 497 -226q220 0 377 173zM983 -123l158 -106l-102 -158l-154 104zM718 1628q41 36 135 125l77 74q36 37 48 51l232 -206q35 -31 49 -42l-39 -49l-246 135
q-34 -15 -118 -68q-73 -47 -99 -67z" />
    <glyph glyph-name="uni1ED9" unicode="&#x1ed9;" horiz-adv-x="1939" 
d="M782 -24q-87 10 -163 33q-180 55 -310 188q-109 111 -155 233q-42 112 -42 262q0 319 238 539q119 111 282 171q173 64 379 64q174 0 298 -33q142 -39 269 -133q248 -181 248 -507q0 -371 -253 -601q-248 -225 -632 -225q-86 0 -159 9zM1419 224q157 174 157 419
q0 319 -193 536q-187 210 -448 210q-234 0 -399 -147q-88 -79 -136 -190q-52 -122 -52 -274q0 -284 197 -501q206 -226 497 -226q220 0 377 173zM983 -123l158 -106l-102 -158l-154 104zM718 1628q41 36 135 125l77 74q36 37 48 51l232 -206q35 -31 49 -42l-39 -49l-246 135
q-34 -15 -118 -68q-73 -47 -99 -67z" />
    <glyph glyph-name="uni1EDA" unicode="&#x1eda;" horiz-adv-x="1939" 
d="M1419 224q157 174 157 419q0 319 -193 536q-187 210 -448 210q-235 0 -399 -147q-89 -79 -136 -190q-53 -122 -53 -274q0 -284 198 -501q205 -226 496 -226q221 0 378 173zM1334 1739q-15 1 -86 -22q-58 -19 -148 -54q-182 -69 -224 -90l-25 65q7 2 63 36l123 78
q152 98 219 144zM1646 1243q180 -173 180 -450q0 -371 -254 -601q-247 -225 -631 -225q-86 0 -159 9q-88 10 -163 33q-181 55 -311 188q-108 111 -154 233q-42 112 -42 262q0 319 237 539q120 111 283 171q173 64 379 64q173 0 298 -33q142 -39 269 -133q14 -10 26 -20
q74 135 57 213l-86 24l52 174l203 -44q-17 -65 -34 -114q-19 -59 -41 -109q-43 -95 -109 -181z" />
    <glyph glyph-name="uni1EDB" unicode="&#x1edb;" horiz-adv-x="1939" 
d="M1419 224q157 174 157 419q0 319 -193 536q-187 210 -448 210q-235 0 -399 -147q-89 -79 -136 -190q-53 -122 -53 -274q0 -284 198 -501q205 -226 496 -226q221 0 378 173zM1334 1739q-15 1 -86 -22q-58 -19 -148 -54q-182 -69 -224 -90l-25 65q7 2 63 36l123 78
q152 98 219 144zM1646 1243q180 -173 180 -450q0 -371 -254 -601q-247 -225 -631 -225q-86 0 -159 9q-88 10 -163 33q-181 55 -311 188q-108 111 -154 233q-42 112 -42 262q0 319 237 539q120 111 283 171q173 64 379 64q173 0 298 -33q142 -39 269 -133q14 -10 26 -20
q74 135 57 213l-86 24l52 174l203 -44q-17 -65 -34 -114q-19 -59 -41 -109q-43 -95 -109 -181z" />
    <glyph glyph-name="uni1EDC" unicode="&#x1edc;" horiz-adv-x="1939" 
d="M1419 224q157 174 157 419q0 319 -193 536q-187 210 -448 210q-235 0 -399 -147q-89 -79 -136 -190q-53 -122 -53 -274q0 -284 198 -501q205 -226 496 -226q221 0 378 173zM683 1896q67 -46 220 -144l123 -78q55 -34 63 -36l-25 -65q-51 24 -227 90q-90 35 -148 54
q-70 23 -86 22zM1646 1243q180 -173 180 -450q0 -371 -254 -601q-247 -225 -631 -225q-86 0 -159 9q-88 10 -163 33q-181 55 -311 188q-108 111 -154 233q-42 112 -42 262q0 319 237 539q120 111 283 171q173 64 379 64q173 0 298 -33q142 -39 269 -133q14 -10 26 -20
q74 135 57 213l-86 24l52 174l203 -44q-17 -65 -34 -114q-19 -59 -41 -109q-43 -95 -109 -181z" />
    <glyph glyph-name="uni1EDD" unicode="&#x1edd;" horiz-adv-x="1939" 
d="M1419 224q157 174 157 419q0 319 -193 536q-187 210 -448 210q-235 0 -399 -147q-89 -79 -136 -190q-53 -122 -53 -274q0 -284 198 -501q205 -226 496 -226q221 0 378 173zM683 1896q67 -46 220 -144l123 -78q55 -34 63 -36l-25 -65q-51 24 -227 90q-90 35 -148 54
q-70 23 -86 22zM1646 1243q180 -173 180 -450q0 -371 -254 -601q-247 -225 -631 -225q-86 0 -159 9q-88 10 -163 33q-181 55 -311 188q-108 111 -154 233q-42 112 -42 262q0 319 237 539q120 111 283 171q173 64 379 64q173 0 298 -33q142 -39 269 -133q14 -10 26 -20
q74 135 57 213l-86 24l52 174l203 -44q-17 -65 -34 -114q-19 -59 -41 -109q-43 -95 -109 -181z" />
    <glyph glyph-name="uni1EDE" unicode="&#x1ede;" horiz-adv-x="1939" 
d="M1419 224q157 174 157 419q0 319 -193 536q-187 210 -448 210q-235 0 -399 -147q-89 -79 -136 -190q-53 -122 -53 -274q0 -284 198 -501q205 -226 496 -226q221 0 378 173zM900 1535q-1 4 -1 7l-2 15q-4 19 -7 45l23 10q7 3 12 6q13 5 22 10q22 12 49 32q40 30 54 66
q5 15 7 31q2 12 2 29q0 39 -24 70q-28 37 -75 37q-39 0 -70 -20q-24 -15 -36 -34q-9 -22 -19 -85l-48 -15q9 79 13 155q1 20 3 56l38 -18q59 18 124 18q111 0 171 -39q57 -38 57 -98q0 -54 -39 -104q-14 -19 -35 -37q-14 -13 -34 -29q-20 -15 -45 -29l-20 -10l-41 -21
q-5 -9 -13 -50l-2 -9l-59 -17zM1646 1243q180 -173 180 -450q0 -371 -254 -601q-247 -225 -631 -225q-86 0 -159 9q-88 10 -163 33q-181 55 -311 188q-108 111 -154 233q-42 112 -42 262q0 319 237 539q120 111 283 171q173 64 379 64q173 0 298 -33q142 -39 269 -133
q14 -10 26 -20q74 135 57 213l-86 24l52 174l203 -44q-17 -65 -34 -114q-19 -59 -41 -109q-43 -95 -109 -181z" />
    <glyph glyph-name="uni1EDF" unicode="&#x1edf;" horiz-adv-x="1939" 
d="M1419 224q157 174 157 419q0 319 -193 536q-187 210 -448 210q-235 0 -399 -147q-89 -79 -136 -190q-53 -122 -53 -274q0 -284 198 -501q205 -226 496 -226q221 0 378 173zM900 1535q-1 4 -1 7l-2 15q-4 19 -7 45l23 10q7 3 12 6q13 5 22 10q22 12 49 32q40 30 54 66
q5 15 7 31q2 12 2 29q0 39 -24 70q-28 37 -75 37q-39 0 -70 -20q-24 -15 -36 -34q-9 -22 -19 -85l-48 -15q9 79 13 155q1 20 3 56l38 -18q59 18 124 18q111 0 171 -39q57 -38 57 -98q0 -54 -39 -104q-14 -19 -35 -37q-14 -13 -34 -29q-20 -15 -45 -29l-20 -10l-41 -21
q-5 -9 -13 -50l-2 -9l-59 -17zM1646 1243q180 -173 180 -450q0 -371 -254 -601q-247 -225 -631 -225q-86 0 -159 9q-88 10 -163 33q-181 55 -311 188q-108 111 -154 233q-42 112 -42 262q0 319 237 539q120 111 283 171q173 64 379 64q173 0 298 -33q142 -39 269 -133
q14 -10 26 -20q74 135 57 213l-86 24l52 174l203 -44q-17 -65 -34 -114q-19 -59 -41 -109q-43 -95 -109 -181z" />
    <glyph glyph-name="uni1EE0" unicode="&#x1ee0;" horiz-adv-x="1939" 
d="M1419 224q157 174 157 419q0 319 -193 536q-187 210 -448 210q-235 0 -399 -147q-89 -79 -136 -190q-53 -122 -53 -274q0 -284 198 -501q205 -226 496 -226q221 0 378 173zM1295 1774q-19 -56 -62 -110q-52 -65 -97 -65q-30 0 -74 15q-33 10 -82 31q-118 47 -160 47
q-35 0 -59 -13q-35 -17 -62 -61l-57 12q19 54 63 114q54 75 95 75q27 0 67 -14l169 -65q53 -18 91 -18l23 1q16 1 28 6q35 13 60 57zM1646 1243q180 -173 180 -450q0 -371 -254 -601q-247 -225 -631 -225q-86 0 -159 9q-88 10 -163 33q-181 55 -311 188q-108 111 -154 233
q-42 112 -42 262q0 319 237 539q120 111 283 171q173 64 379 64q173 0 298 -33q142 -39 269 -133q14 -10 26 -20q74 135 57 213l-86 24l52 174l203 -44q-17 -65 -34 -114q-19 -59 -41 -109q-43 -95 -109 -181z" />
    <glyph glyph-name="uni1EE1" unicode="&#x1ee1;" horiz-adv-x="1939" 
d="M1419 224q157 174 157 419q0 319 -193 536q-187 210 -448 210q-235 0 -399 -147q-89 -79 -136 -190q-53 -122 -53 -274q0 -284 198 -501q205 -226 496 -226q221 0 378 173zM1295 1774q-19 -56 -62 -110q-52 -65 -97 -65q-30 0 -74 15q-33 10 -82 31q-118 47 -160 47
q-35 0 -59 -13q-35 -17 -62 -61l-57 12q19 54 63 114q54 75 95 75q27 0 67 -14l169 -65q53 -18 91 -18l23 1q16 1 28 6q35 13 60 57zM1646 1243q180 -173 180 -450q0 -371 -254 -601q-247 -225 -631 -225q-86 0 -159 9q-88 10 -163 33q-181 55 -311 188q-108 111 -154 233
q-42 112 -42 262q0 319 237 539q120 111 283 171q173 64 379 64q173 0 298 -33q142 -39 269 -133q14 -10 26 -20q74 135 57 213l-86 24l52 174l203 -44q-17 -65 -34 -114q-19 -59 -41 -109q-43 -95 -109 -181z" />
    <glyph glyph-name="uni1EE2" unicode="&#x1ee2;" horiz-adv-x="1939" 
d="M1419 224q157 174 157 419q0 319 -193 536q-187 210 -448 210q-235 0 -399 -147q-89 -79 -136 -190q-53 -122 -53 -274q0 -284 198 -501q205 -226 496 -226q221 0 378 173zM983 -123l158 -106l-103 -158l-153 104zM1646 1243q180 -173 180 -450q0 -371 -254 -601
q-247 -225 -631 -225q-86 0 -159 9q-88 10 -163 33q-181 55 -311 188q-108 111 -154 233q-42 112 -42 262q0 319 237 539q120 111 283 171q173 64 379 64q173 0 298 -33q142 -39 269 -133q14 -10 26 -20q74 135 57 213l-86 24l52 174l203 -44q-17 -65 -34 -114
q-19 -59 -41 -109q-43 -95 -109 -181z" />
    <glyph glyph-name="uni1EE3" unicode="&#x1ee3;" horiz-adv-x="1939" 
d="M1419 224q157 174 157 419q0 319 -193 536q-187 210 -448 210q-235 0 -399 -147q-89 -79 -136 -190q-53 -122 -53 -274q0 -284 198 -501q205 -226 496 -226q221 0 378 173zM983 -123l158 -106l-103 -158l-153 104zM1646 1243q180 -173 180 -450q0 -371 -254 -601
q-247 -225 -631 -225q-86 0 -159 9q-88 10 -163 33q-181 55 -311 188q-108 111 -154 233q-42 112 -42 262q0 319 237 539q120 111 283 171q173 64 379 64q173 0 298 -33q142 -39 269 -133q14 -10 26 -20q74 135 57 213l-86 24l52 174l203 -44q-17 -65 -34 -114
q-19 -59 -41 -109q-43 -95 -109 -181z" />
    <glyph glyph-name="uni1EE4" unicode="&#x1ee4;" horiz-adv-x="1755" 
d="M268 907q0 145 -3 279q-3 143 -7 184q-52 13 -162 29l-6 43q115 -8 346 -8q201 0 303 8l-10 -43l-47 -6q-31 -3 -56 -6q-67 -9 -110 -17q-4 -24 -7 -182q-3 -144 -3 -289v-272q0 -306 120 -454q103 -128 285 -128q191 0 295 98q78 74 110 213q27 117 27 318l-2 441
l-3 156q-2 76 -5 99q-118 21 -223 29l-14 43q102 -8 331 -8q181 0 250 8l-12 -43l-143 -29q-3 -11 -5 -59l-3 -103l-2 -341q0 -22 1 -65l2 -124q0 -189 -41 -318q-48 -151 -159 -249q-77 -68 -174 -104q-110 -40 -254 -40q-307 0 -469 176q-150 163 -150 445v319zM912 -123
l158 -106l-103 -158l-153 104z" />
    <glyph glyph-name="uni1EE5" unicode="&#x1ee5;" horiz-adv-x="1755" 
d="M268 907q0 145 -3 279q-3 143 -7 184q-52 13 -162 29l-6 43q115 -8 346 -8q201 0 303 8l-10 -43l-47 -6q-31 -3 -56 -6q-67 -9 -110 -17q-4 -24 -7 -182q-3 -144 -3 -289v-272q0 -306 120 -454q103 -128 285 -128q191 0 295 98q78 74 110 213q27 117 27 318l-2 441
l-3 156q-2 76 -5 99q-118 21 -223 29l-14 43q102 -8 331 -8q181 0 250 8l-12 -43l-143 -29q-3 -11 -5 -59l-3 -103l-2 -341q0 -22 1 -65l2 -124q0 -189 -41 -318q-48 -151 -159 -249q-77 -68 -174 -104q-110 -40 -254 -40q-307 0 -469 176q-150 163 -150 445v319zM912 -123
l158 -106l-103 -158l-153 104z" />
    <glyph glyph-name="uni1EE6" unicode="&#x1ee6;" horiz-adv-x="1755" 
d="M268 907q0 145 -3 279q-3 143 -7 184q-52 13 -162 29l-6 43q115 -8 346 -8q201 0 303 8l-10 -43l-47 -6q-31 -3 -56 -6q-67 -9 -110 -17q-4 -24 -7 -182q-3 -144 -3 -289v-272q0 -306 120 -454q103 -128 285 -128q191 0 295 98q78 74 110 213q27 117 27 318l-2 441
l-3 156q-2 76 -5 99q-118 21 -223 29l-14 43q102 -8 331 -8q181 0 250 8l-12 -43l-143 -29q-3 -11 -5 -59l-3 -103l-2 -341q0 -22 1 -65l2 -124q0 -189 -41 -318q-48 -151 -159 -249q-77 -68 -174 -104q-110 -40 -254 -40q-307 0 -469 176q-150 163 -150 445v319zM901 1535
q-1 4 -1 7l-2 15q-4 19 -7 45l23 10q7 3 12 6q13 5 22 10q22 12 49 32q40 30 54 66q5 15 7 31q2 12 2 29q0 39 -24 70q-28 37 -75 37q-39 0 -70 -20q-24 -15 -36 -34q-9 -22 -19 -85l-48 -15q9 79 13 155q1 20 3 56l38 -18q59 18 124 18q111 0 171 -39q57 -38 57 -98
q0 -54 -39 -104q-14 -19 -35 -37q-14 -13 -34 -29q-20 -15 -45 -29l-20 -10l-41 -21q-5 -9 -13 -50l-2 -9l-59 -17z" />
    <glyph glyph-name="uni1EE7" unicode="&#x1ee7;" horiz-adv-x="1755" 
d="M268 907q0 145 -3 279q-3 143 -7 184q-52 13 -162 29l-6 43q115 -8 346 -8q201 0 303 8l-10 -43l-47 -6q-31 -3 -56 -6q-67 -9 -110 -17q-4 -24 -7 -182q-3 -144 -3 -289v-272q0 -306 120 -454q103 -128 285 -128q191 0 295 98q78 74 110 213q27 117 27 318l-2 441
l-3 156q-2 76 -5 99q-118 21 -223 29l-14 43q102 -8 331 -8q181 0 250 8l-12 -43l-143 -29q-3 -11 -5 -59l-3 -103l-2 -341q0 -22 1 -65l2 -124q0 -189 -41 -318q-48 -151 -159 -249q-77 -68 -174 -104q-110 -40 -254 -40q-307 0 -469 176q-150 163 -150 445v319zM901 1535
q-1 4 -1 7l-2 15q-4 19 -7 45l23 10q7 3 12 6q13 5 22 10q22 12 49 32q40 30 54 66q5 15 7 31q2 12 2 29q0 39 -24 70q-28 37 -75 37q-39 0 -70 -20q-24 -15 -36 -34q-9 -22 -19 -85l-48 -15q9 79 13 155q1 20 3 56l38 -18q59 18 124 18q111 0 171 -39q57 -38 57 -98
q0 -54 -39 -104q-14 -19 -35 -37q-14 -13 -34 -29q-20 -15 -45 -29l-20 -10l-41 -21q-5 -9 -13 -50l-2 -9l-59 -17z" />
    <glyph glyph-name="uni1EE8" unicode="&#x1ee8;" horiz-adv-x="1755" 
d="M1305 1739q-16 1 -87 -22q-58 -19 -147 -54q-182 -69 -225 -90l-25 65q7 2 63 36l123 78q153 98 220 144zM1514 1215v-7l-2 -341q0 -22 1 -65l3 -124q0 -189 -42 -318q-48 -151 -159 -249q-76 -68 -173 -104q-111 -40 -255 -40q-306 0 -468 176q-151 163 -151 445v319
q0 145 -3 279q-3 143 -7 184q-52 13 -162 29l-6 43q115 -8 346 -8q201 0 303 8l-10 -43l-47 -6q-30 -3 -56 -6q-67 -9 -110 -17q-4 -24 -7 -182q-3 -144 -3 -289v-272q0 -306 120 -454q103 -128 285 -128q191 0 295 98q78 74 110 213q27 117 27 318l-2 441l-3 156
q-2 76 -5 99q-118 21 -223 29l-14 43q102 -8 331 -8q56 0 101 1l-6 -65q-2 -11 -5 -59l-1 -40q79 141 61 222l-86 24l52 174l203 -44q-17 -65 -34 -114q-19 -59 -41 -109q-51 -113 -134 -213z" />
    <glyph glyph-name="uni1EE9" unicode="&#x1ee9;" horiz-adv-x="1755" 
d="M1305 1739q-16 1 -87 -22q-58 -19 -147 -54q-182 -69 -225 -90l-25 65q7 2 63 36l123 78q153 98 220 144zM1514 1215v-7l-2 -341q0 -22 1 -65l3 -124q0 -189 -42 -318q-48 -151 -159 -249q-76 -68 -173 -104q-111 -40 -255 -40q-306 0 -468 176q-151 163 -151 445v319
q0 145 -3 279q-3 143 -7 184q-52 13 -162 29l-6 43q115 -8 346 -8q201 0 303 8l-10 -43l-47 -6q-30 -3 -56 -6q-67 -9 -110 -17q-4 -24 -7 -182q-3 -144 -3 -289v-272q0 -306 120 -454q103 -128 285 -128q191 0 295 98q78 74 110 213q27 117 27 318l-2 441l-3 156
q-2 76 -5 99q-118 21 -223 29l-14 43q102 -8 331 -8q56 0 101 1l-6 -65q-2 -11 -5 -59l-1 -40q79 141 61 222l-86 24l52 174l203 -44q-17 -65 -34 -114q-19 -59 -41 -109q-51 -113 -134 -213z" />
    <glyph glyph-name="uni1EEA" unicode="&#x1eea;" horiz-adv-x="1755" 
d="M592 1896q67 -46 220 -144l123 -78q55 -34 62 -36l-24 -65q-51 24 -227 90q-90 35 -148 54q-70 23 -86 22zM1514 1215v-7l-2 -341q0 -22 1 -65l3 -124q0 -189 -42 -318q-48 -151 -159 -249q-76 -68 -173 -104q-111 -40 -255 -40q-306 0 -468 176q-151 163 -151 445v319
q0 145 -3 279q-3 143 -7 184q-52 13 -162 29l-6 43q115 -8 346 -8q201 0 303 8l-10 -43l-47 -6q-30 -3 -56 -6q-67 -9 -110 -17q-4 -24 -7 -182q-3 -144 -3 -289v-272q0 -306 120 -454q103 -128 285 -128q191 0 295 98q78 74 110 213q27 117 27 318l-2 441l-3 156
q-2 76 -5 99q-118 21 -223 29l-14 43q102 -8 331 -8q56 0 101 1l-6 -65q-2 -11 -5 -59l-1 -40q79 141 61 222l-86 24l52 174l203 -44q-17 -65 -34 -114q-19 -59 -41 -109q-51 -113 -134 -213z" />
    <glyph glyph-name="uni1EEB" unicode="&#x1eeb;" horiz-adv-x="1755" 
d="M592 1896q67 -46 220 -144l123 -78q55 -34 62 -36l-24 -65q-51 24 -227 90q-90 35 -148 54q-70 23 -86 22zM1514 1215v-7l-2 -341q0 -22 1 -65l3 -124q0 -189 -42 -318q-48 -151 -159 -249q-76 -68 -173 -104q-111 -40 -255 -40q-306 0 -468 176q-151 163 -151 445v319
q0 145 -3 279q-3 143 -7 184q-52 13 -162 29l-6 43q115 -8 346 -8q201 0 303 8l-10 -43l-47 -6q-30 -3 -56 -6q-67 -9 -110 -17q-4 -24 -7 -182q-3 -144 -3 -289v-272q0 -306 120 -454q103 -128 285 -128q191 0 295 98q78 74 110 213q27 117 27 318l-2 441l-3 156
q-2 76 -5 99q-118 21 -223 29l-14 43q102 -8 331 -8q56 0 101 1l-6 -65q-2 -11 -5 -59l-1 -40q79 141 61 222l-86 24l52 174l203 -44q-17 -65 -34 -114q-19 -59 -41 -109q-51 -113 -134 -213z" />
    <glyph glyph-name="uni1EEC" unicode="&#x1eec;" horiz-adv-x="1755" 
d="M901 1535q-1 4 -1 7l-2 15q-4 19 -7 45l23 10q7 3 12 6q13 5 22 10q22 12 49 32q40 30 54 66q5 15 7 31q2 12 2 29q0 39 -24 70q-28 37 -75 37q-39 0 -70 -20q-24 -15 -36 -34q-9 -22 -19 -85l-48 -15q9 79 13 155q1 20 3 56l38 -18q59 18 124 18q111 0 171 -39
q57 -38 57 -98q0 -54 -39 -104q-14 -19 -35 -37q-14 -13 -34 -29q-20 -15 -45 -29l-20 -10l-41 -21q-5 -9 -13 -50l-2 -9l-59 -17zM1514 1215v-7l-2 -341q0 -22 1 -65l3 -124q0 -189 -42 -318q-48 -151 -159 -249q-76 -68 -173 -104q-111 -40 -255 -40q-306 0 -468 176
q-151 163 -151 445v319q0 145 -3 279q-3 143 -7 184q-52 13 -162 29l-6 43q115 -8 346 -8q201 0 303 8l-10 -43l-47 -6q-30 -3 -56 -6q-67 -9 -110 -17q-4 -24 -7 -182q-3 -144 -3 -289v-272q0 -306 120 -454q103 -128 285 -128q191 0 295 98q78 74 110 213q27 117 27 318
l-2 441l-3 156q-2 76 -5 99q-118 21 -223 29l-14 43q102 -8 331 -8q56 0 101 1l-6 -65q-2 -11 -5 -59l-1 -40q79 141 61 222l-86 24l52 174l203 -44q-17 -65 -34 -114q-19 -59 -41 -109q-51 -113 -134 -213z" />
    <glyph glyph-name="uni1EED" unicode="&#x1eed;" horiz-adv-x="1755" 
d="M901 1535q-1 4 -1 7l-2 15q-4 19 -7 45l23 10q7 3 12 6q13 5 22 10q22 12 49 32q40 30 54 66q5 15 7 31q2 12 2 29q0 39 -24 70q-28 37 -75 37q-39 0 -70 -20q-24 -15 -36 -34q-9 -22 -19 -85l-48 -15q9 79 13 155q1 20 3 56l38 -18q59 18 124 18q111 0 171 -39
q57 -38 57 -98q0 -54 -39 -104q-14 -19 -35 -37q-14 -13 -34 -29q-20 -15 -45 -29l-20 -10l-41 -21q-5 -9 -13 -50l-2 -9l-59 -17zM1514 1215v-7l-2 -341q0 -22 1 -65l3 -124q0 -189 -42 -318q-48 -151 -159 -249q-76 -68 -173 -104q-111 -40 -255 -40q-306 0 -468 176
q-151 163 -151 445v319q0 145 -3 279q-3 143 -7 184q-52 13 -162 29l-6 43q115 -8 346 -8q201 0 303 8l-10 -43l-47 -6q-30 -3 -56 -6q-67 -9 -110 -17q-4 -24 -7 -182q-3 -144 -3 -289v-272q0 -306 120 -454q103 -128 285 -128q191 0 295 98q78 74 110 213q27 117 27 318
l-2 441l-3 156q-2 76 -5 99q-118 21 -223 29l-14 43q102 -8 331 -8q56 0 101 1l-6 -65q-2 -11 -5 -59l-1 -40q79 141 61 222l-86 24l52 174l203 -44q-17 -65 -34 -114q-19 -59 -41 -109q-51 -113 -134 -213z" />
    <glyph glyph-name="uni1EEE" unicode="&#x1eee;" horiz-adv-x="1755" 
d="M1296 1774q-19 -56 -62 -110q-52 -65 -97 -65q-30 0 -74 15q-33 10 -82 31q-118 47 -160 47q-35 0 -59 -13q-35 -17 -62 -61l-57 12q19 54 63 114q54 75 95 75q27 0 67 -14l169 -65q53 -18 91 -18l23 1q16 1 28 6q35 13 60 57zM1514 1215v-7l-2 -341q0 -22 1 -65l3 -124
q0 -189 -42 -318q-48 -151 -159 -249q-76 -68 -173 -104q-111 -40 -255 -40q-306 0 -468 176q-151 163 -151 445v319q0 145 -3 279q-3 143 -7 184q-52 13 -162 29l-6 43q115 -8 346 -8q201 0 303 8l-10 -43l-47 -6q-30 -3 -56 -6q-67 -9 -110 -17q-4 -24 -7 -182
q-3 -144 -3 -289v-272q0 -306 120 -454q103 -128 285 -128q191 0 295 98q78 74 110 213q27 117 27 318l-2 441l-3 156q-2 76 -5 99q-118 21 -223 29l-14 43q102 -8 331 -8q56 0 101 1l-6 -65q-2 -11 -5 -59l-1 -40q79 141 61 222l-86 24l52 174l203 -44q-17 -65 -34 -114
q-19 -59 -41 -109q-51 -113 -134 -213z" />
    <glyph glyph-name="uni1EEF" unicode="&#x1eef;" horiz-adv-x="1755" 
d="M1296 1774q-19 -56 -62 -110q-52 -65 -97 -65q-30 0 -74 15q-33 10 -82 31q-118 47 -160 47q-35 0 -59 -13q-35 -17 -62 -61l-57 12q19 54 63 114q54 75 95 75q27 0 67 -14l169 -65q53 -18 91 -18l23 1q16 1 28 6q35 13 60 57zM1514 1215v-7l-2 -341q0 -22 1 -65l3 -124
q0 -189 -42 -318q-48 -151 -159 -249q-76 -68 -173 -104q-111 -40 -255 -40q-306 0 -468 176q-151 163 -151 445v319q0 145 -3 279q-3 143 -7 184q-52 13 -162 29l-6 43q115 -8 346 -8q201 0 303 8l-10 -43l-47 -6q-30 -3 -56 -6q-67 -9 -110 -17q-4 -24 -7 -182
q-3 -144 -3 -289v-272q0 -306 120 -454q103 -128 285 -128q191 0 295 98q78 74 110 213q27 117 27 318l-2 441l-3 156q-2 76 -5 99q-118 21 -223 29l-14 43q102 -8 331 -8q56 0 101 1l-6 -65q-2 -11 -5 -59l-1 -40q79 141 61 222l-86 24l52 174l203 -44q-17 -65 -34 -114
q-19 -59 -41 -109q-51 -113 -134 -213z" />
    <glyph glyph-name="uni1EF0" unicode="&#x1ef0;" horiz-adv-x="1755" 
d="M912 -123l158 -106l-103 -158l-153 104zM1514 1215v-7l-2 -341q0 -22 1 -65l3 -124q0 -189 -42 -318q-48 -151 -159 -249q-76 -68 -173 -104q-111 -40 -255 -40q-306 0 -468 176q-151 163 -151 445v319q0 145 -3 279q-3 143 -7 184q-52 13 -162 29l-6 43q115 -8 346 -8
q201 0 303 8l-10 -43l-47 -6q-30 -3 -56 -6q-67 -9 -110 -17q-4 -24 -7 -182q-3 -144 -3 -289v-272q0 -306 120 -454q103 -128 285 -128q191 0 295 98q78 74 110 213q27 117 27 318l-2 441l-3 156q-2 76 -5 99q-118 21 -223 29l-14 43q102 -8 331 -8q56 0 101 1l-6 -65
q-2 -11 -5 -59l-1 -40q79 141 61 222l-86 24l52 174l203 -44q-17 -65 -34 -114q-19 -59 -41 -109q-51 -113 -134 -213z" />
    <glyph glyph-name="uni1EF1" unicode="&#x1ef1;" horiz-adv-x="1755" 
d="M912 -123l158 -106l-103 -158l-153 104zM1514 1215v-7l-2 -341q0 -22 1 -65l3 -124q0 -189 -42 -318q-48 -151 -159 -249q-76 -68 -173 -104q-111 -40 -255 -40q-306 0 -468 176q-151 163 -151 445v319q0 145 -3 279q-3 143 -7 184q-52 13 -162 29l-6 43q115 -8 346 -8
q201 0 303 8l-10 -43l-47 -6q-30 -3 -56 -6q-67 -9 -110 -17q-4 -24 -7 -182q-3 -144 -3 -289v-272q0 -306 120 -454q103 -128 285 -128q191 0 295 98q78 74 110 213q27 117 27 318l-2 441l-3 156q-2 76 -5 99q-118 21 -223 29l-14 43q102 -8 331 -8q56 0 101 1l-6 -65
q-2 -11 -5 -59l-1 -40q79 141 61 222l-86 24l52 174l203 -44q-17 -65 -34 -114q-19 -59 -41 -109q-51 -113 -134 -213z" />
    <glyph glyph-name="Ygrave" unicode="&#x1ef2;" horiz-adv-x="1339" 
d="M586 574q-2 43 -6 77q-3 10 -22 43l-49 80q-64 99 -149 224q-92 133 -164 230q-82 111 -115 142q-10 4 -28 9q-15 3 -39 7q-8 1 -20 3q-4 1 -11 2l-46 8l-8 43q70 -8 356 -8q87 0 175 2q86 3 108 6l-10 -43l-134 -21q-27 -4 -42 -8q41 -72 103 -171q26 -42 57 -90l58 -88
q12 -19 28 -43l76 -116q51 -78 71 -112l187 301q73 119 114 195q51 95 53 124l-160 29l-6 43q62 -8 258 -8q154 0 248 8l-6 -43l-65 -12q-48 -9 -74 -17q-8 -2 -33 -30l-60 -73q-69 -89 -161 -220q-92 -130 -159 -234q-73 -113 -83 -145q-8 -47 -8 -146v-153q1 -62 2 -117
l3 -115q2 -56 5 -74l36 -6q21 -3 58 -8l105 -14l4 -43l-147 5q-115 3 -220 3q-166 0 -280 -8l10 43q39 4 87 11q62 9 93 17q3 11 5 55l3 101q1 54 2 120v235zM593 1896q67 -46 219 -144l123 -78q56 -34 63 -36l-25 -65q-50 24 -226 90q-90 35 -148 54q-71 23 -86 22z" />
    <glyph glyph-name="ygrave" unicode="&#x1ef3;" horiz-adv-x="1339" 
d="M586 574q-2 43 -6 77q-3 10 -22 43l-49 80q-64 99 -149 224q-92 133 -164 230q-82 111 -115 142q-10 4 -28 9q-15 3 -39 7q-8 1 -20 3q-4 1 -11 2l-46 8l-8 43q70 -8 356 -8q87 0 175 2q86 3 108 6l-10 -43l-134 -21q-27 -4 -42 -8q41 -72 103 -171q26 -42 57 -90l58 -88
q12 -19 28 -43l76 -116q51 -78 71 -112l187 301q73 119 114 195q51 95 53 124l-160 29l-6 43q62 -8 258 -8q154 0 248 8l-6 -43l-65 -12q-48 -9 -74 -17q-8 -2 -33 -30l-60 -73q-69 -89 -161 -220q-92 -130 -159 -234q-73 -113 -83 -145q-8 -47 -8 -146v-153q1 -62 2 -117
l3 -115q2 -56 5 -74l36 -6q21 -3 58 -8l105 -14l4 -43l-147 5q-115 3 -220 3q-166 0 -280 -8l10 43q39 4 87 11q62 9 93 17q3 11 5 55l3 101q1 54 2 120v235zM593 1896q67 -46 219 -144l123 -78q56 -34 63 -36l-25 -65q-50 24 -226 90q-90 35 -148 54q-71 23 -86 22z" />
    <glyph glyph-name="uni1EF4" unicode="&#x1ef4;" horiz-adv-x="1339" 
d="M586 574q-2 43 -6 77q-3 10 -22 43l-49 80q-64 99 -149 224q-92 133 -164 230q-82 111 -115 142q-10 4 -28 9q-15 3 -39 7q-8 1 -20 3q-4 1 -11 2l-46 8l-8 43q70 -8 356 -8q87 0 175 2q86 3 108 6l-10 -43l-134 -21q-27 -4 -42 -8q41 -72 103 -171q26 -42 57 -90l58 -88
q12 -19 28 -43l76 -116q51 -78 71 -112l187 301q73 119 114 195q51 95 53 124l-160 29l-6 43q62 -8 258 -8q154 0 248 8l-6 -43l-65 -12q-48 -9 -74 -17q-8 -2 -33 -30l-60 -73q-69 -89 -161 -220q-92 -130 -159 -234q-73 -113 -83 -145q-8 -47 -8 -146v-153q1 -62 2 -117
l3 -115q2 -56 5 -74l36 -6q21 -3 58 -8l105 -14l4 -43l-147 5q-115 3 -220 3q-166 0 -280 -8l10 43q39 4 87 11q62 9 93 17q3 11 5 55l3 101q1 54 2 120v235zM673 -123l157 -106l-102 -158l-154 104z" />
    <glyph glyph-name="uni1EF5" unicode="&#x1ef5;" horiz-adv-x="1339" 
d="M586 574q-2 43 -6 77q-3 10 -22 43l-49 80q-64 99 -149 224q-92 133 -164 230q-82 111 -115 142q-10 4 -28 9q-15 3 -39 7q-8 1 -20 3q-4 1 -11 2l-46 8l-8 43q70 -8 356 -8q87 0 175 2q86 3 108 6l-10 -43l-134 -21q-27 -4 -42 -8q41 -72 103 -171q26 -42 57 -90l58 -88
q12 -19 28 -43l76 -116q51 -78 71 -112l187 301q73 119 114 195q51 95 53 124l-160 29l-6 43q62 -8 258 -8q154 0 248 8l-6 -43l-65 -12q-48 -9 -74 -17q-8 -2 -33 -30l-60 -73q-69 -89 -161 -220q-92 -130 -159 -234q-73 -113 -83 -145q-8 -47 -8 -146v-153q1 -62 2 -117
l3 -115q2 -56 5 -74l36 -6q21 -3 58 -8l105 -14l4 -43l-147 5q-115 3 -220 3q-166 0 -280 -8l10 43q39 4 87 11q62 9 93 17q3 11 5 55l3 101q1 54 2 120v235zM673 -123l157 -106l-102 -158l-154 104z" />
    <glyph glyph-name="uni1EF6" unicode="&#x1ef6;" horiz-adv-x="1339" 
d="M586 574q-2 43 -6 77q-3 10 -22 43l-49 80q-64 99 -149 224q-92 133 -164 230q-82 111 -115 142q-10 4 -28 9q-15 3 -39 7q-8 1 -20 3q-4 1 -11 2l-46 8l-8 43q70 -8 356 -8q87 0 175 2q86 3 108 6l-10 -43l-134 -21q-27 -4 -42 -8q41 -72 103 -171q26 -42 57 -90l58 -88
q12 -19 28 -43l76 -116q51 -78 71 -112l187 301q73 119 114 195q51 95 53 124l-160 29l-6 43q62 -8 258 -8q154 0 248 8l-6 -43l-65 -12q-48 -9 -74 -17q-8 -2 -33 -30l-60 -73q-69 -89 -161 -220q-92 -130 -159 -234q-73 -113 -83 -145q-8 -47 -8 -146v-153q1 -62 2 -117
l3 -115q2 -56 5 -74l36 -6q21 -3 58 -8l105 -14l4 -43l-147 5q-115 3 -220 3q-166 0 -280 -8l10 43q39 4 87 11q62 9 93 17q3 11 5 55l3 101q1 54 2 120v235zM741 1535q-1 4 -1 7l-2 15q-4 19 -7 45l23 10q7 3 12 6q13 5 22 10q22 12 49 32q40 30 54 66q5 15 7 31q2 12 2 29
q0 39 -24 70q-28 37 -75 37q-39 0 -70 -20q-24 -15 -36 -34q-9 -22 -19 -85l-48 -15q9 79 13 155q1 20 3 56l38 -18q59 18 124 18q111 0 171 -39q57 -38 57 -98q0 -54 -39 -104q-14 -19 -35 -37q-14 -13 -34 -29q-20 -15 -45 -29l-20 -10l-41 -21q-5 -9 -13 -50l-2 -9
l-59 -17z" />
    <glyph glyph-name="uni1EF7" unicode="&#x1ef7;" horiz-adv-x="1339" 
d="M586 574q-2 43 -6 77q-3 10 -22 43l-49 80q-64 99 -149 224q-92 133 -164 230q-82 111 -115 142q-10 4 -28 9q-15 3 -39 7q-8 1 -20 3q-4 1 -11 2l-46 8l-8 43q70 -8 356 -8q87 0 175 2q86 3 108 6l-10 -43l-134 -21q-27 -4 -42 -8q41 -72 103 -171q26 -42 57 -90l58 -88
q12 -19 28 -43l76 -116q51 -78 71 -112l187 301q73 119 114 195q51 95 53 124l-160 29l-6 43q62 -8 258 -8q154 0 248 8l-6 -43l-65 -12q-48 -9 -74 -17q-8 -2 -33 -30l-60 -73q-69 -89 -161 -220q-92 -130 -159 -234q-73 -113 -83 -145q-8 -47 -8 -146v-153q1 -62 2 -117
l3 -115q2 -56 5 -74l36 -6q21 -3 58 -8l105 -14l4 -43l-147 5q-115 3 -220 3q-166 0 -280 -8l10 43q39 4 87 11q62 9 93 17q3 11 5 55l3 101q1 54 2 120v235zM741 1535q-1 4 -1 7l-2 15q-4 19 -7 45l23 10q7 3 12 6q13 5 22 10q22 12 49 32q40 30 54 66q5 15 7 31q2 12 2 29
q0 39 -24 70q-28 37 -75 37q-39 0 -70 -20q-24 -15 -36 -34q-9 -22 -19 -85l-48 -15q9 79 13 155q1 20 3 56l38 -18q59 18 124 18q111 0 171 -39q57 -38 57 -98q0 -54 -39 -104q-14 -19 -35 -37q-14 -13 -34 -29q-20 -15 -45 -29l-20 -10l-41 -21q-5 -9 -13 -50l-2 -9
l-59 -17z" />
    <glyph glyph-name="uni1EF8" unicode="&#x1ef8;" horiz-adv-x="1339" 
d="M586 574q-2 43 -6 77q-3 10 -22 43l-49 80q-64 99 -149 224q-92 133 -164 230q-82 111 -115 142q-10 4 -28 9q-15 3 -39 7q-8 1 -20 3q-4 1 -11 2l-46 8l-8 43q70 -8 356 -8q87 0 175 2q86 3 108 6l-10 -43l-134 -21q-27 -4 -42 -8q41 -72 103 -171q26 -42 57 -90l58 -88
q12 -19 28 -43l76 -116q51 -78 71 -112l187 301q73 119 114 195q51 95 53 124l-160 29l-6 43q62 -8 258 -8q154 0 248 8l-6 -43l-65 -12q-48 -9 -74 -17q-8 -2 -33 -30l-60 -73q-69 -89 -161 -220q-92 -130 -159 -234q-73 -113 -83 -145q-8 -47 -8 -146v-153q1 -62 2 -117
l3 -115q2 -56 5 -74l36 -6q21 -3 58 -8l105 -14l4 -43l-147 5q-115 3 -220 3q-166 0 -280 -8l10 43q39 4 87 11q62 9 93 17q3 11 5 55l3 101q1 54 2 120v235zM1136 1774q-19 -56 -62 -110q-52 -65 -98 -65q-29 0 -74 15q-33 10 -81 31q-118 47 -160 47q-35 0 -60 -13
q-35 -17 -61 -61l-57 12q18 54 62 114q55 75 95 75q28 0 68 -14l168 -65q53 -18 92 -18l23 1q15 1 28 6q34 13 60 57z" />
    <glyph glyph-name="uni1EF9" unicode="&#x1ef9;" horiz-adv-x="1339" 
d="M586 574q-2 43 -6 77q-3 10 -22 43l-49 80q-64 99 -149 224q-92 133 -164 230q-82 111 -115 142q-10 4 -28 9q-15 3 -39 7q-8 1 -20 3q-4 1 -11 2l-46 8l-8 43q70 -8 356 -8q87 0 175 2q86 3 108 6l-10 -43l-134 -21q-27 -4 -42 -8q41 -72 103 -171q26 -42 57 -90l58 -88
q12 -19 28 -43l76 -116q51 -78 71 -112l187 301q73 119 114 195q51 95 53 124l-160 29l-6 43q62 -8 258 -8q154 0 248 8l-6 -43l-65 -12q-48 -9 -74 -17q-8 -2 -33 -30l-60 -73q-69 -89 -161 -220q-92 -130 -159 -234q-73 -113 -83 -145q-8 -47 -8 -146v-153q1 -62 2 -117
l3 -115q2 -56 5 -74l36 -6q21 -3 58 -8l105 -14l4 -43l-147 5q-115 3 -220 3q-166 0 -280 -8l10 43q39 4 87 11q62 9 93 17q3 11 5 55l3 101q1 54 2 120v235zM1136 1774q-19 -56 -62 -110q-52 -65 -98 -65q-29 0 -74 15q-33 10 -81 31q-118 47 -160 47q-35 0 -60 -13
q-35 -17 -61 -61l-57 12q18 54 62 114q55 75 95 75q28 0 68 -14l168 -65q53 -18 92 -18l23 1q15 1 28 6q34 13 60 57z" />
    <glyph glyph-name="quoteleft" unicode="&#x2018;" horiz-adv-x="445" 
d="M179 1538q18 -112 62 -244q40 -123 92 -229l-182 -47l-11 252l-16 270z" />
    <glyph glyph-name="quoteright" unicode="&#x2019;" horiz-adv-x="499" 
d="M106 1018q40 129 60 266q19 123 22 256l176 -65q-52 -112 -103 -226q-58 -131 -100 -235z" />
    <glyph glyph-name="quotedblleft" unicode="&#x201c;" horiz-adv-x="716" 
d="M179 1538q18 -112 62 -244q40 -123 92 -229l-182 -47l-11 252l-16 270zM439 1538q18 -112 62 -244q40 -123 92 -229l-182 -47l-11 252l-16 270z" />
    <glyph glyph-name="quotedblright" unicode="&#x201d;" horiz-adv-x="716" 
d="M106 1018q40 129 60 266q19 123 22 256l176 -65q-52 -112 -103 -226q-58 -131 -100 -235zM354 1018q41 130 62 266q18 124 20 256l176 -65q-52 -112 -103 -226q-58 -131 -100 -235z" />
    <glyph glyph-name="ellipsis" unicode="&#x2026;" horiz-adv-x="2048" 
d="M911 -41l-8 205l225 41l8 -203zM1593 -41l-8 205l225 41l8 -203zM229 -41l-8 205l225 41l8 -203z" />
    <glyph glyph-name="ugrave" horiz-adv-x="582" 
 />
    <glyph glyph-name="uacute" horiz-adv-x="580" 
 />
    <glyph glyph-name="yacute" horiz-adv-x="629" 
 />
  </font>
</defs>
</svg>
