<?xml version="1.0" standalone="no"?>
<!DOCTYPE svg PUBLIC "-//W3C//DTD SVG 1.1//EN" "http://www.w3.org/Graphics/SVG/1.1/DTD/svg11.dtd" >
<svg xmlns="http://www.w3.org/2000/svg" xmlns:xlink="http://www.w3.org/1999/xlink" version="1.1">
<metadata>
Created by FontForge 20161003 at Mon Oct 16 04:36:12 2017
 By www-data
(c) Copyright 2005 by Tong Duc Thinh. All Rights Reserved
</metadata>
<defs>
<font id="SFUFuturaRegular" horiz-adv-x="578" >
  <font-face 
    font-family="SFUFuturaRegular"
    font-weight="400"
    font-stretch="normal"
    units-per-em="1000"
    panose-1="0 0 4 0 0 0 0 0 0 0"
    ascent="800"
    descent="-200"
    x-height="468"
    cap-height="754"
    bbox="-163 -268 1113 1155"
    underline-thickness="75"
    underline-position="-261"
    unicode-range="U+0020-F002"
  />
<missing-glyph horiz-adv-x="500" 
d="M63 0v1134h375v-1134h-375zM125 63h250v1009h-250v-1009z" />
    <glyph glyph-name=".notdef" horiz-adv-x="500" 
d="M63 0v1134h375v-1134h-375zM125 63h250v1009h-250v-1009z" />
    <glyph glyph-name=".null" horiz-adv-x="0" 
 />
    <glyph glyph-name="nonmarkingreturn" horiz-adv-x="289" 
 />
    <glyph glyph-name="space" unicode=" " horiz-adv-x="289" 
 />
    <glyph glyph-name="exclam" unicode="!" horiz-adv-x="321" 
d="M161 100q24 0 41 -17t17 -41t-17 -41t-41 -17t-41 17t-17 41t17 41t41 17zM116 174v580h90v-580h-90z" />
    <glyph glyph-name="quotedbl" unicode="&#x22;" horiz-adv-x="439" 
d="M90 754h98l-18 -328h-62zM251 754h98l-18 -328h-62z" />
    <glyph glyph-name="numbersign" unicode="#" 
d="M217 718h77l-36 -194h124l35 194h79l-35 -194h92v-80h-107l-27 -154h101v-80h-117l-38 -210h-76l37 210h-123l-40 -210h-75l37 210h-100v80h115l27 154h-105v80h119zM245 444l-27 -154h123l27 154h-123z" />
    <glyph glyph-name="dollar" unicode="$" 
d="M333 349v-271q46 10 75.5 49t29.5 87q0 80 -105 135zM283 770v90h50v-90q114 -11 171 -116l-79 -45q-29 55 -92 74v-235q195 -85 195 -230q0 -83 -57 -153t-138 -81v-95h-50v95q-87 1 -154 63q-65 59 -79 147l90 19q25 -126 143 -141v300l-36 18q-70 35 -102 70
q-42 46 -42 113q0 76 52.5 133.5t127.5 63.5zM283 472v211q-40 -6 -66.5 -34.5t-26.5 -68.5q0 -71 93 -108z" />
    <glyph glyph-name="percent" unicode="%" horiz-adv-x="708" 
d="M193 770q72 0 124 -50t52 -122q0 -71 -52 -121t-124 -50t-124 50t-52 121q0 72 52 122t124 50zM193 710q-47 0 -81.5 -32.5t-34.5 -79.5q0 -46 35 -78.5t81 -32.5t81 32.5t35 78.5q0 47 -34.5 79.5t-81.5 32.5zM552 770l45 -26l-440 -760l-46 25zM516 327q72 0 124 -50
t52 -122q0 -71 -52 -121t-124 -50t-124 50t-52 121q0 72 52 122t124 50zM516 267q-47 0 -81.5 -32.5t-34.5 -79.5q0 -46 35 -78.5t81 -32.5t81 32.5t35 78.5q0 47 -34.5 79.5t-81.5 32.5z" />
    <glyph glyph-name="ampersand" unicode="&#x26;" horiz-adv-x="692" 
d="M287 372l-9 -6q-62 -41 -88 -66q-49 -46 -49 -93q0 -54 42.5 -96.5t97.5 -42.5q73 0 173 100zM307 490l12 8q90 60 90 116q0 39 -24.5 60.5t-63.5 21.5q-35 0 -59.5 -22.5t-24.5 -57.5q0 -36 45 -94zM592 0l-82 102q-100 -118 -226 -118q-97 0 -164 63t-67 159
q0 65 39 116q28 37 93 84l47 34q-83 87 -83 165q0 77 48.5 121t125.5 44q74 0 122 -41q52 -44 52 -116q0 -57 -45 -109q-27 -32 -92 -79l157 -190l88 102l60 -62l-92 -108l135 -167h-116z" />
    <glyph glyph-name="quotesingle" unicode="'" horiz-adv-x="277" 
d="M90 754h98l-18 -328h-62z" />
    <glyph glyph-name="parenleft" unicode="(" horiz-adv-x="292" 
d="M161 809l74 -55q-86 -180 -86 -446t86 -446l-74 -55q-104 204 -104 501q0 299 104 501z" />
    <glyph glyph-name="parenright" unicode=")" horiz-adv-x="292" 
d="M57 754l74 55q104 -202 104 -501q0 -297 -104 -501l-74 55q86 180 86 446t-86 446z" />
    <glyph glyph-name="asterisk" unicode="*" horiz-adv-x="432" 
d="M184 754h69v-95l81 48l35 -59l-85 -50l85 -50l-35 -58l-81 50v-96h-69v97l-87 -49l-34 57l85 49l-84 50l31 57l89 -49v98z" />
    <glyph glyph-name="plus" unicode="+" 
d="M246 512h86v-213h213v-86h-213v-213h-86v213h-213v86h213v213z" />
    <glyph glyph-name="comma" unicode="," horiz-adv-x="289" 
d="M164 119l78 -31l-133 -267l-55 23z" />
    <glyph glyph-name="hyphen" unicode="-" horiz-adv-x="332" 
d="M57 358h219v-75h-219v75z" />
    <glyph glyph-name="hyphen" unicode="&#x2010;" horiz-adv-x="332" 
d="M57 358h219v-75h-219v75z" />
    <glyph glyph-name="period" unicode="." horiz-adv-x="289" 
d="M145 100q24 0 41 -17t17 -41t-17 -41t-41 -17t-41 17t-17 41t17 41t41 17z" />
    <glyph glyph-name="slash" unicode="/" horiz-adv-x="551" 
d="M448 868l72 -32l-417 -962l-71 32z" />
    <glyph glyph-name="zero" unicode="0" 
d="M289 -16q-131 0 -204 139q-59 112 -59 254q0 144 58 255q72 138 205 138t205 -138q58 -111 58 -255q0 -142 -59 -254q-73 -139 -204 -139zM289 690q-90 0 -137 -117q-36 -89 -36 -195t36 -194q47 -116 137 -116t137 116q36 88 36 194t-36 195q-47 117 -137 117z" />
    <glyph glyph-name="one" unicode="1" 
d="M254 668h-131l52 86h169v-754h-90v668z" />
    <glyph glyph-name="two" unicode="2" 
d="M228 86h304v-86h-487l330 405q67 82 67 135q0 59 -44 101.5t-104 42.5q-57 0 -99 -40.5t-46 -97.5h-94q11 102 74.5 163t164.5 61q99 0 168.5 -64t69.5 -162q0 -87 -56 -155z" />
    <glyph glyph-name="three" unicode="3" 
d="M275 360v78q148 0 148 121q0 57 -37 93t-94 36q-50 0 -83.5 -29t-41.5 -79h-93q28 190 221 190q94 0 154 -54q64 -56 64 -149q0 -116 -96 -170q107 -51 107 -187q0 -103 -70 -166q-66 -60 -171 -60q-92 0 -157 55q-69 57 -73 147h91q7 -55 48.5 -87.5t97.5 -32.5
q62 0 103 42.5t41 105.5q0 71 -44 111t-115 35z" />
    <glyph glyph-name="four" unicode="4" 
d="M469 192h86v-82h-86v-110h-90v110h-372l462 676v-594zM379 192v311h-2l-212 -311h214z" />
    <glyph glyph-name="five" unicode="5" 
d="M528 668h-237l-47 -155l53 3q107 6 177 -77q65 -78 65 -187q0 -118 -80 -193t-199 -75q-71 0 -133 35q-65 36 -97 97l70 66q17 -47 66.5 -79.5t100.5 -32.5q76 0 129 54t53 131q0 73 -53 126t-127 53q-88 0 -141 -67h-18l116 387h302v-86z" />
    <glyph glyph-name="six" unicode="6" 
d="M379 770l68 -46l-201 -272l2 -2q36 18 74 18q92 0 155 -71.5t63 -164.5q0 -104 -72.5 -176t-176.5 -72q-100 0 -175.5 71t-75.5 170q0 89 82 199zM290 68q64 0 112 45.5t48 108.5q0 65 -47.5 113.5t-112.5 48.5q-62 0 -111 -47.5t-49 -109.5q0 -65 47.5 -112t112.5 -47z
" />
    <glyph glyph-name="seven" unicode="7" 
d="M437 668h-390v86h543l-470 -770l-73 45z" />
    <glyph glyph-name="eight" unicode="8" 
d="M289 352q-59 0 -102.5 -41.5t-43.5 -100.5q0 -56 44.5 -99t101.5 -43t101.5 43t44.5 99q0 59 -43.5 100.5t-102.5 41.5zM53 210q0 63 31 112t88 69q-99 56 -99 169q0 91 62 150.5t154 59.5t154 -59.5t62 -150.5q0 -113 -99 -169q57 -20 88 -69t31 -112
q0 -101 -67.5 -163.5t-168.5 -62.5t-168.5 63t-67.5 163zM289 690q-53 0 -90.5 -38.5t-37.5 -91.5q0 -47 40.5 -87.5t87.5 -40.5t87.5 40.5t40.5 87.5q0 53 -37.5 91.5t-90.5 38.5z" />
    <glyph glyph-name="nine" unicode="9" 
d="M213 -16l-68 47l201 271l-2 2q-28 -14 -73 -14q-92 0 -155.5 69.5t-63.5 162.5q0 104 72.5 176t176.5 72q100 0 175.5 -71t75.5 -170q0 -89 -82 -199zM302 370q67 0 113.5 45.5t46.5 112.5q0 62 -46.5 110t-107.5 48q-67 0 -116.5 -46t-49.5 -112q0 -64 48 -111t112 -47z
" />
    <glyph glyph-name="colon" unicode=":" horiz-adv-x="289" 
d="M145 100q24 0 41 -17t17 -41t-17 -41t-41 -17t-41 17t-17 41t17 41t41 17zM145 482q24 0 41 -17t17 -41t-17 -41t-41 -17t-41 17t-17 41t17 41t41 17z" />
    <glyph glyph-name="semicolon" unicode=";" horiz-adv-x="289" 
d="M156 119l78 -31l-133 -267l-55 23zM192 482q24 0 41 -17t17 -41t-17 -41t-41 -17t-41 17t-17 41t17 41t41 17z" />
    <glyph glyph-name="less" unicode="&#x3c;" 
d="M545 498v-94l-384 -148l384 -148v-94l-512 207v70z" />
    <glyph glyph-name="equal" unicode="=" 
d="M33 385h512v-86h-512v86zM33 213h512v-86h-512v86z" />
    <glyph glyph-name="greater" unicode="&#x3e;" 
d="M33 404v94l512 -207v-70l-512 -207v94l384 148z" />
    <glyph glyph-name="question" unicode="?" horiz-adv-x="453" 
d="M300 345h91q3 -65 -47 -113t-115 -48q-67 0 -114 46.5t-47 113.5q0 80 65 120l121 50q65 27 65 82q0 41 -25.5 65t-66.5 24q-35 0 -60.5 -25.5t-25.5 -60.5q0 -10 6 -32h-94l-2 33q-4 72 52 122q53 48 127 48q76 0 128 -50.5t52 -126.5q0 -77 -54 -124q-32 -28 -124 -56
q-73 -22 -73 -73q0 -30 20 -51t50 -21q32 0 52 22.5t19 54.5zM229 100q24 0 41 -17t17 -41t-17 -41t-41 -17t-41 17t-17 41t17 41t41 17z" />
    <glyph glyph-name="at" unicode="@" horiz-adv-x="800" 
d="M504 395q0 48 -27.5 76t-75.5 28q-58 0 -96 -49q-36 -45 -36 -104q0 -46 27.5 -80t72.5 -34q67 0 103 50q32 44 32 113zM528 506l14 62h71l-50 -257q-8 -41 -8 -55q0 -31 22 -31q47 0 80 76q28 63 28 116q0 121 -74.5 197t-195.5 76q-128 0 -213.5 -92t-85.5 -221
q0 -133 91.5 -223t224.5 -90q129 0 186 48l75 -60q-64 -34 -112 -48q-68 -20 -157 -20q-167 0 -277.5 113t-110.5 280q0 165 108.5 279t273.5 114q137 0 235 -87q112 -99 112 -230q0 -108 -52 -197q-62 -106 -164 -102q-44 2 -54 62q-62 -62 -136 -62q-71 0 -121 58
q-47 55 -47 127q0 93 54 163q59 75 150 75q78 0 133 -71z" />
    <glyph glyph-name="A" unicode="A" horiz-adv-x="703" 
d="M525 189h-346l-86 -189h-101l360 786l360 -786h-101zM486 275l-134 305l-134 -305h268z" />
    <glyph glyph-name="B" unicode="B" horiz-adv-x="535" 
d="M158 670v-250h24q77 0 114 23q48 30 48 103t-46 101q-37 23 -114 23h-26zM158 345v-261h72q178 0 178 133q0 128 -192 128h-58zM64 0v754h92q276 0 276 -207q0 -44 -21 -83q-23 -43 -60 -60v-2q66 -12 108.5 -67.5t42.5 -123.5q0 -106 -81 -162q-70 -49 -181 -49h-176z
" />
    <glyph glyph-name="C" unicode="C" horiz-adv-x="661" 
d="M621 719v-109q-83 74 -199 74q-126 0 -212 -90.5t-86 -217.5q0 -126 85 -216t211 -90q114 0 201 78v-111q-90 -53 -198 -53q-164 0 -278.5 113t-114.5 276q0 168 116.5 282.5t284.5 114.5q107 0 190 -51z" />
    <glyph glyph-name="D" unicode="D" horiz-adv-x="665" 
d="M64 0v754h156q185 0 299 -92q124 -100 124 -281q0 -185 -123 -287q-114 -94 -303 -94h-153zM158 668v-582h33q160 0 252 63q106 74 106 228t-106 228q-92 63 -252 63h-33z" />
    <glyph glyph-name="E" unicode="E" horiz-adv-x="521" 
d="M72 0v754h405v-86h-311v-211h302v-86h-302v-285h311v-86h-405z" />
    <glyph glyph-name="F" unicode="F" horiz-adv-x="474" 
d="M436 668h-271v-212h262v-86h-262v-370h-94v754h365v-86z" />
    <glyph glyph-name="G" unicode="G" horiz-adv-x="780" 
d="M460 380h299v-30q0 -158 -100 -262t-257 -104q-158 0 -269.5 116t-111.5 275q0 164 114 279.5t277 115.5q89 0 170.5 -38.5t136.5 -107.5l-66 -63q-41 56 -105 89.5t-132 33.5q-127 0 -214 -89t-87 -217q0 -122 86 -215t207 -93q91 0 167.5 67t79.5 157h-195v86z" />
    <glyph glyph-name="H" unicode="H" horiz-adv-x="675" 
d="M158 450h359v304h94v-754h-94v362h-359v-362h-94v754h94v-304z" />
    <glyph glyph-name="I" unicode="I" horiz-adv-x="232" 
d="M163 754v-754h-94v754h94z" />
    <glyph glyph-name="J" unicode="J" horiz-adv-x="362" 
d="M209 754h94v-479q0 -131 -36 -199q-48 -92 -168 -92q-62 0 -118 33l47 80q33 -25 75 -25q71 0 94 73q12 38 12 130v479z" />
    <glyph glyph-name="K" unicode="K" horiz-adv-x="600" 
d="M166 427l320 327h123l-339 -339l345 -415h-127l-284 351l-38 -36v-315h-94v754h94v-327z" />
    <glyph glyph-name="L" unicode="L" horiz-adv-x="385" 
d="M166 754v-668h229v-86h-323v754h94z" />
    <glyph glyph-name="M" unicode="M" horiz-adv-x="851" 
d="M426 -16l-226 514h-2l-88 -498h-97l154 786l259 -594l259 594l154 -786h-97l-88 498h-2z" />
    <glyph glyph-name="N" unicode="N" horiz-adv-x="785" 
d="M63 0v790l566 -593v557h94v-785l-566 593v-562h-94z" />
    <glyph glyph-name="O" unicode="O" horiz-adv-x="828" 
d="M414 770q163 0 279 -115t116 -278q0 -167 -114 -280t-281 -113t-281 113t-114 280q0 163 116 278t279 115zM414 72q126 0 213.5 89.5t87.5 215.5q0 130 -85.5 217.5t-215.5 87.5q-129 0 -215 -88t-86 -217q0 -126 87.5 -215.5t213.5 -89.5z" />
    <glyph glyph-name="P" unicode="P" horiz-adv-x="495" 
d="M166 316v-316h-94v754h108q141 0 211 -39q93 -51 93 -179q0 -113 -78 -170q-69 -50 -186 -50h-54zM166 670v-270h30q200 0 200 138q0 132 -205 132h-25z" />
    <glyph glyph-name="Q" unicode="Q" horiz-adv-x="828" 
d="M808 -16h-114l-65 67q-97 -67 -215 -67q-167 0 -281 113t-114 280q0 163 116 278t279 115t279 -115t116 -278q0 -166 -118 -278zM508 284l119 -118q42 37 65 95t23 116q0 130 -85.5 217.5t-215.5 87.5q-129 0 -215 -88t-86 -217q0 -126 87.5 -215.5t213.5 -89.5
q82 0 150 43l-173 169h117z" />
    <glyph glyph-name="R" unicode="R" horiz-adv-x="543" 
d="M303 328l238 -328h-114l-222 319h-39v-319h-94v754h114q138 0 199 -35q47 -27 73 -75.5t26 -104.5q0 -83 -50 -142t-131 -69zM166 670v-273h30q200 0 200 138q0 135 -205 135h-25z" />
    <glyph glyph-name="S" unicode="S" horiz-adv-x="537" 
d="M482 656l-75 -45q-42 71 -121 71q-48 0 -85 -29q-41 -31 -41 -78q0 -67 105 -108l54 -21q90 -35 134 -82q53 -57 53 -145q0 -102 -69 -168.5t-172 -66.5q-92 0 -156.5 59.5t-76.5 151.5l95 20q-1 -62 41.5 -102.5t104.5 -40.5q60 0 99.5 43t39.5 104q0 55 -41 92
q-28 25 -89 51l-52 22q-164 69 -164 191q0 88 68 144q64 51 154 51q130 0 194 -114z" />
    <glyph glyph-name="T" unicode="T" horiz-adv-x="456" 
d="M275 668v-668h-94v668h-179v86h452v-86h-179z" />
    <glyph glyph-name="U" unicode="U" horiz-adv-x="669" 
d="M59 754h94v-445q0 -237 182 -237t182 237v445h94v-477q0 -129 -73 -209q-75 -84 -203 -84t-203 84q-73 80 -73 209v477z" />
    <glyph glyph-name="V" unicode="V" horiz-adv-x="640" 
d="M96 754l225 -558l224 558h103l-327 -794l-328 794h103z" />
    <glyph glyph-name="W" unicode="W" horiz-adv-x="1027" 
d="M90 754l211 -540l213 556l213 -556l211 540h102l-313 -784l-213 553l-213 -553l-313 784h102z" />
    <glyph glyph-name="X" unicode="X" horiz-adv-x="574" 
d="M237 395l-208 359h107l154 -275l164 275h107l-217 -359l229 -395h-105l-178 309l-185 -309h-105z" />
    <glyph glyph-name="Y" unicode="Y" horiz-adv-x="573" 
d="M240 328l-246 426h108l185 -322l185 322h108l-246 -426v-328h-94v328z" />
    <glyph glyph-name="Z" unicode="Z" horiz-adv-x="552" 
d="M162 86h382v-86h-535l382 668h-328v86h481z" />
    <glyph glyph-name="bracketleft" unicode="[" horiz-adv-x="311" 
d="M153 725v-834h98v-84h-190v1002h190v-84h-98z" />
    <glyph glyph-name="backslash" unicode="\" horiz-adv-x="551" 
d="M31 868h84l404 -868h-84z" />
    <glyph glyph-name="bracketright" unicode="]" horiz-adv-x="311" 
d="M158 -109v834h-98v84h190v-1002h-190v84h98z" />
    <glyph glyph-name="asciicircum" unicode="^" 
d="M33 308l200 446h112l200 -446h-94l-162 362l-163 -362h-93z" />
    <glyph glyph-name="underscore" unicode="_" horiz-adv-x="500" 
d="M500 -113v-75h-500v75h500z" />
    <glyph glyph-name="grave" unicode="`" horiz-adv-x="360" 
d="M76 690l83 44l125 -166l-44 -27z" />
    <glyph glyph-name="a" unicode="a" horiz-adv-x="556" 
d="M264 64q71 0 113 50q39 48 39 120t-40 118q-42 50 -112 50q-68 0 -108 -49.5t-40 -118.5q0 -71 38 -118q41 -52 110 -52zM501 468v-468h-90v73h-2q-60 -89 -159 -89q-104 0 -166 76q-58 70 -58 177q0 101 59 171q63 74 162 74q101 0 162 -92h2v78h90z" />
    <glyph glyph-name="b" unicode="b" horiz-adv-x="556" 
d="M288 64q71 0 113 50q39 48 39 120t-40 118q-42 50 -112 50q-68 0 -108 -49.5t-40 -118.5q0 -71 38 -118q41 -52 110 -52zM55 0v868h90v-478h2q61 92 163 92q99 0 162 -74q58 -70 58 -171q0 -107 -58 -177q-62 -76 -166 -76q-99 0 -159 89h-2v-73h-90z" />
    <glyph glyph-name="c" unicode="c" horiz-adv-x="441" 
d="M406 451v-116q-55 63 -134 63q-66 0 -111 -49t-45 -115q0 -72 45 -119t117 -47q73 0 128 62v-115q-58 -31 -129 -31q-105 0 -178 71t-73 175q0 109 73.5 180.5t182.5 71.5q71 0 124 -31z" />
    <glyph glyph-name="d" unicode="d" horiz-adv-x="556" 
d="M264 64q71 0 113 50q39 48 39 120t-40 118q-42 50 -112 50q-68 0 -108 -49.5t-40 -118.5q0 -71 38 -118q41 -52 110 -52zM411 0v73h-2q-60 -89 -159 -89q-104 0 -166 76q-58 70 -58 177q0 101 58 171q63 74 162 74q102 0 163 -92h2v478h90v-868h-90z" />
    <glyph glyph-name="e" unicode="e" horiz-adv-x="488" 
d="M473 219h-357q1 -63 40 -109t101 -46q85 0 140 91l76 -43q-33 -60 -90.5 -94t-126.5 -34q-105 0 -169 71q-61 68 -61 175q0 113 57 180q60 72 171 72q107 0 166 -72q53 -67 53 -177v-14zM121 287h262q-8 54 -41.5 85.5t-87.5 31.5q-52 0 -88.5 -32.5t-44.5 -84.5z" />
    <glyph glyph-name="f" unicode="f" horiz-adv-x="275" 
d="M294 868v-91q-43 19 -60 19q-42 0 -56 -46q-8 -26 -8 -81v-201h124v-84h-124v-384h-90v384h-41v84h41v228q0 184 151 184q33 0 63 -12z" />
    <glyph glyph-name="g" unicode="g" horiz-adv-x="555" 
d="M263 64q71 0 113 50q39 48 39 120t-40 118q-42 50 -112 50q-68 0 -108 -49.5t-40 -118.5q0 -71 38 -118q41 -52 110 -52zM500 468v-459q0 -133 -46 -199q-55 -78 -182 -78q-99 0 -162 57t-64 155h90q0 -62 38.5 -97t101.5 -35q77 0 109 50q25 40 25 122v89h-2
q-60 -89 -159 -89q-104 0 -166 76q-58 70 -58 177q0 101 58 171q63 74 162 74q103 0 163 -94h2v80h90z" />
    <glyph glyph-name="h" unicode="h" horiz-adv-x="523" 
d="M62 868h90v-463h2q43 77 141 77q166 0 166 -203v-279h-90v268q0 68 -17 96q-23 38 -86 38q-76 0 -101 -62q-15 -38 -15 -125v-215h-90v868z" />
    <glyph glyph-name="i" unicode="i" horiz-adv-x="254" 
d="M172 468v-468h-90v468h90zM127 745q26 0 44 -18.5t18 -44.5t-18 -43.5t-44 -17.5t-44 17.5t-18 43.5t18 44.5t44 18.5z" />
    <glyph glyph-name="j" unicode="j" horiz-adv-x="254" 
d="M172 468v-736h-90v736h90zM127 745q26 0 44 -18.5t18 -44.5t-18 -43.5t-44 -17.5t-44 17.5t-18 43.5t18 44.5t44 18.5z" />
    <glyph glyph-name="k" unicode="k" horiz-adv-x="462" 
d="M158 868v-576l176 176h119l-200 -194l220 -274h-117l-167 213l-31 -31v-182h-90v868h90z" />
    <glyph glyph-name="l" unicode="l" horiz-adv-x="222" 
d="M156 868v-868h-90v868h90z" />
    <glyph glyph-name="m" unicode="m" horiz-adv-x="767" 
d="M149 468v-59h2q46 73 124 73q87 0 135 -83q48 83 144 83q155 0 155 -202v-280h-90v265q0 137 -87 137q-63 0 -87 -59q-16 -40 -16 -113v-230h-90v248q0 66 -12 100q-19 54 -74 54q-104 0 -104 -172v-230h-90v468h90z" />
    <glyph glyph-name="n" unicode="n" horiz-adv-x="523" 
d="M152 468v-63h2q43 77 141 77q166 0 166 -203v-279h-90v268q0 68 -17 96q-23 38 -86 38q-76 0 -101 -62q-15 -38 -15 -125v-215h-90v468h90z" />
    <glyph glyph-name="o" unicode="o" horiz-adv-x="540" 
d="M270 482q106 0 178 -71.5t72 -177.5t-72 -177.5t-178 -71.5t-178 71.5t-72 177.5t72 177.5t178 71.5zM270 396q-67 0 -113.5 -48t-46.5 -115t47 -115t113 -48t113 48t47 115t-46.5 115t-113.5 48z" />
    <glyph glyph-name="p" unicode="p" horiz-adv-x="556" 
d="M288 64q71 0 113 50q39 48 39 120t-40 118q-42 50 -112 50q-68 0 -108 -49.5t-40 -118.5q0 -71 38 -118q41 -52 110 -52zM145 468v-78h2q61 92 163 92q99 0 162 -74q58 -70 58 -171q0 -107 -58 -177q-62 -76 -166 -76q-99 0 -159 89h-2v-341h-90v736h90z" />
    <glyph glyph-name="q" unicode="q" horiz-adv-x="556" 
d="M264 64q71 0 113 50q39 48 39 120t-40 118q-42 50 -112 50q-68 0 -108 -49.5t-40 -118.5q0 -71 38 -118q41 -52 110 -52zM501 468v-736h-90v341h-2q-60 -89 -159 -89q-104 0 -166 76q-58 70 -58 177q0 101 58 171q63 74 162 74q102 0 163 -92h2v78h90z" />
    <glyph glyph-name="r" unicode="r" horiz-adv-x="351" 
d="M158 468v-76h3q36 90 128 90q38 0 74 -23l-41 -82q-22 19 -55 19q-109 0 -109 -166v-230h-90v468h90z" />
    <glyph glyph-name="s" unicode="s" horiz-adv-x="384" 
d="M323 400l-73 -39q-20 41 -60 41q-19 0 -34 -13.5t-15 -32.5q0 -33 56 -60q95 -46 105 -53q56 -40 56 -104q0 -66 -47 -110.5t-114 -44.5q-52 0 -98 28.5t-64 76.5l77 35q33 -60 85 -60q29 0 50 18.5t21 47.5t-33 51l-88 47q-47 25 -65 45q-25 28 -25 73q0 57 40.5 96.5
t97.5 39.5q88 0 128 -82z" />
    <glyph glyph-name="t" unicode="t" horiz-adv-x="240" 
d="M165 384v-384h-90v384h-49v84h49v179h90v-179h88v-84h-88z" />
    <glyph glyph-name="u" unicode="u" horiz-adv-x="512" 
d="M58 468h90v-259q0 -141 108 -141t108 141v259h90v-269q0 -101 -48 -156q-51 -59 -150 -59t-150 59q-48 55 -48 156v269z" />
    <glyph glyph-name="v" unicode="v" horiz-adv-x="445" 
d="M88 468l134 -292l135 292h101l-236 -484l-235 484h101z" />
    <glyph glyph-name="w" unicode="w" horiz-adv-x="718" 
d="M86 468l136 -298l138 324l137 -324l136 298h102l-238 -484l-137 313l-138 -313l-238 484h102z" />
    <glyph glyph-name="x" unicode="x" horiz-adv-x="489" 
d="M195 254l-168 214h106l111 -151l121 151h109l-172 -214l201 -254h-105l-154 190l-149 -190h-109z" />
    <glyph glyph-name="y" unicode="y" horiz-adv-x="484" 
d="M201 80l-214 388h105l158 -297l147 297h101l-379 -736h-102z" />
    <glyph glyph-name="z" unicode="z" horiz-adv-x="495" 
d="M177 84h304v-84h-479l317 384h-263v84h438z" />
    <glyph glyph-name="braceleft" unicode="{" horiz-adv-x="334" 
d="M48 271v73q75 33 75 151v182q0 40 22 82q26 50 63 50h78v-84h-40q-21 0 -27 -19q-4 -12 -4 -43v-184q0 -119 -76 -172q24 -14 43 -45q33 -52 33 -126v-184q0 -31 4 -43q6 -19 27 -19h40v-84h-78q-37 0 -63 50q-22 42 -22 82v182q0 118 -75 151z" />
    <glyph glyph-name="bar" unicode="|" horiz-adv-x="570" 
d="M328 868v-868h-86v868h86z" />
    <glyph glyph-name="braceright" unicode="}" horiz-adv-x="334" 
d="M286 344v-73q-75 -33 -75 -151v-182q0 -40 -22 -82q-26 -50 -63 -50h-78v84h40q21 0 27 19q4 12 4 43v184q0 74 33 126q19 31 43 45q-76 53 -76 172v184q0 31 -4 43q-6 19 -27 19h-40v84h78q37 0 63 -50q22 -42 22 -82v-182q0 -118 75 -151z" />
    <glyph glyph-name="asciitilde" unicode="~" 
d="M478 334v0l67 -50q-67 -122 -152 -122q-38 0 -115.5 51t-89.5 51q-42 0 -92 -82l-63 45q40 59 63 81q43 42 90 42q43 0 86 -26q6 -4 67 -50q34 -26 53 -26q25 0 46 24q9 11 40 62z" />
    <glyph glyph-name="euro" horiz-adv-x="498" 
d="M522 633l-23 -156l-48 6q0 157 -94 157q-103 0 -161 -211h172l-21 -48h-164q-6 -24 -16 -73h147l-21 -47h-134q-6 -41 -6 -74q0 -56 21 -91q26 -43 78 -43q58 0 101 68q24 38 51 119l55 -10l-54 -188q-77 -53 -159 -53q-111 0 -166 84q-47 71 -47 188h-74l21 47h56
q3 25 12 73h-66l21 48h59q41 112 108 183q83 88 187 88q94 0 165 -67z" />
    <glyph glyph-name="exclamdown" unicode="&#xa1;" horiz-adv-x="321" 
d="M161 508q24 0 41 -17t17 -41t-17 -41t-41 -17t-41 17t-17 41t17 41t41 17zM116 323h90v-581h-90v581z" />
    <glyph glyph-name="cent" unicode="&#xa2;" 
d="M356 704v-76q74 -4 122 -31v-115h-2q-47 61 -120 63v-328q73 10 122 62v-117q-53 -25 -105 -28l-17 -1v-85h-48v89q-92 14 -150 81t-58 159q0 94 57.5 164.5t150.5 84.5v78h48zM308 220v319q-51 -6 -85.5 -55.5t-34.5 -102.5q0 -57 32 -102q34 -48 88 -59z" />
    <glyph glyph-name="sterling" unicode="&#xa3;" 
d="M90 -16l-79 40q31 54 61 79q39 32 93 34q14 47 14 82q0 44 -22 82h-129v58h100q-58 110 -58 180q0 95 75.5 163t171.5 68q105 0 170 -64t70 -170l-90 -34v28q0 64 -41.5 108t-104.5 44q-59 0 -110 -46t-51 -105q0 -46 25 -93q6 -10 46 -79h148v-58h-124q14 -45 14 -85
q0 -39 -14 -87l74 -26l46 -18q29 -11 48 -11q41 0 83 74l75 -46q-50 -118 -156 -118q-43 0 -127 32.5t-120 32.5q-62 0 -88 -65z" />
    <glyph glyph-name="currency" unicode="&#xa4;" 
d="M483 546l60 -60l-41 -44q42 -66 42 -142t-42 -142l41 -44l-60 -60l-46 44q-63 -48 -148 -48t-148 48l-46 -44l-60 60l41 44q-42 66 -42 142t42 142l-41 44l60 60l46 -44q63 48 148 48t148 -48zM289 130q72 0 123 49.5t52 120.5q1 75 -49 122.5t-126 47.5t-126.5 -47.5
t-48.5 -122.5q1 -72 52 -121t123 -49z" />
    <glyph glyph-name="yen" unicode="&#xa5;" 
d="M336 260v-260h-94v260h-236v58h236v10l-54 94h-182v58h148l-158 274h108l185 -322l185 322h108l-158 -274h148v-58h-181l-55 -94v-10h236v-58h-236z" />
    <glyph glyph-name="brokenbar" unicode="&#xa6;" horiz-adv-x="570" 
d="M328 347v-347h-86v347h86zM328 868v-347h-86v347h86z" />
    <glyph glyph-name="section" unicode="&#xa7;" 
d="M214 335l175 -87q60 38 60 105q0 32 -24 55q-15 14 -52 33l-184 93q-60 -38 -60 -106q0 -35 27 -58q17 -15 58 -35zM310 192l-141 69q-67 33 -92 58q-37 37 -37 99q0 90 96 162q-44 50 -44 111q0 75 59 127q56 50 132 50q80 0 135 -44q59 -46 64 -124h-87q-2 41 -35.5 65
t-76.5 24q-42 0 -71.5 -29t-29.5 -71q0 -58 85 -101l133 -67q63 -32 92 -57q46 -40 46 -92q0 -104 -89 -169q53 -50 53 -122q0 -86 -62.5 -139.5t-150.5 -53.5q-99 0 -162.5 58t-63.5 157v15h89q-2 -63 36 -105.5t100 -42.5q50 0 87 32t37 81q0 38 -34 68q-20 18 -68 41z
" />
    <glyph glyph-name="dieresis" unicode="&#xa8;" horiz-adv-x="470" 
d="M130 694q25 0 42.5 -17.5t17.5 -42.5t-17.5 -43t-42.5 -18t-43 18t-18 43t18 42.5t43 17.5zM341 694q25 0 42.5 -17.5t17.5 -42.5t-17.5 -43t-42.5 -18t-43 18t-18 43t18 42.5t43 17.5z" />
    <glyph glyph-name="copyright" unicode="&#xa9;" horiz-adv-x="800" 
d="M400 -16q-166 0 -280 113.5t-114 279.5t114 279.5t280 113.5t280 -113.5t114 -279.5t-114 -279.5t-280 -113.5zM400 706q-138 0 -234 -95.5t-96 -233.5t96 -233.5t234 -95.5t234 95.5t96 233.5t-96 233.5t-234 95.5zM600 458h-61q-19 85 -125 85q-71 0 -112 -45t-41 -116
q0 -73 41.5 -118.5t113.5 -45.5q102 0 123 89h61q-9 -69 -61 -111t-123 -42q-97 0 -158 64t-61 162q0 101 59 164t159 63q71 0 121.5 -40t63.5 -109z" />
    <glyph glyph-name="ordfeminine" unicode="&#xaa;" horiz-adv-x="334" 
d="M167 519q46 0 72.5 28t26.5 74q0 45 -27 73t-72 28q-42 0 -69 -29.5t-27 -71.5q0 -44 26.5 -73t69.5 -29zM322 761v-280h-59v43h-2q-39 -53 -103 -53q-65 0 -105.5 43t-40.5 109q0 63 41 105t103 42q64 0 106 -55h1v46h59zM322 368h-310v48h310v-48z" />
    <glyph glyph-name="guillemotleft" unicode="&#xab;" horiz-adv-x="523" 
d="M311 320l149 -191l-56 -41l-182 232l182 240l56 -41zM119 320l149 -191l-56 -41l-182 232l182 240l56 -41z" />
    <glyph glyph-name="logicalnot" unicode="&#xac;" 
d="M459 115v184h-426v86h512v-270h-86z" />
    <glyph glyph-name="sfthyphen" unicode="&#xad;" horiz-adv-x="338" 
d="M8 174l33 122h246l-33 -122h-246z" />
    <glyph glyph-name="registered" unicode="&#xae;" horiz-adv-x="800" 
d="M400 -16q-166 0 -280 113.5t-114 279.5t114 279.5t280 113.5t280 -113.5t114 -279.5t-114 -279.5t-280 -113.5zM400 706q-138 0 -234 -95.5t-96 -233.5t96 -233.5t234 -95.5t234 95.5t96 233.5t-96 233.5t-234 95.5zM468 357l112 -204h-73l-113 204h-82v-204h-64v442h186
q152 0 152 -117q0 -55 -31.5 -87t-86.5 -34zM422 531h-110v-110h68q77 0 94 3q48 9 48 47q0 39 -33 52q-20 8 -67 8z" />
    <glyph glyph-name="macron" unicode="&#xaf;" horiz-adv-x="500" 
d="M70 694h361v-68h-361v68z" />
    <glyph glyph-name="macron" unicode="&#x2c9;" horiz-adv-x="500" 
d="M70 694h361v-68h-361v68z" />
    <glyph glyph-name="degree" unicode="&#xb0;" horiz-adv-x="400" 
d="M350 620q0 -62 -44 -106t-106 -44t-106 44t-44 106t44 106t106 44t106 -44t44 -106zM199 720q-42 0 -70.5 -29t-28.5 -71q0 -43 28.5 -71.5t71.5 -28.5t71.5 28.5t28.5 71.5t-29 71.5t-72 28.5z" />
    <glyph glyph-name="plusminus" unicode="&#xb1;" 
d="M33 0v86h512v-86h-512zM246 562h86v-173h213v-86h-213v-173h-86v173h-213v86h213v173z" />
    <glyph glyph-name="twosuperior" unicode="&#xb2;" horiz-adv-x="346" 
d="M144 360h188v-58h-317l215 243q38 43 38 81q0 34 -28.5 57t-62.5 23q-36 0 -61 -20.5t-27 -55.5h-67q7 63 49 98.5t106 35.5q61 0 108 -38t47 -98q0 -56 -33 -93z" />
    <glyph glyph-name="threesuperior" unicode="&#xb3;" horiz-adv-x="346" 
d="M163 518v58q94 0 94 67q0 33 -24.5 51t-58.5 18q-75 0 -75 -56h-67q18 114 144 114q60 0 100 -30q45 -34 45 -92q0 -67 -66 -102q73 -32 73 -112q0 -64 -49 -102q-45 -34 -111 -34q-57 0 -100 32q-46 34 -49 90h64q10 -64 90 -64q37 0 64 22t27 58q0 40 -30 62t-71 20z
" />
    <glyph glyph-name="acute" unicode="&#xb4;" horiz-adv-x="360" 
d="M201 734l83 -44l-164 -149l-44 27z" />
    <glyph glyph-name="mu" unicode="&#xb5;" horiz-adv-x="512" 
d="M58 468h90v-259q0 -141 108 -141t108 141v259h90v-269q0 -101 -48 -156q-51 -59 -150 -59q-56 0 -108 44v-296h-90v736z" />
    <glyph glyph-name="mu" unicode="&#x3bc;" horiz-adv-x="512" 
d="M58 468h90v-259q0 -141 108 -141t108 141v259h90v-269q0 -101 -48 -156q-51 -59 -150 -59q-56 0 -108 44v-296h-90v736z" />
    <glyph glyph-name="paragraph" unicode="&#xb6;" 
d="M538 754v-84h-61v-823h-84v823h-62v-823h-84v436q-92 0 -148 62q-51 58 -58 152q-7 96 56.5 176.5t158.5 80.5h282z" />
    <glyph glyph-name="ch270" unicode="&#xb7;" horiz-adv-x="249" 
d="M38 348q0 34 23 57t57 23t57.5 -23t23.5 -57t-23.5 -57.5t-57.5 -23.5t-57 23.5t-23 57.5z" />
    <glyph glyph-name="ch270" unicode="&#x2219;" horiz-adv-x="249" 
d="M38 348q0 34 23 57t57 23t57.5 -23t23.5 -57t-23.5 -57.5t-57.5 -23.5t-57 23.5t-23 57.5z" />
    <glyph glyph-name="cedilla" unicode="&#xb8;" horiz-adv-x="330" 
d="M244 -46l-105 -135l-53 27l87 137z" />
    <glyph glyph-name="onesuperior" unicode="&#xb9;" horiz-adv-x="346" 
d="M151 696h-86l34 58h116v-452h-64v394z" />
    <glyph glyph-name="ordmasculine" unicode="&#xba;" horiz-adv-x="324" 
d="M162 770q67 0 115 -42t48 -108q0 -65 -48.5 -107t-114.5 -42t-114 42t-48 107q0 66 49 109q46 41 113 41zM162 718q-42 0 -72.5 -28t-30.5 -70q0 -41 31 -69t72 -28t72.5 28t31.5 69q0 42 -31 70t-73 28zM325 368h-325v48h325v-48z" />
    <glyph glyph-name="guillemotright" unicode="&#xbb;" horiz-adv-x="523" 
d="M63 129l149 191l-149 199l56 41l182 -240l-182 -232zM255 129l149 191l-149 199l56 41l182 -240l-182 -232z" />
    <glyph glyph-name="onequarter" unicode="&#xbc;" horiz-adv-x="867" 
d="M126 696h-86l34 58h116v-452h-64v394zM778 124h49v-58h-49v-66h-64v66h-243l307 407v-349zM714 124v164h-3l-123 -164h126zM631 770l51 -26l-440 -760l-51 28z" />
    <glyph glyph-name="onehalf" unicode="&#xbd;" horiz-adv-x="867" 
d="M126 302v394h-86l34 58h116v-452h-64zM639 58h188v-58h-317l215 243q38 43 38 81q0 34 -28.5 57t-62.5 23q-36 0 -61 -20.5t-27 -55.5h-67q7 63 49 98.5t106 35.5q61 0 108 -38t47 -98q0 -56 -33 -93zM579 770l51 -26l-440 -760l-51 28z" />
    <glyph glyph-name="threequarters" unicode="&#xbe;" horiz-adv-x="867" 
d="M778 124h49v-58h-49v-66h-64v66h-243l307 407v-349zM714 124v164h-3l-123 -164h126zM184 518v58q94 0 94 67q0 33 -24.5 51t-58.5 18q-75 0 -75 -56h-67q18 114 144 114q60 0 100 -30q45 -34 45 -92q0 -67 -66 -102q73 -32 73 -112q0 -64 -49 -102q-45 -34 -111 -34
q-57 0 -100 32q-46 34 -49 90h64q10 -64 90 -64q37 0 64 22t27 58q0 40 -30 62t-71 20zM687 770l51 -26l-440 -760l-51 28z" />
    <glyph glyph-name="questiondown" unicode="&#xbf;" horiz-adv-x="453" 
d="M152 157h-91q-3 65 47 113t115 48q67 0 114 -46.5t47 -113.5q0 -80 -65 -120l-121 -50q-65 -27 -65 -82q0 -41 25.5 -65t66.5 -24q35 0 60.5 25.5t25.5 60.5q0 10 -6 32h94l2 -33q4 -72 -51 -121t-128 -49q-76 0 -128 50.5t-52 126.5q0 77 54 124q32 28 124 56
q73 22 73 73q0 30 -20 51t-50 21q-32 0 -52 -22.5t-19 -54.5zM223 508q24 0 41 -17t17 -41t-17 -41t-41 -17t-41 17t-17 41t17 41t41 17z" />
    <glyph glyph-name="Agrave" unicode="&#xc0;" horiz-adv-x="703" 
d="M373 875l-20 -35l-148 134l75 40zM712 0h-101l-86 189h-346l-86 -189h-101l360 786zM486 275l-134 305l-134 -305h268z" />
    <glyph glyph-name="Aacute" unicode="&#xc1;" horiz-adv-x="703" 
d="M525 189h-346l-86 -189h-101l360 786l360 -786h-101zM486 275l-134 305l-134 -305h268zM424 1014l75 -40l-148 -134l-20 35z" />
    <glyph glyph-name="Acircumflex" unicode="&#xc2;" horiz-adv-x="703" 
d="M525 189h-346l-86 -189h-101l360 786l360 -786h-101zM486 275l-134 305l-134 -305h268zM240 837l112 111l114 -111l-27 -36l-87 74l-86 -74z" />
    <glyph glyph-name="Atilde" unicode="&#xc3;" horiz-adv-x="703" 
d="M525 189h-346l-86 -189h-101l360 786l360 -786h-101zM486 275l-134 305l-134 -305h268zM238 840l-25 22l3 4q43 57 92 59q29 1 60 -16q22 -12 45 -11t56 36l26 -26q-42 -59 -100 -63q-17 -1 -54.5 15t-51.5 15q-28 -2 -51 -35z" />
    <glyph glyph-name="Adieresis" unicode="&#xc4;" horiz-adv-x="703" 
d="M525 189h-346l-86 -189h-101l360 786l360 -786h-101zM486 275l-134 305l-134 -305h268zM247 980q25 0 42.5 -17.5t17.5 -42.5t-17.5 -43t-42.5 -18t-43 18t-18 43t18 42.5t43 17.5zM458 980q25 0 42.5 -17.5t17.5 -42.5t-17.5 -43t-42.5 -18t-43 18t-18 43t18 42.5
t43 17.5z" />
    <glyph glyph-name="Aring" unicode="&#xc5;" horiz-adv-x="703" 
d="M525 189h-346l-86 -189h-101l360 786l360 -786h-101zM486 275l-134 305l-134 -305h268zM352 1020q38 0 64.5 -26.5t26.5 -64.5t-26.5 -64t-64.5 -26q-37 0 -63.5 26.5t-26.5 63.5q0 38 26 64.5t64 26.5zM352 884q19 0 32.5 13t13.5 32t-13.5 32.5t-32.5 13.5t-32 -13.5
t-13 -32.5t13 -32t32 -13z" />
    <glyph glyph-name="AE" unicode="&#xc6;" horiz-adv-x="997" 
d="M532 189h-343l-86 -189h-103l362 754h330l38 -86h-309l91 -211h301l40 -86h-302l121 -285h311l38 -86h-406zM497 275l-130 292l-138 -292h268z" />
    <glyph glyph-name="Ccedilla" unicode="&#xc7;" horiz-adv-x="661" 
d="M621 719v-109q-83 74 -199 74q-126 0 -212 -90.5t-86 -217.5q0 -126 85 -216t211 -90q114 0 201 78v-111q-90 -53 -198 -53q-164 0 -278.5 113t-114.5 276q0 168 116.5 282.5t284.5 114.5q107 0 190 -51zM410 -46l-105 -135l-53 27l87 137z" />
    <glyph glyph-name="Egrave" unicode="&#xc8;" horiz-adv-x="521" 
d="M72 0v754h405v-86h-311v-211h302v-86h-302v-285h311v-86h-405zM293 876l-20 -35l-148 134l75 40z" />
    <glyph glyph-name="Eacute" unicode="&#xc9;" horiz-adv-x="521" 
d="M72 0v754h405v-86h-311v-211h302v-86h-302v-285h311v-86h-405zM346 1014l75 -40l-148 -134l-20 35z" />
    <glyph glyph-name="Ecircumflex" unicode="&#xca;" horiz-adv-x="521" 
d="M72 0v754h405v-86h-311v-211h302v-86h-302v-285h311v-86h-405zM161 837l112 111l114 -111l-27 -36l-87 74l-86 -74z" />
    <glyph glyph-name="Edieresis" unicode="&#xcb;" horiz-adv-x="521" 
d="M72 0v754h405v-86h-311v-211h302v-86h-302v-285h311v-86h-405zM168 980q25 0 42.5 -17.5t17.5 -42.5t-17.5 -43t-42.5 -18t-43 18t-18 43t18 42.5t43 17.5zM379 980q25 0 42.5 -17.5t17.5 -42.5t-17.5 -43t-42.5 -18t-43 18t-18 43t18 42.5t43 17.5z" />
    <glyph glyph-name="Igrave" unicode="&#xcc;" horiz-adv-x="232" 
d="M163 754v-754h-94v754h94zM137 875l-20 -35l-148 134l75 40z" />
    <glyph glyph-name="Iacute" unicode="&#xcd;" horiz-adv-x="232" 
d="M163 754v-754h-94v754h94zM187 1015l75 -40l-148 -134l-20 35z" />
    <glyph glyph-name="Icircumflex" unicode="&#xce;" horiz-adv-x="232" 
d="M163 754v-754h-94v754h94zM-44 875l159 145l161 -145l-59 -46l-102 96l-101 -96z" />
    <glyph glyph-name="Idieresis" unicode="&#xcf;" horiz-adv-x="232" 
d="M163 754v-754h-94v754h94zM11 980q25 0 42.5 -17.5t17.5 -42.5t-17.5 -43t-42.5 -18t-43 18t-18 43t18 42.5t43 17.5zM222 980q25 0 42.5 -17.5t17.5 -42.5t-17.5 -43t-42.5 -18t-43 18t-18 43t18 42.5t43 17.5z" />
    <glyph glyph-name="Eth" unicode="&#xd0;" horiz-adv-x="665" 
d="M64 450v304h156q185 0 299 -92q124 -100 124 -281q0 -185 -123 -287q-114 -94 -303 -94h-153v362h-64v88h64zM158 668v-218h134v-88h-134v-276h33q160 0 252 63q106 74 106 228t-106 228q-92 63 -252 63h-33z" />
    <glyph glyph-name="Ntilde" unicode="&#xd1;" horiz-adv-x="785" 
d="M63 0v790l566 -593v557h94v-785l-566 593v-562h-94zM249 859v0l-47 40l3 5q46 76 108 76q34 0 89 -26.5t72 -26.5q35 0 64 48l47 -39q-40 -82 -118 -82q-27 0 -81 25.5t-80 25.5q-35 0 -57 -46z" />
    <glyph glyph-name="Ograve" unicode="&#xd2;" horiz-adv-x="828" 
d="M414 770q164 0 279.5 -114.5t115.5 -278.5q0 -168 -113.5 -280.5t-281.5 -112.5t-281.5 112.5t-113.5 280.5q0 164 115.5 278.5t279.5 114.5zM414 72q127 0 214 89t87 216q0 131 -85 218t-216 87q-130 0 -215.5 -87.5t-85.5 -217.5q0 -127 87 -216t214 -89zM435 876
l-20 -35l-148 134l75 40z" />
    <glyph glyph-name="Oacute" unicode="&#xd3;" horiz-adv-x="828" 
d="M414 770q164 0 279.5 -114.5t115.5 -278.5q0 -168 -113.5 -280.5t-281.5 -112.5t-281.5 112.5t-113.5 280.5q0 164 115.5 278.5t279.5 114.5zM414 72q127 0 214 89t87 216q0 131 -85 218t-216 87q-130 0 -215.5 -87.5t-85.5 -217.5q0 -127 87 -216t214 -89zM486 1014
l75 -40l-148 -134l-20 35z" />
    <glyph glyph-name="Ocircumflex" unicode="&#xd4;" horiz-adv-x="828" 
d="M414 770q164 0 279.5 -114.5t115.5 -278.5q0 -168 -113.5 -280.5t-281.5 -112.5t-281.5 112.5t-113.5 280.5q0 164 115.5 278.5t279.5 114.5zM414 72q127 0 214 89t87 216q0 131 -85 218t-216 87q-130 0 -215.5 -87.5t-85.5 -217.5q0 -127 87 -216t214 -89zM301 836
l112 111l114 -111l-27 -36l-87 74l-86 -74z" />
    <glyph glyph-name="Otilde" unicode="&#xd5;" horiz-adv-x="828" 
d="M414 770q164 0 279.5 -114.5t115.5 -278.5q0 -168 -113.5 -280.5t-281.5 -112.5t-281.5 112.5t-113.5 280.5q0 164 115.5 278.5t279.5 114.5zM414 72q127 0 214 89t87 216q0 131 -85 218t-216 87q-130 0 -215.5 -87.5t-85.5 -217.5q0 -127 87 -216t214 -89zM300 841
l-25 22l3 4q43 57 92 59q29 1 60 -16q22 -12 45 -11t56 36l26 -26q-42 -59 -100 -63q-17 -1 -54.5 15t-51.5 15q-28 -2 -51 -35z" />
    <glyph glyph-name="Odieresis" unicode="&#xd6;" horiz-adv-x="828" 
d="M414 770q163 0 279 -115t116 -278q0 -167 -114 -280t-281 -113t-281 113t-114 280q0 163 116 278t279 115zM414 72q126 0 213.5 89.5t87.5 215.5q0 130 -85.5 217.5t-215.5 87.5q-129 0 -215 -88t-86 -217q0 -126 87.5 -215.5t213.5 -89.5zM309 980q25 0 42.5 -17.5
t17.5 -42.5t-17.5 -43t-42.5 -18t-43 18t-18 43t18 42.5t43 17.5zM520 980q25 0 42.5 -17.5t17.5 -42.5t-17.5 -43t-42.5 -18t-43 18t-18 43t18 42.5t43 17.5z" />
    <glyph glyph-name="multiply" unicode="&#xd7;" 
d="M33 451l60 61l196 -195l196 195l60 -61l-195 -195l195 -195l-60 -61l-196 195l-196 -195l-60 61l195 195z" />
    <glyph glyph-name="Oslash" unicode="&#xd8;" horiz-adv-x="828" 
d="M815 729l-100 -100q94 -117 94 -252q0 -167 -114 -280t-281 -113q-139 0 -260 95l-100 -100l-41 42l99 99q-93 104 -93 257q0 163 116 278t279 115q155 0 261 -100l100 100zM178 181l432 428q-76 73 -196 73q-129 -1 -215 -88t-86 -217q0 -111 65 -196zM649 566
l-426 -424q73 -70 191 -70q126 0 213.5 89.5t87.5 215.5q0 105 -66 189z" />
    <glyph glyph-name="Ugrave" unicode="&#xd9;" horiz-adv-x="669" 
d="M59 754h94v-445q0 -237 182 -237t182 237v445h94v-477q0 -129 -73 -209q-75 -84 -203 -84t-203 84q-73 80 -73 209v477zM354 835l-20 -35l-148 134l75 40z" />
    <glyph glyph-name="Uacute" unicode="&#xda;" horiz-adv-x="669" 
d="M59 754h94v-445q0 -237 182 -237t182 237v445h94v-477q0 -129 -73 -209q-75 -84 -203 -84t-203 84q-73 80 -73 209v477zM404 974l75 -40l-148 -134l-20 35z" />
    <glyph glyph-name="Ucircumflex" unicode="&#xdb;" horiz-adv-x="669" 
d="M59 754h94v-445q0 -237 182 -237t182 237v445h94v-477q0 -129 -73 -209q-75 -84 -203 -84t-203 84q-73 80 -73 209v477zM175 875l159 145l161 -145l-59 -46l-102 96l-101 -96z" />
    <glyph glyph-name="Udieresis" unicode="&#xdc;" horiz-adv-x="669" 
d="M59 754h94v-445q0 -237 182 -237t182 237v445h94v-477q0 -129 -73 -209q-75 -84 -203 -84t-203 84q-73 80 -73 209v477zM230 980q25 0 42.5 -17.5t17.5 -42.5t-17.5 -43t-42.5 -18t-43 18t-18 43t18 42.5t43 17.5zM441 980q25 0 42.5 -17.5t17.5 -42.5t-17.5 -43
t-42.5 -18t-43 18t-18 43t18 42.5t43 17.5z" />
    <glyph glyph-name="Yacute" unicode="&#xdd;" horiz-adv-x="573" 
d="M240 328l-246 426h108l185 -322l185 322h108l-246 -426v-328h-94v328zM359 974l75 -40l-148 -134l-20 35z" />
    <glyph glyph-name="Thorn" unicode="&#xde;" horiz-adv-x="495" 
d="M166 176v-176h-94v754h94v-140h14q141 0 211 -39q93 -51 93 -179q0 -113 -78 -170q-69 -50 -186 -50h-54zM166 530v-270h30q200 0 200 138q0 132 -205 132h-25z" />
    <glyph glyph-name="germandbls" unicode="&#xdf;" horiz-adv-x="580" 
d="M282 -16v84q79 0 137 56t58 134q0 83 -57 133q-52 46 -138 52v88q58 -1 96.5 39.5t38.5 98.5q0 55 -37.5 91t-92.5 36q-86 0 -114 -82q-15 -44 -15 -155v-559h-90v386h-40v84h40v148q0 262 222 262q94 0 155.5 -61t61.5 -155q0 -111 -96 -167q72 -23 115 -94
q41 -66 41 -145q0 -117 -84 -198t-201 -76z" />
    <glyph glyph-name="agrave" unicode="&#xe0;" horiz-adv-x="556" 
d="M264 64q72 0 113 50q39 47 39 120q0 71 -41 119.5t-111 48.5q-68 0 -109 -51q-39 -47 -39 -117q0 -71 38 -118q41 -52 110 -52zM501 468v-468h-90v73h-2q-60 -89 -159 -89q-104 0 -166 76q-58 70 -58 177q0 102 59 171q62 74 162 74q101 0 162 -92h2v78h90zM285 595
l-20 -34l-146 132l73 40z" />
    <glyph glyph-name="aacute" unicode="&#xe1;" horiz-adv-x="556" 
d="M264 64q72 0 113 50q39 47 39 120q0 71 -41 119.5t-111 48.5q-68 0 -109 -51q-39 -47 -39 -117q0 -71 38 -118q41 -52 110 -52zM501 468v-468h-90v73h-2q-60 -89 -159 -89q-104 0 -166 76q-58 70 -58 177q0 102 59 171q62 74 162 74q101 0 162 -92h2v78h90zM336 732
l74 -40l-147 -132l-20 34z" />
    <glyph glyph-name="acircumflex" unicode="&#xe2;" horiz-adv-x="556" 
d="M264 64q72 0 113 50q39 47 39 120q0 71 -41 119.5t-111 48.5q-68 0 -109 -51q-39 -47 -39 -117q0 -71 38 -118q41 -52 110 -52zM501 468v-468h-90v73h-2q-60 -89 -159 -89q-104 0 -166 76q-58 70 -58 177q0 102 59 171q62 74 162 74q101 0 162 -92h2v78h90zM152 558
l111 110l112 -110l-26 -36l-86 73l-86 -73z" />
    <glyph glyph-name="atilde" unicode="&#xe3;" horiz-adv-x="556" 
d="M264 64q72 0 113 50q39 47 39 120q0 71 -41 119.5t-111 48.5q-68 0 -109 -51q-39 -47 -39 -117q0 -71 38 -118q41 -52 110 -52zM501 468v-468h-90v73h-2q-60 -89 -159 -89q-104 0 -166 76q-58 70 -58 177q0 102 59 171q62 74 162 74q101 0 162 -92h2v78h90zM152 560
l-26 21l4 5q45 56 91 58q28 1 59 -16q23 -13 44 -11q25 2 55 36l27 -26q-44 -59 -99 -62q-15 -3 -52 13.5t-53 15.5q-28 -1 -50 -34z" />
    <glyph glyph-name="adieresis" unicode="&#xe4;" horiz-adv-x="556" 
d="M264 64q71 0 113 50q39 48 39 120t-40 118q-42 50 -112 50q-68 0 -108 -49.5t-40 -118.5q0 -71 38 -118q41 -52 110 -52zM501 468v-468h-90v73h-2q-60 -89 -159 -89q-104 0 -166 76q-58 70 -58 177q0 101 59 171q63 74 162 74q101 0 162 -92h2v78h90zM173 694
q25 0 42.5 -17.5t17.5 -42.5t-17.5 -43t-42.5 -18t-43 18t-18 43t18 42.5t43 17.5zM384 694q25 0 42.5 -17.5t17.5 -42.5t-17.5 -43t-42.5 -18t-43 18t-18 43t18 42.5t43 17.5z" />
    <glyph glyph-name="aring" unicode="&#xe5;" horiz-adv-x="556" 
d="M264 64q71 0 113 50q39 48 39 120t-40 118q-42 50 -112 50q-68 0 -108 -49.5t-40 -118.5q0 -71 38 -118q41 -52 110 -52zM501 468v-468h-90v73h-2q-60 -89 -159 -89q-104 0 -166 76q-58 70 -58 177q0 101 59 171q63 74 162 74q101 0 162 -92h2v78h90zM278 734
q38 0 64.5 -26.5t26.5 -64.5t-26.5 -64t-64.5 -26q-37 0 -63.5 26.5t-26.5 63.5q0 38 26 64.5t64 26.5zM278 598q19 0 32.5 13t13.5 32t-13.5 32.5t-32.5 13.5t-32 -13.5t-13 -32.5t13 -32t32 -13z" />
    <glyph glyph-name="ae" unicode="&#xe6;" horiz-adv-x="807" 
d="M442 287h262q-8 54 -41.5 85.5t-87.5 31.5q-52 0 -88.5 -32.5t-44.5 -84.5zM221 218q-41 0 -73 -19q-38 -22 -38 -60t40 -58q33 -17 74 -17q43 0 75 18q41 21 41 60q0 38 -43 59q-34 17 -76 17zM792 219h-357q1 -63 40 -109t101 -46q85 0 140 91l76 -43
q-33 -60 -90.5 -94t-126.5 -34q-105 0 -180 87q-58 -87 -179 -87q-77 0 -130 37q-60 42 -60 116t53 117q49 40 124 40q90 0 142 -43v32q0 121 -123 121q-81 0 -128 -15v80q66 13 141 13q117 0 160 -77q62 77 178 77q107 0 166 -72q53 -67 53 -177v-14z" />
    <glyph glyph-name="ccedilla" unicode="&#xe7;" horiz-adv-x="441" 
d="M406 451v-116q-55 63 -134 63q-66 0 -111 -49t-45 -115q0 -72 45 -119t117 -47q73 0 128 62v-115q-58 -31 -129 -31q-105 0 -178 71t-73 175q0 109 73.5 180.5t182.5 71.5q71 0 124 -31zM300 -46l-105 -135l-53 27l87 137z" />
    <glyph glyph-name="egrave" unicode="&#xe8;" horiz-adv-x="488" 
d="M473 219h-357q1 -64 39 -108q40 -47 102 -47q85 0 140 91l76 -43q-33 -60 -90.5 -94t-126.5 -34q-106 0 -169 71q-61 68 -61 175q0 113 57 180q60 72 171 72q109 0 166 -72q53 -66 53 -177v-14zM121 287h262q-17 117 -129 117q-52 0 -88.5 -32.5t-44.5 -84.5zM275 595
l-20 -34l-146 132l73 40z" />
    <glyph glyph-name="eacute" unicode="&#xe9;" horiz-adv-x="488" 
d="M473 219h-357q1 -64 39 -108q40 -47 102 -47q85 0 140 91l76 -43q-33 -60 -90.5 -94t-126.5 -34q-106 0 -169 71q-61 68 -61 175q0 113 57 180q60 72 171 72q109 0 166 -72q53 -66 53 -177v-14zM121 287h262q-17 117 -129 117q-52 0 -88.5 -32.5t-44.5 -84.5zM326 732
l74 -40l-147 -132l-20 34z" />
    <glyph glyph-name="ecircumflex" unicode="&#xea;" horiz-adv-x="488" 
d="M473 219h-357q1 -64 39 -108q40 -47 102 -47q85 0 140 91l76 -43q-33 -60 -90.5 -94t-126.5 -34q-106 0 -169 71q-61 68 -61 175q0 113 57 180q60 72 171 72q109 0 166 -72q53 -66 53 -177v-14zM121 287h262q-17 117 -129 117q-52 0 -88.5 -32.5t-44.5 -84.5zM142 559
l111 110l112 -110l-26 -36l-86 73l-86 -73z" />
    <glyph glyph-name="edieresis" unicode="&#xeb;" horiz-adv-x="488" 
d="M473 219h-357q1 -63 40 -109t101 -46q85 0 140 91l76 -43q-33 -60 -90.5 -94t-126.5 -34q-105 0 -169 71q-61 68 -61 175q0 113 57 180q60 72 171 72q107 0 166 -72q53 -67 53 -177v-14zM121 287h262q-8 54 -41.5 85.5t-87.5 31.5q-52 0 -88.5 -32.5t-44.5 -84.5z
M139 694q25 0 42.5 -17.5t17.5 -42.5t-17.5 -43t-42.5 -18t-43 18t-18 43t18 42.5t43 17.5zM350 694q25 0 42.5 -17.5t17.5 -42.5t-17.5 -43t-42.5 -18t-43 18t-18 43t18 42.5t43 17.5z" />
    <glyph glyph-name="igrave" unicode="&#xec;" horiz-adv-x="254" 
d="M172 468v-468h-90v468h90zM146 581l-20 -34l-146 132l73 40z" />
    <glyph glyph-name="iacute" unicode="&#xed;" horiz-adv-x="254" 
d="M172 468v-468h-90v468h90zM198 718l74 -40l-147 -132l-20 34z" />
    <glyph glyph-name="icircumflex" unicode="&#xee;" horiz-adv-x="254" 
d="M172 468v-468h-90v468h90zM-33 589l159 145l161 -145l-59 -46l-102 96l-101 -96z" />
    <glyph glyph-name="idieresis" unicode="&#xef;" horiz-adv-x="254" 
d="M172 468v-468h-90v468h90zM22 694q25 0 42.5 -17.5t17.5 -42.5t-17.5 -43t-42.5 -18t-43 18t-18 43t18 42.5t43 17.5zM233 694q25 0 42.5 -17.5t17.5 -42.5t-17.5 -43t-42.5 -18t-43 18t-18 43t18 42.5t43 17.5z" />
    <glyph glyph-name="eth" unicode="&#xf0;" horiz-adv-x="540" 
d="M270 396q-67 0 -113.5 -48t-46.5 -115t47 -115t113 -48t113 48t47 115t-46.5 115t-113.5 48zM46 824l78 44l101 -111l146 83l49 -54l-145 -84q75 -89 165 -234q80 -129 80 -235q0 -109 -70 -179t-180 -70q-106 0 -178 71.5t-72 177.5t72 177.5t178 71.5q35 0 66 -14l2 2
q-88 140 -141 188l-158 -91l-50 55l158 91z" />
    <glyph glyph-name="ntilde" unicode="&#xf1;" horiz-adv-x="523" 
d="M152 468v-63h2q43 77 141 77q166 0 166 -203v-279h-90v268q0 68 -17 96q-23 38 -86 38q-76 0 -101 -62q-15 -38 -15 -125v-215h-90v468h90zM118 573v0l-47 40l3 5q46 76 108 76q34 0 89 -26.5t72 -26.5q35 0 64 48l47 -39q-40 -82 -118 -82q-27 0 -81 25.5t-80 25.5
q-35 0 -57 -46z" />
    <glyph glyph-name="ograve" unicode="&#xf2;" horiz-adv-x="540" 
d="M270 482q107 0 178.5 -71t71.5 -178t-71.5 -178t-178.5 -71t-178.5 71t-71.5 178t71.5 178t178.5 71zM270 396q-67 0 -113.5 -47.5t-46.5 -115.5q0 -67 46.5 -115t113.5 -48t113.5 48t46.5 115q0 68 -46.5 115.5t-113.5 47.5zM291 595l-20 -34l-146 132l73 40z" />
    <glyph glyph-name="oacute" unicode="&#xf3;" horiz-adv-x="540" 
d="M270 482q107 0 178.5 -71t71.5 -178t-71.5 -178t-178.5 -71t-178.5 71t-71.5 178t71.5 178t178.5 71zM270 396q-67 0 -113.5 -47.5t-46.5 -115.5q0 -67 46.5 -115t113.5 -48t113.5 48t46.5 115q0 68 -46.5 115.5t-113.5 47.5zM342 732l74 -40l-147 -132l-20 34z" />
    <glyph glyph-name="ocircumflex" unicode="&#xf4;" horiz-adv-x="540" 
d="M270 482q107 0 178.5 -71t71.5 -178t-71.5 -178t-178.5 -71t-178.5 71t-71.5 178t71.5 178t178.5 71zM270 396q-67 0 -113.5 -47.5t-46.5 -115.5q0 -67 46.5 -115t113.5 -48t113.5 48t46.5 115q0 68 -46.5 115.5t-113.5 47.5zM159 559l111 110l112 -110l-26 -36l-86 73
l-86 -73z" />
    <glyph glyph-name="otilde" unicode="&#xf5;" horiz-adv-x="540" 
d="M270 482q107 0 178.5 -71t71.5 -178t-71.5 -178t-178.5 -71t-178.5 71t-71.5 178t71.5 178t178.5 71zM270 396q-67 0 -113.5 -47.5t-46.5 -115.5q0 -67 46.5 -115t113.5 -48t113.5 48t46.5 115q0 68 -46.5 115.5t-113.5 47.5zM158 560l-26 21l4 5q45 56 91 58
q28 1 59 -16q23 -13 44 -11q25 2 55 36l27 -26q-44 -59 -99 -62q-15 -3 -52 13.5t-53 15.5q-28 -1 -50 -34z" />
    <glyph glyph-name="odieresis" unicode="&#xf6;" horiz-adv-x="540" 
d="M270 482q106 0 178 -71.5t72 -177.5t-72 -177.5t-178 -71.5t-178 71.5t-72 177.5t72 177.5t178 71.5zM270 396q-67 0 -113.5 -48t-46.5 -115t47 -115t113 -48t113 48t47 115t-46.5 115t-113.5 48zM165 694q25 0 42.5 -17.5t17.5 -42.5t-17.5 -43t-42.5 -18t-43 18t-18 43
t18 42.5t43 17.5zM376 694q25 0 42.5 -17.5t17.5 -42.5t-17.5 -43t-42.5 -18t-43 18t-18 43t18 42.5t43 17.5z" />
    <glyph glyph-name="divide" unicode="&#xf7;" 
d="M33 213v86h512v-86h-512zM289 124q26 0 44 -18.5t18 -44.5t-18 -43.5t-44 -17.5t-44 17.5t-18 43.5t18 44.5t44 18.5zM289 512q26 0 44 -18.5t18 -44.5t-18 -43.5t-44 -17.5t-44 17.5t-18 43.5t18 44.5t44 18.5z" />
    <glyph glyph-name="oslash" unicode="&#xf8;" horiz-adv-x="540" 
d="M526 459l-65 -64q59 -79 59 -162q0 -106 -72 -177.5t-178 -71.5q-93 0 -163 58l-61 -64l-31 31l61 62q-56 78 -56 162q0 106 72 177.5t178 71.5q92 0 159 -58l66 67zM142 134l223 229q-42 33 -95 33q-67 0 -113.5 -48t-46.5 -115q0 -52 32 -99zM395 330l-222 -228
q39 -32 97 -32q66 0 113 48t47 115q0 57 -35 97z" />
    <glyph glyph-name="ugrave" unicode="&#xf9;" horiz-adv-x="512" 
d="M58 468h90v-259q0 -141 108 -141t108 141v259h90v-269q0 -101 -48 -156q-51 -59 -150 -59t-150 59q-48 55 -48 156v269zM273 557l-20 -34l-146 132l73 40z" />
    <glyph glyph-name="uacute" unicode="&#xfa;" horiz-adv-x="512" 
d="M58 468h90v-259q0 -141 108 -141t108 141v259h90v-269q0 -101 -48 -156q-51 -59 -150 -59t-150 59q-48 55 -48 156v269zM324 695l74 -40l-147 -132l-20 34z" />
    <glyph glyph-name="ucircumflex" unicode="&#xfb;" horiz-adv-x="512" 
d="M58 468h90v-259q0 -141 108 -141t108 141v259h90v-269q0 -101 -48 -156q-51 -59 -150 -59t-150 59q-48 55 -48 156v269zM96 589l159 145l161 -145l-59 -46l-102 96l-101 -96z" />
    <glyph glyph-name="udieresis" unicode="&#xfc;" horiz-adv-x="512" 
d="M58 468h90v-259q0 -141 108 -141t108 141v259h90v-269q0 -101 -48 -156q-51 -59 -150 -59t-150 59q-48 55 -48 156v269zM151 694q25 0 42.5 -17.5t17.5 -42.5t-17.5 -43t-42.5 -18t-43 18t-18 43t18 42.5t43 17.5zM362 694q25 0 42.5 -17.5t17.5 -42.5t-17.5 -43
t-42.5 -18t-43 18t-18 43t18 42.5t43 17.5z" />
    <glyph glyph-name="yacute" unicode="&#xfd;" horiz-adv-x="484" 
d="M201 80l-214 388h105l158 -297l147 297h101l-379 -736h-102zM324 685l74 -40l-148 -132l-19 34z" />
    <glyph glyph-name="thorn" unicode="&#xfe;" horiz-adv-x="556" 
d="M145 868v-478h2q61 92 163 92q99 0 162 -74q58 -70 58 -171q0 -107 -58 -177q-62 -76 -166 -76q-99 0 -159 89h-2v-341h-90v1136h90zM288 64q71 0 113 50q39 48 39 120t-40 118q-42 50 -112 50q-68 0 -108 -49.5t-40 -118.5q0 -71 38 -118q41 -52 110 -52z" />
    <glyph glyph-name="ydieresis" unicode="&#xff;" horiz-adv-x="484" 
d="M201 80l-214 388h105l158 -297l147 297h101l-379 -736h-102zM137 694q25 0 42.5 -17.5t17.5 -42.5t-17.5 -43t-42.5 -18t-43 18t-18 43t18 42.5t43 17.5zM348 694q25 0 42.5 -17.5t17.5 -42.5t-17.5 -43t-42.5 -18t-43 18t-18 43t18 42.5t43 17.5z" />
    <glyph glyph-name="glyph271" unicode="&#x102;" horiz-adv-x="703" 
d="M525 189h-346l-86 -189h-101l360 786l360 -786h-101zM486 275l-134 305l-134 -305h268zM218 923h52q23 -55 82 -55t82 55h52q-9 -50 -45.5 -76.5t-88.5 -26.5q-51 0 -88 27t-46 76z" />
    <glyph glyph-name="glyph272" unicode="&#x103;" horiz-adv-x="556" 
d="M264 64q72 0 113 50q39 47 39 120q0 71 -41 119.5t-111 48.5q-68 0 -109 -51q-39 -47 -39 -117q0 -71 38 -118q41 -52 110 -52zM501 468v-468h-90v73h-2q-60 -89 -159 -89q-104 0 -166 76q-58 70 -58 177q0 102 59 171q62 74 162 74q101 0 162 -92h2v78h90zM113 635h52
q23 -55 82 -55t82 55h52q-9 -50 -45.5 -76.5t-88.5 -26.5q-51 0 -88 27t-46 76z" />
    <glyph glyph-name="Cacute" unicode="&#x106;" horiz-adv-x="711" 
d="M621 719v-109q-83 74 -199 74q-126 0 -212 -90.5t-86 -217.5q0 -126 85 -216t211 -90q114 0 201 78v-111q-90 -53 -198 -53q-164 0 -278.5 113t-114.5 276q0 168 116.5 282.5t284.5 114.5q107 0 190 -51zM378 989l83 -44l-164 -149l-44 27z" />
    <glyph glyph-name="cacute" unicode="&#x107;" horiz-adv-x="441" 
d="M406 451v-116q-55 63 -134 63q-66 0 -111 -49t-45 -115q0 -72 45 -119t117 -47q73 0 128 62v-115q-58 -31 -129 -31q-105 0 -178 71t-73 175q0 109 73.5 180.5t182.5 71.5q71 0 124 -31zM179 734l83 -44l-164 -149l-44 27z" />
    <glyph glyph-name="Ccaron" unicode="&#x10c;" horiz-adv-x="711" 
d="M621 719v-109q-83 74 -199 74q-126 0 -212 -90.5t-86 -217.5q0 -126 85 -216t211 -90q114 0 201 78v-111q-90 -53 -198 -53q-164 0 -278.5 113t-114.5 276q0 168 116.5 282.5t284.5 114.5q107 0 190 -51zM253 943l58 46l101 -96l102 96l59 -46l-161 -145z" />
    <glyph glyph-name="ccaron" unicode="&#x10d;" horiz-adv-x="441" 
d="M406 451v-116q-55 63 -134 63q-66 0 -111 -49t-45 -115q0 -72 45 -119t117 -47q73 0 128 62v-115q-58 -31 -129 -31q-105 0 -178 71t-73 175q0 109 73.5 180.5t182.5 71.5q71 0 124 -31zM54 688l58 46l101 -96l102 96l59 -46l-161 -145z" />
    <glyph glyph-name="Dslash" unicode="&#x110;" horiz-adv-x="665" 
d="M64 450v304h156q186 0 299 -92q124 -100 124 -281q0 -186 -123 -287q-113 -94 -303 -94h-153v362h-64v88h64zM158 668v-218h134v-88h-134v-276h33q161 0 252 63q106 74 106 228t-106 228q-91 63 -252 63h-33z" />
    <glyph glyph-name="dcroat" unicode="&#x111;" horiz-adv-x="556" 
d="M264 64q72 0 113 50q39 47 39 120q0 71 -41 119.5t-111 48.5q-68 0 -109 -51q-39 -47 -39 -117q0 -71 38 -118q41 -52 110 -52zM411 548h-166v84h166v236h90v-236h54v-84h-54v-548h-90v73h-2q-60 -89 -159 -89q-104 0 -166 76q-58 70 -58 177q0 102 58 171q62 74 162 74
q102 0 163 -92h2v158z" />
    <glyph glyph-name="Gbreve" unicode="&#x11e;" horiz-adv-x="767" 
d="M460 380h299v-30q0 -158 -100 -262t-257 -104q-158 0 -269.5 116t-111.5 275q0 164 114 279.5t277 115.5q89 0 170.5 -38.5t136.5 -107.5l-66 -63q-41 56 -105 89.5t-132 33.5q-127 0 -214 -89t-87 -217q0 -122 86 -215t207 -93q91 0 167.5 67t79.5 157h-195v86zM267 949
h72q32 -75 102 -75q69 0 103 75h71q-11 -63 -60.5 -102t-113.5 -39t-113 39.5t-61 101.5z" />
    <glyph glyph-name="gbreve" unicode="&#x11f;" horiz-adv-x="492" 
d="M263 64q71 0 113 50q39 48 39 120t-40 118q-42 50 -112 50q-68 0 -108 -49.5t-40 -118.5q0 -71 38 -118q41 -52 110 -52zM500 468v-459q0 -133 -46 -199q-55 -78 -182 -78q-99 0 -162 57t-64 155h90q0 -62 38.5 -97t101.5 -35q77 0 109 50q25 40 25 122v89h-2
q-60 -89 -159 -89q-104 0 -166 76q-58 70 -58 177q0 101 58 171q63 74 162 74q103 0 163 -94h2v80h90zM67 694h72q32 -75 102 -75q69 0 103 75h71q-11 -63 -60.5 -102t-113.5 -39t-113 39.5t-61 101.5z" />
    <glyph glyph-name="glyph273" unicode="&#x128;" horiz-adv-x="232" 
d="M163 754v-754h-94v754h94zM2 840l-25 22l3 4q43 57 92 59q29 1 60 -16q22 -12 45 -11t56 36l26 -26q-42 -59 -100 -63q-17 -1 -54.5 15t-51.5 15q-28 -2 -51 -35z" />
    <glyph glyph-name="glyph274" unicode="&#x129;" horiz-adv-x="254" 
d="M172 468v-468h-90v468h90zM14 547l-26 21l4 5q45 56 91 58q28 1 59 -16q23 -13 44 -11q25 2 55 36l27 -26q-44 -59 -99 -62q-15 -3 -52 13.5t-53 15.5q-28 -1 -50 -34z" />
    <glyph glyph-name="Idotaccent" unicode="&#x130;" horiz-adv-x="429" 
d="M163 754v-754h-94v754h94zM208 949q25 0 42.5 -17.5t17.5 -42.5t-17.5 -43t-42.5 -18t-43 18t-18 43t18 42.5t43 17.5z" />
    <glyph glyph-name="dotlessi" unicode="&#x131;" horiz-adv-x="254" 
d="M172 468v-468h-90v468h90z" />
    <glyph glyph-name="Lslash" unicode="&#x141;" horiz-adv-x="385" 
d="M166 754v-284l118 83v-96l-118 -79v-292h229v-86h-323v320l-81 -58v97l81 54v341h94z" />
    <glyph glyph-name="lslash" unicode="&#x142;" horiz-adv-x="255" 
d="M179 868v-316l82 64v-94l-82 -61v-461h-90v412l-81 -61v93l81 57v367h90z" />
    <glyph glyph-name="OE" unicode="&#x152;" horiz-adv-x="1143" 
d="M718 0v126h-2q-51 -69 -134 -107q-78 -35 -168 -35q-167 0 -281 113.5t-114 279.5q0 163 116 279t279 114q89 -1 169 -39q84 -39 133 -109h2v132h395v-86h-310v-211h301v-86h-301v-285h310v-86h-395zM414 72q126 0 213.5 89.5t87.5 215.5q0 130 -85.5 217.5t-215.5 87.5
q-129 0 -215 -88t-86 -217q0 -126 87.5 -215.5t213.5 -89.5z" />
    <glyph glyph-name="oe" unicode="&#x153;" horiz-adv-x="897" 
d="M529 287h262q-8 54 -41.5 85.5t-87.5 31.5q-52 0 -88.5 -32.5t-44.5 -84.5zM270 396q-67 0 -113.5 -48t-46.5 -115t47 -115t113 -48t113 48t47 115t-46.5 115t-113.5 48zM882 219h-357q1 -63 40 -109t101 -46q85 0 140 91l76 -43q-33 -60 -90.5 -94t-126.5 -34
q-60 0 -111 26q-55 28 -84 77q-33 -49 -86.5 -76t-113.5 -27q-106 0 -178 71.5t-72 177.5t72 178t178 71q59 -1 113.5 -29t86.5 -76q65 103 193 105q107 1 166 -72q53 -67 53 -177v-14z" />
    <glyph glyph-name="Scedilla" unicode="&#x15e;" horiz-adv-x="656" 
d="M482 656l-75 -45q-42 71 -121 71q-48 0 -85 -29q-41 -31 -41 -78q0 -67 105 -108l54 -21q90 -35 134 -82q53 -57 53 -145q0 -102 -69 -168.5t-172 -66.5q-92 0 -156.5 59.5t-76.5 151.5l95 20q-1 -62 41.5 -102.5t104.5 -40.5q60 0 99.5 43t39.5 104q0 55 -41 92
q-28 25 -89 51l-52 22q-164 69 -164 191q0 88 68 144q64 51 154 51q130 0 194 -114zM283 -46l-105 -135l-53 27l87 137z" />
    <glyph glyph-name="scedilla" unicode="&#x15f;" horiz-adv-x="383" 
d="M323 400l-73 -39q-20 41 -60 41q-19 0 -34 -13.5t-15 -32.5q0 -33 56 -60q95 -46 105 -53q56 -40 56 -104q0 -66 -47 -110.5t-114 -44.5q-52 0 -98 28.5t-64 76.5l77 35q33 -60 85 -60q29 0 50 18.5t21 47.5t-33 51l-88 47q-47 25 -65 45q-25 28 -25 73q0 57 40.5 96.5
t97.5 39.5q88 0 128 -82zM186 -46l-105 -135l-53 27l87 137z" />
    <glyph glyph-name="Scaron" unicode="&#x160;" horiz-adv-x="537" 
d="M482 656l-75 -45q-42 71 -121 71q-48 0 -85 -29q-41 -31 -41 -78q0 -67 105 -108l54 -21q90 -35 134 -82q53 -57 53 -145q0 -102 -69 -168.5t-172 -66.5q-92 0 -156.5 59.5t-76.5 151.5l95 20q-1 -62 41.5 -102.5t104.5 -40.5q60 0 99.5 43t39.5 104q0 55 -41 92
q-28 25 -89 51l-52 22q-164 69 -164 191q0 88 68 144q64 51 154 51q130 0 194 -114zM109 974l58 46l101 -96l102 96l59 -46l-161 -145z" />
    <glyph glyph-name="scaron" unicode="&#x161;" horiz-adv-x="384" 
d="M323 400l-73 -39q-20 41 -60 41q-19 0 -34 -13.5t-15 -32.5q0 -33 56 -60q95 -46 105 -53q56 -40 56 -104q0 -66 -47 -110.5t-114 -44.5q-52 0 -98 28.5t-64 76.5l77 35q33 -60 85 -60q29 0 50 18.5t21 47.5t-33 51l-88 47q-47 25 -65 45q-25 28 -25 73q0 57 40.5 96.5
t97.5 39.5q88 0 128 -82zM32 688l58 46l101 -96l102 96l59 -46l-161 -145z" />
    <glyph glyph-name="ch903" unicode="&#x168;" horiz-adv-x="669" 
d="M59 754h94v-445q0 -237 182 -237t182 237v445h94v-477q0 -129 -73 -209q-75 -84 -203 -84t-203 84q-73 80 -73 209v477zM219 791l-25 22l3 4q43 57 92 59q29 1 60 -16q22 -12 45 -11t56 36l26 -26q-42 -59 -100 -63q-17 -1 -54.5 15t-51.5 15q-28 -2 -51 -35z" />
    <glyph glyph-name="ch904" unicode="&#x169;" horiz-adv-x="512" 
d="M58 468h90v-259q0 -141 108 -141t108 141v259h90v-269q0 -101 -48 -156q-51 -59 -150 -59t-150 59q-48 55 -48 156v269zM142 533l-26 21l4 5q45 56 91 58q28 1 59 -16q23 -13 44 -11q25 2 55 36l27 -26q-44 -59 -99 -62q-15 -3 -52 13.5t-53 15.5q-28 -1 -50 -34z" />
    <glyph glyph-name="Ydieresis" unicode="&#x178;" horiz-adv-x="573" 
d="M240 328l-246 426h108l185 -322l185 322h108l-246 -426v-328h-94v328zM182 980q25 0 42.5 -17.5t17.5 -42.5t-17.5 -43t-42.5 -18t-43 18t-18 43t18 42.5t43 17.5zM393 980q25 0 42.5 -17.5t17.5 -42.5t-17.5 -43t-42.5 -18t-43 18t-18 43t18 42.5t43 17.5z" />
    <glyph glyph-name="Zcaron" unicode="&#x17d;" horiz-adv-x="552" 
d="M162 86h382v-86h-535l382 668h-328v86h481zM116 974l58 46l101 -96l102 96l59 -46l-161 -145z" />
    <glyph glyph-name="zcaron" unicode="&#x17e;" horiz-adv-x="495" 
d="M177 84h304v-84h-479l317 384h-263v84h438zM88 688l58 46l101 -96l102 96l59 -46l-161 -145z" />
    <glyph glyph-name="florin" unicode="&#x192;" 
d="M355 505h129l-9 -68h-131l-55 -303q-27 -148 -64 -202q-56 -81 -187 -81h-24l15 86h19q77 0 111 59q19 33 36 133l53 308h-65l9 68h70l21 124q17 101 55 148q48 59 142 59q33 0 60 -7l-16 -84q-18 7 -41 7q-53 0 -78 -42q-15 -25 -28 -92z" />
    <glyph glyph-name="glyph277" unicode="&#x1a0;" horiz-adv-x="828" 
d="M414 72q127 0 214 89t87 216q0 131 -85 218t-216 87q-130 0 -215.5 -87.5t-85.5 -217.5q0 -127 87 -216t214 -89zM528 753l157 1q18 11 18 29q0 7 -2 13q-5 24 -45 28l-2 2l52 14q64 0 64 -51q0 -37 -42 -65q-37 -17 -85 -28q79 -56 122.5 -139.5t43.5 -179.5
q0 -168 -113.5 -280.5t-281.5 -112.5t-281.5 112.5t-113.5 280.5q0 164 115.5 278.5t279.5 114.5q58 0 114 -17z" />
    <glyph glyph-name="glyph278" unicode="&#x1a1;" horiz-adv-x="540" 
d="M270 396q-67 0 -113.5 -47.5t-46.5 -115.5q0 -67 46.5 -115t113.5 -48t113.5 48t46.5 115q0 68 -46.5 115.5t-113.5 47.5zM355 468h60q15 10 15 24q0 5 -2 10q-3 18 -36 23l-2 1l42 12q52 0 52 -41q0 -29 -37 -54q-16 -8 -28 -8q101 -73 101 -202q0 -107 -71.5 -178
t-178.5 -71t-178.5 71t-71.5 178t71.5 178t178.5 71q43 0 85 -14z" />
    <glyph glyph-name="glyph279" unicode="&#x1af;" horiz-adv-x="669" 
d="M610 754q18 11 18 29q0 7 -2 13q-5 24 -45 28l-2 2l52 14q64 0 64 -50q0 -37 -45 -67q-25 -11 -39 -10v-436q0 -129 -73 -209q-75 -84 -203 -84t-203 84q-73 80 -73 209v477h94v-445q0 -237 182 -237t182 237v445h93z" />
    <glyph glyph-name="glyph280" unicode="&#x1b0;" horiz-adv-x="512" 
d="M454 435v-236q0 -101 -48 -156q-51 -59 -150 -59t-150 59q-48 55 -48 156v269h90v-259q0 -141 108 -141t108 141v259h88q15 10 15 24q0 5 -2 10q-3 18 -36 23l-2 1l42 12q52 0 52 -41q0 -29 -37 -54q-20 -9 -30 -8z" />
    <glyph glyph-name="circumflex" unicode="&#x2c6;" horiz-adv-x="470" 
d="M75 589l159 145l161 -145l-59 -46l-102 96l-101 -96z" />
    <glyph glyph-name="caron" unicode="&#x2c7;" horiz-adv-x="472" 
d="M76 688l58 46l101 -96l102 96l59 -46l-161 -145z" />
    <glyph glyph-name="breve" unicode="&#x2d8;" horiz-adv-x="490" 
d="M71 694h72q32 -75 102 -75q69 0 103 75h71q-11 -63 -60.5 -102t-113.5 -39t-113 39.5t-61 101.5z" />
    <glyph glyph-name="dotaccent" unicode="&#x2d9;" horiz-adv-x="360" 
d="M181 694q25 0 42.5 -17.5t17.5 -42.5t-17.5 -43t-42.5 -18t-43 18t-18 43t18 42.5t43 17.5z" />
    <glyph glyph-name="ring" unicode="&#x2da;" horiz-adv-x="360" 
d="M180 734q38 0 64.5 -26.5t26.5 -64.5t-26.5 -64t-64.5 -26q-37 0 -63.5 26.5t-26.5 63.5q0 38 26 64.5t64 26.5zM180 598q19 0 32.5 13t13.5 32t-13.5 32.5t-32.5 13.5t-32 -13.5t-13 -32.5t13 -32t32 -13z" />
    <glyph glyph-name="ogonek" unicode="&#x2db;" horiz-adv-x="340" 
d="M165 -16h46v-2q-61 -41 -61 -85q0 -47 56 -47q31 0 50 13l-7 -58q-27 -17 -64 -17q-40 0 -69 21q-32 23 -32 61q0 65 81 114z" />
    <glyph glyph-name="tilde" unicode="&#x2dc;" horiz-adv-x="510" 
d="M111 573v0l-47 40l3 5q46 76 108 76q34 0 89 -26.5t72 -26.5q35 0 64 48l47 -39q-40 -82 -118 -82q-27 0 -81 25.5t-80 25.5q-35 0 -57 -46z" />
    <glyph glyph-name="hungarumlaut" unicode="&#x2dd;" horiz-adv-x="470" 
d="M349 725l83 -44l-164 -149l-44 27zM163 734l83 -44l-164 -149l-44 27z" />
    <glyph glyph-name="glyph281" unicode="&#x1ea0;" horiz-adv-x="703" 
d="M525 189h-346l-86 -189h-101l360 786l360 -786h-101zM486 275l-134 305l-134 -305h268zM352 -30q22 0 37 -15t15 -37t-15 -37t-37 -15t-37 15t-15 37t15 37t37 15z" />
    <glyph glyph-name="glyph282" unicode="&#x1ea1;" horiz-adv-x="556" 
d="M264 64q72 0 113 50q39 47 39 120q0 71 -41 119.5t-111 48.5q-68 0 -109 -51q-39 -47 -39 -117q0 -71 38 -118q41 -52 110 -52zM501 468v-468h-90v73h-2q-60 -89 -159 -89q-104 0 -166 76q-58 70 -58 177q0 102 59 171q62 74 162 74q101 0 162 -92h2v78h90zM250 -70
q21 0 36.5 -15.5t15.5 -36.5q0 -22 -15 -37t-37 -15t-37 15t-15 37q0 21 15.5 36.5t36.5 15.5z" />
    <glyph glyph-name="glyph283" unicode="&#x1ea2;" horiz-adv-x="703" 
d="M525 189h-346l-86 -189h-101l360 786l360 -786h-101zM486 275l-134 305l-134 -305h268zM388 907q32 10 32 32q0 31 -31 31t-31 -34h-40q-1 29 20.5 50.5t50.5 21.5q30 0 50.5 -20.5t20.5 -50.5q0 -44 -56 -64q-28 -10 -37 -16q-18 -12 -18 -31q-22 17 -22 40q0 22 61 41z
" />
    <glyph glyph-name="glyph284" unicode="&#x1ea3;" horiz-adv-x="556" 
d="M264 64q72 0 113 50q39 47 39 120q0 71 -41 119.5t-111 48.5q-68 0 -109 -51q-39 -47 -39 -117q0 -71 38 -118q41 -52 110 -52zM501 468v-468h-90v73h-2q-60 -89 -159 -89q-104 0 -166 76q-58 70 -58 177q0 102 59 171q62 74 162 74q101 0 162 -92h2v78h90zM303 630
q32 10 32 32q0 32 -31 32t-31 -34h-39q-1 28 20.5 49.5t49.5 21.5q30 0 51 -20t21 -50q0 -44 -57 -65q-29 -10 -37 -16q-18 -12 -18 -30q-22 16 -22 40q0 21 61 40z" />
    <glyph glyph-name="glyph285" unicode="&#x1ea4;" horiz-adv-x="703" 
d="M525 189h-346l-86 -189h-101l360 786l360 -786h-101zM486 275l-134 305l-134 -305h268zM240 837l112 111l114 -111l-27 -36l-87 74l-86 -74zM539 1049l75 -40l-148 -134l-20 35z" />
    <glyph glyph-name="glyph286" unicode="&#x1ea5;" horiz-adv-x="556" 
d="M264 64q72 0 113 50q39 47 39 120q0 71 -41 119.5t-111 48.5q-68 0 -109 -51q-39 -47 -39 -117q0 -71 38 -118q41 -52 110 -52zM501 468v-468h-90v73h-2q-60 -89 -159 -89q-104 0 -166 76q-58 70 -58 177q0 102 59 171q62 74 162 74q101 0 162 -92h2v78h90zM152 558
l111 110l112 -110l-26 -36l-86 73l-86 -73zM448 767l74 -40l-147 -132l-20 34z" />
    <glyph glyph-name="glyph287" unicode="&#x1ea6;" horiz-adv-x="703" 
d="M525 189h-346l-86 -189h-101l360 786l360 -786h-101zM486 275l-134 305l-134 -305h268zM240 837l112 111l114 -111l-27 -36l-87 74l-86 -74zM260 910l-20 -35l-148 134l75 40z" />
    <glyph glyph-name="glyph288" unicode="&#x1ea7;" horiz-adv-x="556" 
d="M264 64q72 0 113 50q39 47 39 120q0 71 -41 119.5t-111 48.5q-68 0 -109 -51q-39 -47 -39 -117q0 -71 38 -118q41 -52 110 -52zM501 468v-468h-90v73h-2q-60 -89 -159 -89q-104 0 -166 76q-58 70 -58 177q0 102 59 171q62 74 162 74q101 0 162 -92h2v78h90zM154 558
l110 110l113 -110l-26 -36l-87 73l-85 -73zM174 629l-20 -34l-146 132l73 40z" />
    <glyph glyph-name="glyph289" unicode="&#x1ea8;" horiz-adv-x="703" 
d="M525 189h-346l-86 -189h-101l360 786l360 -786h-101zM486 275l-134 305l-134 -305h268zM240 837l112 111l114 -111l-27 -36l-87 74l-86 -74zM508 952q32 10 32 32q0 31 -31 31t-31 -34h-40q-1 29 20.5 50.5t50.5 21.5q30 0 50.5 -20.5t20.5 -50.5q0 -44 -56 -64
q-28 -10 -37 -16q-18 -12 -18 -31q-22 17 -22 40q0 22 61 41z" />
    <glyph glyph-name="glyph290" unicode="&#x1ea9;" horiz-adv-x="556" 
d="M264 64q72 0 113 50q39 47 39 120q0 71 -41 119.5t-111 48.5q-68 0 -109 -51q-39 -47 -39 -117q0 -71 38 -118q41 -52 110 -52zM501 468v-468h-90v73h-2q-60 -89 -159 -89q-104 0 -166 76q-58 70 -58 177q0 102 59 171q62 74 162 74q101 0 162 -92h2v78h90zM153 558
l111 110l113 -110l-27 -35l-86 72l-85 -72zM429 679q32 10 32 32q0 32 -31 32t-31 -34h-39q-1 28 20.5 49.5t49.5 21.5q30 0 51 -20t21 -50q0 -44 -57 -65q-29 -10 -37 -16q-18 -12 -18 -30q-22 16 -22 40q0 21 61 40z" />
    <glyph glyph-name="glyph291" unicode="&#x1eaa;" horiz-adv-x="703" 
d="M525 189h-346l-86 -189h-101l360 786l360 -786h-101zM486 275l-134 305l-134 -305h268zM240 837l112 111l114 -111l-27 -36l-87 74l-86 -74zM238 968l-25 22l3 4q43 57 92 59q29 1 60 -16q22 -12 45 -11t56 36l26 -26q-42 -59 -100 -63q-17 -1 -54.5 15t-51.5 15
q-28 -2 -51 -35z" />
    <glyph glyph-name="glyph292" unicode="&#x1eab;" horiz-adv-x="556" 
d="M264 64q72 0 113 50q39 47 39 120q0 71 -41 119.5t-111 48.5q-68 0 -109 -51q-39 -47 -39 -117q0 -71 38 -118q41 -52 110 -52zM501 468v-468h-90v73h-2q-60 -89 -159 -89q-104 0 -166 76q-58 70 -58 177q0 102 59 171q62 74 162 74q101 0 162 -92h2v78h90zM153 560
l111 110l113 -110l-28 -37l-85 74l-85 -74zM152 689l-26 21l4 5q45 56 91 58q28 1 59 -16q23 -13 44 -11q25 2 55 36l27 -26q-44 -59 -99 -62q-15 -3 -52 13.5t-53 15.5q-28 -1 -50 -34z" />
    <glyph glyph-name="glyph293" unicode="&#x1eac;" horiz-adv-x="703" 
d="M525 189h-346l-86 -189h-101l360 786l360 -786h-101zM486 275l-134 305l-134 -305h268zM240 837l112 111l114 -111l-27 -36l-87 74l-86 -74zM352 -30q22 0 37 -15t15 -37t-15 -37t-37 -15t-37 15t-15 37t15 37t37 15z" />
    <glyph glyph-name="glyph294" unicode="&#x1ead;" horiz-adv-x="556" 
d="M264 64q72 0 113 50q39 47 39 120q0 71 -41 119.5t-111 48.5q-68 0 -109 -51q-39 -47 -39 -117q0 -71 38 -118q41 -52 110 -52zM501 468v-468h-90v73h-2q-60 -89 -159 -89q-104 0 -166 76q-58 70 -58 177q0 102 59 171q62 74 162 74q101 0 162 -92h2v78h90zM152 558
l111 110l112 -110l-26 -36l-86 73l-86 -73zM250 -70q21 0 36.5 -15.5t15.5 -36.5q0 -22 -15 -37t-37 -15t-37 15t-15 37q0 21 15.5 36.5t36.5 15.5z" />
    <glyph glyph-name="glyph295" unicode="&#x1eae;" horiz-adv-x="703" 
d="M525 189h-346l-86 -189h-101l360 786l360 -786h-101zM486 275l-134 305l-134 -305h268zM218 923h52q23 -55 82 -55t82 55h52q-9 -50 -45.5 -76.5t-88.5 -26.5q-51 0 -88 27t-46 76zM424 1097l75 -40l-148 -134l-20 35z" />
    <glyph glyph-name="glyph296" unicode="&#x1eaf;" horiz-adv-x="556" 
d="M264 64q72 0 113 50q39 47 39 120q0 71 -41 119.5t-111 48.5q-68 0 -109 -51q-39 -47 -39 -117q0 -71 38 -118q41 -52 110 -52zM501 468v-468h-90v73h-2q-60 -89 -159 -89q-104 0 -166 76q-58 70 -58 177q0 102 59 171q62 74 162 74q101 0 162 -92h2v78h90zM113 635h52
q23 -55 82 -55t82 55h52q-9 -50 -45.5 -76.5t-88.5 -26.5q-51 0 -88 27t-46 76zM319 809l75 -40l-148 -134l-20 35z" />
    <glyph glyph-name="glyph297" unicode="&#x1eb0;" horiz-adv-x="703" 
d="M525 189h-346l-86 -189h-101l360 786l360 -786h-101zM486 275l-134 305l-134 -305h268zM218 923h52q23 -55 82 -55t82 55h52q-9 -50 -45.5 -76.5t-88.5 -26.5q-51 0 -88 27t-46 76zM373 958l-20 -35l-148 134l75 40z" />
    <glyph glyph-name="glyph298" unicode="&#x1eb1;" horiz-adv-x="556" 
d="M264 64q72 0 113 50q39 47 39 120q0 71 -41 119.5t-111 48.5q-68 0 -109 -51q-39 -47 -39 -117q0 -71 38 -118q41 -52 110 -52zM501 468v-468h-90v73h-2q-60 -89 -159 -89q-104 0 -166 76q-58 70 -58 177q0 102 59 171q62 74 162 74q101 0 162 -92h2v78h90zM113 635h52
q23 -55 82 -55t82 55h52q-9 -50 -45.5 -76.5t-88.5 -26.5q-51 0 -88 27t-46 76zM268 670l-20 -35l-148 134l75 40z" />
    <glyph glyph-name="glyph299" unicode="&#x1eb2;" horiz-adv-x="703" 
d="M525 189h-346l-86 -189h-101l360 786l360 -786h-101zM486 275l-134 305l-134 -305h268zM218 923h52q23 -55 82 -55t82 55h52q-9 -50 -45.5 -76.5t-88.5 -26.5q-51 0 -88 27t-46 76zM387 986q29 9 29 29q0 29 -28 29t-28 -31h-36q-1 26 18.5 45.5t45.5 19.5q27 0 46 -18.5
t19 -45.5q0 -29 -26 -47q-23 -10 -45 -21q-30 -16 -30 -33q-20 14 -20 36q0 20 55 37z" />
    <glyph glyph-name="glyph300" unicode="&#x1eb3;" horiz-adv-x="556" 
d="M264 64q72 0 113 50q39 47 39 120q0 71 -41 119.5t-111 48.5q-68 0 -109 -51q-39 -47 -39 -117q0 -71 38 -118q41 -52 110 -52zM501 468v-468h-90v73h-2q-60 -89 -159 -89q-104 0 -166 76q-58 70 -58 177q0 102 59 171q62 74 162 74q101 0 162 -92h2v78h90zM113 635h52
q23 -55 82 -55t82 55h52q-9 -50 -45.5 -76.5t-88.5 -26.5q-51 0 -88 27t-46 76zM283 717q32 10 32 32q0 31 -31 31t-31 -34h-40q-1 29 20.5 50.5t50.5 21.5q30 0 50.5 -20.5t20.5 -50.5q0 -44 -56 -64q-28 -10 -37 -16q-18 -12 -18 -31q-22 17 -22 40q0 22 61 41z" />
    <glyph glyph-name="glyph301" unicode="&#x1eb4;" horiz-adv-x="703" 
d="M525 189h-346l-86 -189h-101l360 786l360 -786h-101zM486 275l-134 305l-134 -305h268zM218 923h52q23 -55 82 -55t82 55h52q-9 -50 -45.5 -76.5t-88.5 -26.5q-51 0 -88 27t-46 76zM352 953l-25 22l3 4q43 57 92 59q29 1 60 -16q22 -12 45 -11t56 36l26 -26
q-42 -59 -100 -63q-17 -1 -54.5 15t-51.5 15q-28 -2 -51 -35z" />
    <glyph glyph-name="glyph302" unicode="&#x1eb5;" horiz-adv-x="556" 
d="M264 64q72 0 113 50q39 47 39 120q0 71 -41 119.5t-111 48.5q-68 0 -109 -51q-39 -47 -39 -117q0 -71 38 -118q41 -52 110 -52zM501 468v-468h-90v73h-2q-60 -89 -159 -89q-104 0 -166 76q-58 70 -58 177q0 102 59 171q62 74 162 74q101 0 162 -92h2v78h90zM114 625h52
q23 -55 82 -55t82 55h52q-9 -50 -45.5 -76.5t-88.5 -26.5q-51 0 -88 27t-46 76zM248 655l-25 22l3 4q43 57 92 59q29 1 60 -16q22 -12 45 -11t56 36l26 -26q-42 -59 -100 -63q-17 -1 -54.5 15t-51.5 15q-28 -2 -51 -35z" />
    <glyph glyph-name="glyph303" unicode="&#x1eb6;" horiz-adv-x="703" 
d="M525 189h-346l-86 -189h-101l360 786l360 -786h-101zM486 275l-134 305l-134 -305h268zM218 923h52q23 -55 82 -55t82 55h52q-9 -50 -45.5 -76.5t-88.5 -26.5q-51 0 -88 27t-46 76zM352 -30q22 0 37 -15t15 -37t-15 -37t-37 -15t-37 15t-15 37t15 37t37 15z" />
    <glyph glyph-name="glyph304" unicode="&#x1eb7;" horiz-adv-x="556" 
d="M264 64q72 0 113 50q39 47 39 120q0 71 -41 119.5t-111 48.5q-68 0 -109 -51q-39 -47 -39 -117q0 -71 38 -118q41 -52 110 -52zM501 468v-468h-90v73h-2q-60 -89 -159 -89q-104 0 -166 76q-58 70 -58 177q0 102 59 171q62 74 162 74q101 0 162 -92h2v78h90zM250 -70
q21 0 36.5 -15.5t15.5 -36.5q0 -22 -15 -37t-37 -15t-37 15t-15 37q0 21 15.5 36.5t36.5 15.5zM113 635h52q23 -55 82 -55t82 55h52q-9 -50 -45.5 -76.5t-88.5 -26.5q-51 0 -88 27t-46 76z" />
    <glyph glyph-name="glyph305" unicode="&#x1eb8;" horiz-adv-x="521" 
d="M72 0v754h405v-86h-311v-211h302v-86h-302v-285h311v-86h-405zM273 -50q22 0 37 -15t15 -37t-15 -37t-37 -15t-37 15t-15 37t15 37t37 15z" />
    <glyph glyph-name="glyph306" unicode="&#x1eb9;" horiz-adv-x="488" 
d="M473 219h-357q1 -64 39 -108q40 -47 102 -47q85 0 140 91l76 -43q-33 -60 -90.5 -94t-126.5 -34q-106 0 -169 71q-61 68 -61 175q0 113 57 180q60 72 171 72q109 0 166 -72q53 -66 53 -177v-14zM121 287h262q-17 117 -129 117q-52 0 -88.5 -32.5t-44.5 -84.5zM256 -70
q21 0 36.5 -15.5t15.5 -36.5q0 -22 -15 -37t-37 -15t-37 15t-15 37q0 21 15.5 36.5t36.5 15.5z" />
    <glyph glyph-name="glyph307" unicode="&#x1eba;" horiz-adv-x="521" 
d="M72 0v754h405v-86h-311v-211h302v-86h-302v-285h311v-86h-405zM309 908q32 10 32 32q0 31 -31 31t-31 -34h-40q-1 29 20.5 50.5t50.5 21.5q30 0 50.5 -20.5t20.5 -50.5q0 -44 -56 -64q-28 -10 -37 -16q-18 -12 -18 -31q-22 17 -22 40q0 22 61 41z" />
    <glyph glyph-name="glyph308" unicode="&#x1ebb;" horiz-adv-x="488" 
d="M473 219h-357q1 -64 39 -108q40 -47 102 -47q85 0 140 91l76 -43q-33 -60 -90.5 -94t-126.5 -34q-106 0 -169 71q-61 68 -61 175q0 113 57 180q60 72 171 72q109 0 166 -72q53 -66 53 -177v-14zM121 287h262q-17 117 -129 117q-52 0 -88.5 -32.5t-44.5 -84.5zM293 630
q32 10 32 32q0 32 -31 32t-31 -34h-39q-1 28 20.5 49.5t49.5 21.5q30 0 51 -20t21 -50q0 -44 -57 -65q-29 -10 -37 -16q-18 -12 -18 -30q-22 16 -22 40q0 21 61 40z" />
    <glyph glyph-name="glyph309" unicode="&#x1ebc;" horiz-adv-x="521" 
d="M72 0v754h405v-86h-311v-211h302v-86h-302v-285h311v-86h-405zM159 840l-25 22l3 4q43 57 92 59q29 1 60 -16q22 -12 45 -11t56 36l26 -26q-42 -59 -100 -63q-17 -1 -54.5 15t-51.5 15q-28 -2 -51 -35z" />
    <glyph glyph-name="glyph310" unicode="&#x1ebd;" horiz-adv-x="488" 
d="M473 219h-357q1 -64 39 -108q40 -47 102 -47q85 0 140 91l76 -43q-33 -60 -90.5 -94t-126.5 -34q-106 0 -169 71q-61 68 -61 175q0 113 57 180q60 72 171 72q109 0 166 -72q53 -66 53 -177v-14zM121 287h262q-17 117 -129 117q-52 0 -88.5 -32.5t-44.5 -84.5zM142 560
l-26 21l4 5q45 56 91 58q28 1 59 -16q23 -13 44 -11q25 2 55 36l27 -26q-44 -59 -99 -62q-15 -3 -52 13.5t-53 15.5q-28 -1 -50 -34z" />
    <glyph glyph-name="glyph311" unicode="&#x1ebe;" horiz-adv-x="521" 
d="M72 0v754h405v-86h-311v-211h302v-86h-302v-285h311v-86h-405zM161 837l112 111l114 -111l-27 -36l-87 74l-86 -74zM460 1049l75 -40l-148 -134l-20 35z" />
    <glyph glyph-name="glyph312" unicode="&#x1ebf;" horiz-adv-x="488" 
d="M473 219h-357q1 -64 39 -108q40 -47 102 -47q85 0 140 91l76 -43q-33 -60 -90.5 -94t-126.5 -34q-106 0 -169 71q-61 68 -61 175q0 113 57 180q60 72 171 72q109 0 166 -72q53 -66 53 -177v-14zM121 287h262q-17 117 -129 117q-52 0 -88.5 -32.5t-44.5 -84.5zM142 559
l111 110l112 -110l-26 -36l-86 73l-86 -73zM438 768l74 -40l-147 -132l-20 34z" />
    <glyph glyph-name="glyph313" unicode="&#x1ec0;" horiz-adv-x="521" 
d="M72 0v754h405v-86h-311v-211h302v-86h-302v-285h311v-86h-405zM161 837l112 111l114 -111l-27 -36l-87 74l-86 -74zM181 910l-20 -35l-148 134l75 40z" />
    <glyph glyph-name="glyph314" unicode="&#x1ec1;" horiz-adv-x="488" 
d="M473 219h-357q1 -64 39 -108q40 -47 102 -47q85 0 140 91l76 -43q-33 -60 -90.5 -94t-126.5 -34q-106 0 -169 71q-61 68 -61 175q0 113 57 180q60 72 171 72q109 0 166 -72q53 -66 53 -177v-14zM121 287h262q-17 117 -129 117q-52 0 -88.5 -32.5t-44.5 -84.5zM144 558
l110 110l113 -110l-26 -36l-87 73l-85 -73zM164 629l-20 -34l-146 132l73 40z" />
    <glyph glyph-name="glyph315" unicode="&#x1ec2;" horiz-adv-x="521" 
d="M72 0v754h405v-86h-311v-211h302v-86h-302v-285h311v-86h-405zM161 837l112 111l114 -111l-27 -36l-87 74l-86 -74zM429 952q32 10 32 32q0 31 -31 31t-31 -34h-40q-1 29 20.5 50.5t50.5 21.5q30 0 50.5 -20.5t20.5 -50.5q0 -44 -56 -64q-28 -10 -37 -16q-18 -12 -18 -31
q-22 17 -22 40q0 22 61 41z" />
    <glyph glyph-name="glyph316" unicode="&#x1ec3;" horiz-adv-x="488" 
d="M473 219h-357q1 -64 39 -108q40 -47 102 -47q85 0 140 91l76 -43q-33 -60 -90.5 -94t-126.5 -34q-106 0 -169 71q-61 68 -61 175q0 113 57 180q60 72 171 72q109 0 166 -72q53 -66 53 -177v-14zM121 287h262q-17 117 -129 117q-52 0 -88.5 -32.5t-44.5 -84.5zM143 558
l111 110l113 -110l-27 -35l-86 72l-85 -72zM419 679q32 10 32 32q0 32 -31 32t-31 -34h-39q-1 28 20.5 49.5t49.5 21.5q30 0 51 -20t21 -50q0 -44 -57 -65q-29 -10 -37 -16q-18 -12 -18 -30q-22 16 -22 40q0 21 61 40z" />
    <glyph glyph-name="glyph317" unicode="&#x1ec4;" horiz-adv-x="521" 
d="M72 0v754h405v-86h-311v-211h302v-86h-302v-285h311v-86h-405zM161 837l112 111l114 -111l-27 -36l-87 74l-86 -74zM159 968l-25 22l3 4q43 57 92 59q29 1 60 -16q22 -12 45 -11t56 36l26 -26q-42 -59 -100 -63q-17 -1 -54.5 15t-51.5 15q-28 -2 -51 -35z" />
    <glyph glyph-name="glyph318" unicode="&#x1ec5;" horiz-adv-x="488" 
d="M473 219h-357q1 -64 39 -108q40 -47 102 -47q85 0 140 91l76 -43q-33 -60 -90.5 -94t-126.5 -34q-106 0 -169 71q-61 68 -61 175q0 113 57 180q60 72 171 72q109 0 166 -72q53 -66 53 -177v-14zM121 287h262q-17 117 -129 117q-52 0 -88.5 -32.5t-44.5 -84.5zM143 559
l111 110l113 -110l-28 -37l-85 74l-85 -74zM142 688l-26 21l4 5q45 56 91 58q28 1 59 -16q23 -13 44 -11q25 2 55 36l27 -26q-44 -59 -99 -62q-15 -3 -52 13.5t-53 15.5q-28 -1 -50 -34z" />
    <glyph glyph-name="glyph319" unicode="&#x1ec6;" horiz-adv-x="521" 
d="M72 0v754h405v-86h-311v-211h302v-86h-302v-285h311v-86h-405zM161 837l112 111l114 -111l-27 -36l-87 74l-86 -74zM273 -50q22 0 37 -15t15 -37t-15 -37t-37 -15t-37 15t-15 37t15 37t37 15z" />
    <glyph glyph-name="glyph320" unicode="&#x1ec7;" horiz-adv-x="488" 
d="M473 219h-357q1 -64 39 -108q40 -47 102 -47q85 0 140 91l76 -43q-33 -60 -90.5 -94t-126.5 -34q-106 0 -169 71q-61 68 -61 175q0 113 57 180q60 72 171 72q109 0 166 -72q53 -66 53 -177v-14zM121 287h262q-17 117 -129 117q-52 0 -88.5 -32.5t-44.5 -84.5zM142 559
l111 110l112 -110l-26 -36l-86 73l-86 -73zM256 -70q21 0 36.5 -15.5t15.5 -36.5q0 -22 -15 -37t-37 -15t-37 15t-15 37q0 21 15.5 36.5t36.5 15.5z" />
    <glyph glyph-name="glyph321" unicode="&#x1ec8;" horiz-adv-x="232" 
d="M163 754v-754h-94v754h94zM152 907q32 10 32 32q0 31 -31 31t-31 -34h-40q-1 29 20.5 50.5t50.5 21.5q30 0 50.5 -20.5t20.5 -50.5q0 -44 -56 -64q-28 -10 -37 -16q-18 -12 -18 -31q-22 17 -22 40q0 22 61 41z" />
    <glyph glyph-name="glyph322" unicode="&#x1ec9;" horiz-adv-x="254" 
d="M172 468v-468h-90v468h90zM165 616q32 10 32 32q0 32 -31 32t-31 -34h-39q-1 28 20.5 49.5t49.5 21.5q30 0 51 -20t21 -50q0 -44 -57 -65q-29 -10 -37 -16q-18 -12 -18 -30q-22 16 -22 40q0 21 61 40z" />
    <glyph glyph-name="glyph323" unicode="&#x1eca;" horiz-adv-x="232" 
d="M163 754v-754h-94v754h94zM116 -50q22 0 37 -15t15 -37t-15 -37t-37 -15t-37 15t-15 37t15 37t37 15z" />
    <glyph glyph-name="glyph324" unicode="&#x1ecb;" horiz-adv-x="254" 
d="M172 468v-468h-90v468h90zM127 656q23 0 39 -16.5t16 -39.5t-16 -38.5t-39 -15.5t-39 15.5t-16 38.5t16 39.5t39 16.5zM127 -50q21 0 36.5 -15.5t15.5 -36.5q0 -22 -15 -37t-37 -15t-37 15t-15 37q0 21 15.5 36.5t36.5 15.5z" />
    <glyph glyph-name="glyph325" unicode="&#x1ecc;" horiz-adv-x="828" 
d="M414 770q164 0 279.5 -114.5t115.5 -278.5q0 -168 -113.5 -280.5t-281.5 -112.5t-281.5 112.5t-113.5 280.5q0 164 115.5 278.5t279.5 114.5zM414 72q127 0 214 89t87 216q0 131 -85 218t-216 87q-130 0 -215.5 -87.5t-85.5 -217.5q0 -127 87 -216t214 -89zM414 -70
q22 0 37 -15t15 -37t-15 -37t-37 -15t-37 15t-15 37t15 37t37 15z" />
    <glyph glyph-name="glyph326" unicode="&#x1ecd;" horiz-adv-x="540" 
d="M270 482q107 0 178.5 -71t71.5 -178t-71.5 -178t-178.5 -71t-178.5 71t-71.5 178t71.5 178t178.5 71zM270 396q-67 0 -113.5 -47.5t-46.5 -115.5q0 -67 46.5 -115t113.5 -48t113.5 48t46.5 115q0 68 -46.5 115.5t-113.5 47.5zM270 -70q21 0 36.5 -15.5t15.5 -36.5
q0 -22 -15 -37t-37 -15t-37 15t-15 37q0 21 15.5 36.5t36.5 15.5z" />
    <glyph glyph-name="glyph327" unicode="&#x1ece;" horiz-adv-x="828" 
d="M414 770q164 0 279.5 -114.5t115.5 -278.5q0 -168 -113.5 -280.5t-281.5 -112.5t-281.5 112.5t-113.5 280.5q0 164 115.5 278.5t279.5 114.5zM414 72q127 0 214 89t87 216q0 131 -85 218t-216 87q-130 0 -215.5 -87.5t-85.5 -217.5q0 -127 87 -216t214 -89zM450 908
q32 10 32 32q0 31 -31 31t-31 -34h-40q-1 29 20.5 50.5t50.5 21.5q30 0 50.5 -20.5t20.5 -50.5q0 -44 -56 -64q-28 -10 -37 -16q-18 -12 -18 -31q-22 17 -22 40q0 22 61 41z" />
    <glyph glyph-name="glyph328" unicode="&#x1ecf;" horiz-adv-x="540" 
d="M270 482q107 0 178.5 -71t71.5 -178t-71.5 -178t-178.5 -71t-178.5 71t-71.5 178t71.5 178t178.5 71zM270 396q-67 0 -113.5 -47.5t-46.5 -115.5q0 -67 46.5 -115t113.5 -48t113.5 48t46.5 115q0 68 -46.5 115.5t-113.5 47.5zM309 630q32 10 32 32q0 32 -31 32t-31 -34
h-39q-1 28 20.5 49.5t49.5 21.5q30 0 51 -20t21 -50q0 -44 -57 -65q-29 -10 -37 -16q-18 -12 -18 -30q-22 16 -22 40q0 21 61 40z" />
    <glyph glyph-name="glyph329" unicode="&#x1ed0;" horiz-adv-x="828" 
d="M414 770q164 0 279.5 -114.5t115.5 -278.5q0 -168 -113.5 -280.5t-281.5 -112.5t-281.5 112.5t-113.5 280.5q0 164 115.5 278.5t279.5 114.5zM414 72q127 0 214 89t87 216q0 131 -85 218t-216 87q-130 0 -215.5 -87.5t-85.5 -217.5q0 -127 87 -216t214 -89zM301 836
l112 111l114 -111l-27 -36l-87 74l-86 -74zM600 1048l75 -40l-148 -134l-20 35z" />
    <glyph glyph-name="glyph330" unicode="&#x1ed1;" horiz-adv-x="540" 
d="M270 482q107 0 178.5 -71t71.5 -178t-71.5 -178t-178.5 -71t-178.5 71t-71.5 178t71.5 178t178.5 71zM270 396q-67 0 -113.5 -47.5t-46.5 -115.5q0 -67 46.5 -115t113.5 -48t113.5 48t46.5 115q0 68 -46.5 115.5t-113.5 47.5zM159 559l111 110l112 -110l-26 -36l-86 73
l-86 -73zM455 768l74 -40l-147 -132l-20 34z" />
    <glyph glyph-name="glyph331" unicode="&#x1ed2;" horiz-adv-x="828" 
d="M414 770q164 0 279.5 -114.5t115.5 -278.5q0 -168 -113.5 -280.5t-281.5 -112.5t-281.5 112.5t-113.5 280.5q0 164 115.5 278.5t279.5 114.5zM414 72q127 0 214 89t87 216q0 131 -85 218t-216 87q-130 0 -215.5 -87.5t-85.5 -217.5q0 -127 87 -216t214 -89zM302 837
l112 111l114 -111l-27 -36l-87 74l-86 -74zM322 910l-20 -35l-148 134l75 40z" />
    <glyph glyph-name="glyph332" unicode="&#x1ed3;" horiz-adv-x="540" 
d="M270 482q107 0 178.5 -71t71.5 -178t-71.5 -178t-178.5 -71t-178.5 71t-71.5 178t71.5 178t178.5 71zM270 396q-67 0 -113.5 -47.5t-46.5 -115.5q0 -67 46.5 -115t113.5 -48t113.5 48t46.5 115q0 68 -46.5 115.5t-113.5 47.5zM160 558l110 110l113 -110l-26 -36l-87 73
l-85 -73zM180 629l-20 -34l-146 132l73 40z" />
    <glyph glyph-name="glyph333" unicode="&#x1ed4;" horiz-adv-x="828" 
d="M414 770q164 0 279.5 -114.5t115.5 -278.5q0 -168 -113.5 -280.5t-281.5 -112.5t-281.5 112.5t-113.5 280.5q0 164 115.5 278.5t279.5 114.5zM414 72q127 0 214 89t87 216q0 131 -85 218t-216 87q-130 0 -215.5 -87.5t-85.5 -217.5q0 -127 87 -216t214 -89zM301 837
l112 111l114 -111l-27 -36l-87 74l-86 -74zM569 952q32 10 32 32q0 31 -31 31t-31 -34h-40q-1 29 20.5 50.5t50.5 21.5q30 0 50.5 -20.5t20.5 -50.5q0 -44 -56 -64q-28 -10 -37 -16q-18 -12 -18 -31q-22 17 -22 40q0 22 61 41z" />
    <glyph glyph-name="glyph334" unicode="&#x1ed5;" horiz-adv-x="540" 
d="M270 482q107 0 178.5 -71t71.5 -178t-71.5 -178t-178.5 -71t-178.5 71t-71.5 178t71.5 178t178.5 71zM270 396q-67 0 -113.5 -47.5t-46.5 -115.5q0 -67 46.5 -115t113.5 -48t113.5 48t46.5 115q0 68 -46.5 115.5t-113.5 47.5zM159 558l111 110l113 -110l-27 -35l-86 72
l-85 -72zM435 679q32 10 32 32q0 32 -31 32t-31 -34h-39q-1 28 20.5 49.5t49.5 21.5q30 0 51 -20t21 -50q0 -44 -57 -65q-29 -10 -37 -16q-18 -12 -18 -30q-22 16 -22 40q0 21 61 40z" />
    <glyph glyph-name="glyph335" unicode="&#x1ed6;" horiz-adv-x="828" 
d="M414 770q164 0 279.5 -114.5t115.5 -278.5q0 -168 -113.5 -280.5t-281.5 -112.5t-281.5 112.5t-113.5 280.5q0 164 115.5 278.5t279.5 114.5zM414 72q127 0 214 89t87 216q0 131 -85 218t-216 87q-130 0 -215.5 -87.5t-85.5 -217.5q0 -127 87 -216t214 -89zM302 836
l112 111l114 -111l-27 -36l-87 74l-86 -74zM300 967l-25 22l3 4q43 57 92 59q29 1 60 -16q22 -12 45 -11t56 36l26 -26q-42 -59 -100 -63q-17 -1 -54.5 15t-51.5 15q-28 -2 -51 -35z" />
    <glyph glyph-name="glyph336" unicode="&#x1ed7;" horiz-adv-x="540" 
d="M270 482q107 0 178.5 -71t71.5 -178t-71.5 -178t-178.5 -71t-178.5 71t-71.5 178t71.5 178t178.5 71zM270 396q-67 0 -113.5 -47.5t-46.5 -115.5q0 -67 46.5 -115t113.5 -48t113.5 48t46.5 115q0 68 -46.5 115.5t-113.5 47.5zM159 559l111 110l113 -110l-28 -37l-85 74
l-85 -74zM158 688l-26 21l4 5q45 56 91 58q28 1 59 -16q23 -13 44 -11q25 2 55 36l27 -26q-44 -59 -99 -62q-15 -3 -52 13.5t-53 15.5q-28 -1 -50 -34z" />
    <glyph glyph-name="glyph337" unicode="&#x1ed8;" horiz-adv-x="828" 
d="M414 770q164 0 279.5 -114.5t115.5 -278.5q0 -168 -113.5 -280.5t-281.5 -112.5t-281.5 112.5t-113.5 280.5q0 164 115.5 278.5t279.5 114.5zM414 72q127 0 214 89t87 216q0 131 -85 218t-216 87q-130 0 -215.5 -87.5t-85.5 -217.5q0 -127 87 -216t214 -89zM301 836
l112 111l114 -111l-27 -36l-87 74l-86 -74zM414 -70q22 0 37 -15t15 -37t-15 -37t-37 -15t-37 15t-15 37t15 37t37 15z" />
    <glyph glyph-name="glyph338" unicode="&#x1ed9;" horiz-adv-x="540" 
d="M270 482q107 0 178.5 -71t71.5 -178t-71.5 -178t-178.5 -71t-178.5 71t-71.5 178t71.5 178t178.5 71zM270 396q-67 0 -113.5 -47.5t-46.5 -115.5q0 -67 46.5 -115t113.5 -48t113.5 48t46.5 115q0 68 -46.5 115.5t-113.5 47.5zM159 559l111 110l112 -110l-26 -36l-86 73
l-86 -73zM270 -70q21 0 36.5 -15.5t15.5 -36.5q0 -22 -15 -37t-37 -15t-37 15t-15 37q0 21 15.5 36.5t36.5 15.5z" />
    <glyph glyph-name="glyph339" unicode="&#x1eda;" horiz-adv-x="828" 
d="M414 72q127 0 214 89t87 216q0 131 -85 218t-216 87q-130 0 -215.5 -87.5t-85.5 -217.5q0 -127 87 -216t214 -89zM528 753l157 1q18 11 18 29q0 7 -2 13q-5 24 -45 28l-2 2l52 14q64 0 64 -51q0 -37 -42 -65q-37 -17 -85 -28q79 -56 122.5 -139.5t43.5 -179.5
q0 -168 -113.5 -280.5t-281.5 -112.5t-281.5 112.5t-113.5 280.5q0 164 115.5 278.5t279.5 114.5q58 0 114 -17zM486 1014l75 -40l-148 -134l-20 35z" />
    <glyph glyph-name="glyph340" unicode="&#x1edb;" horiz-adv-x="540" 
d="M270 396q-67 0 -113.5 -47.5t-46.5 -115.5q0 -67 46.5 -115t113.5 -48t113.5 48t46.5 115q0 68 -46.5 115.5t-113.5 47.5zM355 468h60q15 10 15 24q0 5 -2 10q-3 18 -36 23l-2 1l42 12q52 0 52 -41q0 -29 -37 -54q-16 -8 -28 -8q101 -73 101 -202q0 -107 -71.5 -178
t-178.5 -71t-178.5 71t-71.5 178t71.5 178t178.5 71q43 0 85 -14zM342 732l74 -40l-147 -132l-20 34z" />
    <glyph glyph-name="glyph341" unicode="&#x1edc;" horiz-adv-x="828" 
d="M414 72q127 0 214 89t87 216q0 131 -85 218t-216 87q-130 0 -215.5 -87.5t-85.5 -217.5q0 -127 87 -216t214 -89zM528 753l157 1q18 11 18 29q0 7 -2 13q-5 24 -45 28l-2 2l52 14q64 0 64 -51q0 -37 -42 -65q-37 -17 -85 -28q79 -56 122.5 -139.5t43.5 -179.5
q0 -168 -113.5 -280.5t-281.5 -112.5t-281.5 112.5t-113.5 280.5q0 164 115.5 278.5t279.5 114.5q58 0 114 -17zM435 876l-20 -35l-148 134l75 40z" />
    <glyph glyph-name="glyph342" unicode="&#x1edd;" horiz-adv-x="540" 
d="M270 396q-67 0 -113.5 -47.5t-46.5 -115.5q0 -67 46.5 -115t113.5 -48t113.5 48t46.5 115q0 68 -46.5 115.5t-113.5 47.5zM355 468h60q15 10 15 24q0 5 -2 10q-3 18 -36 23l-2 1l42 12q52 0 52 -41q0 -29 -37 -54q-16 -8 -28 -8q101 -73 101 -202q0 -107 -71.5 -178
t-178.5 -71t-178.5 71t-71.5 178t71.5 178t178.5 71q43 0 85 -14zM291 595l-20 -34l-146 132l73 40z" />
    <glyph glyph-name="glyph343" unicode="&#x1ede;" horiz-adv-x="828" 
d="M414 72q127 0 214 89t87 216q0 131 -85 218t-216 87q-130 0 -215.5 -87.5t-85.5 -217.5q0 -127 87 -216t214 -89zM528 753l157 1q18 11 18 29q0 7 -2 13q-5 24 -45 28l-2 2l52 14q64 0 64 -51q0 -37 -42 -65q-37 -17 -85 -28q79 -56 122.5 -139.5t43.5 -179.5
q0 -168 -113.5 -280.5t-281.5 -112.5t-281.5 112.5t-113.5 280.5q0 164 115.5 278.5t279.5 114.5q58 0 114 -17zM450 908q32 10 32 32q0 31 -31 31t-31 -34h-40q-1 29 20.5 50.5t50.5 21.5q30 0 50.5 -20.5t20.5 -50.5q0 -44 -56 -64q-28 -10 -37 -16q-18 -12 -18 -31
q-22 17 -22 40q0 22 61 41z" />
    <glyph glyph-name="glyph344" unicode="&#x1edf;" horiz-adv-x="540" 
d="M270 396q-67 0 -113.5 -47.5t-46.5 -115.5q0 -67 46.5 -115t113.5 -48t113.5 48t46.5 115q0 68 -46.5 115.5t-113.5 47.5zM355 468h60q15 10 15 24q0 5 -2 10q-3 18 -36 23l-2 1l42 12q52 0 52 -41q0 -29 -37 -54q-16 -8 -28 -8q101 -73 101 -202q0 -107 -71.5 -178
t-178.5 -71t-178.5 71t-71.5 178t71.5 178t178.5 71q43 0 85 -14zM309 630q32 10 32 32q0 32 -31 32t-31 -34h-39q-1 28 20.5 49.5t49.5 21.5q30 0 51 -20t21 -50q0 -44 -57 -65q-29 -10 -37 -16q-18 -12 -18 -30q-22 16 -22 40q0 21 61 40z" />
    <glyph glyph-name="glyph345" unicode="&#x1ee0;" horiz-adv-x="828" 
d="M414 72q127 0 214 89t87 216q0 131 -85 218t-216 87q-130 0 -215.5 -87.5t-85.5 -217.5q0 -127 87 -216t214 -89zM528 753l157 1q18 11 18 29q0 7 -2 13q-5 24 -45 28l-2 2l52 14q64 0 64 -51q0 -37 -42 -65q-37 -17 -85 -28q79 -56 122.5 -139.5t43.5 -179.5
q0 -168 -113.5 -280.5t-281.5 -112.5t-281.5 112.5t-113.5 280.5q0 164 115.5 278.5t279.5 114.5q58 0 114 -17zM300 841l-25 22l3 4q43 57 92 59q29 1 60 -16q22 -12 45 -11t56 36l26 -26q-42 -59 -100 -63q-17 -1 -54.5 15t-51.5 15q-28 -2 -51 -35z" />
    <glyph glyph-name="glyph346" unicode="&#x1ee1;" horiz-adv-x="540" 
d="M270 396q-67 0 -113.5 -47.5t-46.5 -115.5q0 -67 46.5 -115t113.5 -48t113.5 48t46.5 115q0 68 -46.5 115.5t-113.5 47.5zM355 468h60q15 10 15 24q0 5 -2 10q-3 18 -36 23l-2 1l42 12q52 0 52 -41q0 -29 -37 -54q-16 -8 -28 -8q101 -73 101 -202q0 -107 -71.5 -178
t-178.5 -71t-178.5 71t-71.5 178t71.5 178t178.5 71q43 0 85 -14zM158 560l-26 21l4 5q45 56 91 58q28 1 59 -16q23 -13 44 -11q25 2 55 36l27 -26q-44 -59 -99 -62q-15 -3 -52 13.5t-53 15.5q-28 -1 -50 -34z" />
    <glyph glyph-name="glyph347" unicode="&#x1ee2;" horiz-adv-x="828" 
d="M414 72q127 0 214 89t87 216q0 131 -85 218t-216 87q-130 0 -215.5 -87.5t-85.5 -217.5q0 -127 87 -216t214 -89zM528 753l157 1q18 11 18 29q0 7 -2 13q-5 24 -45 28l-2 2l52 14q64 0 64 -51q0 -37 -42 -65q-37 -17 -85 -28q79 -56 122.5 -139.5t43.5 -179.5
q0 -168 -113.5 -280.5t-281.5 -112.5t-281.5 112.5t-113.5 280.5q0 164 115.5 278.5t279.5 114.5q58 0 114 -17zM414 -70q22 0 37 -15t15 -37t-15 -37t-37 -15t-37 15t-15 37t15 37t37 15z" />
    <glyph glyph-name="glyph348" unicode="&#x1ee3;" horiz-adv-x="540" 
d="M270 396q-67 0 -113.5 -47.5t-46.5 -115.5q0 -67 46.5 -115t113.5 -48t113.5 48t46.5 115q0 68 -46.5 115.5t-113.5 47.5zM355 468h60q15 10 15 24q0 5 -2 10q-3 18 -36 23l-2 1l42 12q52 0 52 -41q0 -29 -37 -54q-16 -8 -28 -8q101 -73 101 -202q0 -107 -71.5 -178
t-178.5 -71t-178.5 71t-71.5 178t71.5 178t178.5 71q43 0 85 -14zM270 -70q21 0 36.5 -15.5t15.5 -36.5q0 -22 -15 -37t-37 -15t-37 15t-15 37q0 21 15.5 36.5t36.5 15.5z" />
    <glyph glyph-name="glyph349" unicode="&#x1ee4;" horiz-adv-x="669" 
d="M59 754h94v-445q0 -237 182 -237t182 237v445h94v-477q0 -129 -73 -209q-75 -84 -203 -84t-203 84q-73 80 -73 209v477zM336 -70q22 0 37 -15t15 -37t-15 -37t-37 -15t-37 15t-15 37t15 37t37 15z" />
    <glyph glyph-name="glyph350" unicode="&#x1ee5;" horiz-adv-x="512" 
d="M58 468h90v-259q0 -141 108 -141t108 141v259h90v-269q0 -101 -48 -156q-51 -59 -150 -59t-150 59q-48 55 -48 156v269zM256 -70q21 0 36.5 -15.5t15.5 -36.5q0 -22 -15 -37t-37 -15t-37 15t-15 37q0 21 15.5 36.5t36.5 15.5z" />
    <glyph glyph-name="glyph351" unicode="&#x1ee6;" horiz-adv-x="669" 
d="M59 754h94v-445q0 -237 182 -237t182 237v445h94v-477q0 -129 -73 -209q-75 -84 -203 -84t-203 84q-73 80 -73 209v477zM369 867q32 10 32 32q0 31 -31 31t-31 -34h-40q-1 29 20.5 50.5t50.5 21.5q30 0 50.5 -20.5t20.5 -50.5q0 -44 -56 -64q-28 -10 -37 -16
q-18 -12 -18 -31q-22 17 -22 40q0 22 61 41z" />
    <glyph glyph-name="glyph352" unicode="&#x1ee7;" horiz-adv-x="512" 
d="M58 468h90v-259q0 -141 108 -141t108 141v259h90v-269q0 -101 -48 -156q-51 -59 -150 -59t-150 59q-48 55 -48 156v269zM291 592q32 10 32 32q0 32 -31 32t-31 -34h-39q-1 28 20.5 49.5t49.5 21.5q30 0 51 -20t21 -50q0 -44 -57 -65q-29 -10 -37 -16q-18 -12 -18 -30
q-22 16 -22 40q0 21 61 40z" />
    <glyph glyph-name="glyph353" unicode="&#x1ee8;" horiz-adv-x="669" 
d="M610 754q18 11 18 29q0 7 -2 13q-5 24 -45 28l-2 2l52 14q64 0 64 -50q0 -37 -45 -67q-25 -11 -39 -10v-436q0 -129 -73 -209q-75 -84 -203 -84t-203 84q-73 80 -73 209v477h94v-445q0 -237 182 -237t182 237v445h93zM404 974l75 -40l-148 -134l-20 35z" />
    <glyph glyph-name="glyph354" unicode="&#x1ee9;" horiz-adv-x="512" 
d="M454 435v-236q0 -101 -48 -156q-51 -59 -150 -59t-150 59q-48 55 -48 156v269h90v-259q0 -141 108 -141t108 141v259h88q15 10 15 24q0 5 -2 10q-3 18 -36 23l-2 1l42 12q52 0 52 -41q0 -29 -37 -54q-20 -9 -30 -8zM324 695l74 -40l-147 -132l-20 34z" />
    <glyph glyph-name="glyph355" unicode="&#x1eea;" horiz-adv-x="669" 
d="M610 754q18 11 18 29q0 7 -2 13q-5 24 -45 28l-2 2l52 14q64 0 64 -50q0 -37 -45 -67q-25 -11 -39 -10v-436q0 -129 -73 -209q-75 -84 -203 -84t-203 84q-73 80 -73 209v477h94v-445q0 -237 182 -237t182 237v445h93zM354 835l-20 -35l-148 134l75 40z" />
    <glyph glyph-name="glyph356" unicode="&#x1eeb;" horiz-adv-x="512" 
d="M454 435v-236q0 -101 -48 -156q-51 -59 -150 -59t-150 59q-48 55 -48 156v269h90v-259q0 -141 108 -141t108 141v259h88q15 10 15 24q0 5 -2 10q-3 18 -36 23l-2 1l42 12q52 0 52 -41q0 -29 -37 -54q-20 -9 -30 -8zM273 557l-20 -34l-146 132l73 40z" />
    <glyph glyph-name="glyph357" unicode="&#x1eec;" horiz-adv-x="669" 
d="M610 754q18 11 18 29q0 7 -2 13q-5 24 -45 28l-2 2l52 14q64 0 64 -50q0 -37 -45 -67q-25 -11 -39 -10v-436q0 -129 -73 -209q-75 -84 -203 -84t-203 84q-73 80 -73 209v477h94v-445q0 -237 182 -237t182 237v445h93zM369 867q32 10 32 32q0 31 -31 31t-31 -34h-40
q-1 29 20.5 50.5t50.5 21.5q30 0 50.5 -20.5t20.5 -50.5q0 -44 -56 -64q-28 -10 -37 -16q-18 -12 -18 -31q-22 17 -22 40q0 22 61 41z" />
    <glyph glyph-name="glyph358" unicode="&#x1eed;" horiz-adv-x="512" 
d="M454 435v-236q0 -101 -48 -156q-51 -59 -150 -59t-150 59q-48 55 -48 156v269h90v-259q0 -141 108 -141t108 141v259h88q15 10 15 24q0 5 -2 10q-3 18 -36 23l-2 1l42 12q52 0 52 -41q0 -29 -37 -54q-20 -9 -30 -8zM291 592q32 10 32 32q0 32 -31 32t-31 -34h-39
q-1 28 20.5 49.5t49.5 21.5q30 0 51 -20t21 -50q0 -44 -57 -65q-29 -10 -37 -16q-18 -12 -18 -30q-22 16 -22 40q0 21 61 40z" />
    <glyph glyph-name="glyph359" unicode="&#x1eee;" horiz-adv-x="669" 
d="M610 754q18 11 18 29q0 7 -2 13q-5 24 -45 28l-2 2l52 14q64 0 64 -50q0 -37 -45 -67q-25 -11 -39 -10v-436q0 -129 -73 -209q-75 -84 -203 -84t-203 84q-73 80 -73 209v477h94v-445q0 -237 182 -237t182 237v445h93zM219 791l-25 22l3 4q43 57 92 59q29 1 60 -16
q22 -12 45 -11t56 36l26 -26q-42 -59 -100 -63q-17 -1 -54.5 15t-51.5 15q-28 -2 -51 -35z" />
    <glyph glyph-name="glyph360" unicode="&#x1eef;" horiz-adv-x="512" 
d="M454 435v-236q0 -101 -48 -156q-51 -59 -150 -59t-150 59q-48 55 -48 156v269h90v-259q0 -141 108 -141t108 141v259h88q15 10 15 24q0 5 -2 10q-3 18 -36 23l-2 1l42 12q52 0 52 -41q0 -29 -37 -54q-20 -9 -30 -8zM143 533l-26 21l4 5q45 56 91 58q28 1 59 -16
q23 -13 44 -11q25 2 55 36l27 -26q-44 -59 -99 -62q-15 -3 -52 13.5t-53 15.5q-28 -1 -50 -34z" />
    <glyph glyph-name="glyph361" unicode="&#x1ef0;" horiz-adv-x="669" 
d="M610 754q18 11 18 29q0 7 -2 13q-5 24 -45 28l-2 2l52 14q64 0 64 -50q0 -37 -45 -67q-25 -11 -39 -10v-436q0 -129 -73 -209q-75 -84 -203 -84t-203 84q-73 80 -73 209v477h94v-445q0 -237 182 -237t182 237v445h93zM336 -70q22 0 37 -15t15 -37t-15 -37t-37 -15t-37 15
t-15 37t15 37t37 15z" />
    <glyph glyph-name="glyph362" unicode="&#x1ef1;" horiz-adv-x="512" 
d="M454 435v-236q0 -101 -48 -156q-51 -59 -150 -59t-150 59q-48 55 -48 156v269h90v-259q0 -141 108 -141t108 141v259h88q15 10 15 24q0 5 -2 10q-3 18 -36 23l-2 1l42 12q52 0 52 -41q0 -29 -37 -54q-20 -9 -30 -8zM256 -70q21 0 36.5 -15.5t15.5 -36.5q0 -22 -15 -37
t-37 -15t-37 15t-15 37q0 21 15.5 36.5t36.5 15.5z" />
    <glyph glyph-name="glyph363" unicode="&#x1ef2;" horiz-adv-x="573" 
d="M240 328l-246 426h108l185 -322l185 322h108l-246 -426v-328h-94v328zM307 835l-20 -35l-148 134l75 40z" />
    <glyph glyph-name="glyph364" unicode="&#x1ef3;" horiz-adv-x="484" 
d="M201 80l-214 388h105l158 -297l147 297h101l-379 -736h-102zM271 547l-20 -34l-146 132l73 40z" />
    <glyph glyph-name="glyph365" unicode="&#x1ef4;" horiz-adv-x="573" 
d="M240 328l-246 426h108l185 -322l185 322h108l-246 -426v-328h-94v328zM287 -50q22 0 37 -15t15 -37t-15 -37t-37 -15t-37 15t-15 37t15 37t37 15z" />
    <glyph glyph-name="glyph366" unicode="&#x1ef5;" horiz-adv-x="484" 
d="M201 80l-214 388h105l158 -297l147 297h101l-379 -736h-102zM316 -50q21 0 36.5 -15.5t15.5 -36.5q0 -22 -15 -37t-37 -15t-37 15t-15 37q0 21 15.5 36.5t36.5 15.5z" />
    <glyph glyph-name="glyph367" unicode="&#x1ef6;" horiz-adv-x="573" 
d="M240 328l-246 426h108l185 -322l185 322h108l-246 -426v-328h-94v328zM323 867q32 10 32 32q0 31 -31 31t-31 -34h-40q-1 29 20.5 50.5t50.5 21.5q30 0 50.5 -20.5t20.5 -50.5q0 -44 -56 -64q-28 -10 -37 -16q-18 -12 -18 -31q-22 17 -22 40q0 22 61 41z" />
    <glyph glyph-name="glyph368" unicode="&#x1ef7;" horiz-adv-x="484" 
d="M201 80l-214 388h105l158 -297l147 297h101l-379 -736h-102zM291 582q32 10 32 32q0 32 -31 32t-31 -34h-39q-1 28 20.5 49.5t49.5 21.5q30 0 51 -20t21 -50q0 -44 -57 -65q-29 -10 -37 -16q-18 -12 -18 -30q-22 16 -22 40q0 21 61 40z" />
    <glyph glyph-name="glyph369" unicode="&#x1ef8;" horiz-adv-x="573" 
d="M240 328l-246 426h108l185 -322l185 322h108l-246 -426v-328h-94v328zM173 791l-25 22l3 4q43 57 92 59q29 1 60 -16q22 -12 45 -11t56 36l26 -26q-42 -59 -100 -63q-17 -1 -54.5 15t-51.5 15q-28 -2 -51 -35z" />
    <glyph glyph-name="glyph370" unicode="&#x1ef9;" horiz-adv-x="484" 
d="M201 80l-214 388h105l158 -297l147 297h101l-379 -736h-102zM132 523l-26 21l4 5q45 56 91 58q28 1 59 -16q23 -13 44 -11q25 2 55 36l27 -26q-44 -59 -99 -62q-15 -3 -52 13.5t-53 15.5q-28 -1 -50 -34z" />
    <glyph glyph-name="endash" unicode="&#x2013;" horiz-adv-x="500" 
d="M0 358h500v-75h-500v75z" />
    <glyph glyph-name="emdash" unicode="&#x2014;" horiz-adv-x="1000" 
d="M0 358h1000v-75h-1000v75z" />
    <glyph glyph-name="quoteleft" unicode="&#x2018;" horiz-adv-x="277" 
d="M139 472l-79 31l133 267l56 -23z" />
    <glyph glyph-name="quoteright" unicode="&#x2019;" horiz-adv-x="277" 
d="M138 770l79 -31l-133 -267l-56 23z" />
    <glyph glyph-name="quotesinglbase" unicode="&#x201a;" horiz-adv-x="277" 
d="M164 119l78 -31l-133 -267l-55 23z" />
    <glyph glyph-name="quotedblleft" unicode="&#x201c;" horiz-adv-x="439" 
d="M305 472l-79 31l133 267l56 -23zM139 472l-79 31l133 267l56 -23z" />
    <glyph glyph-name="quotedblright" unicode="&#x201d;" horiz-adv-x="439" 
d="M134 770l79 -31l-133 -267l-56 23zM300 770l79 -31l-133 -267l-56 23z" />
    <glyph glyph-name="quotedblbase" unicode="&#x201e;" horiz-adv-x="439" 
d="M160 119l78 -31l-133 -267l-55 23zM326 119l78 -31l-133 -267l-55 23z" />
    <glyph glyph-name="dagger" unicode="&#x2020;" 
d="M244 868h90v-275h181v-86h-181v-595h-90v595h-181v86h181v275z" />
    <glyph glyph-name="daggerdbl" unicode="&#x2021;" 
d="M244 868h90v-239h181v-86h-181v-122h181v-86h-181v-422h-90v422h-181v86h181v122h-181v86h181v239z" />
    <glyph glyph-name="bullet" unicode="&#x2022;" 
d="M289 189q-79 0 -133.5 54.5t-54.5 133.5q0 80 54.5 134.5t133.5 54.5q80 0 134.5 -54.5t54.5 -134.5q0 -79 -55 -133.5t-134 -54.5z" />
    <glyph glyph-name="ellipsis" unicode="&#x2026;" horiz-adv-x="1000" 
d="M500 100q24 0 41 -17t17 -41t-17 -41t-41 -17t-41 17t-17 41t17 41t41 17zM834 100q24 0 41 -17t17 -41t-17 -41t-41 -17t-41 17t-17 41t17 41t41 17zM166 100q24 0 41 -17t17 -41t-17 -41t-41 -17t-41 17t-17 41t17 41t41 17z" />
    <glyph glyph-name="perthousand" unicode="&#x2030;" horiz-adv-x="1110" 
d="M198 770q72 0 124 -50t52 -122q0 -71 -52 -121t-124 -50t-124 50t-52 121q0 72 52 122t124 50zM198 710q-47 0 -81.5 -32.5t-34.5 -79.5q0 -46 35 -78.5t81 -32.5t81 32.5t35 78.5q0 47 -34.5 79.5t-81.5 32.5zM557 770l45 -26l-440 -760l-46 25zM521 327q72 0 124 -50
t52 -122q0 -71 -52 -121t-124 -50t-124 50t-52 121q0 72 52 122t124 50zM521 267q-47 0 -81.5 -32.5t-34.5 -79.5q0 -46 35 -78.5t81 -32.5t81 32.5t35 78.5q0 47 -34.5 79.5t-81.5 32.5zM913 327q72 0 124 -50t52 -122q0 -71 -52 -121t-124 -50t-124 50t-52 121
q0 72 52 122t124 50zM913 267q-47 0 -81.5 -32.5t-34.5 -79.5q0 -46 35 -78.5t81 -32.5t81 32.5t35 78.5q0 47 -34.5 79.5t-81.5 32.5z" />
    <glyph glyph-name="guilsinglleft" unicode="&#x2039;" horiz-adv-x="336" 
d="M111 320l149 -191l-56 -41l-182 232l182 240l56 -41z" />
    <glyph glyph-name="guilsinglright" unicode="&#x203a;" horiz-adv-x="336" 
d="M76 129l149 191l-149 199l56 41l182 -240l-182 -232z" />
    <glyph glyph-name="fraction" unicode="&#x2044;" horiz-adv-x="165" 
d="M277 770l51 -26l-440 -760l-51 28z" />
    <glyph glyph-name="franc" unicode="&#x20a3;" horiz-adv-x="1035" 
d="M436 668h-271v-212h262v-86h-262v-370h-94v754h365v-86zM810 468v-76h3q36 90 128 90q38 0 74 -23l-41 -82q-22 19 -55 19q-109 0 -109 -166v-230h-90v468h90z" />
    <glyph glyph-name="u20AB" unicode="&#x20ab;" horiz-adv-x="393" 
d="M197 501q-48 0 -84 -88q-20 -49 -20 -90q0 -51 39 -51q41 0 74 71q28 60 28 107q0 51 -37 51zM200 267q-53 -62 -106 -62q-91 0 -91 102q0 81 54 153q59 78 137 78q34 0 61 -24l20 75h-100l10 36h100l2 16q0 31 -48 32l7 33q67 2 128 14l15 3q6 0 6 -9q-1 -2 -3 -12
l-19 -77h65l-10 -36h-65l-69 -280q-5 -20 -5 -27q0 -15 12 -15q6 0 49 42l20 -18q-70 -86 -117 -86q-43 0 -53 62zM9 160h221v-56h-221v56z" />
    <glyph glyph-name="trademark" unicode="&#x2122;" horiz-adv-x="940" 
d="M906 754v-421h-64v357h-2l-144 -357h-39l-140 357h-2v-357h-64v421h105l121 -297l125 297h104zM374 754v-64h-138v-357h-64v357h-138v64h340z" />
    <glyph glyph-name="minus" unicode="&#x2212;" 
d="M33 213v86h512v-86h-512z" />
    <glyph glyph-name="SF370000" unicode="&#x255f;" horiz-adv-x="718" 
d="M525 189h-346l-86 -189h-101l360 786l360 -786h-101zM486 275l-134 305l-134 -305h268z" />
    <glyph glyph-name="SF420000" unicode="&#x2560;" horiz-adv-x="681" 
d="M72 0v754h405v-86h-311v-211h302v-86h-302v-285h311v-86h-405z" />
    <glyph glyph-name="SF190000" unicode="&#x2561;" horiz-adv-x="429" 
d="M163 754v-754h-94v754h94z" />
    <glyph glyph-name="SF200000" unicode="&#x2562;" horiz-adv-x="773" 
d="M414 770q163 0 279 -115t116 -278q0 -167 -114 -280t-281 -113t-281 113t-114 280q0 163 116 278t279 115zM414 72q126 0 213.5 89.5t87.5 215.5q0 130 -85.5 217.5t-215.5 87.5q-129 0 -215 -88t-86 -217q0 -126 87.5 -215.5t213.5 -89.5z" />
    <glyph glyph-name="SF230000" unicode="&#x2563;" horiz-adv-x="811" 
d="M59 754h94v-445q0 -237 182 -237t182 237v445h94v-477q0 -129 -73 -209q-75 -84 -203 -84t-203 84q-73 80 -73 209v477z" />
    <glyph glyph-name="SF470000" unicode="&#x2564;" horiz-adv-x="699" 
d="M240 328l-246 426h108l185 -322l185 322h108l-246 -426v-328h-94v328z" />
    <glyph glyph-name="SF480000" unicode="&#x2565;" horiz-adv-x="541" 
d="M264 64q71 0 113 50q39 48 39 120t-40 118q-42 50 -112 50q-68 0 -108 -49.5t-40 -118.5q0 -71 38 -118q41 -52 110 -52zM501 468v-468h-90v73h-2q-60 -89 -159 -89q-104 0 -166 76q-58 70 -58 177q0 101 59 171q63 74 162 74q101 0 162 -92h2v78h90z" />
    <glyph glyph-name="SF410000" unicode="&#x2566;" horiz-adv-x="431" 
d="M473 219h-357q1 -63 40 -109t101 -46q85 0 140 91l76 -43q-33 -60 -90.5 -94t-126.5 -34q-105 0 -169 71q-61 68 -61 175q0 113 57 180q60 72 171 72q107 0 166 -72q53 -67 53 -177v-14zM121 287h262q-8 54 -41.5 85.5t-87.5 31.5q-52 0 -88.5 -32.5t-44.5 -84.5z" />
    <glyph glyph-name="SF450000" unicode="&#x2567;" horiz-adv-x="314" 
d="M172 468v-468h-90v468h90zM127 745q26 0 44 -18.5t18 -44.5t-18 -43.5t-44 -17.5t-44 17.5t-18 43.5t18 44.5t44 18.5z" />
    <glyph glyph-name="SF460000" unicode="&#x2568;" horiz-adv-x="314" 
d="M172 468v-468h-90v468h90z" />
    <glyph glyph-name="SF400000" unicode="&#x2569;" horiz-adv-x="498" 
d="M270 482q106 0 178 -71.5t72 -177.5t-72 -177.5t-178 -71.5t-178 71.5t-72 177.5t72 177.5t178 71.5zM270 396q-67 0 -113.5 -48t-46.5 -115t47 -115t113 -48t113 48t47 115t-46.5 115t-113.5 48z" />
    <glyph glyph-name="SF540000" unicode="&#x256a;" horiz-adv-x="557" 
d="M58 468h90v-259q0 -141 108 -141t108 141v259h90v-269q0 -101 -48 -156q-51 -59 -150 -59t-150 59q-48 55 -48 156v269z" />
    <glyph glyph-name="SF530000" unicode="&#x256b;" horiz-adv-x="497" 
d="M201 80l-214 388h105l158 -297l147 297h101l-379 -736h-102z" />
    <glyph glyph-name="circle" unicode="&#x25cb;" horiz-adv-x="718" 
d="M303 821l159 145l161 -145l-59 -46l-102 96l-101 -96zM403 1154l83 -44l-164 -149l-44 27z" />
    <glyph glyph-name="H18533" unicode="&#x25cf;" horiz-adv-x="718" 
d="M303 821l159 145l161 -145l-59 -46l-102 96l-101 -96zM387 1111l83 44l125 -166l-44 -27z" />
    <glyph glyph-name="invbullet" unicode="&#x25d8;" horiz-adv-x="718" 
d="M303 821l159 145l161 -145l-59 -46l-102 96l-101 -96zM614 903q9 28 11 64q1 11 8 13q2 0 8 1q67 11 67 54q0 35 -28 35q-5 0 -14 -1t-14 -1q-21 0 -21 18q0 28 32 28q46 0 75 -24q31 -27 27 -72q-6 -59 -87 -81q-25 -7 -31 -34h-33z" />
    <glyph glyph-name="invcircle" unicode="&#x25d9;" horiz-adv-x="718" 
d="M303 821l159 145l161 -145l-59 -46l-102 96l-101 -96zM386 993v0l-47 40l3 5q46 76 108 76q34 0 89 -26.5t72 -26.5q35 0 64 48l47 -39q-40 -82 -118 -82q-27 0 -81 25.5t-80 25.5q-35 0 -57 -46z" />
    <glyph glyph-name="fi" unicode="&#xf001;" horiz-adv-x="512" 
d="M430 468v-468h-90v468h90zM385 745q26 0 44 -18.5t18 -44.5t-18 -43.5t-44 -17.5t-44 17.5t-18 43.5t18 44.5t44 18.5zM294 868v-91q-43 19 -60 19q-42 0 -56 -46q-8 -26 -8 -81v-201h124v-84h-124v-384h-90v384h-41v84h41v228q0 184 151 184q33 0 63 -12z" />
    <glyph glyph-name="fl" unicode="&#xf002;" horiz-adv-x="497" 
d="M431 868v-868h-90v868h90zM294 868v-91q-43 19 -60 19q-42 0 -56 -46q-8 -26 -8 -81v-201h124v-84h-124v-384h-90v384h-41v84h41v228q0 184 151 184q33 0 63 -12z" />
    <glyph glyph-name="periodcentered" horiz-adv-x="289" 
d="M145 314q24 0 41 -17t17 -41t-17 -41t-41 -17t-41 17t-17 41t17 41t41 17z" />
    <glyph glyph-name="glyph231" horiz-adv-x="289" 
 />
    <glyph glyph-name="glyph232" horiz-adv-x="289" 
 />
    <glyph glyph-name="glyph258" horiz-adv-x="278" 
 />
    <glyph glyph-name="glyph259" horiz-adv-x="278" 
 />
    <glyph glyph-name="glyph275" horiz-adv-x="249" 
 />
    <glyph glyph-name="glyph276" horiz-adv-x="249" 
 />
    <glyph glyph-name="glyph261" horiz-adv-x="500" 
d="M253 522q9 28 11 64q1 11 8 13q2 0 8 1q67 11 67 54q0 35 -28 35q-5 0 -14 -1t-14 -1q-21 0 -21 18q0 28 32 28q46 0 75 -24q31 -27 27 -72q-6 -59 -87 -81q-25 -7 -31 -34h-33z" />
    <glyph glyph-name="glyph262" horiz-adv-x="541" 
d="M100 589l159 145l161 -145l-59 -46l-102 96l-101 -96zM199 923l83 -44l-164 -149l-44 27z" />
    <glyph glyph-name="glyph263" horiz-adv-x="541" 
d="M100 589l159 145l161 -145l-59 -46l-102 96l-101 -96zM184 879l83 44l125 -166l-44 -27z" />
    <glyph glyph-name="glyph264" horiz-adv-x="541" 
d="M100 589l159 145l161 -145l-59 -46l-102 96l-101 -96zM411 671q9 28 11 64q1 11 8 13q2 0 8 1q67 11 67 54q0 35 -28 35q-5 0 -14 -1t-14 -1q-21 0 -21 18q0 28 32 28q46 0 75 -24q31 -27 27 -72q-6 -59 -87 -81q-25 -7 -31 -34h-33z" />
    <glyph glyph-name="glyph265" horiz-adv-x="541" 
d="M100 589l159 145l161 -145l-59 -46l-102 96l-101 -96zM183 761v0l-47 40l3 5q46 76 108 76q34 0 89 -26.5t72 -26.5q35 0 64 48l47 -39q-40 -82 -118 -82q-27 0 -81 25.5t-80 25.5q-35 0 -57 -46z" />
    <glyph glyph-name="glyph266" horiz-adv-x="541" 
d="M101 693h72q32 -75 102 -75q69 0 103 75h71q-11 -63 -60.5 -102t-113.5 -39t-113 39.5t-61 101.5zM278 923l83 -44l-164 -149l-44 27z" />
    <glyph glyph-name="glyph267" horiz-adv-x="541" 
d="M101 693h72q32 -75 102 -75q69 0 103 75h71q-11 -63 -60.5 -102t-113.5 -39t-113 39.5t-61 101.5zM131 879l83 44l125 -166l-44 -27z" />
    <glyph glyph-name="glyph268" horiz-adv-x="541" 
d="M101 693h72q32 -75 102 -75q69 0 103 75h71q-11 -63 -60.5 -102t-113.5 -39t-113 39.5t-61 101.5zM306 671q9 28 11 64q1 11 8 13q2 0 8 1q67 11 67 54q0 35 -28 35q-5 0 -14 -1t-14 -1q-21 0 -21 18q0 28 32 28q46 0 75 -24q31 -27 27 -72q-6 -59 -87 -81
q-25 -7 -31 -34h-33z" />
    <glyph glyph-name="glyph269" horiz-adv-x="541" 
d="M101 693h72q32 -75 102 -75q69 0 103 75h71q-11 -63 -60.5 -102t-113.5 -39t-113 39.5t-61 101.5zM183 761v0l-47 40l3 5q46 76 108 76q34 0 89 -26.5t72 -26.5q35 0 64 48l47 -39q-40 -82 -118 -82q-27 0 -81 25.5t-80 25.5q-35 0 -57 -46z" />
    <glyph glyph-name="glyph270" horiz-adv-x="249" 
 />
  </font>
</defs>
</svg>
