<svg xmlns="http://www.w3.org/2000/svg">
<defs>
<font id="UTMColossalis" horiz-adv-x="1323" >
  <font-face 
    font-family="UTMColossalis"
    font-weight="400"
    font-stretch="normal"
    units-per-em="2048"
    panose-1="2 4 6 3 5 5 6 2 2 4"
    ascent="1638"
    descent="-410"
    x-height="1139"
    cap-height="1446"
    bbox="-28 -563 4942 2146"
    underline-thickness="109"
    underline-position="-359"
    unicode-range="U+0020-2026"
  />
<missing-glyph horiz-adv-x="5040" 
d="M3351 2045h10q37 -10 37 -52q0 -12 -32 -57h-28q0 24 28 54l2 10q-5 13 -10 15h-9q-8 0 -10 -19h-30q6 49 42 49zM2019 2016l29 -31q0 -16 -40 -30h-19l-59 12l-11 -12l-28 25q11 29 43 29h11l42 -11h2q10 0 30 18zM468 1980h142v-60h-94v-75h89v-59h-89v-129l-5 -5h-49
v323zM1155 1980h43l6 -5v-78h30v-52h-30v-188l-6 -5h-49v193h-25v52h25v78zM1621 1980h42l4 -5v-94h3q23 24 54 24h2q58 0 83 -71l2 -39v-143h-52v115q0 80 -42 80h-7q-43 0 -43 -86v-109h-51v323zM2200 1980h49l5 -5v-222q10 -51 45 -51q44 7 44 59v214l5 5h49v-216
q0 -85 -66 -112q-15 -8 -35 -8q-47 0 -82 55q-14 24 -14 57v224zM2435 1980h159v-60h-56v-268h-53v268h-55v55zM2621 1980h71q7 -4 83 -251h2l80 251h73v-328h-54v242h-2l-74 -242h-44q-4 0 -58 182l-19 60h-3v-242h-55v328zM3760 1980h52v-328h-45l-5 5v11l3 2l-3 14
q-29 -40 -78 -40q-67 0 -100 91l-5 39v3q0 94 92 125l23 3q35 0 63 -32h3v107zM2057 1928h36l4 -6v-49h-45v-221h-48v23q-23 -31 -59 -31q-89 14 -89 97v156h51v-104q0 -79 26 -86l18 -5h6q26 0 39 36l3 26v133h53v25zM3476 1928v-55h-31v-221h-47v25h-2q-15 -33 -57 -33
q-68 0 -86 78l-3 29v146h52v-120q0 -50 19 -68l21 -7h9q42 0 42 69v126h27q4 0 4 28l3 3h49zM758 1905q68 0 103 -77q9 -18 12 -54q0 -88 -90 -127l-32 -3q-63 0 -101 73q-12 22 -12 52v10q0 94 101 126h19zM1011 1905h3q74 0 83 -101v-152h-51v119q0 76 -42 76h-5
q-44 0 -44 -76v-119h-52v245h46v-21q30 29 62 29zM1466 1905h7q72 0 105 -89h-60q-16 31 -42 31h-17q-53 -14 -53 -61l-3 -15q12 -69 61 -69h9q22 0 47 27h40l2 3h3l2 -3l2 3l3 -3l2 3l2 -7q-33 -81 -110 -81q-76 0 -110 94l-4 36v3q0 85 77 120q15 8 37 8zM3141 1905h2

<glyph glyph-name=".notdef" horiz-adv-x="5040" 
d="M3351 2045h10q37 -10 37 -52q0 -12 -32 -57h-28q0 24 28 54l2 10q-5 13 -10 15h-9q-8 0 -10 -19h-30q6 49 42 49zM2019 2016l29 -31q0 -16 -40 -30h-19l-59 12l-11 -12l-28 25q11 29 43 29h11l42 -11h2q10 0 30 18zM468 1980h142v-60h-94v-75h89v-59h-89v-129l-5 -5h-49
v323zM1155 1980h43l6 -5v-78h30v-52h-30v-188l-6 -5h-49v193h-25v52h25v78zM1621 1980h42l4 -5v-94h3q23 24 54 24h2q58 0 83 -71l2 -39v-143h-52v115q0 80 -42 80h-7q-43 0 -43 -86v-109h-51v323zM2200 1980h49l5 -5v-222q10 -51 45 -51q44 7 44 59v214l5 5h49v-216
q0 -85 -66 -112q-15 -8 -35 -8q-47 0 -82 55q-14 24 -14 57v224zM2435 1980h159v-60h-56v-268h-53v268h-55v55zM2621 1980h71q7 -4 83 -251h2l80 251h73v-328h-54v242h-2l-74 -242h-44q-4 0 -58 182l-19 60h-3v-242h-55v328zM3760 1980h52v-328h-45l-5 5v11l3 2l-3 14
q-29 -40 -78 -40q-67 0 -100 91l-5 39v3q0 94 92 125l23 3q35 0 63 -32h3v107zM2057 1928h36l4 -6v-49h-45v-221h-48v23q-23 -31 -59 -31q-89 14 -89 97v156h51v-104q0 -79 26 -86l18 -5h6q26 0 39 36l3 26v133h53v25zM3476 1928v-55h-31v-221h-47v25h-2q-15 -33 -57 -33
q-68 0 -86 78l-3 29v146h52v-120q0 -50 19 -68l21 -7h9q42 0 42 69v126h27q4 0 4 28l3 3h49zM758 1905q68 0 103 -77q9 -18 12 -54q0 -88 -90 -127l-32 -3q-63 0 -101 73q-12 22 -12 52v10q0 94 101 126h19zM1011 1905h3q74 0 83 -101v-152h-51v119q0 76 -42 76h-5
q-44 0 -44 -76v-119h-52v245h46v-21q30 29 62 29zM1466 1905h7q72 0 105 -89h-60q-16 31 -42 31h-17q-53 -14 -53 -61l-3 -15q12 -69 61 -69h9q22 0 47 27h40l2 3h3l2 -3l2 3l3 -3l2 3l2 -7q-33 -81 -110 -81q-76 0 -110 94l-4 36v3q0 85 77 120q15 8 37 8zM3141 1905h2
q49 0 70 -60v-14h-52q0 16 -16 16h-4q-14 0 -19 -13v-13q0 -9 68 -35q30 -19 30 -59q0 -58 -61 -80l-23 -3q-76 12 -76 83h54q0 -20 27 -25h4q19 0 24 23q0 22 -68 44q-34 27 -34 59q0 66 74 77zM4203 1905q55 0 77 -63q7 -18 7 -65v-125h-52v112q0 83 -40 83h-11
q-33 0 -40 -54v-141h-52v5h-2l2 2v238h47v-21q25 29 64 29zM4432 1905h5q40 0 69 -40v18l-3 3l3 11h47v-208q0 -97 -85 -132l-33 -4h-7q-70 0 -104 80h59q24 -22 45 -23h13q22 0 43 22q15 13 22 52h-3q-32 -40 -73 -40q-57 0 -96 70q-10 18 -14 63q0 88 87 125zM3851 1897
h53v-136q6 -59 40 -59h7q46 0 46 93v102h51v-245h-47l-3 10h3l-3 3v5l3 2v3h-4q0 -23 -57 -31h-3q-59 0 -84 75l-2 85v93zM690 1771q10 -69 63 -69h7q59 14 59 65v15q-13 65 -59 65h-5q-58 0 -65 -76zM3630 1774q13 -72 61 -72h5q58 0 66 75q0 49 -51 70h-22q-37 0 -56 -57z
M4374 1774q8 -72 65 -72h5q59 12 59 72q0 61 -59 73h-14q-56 -16 -56 -62v-11zM3928 1620h52v-57h-52v57zM1054 1402q43 -11 43 -49v-4q0 -17 -32 -60h-28q0 25 31 57v7q0 12 -7 15h-12q-10 -4 -10 -19h-28v6q0 32 33 44zM3349 1339q92 0 138 -99h-60q-37 42 -80 42
q-55 0 -87 -68q-10 -22 -10 -47q0 -78 81 -110l18 -1q36 0 75 39h61q-44 -97 -138 -97q-93 0 -141 112q-10 31 -10 62q0 97 90 152q29 15 63 15zM3664 1339q57 0 103 -47q46 -51 46 -115v-20q0 -89 -91 -146q-33 -13 -63 -13q-89 0 -138 101q-13 33 -13 60v18q0 98 98 151
q29 11 58 11zM2261 1337h2l47 -11h3q11 0 26 11l18 -36q-18 -19 -35 -19h-3l-54 10l-20 -7l-20 36q18 16 36 16zM716 1334h19q118 0 129 -26q25 -26 25 -62q-10 -57 -30 -57v-6q47 -23 47 -66v-18q0 -63 -69 -88l-54 -5h-67v328zM2550 1334h53v-217q6 -61 45 -61q29 0 44 39
l3 30v203l4 6h45l5 -6v-171q0 -118 -40 -133q-24 -26 -64 -26q-55 0 -91 76l-4 54v206zM2805 1334h59q4 0 122 -237h4v237h50l4 -6v-322h-58q-29 48 -125 238h-3v-238h-53v328zM3101 1334h54v-328h-54v328zM3859 1334h8q155 0 174 -40q23 -11 47 -75l4 -36v-11l3 -2
q0 -94 -82 -149q-35 -15 -99 -15h-55v328zM4141 1334h153v-60h-103v-75h101v-57h-101v-74l4 -5h99v-57h-157v322zM3563 1175v-10q0 -76 79 -108l19 -1q68 0 96 86l3 20v15q0 61 -60 94q-12 8 -39 11q-66 0 -96 -83zM770 1274v-67h9q54 0 54 28l3 14q-11 25 -29 25h-37z
M3912 1274v-206l2 -3v-2q104 0 122 76l2 15v29q0 34 -32 68q-25 23 -78 23h-16zM1041 1259h5q38 0 71 -40v32h49v-245h-49v32q-36 -40 -80 -40q-75 0 -101 97l-5 36q0 89 85 125zM1314 1259h3q74 0 83 -102v-151h-51v128q0 67 -42 67h-10q-34 0 -39 -62v-133h-52v245h47v-21
q28 29 61 29zM1543 1259h5q45 0 71 -40v32h47v-219q0 -95 -104 -126h-16q-74 0 -108 82h59q26 -25 44 -25h14q52 0 64 77q-33 -42 -76 -42q-60 0 -101 81l-7 44v16q0 79 85 117zM1912 1259h2q43 0 61 -37h2q32 37 69 37h4q57 0 79 -55q8 -25 8 -45v-153h-52v138q0 44 -23 55
l-12 2h-15q-32 0 -36 -65v-130h-52v136q0 59 -43 59h-8q-32 0 -36 -57v-138h-54v245h50v-21h2q6 24 54 29zM2282 1259q47 0 75 -42v34h47v-245h-47v32q-36 -40 -78 -40q-74 0 -102 92l-6 41q0 90 85 125zM985 1117q0 -48 61 -61h4q45 0 62 46l3 15v22q-12 62 -57 62h-14
q-41 0 -59 -57v-27zM1487 1128q0 -48 43 -68l18 -4h5q47 0 63 57v23q-11 65 -58 65h-12q-50 0 -59 -73zM2225 1131v-14q15 -61 57 -61h14q58 12 58 64v11q0 45 -37 65l-18 5h-10q-64 -8 -64 -70zM770 1150v-82q0 -5 7 -5q77 0 77 45q0 34 -47 42h-37zM2966 753l24 -28
l-51 -55q-18 12 -27 26zM1524 727l85 -54q0 -15 -21 -42l-87 54q18 41 23 42zM2850 693h38l55 -60h-54l-21 26l-23 -26h-54q54 60 59 60zM3422 693h40l56 -60h-54l-24 26h-1q0 -5 -19 -26h-54zM622 685h52q8 -4 47 -137l34 -110q9 8 34 100l48 147h54v-2l-112 -326h-44z
M1159 685h51v-54h-51v54zM1354 685h46l6 -5v-323h-52v328zM2317 685h45l4 -5v-78h31v-52h-31v-193h-53v193h-26v52h26v78zM2425 685h52v-98h2q23 23 54 23h3q57 0 81 -71l3 -38v-144h-52v115q0 81 -39 81h-10q-42 0 -42 -87v-109h-52v328zM2664 685h52v-54h-52v54zM3028 685
h44l6 -5v-78h29v-52h-29v-193h-54v193h-27v52h27v78zM3234 685h52v-328h-52v328zM3957 685h52v-328h-52v328zM4316 685h51v-54h-51v54zM1555 610h5q83 0 110 -102l3 -23v-11q0 -83 -85 -120l-35 -5q-76 0 -111 97l-4 32q0 97 93 130zM1811 610h4q53 0 78 -60q7 -25 7 -81
v-112h-54v146q-7 50 -37 50h-10q-38 0 -42 -57v-139h-54v245h49v-21q26 29 59 29zM2046 610h4q45 0 63 -39h3v31h49v-206q0 -102 -89 -135l-28 -3h-5q-73 0 -106 81h52l37 -20l15 -3h14q50 0 61 72q-33 -39 -73 -39q-62 0 -98 76q-11 23 -12 60q0 85 86 123zM2866 610h2
q82 0 111 -104l2 -25l-2 -27h-172q15 -45 45 -45l14 -3q29 0 49 22h57v-3q-35 -76 -108 -76q-77 0 -111 97l-1 28v8q0 49 32 89q34 39 82 39zM3429 610h5q41 0 70 -39h2v31h47v-245h-47v31h-2q-35 -39 -77 -39q-71 0 -101 89l-5 36v14q0 86 84 120zM3711 610h7
q88 0 107 -128l-2 -1v-15q0 -65 -66 -106q-21 -11 -46 -11q-34 0 -64 32v-99l-5 -5h-49v325h49v-28q31 36 69 36zM4151 610q44 0 75 -39v31h49v-245h-49v31q-35 -39 -77 -39q-92 0 -108 132q0 84 73 121q15 8 37 8zM922 602h50v-136q3 -60 42 -60h5q44 0 44 87v109h52v-245
h-47v24h-5q0 -23 -56 -32h-3q-55 0 -82 68q-4 35 -4 99v81zM1159 602h51v-245h-51v245zM2664 602h52v-245h-52v245zM4316 602h51v-245h-51v245zM1492 488v-16q13 -66 59 -66h4q59 0 66 76q-13 71 -59 71h-11q-59 -16 -59 -65zM1987 472q15 -66 59 -66h11q48 0 59 75v1
q-13 71 -59 71h-14q-39 0 -56 -57v-24zM2805 506h122v2q-16 45 -59 45h-7q-35 0 -56 -47zM3373 474q13 -68 61 -68h5q52 0 65 63v12q-10 72 -57 72h-16q-56 -14 -56 -63zM3642 478q12 -72 61 -72h3q50 0 65 60v22q0 43 -49 65h-22q-47 0 -58 -72v-3zM4095 472q10 -66 66 -66
q43 0 61 48l2 15v16q0 54 -52 68h-18q-42 0 -59 -60v-21zM3416 321h51v-52h-51v52zM4137 321h51v-52h-51v52zM2733 133h4q35 0 43 -50v-2q0 -16 -24 -41l-10 -17h-28q0 25 28 56l3 2v2q-3 19 -9 19h-10q-8 0 -9 -19h-30q6 50 42 50zM1546 116l52 -60l-26 -19l-52 52zM352 79
h4q75 -48 85 -60l-20 -37q-88 49 -88 58zM3490 79l86 -58l-18 -39q-10 0 -91 55q15 36 23 42zM4578 76l19 -42l-91 -52l-20 39l92 58v-3zM1204 53h51v-19l5 -5h14v-36h-14l-5 -5v-279h-46v31q-34 -40 -81 -40q-72 0 -102 105l-3 26q0 102 101 131h14q33 0 66 -33v59l-6 5
h-43v36h49v24zM1480 45h40l56 -61h-53l-23 27l-23 -27h-53zM2641 45h33q12 0 63 -61h-54l-23 27q-19 -21 -19 -27h-58v4zM49 37h160v-60h-56v-268h-50l-4 5v245l2 3v2l-2 2l2 3l-2 2l2 3l-2 3h-54v54zM699 37h47v-73l2 -2l-2 -3v-3l2 -2l-2 -3v-3l2 -2v-2l-2 -3l2 -3h3
q17 24 51 24h3q53 0 77 -58q7 -17 7 -42v-153h-52v127q0 68 -40 68h-8q-43 0 -43 -86v-109h-52v322zM1297 37h47l5 -6v-49h-52v55zM1987 37h52v-198l70 115h62l-78 -118l90 -125v-2h-70q-10 22 -74 115v-115h-52v328zM2271 37v-99q24 24 53 24q57 0 80 -56q10 -19 10 -77
v-120h-54v133q0 62 -41 62h-11q-31 0 -37 -55v-140h-53v314l-1 3v3l1 2l-1 3l1 3h53zM2458 37h51v-55h-51v55zM3148 37h51v-108q27 33 68 33h3q75 0 105 -94l5 -37q0 -75 -64 -120q-30 -11 -49 -11q-41 0 -72 40v-31h-47v328zM4275 37h52v-99h2q23 24 54 24h3q60 0 82 -74
l2 -41v-138h-52v111q0 82 -32 82l-10 2h-12q-37 0 -37 -80v-115h-52v328zM329 -38h3v-58h-5q-42 0 -42 -57v-138h-53v245h47v-21q18 29 50 29zM564 -38q71 0 86 -87v-166h-51v136q-6 59 -41 59h-6q-45 0 -45 -84v-111h-52v245h50v-21q25 29 59 29zM1504 -38q72 0 105 -94
l5 -39q-2 -24 -7 -24h-169q17 -47 62 -47q24 0 48 21h57q-33 -79 -108 -79q-82 0 -113 105v37q0 81 89 117zM2657 -38h5q77 0 107 -97l3 -26v-21l-3 -13h-170q18 -47 53 -47h12q21 0 42 21h59q-34 -79 -105 -79q-84 0 -115 102l-2 29q0 93 91 128zM2915 -38h4q54 0 78 -60
q7 -25 7 -82v-111h-54v138q0 48 -35 57h-11q-38 0 -43 -57v-138h-54v245h50v-21q25 29 58 29zM3508 -38h6q40 0 70 -40h2v32h47v-245h-47v31h-2q-34 -40 -78 -40q-71 0 -101 90l-4 37v12q0 82 77 117q11 6 30 6zM3781 -38h4q62 0 82 -78l3 -84v-91h-54v138q0 48 -38 57h-9
q-38 0 -42 -52v-143h-54v245h49v-21q26 29 59 29zM4133 -38h1q74 0 104 -93l4 -40q0 -88 -84 -126l-25 -3q-41 0 -68 34v-106h-52v326h47v-29q30 37 73 37zM4714 -38h5q34 0 63 -37q27 37 69 37h6q56 0 79 -66l6 -51v-136h-52v122q0 73 -39 73h-7q-35 0 -41 -50v-140l-5 -5
h-48v140q0 42 -31 55h-17q-40 0 -40 -77v-118h-51v245h47v-21q22 29 56 29zM359 -46h49l5 -6v-234l-5 -5h-49v245zM1297 -46h52v-245h-52v245zM1649 -46h52v-136q4 -60 43 -60h4q44 0 44 81v115h52v-245h-47v24h-5q-12 -33 -59 -33q-52 0 -79 63q-5 12 -5 34v157zM2458 -46
h51v-245h-51v245zM4515 -46h51v-245h-51v245zM1077 -169q0 -53 51 -73h12q54 0 66 66v10q0 53 -54 70h-17q-38 0 -58 -57v-16zM1438 -143h122q-18 47 -53 47h-7q-43 0 -62 -44v-3zM2599 -143h122q-21 47 -54 47h-7q-46 0 -61 -47zM3196 -158v-11q10 -73 61 -73h5q64 8 64 71
v5q0 45 -38 65l-18 5h-14q-60 -14 -60 -62zM3452 -173q14 -69 62 -69h11q41 0 59 60v13q-8 73 -56 73h-17q-47 0 -59 -73v-4zM4062 -158v-22q0 -47 59 -62h9q50 0 61 76q-13 70 -58 70h-15q-56 -17 -56 -62z" />
    <glyph glyph-name=".null" horiz-adv-x="0" 
 />
    <glyph glyph-name="nonmarkingreturn" horiz-adv-x="571" 
 />
    <glyph glyph-name="space" unicode=" " horiz-adv-x="555" 
 />
    <glyph glyph-name="exclam" unicode="!" horiz-adv-x="681" 
d="M167 1446h428l-37 -1000h-354zM177 293h406v-293h-406v293z" />
    <glyph glyph-name="quotedbl" unicode="&#x22;" horiz-adv-x="811" 
d="M762 1370l-109 -534h-63l-113 512q-4 36 -4 49q0 65 49 102q43 35 105 35q57 0 97 -34t40 -93q0 -27 -2 -37zM336 1370l-109 -534h-65l-111 512q-6 28 -6 49q0 65 47 101t107 36q57 0 98 -34t41 -93v-18q-2 -13 -2 -19z" />
    <glyph glyph-name="numbersign" unicode="#" horiz-adv-x="1366" 
d="M993 381l-53 -381h-256l53 381h-202l-54 -381h-254l52 381h-193v252h229l27 196h-205v254h240l51 363h256l-53 -363h205l49 363h256l-49 -363h186v-254h-223l-25 -196h201v-252h-238zM569 633h203l29 196h-203z" />
    <glyph glyph-name="dollar" unicode="$" horiz-adv-x="1110" 
d="M497 0h-401l-33 451h348l14 -115q11 -78 109 -78q64 0 87.5 29.5t23.5 109.5q0 64 -12.5 86.5t-65.5 42.5l-365 136q-96 36 -117.5 70t-21.5 157v209q0 86 25 131q36 67 172 172q41 33 68.5 40t86.5 7h82v135h119v-135h365l26 -434h-336l-16 102q-12 72 -94 72
q-107 0 -107 -119q0 -76 27 -106q16 -19 76 -41l331 -121q99 -35 127.5 -73t28.5 -136v-248q0 -80 -23 -123q-36 -65 -167 -170q-48 -37 -82.5 -44t-155.5 -7v-162h-119v162z" />
    <glyph glyph-name="percent" unicode="%" horiz-adv-x="1792" 
d="M295 1446h188q53 0 74 -10q31 -13 84 -68t62 -75.5t9 -78.5v-446q0 -53 -10 -75.5t-59 -71.5q-58 -56 -90 -70q-23 -8 -78 -8h-195q-63 0 -106 35q-86 69 -107 106q-14 27 -14 86v442q0 56 8 78q12 31 63.5 82t86.5 64q24 10 84 10zM461 811v367q0 53 -11 69
q-14 27 -65 27q-53 0 -68 -27q-10 -16 -10 -69v-367q0 -53 10 -72q15 -26 62 -26q82 0 82 98zM1116 1446h145l-583 -1446h-148zM1319 905h188q51 0 76.5 -11t80 -67.5t63.5 -76t9 -76.5v-447q0 -53 -10 -75.5t-59 -71.5q-58 -55 -90 -70q-25 -10 -78 -10h-195q-65 0 -106 35
q-86 71 -107 106q-14 29 -14 88v443q0 55 8 78q12 30 63.5 81.5t86.5 63.5q24 10 84 10zM1485 266v367q0 53 -11 69q-14 27 -65 27q-53 0 -68 -27q-10 -16 -10 -69v-367q0 -53 10 -71q15 -27 62 -27q82 0 82 98z" />
    <glyph glyph-name="ampersand" unicode="&#x26;" horiz-adv-x="1236" 
d="M440 1446h534l35 -377h-303l-10 47q-13 53 -24 64.5t-48 11.5q-88 0 -111 -16q-26 -23 -26 -105v-143q0 -56 28 -76q23 -16 152 -16l385 172v-172h145v-244h-145v-203q0 -80 19.5 -95t117.5 -15v-279h-798q-54 0 -82 14q-41 19 -119 88q-86 78 -107 115q-14 29 -14 98
v181q0 75 23 108q32 45 161 109q-106 59 -133 102q-18 33 -18 113v239q0 62 17.5 93.5t103.5 101.5q73 59 108 74q29 10 109 10zM685 592h-112q-64 0 -84.5 -23.5t-20.5 -83.5v-102q0 -78 45 -100q25 -13 172 -13v322z" />
    <glyph glyph-name="quotesingle" unicode="'" horiz-adv-x="425" 
d="M356 1370l-109 -534h-63l-113 512q-4 36 -4 49q0 65 49 102q43 35 105 35q57 0 97 -34t40 -93q0 -27 -2 -37z" />
    <glyph glyph-name="parenleft" unicode="(" horiz-adv-x="681" 
d="M653 -4v-256h-140q-102 0 -143 18q-53 23 -141 117q-82 88 -103 141q-14 41 -14 140v895q0 100 14 137q21 55 110 138t142 106q37 14 123 14h152v-256q-49 -2 -70 -8q-37 -8 -63 -33q-31 -31 -39 -78q-4 -27 -4 -106v-764q0 -117 22 -152q33 -49 154 -53z" />
    <glyph glyph-name="parenright" unicode=")" horiz-adv-x="681" 
d="M28 1192v256h139q103 0 144 -18q53 -23 141 -117q82 -88 102 -142q15 -41 15 -139v-895q0 -100 -15 -137q-20 -55 -106 -135q-92 -86 -146 -109q-36 -14 -122 -14h-152v256q49 2 70 8q36 8 65 36t37 73q4 26 4 108v764q0 117 -22 152q-33 49 -154 53z" />
    <glyph glyph-name="asterisk" unicode="*" horiz-adv-x="811" 
d="M335 1217l-18 229q43 16 102 16q43 0 82 -16l-26 -229l188 131q70 -58 88 -154l-200 -94l200 -88q-18 -97 -88 -162l-188 129l12 -225q-37 -19 -90 -19t-88 19l26 225l-186 -129q-78 51 -90 162l203 88l-203 94q14 96 90 154z" />
    <glyph glyph-name="plus" unicode="+" horiz-adv-x="1366" 
d="M815 467v-467h-260v467h-469v260h469v467h260v-467h465v-260h-465z" />
    <glyph glyph-name="comma" unicode="," horiz-adv-x="512" 
d="M109 287h324v-146q0 -67 -6 -94t-33 -65q-107 -156 -291 -301l-131 110q98 162 137 254v242z" />
    <glyph glyph-name="hyphen" unicode="-" horiz-adv-x="768" 
d="M57 739h651v-280h-651v280z" />
    <glyph glyph-name="hyphen" unicode="&#x2010;" horiz-adv-x="768" 
d="M57 739h651v-280h-651v280z" />
    <glyph glyph-name="period" unicode="." horiz-adv-x="512" 
d="M92 283h328v-283h-328v283z" />
    <glyph glyph-name="slash" unicode="/" horiz-adv-x="641" 
d="M493 1446h138l-484 -1446h-137z" />
    <glyph glyph-name="zero" unicode="0" horiz-adv-x="1193" 
d="M466 1448h276q84 0 119 -16q47 -21 132 -108t100.5 -120t15.5 -119v-727q0 -77 -14 -110q-19 -47 -97 -123q-90 -88 -141 -111q-37 -14 -117 -14h-301q-69 0 -102 14q-47 23 -139 109q-82 78 -101 121q-14 32 -14 121v712q0 84 14 119q19 51 97 129q86 86 141 109
q39 14 131 14zM484 1020v-588q0 -84 11 -110q20 -54 100 -54q70 0 94 33q21 27 21 96v623q0 84 -15 113q-22 45 -96 45q-78 0 -100 -45q-15 -29 -15 -113z" />
    <glyph glyph-name="one" unicode="1" horiz-adv-x="1193" 
d="M249 997v303l485 158q58 19 66 19q27 0 33 -15.5t6 -60.5v-1118h63v-283h-530v283h67v794z" />
    <glyph glyph-name="two" unicode="2" horiz-adv-x="1193" 
d="M149 942l41 504h520q89 0 120.5 -15.5t119.5 -103.5q78 -78 98 -123q13 -30 13 -100v-154q0 -88 -17.5 -121.5t-115.5 -144.5l-359 -399h496v-285h-930v266q0 78 12.5 106.5t81.5 102.5l363 393q53 58 63 78.5t10 67.5q2 84 -10 110q-16 41 -74 43q-47 2 -57 -4
q-18 -8 -27 -51l-36 -170h-312z" />
    <glyph glyph-name="three" unicode="3" horiz-adv-x="1193" 
d="M122 971l49 475h814q59 0 77 -8q33 -11 33 -52q0 -32 -33 -100l-219 -459l119 -59q80 -39 98 -76q15 -26 15 -114v-220q0 -75 -11 -104q-14 -41 -88 -115q-61 -59 -107 -93t-74 -40t-124 -6h-520l-43 504h319l29 -176q6 -41 24.5 -49.5t96.5 -8.5q100 0 100 121v150
q0 73 -18 94q-27 31 -125 31h-137l254 508h-127q-45 0 -56.5 -10.5t-23.5 -55.5l-35 -137h-287z" />
    <glyph glyph-name="four" unicode="4" horiz-adv-x="1193" 
d="M373 1448h639v-756h120v-266h-120v-143h65v-283h-532v283h80v143h-578v291zM409 684h220v551z" />
    <glyph glyph-name="five" unicode="5" horiz-adv-x="1193" 
d="M163 1446h879v-283h-527v-186h222q75 0 112 -19q49 -22 128 -104t94.5 -115.5t15.5 -117.5v-326q0 -39 -17 -66q-20 -34 -100 -114t-131 -101q-35 -14 -123 -14h-559l-43 467h344l18 -131q7 -49 25.5 -58.5t87.5 -9.5q62 0 82 31q16 25 16 86v219q0 66 -12 88
q-16 33 -80 35q-86 2 -103.5 -11.5t-39.5 -92.5h-318z" />
    <glyph glyph-name="six" unicode="6" horiz-adv-x="1193" 
d="M481 1448h547l32 -461h-327l-31 129q-14 62 -92 62q-70 0 -92 -35q-15 -21 -15 -78v-199h265q84 0 118 -12q49 -18 124 -89t93 -118q15 -33 15 -112v-189q0 -78 -15 -108q-18 -43 -96 -113q-98 -88 -151 -111q-37 -14 -123 -14h-242q-100 0 -137 16.5t-129 104.5
q-86 82 -107 129q-14 37 -14 133v709q0 84 14 112q17 37 99 123t133 107q39 14 131 14zM604 602h-101v-219q0 -61 15 -86q22 -37 92 -37q110 0 110 123v104q0 70 -22.5 92.5t-93.5 22.5z" />
    <glyph glyph-name="seven" unicode="7" horiz-adv-x="1193" 
d="M819 283h80l-76 -283h-494l316 1169h-105q-63 0 -84.5 -21.5t-38.5 -90.5l-34 -150h-279l43 539h891q65 0 65 -53q0 -17 -16 -80z" />
    <glyph glyph-name="eight" unicode="8" horiz-adv-x="1193" 
d="M79 326v182q0 94 18 127q27 45 136 108q-101 80 -127 127q-19 33 -19 99v151q0 68 15 97q18 36 98 116t131 101q35 14 121 14h280q123 0 241 -107.5t118 -228.5v-151q0 -72 -21.5 -103t-128.5 -108q123 -74 152 -115q22 -35 22 -127v-164q0 -63 -14 -96q-21 -47 -96 -125
q-86 -86 -138 -109q-38 -14 -126 -14h-291q-84 0 -117 12q-45 19 -127 92q-90 82 -111 121q-16 31 -16 101zM691 977v98q0 109 -98 109q-104 0 -104 -109v-98q0 -103 104 -103q98 0 98 103zM712 387v111q0 123 -123 123q-117 0 -117 -123v-111q0 -123 123 -123
q117 0 117 123z" />
    <glyph glyph-name="nine" unicode="9" horiz-adv-x="1193" 
d="M126 0l-43 455h354l23 -129q8 -41 29.5 -49.5t97.5 -8.5q65 0 88 37q14 27 14 98v164h-241q-82 0 -117 15q-55 18 -135 96t-101 119q-14 30 -14 102v188q0 76 8 103q25 82 197 213q39 29 64.5 36t97.5 7h286q78 0 111 -14q43 -19 129 -103q80 -76 97.5 -114.5
t17.5 -127.5v-718q0 -84 -15 -121q-20 -51 -98 -127q-90 -86 -130 -103.5t-144 -17.5h-576zM480 1073v-127q0 -53 11 -74q14 -28 47 -34q26 -4 151 -4v227q0 59 -12 82q-21 43 -86 43q-68 0 -89.5 -28t-21.5 -85z" />
    <glyph glyph-name="colon" unicode=":" horiz-adv-x="598" 
d="M174 283h330v-283h-330v283zM174 1022h330v-283h-330v283z" />
    <glyph glyph-name="semicolon" unicode=";" horiz-adv-x="598" 
d="M190 287h326v-144q0 -106 -39 -163q-119 -173 -287 -299l-135 112q84 131 135 254v240zM186 1022h330v-283h-330v283z" />
    <glyph glyph-name="less" unicode="&#x3c;" horiz-adv-x="1366" 
d="M1366 279v-285l-1366 598v254l1366 606v-285l-1001 -448z" />
    <glyph glyph-name="equal" unicode="=" horiz-adv-x="1366" 
d="M1366 514v-260h-1366v260h1366zM1366 940v-258h-1366v258h1366z" />
    <glyph glyph-name="greater" unicode="&#x3e;" horiz-adv-x="1366" 
d="M1366 592l-1366 -598v285l1001 440l-1001 448v285l1366 -606v-254z" />
    <glyph glyph-name="question" unicode="?" horiz-adv-x="980" 
d="M299 1001h-283l43 445h512q86 0 121 -12q43 -17 120.5 -90.5t98.5 -114.5q14 -31 14 -99v-118q0 -70 -12 -99q-23 -55 -188 -182q-54 -41 -68 -67.5t-18 -98.5l-7 -129h-362v180q0 95 16.5 129.5t102.5 116.5q30 29 106 103q23 22 27 40.5t4 96.5q0 51 -31 65
q-22 9 -106 9q-43 0 -56 -19q-8 -10 -16 -55zM260 295h391v-295h-391v295z" />
    <glyph glyph-name="at" unicode="@" horiz-adv-x="1835" 
d="M1610 166l88 -113q-52 -51 -72 -69q-45 -39 -107 -78q-252 -158 -567 -158q-373 0 -594 207t-221 545q0 381 252 665q262 293 639 293q291 0 477 -191.5t186 -496.5q0 -252 -142 -445.5t-308 -193.5q-146 0 -186 139q-109 -131 -242 -131q-119 0 -199 94q-90 103 -90 277
q0 235 150 412q141 168 313 168q145 0 207 -138l18 84h172l-86 -401q-57 -268 -57 -301q0 -43 41 -43q78 0 162 141q92 156 92 348q0 232 -146.5 383.5t-363.5 151.5q-297 0 -498 -268q-182 -244 -182 -551q0 -279 184 -445q176 -157 449 -157q368 0 631 272zM1118 821
q-2 72 -39 109q-31 31 -70 31q-100 0 -186 -195q-76 -174 -76 -320q0 -155 105 -155q112 0 198 215q72 180 68 315z" />
    <glyph glyph-name="A" unicode="A" 
d="M311 1448h706l213 -1133h70v-315h-461l-49 315h-258l-51 -315h-461v315h74zM569 606h184l-92 568z" />
    <glyph glyph-name="B" unicode="B" 
d="M819 0h-766v315h70v815h-70v318h764q98 0 139 -14q55 -19 141 -90.5t113 -118.5q19 -33 19 -84v-152q0 -74 -27 -110q-39 -54 -178 -129q155 -70 198 -119q31 -39 31 -125v-139q0 -88 -14 -121q-21 -45 -103 -119q-102 -92 -148 -109.5t-169 -17.5zM559 1145v-266h108
q84 0 107 39q14 26 14 118q0 62 -28.5 85.5t-104.5 23.5h-96zM559 612v-305h115q84 0 113.5 30t29.5 109q0 99 -21 127q-28 39 -129 39h-108z" />
    <glyph glyph-name="C" unicode="C" horiz-adv-x="1150" 
d="M1076 938h-338l-20 129q-8 47 -23.5 56.5t-72.5 9.5q-72 0 -95 -39q-12 -23 -12 -103v-524q0 -105 39 -133q25 -19 111 -19q49 0 63 76l29 156h344l-39 -547h-573q-107 0 -144 16q-47 19 -141 111q-86 84 -107 133q-16 41 -16 146v671q0 78 21.5 124t108.5 130t124 100.5
t137 16.5h572z" />
    <glyph glyph-name="D" unicode="D" 
d="M805 0h-750v315h70v815h-70v316h750q110 0 139 -8q63 -19 161.5 -113t117 -136t18.5 -151v-618q0 -111 -15 -148q-18 -53 -98 -135q-96 -98 -153 -121q-46 -16 -170 -16zM557 1130v-815h116q87 0 113 37q19 29 19 117v512q0 92 -27 120.5t-125 28.5h-96z" />
    <glyph glyph-name="E" unicode="E" horiz-adv-x="1193" 
d="M53 1446h1038l35 -473h-344l-18 100q-9 41 -20 53.5t-54 12.5h-137v-267h342v-270h-342v-299h151q41 0 54.5 11.5t21.5 52.5l25 127h354l-33 -494h-1073v315h70v815h-70v316z" />
    <glyph glyph-name="F" unicode="F" horiz-adv-x="1150" 
d="M53 1446h1042l31 -496h-342l-16 117q-6 45 -19.5 58.5t-58.5 13.5h-133v-299h354v-293h-354v-232h69v-315h-573v315h70v815h-70v316z" />
    <glyph glyph-name="G" unicode="G" horiz-adv-x="1280" 
d="M476 1446h652l26 -471h-350l-14 106q-4 37 -23.5 46.5t-77.5 9.5q-121 0 -147.5 -26t-26.5 -136v-518q0 -97 25.5 -125.5t132.5 -28.5h110v291h-133v268h547v-862h-686q-100 0 -133 8q-61 17 -143 86q-74 64 -114 124.5t-40 195.5v641q0 88 14 129q23 59 103 141t147 105
q43 16 131 16z" />
    <glyph glyph-name="H" unicode="H" horiz-adv-x="1366" 
d="M805 1446h507v-316h-69v-815h69v-315h-507v586h-244v-586h-506v315h70v815h-70v316h506v-541h244v541z" />
    <glyph glyph-name="I" unicode="I" horiz-adv-x="681" 
d="M55 1446h573v-316h-69v-815h69v-315h-573v315h70v815h-70v316z" />
    <glyph glyph-name="J" unicode="J" horiz-adv-x="1067" 
d="M446 1446h581v-316h-69v-786q0 -49 -17 -82q-26 -55 -116.5 -139t-145.5 -107q-45 -16 -147 -16h-469l-29 541h289l22 -146q8 -49 19 -61q14 -21 57 -21q64 0 84 45q12 31 12 117v655h-71v316z" />
    <glyph glyph-name="K" unicode="K" 
d="M844 1446h417v-316h-86l-166 -307q74 -28 140 -82q53 -45 67 -82q11 -28 11 -116v-228h69v-315h-502v451q0 86 -24.5 109.5t-104.5 23.5h-106v-584h-506v315h70v815h-70v316h506v-545h61z" />
    <glyph glyph-name="L" unicode="L" horiz-adv-x="1150" 
d="M788 545h332l-31 -545h-1036v315h70v815h-70v316h573v-316h-69v-815h137q39 0 53 19q8 12 17 59z" />
    <glyph glyph-name="M" unicode="M" horiz-adv-x="1921" 
d="M1118 1446h747v-316h-69v-815h69v-315h-483l16 1130l-280 -1130h-320l-282 1143l20 -1143h-481v315h70v815h-70v316h750l155 -905z" />
    <glyph glyph-name="N" unicode="N" horiz-adv-x="1536" 
d="M1077 1446h422v-316h-70v-1130h-622l-344 1139l24 -1139h-434v315h70v815h-70v316h735l301 -1030z" />
    <glyph glyph-name="O" unicode="O" horiz-adv-x="1280" 
d="M517 1446h275q108 0 147 -16q47 -19 135 -105t109 -139q14 -39 14 -156v-624q0 -111 -14 -150q-19 -49 -106 -135t-138 -107q-41 -14 -147 -14h-332q-88 0 -129 18q-47 23 -139 117q-76 78 -97 133q-14 43 -14 148v631q0 106 16 143q21 45 115 137q86 84 141 103
q43 16 164 16zM761 492v464q0 97 -16 125q-25 47 -111 47q-80 0 -107 -53q-10 -20 -10 -119v-464q0 -101 19 -132q24 -43 110 -43q78 0 103 52q12 24 12 123z" />
    <glyph glyph-name="P" unicode="P" horiz-adv-x="1280" 
d="M643 0h-590v315h70v815h-70v316h774q113 0 158 -19q53 -20 145 -104q78 -70 99 -121q14 -35 14 -121v-163q0 -78 -10 -107q-17 -45 -93 -119q-61 -59 -114 -96q-62 -43 -199 -43h-266v-238h82v-315zM561 1145v-285h115q86 0 118 43q27 35 25 123q-2 78 -51 102
q-31 17 -107 17h-100z" />
    <glyph glyph-name="Q" unicode="Q" horiz-adv-x="1280" 
d="M501 1446h328q81 0 118 -16q49 -23 133 -113t103 -139q14 -37 14 -138v-643q0 -118 -14.5 -156t-90 -118t-123.5 -99.5t-167 -23.5l197 -154l-269 -204l-569 501q-57 52 -72 105q-8 33 -8 127v655q0 117 16 156q21 53 113 143q84 82 135 103q41 14 156 14zM765 471v479
q0 88 -12 119q-31 59 -119 59q-82 0 -109 -55q-12 -24 -12 -123v-479q0 -92 17 -121q28 -51 114 -51q82 0 109 53q12 25 12 119z" />
    <glyph glyph-name="R" unicode="R" horiz-adv-x="1366" 
d="M559 0h-506v315h70v815h-70v316h770q107 0 149 -13.5t117 -72.5q66 -53 107 -100q35 -41 42 -70t7 -111v-104q0 -70 -8 -96.5t-45 -59.5q-58 -51 -170 -104q145 -68 190 -109q31 -28 38 -54t7 -95v-142h70v-315h-514v397q0 97 -21 125q-28 39 -129 39h-104v-561z
M559 1130v-288h94q84 0 117 31.5t33 119.5q0 127 -105 135q-10 2 -139 2z" />
    <glyph glyph-name="S" unicode="S" horiz-adv-x="1193" 
d="M512 1448h546l39 -457h-340q-18 111 -20 115q-12 43 -80 43q-82 0 -105 -4q-32 -6 -51.5 -29.5t-19.5 -105.5q0 -43 12 -57.5t62 -26.5l403 -107q111 -28 141.5 -67t30.5 -150v-235q0 -95 -12 -127q-19 -43 -94 -119q-82 -82 -142 -105q-45 -16 -141 -16h-643l-35 477
h344l27 -121q10 -47 29.5 -54t121.5 -7q72 0 97.5 24.5t25.5 90.5q0 71 -14.5 89.5t-95.5 41.5l-336 94q-144 41 -174 80q-25 33 -25 162v221q0 88 14 116q41 82 191 183q55 37 96 45q35 6 148 6z" />
    <glyph glyph-name="T" unicode="T" horiz-adv-x="1236" 
d="M37 1448h1171l16 -530h-254l-26 145q-10 59 -24.5 69.5t-86.5 10.5v-828h70v-315h-574v315h70v828q-70 0 -84 -9.5t-24 -66.5l-29 -149h-250z" />
    <glyph glyph-name="U" unicode="U" 
d="M782 1446h507v-316h-69v-698q0 -117 -14 -158q-21 -59 -105 -141q-96 -94 -154 -117q-41 -16 -143 -16h-289q-96 0 -125 8q-53 17 -141 94q-76 68 -108 115q-29 41 -34 70.5t-5 126.5v716h-70v316h510v-1020q0 -113 119 -113q80 0 104 47q17 29 17 117v969z" />
    <glyph glyph-name="V" unicode="V" horiz-adv-x="1280" 
d="M800 1446h459v-316h-74l-211 -1130h-673l-211 1130h-70v316h461l155 -1102z" />
    <glyph glyph-name="W" unicode="W" horiz-adv-x="1961" 
d="M1478 1446h463v-316h-76l-143 -1130h-588l-153 1100l-150 -1100h-588l-143 1130h-80v316h463l110 -1100l140 1100h499l140 -1100z" />
    <glyph glyph-name="X" unicode="X" horiz-adv-x="1280" 
d="M780 1446h430v-316h-77l-125 -387l157 -428h72v-315h-418l-178 616l-170 -616h-428v315h80l151 428l-127 387h-77v316h428l143 -578z" />
    <glyph glyph-name="Y" unicode="Y" horiz-adv-x="1236" 
d="M784 1446h430v-316h-74l-303 -655v-160h70v-315h-576v315h70v160l-307 655h-74v316h430l170 -623z" />
    <glyph glyph-name="Z" unicode="Z" horiz-adv-x="1150" 
d="M874 518h235l-16 -518h-991q-78 0 -78 55q0 23 49 123l473 967h-121q-55 0 -73 -10q-27 -13 -41 -64q-19 -63 -33 -125h-238l50 502h895q75 0 96 -6q30 -10 30 -45q0 -31 -51 -135l-473 -963h142q65 0 86.5 15.5t35.5 86.5z" />
    <glyph glyph-name="bracketleft" unicode="[" horiz-adv-x="641" 
d="M600 0v-258h-463v1706h463v-262h-109v-1186h109z" />
    <glyph glyph-name="backslash" unicode="\" horiz-adv-x="641" 
d="M493 0l-483 1446h137l484 -1446h-138z" />
    <glyph glyph-name="bracketright" unicode="]" horiz-adv-x="641" 
d="M501 -258h-463v258h109v1186h-109v262h463v-1706z" />
    <glyph glyph-name="asciicircum" unicode="^" horiz-adv-x="1492" 
d="M862 1446l397 -809h-283l-225 473l-237 -473h-281l416 809h213z" />
    <glyph glyph-name="underscore" unicode="_" horiz-adv-x="1024" 
d="M1061 -154v-102h-1065v102h1065z" />
    <glyph glyph-name="grave" unicode="`" horiz-adv-x="555" 
d="M65 1571l480 -172l-41 -139l-496 106z" />
    <glyph glyph-name="a" unicode="a" horiz-adv-x="1110" 
d="M995 252h63v-252h-682q-80 0 -110.5 11.5t-100 72.5t-84.5 96q-12 29 -12 111v164q0 106 28.5 138t151.5 56l377 76v45q0 76 -23.5 102.5t-101.5 26.5q-41 0 -51 -8t-23 -45l-24 -76h-303l41 369h516q86 0 108 -9q31 -12 95.5 -70.5t97.5 -103.5q26 -34 31.5 -61
t5.5 -115v-528zM626 502l-131 -29q-72 -16 -72 -74q0 -108 15 -131q18 -30 108 -30h80v264z" />
    <glyph glyph-name="b" unicode="b" horiz-adv-x="1067" 
d="M16 1448h428v-309h213q78 0 109 -13q43 -18 120.5 -91.5t96.5 -119.5q14 -32 14 -116v-455q0 -84 -15.5 -117.5t-96.5 -114.5t-124 -98q-34 -14 -151 -14h-531v1194h-63v254zM444 899v-655h100q58 0 74 41q10 24 10 100v403q0 78 -37 99q-20 12 -147 12z" />
    <glyph glyph-name="c" unicode="c" horiz-adv-x="980" 
d="M411 1139h479l23 -398h-275q-6 54 -20 119q-12 33 -51 33q-80 2 -101 -16q-28 -23 -28 -107v-412q0 -75 32 -96q21 -14 101 -14q49 0 59 61l21 131h282l-26 -440h-496q-84 0 -112.5 12.5t-106.5 85.5q-88 82 -105.5 115t-17.5 113v475q0 82 17.5 117.5t97.5 115.5
q73 74 116 90q33 15 111 15z" />
    <glyph glyph-name="d" unicode="d" horiz-adv-x="1110" 
d="M630 1448h428v-254h-63v-942h63v-252h-645q-82 0 -115 14q-45 17 -121.5 90.5t-92 108.5t-15.5 125v463q0 76 12 106q27 70 170 187q39 32 62.5 38.5t99.5 6.5h217v309zM630 240v657h-92q-70 0 -90 -43q-12 -27 -12 -104v-388q0 -75 28 -102q17 -14 43 -18q21 -2 123 -2z
" />
    <glyph glyph-name="e" unicode="e" horiz-adv-x="1024" 
d="M647 385h315l-31 -385h-565q-45 0 -66.5 9t-60.5 42t-121 117q-35 41 -42 69.5t-7 122.5v431q0 90 9 116.5t50 75.5q25 25 47 51q78 74 113 89.5t129 15.5h211q78 0 110.5 -15.5t116.5 -97.5q70 -68 88 -111q13 -34 13 -124v-295h-518v-136q0 -73 21.5 -95.5t88.5 -22.5
q45 0 59.5 10t22.5 53zM438 715h168v92q0 88 -80 88q-58 0 -76 -31q-12 -22 -12 -88v-61z" />
    <glyph glyph-name="f" unicode="f" horiz-adv-x="724" 
d="M726 836h-229v-582h62v-254h-498v254h63v582h-100v239h100q0 82 2 107q4 37 15 61q20 45 82 103q69 65 129 86q47 14 149 14h225v-236h-116q-80 0 -107 -32q-18 -25 -18 -103h241v-239z" />
    <glyph glyph-name="g" unicode="g" horiz-adv-x="1067" 
d="M428 1139h604v-248h-62v-823q0 -84 -8 -111q-16 -51 -94 -133t-117 -98q-28 -15 -123 -15h-510l-34 365h303l16 -90q18 -33 49 -35q23 -2 41 -2q109 0 109 104v111h-199q-84 0 -115 12q-41 17 -114 90q-80 78 -99 121q-14 33 -14 117v293q0 86 12 116q17 41 94.5 118
t124.5 93q35 15 136 15zM428 770v-233q0 -93 30 -111q25 -16 144 -16v483q-119 0 -144 -14q-30 -21 -30 -109z" />
    <glyph glyph-name="h" unicode="h" horiz-adv-x="1150" 
d="M55 1448h428v-309h215q80 0 113 -15q45 -18 118.5 -92t94.5 -129q12 -35 12 -119v-530h63v-254h-428v752q0 67 -10 88q-16 32 -51 39q-27 6 -127 6v-885h-428v254h61v940h-61v254z" />
    <glyph glyph-name="i" unicode="i" horiz-adv-x="598" 
d="M55 1139h428v-885h64v-254h-492v254h63v631h-63v254zM118 1427h367v-165h-367v165z" />
    <glyph glyph-name="j" unicode="j" horiz-adv-x="598" 
d="M68 1139h428v-1078q0 -88 -12 -122q-18 -48 -92 -121.5t-117 -91.5q-35 -15 -117 -15h-184v254q102 -4 130 21.5t28 126.5v772h-64v254zM132 1446h364v-209h-364v209z" />
    <glyph glyph-name="k" unicode="k" horiz-adv-x="1150" 
d="M702 1139h371v-254h-74l-123 -250q35 -17 103 -57q41 -31 49 -53.5t8 -96.5v-174h63v-254h-423v315q0 111 -29 131.5t-166 20.5v-467h-426v254h63v940h-63v254h426v-743h61z" />
    <glyph glyph-name="l" unicode="l" horiz-adv-x="598" 
d="M53 1448h430v-1194h64v-254h-494v254h63v940h-63v254z" />
    <glyph glyph-name="m" unicode="m" horiz-adv-x="1662" 
d="M53 885v254h1153q84 0 119 -15q47 -18 119.5 -97t89 -110.5t16.5 -89.5v-573h62v-254h-420v762q0 80 -33 104q-25 19 -98 19h-50v-885h-356v776q0 66 -23.5 87.5t-107.5 21.5h-49v-885h-422v254h63v631h-63z" />
    <glyph glyph-name="n" unicode="n" horiz-adv-x="1150" 
d="M55 885v254h637q88 0 127 -19.5t119 -107.5q71 -78 88 -119q12 -33 12 -115v-524h64v-254h-429v743q0 70 -12 95q-16 32 -51 41q-27 6 -125 6v-885h-430v254h63v631h-63z" />
    <glyph glyph-name="o" unicode="o" horiz-adv-x="1067" 
d="M421 1139h234q82 0 112 -13q41 -16 111 -84q86 -86 102.5 -119.5t16.5 -123.5v-459q0 -86 -13.5 -118t-85.5 -103q-84 -86 -117.5 -102.5t-117.5 -16.5h-264q-70 0 -101 14q-36 17 -117 93.5t-98 113.5q-14 31 -14 119v522q0 39 14 62q21 37 92 106q82 78 123 94
q35 15 123 15zM630 387v381q0 59 -12 84q-21 41 -86 41q-98 0 -98 -125v-381q0 -135 96 -135q100 0 100 135z" />
    <glyph glyph-name="p" unicode="p" horiz-adv-x="1067" 
d="M26 887v252h616q91 0 125 -15q43 -18 117 -96q82 -86 97.5 -122t15.5 -122v-436q0 -84 -15 -117q-16 -41 -90 -112q-86 -84 -121.5 -101.5t-128.5 -17.5h-184v-289h-432v254h61v922h-61zM458 895v-655h41q80 0 104.5 27.5t24.5 121.5v371q0 96 -33 119q-26 16 -137 16z
" />
    <glyph glyph-name="q" unicode="q" horiz-adv-x="1067" 
d="M427 1139h549v-1174h64v-254h-430v289h-203q-92 0 -127 15.5t-107.5 90t-91.5 115.5q-12 31 -12 105v483q0 72 18.5 112t94 113.5t120.5 91.5q35 13 125 13zM436 758v-373q0 -102 34 -127q25 -18 140 -18v651q-115 0 -142 -17q-32 -22 -32 -116z" />
    <glyph glyph-name="r" unicode="r" horiz-adv-x="937" 
d="M55 885v254h696q105 0 127.5 -21.5t32.5 -130.5l33 -366h-305l-25 172q-8 61 -23.5 76.5t-62.5 15.5h-53v-631h61v-254h-481v254h61v631h-61z" />
    <glyph glyph-name="s" unicode="s" horiz-adv-x="1024" 
d="M372 1139h535l35 -363h-301q-9 51 -25 96q-10 31 -59 31q-68 0 -90 -8q-37 -16 -37 -66q0 -55 7 -66t52 -26l322 -100q104 -33 128.5 -65.5t24.5 -137.5v-127q0 -65 -12 -92q-14 -33 -80 -106q-70 -80 -102.5 -94.5t-124.5 -14.5h-551l-35 381h309q13 -51 29 -113
q10 -20 28.5 -23t90.5 -3q57 0 73 30q13 21 11 84q0 29 -11.5 38t-60.5 26l-319 102q-109 35 -129.5 58.5t-20.5 119.5v129q0 76 13.5 107t83 103.5t99 86t117.5 13.5z" />
    <glyph glyph-name="t" unicode="t" horiz-adv-x="724" 
d="M462 1139h232v-244h-232v-496q0 -96 29 -118q43 -33 213 -27v-254h-262q-94 0 -129 12q-45 19 -111.5 91.5t-81.5 111.5q-12 33 -12 125v555h-92v160l381 286q35 27 45 27q20 0 20 -63v-166z" />
    <glyph glyph-name="u" unicode="u" horiz-adv-x="1150" 
d="M608 1139h430v-1139h-588q-80 0 -113.5 15.5t-111.5 85t-96 112.5q-15 35 -15 129v543h-63v254h430v-740q0 -90 17.5 -113.5t46.5 -27.5q22 -4 124 -4v631h-61v254z" />
    <glyph glyph-name="v" unicode="v" horiz-adv-x="1067" 
d="M655 1139h389v-254h-55l-158 -885h-584l-161 885h-66v254h391l129 -928z" />
    <glyph glyph-name="w" unicode="w" horiz-adv-x="1622" 
d="M1200 1139h399v-254h-66l-100 -885h-510l-112 819l-109 -819h-510l-106 885h-66v254h403l56 -908l155 908h355l157 -908z" />
    <glyph glyph-name="x" unicode="x" horiz-adv-x="1024" 
d="M622 1139h359v-254h-72l-98 -293l139 -338h61v-254h-362l-141 457l-131 -457h-365v254h61l132 338l-105 293h-65v254h352l121 -432z" />
    <glyph glyph-name="y" unicode="y" horiz-adv-x="1110" 
d="M646 1139h371v-1055q0 -92 -12 -129q-16 -51 -84 -123q-80 -86 -131 -106q-39 -15 -144 -15h-483l-43 373h301l19 -72q10 -37 21 -49t48 -12h41q96 0 96 102v111h-229q-80 0 -110 14q-39 17 -112 93.5t-91 121.5q-13 31 -13 101v391h-63v254h432v-600q0 -95 35 -117
q29 -16 151 -16v733z" />
    <glyph glyph-name="z" unicode="z" horiz-adv-x="980" 
d="M36 725l41 414h809q62 0 62 -45q0 -21 -39 -97l-391 -755h106q49 0 64.5 12t23.5 61l23 123h227l-31 -438h-804q-109 0 -109 53q0 25 39 99l391 743h-104q-33 0 -47 -23q-5 -10 -15 -53l-20 -94h-226z" />
    <glyph glyph-name="braceleft" unicode="{" horiz-adv-x="724" 
d="M327 588q125 -41 164 -92q33 -47 33 -156v-160q0 -84 43 -134t109 -50h47v-256h-152q-106 0 -155.5 23.5t-133.5 117.5q-71 80 -96 135q-18 43 -18 107v160q0 90 -29 133q-35 49 -131 65v226q94 16 131 69q29 45 29 135v168q0 86 35 144q22 37 102 111.5t131 97.5
q39 16 113 16h174v-256h-47q-68 0 -110 -47t-42 -131v-178q0 -101 -35 -145t-162 -91v-12z" />
    <glyph glyph-name="bar" unicode="|" horiz-adv-x="468" 
d="M364 1536v-2048h-260l-2 2048h262z" />
    <glyph glyph-name="braceright" unicode="}" horiz-adv-x="724" 
d="M395 600q-125 41 -162 90q-34 43 -34 158v160q0 84 -43 134t-109 50h-47v256h152q106 0 154 -23.5t134 -117.5q76 -82 95.5 -130.5t19.5 -140.5v-131q0 -94 29 -135q34 -47 131 -63v-226q-94 -16 -131 -69q-29 -45 -29 -136v-167q0 -86 -35 -144q-22 -37 -102 -111.5
t-131 -97.5q-39 -16 -113 -16h-174v256h47q66 0 109 48t43 130v191q0 92 35.5 134t160.5 89v12z" />
    <glyph glyph-name="asciitilde" unicode="~" horiz-adv-x="1492" 
d="M1175 793l106 -215q-147 -170 -319 -170q-82 0 -213 63q-158 76 -213 76q-62 0 -103 -31q-33 -24 -110 -113l-113 211q139 195 319 195q72 0 211 -64q175 -79 228 -79q98 0 207 127z" />
    <glyph glyph-name="dieresis" unicode="&#xa8;" horiz-adv-x="1024" 
 />
    <glyph glyph-name="copyright" unicode="&#xa9;" horiz-adv-x="750" 
 />
    <glyph glyph-name="registered" unicode="&#xae;" horiz-adv-x="750" 
 />
    <glyph glyph-name="acute" unicode="&#xb4;" horiz-adv-x="1024" 
 />
    <glyph glyph-name="paragraph" unicode="&#xb6;" horiz-adv-x="1024" 
d="M949 1439v-78h-127v-1365h-102v1365h-146v-1365h-104v738q-170 8 -273.5 104.5t-103.5 247.5q0 157 109.5 255t293.5 98h453z" />
    <glyph glyph-name="onequarter" unicode="&#xbc;" horiz-adv-x="1950" 
 />
    <glyph glyph-name="onehalf" unicode="&#xbd;" horiz-adv-x="1950" 
 />
    <glyph glyph-name="threequarters" unicode="&#xbe;" horiz-adv-x="1950" 
 />
    <glyph glyph-name="Agrave" unicode="&#xc0;" 
d="M311 1448h706l213 -1133h70v-315h-461l-49 315h-258l-51 -315h-461v315h74zM569 606h184l-92 568zM487 1784l383 -137l-33 -111l-395 84z" />
    <glyph glyph-name="Aacute" unicode="&#xc1;" 
d="M311 1448h706l213 -1133h70v-315h-461l-49 315h-258l-51 -315h-461v315h74zM569 606h184l-92 568zM477 1651l389 137l39 -170l-400 -82z" />
    <glyph glyph-name="Acircumflex" unicode="&#xc2;" 
d="M311 1448h706l213 -1133h70v-315h-461l-49 315h-258l-51 -315h-461v315h74zM569 606h184l-92 568zM661 1784l356 -133l-41 -125l-319 106l-320 -106l-41 125z" />
    <glyph glyph-name="Atilde" unicode="&#xc3;" 
d="M311 1448h706l213 -1133h70v-315h-461l-49 315h-258l-51 -315h-461v315h74zM569 606h184l-92 568zM866 1733l80 -93q-74 -63 -101 -79q-43 -27 -88 -27q-24 0 -73 22q-80 46 -105 46q-20 0 -41 -11q-22 -16 -69 -49l-72 94q12 11 44 37.5t44 34.5q51 39 94 39
q29 0 78 -27q84 -45 108 -45q25 0 101 58z" />
    <glyph glyph-name="Egrave" unicode="&#xc8;" horiz-adv-x="1193" 
d="M53 1446h1038l35 -473h-344l-18 100q-9 41 -20 53.5t-54 12.5h-137v-267h342v-270h-342v-299h151q41 0 54.5 11.5t21.5 52.5l25 127h354l-33 -494h-1073v315h70v815h-70v316zM426 1794l383 -137l-33 -111l-395 84z" />
    <glyph glyph-name="Eacute" unicode="&#xc9;" horiz-adv-x="1193" 
d="M53 1446h1038l35 -473h-344l-18 100q-9 41 -20 53.5t-54 12.5h-137v-267h342v-270h-342v-299h151q41 0 54.5 11.5t21.5 52.5l25 127h354l-33 -494h-1073v315h70v815h-70v316zM436 1661l389 137l39 -170l-399 -82z" />
    <glyph glyph-name="Ecircumflex" unicode="&#xca;" horiz-adv-x="1193" 
d="M53 1446h1038l35 -473h-344l-18 100q-9 41 -20 53.5t-54 12.5h-137v-267h342v-270h-342v-299h151q41 0 54.5 11.5t21.5 52.5l25 127h354l-33 -494h-1073v315h70v815h-70v316zM569 1794l356 -133l-41 -125l-319 106l-319 -106l-41 125z" />
    <glyph glyph-name="Igrave" unicode="&#xcc;" horiz-adv-x="681" 
d="M55 1446h573v-316h-69v-815h69v-315h-573v315h70v815h-70v316zM147 1794l383 -137l-33 -111l-395 84z" />
    <glyph glyph-name="Iacute" unicode="&#xcd;" horiz-adv-x="681" 
d="M55 1446h573v-316h-69v-815h69v-315h-573v315h70v815h-70v316zM209 1661l389 137l39 -170l-400 -82z" />
    <glyph glyph-name="Ograve" unicode="&#xd2;" horiz-adv-x="1280" 
d="M517 1446h275q108 0 147 -16q47 -19 135 -105t109 -139q14 -39 14 -156v-624q0 -111 -14 -150q-19 -49 -106 -135t-138 -107q-41 -14 -147 -14h-332q-88 0 -129 18q-47 23 -139 117q-76 78 -97 133q-14 43 -14 148v631q0 106 16 143q21 45 115 137q86 84 141 103
q43 16 164 16zM761 492v464q0 97 -16 125q-25 47 -111 47q-80 0 -107 -53q-10 -20 -10 -119v-464q0 -101 19 -132q24 -43 110 -43q78 0 103 52q12 24 12 123zM495 1806l383 -137l-33 -110l-395 83z" />
    <glyph glyph-name="Oacute" unicode="&#xd3;" horiz-adv-x="1280" 
d="M517 1446h275q108 0 147 -16q47 -19 135 -105t109 -139q14 -39 14 -156v-624q0 -111 -14 -150q-19 -49 -106 -135t-138 -107q-41 -14 -147 -14h-332q-88 0 -129 18q-47 23 -139 117q-76 78 -97 133q-14 43 -14 148v631q0 106 16 143q21 45 115 137q86 84 141 103
q43 16 164 16zM761 492v464q0 97 -16 125q-25 47 -111 47q-80 0 -107 -53q-10 -20 -10 -119v-464q0 -101 19 -132q24 -43 110 -43q78 0 103 52q12 24 12 123zM474 1663l389 137l39 -170l-399 -82z" />
    <glyph glyph-name="Ocircumflex" unicode="&#xd4;" horiz-adv-x="1280" 
d="M517 1446h275q108 0 147 -16q47 -19 135 -105t109 -139q14 -39 14 -156v-624q0 -111 -14 -150q-19 -49 -106 -135t-138 -107q-41 -14 -147 -14h-332q-88 0 -129 18q-47 23 -139 117q-76 78 -97 133q-14 43 -14 148v631q0 106 16 143q21 45 115 137q86 84 141 103
q43 16 164 16zM761 492v464q0 97 -16 125q-25 47 -111 47q-80 0 -107 -53q-10 -20 -10 -119v-464q0 -101 19 -132q24 -43 110 -43q78 0 103 52q12 24 12 123zM628 1786l356 -133l-41 -125l-319 106l-320 -106l-41 125z" />
    <glyph glyph-name="Otilde" unicode="&#xd5;" horiz-adv-x="1280" 
d="M517 1446h275q108 0 147 -16q47 -19 135 -105t109 -139q14 -39 14 -156v-624q0 -111 -14 -150q-19 -49 -106 -135t-138 -107q-41 -14 -147 -14h-332q-88 0 -129 18q-47 23 -139 117q-76 78 -97 133q-14 43 -14 148v631q0 106 16 143q21 45 115 137q86 84 141 103
q43 16 164 16zM761 492v464q0 97 -16 125q-25 47 -111 47q-80 0 -107 -53q-10 -20 -10 -119v-464q0 -101 19 -132q24 -43 110 -43q78 0 103 52q12 24 12 123zM853 1745l80 -92q-74 -64 -100 -80q-43 -27 -88 -27q-25 0 -74 23q-80 45 -105 45q-20 0 -41 -10q-22 -17 -69 -50
l-72 95q12 10 44 36.5t44 34.5q51 39 94 39q29 0 78 -26q84 -45 109 -45q24 0 100 57z" />
    <glyph glyph-name="Ugrave" unicode="&#xd9;" 
d="M782 1446h507v-316h-69v-698q0 -117 -14 -158q-21 -59 -105 -141q-96 -94 -154 -117q-41 -16 -143 -16h-289q-96 0 -125 8q-53 17 -141 94q-76 68 -108 115q-29 41 -34 70.5t-5 126.5v716h-70v316h510v-1020q0 -113 119 -113q80 0 104 47q17 29 17 117v969zM470 1804
l383 -137l-33 -111l-395 84z" />
    <glyph glyph-name="Uacute" unicode="&#xda;" 
d="M782 1446h507v-316h-69v-698q0 -117 -14 -158q-21 -59 -105 -141q-96 -94 -154 -117q-41 -16 -143 -16h-289q-96 0 -125 8q-53 17 -141 94q-76 68 -108 115q-29 41 -34 70.5t-5 126.5v716h-70v316h510v-1020q0 -113 119 -113q80 0 104 47q17 29 17 117v969zM603 1661
l390 137l38 -170l-399 -82z" />
    <glyph glyph-name="Yacute" unicode="&#xdd;" horiz-adv-x="1236" 
d="M784 1446h430v-316h-74l-303 -655v-160h70v-315h-576v315h70v160l-307 655h-74v316h430l170 -623zM518 1681l389 138l39 -170l-400 -82z" />
    <glyph glyph-name="agrave" unicode="&#xe0;" horiz-adv-x="1110" 
d="M995 252h63v-252h-682q-80 0 -110.5 11.5t-100 72.5t-84.5 96q-12 29 -12 111v164q0 106 28.5 138t151.5 56l377 76v45q0 76 -23.5 102.5t-101.5 26.5q-41 0 -51 -8t-23 -45l-24 -76h-303l41 369h516q86 0 108 -9q31 -12 95.5 -70.5t97.5 -103.5q26 -34 31.5 -61
t5.5 -115v-528zM626 502l-131 -29q-72 -16 -72 -74q0 -108 15 -131q18 -30 108 -30h80v264zM352 1507l383 -137l-33 -110l-395 83z" />
    <glyph glyph-name="aacute" unicode="&#xe1;" horiz-adv-x="1110" 
d="M995 252h63v-252h-682q-80 0 -110.5 11.5t-100 72.5t-84.5 96q-12 29 -12 111v164q0 106 28.5 138t151.5 56l377 76v45q0 76 -23.5 102.5t-101.5 26.5q-41 0 -51 -8t-23 -45l-24 -76h-303l41 369h516q86 0 108 -9q31 -12 95.5 -70.5t97.5 -103.5q26 -34 31.5 -61
t5.5 -115v-528zM626 502l-131 -29q-72 -16 -72 -74q0 -108 15 -131q18 -30 108 -30h80v264zM393 1343l389 138l39 -170l-400 -82z" />
    <glyph glyph-name="acircumflex" unicode="&#xe2;" horiz-adv-x="1110" 
d="M995 252h63v-252h-682q-80 0 -110.5 11.5t-100 72.5t-84.5 96q-12 29 -12 111v164q0 106 28.5 138t151.5 56l377 76v45q0 76 -23.5 102.5t-101.5 26.5q-41 0 -51 -8t-23 -45l-24 -76h-303l41 369h516q86 0 108 -9q31 -12 95.5 -70.5t97.5 -103.5q26 -34 31.5 -61
t5.5 -115v-528zM626 502l-131 -29q-72 -16 -72 -74q0 -108 15 -131q18 -30 108 -30h80v264zM552 1503l357 -133l-41 -125l-320 107l-319 -107l-41 125z" />
    <glyph glyph-name="atilde" unicode="&#xe3;" horiz-adv-x="1110" 
d="M995 252h63v-252h-682q-80 0 -110.5 11.5t-100 72.5t-84.5 96q-12 29 -12 111v164q0 106 28.5 138t151.5 56l377 76v45q0 76 -23.5 102.5t-101.5 26.5q-41 0 -51 -8t-23 -45l-24 -76h-303l41 369h516q86 0 108 -9q31 -12 95.5 -70.5t97.5 -103.5q26 -34 31.5 -61
t5.5 -115v-528zM626 502l-131 -29q-72 -16 -72 -74q0 -108 15 -131q18 -30 108 -30h80v264zM751 1436l80 -93q-74 -63 -100 -79q-44 -27 -89 -27q-24 0 -73 23q-80 45 -105 45q-20 0 -41 -11q-22 -16 -69 -49l-72 94q12 11 44 37.5t44 34.5q51 39 94 39q29 0 78 -27
q84 -45 109 -45q24 0 100 58z" />
    <glyph glyph-name="egrave" unicode="&#xe8;" horiz-adv-x="1024" 
d="M647 385h315l-31 -385h-565q-45 0 -66.5 9t-60.5 42t-121 117q-35 41 -42 69.5t-7 122.5v431q0 90 9 116.5t50 75.5q25 25 47 51q78 74 113 89.5t129 15.5h211q78 0 110.5 -15.5t116.5 -97.5q70 -68 88 -111q13 -34 13 -124v-295h-518v-136q0 -73 21.5 -95.5t88.5 -22.5
q45 0 59.5 10t22.5 53zM438 715h168v92q0 88 -80 88q-58 0 -76 -31q-12 -22 -12 -88v-61zM360 1503l383 -137l-33 -111l-395 84z" />
    <glyph glyph-name="eacute" unicode="&#xe9;" horiz-adv-x="1024" 
d="M647 385h315l-31 -385h-565q-45 0 -66.5 9t-60.5 42t-121 117q-35 41 -42 69.5t-7 122.5v431q0 90 9 116.5t50 75.5q25 25 47 51q78 74 113 89.5t129 15.5h211q78 0 110.5 -15.5t116.5 -97.5q70 -68 88 -111q13 -34 13 -124v-295h-518v-136q0 -73 21.5 -95.5t88.5 -22.5
q45 0 59.5 10t22.5 53zM438 715h168v92q0 88 -80 88q-58 0 -76 -31q-12 -22 -12 -88v-61zM339 1350l389 137l39 -170l-399 -82z" />
    <glyph glyph-name="ecircumflex" unicode="&#xea;" horiz-adv-x="1024" 
d="M647 385h315l-31 -385h-565q-45 0 -66.5 9t-60.5 42t-121 117q-35 41 -42 69.5t-7 122.5v431q0 90 9 116.5t50 75.5q25 25 47 51q78 74 113 89.5t129 15.5h211q78 0 110.5 -15.5t116.5 -97.5q70 -68 88 -111q13 -34 13 -124v-295h-518v-136q0 -73 21.5 -95.5t88.5 -22.5
q45 0 59.5 10t22.5 53zM438 715h168v92q0 88 -80 88q-58 0 -76 -31q-12 -22 -12 -88v-61zM513 1493l357 -133l-41 -125l-320 106l-319 -106l-41 125z" />
    <glyph glyph-name="igrave" unicode="&#xec;" horiz-adv-x="598" 
d="M55 1139h428v-885h64v-254h-492v254h63v631h-63v254zM135 1507l383 -137l-33 -110l-395 83z" />
    <glyph glyph-name="iacute" unicode="&#xed;" horiz-adv-x="598" 
d="M55 1139h428v-885h64v-254h-492v254h63v631h-63v254zM84 1354l389 137l39 -170l-400 -82z" />
    <glyph glyph-name="ograve" unicode="&#xf2;" horiz-adv-x="1067" 
d="M421 1139h234q82 0 112 -13q41 -16 111 -84q86 -86 102.5 -119.5t16.5 -123.5v-459q0 -86 -13.5 -118t-85.5 -103q-84 -86 -117.5 -102.5t-117.5 -16.5h-264q-70 0 -101 14q-36 17 -117 93.5t-98 113.5q-14 31 -14 119v522q0 39 14 62q21 37 92 106q82 78 123 94
q35 15 123 15zM630 387v381q0 59 -12 84q-21 41 -86 41q-98 0 -98 -125v-381q0 -135 96 -135q100 0 100 135zM343 1495l383 -137l-32 -111l-396 84z" />
    <glyph glyph-name="oacute" unicode="&#xf3;" horiz-adv-x="1067" 
d="M421 1139h234q82 0 112 -13q41 -16 111 -84q86 -86 102.5 -119.5t16.5 -123.5v-459q0 -86 -13.5 -118t-85.5 -103q-84 -86 -117.5 -102.5t-117.5 -16.5h-264q-70 0 -101 14q-36 17 -117 93.5t-98 113.5q-14 31 -14 119v522q0 39 14 62q21 37 92 106q82 78 123 94
q35 15 123 15zM630 387v381q0 59 -12 84q-21 41 -86 41q-98 0 -98 -125v-381q0 -135 96 -135q100 0 100 135zM354 1362l389 137l39 -170l-400 -82z" />
    <glyph glyph-name="ocircumflex" unicode="&#xf4;" horiz-adv-x="1067" 
d="M421 1139h234q82 0 112 -13q41 -16 111 -84q86 -86 102.5 -119.5t16.5 -123.5v-459q0 -86 -13.5 -118t-85.5 -103q-84 -86 -117.5 -102.5t-117.5 -16.5h-264q-70 0 -101 14q-36 17 -117 93.5t-98 113.5q-14 31 -14 119v522q0 39 14 62q21 37 92 106q82 78 123 94
q35 15 123 15zM630 387v381q0 59 -12 84q-21 41 -86 41q-98 0 -98 -125v-381q0 -135 96 -135q100 0 100 135zM528 1485l356 -133l-41 -125l-319 106l-320 -106l-41 125z" />
    <glyph glyph-name="otilde" unicode="&#xf5;" horiz-adv-x="1067" 
d="M421 1139h234q82 0 112 -13q41 -16 111 -84q86 -86 102.5 -119.5t16.5 -123.5v-459q0 -86 -13.5 -118t-85.5 -103q-84 -86 -117.5 -102.5t-117.5 -16.5h-264q-70 0 -101 14q-36 17 -117 93.5t-98 113.5q-14 31 -14 119v522q0 39 14 62q21 37 92 106q82 78 123 94
q35 15 123 15zM630 387v381q0 59 -12 84q-21 41 -86 41q-98 0 -98 -125v-381q0 -135 96 -135q100 0 100 135zM763 1444l80 -92q-74 -64 -100 -80q-43 -27 -88 -27q-25 0 -74 23q-80 45 -104 45q-21 0 -41 -10q-23 -17 -70 -50l-72 95q13 10 44.5 36.5t43.5 34.5q52 39 95 39
q28 0 77 -26q84 -46 109 -46q24 0 100 58z" />
    <glyph glyph-name="divide" unicode="&#xf7;" horiz-adv-x="1706" 
 />
    <glyph glyph-name="glyph216" unicode="&#xf9;" horiz-adv-x="1150" 
d="M608 1139h430v-1139h-588q-80 0 -113.5 15.5t-111.5 85t-96 112.5q-15 35 -15 129v543h-63v254h430v-740q0 -90 17.5 -113.5t46.5 -27.5q22 -4 124 -4v631h-61v254zM352 1497l383 -137l-33 -111l-395 84z" />
    <glyph glyph-name="glyph217" unicode="&#xfa;" horiz-adv-x="1150" 
d="M608 1139h430v-1139h-588q-80 0 -113.5 15.5t-111.5 85t-96 112.5q-15 35 -15 129v543h-63v254h430v-740q0 -90 17.5 -113.5t46.5 -27.5q22 -4 124 -4v631h-61v254zM475 1354l389 137l39 -170l-399 -82z" />
    <glyph glyph-name="glyph234" unicode="&#xfd;" horiz-adv-x="1110" 
d="M646 1139h371v-1055q0 -92 -12 -129q-16 -51 -84 -123q-80 -86 -131 -106q-39 -15 -144 -15h-483l-43 373h301l19 -72q10 -37 21 -49t48 -12h41q96 0 96 102v111h-229q-80 0 -110 14q-39 17 -112 93.5t-91 121.5q-13 31 -13 101v391h-63v254h432v-600q0 -95 35 -117
q29 -16 151 -16v733zM485 1364l389 137l39 -170l-400 -82z" />
    <glyph glyph-name="Abreve" unicode="&#x102;" 
d="M311 1448h706l213 -1133h70v-315h-461l-49 315h-258l-51 -315h-461v315h74zM569 606h184l-92 568zM651 1548l356 133l-41 125l-319 -106l-320 106l-41 -125z" />
    <glyph glyph-name="abreve" unicode="&#x103;" horiz-adv-x="1110" 
d="M995 252h63v-252h-682q-80 0 -110.5 11.5t-100 72.5t-84.5 96q-12 29 -12 111v164q0 106 28.5 138t151.5 56l377 76v45q0 76 -23.5 102.5t-101.5 26.5q-41 0 -51 -8t-23 -45l-24 -76h-303l41 369h516q86 0 108 -9q31 -12 95.5 -70.5t97.5 -103.5q26 -34 31.5 -61
t5.5 -115v-528zM626 502l-131 -29q-72 -16 -72 -74q0 -108 15 -131q18 -30 108 -30h80v264zM556 1241l357 133l-41 125l-320 -106l-319 106l-41 -125z" />
    <glyph glyph-name="Ccaron" unicode="&#x10c;" horiz-adv-x="1274" 
 />
    <glyph glyph-name="ccaron" unicode="&#x10d;" horiz-adv-x="922" 
 />
    <glyph glyph-name="Dslash" unicode="&#x110;" 
d="M804 0h-749v315h69v349h-98v174h98v292h-69v316h749q111 0 140 -8q63 -19 161.5 -113t116.5 -136t18 -151v-618q0 -111 -14 -150q-18 -51 -98 -133q-96 -98 -154 -121q-45 -16 -170 -16zM556 664v-349h117q86 0 113 37q18 29 18 117v498q0 98 -22.5 130.5t-108.5 32.5
h-117v-292h138v-174h-138z" />
    <glyph glyph-name="dcroat" unicode="&#x111;" horiz-adv-x="1110" 
d="M630 1741h365v-215h92v-172h-92v-1102h63v-252h-645q-82 0 -115 14q-45 17 -121.5 90.5t-92 108.5t-15.5 125v463q0 76 12 106q27 70 170 187q39 32 62.5 38.5t99.5 6.5h217v215h-303v172h303v215zM628 174v657h-92q-70 0 -90 -43q-12 -26 -12 -104v-387q0 -76 28 -102
q17 -15 43 -19q21 -2 123 -2z" />
    <glyph glyph-name="Itilde" unicode="&#x128;" horiz-adv-x="681" 
d="M55 1446h573v-316h-69v-815h69v-315h-573v315h70v815h-70v316zM547 1743l79 -92q-73 -64 -100 -80q-43 -27 -88 -27q-25 0 -74 23q-80 45 -104 45q-21 0 -41 -10q-23 -17 -70 -50l-71 95q12 10 43.5 36.5t44.5 34.5q51 39 94 39q28 0 78 -26q84 -45 108 -45q25 0 101 57z
" />
    <glyph glyph-name="itilde" unicode="&#x129;" horiz-adv-x="598" 
d="M55 1139h428v-885h63v-254h-491v254h63v631h-63v254zM493 1466l80 -92q-74 -63 -100 -80q-43 -26 -89 -26q-24 0 -73 22q-80 45 -105 45q-20 0 -41 -10q-22 -16 -69 -49l-72 94q12 10 44 37t44 35q51 39 94 39q29 0 78 -27q84 -45 109 -45q24 0 100 57z" />
    <glyph glyph-name="Utilde" unicode="&#x168;" 
d="M782 1446h507v-316h-69v-698q0 -117 -14 -158q-21 -59 -105 -141q-96 -94 -154 -117q-41 -16 -143 -16h-289q-96 0 -125 8q-53 17 -141 94q-76 68 -108 115q-29 41 -34 70.5t-5 126.5v716h-70v316h510v-1020q0 -113 119 -113q80 0 104 47q17 29 17 117v969zM880 1763
l80 -92q-74 -63 -101 -80q-43 -26 -88 -26q-24 0 -73 22q-80 45 -105 45q-20 0 -41 -10q-22 -16 -69 -49l-72 94q12 10 44 37t44 35q51 39 94 39q29 0 78 -27q84 -45 109 -45q24 0 100 57z" />
    <glyph glyph-name="utilde" unicode="&#x169;" horiz-adv-x="1150" 
d="M608 1139h430v-1139h-588q-80 0 -113.5 15.5t-111.5 85t-96 112.5q-15 35 -15 129v543h-63v254h430v-740q0 -90 17.5 -113.5t46.5 -27.5q22 -4 124 -4v631h-61v254zM772 1446l80 -92q-74 -64 -101 -80q-43 -27 -88 -27q-24 0 -73 23q-80 45 -105 45q-20 0 -41 -10
q-22 -17 -69 -50l-72 95q12 10 44 36.5t44 34.5q51 39 94 39q29 0 78 -26q84 -45 109 -45q24 0 100 57z" />
    <glyph glyph-name="Ohorn" unicode="&#x1a0;" horiz-adv-x="1331" 
d="M517 1446h275q110 0 149 -14q47 -21 134 -108t106 -126q14 -24 16 -80q41 35 58 119v205h180v-154q0 -96 -88 -196q-70 -80 -150 -127v-559q0 -111 -14 -150q-19 -49 -106 -135t-138 -107q-41 -14 -147 -14h-332q-88 0 -129 18q-47 23 -139 117q-76 78 -97 133
q-14 43 -14 148v631q0 106 16 143q21 45 115 137q86 84 141 103q43 16 164 16zM761 492v464q0 97 -16 125q-25 47 -111 47q-80 0 -107 -53q-10 -20 -10 -119v-464q0 -101 19 -132q24 -43 110 -43q78 0 103 52q12 24 12 123z" />
    <glyph glyph-name="ohorn" unicode="&#x1a1;" horiz-adv-x="1187" 
d="M413 1139h234q82 0 112 -13q41 -16 111 -84q86 -86 102.5 -117.5t16.5 -111.5q41 35 57 119v205h180v-154q0 -96 -88 -197q-69 -79 -149 -127v-319q0 -86 -13.5 -118t-85.5 -103q-84 -86 -117.5 -102.5t-117.5 -16.5h-264q-70 0 -101 14q-36 17 -117 93.5t-98 113.5
q-14 31 -14 119v522q0 39 14 62q21 37 92 106q82 78 123 94q35 15 123 15zM622 387v381q0 59 -12 84q-21 41 -86 41q-98 0 -98 -125v-381q0 -135 96 -135q100 0 100 135z" />
    <glyph glyph-name="Uhorn" unicode="&#x1af;" horiz-adv-x="1433" 
d="M782 1446h438v-348q69 41 100 125v223h193v-182q-6 -68 -24.5 -101t-80.5 -98q-78 -82 -188 -137v-496q0 -117 -14 -158q-21 -59 -105 -141q-96 -94 -154 -117q-41 -16 -143 -16h-289q-96 0 -125 8q-53 17 -141 94q-76 68 -108 115q-29 41 -34 70.5t-5 126.5v716h-70v316
h510v-1020q0 -113 119 -113q80 0 104 47q17 29 17 117v969z" />
    <glyph glyph-name="uhorn" unicode="&#x1b0;" horiz-adv-x="1228" 
d="M597 1139h430v-330q70 41 100 125v205h193v-148q-6 -67 -24.5 -100t-79.5 -98q-78 -82 -189 -138v-655h-588q-80 0 -113.5 15.5t-111.5 85t-96 112.5q-15 35 -15 129v543h-63v254h430v-740q0 -90 17.5 -113.5t46.5 -27.5q22 -4 124 -4v631h-61v254z" />
    <glyph glyph-name="uni1EA0" unicode="&#x1ea0;" 
d="M311 1448h706l213 -1133h70v-315h-461l-49 315h-258l-51 -315h-461v315h74zM569 606h184l-92 568zM487 -121h367v-166h-367v166z" />
    <glyph glyph-name="uni1EA1" unicode="&#x1ea1;" horiz-adv-x="1110" 
d="M995 252h63v-252h-682q-80 0 -110.5 11.5t-100 72.5t-84.5 96q-12 29 -12 111v164q0 106 28.5 138t151.5 56l377 76v45q0 76 -23.5 102.5t-101.5 26.5q-41 0 -51 -8t-23 -45l-24 -76h-303l41 369h516q86 0 108 -9q31 -12 95.5 -70.5t97.5 -103.5q26 -34 31.5 -61
t5.5 -115v-528zM626 502l-131 -29q-72 -16 -72 -74q0 -108 15 -131q18 -30 108 -30h80v264zM341 -131h367v-166h-367v166z" />
    <glyph glyph-name="uni1EA2" unicode="&#x1ea2;" 
d="M311 1448h706l213 -1133h70v-315h-461l-49 315h-258l-51 -315h-461v315h74zM569 606h184l-92 568zM610 1763l-144 -41l19 158h229q58 0 106 -36t48 -70v-41q0 -25 -2 -31q-8 -16 -82 -62q-33 -20 -33 -55v-45h-162v64q0 30 7.5 40.5t46.5 38.5q12 9 41 31q12 10 12 47
q0 25 -60 25q-24 0 -26 -23z" />
    <glyph glyph-name="uni1EA3" unicode="&#x1ea3;" horiz-adv-x="1110" 
d="M995 252h63v-252h-682q-80 0 -110.5 11.5t-100 72.5t-84.5 96q-12 29 -12 111v164q0 106 28.5 138t151.5 56l377 76v45q0 76 -23.5 102.5t-101.5 26.5q-41 0 -51 -8t-23 -45l-24 -76h-303l41 369h516q86 0 108 -9q31 -12 95.5 -70.5t97.5 -103.5q26 -34 31.5 -61
t5.5 -115v-528zM626 502l-131 -29q-72 -16 -72 -74q0 -108 15 -131q18 -30 108 -30h80v264zM475 1466l-144 -41l19 158h229q57 0 105.5 -36t48.5 -70v-41q0 -25 -2 -31q-9 -16 -82 -62q-33 -20 -33 -55v-45h-162v64q0 30 7 40.5t46 38.5q13 9 41 31q13 10 13 47q0 25 -60 25
q-24 0 -26 -23z" />
    <glyph glyph-name="uni1EA4" unicode="&#x1ea4;" 
d="M311 1448h706l213 -1133h70v-315h-461l-49 315h-258l-51 -315h-461v315h74zM569 606h184l-92 568zM661 1784l356 -133l-41 -125l-319 106l-320 -106l-41 125zM833 1907l389 137l39 -170l-399 -82z" />
    <glyph glyph-name="uni1EA5" unicode="&#x1ea5;" horiz-adv-x="1110" 
d="M995 252h63v-252h-682q-80 0 -110.5 11.5t-100 72.5t-84.5 96q-12 29 -12 111v164q0 106 28.5 138t151.5 56l377 76v45q0 76 -23.5 102.5t-101.5 26.5q-41 0 -51 -8t-23 -45l-24 -76h-303l41 369h516q86 0 108 -9q31 -12 95.5 -70.5t97.5 -103.5q26 -34 31.5 -61
t5.5 -115v-528zM626 502l-131 -29q-72 -16 -72 -74q0 -108 15 -131q18 -30 108 -30h80v264zM552 1503l357 -133l-41 -125l-320 107l-319 -107l-41 125zM724 1626l389 137l39 -170l-399 -82z" />
    <glyph glyph-name="uni1EA6" unicode="&#x1ea6;" 
d="M311 1448h706l213 -1133h70v-315h-461l-49 315h-258l-51 -315h-461v315h74zM569 606h184l-92 568zM661 1784l356 -133l-41 -125l-319 106l-320 -106l-41 125zM546 2091l383 -137l-32 -111l-396 84z" />
    <glyph glyph-name="uni1EA7" unicode="&#x1ea7;" horiz-adv-x="1110" 
d="M995 252h63v-252h-682q-80 0 -110.5 11.5t-100 72.5t-84.5 96q-12 29 -12 111v164q0 106 28.5 138t151.5 56l377 76v45q0 76 -23.5 102.5t-101.5 26.5q-41 0 -51 -8t-23 -45l-24 -76h-303l41 369h516q86 0 108 -9q31 -12 95.5 -70.5t97.5 -103.5q26 -34 31.5 -61
t5.5 -115v-528zM626 502l-131 -29q-72 -16 -72 -74q0 -108 15 -131q18 -30 108 -30h80v264zM552 1503l357 -133l-41 -125l-320 107l-319 -107l-41 125zM438 1810l383 -137l-33 -110l-395 84z" />
    <glyph glyph-name="uni1EA8" unicode="&#x1ea8;" 
d="M311 1448h706l213 -1133h70v-315h-461l-49 315h-258l-51 -315h-461v315h74zM569 606h184l-92 568zM661 1784l356 -133l-41 -125l-319 106l-320 -106l-41 125zM894 1999l-143 -41l19 158h229q57 0 105.5 -36t48.5 -71v-41q0 -24 -3 -31q-8 -16 -81 -61q-33 -21 -33 -55
v-45h-162v63q0 31 7 41t46 39q13 8 41 31q13 10 13 47q0 24 -60 24q-24 0 -27 -22z" />
    <glyph glyph-name="uni1EA9" unicode="&#x1ea9;" horiz-adv-x="1110" 
d="M995 252h63v-252h-682q-80 0 -110.5 11.5t-100 72.5t-84.5 96q-12 29 -12 111v164q0 106 28.5 138t151.5 56l377 76v45q0 76 -23.5 102.5t-101.5 26.5q-41 0 -51 -8t-23 -45l-24 -76h-303l41 369h516q86 0 108 -9q31 -12 95.5 -70.5t97.5 -103.5q26 -34 31.5 -61
t5.5 -115v-528zM626 502l-131 -29q-72 -16 -72 -74q0 -108 15 -131q18 -30 108 -30h80v264zM552 1503l357 -133l-41 -125l-320 107l-319 -107l-41 125zM786 1718l-144 -41l19 158h229q58 0 106 -36t48 -70v-41q0 -25 -2 -31q-8 -17 -82 -62q-33 -20 -33 -55v-45h-162v64
q0 30 7.5 40.5t46.5 38.5q12 9 41 31q12 10 12 47q0 25 -60 25q-24 0 -26 -23z" />
    <glyph glyph-name="uni1EAA" unicode="&#x1eaa;" 
d="M311 1448h706l213 -1133h70v-315h-461l-49 315h-258l-51 -315h-461v315h74zM569 606h184l-92 568zM661 1784l356 -133l-41 -125l-319 106l-320 -106l-41 125zM874 2030l80 -93q-74 -63 -100 -79q-43 -27 -89 -27q-24 0 -73 22q-80 45 -105 45q-20 0 -41 -10
q-22 -16 -69 -49l-72 94q12 11 44 37.5t44 34.5q51 39 94 39q29 0 78 -27q84 -45 109 -45q24 0 100 58z" />
    <glyph glyph-name="uni1EAB" unicode="&#x1eab;" horiz-adv-x="1110" 
d="M995 252h63v-252h-682q-80 0 -110.5 11.5t-100 72.5t-84.5 96q-12 29 -12 111v164q0 106 28.5 138t151.5 56l377 76v45q0 76 -23.5 102.5t-101.5 26.5q-41 0 -51 -8t-23 -45l-24 -76h-303l41 369h516q86 0 108 -9q31 -12 95.5 -70.5t97.5 -103.5q26 -34 31.5 -61
t5.5 -115v-528zM626 502l-131 -29q-72 -16 -72 -74q0 -108 15 -131q18 -30 108 -30h80v264zM552 1503l357 -133l-41 -125l-320 107l-319 -107l-41 125zM765 1749l80 -92q-74 -64 -100 -80q-43 -27 -88 -27q-25 0 -74 23q-80 45 -104 45q-21 0 -41 -10q-23 -17 -70 -49
l-72 94q13 10 44.5 36.5t43.5 34.5q52 39 95 39q28 0 77 -26q84 -45 109 -45t100 57z" />
    <glyph glyph-name="uni1EAC" unicode="&#x1eac;" 
d="M311 1448h706l213 -1133h70v-315h-461l-49 315h-258l-51 -315h-461v315h74zM569 606h184l-92 568zM661 1784l356 -133l-41 -125l-319 106l-320 -106l-41 125zM475 -141h366v-166h-366v166z" />
    <glyph glyph-name="uni1EAD" unicode="&#x1ead;" horiz-adv-x="1110" 
d="M995 252h63v-252h-682q-80 0 -110.5 11.5t-100 72.5t-84.5 96q-12 29 -12 111v164q0 106 28.5 138t151.5 56l377 76v45q0 76 -23.5 102.5t-101.5 26.5q-41 0 -51 -8t-23 -45l-24 -76h-303l41 369h516q86 0 108 -9q31 -12 95.5 -70.5t97.5 -103.5q26 -34 31.5 -61
t5.5 -115v-528zM626 502l-131 -29q-72 -16 -72 -74q0 -108 15 -131q18 -30 108 -30h80v264zM552 1503l357 -133l-41 -125l-320 107l-319 -107l-41 125zM345 -135h367v-166h-367v166z" />
    <glyph glyph-name="uni1EAE" unicode="&#x1eae;" 
d="M311 1448h706l213 -1133h70v-315h-461l-49 315h-258l-51 -315h-461v315h74zM569 606h184l-92 568zM651 1548l356 133l-41 125l-319 -106l-320 106l-41 -125zM546 1968l389 137l39 -170l-399 -82z" />
    <glyph glyph-name="uni1EAF" unicode="&#x1eaf;" horiz-adv-x="1110" 
d="M995 252h63v-252h-682q-80 0 -110.5 11.5t-100 72.5t-84.5 96q-12 29 -12 111v164q0 106 28.5 138t151.5 56l377 76v45q0 76 -23.5 102.5t-101.5 26.5q-41 0 -51 -8t-23 -45l-24 -76h-303l41 369h516q86 0 108 -9q31 -12 95.5 -70.5t97.5 -103.5q26 -34 31.5 -61
t5.5 -115v-528zM626 502l-131 -29q-72 -16 -72 -74q0 -108 15 -131q18 -30 108 -30h80v264zM556 1241l357 133l-41 125l-320 -106l-319 106l-41 -125zM452 1661l389 137l39 -170l-399 -82z" />
    <glyph glyph-name="uni1EB0" unicode="&#x1eb0;" 
d="M311 1448h706l213 -1133h70v-315h-461l-49 315h-258l-51 -315h-461v315h74zM569 606h184l-92 568zM651 1548l356 133l-41 125l-319 -106l-320 106l-41 -125zM382 2111l383 -137l-32 -110l-396 84z" />
    <glyph glyph-name="uni1EB1" unicode="&#x1eb1;" horiz-adv-x="1110" 
d="M995 252h63v-252h-682q-80 0 -110.5 11.5t-100 72.5t-84.5 96q-12 29 -12 111v164q0 106 28.5 138t151.5 56l377 76v45q0 76 -23.5 102.5t-101.5 26.5q-41 0 -51 -8t-23 -45l-24 -76h-303l41 369h516q86 0 108 -9q31 -12 95.5 -70.5t97.5 -103.5q26 -34 31.5 -61
t5.5 -115v-528zM626 502l-131 -29q-72 -16 -72 -74q0 -108 15 -131q18 -30 108 -30h80v264zM556 1241l357 133l-41 125l-320 -106l-319 106l-41 -125zM288 1804l383 -137l-33 -111l-395 84z" />
    <glyph glyph-name="uni1EB2" unicode="&#x1eb2;" 
d="M311 1448h706l213 -1133h70v-315h-461l-49 315h-258l-51 -315h-461v315h74zM569 606h184l-92 568zM651 1548l356 133l-41 125l-319 -106l-320 106l-41 -125zM587 2030l-143 -41l18 157h230q57 0 105 -35.5t48 -70.5v-41q0 -25 -2 -31q-8 -16 -82 -61q-32 -21 -32 -56v-45
h-162v64q0 31 7 41t46 39q12 8 41 30q12 11 12 48q0 24 -59 24q-25 0 -27 -22z" />
    <glyph glyph-name="uni1EB3" unicode="&#x1eb3;" horiz-adv-x="1110" 
d="M995 252h63v-252h-682q-80 0 -110.5 11.5t-100 72.5t-84.5 96q-12 29 -12 111v164q0 106 28.5 138t151.5 56l377 76v45q0 76 -23.5 102.5t-101.5 26.5q-41 0 -51 -8t-23 -45l-24 -76h-303l41 369h516q86 0 108 -9q31 -12 95.5 -70.5t97.5 -103.5q26 -34 31.5 -61
t5.5 -115v-528zM626 502l-131 -29q-72 -16 -72 -74q0 -108 15 -131q18 -30 108 -30h80v264zM556 1241l357 133l-41 125l-320 -106l-319 106l-41 -125zM493 1763l-143 -41l18 158h229q58 0 106 -36t48 -70v-41q0 -25 -2 -31q-8 -16 -82 -62q-33 -20 -33 -55v-45h-162v64
q0 30 7.5 40.5t46.5 38.5q12 9 41 31q12 10 12 47q0 25 -59 25q-25 0 -27 -23z" />
    <glyph glyph-name="uni1EB4" unicode="&#x1eb4;" 
d="M311 1448h706l213 -1133h70v-315h-461l-49 315h-258l-51 -315h-461v315h74zM569 606h184l-92 568zM651 1548l356 133l-41 125l-319 -106l-320 106l-41 -125zM864 2050l80 -92q-74 -64 -101 -80q-43 -27 -88 -27q-24 0 -73 23q-80 45 -105 45q-20 0 -41 -10
q-22 -17 -70 -49l-71 94q12 10 44 36.5t44 34.5q51 39 94 39q29 0 78 -26q84 -45 108 -45q25 0 101 57z" />
    <glyph glyph-name="uni1EB5" unicode="&#x1eb5;" horiz-adv-x="1110" 
d="M995 252h63v-252h-682q-80 0 -110.5 11.5t-100 72.5t-84.5 96q-12 29 -12 111v164q0 106 28.5 138t151.5 56l377 76v45q0 76 -23.5 102.5t-101.5 26.5q-41 0 -51 -8t-23 -45l-24 -76h-303l41 369h516q86 0 108 -9q31 -12 95.5 -70.5t97.5 -103.5q26 -34 31.5 -61
t5.5 -115v-528zM626 502l-131 -29q-72 -16 -72 -74q0 -108 15 -131q18 -30 108 -30h80v264zM556 1241l357 133l-41 125l-320 -106l-319 106l-41 -125zM769 1743l80 -92q-73 -64 -100 -80q-43 -27 -88 -27q-25 0 -74 23q-80 45 -104 45q-21 0 -41 -10q-23 -17 -70 -50l-72 95
q13 10 44.5 36.5t43.5 34.5q52 39 95 39q28 0 78 -26q83 -45 108 -45t100 57z" />
    <glyph glyph-name="uni1EB6" unicode="&#x1eb6;" 
d="M311 1448h706l213 -1133h70v-315h-461l-49 315h-258l-51 -315h-461v315h74zM569 606h184l-92 568zM651 1548l356 133l-41 125l-319 -106l-320 106l-41 -125zM475 -121h366v-166h-366v166z" />
    <glyph glyph-name="uni1EB7" unicode="&#x1eb7;" horiz-adv-x="1110" 
d="M995 252h63v-252h-682q-80 0 -110.5 11.5t-100 72.5t-84.5 96q-12 29 -12 111v164q0 106 28.5 138t151.5 56l377 76v45q0 76 -23.5 102.5t-101.5 26.5q-41 0 -51 -8t-23 -45l-24 -76h-303l41 369h516q86 0 108 -9q31 -12 95.5 -70.5t97.5 -103.5q26 -34 31.5 -61
t5.5 -115v-528zM626 502l-131 -29q-72 -16 -72 -74q0 -108 15 -131q18 -30 108 -30h80v264zM556 1241l357 133l-41 125l-320 -106l-319 106l-41 -125zM370 -141h367v-166h-367v166z" />
    <glyph glyph-name="uni1EB8" unicode="&#x1eb8;" horiz-adv-x="1193" 
d="M53 1446h1038l35 -473h-344l-18 100q-9 41 -20 53.5t-54 12.5h-137v-267h342v-270h-342v-299h151q41 0 54.5 11.5t21.5 52.5l25 127h354l-33 -494h-1073v315h70v815h-70v316zM354 -121h367v-166h-367v166z" />
    <glyph glyph-name="uni1EB9" unicode="&#x1eb9;" horiz-adv-x="1024" 
d="M647 385h315l-31 -385h-565q-45 0 -66.5 9t-60.5 42t-121 117q-35 41 -42 69.5t-7 122.5v431q0 90 9 116.5t50 75.5q25 25 47 51q78 74 113 89.5t129 15.5h211q78 0 110.5 -15.5t116.5 -97.5q70 -68 88 -111q13 -34 13 -124v-295h-518v-136q0 -73 21.5 -95.5t88.5 -22.5
q45 0 59.5 10t22.5 53zM438 715h168v92q0 88 -80 88q-58 0 -76 -31q-12 -22 -12 -88v-61zM319 -125h366v-166h-366v166z" />
    <glyph glyph-name="uni1EBA" unicode="&#x1eba;" horiz-adv-x="1193" 
d="M53 1446h1038l35 -473h-344l-18 100q-9 41 -20 53.5t-54 12.5h-137v-267h342v-270h-342v-299h151q41 0 54.5 11.5t21.5 52.5l25 127h354l-33 -494h-1073v315h70v815h-70v316zM518 1763l-143 -41l18 158h229q58 0 106 -36t48 -70v-41q0 -25 -2 -31q-8 -16 -82 -62
q-33 -20 -33 -55v-45h-162v64q0 30 7.5 40.5t46.5 38.5q12 9 41 31q12 10 12 47q0 25 -59 25q-25 0 -27 -23z" />
    <glyph glyph-name="uni1EBB" unicode="&#x1ebb;" horiz-adv-x="1024" 
d="M647 385h315l-31 -385h-565q-45 0 -66.5 9t-60.5 42t-121 117q-35 41 -42 69.5t-7 122.5v431q0 90 9 116.5t50 75.5q25 25 47 51q78 74 113 89.5t129 15.5h211q78 0 110.5 -15.5t116.5 -97.5q70 -68 88 -111q13 -34 13 -124v-295h-518v-136q0 -73 21.5 -95.5t88.5 -22.5
q45 0 59.5 10t22.5 53zM438 715h168v92q0 88 -80 88q-58 0 -76 -31q-12 -22 -12 -88v-61zM462 1462l-143 -41l18 158h230q57 0 105 -36t48 -70v-41q0 -25 -2 -31q-8 -17 -82 -62q-32 -20 -32 -55v-45h-162v64q0 30 7 40.5t46 38.5q12 9 41 31q12 10 12 47q0 25 -59 25
q-25 0 -27 -23z" />
    <glyph glyph-name="uni1EBC" unicode="&#x1ebc;" horiz-adv-x="1193" 
d="M53 1446h1038l35 -473h-344l-18 100q-9 41 -20 53.5t-54 12.5h-137v-267h342v-270h-342v-299h151q41 0 54.5 11.5t21.5 52.5l25 127h354l-33 -494h-1073v315h70v815h-70v316zM774 1733l80 -93q-74 -63 -101 -79q-43 -27 -88 -27q-24 0 -73 22q-80 46 -105 46
q-20 0 -41 -11q-22 -16 -69 -49l-72 94q12 11 44 37.5t44 34.5q51 39 94 39q29 0 78 -27q84 -45 109 -45q24 0 100 58z" />
    <glyph glyph-name="uni1EBD" unicode="&#x1ebd;" horiz-adv-x="1024" 
d="M647 385h315l-31 -385h-565q-45 0 -66.5 9t-60.5 42t-121 117q-35 41 -42 69.5t-7 122.5v431q0 90 9 116.5t50 75.5q25 25 47 51q78 74 113 89.5t129 15.5h211q78 0 110.5 -15.5t116.5 -97.5q70 -68 88 -111q13 -34 13 -124v-295h-518v-136q0 -73 21.5 -95.5t88.5 -22.5
q45 0 59.5 10t22.5 53zM438 715h168v92q0 88 -80 88q-58 0 -76 -31q-12 -22 -12 -88v-61zM759 1442l80 -92q-74 -64 -100 -80q-43 -27 -88 -27q-25 0 -74 23q-80 45 -105 45q-20 0 -41 -11q-22 -16 -69 -49l-72 95q12 10 44 36.5t44 34.5q51 39 94 39q29 0 78 -26
q84 -46 109 -46q24 0 100 58z" />
    <glyph glyph-name="uni1EBE" unicode="&#x1ebe;" horiz-adv-x="1193" 
d="M53 1446h1038l35 -473h-344l-18 100q-9 41 -20 53.5t-54 12.5h-137v-267h342v-270h-342v-299h151q41 0 54.5 11.5t21.5 52.5l25 127h354l-33 -494h-1073v315h70v815h-70v316zM569 1794l356 -133l-41 -125l-319 106l-319 -106l-41 125zM741 1917l389 137l39 -170l-399 -82
z" />
    <glyph glyph-name="uni1EBF" unicode="&#x1ebf;" horiz-adv-x="1024" 
d="M647 385h315l-31 -385h-565q-45 0 -66.5 9t-60.5 42t-121 117q-35 41 -42 69.5t-7 122.5v431q0 90 9 116.5t50 75.5q25 25 47 51q78 74 113 89.5t129 15.5h211q78 0 110.5 -15.5t116.5 -97.5q70 -68 88 -111q13 -34 13 -124v-295h-518v-136q0 -73 21.5 -95.5t88.5 -22.5
q45 0 59.5 10t22.5 53zM438 715h168v92q0 88 -80 88q-58 0 -76 -31q-12 -22 -12 -88v-61zM513 1493l357 -133l-41 -125l-320 106l-319 -106l-41 125zM685 1616l390 137l38 -170l-399 -82z" />
    <glyph glyph-name="uni1EC0" unicode="&#x1ec0;" horiz-adv-x="1193" 
d="M53 1446h1038l35 -473h-344l-18 100q-9 41 -20 53.5t-54 12.5h-137v-267h342v-270h-342v-299h151q41 0 54.5 11.5t21.5 52.5l25 127h354l-33 -494h-1073v315h70v815h-70v316zM569 1794l356 -133l-41 -125l-319 106l-319 -106l-41 125zM454 2101l383 -137l-32 -111
l-396 84z" />
    <glyph glyph-name="uni1EC1" unicode="&#x1ec1;" horiz-adv-x="1024" 
d="M647 385h315l-31 -385h-565q-45 0 -66.5 9t-60.5 42t-121 117q-35 41 -42 69.5t-7 122.5v431q0 90 9 116.5t50 75.5q25 25 47 51q78 74 113 89.5t129 15.5h211q78 0 110.5 -15.5t116.5 -97.5q70 -68 88 -111q13 -34 13 -124v-295h-518v-136q0 -73 21.5 -95.5t88.5 -22.5
q45 0 59.5 10t22.5 53zM438 715h168v92q0 88 -80 88q-58 0 -76 -31q-12 -22 -12 -88v-61zM513 1493l357 -133l-41 -125l-320 106l-319 -106l-41 125zM399 1800l383 -137l-33 -111l-395 84z" />
    <glyph glyph-name="uni1EC2" unicode="&#x1ec2;" horiz-adv-x="1193" 
d="M53 1446h1038l35 -473h-344l-18 100q-9 41 -20 53.5t-54 12.5h-137v-267h342v-270h-342v-299h151q41 0 54.5 11.5t21.5 52.5l25 127h354l-33 -494h-1073v315h70v815h-70v316zM569 1794l356 -133l-41 -125l-319 106l-319 -106l-41 125zM803 2009l-144 -41l19 158h229
q57 0 105.5 -36t48.5 -71v-41q0 -24 -2 -30q-9 -17 -82 -62q-33 -20 -33 -55v-45h-162v63q0 31 7 41.5t46 38.5q13 8 41 31q13 10 13 47q0 25 -60 25q-24 0 -26 -23z" />
    <glyph glyph-name="uni1EC3" unicode="&#x1ec3;" horiz-adv-x="1024" 
d="M647 385h315l-31 -385h-565q-45 0 -66.5 9t-60.5 42t-121 117q-35 41 -42 69.5t-7 122.5v431q0 90 9 116.5t50 75.5q25 25 47 51q78 74 113 89.5t129 15.5h211q78 0 110.5 -15.5t116.5 -97.5q70 -68 88 -111q13 -34 13 -124v-295h-518v-136q0 -73 21.5 -95.5t88.5 -22.5
q45 0 59.5 10t22.5 53zM438 715h168v92q0 88 -80 88q-58 0 -76 -31q-12 -22 -12 -88v-61zM513 1493l357 -133l-41 -125l-320 106l-319 -106l-41 125zM747 1708l-143 -41l18 158h229q58 0 106 -36t48 -71v-41q0 -24 -2 -30q-8 -17 -82 -62q-33 -20 -33 -55v-45h-162v63
q0 31 7.5 41t46.5 39q12 8 41 31q12 10 12 47q0 25 -59 25q-25 0 -27 -23z" />
    <glyph glyph-name="uni1EC4" unicode="&#x1ec4;" horiz-adv-x="1193" 
d="M53 1446h1038l35 -473h-344l-18 100q-9 41 -20 53.5t-54 12.5h-137v-267h342v-270h-342v-299h151q41 0 54.5 11.5t21.5 52.5l25 127h354l-33 -494h-1073v315h70v815h-70v316zM569 1794l356 -133l-41 -125l-319 106l-319 -106l-41 125zM782 2040l80 -92q-74 -64 -100 -80
q-43 -27 -88 -27q-25 0 -74 23q-80 45 -105 45q-20 0 -41 -11q-22 -16 -69 -49l-72 95q12 10 44 36.5t44 34.5q51 39 94 39q29 0 78 -26q84 -46 109 -46q24 0 100 58z" />
    <glyph glyph-name="uni1EC5" unicode="&#x1ec5;" horiz-adv-x="1024" 
d="M647 385h315l-31 -385h-565q-45 0 -66.5 9t-60.5 42t-121 117q-35 41 -42 69.5t-7 122.5v431q0 90 9 116.5t50 75.5q25 25 47 51q78 74 113 89.5t129 15.5h211q78 0 110.5 -15.5t116.5 -97.5q70 -68 88 -111q13 -34 13 -124v-295h-518v-136q0 -73 21.5 -95.5t88.5 -22.5
q45 0 59.5 10t22.5 53zM438 715h168v92q0 88 -80 88q-58 0 -76 -31q-12 -22 -12 -88v-61zM513 1493l357 -133l-41 -125l-320 106l-319 -106l-41 125zM726 1739l80 -92q-73 -64 -100 -80q-43 -27 -88 -27q-25 0 -74 23q-80 45 -104 45q-21 0 -41 -11q-23 -16 -70 -49l-72 94
q13 11 44.5 37.5t43.5 34.5q52 39 95 39q28 0 78 -27q83 -45 108 -45t100 58z" />
    <glyph glyph-name="uni1EC6" unicode="&#x1ec6;" horiz-adv-x="1193" 
d="M53 1446h1038l35 -473h-344l-18 100q-9 41 -20 53.5t-54 12.5h-137v-267h342v-270h-342v-299h151q41 0 54.5 11.5t21.5 52.5l25 127h354l-33 -494h-1073v315h70v815h-70v316zM569 1794l356 -133l-41 -125l-319 106l-319 -106l-41 125zM393 -141h367v-166h-367v166z" />
    <glyph glyph-name="uni1EC7" unicode="&#x1ec7;" horiz-adv-x="1024" 
d="M647 385h315l-31 -385h-565q-45 0 -66.5 9t-60.5 42t-121 117q-35 41 -42 69.5t-7 122.5v431q0 90 9 116.5t50 75.5q25 25 47 51q78 74 113 89.5t129 15.5h211q78 0 110.5 -15.5t116.5 -97.5q70 -68 88 -111q13 -34 13 -124v-295h-518v-136q0 -73 21.5 -95.5t88.5 -22.5
q45 0 59.5 10t22.5 53zM438 715h168v92q0 88 -80 88q-58 0 -76 -31q-12 -22 -12 -88v-61zM513 1493l357 -133l-41 -125l-320 106l-319 -106l-41 125zM307 -145h366v-166h-366v166z" />
    <glyph glyph-name="uni1EC8" unicode="&#x1ec8;" horiz-adv-x="681" 
d="M55 1446h573v-316h-69v-815h69v-315h-573v315h70v815h-70v316zM270 1784l-143 -41l18 158h229q58 0 106 -36t48 -71v-41q0 -24 -2 -31q-8 -16 -82 -61q-33 -21 -33 -55v-45h-161v63q0 31 7 41t46 39q12 8 41 31q12 10 12 47q0 24 -59 24q-25 0 -27 -22z" />
    <glyph glyph-name="uni1EC9" unicode="&#x1ec9;" horiz-adv-x="598" 
d="M55 1139h428v-885h64v-254h-492v254h63v631h-63v254zM227 1487l-143 -41l18 158h229q58 0 106 -36t48 -71v-41q0 -24 -2 -31q-8 -16 -82 -61q-33 -21 -33 -55v-45h-161v63q0 31 7 41t46 39q12 8 41 31q12 10 12 47q0 24 -59 24q-25 0 -27 -22z" />
    <glyph glyph-name="uni1ECA" unicode="&#x1eca;" horiz-adv-x="681" 
d="M55 1446h573v-316h-69v-815h69v-315h-573v315h70v815h-70v316zM147 -111h367v-165h-367v165z" />
    <glyph glyph-name="uni1ECB" unicode="&#x1ecb;" horiz-adv-x="598" 
d="M55 1139h428v-885h64v-254h-492v254h63v631h-63v254zM114 1425h367v-165h-367v165zM112 -141h367v-166h-367v166z" />
    <glyph glyph-name="uni1ECC" unicode="&#x1ecc;" horiz-adv-x="1280" 
d="M517 1446h275q108 0 147 -16q47 -19 135 -105t109 -139q14 -39 14 -156v-624q0 -111 -14 -150q-19 -49 -106 -135t-138 -107q-41 -14 -147 -14h-332q-88 0 -129 18q-47 23 -139 117q-76 78 -97 133q-14 43 -14 148v631q0 106 16 143q21 45 115 137q86 84 141 103
q43 16 164 16zM761 492v464q0 97 -16 125q-25 47 -111 47q-80 0 -107 -53q-10 -20 -10 -119v-464q0 -101 19 -132q24 -43 110 -43q78 0 103 52q12 24 12 123zM454 -119h366v-166h-366v166z" />
    <glyph glyph-name="uni1ECD" unicode="&#x1ecd;" horiz-adv-x="1067" 
d="M421 1139h234q82 0 112 -13q41 -16 111 -84q86 -86 102.5 -119.5t16.5 -123.5v-459q0 -86 -13.5 -118t-85.5 -103q-84 -86 -117.5 -102.5t-117.5 -16.5h-264q-70 0 -101 14q-36 17 -117 93.5t-98 113.5q-14 31 -14 119v522q0 39 14 62q21 37 92 106q82 78 123 94
q35 15 123 15zM630 387v381q0 59 -12 84q-21 41 -86 41q-98 0 -98 -125v-381q0 -135 96 -135q100 0 100 135zM343 -143h367v-166h-367v166z" />
    <glyph glyph-name="uni1ECE" unicode="&#x1ece;" horiz-adv-x="1280" 
d="M517 1446h275q108 0 147 -16q47 -19 135 -105t109 -139q14 -39 14 -156v-624q0 -111 -14 -150q-19 -49 -106 -135t-138 -107q-41 -14 -147 -14h-332q-88 0 -129 18q-47 23 -139 117q-76 78 -97 133q-14 43 -14 148v631q0 106 16 143q21 45 115 137q86 84 141 103
q43 16 164 16zM761 492v464q0 97 -16 125q-25 47 -111 47q-80 0 -107 -53q-10 -20 -10 -119v-464q0 -101 19 -132q24 -43 110 -43q78 0 103 52q12 24 12 123zM587 1776l-144 -41l19 157h229q58 0 106 -35.5t48 -70.5v-41q0 -25 -2 -31q-8 -16 -82 -61q-33 -21 -33 -56v-45
h-162v64q0 31 7.5 41t46.5 39q12 8 41 30q12 11 12 48q0 24 -60 24q-24 0 -26 -22z" />
    <glyph glyph-name="uni1ECF" unicode="&#x1ecf;" horiz-adv-x="1067" 
d="M421 1139h234q82 0 112 -13q41 -16 111 -84q86 -86 102.5 -119.5t16.5 -123.5v-459q0 -86 -13.5 -118t-85.5 -103q-84 -86 -117.5 -102.5t-117.5 -16.5h-264q-70 0 -101 14q-36 17 -117 93.5t-98 113.5q-14 31 -14 119v522q0 39 14 62q21 37 92 106q82 78 123 94
q35 15 123 15zM630 387v381q0 59 -12 84q-21 41 -86 41q-98 0 -98 -125v-381q0 -135 96 -135q100 0 100 135zM477 1475l-144 -41l19 157h229q57 0 105.5 -35.5t48.5 -70.5v-41q0 -25 -2 -31q-9 -16 -82 -61q-33 -21 -33 -56v-45h-162v64q0 31 7 41t46 39q13 8 41 30
q13 11 13 48q0 24 -60 24q-24 0 -26 -22z" />
    <glyph glyph-name="uni1ED0" unicode="&#x1ed0;" horiz-adv-x="1280" 
d="M517 1446h275q108 0 147 -16q47 -19 135 -105t109 -139q14 -39 14 -156v-624q0 -111 -14 -150q-19 -49 -106 -135t-138 -107q-41 -14 -147 -14h-332q-88 0 -129 18q-47 23 -139 117q-76 78 -97 133q-14 43 -14 148v631q0 106 16 143q21 45 115 137q86 84 141 103
q43 16 164 16zM761 492v464q0 97 -16 125q-25 47 -111 47q-80 0 -107 -53q-10 -20 -10 -119v-464q0 -101 19 -132q24 -43 110 -43q78 0 103 52q12 24 12 123zM628 1786l356 -133l-41 -125l-319 106l-320 -106l-41 125zM800 1909l389 137l39 -170l-399 -82z" />
    <glyph glyph-name="uni1ED1" unicode="&#x1ed1;" horiz-adv-x="1067" 
d="M421 1139h234q82 0 112 -13q41 -16 111 -84q86 -86 102.5 -119.5t16.5 -123.5v-459q0 -86 -13.5 -118t-85.5 -103q-84 -86 -117.5 -102.5t-117.5 -16.5h-264q-70 0 -101 14q-36 17 -117 93.5t-98 113.5q-14 31 -14 119v522q0 39 14 62q21 37 92 106q82 78 123 94
q35 15 123 15zM630 387v381q0 59 -12 84q-21 41 -86 41q-98 0 -98 -125v-381q0 -135 96 -135q100 0 100 135zM528 1485l356 -133l-41 -125l-319 106l-320 -106l-41 125zM700 1608l389 137l39 -170l-400 -82z" />
    <glyph glyph-name="uni1ED2" unicode="&#x1ed2;" horiz-adv-x="1280" 
d="M517 1446h275q108 0 147 -16q47 -19 135 -105t109 -139q14 -39 14 -156v-624q0 -111 -14 -150q-19 -49 -106 -135t-138 -107q-41 -14 -147 -14h-332q-88 0 -129 18q-47 23 -139 117q-76 78 -97 133q-14 43 -14 148v631q0 106 16 143q21 45 115 137q86 84 141 103
q43 16 164 16zM761 492v464q0 97 -16 125q-25 47 -111 47q-80 0 -107 -53q-10 -20 -10 -119v-464q0 -101 19 -132q24 -43 110 -43q78 0 103 52q12 24 12 123zM628 1786l356 -133l-41 -125l-319 106l-320 -106l-41 125zM513 2093l383 -137l-33 -111l-395 84z" />
    <glyph glyph-name="uni1ED3" unicode="&#x1ed3;" horiz-adv-x="1067" 
d="M421 1139h234q82 0 112 -13q41 -16 111 -84q86 -86 102.5 -119.5t16.5 -123.5v-459q0 -86 -13.5 -118t-85.5 -103q-84 -86 -117.5 -102.5t-117.5 -16.5h-264q-70 0 -101 14q-36 17 -117 93.5t-98 113.5q-14 31 -14 119v522q0 39 14 62q21 37 92 106q82 78 123 94
q35 15 123 15zM630 387v381q0 59 -12 84q-21 41 -86 41q-98 0 -98 -125v-381q0 -135 96 -135q100 0 100 135zM528 1485l356 -133l-41 -125l-319 106l-320 -106l-41 125zM413 1792l383 -137l-33 -111l-395 84z" />
    <glyph glyph-name="uni1ED4" unicode="&#x1ed4;" horiz-adv-x="1280" 
d="M517 1446h275q108 0 147 -16q47 -19 135 -105t109 -139q14 -39 14 -156v-624q0 -111 -14 -150q-19 -49 -106 -135t-138 -107q-41 -14 -147 -14h-332q-88 0 -129 18q-47 23 -139 117q-76 78 -97 133q-14 43 -14 148v631q0 106 16 143q21 45 115 137q86 84 141 103
q43 16 164 16zM761 492v464q0 97 -16 125q-25 47 -111 47q-80 0 -107 -53q-10 -20 -10 -119v-464q0 -101 19 -132q24 -43 110 -43q78 0 103 52q12 24 12 123zM628 1786l356 -133l-41 -125l-319 106l-320 -106l-41 125zM861 2001l-143 -41l18 158h230q57 0 105 -36t48 -71
v-41q0 -24 -2 -31q-8 -16 -82 -61q-32 -20 -32 -55v-45h-162v63q0 31 7 41t46 39q12 8 41 31q12 10 12 47q0 24 -59 24q-25 0 -27 -22z" />
    <glyph glyph-name="uni1ED5" unicode="&#x1ed5;" horiz-adv-x="1067" 
d="M421 1139h234q82 0 112 -13q41 -16 111 -84q86 -86 102.5 -119.5t16.5 -123.5v-459q0 -86 -13.5 -118t-85.5 -103q-84 -86 -117.5 -102.5t-117.5 -16.5h-264q-70 0 -101 14q-36 17 -117 93.5t-98 113.5q-14 31 -14 119v522q0 39 14 62q21 37 92 106q82 78 123 94
q35 15 123 15zM630 387v381q0 59 -12 84q-21 41 -86 41q-98 0 -98 -125v-381q0 -135 96 -135q100 0 100 135zM528 1485l356 -133l-41 -125l-319 106l-320 -106l-41 125zM761 1700l-143 -41l18 158h230q57 0 105 -36t48 -71v-41q0 -24 -2 -31q-8 -16 -82 -61q-32 -21 -32 -55
v-45h-162v63q0 31 7 41t46 39q12 8 41 31q12 10 12 47q0 24 -59 24q-25 0 -27 -22z" />
    <glyph glyph-name="uni1ED6" unicode="&#x1ed6;" horiz-adv-x="1280" 
d="M517 1446h275q108 0 147 -16q47 -19 135 -105t109 -139q14 -39 14 -156v-624q0 -111 -14 -150q-19 -49 -106 -135t-138 -107q-41 -14 -147 -14h-332q-88 0 -129 18q-47 23 -139 117q-76 78 -97 133q-14 43 -14 148v631q0 106 16 143q21 45 115 137q86 84 141 103
q43 16 164 16zM761 492v464q0 97 -16 125q-25 47 -111 47q-80 0 -107 -53q-10 -20 -10 -119v-464q0 -101 19 -132q24 -43 110 -43q78 0 103 52q12 24 12 123zM628 1786l356 -133l-41 -125l-319 106l-320 -106l-41 125zM841 2032l80 -93q-74 -63 -101 -79q-43 -27 -88 -27
q-24 0 -73 22q-80 46 -105 46q-20 0 -41 -11q-22 -16 -70 -49l-71 94q12 11 44 37.5t44 34.5q51 39 94 39q29 0 78 -27q84 -45 108 -45q25 0 101 58z" />
    <glyph glyph-name="uni1ED7" unicode="&#x1ed7;" horiz-adv-x="1067" 
d="M421 1139h234q82 0 112 -13q41 -16 111 -84q86 -86 102.5 -119.5t16.5 -123.5v-459q0 -86 -13.5 -118t-85.5 -103q-84 -86 -117.5 -102.5t-117.5 -16.5h-264q-70 0 -101 14q-36 17 -117 93.5t-98 113.5q-14 31 -14 119v522q0 39 14 62q21 37 92 106q82 78 123 94
q35 15 123 15zM630 387v381q0 59 -12 84q-21 41 -86 41q-98 0 -98 -125v-381q0 -135 96 -135q100 0 100 135zM528 1485l356 -133l-41 -125l-319 106l-320 -106l-41 125zM741 1731l80 -93q-74 -63 -101 -79q-43 -27 -88 -27q-24 0 -74 22q-79 45 -104 45q-20 0 -41 -10
q-22 -16 -70 -49l-71 94q12 11 44 37.5t44 34.5q51 39 94 39q29 0 78 -27q84 -45 108 -45q25 0 101 58z" />
    <glyph glyph-name="uni1ED8" unicode="&#x1ed8;" horiz-adv-x="1280" 
d="M517 1446h275q108 0 147 -16q47 -19 135 -105t109 -139q14 -39 14 -156v-624q0 -111 -14 -150q-19 -49 -106 -135t-138 -107q-41 -14 -147 -14h-332q-88 0 -129 18q-47 23 -139 117q-76 78 -97 133q-14 43 -14 148v631q0 106 16 143q21 45 115 137q86 84 141 103
q43 16 164 16zM761 492v464q0 97 -16 125q-25 47 -111 47q-80 0 -107 -53q-10 -20 -10 -119v-464q0 -101 19 -132q24 -43 110 -43q78 0 103 52q12 24 12 123zM628 1786l356 -133l-41 -125l-319 106l-320 -106l-41 125zM452 -150h366v-165h-366v165z" />
    <glyph glyph-name="uni1ED9" unicode="&#x1ed9;" horiz-adv-x="1067" 
d="M421 1139h234q82 0 112 -13q41 -16 111 -84q86 -86 102.5 -119.5t16.5 -123.5v-459q0 -86 -13.5 -118t-85.5 -103q-84 -86 -117.5 -102.5t-117.5 -16.5h-264q-70 0 -101 14q-36 17 -117 93.5t-98 113.5q-14 31 -14 119v522q0 39 14 62q21 37 92 106q82 78 123 94
q35 15 123 15zM630 387v381q0 59 -12 84q-21 41 -86 41q-98 0 -98 -125v-381q0 -135 96 -135q100 0 100 135zM528 1485l356 -133l-41 -125l-319 106l-320 -106l-41 125zM321 -154h366v-165h-366v165z" />
    <glyph glyph-name="uni1EDA" unicode="&#x1eda;" horiz-adv-x="1331" 
d="M517 1446h275q110 0 149 -14q47 -21 134 -108t106 -126q14 -24 16 -80q41 35 58 119v205h180v-154q0 -96 -88 -196q-70 -80 -150 -127v-559q0 -111 -14 -150q-19 -49 -106 -135t-138 -107q-41 -14 -147 -14h-332q-88 0 -129 18q-47 23 -139 117q-76 78 -97 133
q-14 43 -14 148v631q0 106 16 143q21 45 115 137q86 84 141 103q43 16 164 16zM761 492v464q0 97 -16 125q-25 47 -111 47q-80 0 -107 -53q-10 -20 -10 -119v-464q0 -101 19 -132q24 -43 110 -43q78 0 103 52q12 24 12 123zM474 1663l389 137l39 -170l-399 -82z" />
    <glyph glyph-name="uni1EDB" unicode="&#x1edb;" horiz-adv-x="1187" 
d="M413 1139h234q82 0 112 -13q41 -16 111 -84q86 -86 102.5 -117.5t16.5 -111.5q41 35 57 119v205h180v-154q0 -96 -88 -197q-69 -79 -149 -127v-319q0 -86 -13.5 -118t-85.5 -103q-84 -86 -117.5 -102.5t-117.5 -16.5h-264q-70 0 -101 14q-36 17 -117 93.5t-98 113.5
q-14 31 -14 119v522q0 39 14 62q21 37 92 106q82 78 123 94q35 15 123 15zM622 387v381q0 59 -12 84q-21 41 -86 41q-98 0 -98 -125v-381q0 -135 96 -135q100 0 100 135zM346 1362l389 137l39 -170l-400 -82z" />
    <glyph glyph-name="uni1EDC" unicode="&#x1edc;" horiz-adv-x="1331" 
d="M517 1446h275q110 0 149 -14q47 -21 134 -108t106 -126q14 -24 16 -80q41 35 58 119v205h180v-154q0 -96 -88 -196q-70 -80 -150 -127v-559q0 -111 -14 -150q-19 -49 -106 -135t-138 -107q-41 -14 -147 -14h-332q-88 0 -129 18q-47 23 -139 117q-76 78 -97 133
q-14 43 -14 148v631q0 106 16 143q21 45 115 137q86 84 141 103q43 16 164 16zM761 492v464q0 97 -16 125q-25 47 -111 47q-80 0 -107 -53q-10 -20 -10 -119v-464q0 -101 19 -132q24 -43 110 -43q78 0 103 52q12 24 12 123zM495 1806l383 -137l-33 -110l-395 83z" />
    <glyph glyph-name="uni1EDD" unicode="&#x1edd;" horiz-adv-x="1187" 
d="M413 1139h234q82 0 112 -13q41 -16 111 -84q86 -86 102.5 -117.5t16.5 -111.5q41 35 57 119v205h180v-154q0 -96 -88 -197q-69 -79 -149 -127v-319q0 -86 -13.5 -118t-85.5 -103q-84 -86 -117.5 -102.5t-117.5 -16.5h-264q-70 0 -101 14q-36 17 -117 93.5t-98 113.5
q-14 31 -14 119v522q0 39 14 62q21 37 92 106q82 78 123 94q35 15 123 15zM622 387v381q0 59 -12 84q-21 41 -86 41q-98 0 -98 -125v-381q0 -135 96 -135q100 0 100 135zM335 1495l383 -137l-32 -111l-396 84z" />
    <glyph glyph-name="uni1EDE" unicode="&#x1ede;" horiz-adv-x="1331" 
d="M517 1446h275q110 0 149 -14q47 -21 134 -108t106 -126q14 -24 16 -80q41 35 58 119v205h180v-154q0 -96 -88 -196q-70 -80 -150 -127v-559q0 -111 -14 -150q-19 -49 -106 -135t-138 -107q-41 -14 -147 -14h-332q-88 0 -129 18q-47 23 -139 117q-76 78 -97 133
q-14 43 -14 148v631q0 106 16 143q21 45 115 137q86 84 141 103q43 16 164 16zM761 492v464q0 97 -16 125q-25 47 -111 47q-80 0 -107 -53q-10 -20 -10 -119v-464q0 -101 19 -132q24 -43 110 -43q78 0 103 52q12 24 12 123zM587 1776l-144 -41l19 157h229q58 0 106 -35.5
t48 -70.5v-41q0 -25 -2 -31q-8 -16 -82 -61q-33 -21 -33 -56v-45h-162v64q0 31 7.5 41t46.5 39q12 8 41 30q12 11 12 48q0 24 -60 24q-24 0 -26 -22z" />
    <glyph glyph-name="uni1EDF" unicode="&#x1edf;" horiz-adv-x="1187" 
d="M413 1139h234q82 0 112 -13q41 -16 111 -84q86 -86 102.5 -117.5t16.5 -111.5q41 35 57 119v205h180v-154q0 -96 -88 -197q-69 -79 -149 -127v-319q0 -86 -13.5 -118t-85.5 -103q-84 -86 -117.5 -102.5t-117.5 -16.5h-264q-70 0 -101 14q-36 17 -117 93.5t-98 113.5
q-14 31 -14 119v522q0 39 14 62q21 37 92 106q82 78 123 94q35 15 123 15zM622 387v381q0 59 -12 84q-21 41 -86 41q-98 0 -98 -125v-381q0 -135 96 -135q100 0 100 135zM469 1475l-144 -41l19 157h229q57 0 105.5 -35.5t48.5 -70.5v-41q0 -25 -2 -31q-9 -16 -82 -61
q-33 -21 -33 -56v-45h-162v64q0 31 7 41t46 39q13 8 41 30q13 11 13 48q0 24 -60 24q-24 0 -26 -22z" />
    <glyph glyph-name="uni1EE0" unicode="&#x1ee0;" horiz-adv-x="1331" 
d="M517 1446h275q110 0 149 -14q47 -21 134 -108t106 -126q14 -24 16 -80q41 35 58 119v205h180v-154q0 -96 -88 -196q-70 -80 -150 -127v-559q0 -111 -14 -150q-19 -49 -106 -135t-138 -107q-41 -14 -147 -14h-332q-88 0 -129 18q-47 23 -139 117q-76 78 -97 133
q-14 43 -14 148v631q0 106 16 143q21 45 115 137q86 84 141 103q43 16 164 16zM761 492v464q0 97 -16 125q-25 47 -111 47q-80 0 -107 -53q-10 -20 -10 -119v-464q0 -101 19 -132q24 -43 110 -43q78 0 103 52q12 24 12 123zM853 1745l80 -92q-74 -64 -100 -80
q-43 -27 -88 -27q-25 0 -74 23q-80 45 -105 45q-20 0 -41 -10q-22 -17 -69 -50l-72 95q12 10 44 36.5t44 34.5q51 39 94 39q29 0 78 -26q84 -45 109 -45q24 0 100 57z" />
    <glyph glyph-name="uni1EE1" unicode="&#x1ee1;" horiz-adv-x="1187" 
d="M413 1139h234q82 0 112 -13q41 -16 111 -84q86 -86 102.5 -117.5t16.5 -111.5q41 35 57 119v205h180v-154q0 -96 -88 -197q-69 -79 -149 -127v-319q0 -86 -13.5 -118t-85.5 -103q-84 -86 -117.5 -102.5t-117.5 -16.5h-264q-70 0 -101 14q-36 17 -117 93.5t-98 113.5
q-14 31 -14 119v522q0 39 14 62q21 37 92 106q82 78 123 94q35 15 123 15zM622 387v381q0 59 -12 84q-21 41 -86 41q-98 0 -98 -125v-381q0 -135 96 -135q100 0 100 135zM755 1444l80 -92q-74 -64 -100 -80q-43 -27 -88 -27q-25 0 -74 23q-80 45 -104 45q-21 0 -41 -10
q-23 -17 -70 -50l-72 95q13 10 44.5 36.5t43.5 34.5q52 39 95 39q28 0 77 -26q84 -46 109 -46q24 0 100 58z" />
    <glyph glyph-name="uni1EE2" unicode="&#x1ee2;" horiz-adv-x="1331" 
d="M517 1446h275q110 0 149 -14q47 -21 134 -108t106 -126q14 -24 16 -80q41 35 58 119v205h180v-154q0 -96 -88 -196q-70 -80 -150 -127v-559q0 -111 -14 -150q-19 -49 -106 -135t-138 -107q-41 -14 -147 -14h-332q-88 0 -129 18q-47 23 -139 117q-76 78 -97 133
q-14 43 -14 148v631q0 106 16 143q21 45 115 137q86 84 141 103q43 16 164 16zM761 492v464q0 97 -16 125q-25 47 -111 47q-80 0 -107 -53q-10 -20 -10 -119v-464q0 -101 19 -132q24 -43 110 -43q78 0 103 52q12 24 12 123zM454 -119h366v-166h-366v166z" />
    <glyph glyph-name="uni1EE3" unicode="&#x1ee3;" horiz-adv-x="1187" 
d="M413 1139h234q82 0 112 -13q41 -16 111 -84q86 -86 102.5 -117.5t16.5 -111.5q41 35 57 119v205h180v-154q0 -96 -88 -197q-69 -79 -149 -127v-319q0 -86 -13.5 -118t-85.5 -103q-84 -86 -117.5 -102.5t-117.5 -16.5h-264q-70 0 -101 14q-36 17 -117 93.5t-98 113.5
q-14 31 -14 119v522q0 39 14 62q21 37 92 106q82 78 123 94q35 15 123 15zM622 387v381q0 59 -12 84q-21 41 -86 41q-98 0 -98 -125v-381q0 -135 96 -135q100 0 100 135zM335 -143h367v-166h-367v166z" />
    <glyph glyph-name="uni1EE4" unicode="&#x1ee4;" 
d="M782 1446h507v-316h-69v-698q0 -117 -14 -158q-21 -59 -105 -141q-96 -94 -154 -117q-41 -16 -143 -16h-289q-96 0 -125 8q-53 17 -141 94q-76 68 -108 115q-29 41 -34 70.5t-5 126.5v716h-70v316h510v-1020q0 -113 119 -113q80 0 104 47q17 29 17 117v969zM491 -131h366
v-166h-366v166z" />
    <glyph glyph-name="uni1EE5" unicode="&#x1ee5;" horiz-adv-x="1150" 
d="M608 1139h430v-1139h-588q-80 0 -113.5 15.5t-111.5 85t-96 112.5q-15 35 -15 129v543h-63v254h430v-740q0 -90 17.5 -113.5t46.5 -27.5q22 -4 124 -4v631h-61v254zM393 -141h367v-166h-367v166z" />
    <glyph glyph-name="uni1EE6" unicode="&#x1ee6;" 
d="M782 1446h507v-316h-69v-698q0 -117 -14 -158q-21 -59 -105 -141q-96 -94 -154 -117q-41 -16 -143 -16h-289q-96 0 -125 8q-53 17 -141 94q-76 68 -108 115q-29 41 -34 70.5t-5 126.5v716h-70v316h510v-1020q0 -113 119 -113q80 0 104 47q17 29 17 117v969zM593 1784
l-143 -41l18 158h230q57 0 105 -36t48 -71v-41q0 -24 -2 -31q-8 -16 -82 -61q-33 -21 -33 -55v-45h-161v63q0 31 7 41t46 39q12 8 41 31q12 10 12 47q0 24 -59 24q-25 0 -27 -22z" />
    <glyph glyph-name="uni1EE7" unicode="&#x1ee7;" horiz-adv-x="1150" 
d="M608 1139h430v-1139h-588q-80 0 -113.5 15.5t-111.5 85t-96 112.5q-15 35 -15 129v543h-63v254h430v-740q0 -90 17.5 -113.5t46.5 -27.5q22 -4 124 -4v631h-61v254zM526 1477l-143 -41l18 157h230q57 0 105 -35.5t48 -70.5v-41q0 -25 -2 -31q-8 -16 -82 -61
q-33 -21 -33 -56v-45h-161v64q0 31 7 41t46 39q12 8 41 30q12 11 12 48q0 24 -59 24q-25 0 -27 -22z" />
    <glyph glyph-name="uni1EE8" unicode="&#x1ee8;" horiz-adv-x="1433" 
d="M782 1446h438v-348q69 41 100 125v223h193v-182q-6 -68 -24.5 -101t-80.5 -98q-78 -82 -188 -137v-496q0 -117 -14 -158q-21 -59 -105 -141q-96 -94 -154 -117q-41 -16 -143 -16h-289q-96 0 -125 8q-53 17 -141 94q-76 68 -108 115q-29 41 -34 70.5t-5 126.5v716h-70v316
h510v-1020q0 -113 119 -113q80 0 104 47q17 29 17 117v969zM534 1661l389 137l39 -170l-400 -82z" />
    <glyph glyph-name="uni1EE9" unicode="&#x1ee9;" horiz-adv-x="1228" 
d="M597 1139h430v-330q70 41 100 125v205h193v-148q-6 -67 -24.5 -100t-79.5 -98q-78 -82 -189 -138v-655h-588q-80 0 -113.5 15.5t-111.5 85t-96 112.5q-15 35 -15 129v543h-63v254h430v-740q0 -90 17.5 -113.5t46.5 -27.5q22 -4 124 -4v631h-61v254zM464 1354l389 137
l39 -170l-399 -82z" />
    <glyph glyph-name="uni1EEA" unicode="&#x1eea;" horiz-adv-x="1433" 
d="M782 1446h438v-348q69 41 100 125v223h193v-182q-6 -68 -24.5 -101t-80.5 -98q-78 -82 -188 -137v-496q0 -117 -14 -158q-21 -59 -105 -141q-96 -94 -154 -117q-41 -16 -143 -16h-289q-96 0 -125 8q-53 17 -141 94q-76 68 -108 115q-29 41 -34 70.5t-5 126.5v716h-70v316
h510v-1020q0 -113 119 -113q80 0 104 47q17 29 17 117v969zM493 1804l383 -137l-33 -111l-395 84z" />
    <glyph glyph-name="uni1EEB" unicode="&#x1eeb;" horiz-adv-x="1228" 
d="M597 1139h430v-330q70 41 100 125v205h193v-148q-6 -67 -24.5 -100t-79.5 -98q-78 -82 -189 -138v-655h-588q-80 0 -113.5 15.5t-111.5 85t-96 112.5q-15 35 -15 129v543h-63v254h430v-740q0 -90 17.5 -113.5t46.5 -27.5q22 -4 124 -4v631h-61v254zM341 1497l383 -137
l-33 -111l-395 84z" />
    <glyph glyph-name="uni1EEC" unicode="&#x1eec;" horiz-adv-x="1433" 
d="M782 1446h438v-348q69 41 100 125v223h193v-182q-6 -68 -24.5 -101t-80.5 -98q-78 -82 -188 -137v-496q0 -117 -14 -158q-21 -59 -105 -141q-96 -94 -154 -117q-41 -16 -143 -16h-289q-96 0 -125 8q-53 17 -141 94q-76 68 -108 115q-29 41 -34 70.5t-5 126.5v716h-70v316
h510v-1020q0 -113 119 -113q80 0 104 47q17 29 17 117v969zM646 1794l-143 -41l18 158h230q57 0 105 -36t48 -71v-41q0 -24 -2 -30q-8 -17 -82 -62q-32 -20 -32 -55v-45h-162v63q0 31 7 41.5t46 38.5q12 8 41 31q12 10 12 47q0 25 -59 25q-25 0 -27 -23z" />
    <glyph glyph-name="uni1EED" unicode="&#x1eed;" horiz-adv-x="1228" 
d="M597 1139h430v-330q70 41 100 125v205h193v-148q-6 -67 -24.5 -100t-79.5 -98q-78 -82 -189 -138v-655h-588q-80 0 -113.5 15.5t-111.5 85t-96 112.5q-15 35 -15 129v543h-63v254h430v-740q0 -90 17.5 -113.5t46.5 -27.5q22 -4 124 -4v631h-61v254zM515 1477l-143 -41
l18 157h230q57 0 105 -35.5t48 -70.5v-41q0 -25 -2 -31q-8 -16 -82 -61q-33 -21 -33 -56v-45h-161v64q0 31 7 41t46 39q12 8 41 30q12 11 12 48q0 24 -59 24q-25 0 -27 -22z" />
    <glyph glyph-name="uni1EEE" unicode="&#x1eee;" horiz-adv-x="1433" 
d="M782 1446h438v-348q69 41 100 125v223h193v-182q-6 -68 -24.5 -101t-80.5 -98q-78 -82 -188 -137v-496q0 -117 -14 -158q-21 -59 -105 -141q-96 -94 -154 -117q-41 -16 -143 -16h-289q-96 0 -125 8q-53 17 -141 94q-76 68 -108 115q-29 41 -34 70.5t-5 126.5v716h-70v316
h510v-1020q0 -113 119 -113q80 0 104 47q17 29 17 117v969zM913 1763l80 -92q-74 -63 -101 -80q-43 -26 -88 -26q-24 0 -74 22q-80 45 -104 45q-21 0 -41 -10q-23 -16 -70 -49l-71 94q12 10 43.5 37t44.5 35q51 39 94 39q29 0 78 -27q84 -45 108 -45q25 0 101 57z" />
    <glyph glyph-name="uni1EEF" unicode="&#x1eef;" horiz-adv-x="1228" 
d="M597 1139h430v-330q70 41 100 125v205h193v-148q-6 -67 -24.5 -100t-79.5 -98q-78 -82 -189 -138v-655h-588q-80 0 -113.5 15.5t-111.5 85t-96 112.5q-15 35 -15 129v543h-63v254h430v-740q0 -90 17.5 -113.5t46.5 -27.5q22 -4 124 -4v631h-61v254zM761 1446l80 -92
q-74 -64 -101 -80q-43 -27 -88 -27q-24 0 -73 23q-80 45 -105 45q-20 0 -41 -10q-22 -17 -69 -50l-72 95q12 10 44 36.5t44 34.5q51 39 94 39q29 0 78 -26q84 -45 109 -45q24 0 100 57z" />
    <glyph glyph-name="uni1EF0" unicode="&#x1ef0;" horiz-adv-x="1433" 
d="M782 1446h438v-348q69 41 100 125v223h193v-182q-6 -68 -24.5 -101t-80.5 -98q-78 -82 -188 -137v-496q0 -117 -14 -158q-21 -59 -105 -141q-96 -94 -154 -117q-41 -16 -143 -16h-289q-96 0 -125 8q-53 17 -141 94q-76 68 -108 115q-29 41 -34 70.5t-5 126.5v716h-70v316
h510v-1020q0 -113 119 -113q80 0 104 47q17 29 17 117v969zM462 -131h367v-166h-367v166z" />
    <glyph glyph-name="uni1EF1" unicode="&#x1ef1;" horiz-adv-x="1228" 
d="M597 1139h430v-330q70 41 100 125v205h193v-148q-6 -67 -24.5 -100t-79.5 -98q-78 -82 -189 -138v-655h-588q-80 0 -113.5 15.5t-111.5 85t-96 112.5q-15 35 -15 129v543h-63v254h430v-740q0 -90 17.5 -113.5t46.5 -27.5q22 -4 124 -4v631h-61v254zM382 -141h367v-166
h-367v166z" />
    <glyph glyph-name="Ygrave" unicode="&#x1ef2;" horiz-adv-x="1236" 
d="M784 1446h430v-316h-74l-303 -655v-160h70v-315h-576v315h70v160l-307 655h-74v316h430l170 -623zM374 1815l383 -138l-32 -110l-396 84z" />
    <glyph glyph-name="ygrave" unicode="&#x1ef3;" horiz-adv-x="1110" 
d="M646 1139h371v-1055q0 -92 -12 -129q-16 -51 -84 -123q-80 -86 -131 -106q-39 -15 -144 -15h-483l-43 373h301l19 -72q10 -37 21 -49t48 -12h41q96 0 96 102v111h-229q-80 0 -110 14q-39 17 -112 93.5t-91 121.5q-13 31 -13 101v391h-63v254h432v-600q0 -95 35 -117
q29 -16 151 -16v733zM352 1497l383 -137l-33 -111l-395 84z" />
    <glyph glyph-name="uni1EF4" unicode="&#x1ef4;" horiz-adv-x="1236" 
d="M784 1446h430v-316h-74l-303 -655v-160h70v-315h-576v315h70v160l-307 655h-74v316h430l170 -623zM436 -131h366v-166h-366v166z" />
    <glyph glyph-name="uni1EF5" unicode="&#x1ef5;" horiz-adv-x="1110" 
d="M646 1139h371v-1055q0 -92 -12 -129q-16 -51 -84 -123q-80 -86 -131 -106q-39 -15 -144 -15h-483l-43 373h301l19 -72q10 -37 21 -49t48 -12h41q96 0 96 102v111h-229q-80 0 -110 14q-39 17 -112 93.5t-91 121.5q-13 31 -13 101v391h-63v254h432v-600q0 -95 35 -117
q29 -16 151 -16v733zM362 -397h366v-166h-366v166z" />
    <glyph glyph-name="uni1EF6" unicode="&#x1ef6;" horiz-adv-x="1236" 
d="M784 1446h430v-316h-74l-303 -655v-160h70v-315h-576v315h70v160l-307 655h-74v316h430l170 -623zM589 1774l-143 -41l18 157h230q57 0 105 -35.5t48 -70.5v-41q0 -25 -2 -31q-8 -16 -82 -61q-32 -21 -32 -56v-45h-162v64q0 31 7 41t46 39q12 8 41 30q12 11 12 48
q0 24 -59 24q-25 0 -27 -22z" />
    <glyph glyph-name="uni1EF7" unicode="&#x1ef7;" horiz-adv-x="1110" 
d="M646 1139h371v-1055q0 -92 -12 -129q-16 -51 -84 -123q-80 -86 -131 -106q-39 -15 -144 -15h-483l-43 373h301l19 -72q10 -37 21 -49t48 -12h41q96 0 96 102v111h-229q-80 0 -110 14q-39 17 -112 93.5t-91 121.5q-13 31 -13 101v391h-63v254h432v-600q0 -95 35 -117
q29 -16 151 -16v733zM487 1477l-143 -41l18 157h230q57 0 105 -35.5t48 -70.5v-41q0 -25 -2 -31q-8 -16 -81 -61q-33 -21 -33 -56v-45h-162v64q0 31 7 41t46 39q12 8 41 30q12 11 12 48q0 24 -59 24q-25 0 -27 -22z" />
    <glyph glyph-name="uni1EF8" unicode="&#x1ef8;" horiz-adv-x="1236" 
d="M784 1446h430v-316h-74l-303 -655v-160h70v-315h-576v315h70v160l-307 655h-74v316h430l170 -623zM825 1722l80 -92q-74 -63 -101 -80q-43 -26 -88 -26q-24 0 -73 22q-80 45 -105 45q-20 0 -41 -10q-22 -16 -69 -49l-72 94q12 10 44 37t44 35q51 39 94 39q29 0 78 -27
q84 -45 109 -45q24 0 100 57z" />
    <glyph glyph-name="uni1EF9" unicode="&#x1ef9;" horiz-adv-x="1110" 
d="M646 1139h371v-1055q0 -92 -12 -129q-16 -51 -84 -123q-80 -86 -131 -106q-39 -15 -144 -15h-483l-43 373h301l19 -72q10 -37 21 -49t48 -12h41q96 0 96 102v111h-229q-80 0 -110 14q-39 17 -112 93.5t-91 121.5q-13 31 -13 101v391h-63v254h432v-600q0 -95 35 -117
q29 -16 151 -16v733zM782 1446l80 -92q-74 -64 -101 -80q-43 -27 -88 -27q-24 0 -74 23q-79 45 -104 45q-21 0 -41 -10q-23 -17 -70 -50l-71 95q12 10 43.5 36.5t44.5 34.5q51 39 94 39q29 0 78 -26q84 -45 108 -45q25 0 101 57z" />
    <glyph glyph-name="quoteleft" unicode="&#x2018;" horiz-adv-x="512" 
d="M372 879h-297v188q0 70 13.5 99.5t78.5 99.5q105 108 217 192l137 -123q-114 -129 -149 -264v-192z" />
    <glyph glyph-name="quoteright" unicode="&#x2019;" horiz-adv-x="512" 
d="M139 1446h297v-184q0 -74 -10 -99q-14 -30 -80 -100q-104 -113 -217 -195l-137 121q109 131 147 252v205z" />
    <glyph glyph-name="quotedblleft" unicode="&#x201c;" horiz-adv-x="937" 
d="M735 868h-297v187q0 75 13.5 103t81.5 95q55 56 215 193l135 -123q-123 -156 -148 -264v-191zM295 868h-297v187q0 75 13.5 102t82.5 96q56 56 213 193l137 -123q-120 -154 -149 -264v-191z" />
    <glyph glyph-name="quotedblright" unicode="&#x201d;" horiz-adv-x="937" 
d="M145 1446h297v-186q0 -76 -13 -104t-81 -95q-55 -55 -215 -193l-135 123q123 156 147 264v191zM586 1446h297v-186q0 -76 -13.5 -103t-83.5 -96q-55 -55 -213 -193l-137 123q121 154 150 264v191z" />
    <glyph glyph-name="ellipsis" unicode="&#x2026;" horiz-adv-x="1475" 
d="M92 283h328v-283h-328v283zM564 283h328v-283h-328v283zM1036 282h328v-283h-328v283z" />
    <glyph glyph-name="ugrave" horiz-adv-x="582" 
 />
    <glyph glyph-name="uacute" horiz-adv-x="580" 
 />
    <glyph glyph-name="yacute" horiz-adv-x="629" 
 />
  </font>
</defs>
</svg>
