<svg xmlns="http://www.w3.org/2000/svg">
<defs>
<font id="UTMEdwardianRegular" horiz-adv-x="704" >
  <font-face 
    font-family="UTMEdwardianRegular"
    font-weight="400"
    font-stretch="normal"
    units-per-em="2048"
    panose-1="2 4 6 3 5 5 6 2 2 4"
    ascent="1638"
    descent="-410"
    x-height="541"
    cap-height="1337"
    bbox="-673 -792 4956 2067"
    underline-thickness="109"
    underline-position="-143"
    unicode-range="U+0020-2026"
  />
<missing-glyph horiz-adv-x="5040" 
d="M3358 2049h11q43 -12 43 -56q0 -12 -34 -61h-40q0 29 28 59l2 9q-4 11 -5 11h-7q-1 0 -3 -19h-44q6 57 49 57zM2027 2024l35 -38q0 -19 -45 -35h-22l-55 11l-13 -15l-36 32q12 34 50 34h12l42 -11h1q6 0 31 22zM472 1984h152v-68h-94v-67h89v-67h-89v-126l-8 -8h-60v328z
M1159 1984h49l10 -8v-75h30v-60h-30v-185l-10 -8h-59v193h-25v60h25v75zM1624 1984h50l7 -8v-91h-8q23 24 58 24h2q64 0 90 -75l2 -39v-147h-66v119q0 76 -35 76h-7q-36 0 -36 -82v-113h-65v328zM2200 1984h60l8 -8v-223q9 -47 37 -47q38 6 38 55v215l8 8h60v-220
q0 -87 -69 -115q-17 -9 -39 -9q-52 0 -89 58q-14 25 -14 58v228zM2438 1984h170v-68h-56v-268h-67v268h-55v60zM2621 1984h81q11 -6 86 -251h-10l80 251h86v-336h-68v242h11l-74 -242h-50q-10 0 -65 186l-18 56h10v-242h-69v336zM3760 1984h66v-336h-56l-8 8v13l3 2v-2
q-21 -29 -74 -29q-73 0 -107 95l-5 39v3q0 96 97 129l24 3q40 0 68 -32h-8v107zM2060 1932h45l6 -10v-53h-45v-221h-62v8q-12 -16 -53 -16q-95 15 -95 101v160h65v-108q0 -77 22 -82l16 -5h5q20 0 32 32l3 26v137h53v22zM3490 1932v-63h-31v-221h-61v25h10q-15 -33 -62 -33
q-74 0 -93 82l-3 29v150h66v-124q0 -49 17 -65l18 -6h7q35 0 35 65v130h34q-3 0 -3 25l6 6h60zM765 1909q73 0 110 -80q9 -19 12 -55q0 -90 -95 -131l-34 -3q-68 0 -108 76q-12 23 -12 53v10q0 96 106 130h21zM1018 1909h3q81 0 90 -105v-156h-65v123q0 72 -35 72h-5
q-37 0 -37 -72v-123h-66v253h60v-11q19 19 55 19zM1473 1909h7q78 0 114 -97h-74q-16 31 -37 31h-16q-47 -12 -47 -57l-3 -15q11 -65 54 -65h9q18 0 43 27h39l2 3h13l-3 4l1 1l3 -3l6 9l6 -22q-35 -85 -117 -85t-117 98l-4 36v3q0 87 80 123q17 9 41 9zM3147 1909h3

<glyph glyph-name=".notdef" horiz-adv-x="5040" 
d="M3358 2049h11q43 -12 43 -56q0 -12 -34 -61h-40q0 29 28 59l2 9q-4 11 -5 11h-7q-1 0 -3 -19h-44q6 57 49 57zM2027 2024l35 -38q0 -19 -45 -35h-22l-55 11l-13 -15l-36 32q12 34 50 34h12l42 -11h1q6 0 31 22zM472 1984h152v-68h-94v-67h89v-67h-89v-126l-8 -8h-60v328z
M1159 1984h49l10 -8v-75h30v-60h-30v-185l-10 -8h-59v193h-25v60h25v75zM1624 1984h50l7 -8v-91h-8q23 24 58 24h2q64 0 90 -75l2 -39v-147h-66v119q0 76 -35 76h-7q-36 0 -36 -82v-113h-65v328zM2200 1984h60l8 -8v-223q9 -47 37 -47q38 6 38 55v215l8 8h60v-220
q0 -87 -69 -115q-17 -9 -39 -9q-52 0 -89 58q-14 25 -14 58v228zM2438 1984h170v-68h-56v-268h-67v268h-55v60zM2621 1984h81q11 -6 86 -251h-10l80 251h86v-336h-68v242h11l-74 -242h-50q-10 0 -65 186l-18 56h10v-242h-69v336zM3760 1984h66v-336h-56l-8 8v13l3 2v-2
q-21 -29 -74 -29q-73 0 -107 95l-5 39v3q0 96 97 129l24 3q40 0 68 -32h-8v107zM2060 1932h45l6 -10v-53h-45v-221h-62v8q-12 -16 -53 -16q-95 15 -95 101v160h65v-108q0 -77 22 -82l16 -5h5q20 0 32 32l3 26v137h53v22zM3490 1932v-63h-31v-221h-61v25h10q-15 -33 -62 -33
q-74 0 -93 82l-3 29v150h66v-124q0 -49 17 -65l18 -6h7q35 0 35 65v130h34q-3 0 -3 25l6 6h60zM765 1909q73 0 110 -80q9 -19 12 -55q0 -90 -95 -131l-34 -3q-68 0 -108 76q-12 23 -12 53v10q0 96 106 130h21zM1018 1909h3q81 0 90 -105v-156h-65v123q0 72 -35 72h-5
q-37 0 -37 -72v-123h-66v253h60v-11q19 19 55 19zM1473 1909h7q78 0 114 -97h-74q-16 31 -37 31h-16q-47 -12 -47 -57l-3 -15q11 -65 54 -65h9q18 0 43 27h39l2 3h13l-3 4l1 1l3 -3l6 9l6 -22q-35 -85 -117 -85t-117 98l-4 36v3q0 87 80 123q17 9 41 9zM3147 1909h3
q55 0 77 -64v-18h-66q0 16 -9 16h-4q-8 0 -12 -9v-13q0 -7 65 -32q33 -21 33 -62q0 -60 -66 -84l-25 -3q-83 13 -83 91h68q0 -21 21 -25h3q13 0 17 19q0 20 -65 41q-37 29 -37 62q0 69 80 81zM4210 1909q61 0 84 -67q7 -18 7 -65v-129h-66v116q0 79 -33 79h-11
q-27 0 -33 -50v-145h-66v5h-7l7 7v241h61v-8q14 16 57 16zM4438 1909h6q44 0 62 -24v-3l-3 3l4 16h60v-212q0 -99 -90 -136l-34 -4h-8q-75 0 -113 88h72q24 -22 41 -23h13q18 0 37 20q14 12 20 46h9q-32 -40 -77 -40q-62 0 -103 73q-10 19 -14 64q0 90 91 129zM3851 1901h67
v-140q6 -55 33 -55h7q39 0 39 89v106h65v-253h-60l-5 18h-1l2 -2v7l3 2v-2h10q0 -22 -63 -31h-4q-65 0 -91 79l-2 85v97zM704 1771q9 -65 56 -65h6q53 13 53 61v15q-12 61 -52 61h-5q-51 0 -58 -72zM3644 1774q12 -68 54 -68h5q51 0 59 71q0 47 -46 66h-20q-31 0 -49 -53z
M4388 1774q8 -68 58 -68h4q53 11 53 68q0 58 -53 69h-12q-50 -14 -50 -58v-11zM3928 1624h66v-65h-66v65zM1061 1406q50 -12 50 -53v-4q0 -18 -35 -64h-39q0 30 31 62v6q0 10 -2 11h-8q-5 -2 -5 -19h-42v10q0 34 37 48zM3356 1343q97 0 147 -107h-73q-37 42 -76 42
q-50 0 -80 -65q-10 -21 -10 -46q0 -76 76 -106l16 -1q32 0 71 39h74q-48 -105 -147 -105q-98 0 -148 116q-10 31 -10 62q0 98 92 155q32 16 68 16zM3671 1343q61 0 109 -49q47 -52 47 -117v-20q0 -90 -94 -149q-35 -14 -67 -14q-94 0 -145 104q-13 34 -13 61v18
q0 100 101 154q31 12 62 12zM2268 1341h3l47 -11h2q8 0 29 15l22 -44q-21 -23 -42 -23h-4l-52 10l-25 -9l-23 42q21 20 43 20zM716 1338h26q123 0 136 -29q25 -26 25 -63q-11 -61 -30 -61v0q47 -23 47 -68v-18q0 -65 -74 -92l-56 -5h-74v336zM2550 1338h67v-221
q6 -57 38 -57q23 0 37 35l3 30v203l6 10h54l8 -9v-172q0 -120 -42 -136q-25 -27 -69 -27q-60 0 -98 80l-4 54v210zM2805 1338h66q9 0 127 -237h-8v237h62l6 -10v-326h-70q-31 51 -125 238h9v-238h-67v336zM3101 1338h68v-336h-68v336zM3859 1338h15q160 0 180 -42
q23 -11 48 -77l4 -36v-10l3 -2q0 -96 -85 -153q-37 -16 -103 -16h-62v336zM4143 1338h165v-68h-103v-67h101v-65h-101v-69l1 -2h102v-65h-171v326zM3577 1175v-10q0 -74 74 -104l17 -1q62 0 89 82l3 20v15q0 59 -58 91q-10 7 -35 10q-59 0 -88 -79zM784 1270v-59h2
q47 0 47 24l3 14q-9 21 -22 21h-30zM3926 1270v-202l2 -3v2q91 0 108 72l2 15v29q0 33 -31 66q-23 21 -72 21h-9zM1047 1263h6q42 0 64 -26v18h63v-253h-63v20q-25 -28 -73 -28q-81 0 -108 101l-5 36q0 91 89 129zM1321 1263h3q81 0 90 -106v-155h-65v132q0 63 -35 63h-10
q-27 0 -32 -58v-137h-66v253h61v-10q17 18 54 18zM1549 1263h6q50 0 64 -22v14h61v-223q0 -97 -110 -130h-17q-79 0 -117 90h72q26 -25 40 -25h14q46 0 53 50q-18 -23 -65 -23q-65 0 -108 85l-7 44v16q0 81 89 121zM1918 1263h3q48 0 66 -37h-7q32 37 73 37h4q62 0 86 -59
q8 -25 8 -45v-157h-66v142q0 42 -19 51l-10 2h-14q-25 0 -29 -61v-134h-66v140q0 55 -36 55h-8q-25 0 -29 -53v-142h-68v253h64v-21h-11q6 23 59 29zM2288 1263q53 0 69 -25v17h61v-253h-61v20q-25 -28 -71 -28q-80 0 -109 96l-6 41q0 92 90 129zM999 1117q0 -45 55 -57h3
q39 0 55 42l3 15v22q-11 58 -50 58h-14q-35 0 -52 -53v-27zM1501 1128q0 -46 39 -64l16 -4h4q41 0 56 53v23q-10 61 -51 61h-12q-43 0 -52 -69zM2239 1131v-14q14 -57 50 -57h13q52 11 52 60v11q0 43 -34 62l-15 4h-8q-58 -7 -58 -66zM784 1146v-78v-1q70 0 70 41
q0 31 -41 38h-29zM2973 761l32 -36l-58 -62q-25 17 -35 33zM1533 732l90 -58q0 -17 -26 -50l-97 60q20 45 33 48zM2857 697h42l62 -68h-69l-17 21l-19 -21h-69q61 68 70 68zM3425 697h48l63 -68h-69l-24 26h10q0 -2 -22 -26h-69zM621 689h62q12 -6 52 -141l31 -99
q-2 -2 23 89l49 151h67v-6l-113 -330h-56zM1159 689h65v-62h-65v62zM1354 689h56l10 -8v-328h-66v336zM2320 689h53l7 -8v-75h31v-60h-31v-193h-67v193h-26v60h26v75zM2425 689h66v-98h-9q23 23 58 23h3q63 0 88 -75l3 -38v-148h-66v119q0 77 -32 77h-10q-35 0 -35 -83v-113
h-66v336zM2664 689h66v-62h-66v62zM3031 689h51l10 -8v-75h29v-60h-29v-193h-68v193h-27v60h27v75zM3234 689h66v-336h-66v336zM3957 689h66v-336h-66v336zM4316 689h65v-62h-65v62zM1562 614h5q89 0 117 -106l3 -23v-11q0 -85 -89 -124l-37 -5q-83 0 -119 101l-4 32
q0 99 98 134zM1818 614h4q58 0 85 -64q7 -25 7 -81v-116h-68v150q-6 46 -30 46h-10q-31 0 -35 -53v-143h-68v253h63v-9q15 17 52 17zM2053 614h4q50 0 68 -39h-9v31h63v-210q0 -104 -94 -139l-29 -3h-6q-78 0 -115 89h63l38 -20l13 -3h13q44 0 51 47q-19 -22 -63 -22
q-67 0 -105 79q-11 24 -12 61q0 87 91 127zM2873 614h2q88 0 118 -108l2 -25l-2 -31h-171q13 -37 38 -37l14 -3q24 0 44 22h68v-7q-37 -80 -115 -80q-83 0 -118 101l-1 28v8q0 50 33 90q36 42 88 42zM3436 614h5q45 0 74 -39h-9v31h61v-253h-61v31h9q-35 -39 -81 -39
q-77 0 -108 93l-5 36v14q0 88 89 124zM3718 614h7q94 0 114 -134l-2 -1v-13q0 -66 -68 -109q-24 -12 -51 -12q-38 0 -57 20v-84l-8 -8h-60v333h63v-15q20 23 62 23zM4158 614q48 0 68 -25v17h63v-253h-63v19q-24 -27 -70 -27q-99 0 -115 136q0 86 76 124q17 9 41 9zM925 606
h61v-140q3 -56 35 -56h5q37 0 37 83v113h66v-253h-61v24h9q0 -22 -62 -32h-4q-61 0 -89 72q-4 35 -4 99v82zM1159 606h65v-253h-65v253zM2664 606h66v-253h-66v253zM4316 606h65v-253h-65v253zM1506 488v-16q12 -62 52 -62h4q52 0 59 72q-12 67 -52 67h-10q-53 -14 -53 -61z
M2001 472q14 -62 52 -62h11q42 0 52 71v1q-12 67 -52 67h-14q-33 0 -49 -53v-24zM2821 510h106v-2q-15 41 -52 41h-7q-30 0 -47 -39zM3387 474q12 -64 54 -64h5q46 0 58 59v12q-9 68 -50 68h-15q-50 -13 -50 -59zM3656 478q11 -68 54 -68h3q44 0 58 56v22q0 41 -44 61h-20
q-41 0 -51 -68v-3zM4109 472q9 -62 59 -62q37 0 54 44l2 15v16q0 52 -46 64h-17q-36 0 -52 -56v-21zM3416 325h65v-60h-65v60zM4137 325h65v-60h-65v60zM2740 137h4q41 0 50 -54v-2q0 -17 -25 -42l-11 -20h-40q0 30 29 62l2 1v1l-2 15h-10q-1 0 -2 -19h-44q6 58 49 58z
M1553 124l60 -68l-35 -26l-59 59zM354 83h12q78 -50 89 -64l-24 -44q-98 55 -98 65zM3497 85l94 -63l-21 -44q-18 0 -103 58q16 38 30 49zM4592 76l20 -43l-102 -58l-25 47l107 67v-13zM1204 57h65v-22l2 -2h17v-44h-17l-2 -2v-282h-60v18q-23 -27 -74 -27q-78 0 -109 109
l-3 26q0 104 107 135h15q37 0 59 -22v43l-2 2h-47v44h49v24zM1483 49h48l63 -69h-68l-19 22l-19 -22h-68zM2644 49h37q16 0 74 -69h-69l-19 22q-12 -13 -12 -22h-72v9zM51 41h172v-68h-56v-268h-61l-7 8v246l2 3v1l-2 3l2 3l-2 2l2 3v-1h-56v58zM702 41h58v-76l2 -3l-2 -3
v-2l2 -3l-2 -3v-2l2 -2v-3l-2 -3v1h-7q17 24 56 24h3q58 0 84 -61q7 -18 7 -43v-157h-66v131q0 64 -33 64h-8q-36 0 -36 -82v-113h-66v327zM1297 41h58l8 -9v-54h-66v63zM1987 41h66v-179l58 96h77l-81 -122l90 -124v-7h-82q-12 25 -62 98v-98h-66v336zM2285 41v-88
q13 13 46 13q62 0 87 -59q10 -20 10 -78v-124h-68v137q0 58 -34 58h-11q-24 0 -30 -51v-144h-67v318l-1 3v3l1 2l-1 3l2 7h66zM2458 41h65v-63h-65v63zM3148 41h65v-94q16 19 61 19h3q81 0 112 -98l5 -37q0 -76 -67 -123q-32 -12 -53 -12q-45 0 -65 25v-16h-61v336zM4275 41
h66v-99h-9q23 24 58 24h3q66 0 89 -78l2 -41v-142h-66v115q0 78 -26 78l-10 2h-11q-30 0 -30 -76v-119h-66v336zM336 -34h10v-66h-12q-35 0 -35 -53v-142h-67v253h61v-2q6 10 43 10zM571 -34q77 0 93 -91v-170h-65v140q-6 55 -34 55h-6q-38 0 -38 -80v-115h-66v253h64v-8
q14 16 52 16zM1511 -34q78 0 112 -98l5 -39q-2 -28 -14 -28h-160q14 -39 53 -39q21 0 45 21h69q-37 -87 -117 -87q-88 0 -120 109v37q0 83 94 121zM2663 -34h6q83 0 114 -101l3 -26v-21l-4 -17h-167q15 -39 44 -39h12q17 0 38 21h72q-38 -87 -114 -87q-90 0 -122 106l-2 29
q0 95 96 132zM2922 -34h4q59 0 85 -64q7 -25 7 -82v-115h-68v142q0 45 -29 53h-10q-31 0 -36 -53v-142h-68v253h64v-8q14 16 51 16zM3515 -34h6q44 0 74 -40h-9v32h61v-253h-61v31h9q-34 -40 -82 -40q-77 0 -108 94l-4 37v12q0 84 80 120q13 7 34 7zM3788 -34h4q68 0 89 -82
l3 -84v-95h-68v142q0 45 -32 53h-8q-31 0 -35 -48v-147h-68v253h63v-9q15 17 52 17zM4140 -34h1q80 0 111 -97l4 -40q0 -90 -88 -130l-27 -3q-46 0 -62 20v-92h-66v334h61v-15q19 23 66 23zM4721 -34h5q38 0 63 -31q23 31 69 31h6q62 0 86 -70l6 -51v-140h-66v126
q0 69 -32 69h-7q-28 0 -34 -46v-141l-8 -8h-59v144q0 40 -26 51h-15q-33 0 -33 -73v-122h-65v253h61v-6q11 14 49 14zM359 -42h60l8 -9v-236l-8 -8h-60v253zM1297 -42h66v-253h-66v253zM1649 -42h66v-140q4 -56 36 -56h4q37 0 37 77v119h66v-253h-61v24h8q-12 -33 -65 -33
q-57 0 -86 66q-5 13 -5 35v161zM2458 -42h65v-253h-65v253zM4515 -42h65v-253h-65v253zM1091 -169q0 -51 46 -69h10q48 0 59 62v10q0 51 -49 66h-15q-32 0 -51 -53v-16zM1452 -139h106q-15 39 -44 39h-7q-38 0 -55 -40v1zM2614 -139h105q-17 39 -45 39h-7q-40 0 -53 -39z
M3210 -158v-11q9 -69 54 -69h4q58 7 58 67v5q0 43 -35 62l-15 4h-12q-54 -13 -54 -58zM3466 -173q13 -65 55 -65h11q35 0 52 56v13q-8 69 -49 69h-17q-41 0 -52 -69v-4zM4076 -158v-22q0 -44 53 -58h8q44 0 54 72q-12 66 -51 66h-14q-50 -15 -50 -58z" />
    <glyph glyph-name=".null" horiz-adv-x="0" 
 />
    <glyph glyph-name="nonmarkingreturn" horiz-adv-x="571" 
 />
    <glyph glyph-name="space" unicode=" " horiz-adv-x="362" 
 />
    <glyph glyph-name="exclam" unicode="!" horiz-adv-x="587" 
d="M916 1104q0 -48 -229 -364q-250 -346 -332 -508q-8 -15 -21 -15q-15 0 -15 14q0 2 12 22q102 149 332 676q59 133 99.5 185.5t89.5 52.5q64 0 64 -63zM343 117q0 -46 -42.5 -88.5t-89.5 -42.5q-50 0 -50 49q0 42 44.5 84.5t91.5 42.5q46 0 46 -45z" />
    <glyph glyph-name="quotedbl" unicode="&#x22;" horiz-adv-x="978" 
d="M1239 1270q0 -31 -13.5 -62t-99.5 -197q-57 -113 -81 -181h-30q15 53 75 319q36 172 103 172q46 0 46 -51zM1071 1268q0 -39 -45 -126q-115 -217 -149 -312h-32q32 110 75 319q36 172 105 172q46 0 46 -53z" />
    <glyph glyph-name="numbersign" unicode="#" horiz-adv-x="978" 
d="M1312 756q-39 -48 -58 -103q-86 5 -255 9q-68 -122 -97 -181q67 2 252 6q-45 -60 -60 -100q-98 2 -239 6q-55 -105 -137 -264h-51q70 120 146 264h-71q-39 0 -118 -2l-146 -262h-44q20 44 80 146q20 35 61 114l-50 -2l-210 -4q39 46 63 104l246 -8q19 36 86 181h-46
l-139 -7h-53q44 59 62 105l33 -2h138l48 -2q76 176 99 260h123q-52 -87 -150 -260h99q39 0 63 2q75 182 97 258h112q-44 -61 -148 -258q36 -2 89 -2q94 0 175 2zM948 663q-22 1 -59 1h-30q-26 -2 -52 -2h-34q-41 -69 -102 -183h142l45 2z" />
    <glyph glyph-name="dollar" unicode="$" horiz-adv-x="978" 
d="M1246 768q0 -77 -71.5 -129.5t-176.5 -52.5q-140 0 -140 100q0 40 41 89.5t78 49.5q15 0 15 -10q0 -8 -9 -8q-95 -43 -95 -119t83 -76q62 0 128 62t66 125q0 104 -145 104q-109 0 -201.5 -71t-92.5 -158q0 -38 29.5 -70.5t157.5 -134.5q116 -91 116 -195
q0 -132 -132 -227.5t-311 -95.5q-22 0 -40 2l-199 -372q-10 -19 -25 -19q-17 0 -17 16q0 8 8 24l199 356q-234 39 -234 210q0 91 103.5 170.5t220.5 79.5q18 0 22 -8q0 -10 -28 -15q-91 -17 -153.5 -85.5t-62.5 -149.5q0 -89 55 -139t151 -50q132 0 229.5 70.5t97.5 169.5
q0 52 -27 85.5t-153.5 128t-126.5 193.5q0 118 123.5 213t280.5 95q23 0 38 -1l152 286q14 26 27 26q17 0 17 -16q0 -4 -8 -26l-151 -277q161 -32 161 -150z" />
    <glyph glyph-name="percent" unicode="%" horiz-adv-x="944" 
d="M1240 1030q0 -9 -11 -20q-204 -218 -592 -918q-44 13 -79 13q-4 0 -69 -6q315 434 640 830l-61 -73q33 35 -108 -44q-87 -48 -146 -131q-112 -161 -222 -161q-51 0 -81 32.5t-30 82.5q0 91 111 197t209 106q83 0 83 -86q0 -51 10 -35l115 67q125 70 199 145q11 11 21 11
q11 -4 11 -10zM1271 481q0 -101 -100.5 -216t-190.5 -115q-50 0 -81 32t-31 80q0 93 110 199t210 106q83 0 83 -86zM1231 496q0 49 -36 49q-64 0 -157.5 -121.5t-93.5 -204.5q0 -47 36 -47q67 0 159 117.5t92 206.5zM843 866q0 50 -36 50q-63 0 -157 -121.5t-94 -206.5
q0 -45 36 -45q68 0 159.5 117t91.5 206z" />
    <glyph glyph-name="ampersand" unicode="&#x26;" horiz-adv-x="1439" 
d="M1812 346q0 -165 -157.5 -306.5t-343.5 -141.5q-170 0 -273 115q-115 -35 -216 -35q-208 0 -353.5 121t-145.5 292q0 216 250 386q101 68 323 154q47 18 128 50q72 132 191 248t186 116q42 0 42 -34q0 -50 -111.5 -150t-274.5 -196q-42 -101 -67 -189q56 10 94 10
q143 0 231.5 -88.5t88.5 -228.5q0 -144 -88.5 -261t-243.5 -182q89 -102 233 -102q174 0 324 132.5t150 291.5q0 39 -16 88v6q0 11 15 11q14 0 24 -38t10 -69zM1410 1309q0 12 -9 12q-49 0 -158.5 -106t-164.5 -205q99 54 215.5 156.5t116.5 142.5zM1353 498
q0 113 -75 188.5t-190 75.5q-52 0 -107 -15q-42 -165 -42 -317q0 -131 47 -256q76 28 134.5 92.5t56.5 124.5q-2 33 27 33q30 0 30 -27q0 -60 -75.5 -137t-163.5 -110q10 -18 22 -45q8 -12 23 -35q130 67 221.5 190.5t91.5 237.5zM945 165q-55 130 -55 284q0 129 39 277
q-99 -41 -175.5 -144.5t-76.5 -212.5q0 -92 61 -150.5t153 -58.5q30 0 54 5zM1007 936q-244 -130 -335 -205q-245 -200 -245 -412q0 -132 110.5 -221.5t269.5 -89.5q96 0 199 44q-30 43 -50 86q-35 -7 -65 -7q-116 0 -196.5 73.5t-80.5 174.5q0 122 89 226.5t237 156.5
q28 97 67 174z" />
    <glyph glyph-name="quotesingle" unicode="'" horiz-adv-x="657" 
d="M996 1268q0 -39 -45 -126q-115 -217 -149 -312h-32q32 110 75 319q36 172 105 172q46 0 46 -53z" />
    <glyph glyph-name="parenleft" unicode="(" horiz-adv-x="899" 
d="M1763 1442q0 -11 -42 -19q-405 -64 -733.5 -450t-328.5 -799q0 -193 122 -313q7 -7 7 -13q-3 -10 -13 -10q-16 0 -70 62q-142 162 -142 413q0 279 186 558.5t468 425.5q103 54 275.5 105.5t248.5 51.5q22 0 22 -12z" />
    <glyph glyph-name="parenright" unicode=")" horiz-adv-x="899" 
d="M961 1018q0 -215 -50.5 -371t-167.5 -308q-135 -175 -302 -284t-410 -182q-174 -51 -212 -51q-17 0 -17 12q0 11 30 16q390 73 711.5 464.5t321.5 795.5q0 204 -120 313q-9 8 -9 15q0 10 15 10q12 0 45 -33q165 -161 165 -397z" />
    <glyph glyph-name="asterisk" unicode="*" horiz-adv-x="978" 
d="M1161 1276q0 -30 -41 -56q-61 -38 -95 -94h-23q26 114 48.5 153.5t62.5 39.5q48 0 48 -43zM1228 1108q0 -55 -46 -55q-17 0 -42 18q-49 35 -85 35q-7 0 -37 -5v19q93 41 152 41q58 0 58 -53zM1008 1127l-19 -11q-107 100 -107 168q0 47 54 47q50 0 50 -45q0 -8 -3 -27.5
t-3 -31.5q0 -45 21 -85zM1144 942q0 -47 -54 -47q-37 0 -46 31q-4 10 -4 53q-2 73 -37 112l24 11l20 -21l43 -39q54 -50 54 -100zM993 1096q-80 -25 -141 -25q-70 0 -70 55q0 56 48 56q18 0 39 -21q62 -47 124 -47v-18zM1012 1089q-45 -194 -108 -194q-52 0 -52 45
q0 33 52 60q57 30 83 96z" />
    <glyph glyph-name="plus" unicode="+" horiz-adv-x="927" 
d="M683 577h213l-8 -35h-212l-45 -217l-37 16l41 201h-213l8 35h212l46 218l36 -19z" />
    <glyph glyph-name="comma" unicode="," horiz-adv-x="456" 
d="M323 121q0 -69 -75 -150q-28 -30 -75.5 -61t-69.5 -31q-13 0 -13 10t12 13q39 13 72 39.5t33 46.5q0 2 -4 2q-52 0 -52 47q0 40 42.5 85.5t81.5 45.5q48 0 48 -47z" />
    <glyph glyph-name="hyphen" unicode="-" horiz-adv-x="733" 
d="M747 272q0 -14 -85 -40.5t-129 -26.5q-42 0 -86 10q-50 12 -76 12q-39 0 -75 -18q-3 -4 -11 -4q-11 0 -11 8q0 14 80.5 42t116.5 28q22 0 88 -15q55 -12 78 -12q45 0 84 19q8 5 15 5q11 0 11 -8z" />
    <glyph glyph-name="hyphen" unicode="&#x2010;" horiz-adv-x="733" 
d="M747 272q0 -14 -85 -40.5t-129 -26.5q-42 0 -86 10q-50 12 -76 12q-39 0 -75 -18q-3 -4 -11 -4q-11 0 -11 8q0 14 80.5 42t116.5 28q22 0 88 -15q55 -12 78 -12q45 0 84 19q8 5 15 5q11 0 11 -8z" />
    <glyph glyph-name="period" unicode="." horiz-adv-x="456" 
d="M362 117q0 -46 -42.5 -88.5t-89.5 -42.5q-50 0 -50 49q0 42 44.5 84.5t91.5 42.5q46 0 46 -45z" />
    <glyph glyph-name="slash" unicode="/" horiz-adv-x="1083" 
d="M1474 1491l-1080 -1702h-46l1080 1702h46z" />
    <glyph glyph-name="zero" unicode="0" horiz-adv-x="978" 
d="M1306 791q0 -229 -231 -490q-280 -317 -522 -317q-122 0 -200.5 87.5t-78.5 221.5q0 269 331 549q287 241 460 241q111 0 176 -80t65 -212zM1218 901q0 160 -151 160q-125 0 -293 -150q-159 -144 -273 -345q-121 -214 -121 -376q0 -184 171 -184q215 0 436 304
q104 144 167.5 306t63.5 285z" />
    <glyph glyph-name="one" unicode="1" horiz-adv-x="978" 
d="M1262 1038q0 -10 -227 -361q-182 -281 -251.5 -415t-105.5 -274q-42 10 -68 10q-27 0 -117 -13q69 204 419 624q212 256 240 300q-206 -243 -469 -444q-172 -131 -208 -131q-15 0 -15 10q0 8 15 15q253 115 736 651l12 14q20 22 28 22q11 0 11 -8z" />
    <glyph glyph-name="two" unicode="2" horiz-adv-x="978" 
d="M1307 850q0 -138 -115 -248q-83 -78 -170.5 -124.5t-343.5 -148.5q-319 -129 -410 -238q53 40 160 40q86 0 224 -43q117 -37 177 -37q80 0 151.5 67t97.5 173q3 16 18 16q11 0 11 -8q0 -58 -68 -153q-128 -177 -318 -177q-71 0 -208 41q-162 49 -204 49q-97 0 -107 -79
q-4 -27 -22 -27q-15 0 -15 12q0 48 81 131q70 72 143.5 117.5t274.5 139.5q251 119 392 270.5t141 302.5q0 62 -45 97.5t-120 35.5q-173 0 -376 -179t-203 -333q0 -109 129 -109q103 0 234 104t180 226q4 14 16 14q13 0 13 -10q0 -44 -87 -146q-76 -89 -175 -147.5
t-179 -58.5t-128.5 47.5t-48.5 124.5q0 187 249 353q205 134 380 134q120 0 195.5 -64t75.5 -165z" />
    <glyph glyph-name="three" unicode="3" horiz-adv-x="978" 
d="M1248 897q0 -241 -398 -310q228 -52 228 -245q0 -144 -167 -255t-387 -111q-140 0 -230 56.5t-90 143.5q0 91 89 155t217 64q101 0 101 -16q0 -10 -13 -10h-9q-37 6 -61 6q-105 0 -179 -61t-74 -150q0 -73 57.5 -118.5t148.5 -45.5q180 0 331.5 128.5t151.5 283.5
q0 126 -152 166q-84 -13 -140 -13q-58 0 -58 17q0 24 80 24q59 0 118 -10q148 50 237 145.5t89 206.5q0 123 -155 123q-136 0 -274.5 -94.5t-138.5 -192.5q0 -86 108 -86q67 0 152.5 54.5t133.5 129.5q6 13 19 13q11 0 11 -8q0 -11 -38.5 -53.5t-70.5 -69.5
q-110 -86 -211 -86q-61 0 -100.5 36.5t-39.5 90.5q0 103 144 194.5t307 91.5q120 0 191.5 -52.5t71.5 -141.5z" />
    <glyph glyph-name="four" unicode="4" horiz-adv-x="978" 
d="M1615 1167q0 -12 -15 -12q-3 0 -13 2q-46 17 -87 17q-256 0 -662 -420q-201 -207 -295.5 -287.5t-188.5 -128.5q80 20 273 20q72 0 115 -4q52 81 235 333q157 217 196 299q8 15 19 15q12 0 12 -8q0 -2 -2 -7l-11 -20q-12 -25 -141 -257.5t-191 -361.5q53 -3 106 -3
q102 0 165.5 44.5t63.5 115.5q0 26 -15 56q-2 5 -2 11q0 11 13 11q30 0 30 -78q0 -205 -385 -205q-86 -186 -106 -310q-44 15 -79 15q-46 0 -110 -14q56 150 165 309q-12 0 -97 8q-117 13 -173 13q-55 0 -120 -9q-119 -75 -194 -75q-23 0 -23 14q0 38 197 77q135 81 226 160
q88 74 295 287q418 428 684 428q38 0 76.5 -11t38.5 -24z" />
    <glyph glyph-name="five" unicode="5" horiz-adv-x="978" 
d="M1320 1100q0 -65 -59.5 -114.5t-136.5 -49.5q-57 0 -138 28.5t-122 28.5q-51 0 -77 -65q-57 -155 -137 -264q65 30 151 30q138 0 230 -78t92 -194q0 -171 -190.5 -307.5t-430.5 -136.5q-128 0 -209 57.5t-81 148.5q0 104 103.5 175t257.5 71q93 0 93 -16q-4 -8 -13 -8
q-12 0 -35.5 2t-36.5 2q-130 0 -214 -67.5t-84 -174.5q0 -79 54.5 -123.5t147.5 -44.5q180 0 351 151t171 312q0 95 -62.5 150t-166.5 55q-70 0 -153 -32q-107 -136 -150 -136q-19 0 -19 14q0 40 148 127q175 234 175 403q0 19 -2 25t-2 12q0 17 19 17q20 0 20 -37
q0 -29 -3 -41q36 61 133 61q39 0 195 -53q53 -18 81 -18q27 0 49 21t22 50q0 9 -4 19t-4 14q0 16 17 16q20 0 20 -30z" />
    <glyph glyph-name="six" unicode="6" horiz-adv-x="978" 
d="M1338 1169q0 -14 -27 -14h-18q-175 0 -435.5 -252.5t-355.5 -469.5q53 85 188 185.5t256 100.5q105 0 169 -63t64 -162q0 -178 -196.5 -348t-404.5 -170q-117 0 -185 74t-68 196q0 181 150 380t419 378q110 72 235 126t184 54q25 0 25 -15zM1079 567q0 131 -143 131
q-154 0 -332.5 -184.5t-178.5 -349.5q0 -77 37.5 -122.5t98.5 -45.5q152 0 335 201t183 370z" />
    <glyph glyph-name="seven" unicode="7" horiz-adv-x="978" 
d="M1326 1124q0 -45 -50 -128q-38 -65 -78 -109q-47 -51 -207 -209q-401 -392 -417 -688q-55 12 -99 12q-39 0 -86 -13q36 202 181 378t471 421q173 132 193 172q-25 -36 -175 -36q-76 0 -199 45t-156 45q-28 0 -53 -15l-5 -11q-80 -158 -120 -158q-19 0 -19 16
q0 52 117 156q22 45 22 77q0 13 -6 33v4q0 16 19 16t19 -24q0 -37 -14 -74q62 51 147 51q51 0 203 -52q85 -28 139 -28q132 0 132 95q0 8 -2 18v6q0 21 21 21q22 0 22 -21z" />
    <glyph glyph-name="eight" unicode="8" horiz-adv-x="978" 
d="M1341 930q0 -178 -421 -303q90 -85 122.5 -140t32.5 -122q0 -151 -153.5 -270t-349.5 -119q-140 0 -228 63.5t-88 167.5q0 122 120.5 213t401.5 185q-98 96 -98 183q0 118 131 216t292 98q101 0 169.5 -50t68.5 -122zM1260 961q0 52 -45.5 86t-111.5 34
q-124 0 -218.5 -72t-94.5 -167q0 -55 40 -112q17 -22 77 -88q158 55 255.5 142t97.5 177zM958 301q0 84 -55 161q-13 22 -112 128q-443 -162 -443 -418q0 -176 222 -176q159 0 273.5 89.5t114.5 215.5z" />
    <glyph glyph-name="nine" unicode="9" horiz-adv-x="978" 
d="M1267 819q0 -171 -154 -368t-417 -366q-118 -74 -249 -126.5t-201 -52.5q-23 0 -23 14q0 18 32 18h14q178 0 445 240.5t365 446.5q-52 -76 -197 -173.5t-267 -97.5q-100 0 -159 60t-59 159q0 180 207 340q98 79 216.5 128.5t204.5 49.5q108 0 175 -76t67 -196zM1167 905
q0 166 -140 166q-150 0 -341 -203t-191 -366q0 -125 130 -125q87 0 210.5 73.5t213.5 179.5q118 141 118 275z" />
    <glyph glyph-name="colon" unicode=":" horiz-adv-x="456" 
d="M542 410q0 -46 -42.5 -88.5t-89.5 -42.5q-50 0 -50 49q0 42 43.5 84.5t92.5 42.5q46 0 46 -45zM362 117q0 -46 -42.5 -88.5t-89.5 -42.5q-50 0 -50 49q0 42 44.5 84.5t91.5 42.5q46 0 46 -45z" />
    <glyph glyph-name="semicolon" unicode=";" horiz-adv-x="456" 
d="M522 418q0 -46 -42.5 -88.5t-89.5 -42.5q-50 0 -50 47q0 44 43.5 86.5t92.5 42.5q46 0 46 -45zM325 121q0 -69 -75 -150q-28 -30 -75.5 -61t-69.5 -31q-13 0 -13 10t12 13q39 13 72 39.5t33 46.5q0 2 -4 2q-52 0 -52 47q0 40 42.5 85.5t81.5 45.5q48 0 48 -47z" />
    <glyph glyph-name="less" unicode="&#x3c;" horiz-adv-x="1071" 
d="M1271 273l-901 387v47l901 386v-53l-836 -358l836 -356v-53z" />
    <glyph glyph-name="equal" unicode="=" horiz-adv-x="733" 
d="M747 272q0 -14 -85 -40.5t-129 -26.5q-42 0 -86 10q-50 12 -76 12q-39 0 -75 -18q-3 -4 -11 -4q-11 0 -11 8q0 14 80.5 42t116.5 28q22 0 88 -15q55 -12 78 -12q45 0 84 19q8 5 15 5q11 0 11 -8zM816 454q0 -14 -84.5 -40.5t-129.5 -26.5q-42 0 -86 10q-50 12 -76 12
q-39 0 -75 -19q-3 -3 -11 -3q-11 0 -11 8q0 14 81 42t116 28q22 0 88 -15q55 -12 78 -12q45 0 84 19q9 5 15 5q11 0 11 -8z" />
    <glyph glyph-name="greater" unicode="&#x3e;" horiz-adv-x="1071" 
d="M1367 660l-901 -387v53l836 356l-836 358v53l901 -386v-47z" />
    <glyph glyph-name="question" unicode="?" horiz-adv-x="892" 
d="M1267 909q0 -158 -192 -279q-71 -43 -338 -146q-271 -103 -271 -214q0 -47 47 -47q85 0 163 114q6 9 17 9q9 -4 9 -10q0 -18 -58 -72q-70 -63 -131 -63q-75 0 -75 67q0 55 65 113q31 27 58 44q37 24 170 98q420 234 420 458q0 161 -182 181q7 -34 7 -70
q0 -178 -142.5 -340t-302.5 -162q-69 0 -115 44.5t-46 108.5q0 165 179.5 302t384.5 137q-48 114 -161 114q-39 0 -74 -13q-10 -5 -15 -5q-13 4 -13 10q0 10 37 20.5t65 10.5q134 0 190 -137q131 -9 217.5 -86t86.5 -187zM491 117q0 -46 -42.5 -88.5t-89.5 -42.5
q-50 0 -50 49q0 42 44.5 84.5t91.5 42.5q46 0 46 -45zM950 1092q0 36 -9 71q-191 0 -365 -164q-161 -150 -161 -282q0 -105 114 -105q139 0 280 160.5t141 319.5z" />
    <glyph glyph-name="at" unicode="@" horiz-adv-x="1400" 
d="M1658 680q0 -171 -142.5 -324t-308.5 -153q-136 0 -136 129q0 55 -24 15q-31 -42 -84 -91t-109 -49q-57 0 -94 47.5t-37 118.5q0 194 273 341q123 66 196 66q69 0 69 -63q0 -17 4 0l30 57q32 -10 57 -10q28 0 79 10l-180 -300q-93 -152 -93 -204q0 -45 55 -45
q62 0 144 46q120 67 190.5 179.5t70.5 237.5q0 155 -130.5 262t-317.5 107q-254 0 -467.5 -224t-213.5 -491q0 -171 152.5 -295.5t360.5 -124.5q165 0 255 52q12 7 23 7q14 0 14 -10q-2 -29 -101.5 -55t-196.5 -26q-252 0 -423.5 158t-171.5 388q0 263 225 458t530 195
q222 0 362 -114t140 -295zM1232 713q0 45 -38 45q-88 0 -236 -179t-148 -288q0 -62 51 -62q65 0 233 228q138 187 138 256z" />
    <glyph glyph-name="A" unicode="A" horiz-adv-x="1951" 
d="M2964 1196q0 -22 -27 -22q-15 0 -70 12q-105 24 -176 24q-165 -52 -281.5 -187t-284.5 -469q-241 -477 -598 -559q57 -9 116 -9q178 0 303 116q74 70 200 239q13 17 25 17q9 -4 9 -10q0 -15 -116 -154q-106 -133 -195 -182t-220 -49q-75 0 -177 21q-68 -21 -149 -21
q-64 0 -64 25q0 28 85 28q52 0 127 -10q148 34 229.5 122t300.5 452h-371q-559 -619 -973 -619q-190 0 -300 106t-110 283q0 218 169 413.5t418 271.5q84 163 254.5 270.5t347.5 107.5q105 0 167.5 -53.5t62.5 -145.5q0 -69 -47 -162q-43 -83 -43 -114q0 -70 79 -70
q96 0 200 145q10 15 21 15q15 0 15 -12q0 -11 -48 -66q-96 -108 -188 -108q-62 0 -99 42.5t-37 108.5q0 62 65 182q31 54 31 95q0 50 -53.5 83.5t-129.5 33.5q-159 0 -318.5 -99.5t-238.5 -242.5q62 14 120 14q152 0 237.5 -79.5t85.5 -217.5q0 -33 -2 -43q67 52 113 160
q3 14 15 14q15 0 15 -14q0 -30 -46.5 -92t-102.5 -108q-35 -193 -207.5 -346t-354.5 -153q-101 0 -166 64t-65 159q0 115 74.5 226.5t194.5 180.5q-2 24 -2 36q0 72 31 150q-198 -73 -348.5 -273t-150.5 -404q0 -150 93 -240.5t246 -90.5q180 0 357.5 123.5t494.5 468.5
q-125 0 -194 -2l19 28q100 0 198 -2q291 324 568 474.5t586 154.5q66 14 134 14q146 0 146 -51zM2596 1204q-213 -12 -434 -146t-511 -454h365q124 216 306 396.5t274 203.5zM1271 786q0 114 -73.5 181t-193.5 67q-72 0 -146 -25q-40 -89 -40 -181q98 50 151 50q17 0 17 -10
q0 -11 -42 -20q-56 -13 -124 -48q34 -196 227 -196q97 0 208 70q16 57 16 112zM1241 635q-95 -55 -199 -55q-103 0 -170.5 56.5t-82.5 145.5q-101 -61 -169 -164.5t-68 -205.5q0 -94 53.5 -149.5t140.5 -55.5q140 0 283.5 126.5t211.5 301.5z" />
    <glyph glyph-name="B" unicode="B" horiz-adv-x="1902" 
d="M2477 1049q0 -164 -38 -164q-13 4 -13 12q0 4 2 16q17 66 17 123q0 126 -74.5 201.5t-195.5 75.5q-142 0 -300 -101q154 -113 154 -249q0 -104 -82.5 -176.5t-206.5 -91.5q240 -72 240 -318q0 -173 -148.5 -303.5t-348.5 -130.5q-97 0 -155.5 49.5t-58.5 130.5
q0 130 117.5 256.5t242.5 126.5q69 0 113.5 -42.5t44.5 -103.5q0 -41 -25.5 -101t-46.5 -60q-14 0 -14 12q0 5 12 19q44 62 44 128q0 53 -37.5 88t-90.5 35q-109 0 -218 -119t-109 -243q0 -63 45.5 -105.5t111.5 -42.5q147 0 274.5 148t127.5 323q0 197 -168 246
q-51 -8 -114 -8q-72 0 -72 18q0 23 72 23q46 0 121 -15q96 22 160.5 105t64.5 190q0 112 -84 188q-120 -91 -212 -229t-241 -457q-76 -162 -177.5 -265t-257.5 -182q-203 -101 -371 -101q-159 0 -254 81.5t-95 215.5q0 119 88 244q-4 16 -4 39q0 306 329.5 560.5
t730.5 254.5q285 0 473 -121q175 110 329 110q131 0 214.5 -82t83.5 -208zM1816 1208q-156 115 -437 115q-348 0 -645 -230t-351 -523q98 101 250 142q80 138 205.5 225t247.5 87q76 0 123.5 -47.5t47.5 -122.5q0 -183 -186 -391q-221 -248 -452 -248q-118 0 -195.5 67
t-97.5 170q-61 -94 -61 -198q0 -126 85.5 -200.5t227.5 -74.5q183 0 331 112t313 377q193 311 323.5 474.5t270.5 265.5zM1224 854q0 63 -37.5 104.5t-90.5 41.5q-91 0 -194 -75t-179 -195q3 1 33 1q93 0 150.5 -42.5t57.5 -113.5q0 -32 -15 -32q-16 0 -16 24
q2 65 -48 102.5t-135 37.5q-11 0 -44 -3q-70 -124 -70 -215q0 -42 22 -69t53 -27q2 0 6 2h8q14 0 14 -10q0 -14 -28 -14q-55 0 -91.5 49.5t-36.5 120.5q0 69 35 141q-133 -40 -242 -165v-30q0 -113 66 -180t177 -67q242 0 459 277q146 189 146 337z" />
    <glyph glyph-name="C" unicode="C" horiz-adv-x="1632" 
d="M1931 1110q0 -64 -90 -136q81 -126 81 -222q0 -29 -21 -29q-19 0 -19 37q-2 98 -65 195q-143 -104 -392 -182.5t-444 -78.5q-26 0 -43 2q-156 -219 -156 -426q0 -136 83.5 -215.5t212.5 -83.5q-77 81 -77 217q0 202 178.5 376.5t389.5 174.5q206 0 206 -213
q0 -210 -193 -386.5t-433 -191.5q73 -59 201 -59q136 0 248 86q12 11 22 11q14 0 14 -11q0 -28 -108 -69t-176 -41q-146 0 -245 80q-111 2 -191 38q-109 46 -176 152.5t-67 226.5q0 166 117 346q-202 34 -316 123.5t-114 221.5q0 158 161.5 264t406.5 106q341 0 680 -222
q56 11 115 11q210 0 210 -102zM1900 1110q0 78 -153 78q-54 0 -107 -12q105 -74 186 -181q74 61 74 115zM1803 978q-74 110 -201 191q-178 -46 -356.5 -171.5t-288.5 -278.5h14q192 0 437 76t395 183zM1563 1194q-296 170 -633 170q-210 0 -366.5 -99t-156.5 -231
q0 -230 394 -306q249 350 762 466zM1736 551q0 77 -42.5 119.5t-116.5 42.5q-166 0 -338.5 -187t-172.5 -372q0 -114 57 -183q203 0 408 192t205 388z" />
    <glyph glyph-name="D" unicode="D" horiz-adv-x="1734" 
d="M2582 1028q0 -51 -12.5 -109.5t-29.5 -58.5q-13 0 -13 10q0 7 2 13q23 61 23 143q0 126 -74.5 200.5t-197.5 74.5q-239 0 -462 -226q86 -160 86 -338q0 -328 -253.5 -558t-619.5 -230q-114 0 -307 31q-169 -31 -324 -31q-271 0 -271 57q0 29 67.5 49.5t154.5 20.5
q105 0 414 -68q204 56 322 171t359 500q148 235 321 398q-143 242 -466 242q-334 0 -614 -264q-142 -132 -226.5 -293.5t-84.5 -298.5q0 -106 69.5 -170t182.5 -64q190 0 389 210.5t199 414.5q0 65 -37 105.5t-93 40.5q-137 0 -294 -177t-157 -336q0 -102 87 -100
q19 0 19 -10q0 -12 -25 -12q-62 0 -98 48.5t-36 125.5q0 164 166 324.5t338 160.5q74 0 118.5 -48.5t44.5 -125.5q0 -212 -208.5 -429.5t-412.5 -217.5q-148 0 -241.5 93.5t-93.5 238.5q0 172 115 349t305 295q266 166 594 166q329 0 491 -238q239 220 495 220
q131 0 210 -83.5t79 -215.5zM1835 813q0 119 -48 227q-126 -144 -233 -377q-141 -308 -292 -446q-156 -138 -447 -220q110 -24 253 -24q378 0 613 368q154 239 154 472zM662 -10q-251 35 -385 35q-114 0 -114 -19q0 -31 256 -31q150 0 243 15z" />
    <glyph glyph-name="E" unicode="E" horiz-adv-x="1785" 
d="M2199 1120q0 -71 -130 -71q-81 0 -139 11t-319 78q-164 -92 -164 -239q0 -69 42 -96q53 8 107 8q111 0 111 -29q0 -20 -64 -20t-149 20q-88 -12 -202 -61q-21 -128 -139 -233.5t-266 -128.5q-19 -66 -19 -121q0 -188 185 -235q-33 52 -33 132q0 200 202.5 367.5
t447.5 167.5q109 0 177.5 -56t68.5 -147q0 -196 -216 -354t-487 -158q-54 0 -89 4q84 -119 273 -119q109 0 186 35l16 2q12 -4 12 -12q0 -18 -75.5 -33.5t-138.5 -15.5q-213 0 -324 152q-328 74 -328 313q0 34 7 69q-192 4 -315.5 112t-123.5 277q0 225 194.5 373.5
t486.5 148.5q210 0 550 -78q136 64 320 64q139 0 237 -37t98 -90zM2164 1120q0 37 -80 66t-185 29q-139 0 -254 -59q265 -81 432 -81q87 0 87 45zM1884 475q0 71 -55.5 116.5t-140.5 45.5q-212 0 -415 -176.5t-203 -362.5q0 -55 33 -107q54 -10 102 -10q232 0 455.5 162.5
t223.5 331.5zM1509 1165q-240 50 -409 50q-308 0 -522 -149t-214 -368q0 -138 111.5 -227.5t282.5 -95.5q40 128 179 235.5t324 152.5q2 9 2 23q0 106 -75 183t-197 96q-14 6 -14 12q0 14 21 14q31 0 87.5 -23t89.5 -48q121 -91 121 -248q73 16 157 27q-102 43 -102 145
q0 135 158 221zM1253 704q-278 -124 -356 -317q126 24 228.5 115t127.5 202z" />
    <glyph glyph-name="F" unicode="F" horiz-adv-x="1495" 
d="M2717 1167q0 -51 -101 -86.5t-242 -35.5q-181 0 -439 55q-216 -101 -408 -442q49 -9 86 -12q56 126 165 126q79 0 79 -59q0 -99 -195 -101q-54 -119 -92 -149q-57 -45 -97 -45q-16 0 -19 10q0 9 17 12q66 20 130 181q0 -3 -32 2l-57 9q-169 -303 -221 -367
q-111 -138 -294.5 -225t-369.5 -87q-197 0 -318 101t-121 268q0 175 142.5 330.5t351.5 206.5q213 309 546 382q-75 107 -226 107q-254 0 -459 -248q-18 -19 -24 -19q-13 0 -16 11q0 19 85 98q197 182 410 182q185 0 270 -124q97 26 242 26q91 0 165 -13.5t358 -82.5
q222 86 421 86q117 0 190 -27t73 -70zM2685 1165q0 29 -63.5 50.5t-153.5 21.5q-215 0 -387 -72q3 0 123 -26q175 -39 305 -39q72 0 124 19.5t52 45.5zM1824 713q0 37 -42 37q-41 0 -70 -36q-11 -17 -40 -75q152 0 152 74zM1275 1077q0 68 -30 130q-142 -15 -282.5 -107
t-239.5 -233q51 11 109 11q235 0 303 -187q140 189 140 386zM1897 1109q-111 30 -356 85q-108 21 -205 21q-33 0 -49 -1q39 -79 39 -184q0 -218 -174 -417v-38q0 -173 -154 -325t-332 -152q-98 0 -164 68.5t-66 167.5q0 156 158 273q0 110 61 209q-164 -59 -283 -218
t-119 -334q0 -120 99.5 -202.5t239.5 -82.5q273 0 484 228q104 111 255 343q39 59 67 100q-8 1 -23 1q-45 0 -89.5 -24.5t-57.5 -57.5q-5 -18 -17 -18q-15 0 -15 12q0 40 58 77.5t123 37.5q23 0 39 -3q102 148 237.5 269.5t243.5 164.5zM1112 662q-55 190 -276 190
q-62 0 -137 -21q-71 -118 -73 -205q103 62 210 62q56 0 107.5 -30t51.5 -62q0 -10 -14 -10q-11 0 -25 23q-33 55 -106 55q-97 0 -218 -96q28 -120 143 -120q168 0 337 214zM1119 580q-154 -160 -334 -160q-145 0 -180 124q-112 -107 -112 -239q0 -83 49.5 -131.5
t131.5 -48.5t173.5 50t162.5 131q102 119 109 274z" />
    <glyph glyph-name="G" unicode="G" horiz-adv-x="1503" 
d="M1879 926q0 -26 -78 -117.5t-156 -159.5q-73 -115 -103.5 -185.5t-82.5 -236.5q-61 -197 -150.5 -312.5t-252.5 -206.5q-233 -130 -480 -130q-211 0 -339.5 114t-128.5 296q0 155 97 295.5t264.5 227.5t313.5 87h13q0 18 13 77q-9 -1 -35 -1q-164 0 -261.5 72t-97.5 192
q0 206 233.5 365t535.5 159q241 0 391 -118q103 38 154 38q103 0 103 -84q0 -74 -113 -185q9 -54 9 -91q0 -109 -64 -232q-20 -40 -33 -40q-14 0 -14 10q0 4 4 11q74 120 74 255q0 41 -3 64q-157 -139 -362.5 -249t-390.5 -150q-29 -51 -46 -102q255 -47 261 -302
q183 42 479 388q65 102 133.5 181.5t97.5 79.5q12 0 15 -10zM1800 1296q0 62 -69 62q-58 0 -130 -36q84 -72 111 -178q88 84 88 152zM1687 1121q-27 117 -113 190q-172 -87 -348.5 -255t-270.5 -336q165 37 367.5 147.5t364.5 253.5zM1546 1334q-127 100 -358 100
q-277 0 -508.5 -154.5t-231.5 -339.5q0 -114 90 -177t251 -63h29q116 381 728 634zM1122 277q0 115 -64.5 191t-168.5 96q-13 -50 -13 -97q0 -87 54.5 -141t138.5 -54q22 0 53 5zM1521 510q-184 -202 -367 -252q-12 -202 -168 -359t-351 -157q-114 0 -187.5 70t-73.5 178
q0 132 108 242t241 110q39 0 80.5 -19.5t41.5 -39.5q-3 -11 -13 -11q-8 0 -16 9q-40 34 -91 34q-100 0 -199 -113t-99 -231q0 -95 57 -150t155 -55q158 0 304 134q160 146 179 351q-29 -5 -49 -5q-126 0 -202.5 89.5t-76.5 233.5q-241 -16 -428 -208t-187 -433
q0 -144 105.5 -232.5t276.5 -88.5q233 0 425 166t445 590q78 132 90 147z" />
    <glyph glyph-name="H" unicode="H" horiz-adv-x="1914" 
d="M2962 1075q0 -161 -196 -271q-86 -48 -120 -48q-15 0 -15 12q0 8 33 19q110 43 181 124t71 166q0 79 -54 127.5t-138 48.5q-358 0 -628 -539q-184 -365 -312 -514.5t-308 -213.5q79 -11 119 -11q181 0 304 117q104 99 200 239q13 17 25 17q9 -4 9 -10q0 -11 -68 -97.5
t-109 -129.5q-85 -91 -162.5 -124.5t-193.5 -33.5q-67 0 -178 16l-7 -2l-39 -10q-31 -8 -84 -8q-58 0 -58 26q0 29 89 29q50 0 114 -12q122 55 191 144q63 80 225 383l14 26h-373q-107 -190 -168.5 -264t-181.5 -156q-254 -176 -493 -176q-186 0 -295 106t-109 287
q0 321 334 566q41 207 232.5 361t411.5 154q99 0 156.5 -50.5t57.5 -137.5q0 -64 -44 -151t-44 -121q0 -30 22 -50t52 -20q57 0 121 53q54 46 90 108q6 9 15 9q15 0 15 -12q0 -24 -60 -88q-91 -97 -176 -97q-62 0 -101.5 42.5t-39.5 103.5q0 49 43 136q52 101 52 142
q0 50 -46.5 79.5t-120.5 29.5q-192 0 -374.5 -145t-222.5 -320q182 121 369 121q150 0 231 -81.5t81 -228.5q0 -83 -32 -172h104q175 282 294 410q136 144 275 204q49 21 57 21q13 0 13 -12q0 -8 -24 -17q-121 -47 -218.5 -171t-261.5 -435h375q188 333 407.5 519t431.5 186
q107 0 173.5 -57t66.5 -146zM1255 784q0 112 -71.5 179t-184.5 67q-201 0 -390 -161q-2 -15 -2 -35q0 -74 41 -133q49 53 122 102t109 49q12 0 15 -10q0 -8 -36 -24q-110 -47 -193 -140q64 -72 164 -72q89 0 180 50.5t145 126.5q3 9 13 9q16 0 16 -12q0 -21 -65 -80
q-133 -118 -291 -118q-110 0 -181 71q-98 -128 -98 -247q0 -96 53.5 -151.5t139.5 -55.5q239 0 445 348q-66 -2 -138 -2l12 28h68q23 -2 73 -2q54 109 54 213zM1356 545h-102q-81 -160 -225.5 -266.5t-287.5 -106.5q-100 0 -164 64t-64 163q0 137 113 279q-51 69 -51 151v11
q-112 -102 -184.5 -244.5t-72.5 -278.5q0 -156 89 -248t238 -92q218 0 394 156q77 68 137 147q36 49 171 251z" />
    <glyph glyph-name="I" unicode="I" horiz-adv-x="1472" 
d="M2262 1323q0 -18 -85 -55.5t-191 -66.5q-135 -99 -250 -249t-255 -410q5 -1 20 -1q118 0 219.5 73t123.5 179q5 20 18 20t13 -12q0 -61 -67 -140q-51 -63 -137 -104t-170 -41q-14 0 -32 2q-90 -165 -114 -201.5t-73 -91.5q-116 -126 -289.5 -200t-345.5 -74
q-197 0 -317 101t-120 267q0 212 200.5 383.5t447.5 171.5q143 0 228.5 -79t85.5 -211q0 -182 -151 -335t-333 -153q-98 0 -164 68t-66 168q0 136 122 244t280 108q53 0 104 -27.5t51 -58.5q0 -10 -16 -10q-6 0 -14 9q-42 63 -115 63q-127 0 -242 -113.5t-115 -241.5
q0 -85 49.5 -133.5t133.5 -48.5q160 0 302 148t142 315q0 115 -77.5 188.5t-196.5 73.5q-227 0 -408 -178.5t-181 -407.5q0 -124 98.5 -204.5t249.5 -80.5q299 0 536 298q51 64 191 273q-171 73 -171 240q0 201 228 300q110 49 362 92q93 16 154 28l47 9q52 39 141 79.5
t125 40.5q24 0 24 -14zM1931 1186l-45 -10q-37 -9 -108 -27q-242 -56 -385 -168t-143 -244q0 -117 115 -170q261 416 566 619z" />
    <glyph glyph-name="J" unicode="J" horiz-adv-x="1466" 
d="M2251 1389q0 -19 -83 -56.5t-185 -65.5q-178 -153 -291 -315t-254 -469q133 -4 240.5 76.5t130.5 208.5q2 20 19 20q15 0 15 -14q0 -59 -43 -128q-117 -185 -377 -185l-12 -24l-86 -167q37 -82 37 -166q0 -218 -182.5 -375t-437.5 -157q-133 0 -240 54q-66 -15 -130 -15
q-173 0 -277.5 89.5t-104.5 238.5q0 240 258 412q122 80 278.5 129.5t293.5 49.5q239 0 414 -148l55 101q-99 32 -158.5 111t-59.5 182q0 179 153 303q90 73 180 101t329 59q140 18 242 46q186 118 252 118q24 0 24 -14zM1921 1250q-42 -11 -153 -35q-183 -41 -280 -81.5
t-178 -109.5q-171 -144 -171 -307q0 -148 161 -211q183 320 316.5 478.5t304.5 265.5zM1331 109q0 67 -24 129q-245 -458 -767 -601q92 -41 209 -41q238 0 410 151.5t172 361.5zM1221 355q-172 147 -390 147q-286 0 -526 -189t-240 -413q0 -263 327 -263q38 0 76 7
q-179 107 -179 282q0 149 138 263t320 114q63 0 130 -21.5t67 -43.5q0 -13 -15 -13q-8 0 -14 6q-65 46 -162 46q-148 0 -272.5 -121.5t-124.5 -270.5q0 -144 151 -232q377 86 714 702z" />
    <glyph glyph-name="K" unicode="K" horiz-adv-x="1949" 
d="M2981 1108q0 -178 -233 -290q-65 -31 -88 -31q-15 0 -15 10q0 11 12 14q125 40 202 121t77 174q0 79 -55.5 127.5t-142.5 48.5q-116 0 -224 -66.5t-265 -236.5q-275 -297 -511 -320q86 -48 86 -182q0 -61 -50 -250q-22 -86 -22 -125q0 -70 42.5 -114.5t108.5 -44.5
q60 0 106 36q16 13 23 13q13 0 13 -10q0 -21 -51.5 -43.5t-94.5 -22.5q-103 0 -175 84.5t-72 200.5q0 73 57 239q29 82 29 129q0 55 -35 88q-33 -4 -58 -4q-81 0 -81 23q0 18 48 18q43 0 91 -18q97 18 179 73.5t240 215.5q185 186 329 266t291 80q104 0 171.5 -58t67.5 -145
zM2012 1196q0 -8 -23 -17q-128 -52 -223.5 -176.5t-283.5 -481.5q-86 -164 -172.5 -258.5t-223.5 -175.5q-231 -138 -435 -138q-186 0 -295 106t-109 287q0 325 334 566q37 205 230.5 360t413.5 155q99 0 156.5 -50.5t57.5 -137.5q0 -64 -44 -151t-44 -119q0 -30 22 -50
t52 -20q49 0 110 44t98 111q9 13 18 13q15 0 15 -12q0 -22 -60 -86q-91 -97 -176 -97q-62 0 -101.5 41.5t-39.5 102.5q0 51 43 138q52 101 52 140q0 50 -46.5 79.5t-120.5 29.5q-190 0 -372.5 -144t-224.5 -319q180 119 373 119q144 0 226 -82.5t82 -224.5
q0 -206 -179.5 -391t-380.5 -185q-100 0 -164 64t-64 163q0 139 113 279q-51 69 -51 153v9q-110 -98 -183.5 -243.5t-73.5 -281.5q0 -156 89 -247t238 -91q214 0 394 158q90 80 147.5 157.5t223.5 343.5q210 335 402 474q39 30 105 64t82 34q13 0 13 -12zM1255 788
q0 110 -73.5 176t-190.5 66q-189 0 -382 -159q-2 -17 -2 -37q0 -79 41 -131q51 53 123 101t108 48q12 0 15 -10q0 -8 -36 -24q-114 -49 -193 -140q64 -72 162 -72q90 0 180.5 50.5t147.5 130.5q6 8 12 8q16 0 16 -13q0 -21 -65 -79q-131 -121 -291 -121q-110 0 -181 73
q-98 -124 -98 -252q0 -91 53.5 -147.5t137.5 -56.5q175 0 345.5 194t170.5 395z" />
    <glyph glyph-name="L" unicode="L" horiz-adv-x="1488" 
d="M2070 1264q0 -73 -175 -275.5t-340 -322.5q-124 -272 -258.5 -399t-348.5 -183q383 -103 461.5 -120t149.5 -17q100 0 183 73q10 7 17 7q12 -5 12 -9q0 -17 -56 -56q-100 -68 -289 -68q-139 0 -266 26.5t-387 108.5q-163 -33 -343 -33q-320 0 -320 100q0 94 247 94
q187 0 554 -96q106 42 190.5 125t193.5 247q-268 -232 -529 -232q-180 0 -286 105.5t-106 283.5q0 273 257.5 517t548.5 244q136 0 216 -70t80 -188q0 -207 -194 -426t-383 -219q-88 0 -141.5 61t-53.5 158q0 169 149 322t315 153q65 0 104.5 -37t39.5 -96q0 -79 -28 -79
q-15 0 -15 10q0 2 4 12q8 23 8 51q0 50 -30 80.5t-77 30.5q-133 0 -275 -166.5t-142 -323.5q0 -68 40.5 -108.5t105.5 -40.5q166 0 353 212.5t187 405.5q0 102 -69 167t-178 65q-258 0 -499 -264t-241 -549q0 -134 84.5 -209.5t231.5 -75.5q129 0 255.5 64t314.5 221
q157 263 226 362.5t165 200.5q186 196 289 196q48 0 48 -40zM2039 1264q0 18 -17 18q-70 0 -197 -148q-114 -136 -245 -415q147 121 303 302.5t156 242.5zM725 44q-336 106 -461 106q-124 0 -124 -54q0 -74 301 -74q164 0 284 22z" />
    <glyph glyph-name="M" unicode="M" horiz-adv-x="2152" 
d="M2764 1270q0 -5 -30 -22q-117 -62 -204.5 -177.5t-202.5 -358.5q-165 -353 -296.5 -506.5t-313.5 -217.5q74 -11 120 -11q147 0 251 74t250 282q13 17 25 17q9 -4 9 -10q0 -13 -115 -155q-107 -132 -196 -181t-220 -49q-101 0 -174 18q-61 -22 -137 -22q-60 0 -60 24
q0 29 80 29q26 0 110 -10h9q104 38 176.5 119t175.5 277q208 397 329.5 560.5t288.5 273.5q86 56 112 56q13 0 13 -10zM3243 1001q0 -118 -34 -118q-13 0 -13 10l2 8q15 33 15 94q0 132 -103.5 223t-254.5 91q-242 0 -500 -240q-100 -94 -172 -179q-68 -78 -283 -365
q-307 -406 -503 -508q-90 -46 -117 -46q-13 0 -13 11q0 3 22 18q100 76 154.5 192t196.5 537q123 370 272 519q4 4 4 6l1 -1q-6 0 -47 -43q-151 -156 -349 -531q-125 -238 -219 -359t-224 -213q-219 -158 -441 -158q-176 0 -283 109t-107 284q0 321 334 566
q41 207 232.5 361t411.5 154q99 0 156.5 -50.5t57.5 -137.5q0 -64 -44 -151t-44 -119q0 -30 22 -50t52 -20q90 0 204 165q4 7 14 7q15 0 15 -12q0 -24 -59 -88q-88 -99 -171 -99q-60 0 -99.5 41.5t-39.5 102.5q0 51 43 138q52 101 52 140q0 50 -46.5 79.5t-120.5 29.5
q-192 0 -375.5 -145t-221.5 -318q184 119 369 119q148 0 230 -81.5t82 -225.5q0 -206 -179.5 -391t-380.5 -185q-100 0 -164 64t-64 161q0 136 113 281q-51 69 -51 153v9q-112 -100 -184.5 -243.5t-72.5 -281.5q0 -154 89 -247t234 -93q262 0 516 275q99 105 170 211.5
t278 452.5q89 146 200.5 268t162.5 122q13 0 13 -10q0 -5 -13 -19q-87 -107 -159 -374q-114 -423 -211 -606.5t-256 -282.5v4q-1 0 1 -2q18 0 104 62q108 80 198 181q94 111 328 434q169 234 267.5 340t224.5 191q190 128 380 128q175 0 286.5 -98t111.5 -251zM1255 788
q0 110 -72.5 176t-187.5 66q-197 0 -386 -159q-2 -17 -2 -37q0 -74 41 -131q51 53 123 101t108 48q12 0 15 -10q0 -8 -36 -24q-112 -47 -193 -140q64 -72 164 -72q88 0 178.5 50.5t147.5 130.5q6 8 12 8q16 0 16 -13q0 -21 -65 -79q-131 -121 -291 -121q-110 0 -181 73
q-98 -128 -98 -252q0 -91 53.5 -147.5t137.5 -56.5q175 0 345.5 194t170.5 395z" />
    <glyph glyph-name="N" unicode="N" horiz-adv-x="1933" 
d="M3259 987q0 -90 -25 -90q-15 0 -15 12q0 4 4 14.5t4 65.5q0 130 -97.5 215.5t-243.5 85.5q-297 0 -601 -388q-89 -117 -371 -588q-82 -139 -166.5 -244t-117.5 -105q-21 0 -21 19q0 20 48 44q85 42 85 197q0 37 -4 107q-10 172 -10 307q0 215 42 352.5t139 247.5q5 3 5 4
h3q-10 0 -76 -67q-102 -104 -296 -454q-133 -242 -195 -331t-154 -178q-274 -264 -567 -264q-170 0 -276 110t-106 283q0 321 334 566q41 207 232.5 361t411.5 154q99 0 156.5 -50.5t57.5 -137.5q0 -64 -44 -151t-44 -119q0 -30 22 -50t52 -20q90 0 204 165q4 7 14 7
q15 0 15 -12q0 -24 -59 -88q-88 -99 -171 -99q-60 0 -99.5 41.5t-39.5 102.5q0 51 43 138q52 101 52 140q0 50 -46.5 79.5t-120.5 29.5q-192 0 -375.5 -145t-221.5 -318q184 119 369 119q148 0 230 -81.5t82 -225.5q0 -206 -179.5 -391t-380.5 -185q-100 0 -164 64t-64 161
q0 136 113 281q-51 69 -51 153v9q-112 -100 -184.5 -243.5t-72.5 -281.5q0 -150 89 -245t228 -95q225 0 425 177t455 607q210 352 336 463q88 76 115 76q11 0 11 -8q0 -3 -13 -19q-63 -84 -79 -180t-22 -407q-9 -385 -97 -549v2q0 -1 -1 0q10 0 196 329q172 303 237 401.5
t155 197.5q248 268 524 268q168 0 275 -97.5t107 -248.5zM1255 788q0 110 -72.5 176t-187.5 66q-197 0 -386 -159q-2 -17 -2 -37q0 -77 41 -131q51 53 123 101t108 48q12 0 15 -10q0 -8 -36 -24q-112 -47 -193 -140q60 -72 164 -72q88 0 178.5 50.5t147.5 130.5q6 8 12 8
q16 0 16 -13q0 -21 -65 -79q-131 -121 -291 -121q-110 0 -181 73q-98 -128 -98 -252q0 -91 53.5 -147.5t137.5 -56.5q175 0 345.5 194t170.5 395z" />
    <glyph glyph-name="O" unicode="O" horiz-adv-x="1583" 
d="M1834 836q0 -166 -92.5 -337.5t-258.5 -314.5q-298 -254 -567 -254q-183 0 -299 133t-116 338q0 177 97 361.5t264 329.5q145 121 327.5 200.5t324.5 79.5q132 0 209.5 -68t77.5 -182q0 -39 -8 -86q41 -100 41 -200zM1771 1118q0 100 -65 163t-166 63q-216 0 -437 -156
q-212 -154 -348 -390q-144 -245 -144 -489q0 -156 84.5 -254t218.5 -98q179 0 373 149q190 148 314 368q133 231 135 416q-15 -33 -98.5 -125.5t-115.5 -92.5q-15 0 -15 12q0 5 16 16q64 45 126 120.5t87 137.5q-23 242 -259 242q-211 0 -426 -233q-262 -284 -262 -547
q0 -89 49 -144t127 -55q143 0 288 203t145 373q0 56 -27 92.5t-68 36.5q-11 0 -15 -2h-10q-15 0 -15 10q0 16 40 16q65 0 105.5 -53.5t40.5 -136.5q0 -200 -156 -382.5t-330 -182.5q-99 0 -157.5 70t-58.5 179q0 264 242 522.5t490 258.5q216 0 290 -142q2 11 2 35z" />
    <glyph glyph-name="P" unicode="P" horiz-adv-x="1554" 
d="M2477 1049q0 -164 -38 -164q-13 4 -13 12q0 4 2 16q17 66 17 123q0 126 -74.5 201.5t-195.5 75.5q-142 0 -300 -101q164 -111 164 -266q0 -128 -111.5 -219.5t-270.5 -91.5q-44 0 -94 13.5t-50 25.5t15 12q4 0 19 -7q43 -20 100 -20q117 0 202.5 95t85.5 227
q0 130 -93 208q-121 -91 -213 -229t-241 -457q-76 -162 -177.5 -265t-257.5 -182q-203 -101 -371 -101q-159 0 -254 81.5t-95 215.5q0 119 88 244q-4 16 -4 39q0 306 329.5 560.5t730.5 254.5q285 0 473 -121q175 110 329 110q131 0 214.5 -82t83.5 -208zM1816 1208
q-156 115 -437 115q-348 0 -645 -230t-351 -523q98 101 250 142q80 138 205.5 225t247.5 87q76 0 123.5 -47.5t47.5 -122.5q0 -183 -186 -391q-221 -248 -452 -248q-118 0 -195.5 67t-97.5 170q-61 -94 -61 -198q0 -126 85.5 -200.5t227.5 -74.5q183 0 331 112t313 377
q193 311 323.5 474.5t270.5 265.5zM1224 854q0 63 -37.5 104.5t-90.5 41.5q-91 0 -194 -75t-179 -195q3 1 33 1q93 0 150.5 -42.5t57.5 -113.5q0 -32 -15 -32q-16 0 -16 24q2 65 -48 102.5t-135 37.5q-11 0 -44 -3q-70 -124 -70 -215q0 -42 22 -69t53 -27q2 0 6 2h8
q14 0 14 -10q0 -14 -28 -14q-55 0 -91.5 49.5t-36.5 120.5q0 69 35 141q-133 -40 -242 -165v-30q0 -113 66 -180t177 -67q242 0 459 277q146 189 146 337z" />
    <glyph glyph-name="Q" unicode="Q" horiz-adv-x="1370" 
d="M1670 922q0 -164 -93.5 -334t-258.5 -299q-189 -151 -461 -232q316 -94 405 -116.5t150 -22.5q88 0 160 67q6 2 13 6q14 -5 14 -14q0 -17 -51 -50q-88 -56 -253 -56q-153 0 -250 19q-130 26 -342 115l-22 9q-129 -30 -285 -30q-294 0 -294 96q0 82 228 82q192 0 488 -92
q316 101 530 369.5t214 561.5q0 153 -78.5 237.5t-217.5 84.5q-293 0 -569 -274t-276 -566q0 -113 63 -178t168 -65q186 0 370 193t184 392q0 65 -36.5 104.5t-91.5 39.5q-125 0 -264 -151t-139 -292q0 -38 25 -66t56 -28q19 0 19 -10q0 -12 -21 -12q-53 0 -89.5 44.5
t-36.5 106.5q0 147 147 289.5t303 142.5q73 0 117.5 -47.5t44.5 -124.5q0 -102 -64 -224.5t-170 -223.5q-170 -160 -354 -160q-141 0 -231 99t-90 251q0 288 297 538.5t640 250.5q180 0 291 -119.5t111 -310.5zM638 30q-289 93 -394 93q-110 0 -110 -43q0 -70 264 -70
q154 0 240 20z" />
    <glyph glyph-name="R" unicode="R" horiz-adv-x="1884" 
d="M2477 1049q0 -164 -38 -164q-13 4 -13 12q0 4 2 16q17 66 17 123q0 126 -74.5 201.5t-195.5 75.5q-142 0 -300 -101q152 -111 152 -247q0 -126 -95 -212.5t-234 -99.5q97 -45 97 -184q0 -59 -49 -219q-33 -107 -33 -166q0 -56 36.5 -91.5t92.5 -35.5q58 0 105 28
q16 9 26 9q11 -4 11 -12q0 -17 -52 -34.5t-95 -17.5q-94 0 -159 77.5t-65 185.5q0 59 58 243q26 86 26 139q0 47 -28 75q-29 -5 -90 -5q-99 0 -99 21q0 20 77 20q69 0 111 -18q111 21 186 109t75 206q0 132 -87 206q-121 -91 -213 -229t-241 -457q-76 -162 -177.5 -265
t-257.5 -182q-203 -101 -371 -101q-159 0 -254 81.5t-95 215.5q0 119 88 244q-4 16 -4 39q0 306 329.5 560.5t730.5 254.5q285 0 473 -121q175 110 329 110q131 0 214.5 -82t83.5 -208zM1816 1208q-156 115 -437 115q-348 0 -645 -230t-351 -523q98 101 250 142
q80 138 205.5 225t247.5 87q76 0 123.5 -47.5t47.5 -122.5q0 -183 -186 -391q-221 -248 -452 -248q-118 0 -195.5 67t-97.5 170q-61 -94 -61 -198q0 -126 85.5 -200.5t227.5 -74.5q183 0 331 112t313 377q193 311 323.5 474.5t270.5 265.5zM1224 854q0 63 -37.5 104.5
t-90.5 41.5q-91 0 -194 -75t-179 -195q3 1 33 1q93 0 150.5 -42.5t57.5 -113.5q0 -32 -15 -32q-16 0 -16 24q2 65 -48 102.5t-135 37.5q-11 0 -44 -3q-70 -124 -70 -215q0 -42 22 -69t53 -27q2 0 6 2h8q14 0 14 -10q0 -14 -28 -14q-55 0 -91.5 49.5t-36.5 120.5q0 69 35 141
q-133 -40 -242 -165v-30q0 -113 66 -180t177 -67q242 0 459 277q146 189 146 337z" />
    <glyph glyph-name="S" unicode="S" horiz-adv-x="1447" 
d="M2049 1307q0 -48 -97 -139t-234 -175q-23 -71 -54 -205q-55 -237 -102 -335t-157 -201q-313 -297 -706 -297q-167 0 -275 84q-50 -90 -50 -170q0 -81 46 -144q7 -7 7 -12q0 -14 -15 -14q-25 0 -49.5 58.5t-24.5 109.5q0 90 61 192q-129 120 -129 318q0 170 101 337
t282 300q233 172 462 172q129 0 202 -71.5t73 -192.5q0 -43 -10 -88l241 137q74 156 182 267.5t192 111.5q54 0 54 -43zM2017 1305q0 20 -22 20q-61 0 -142.5 -90.5t-121.5 -201.5q114 69 200 150.5t86 121.5zM1332 772q-470 -272 -653 -437q41 -81 137 -81
q137 0 297.5 162.5t218.5 355.5zM1604 931q-13 -8 -99 -57q-95 -54 -134 -77q-59 -220 -229.5 -394t-334.5 -174q-105 0 -156 79q-143 -135 -208 -240q99 -87 258 -87q183 0 358 105.5t301 293.5q59 88 93 162.5t109 282.5q17 46 42 106zM1357 926q0 107 -64 170t-170 63
q-262 0 -513.5 -277t-251.5 -571q0 -148 61 -217q71 109 216 240q-29 55 -29 112q0 184 158 345t340 161q67 0 107 -35t40 -94q0 -41 -22 -41q-13 0 -13 13l2 12q2 4 2 14q0 103 -109 103q-146 0 -298 -170.5t-152 -337.5q0 -35 6 -52q201 175 674 447q16 78 16 115z" />
    <glyph glyph-name="T" unicode="T" horiz-adv-x="1623" 
d="M1311 1172q-55 13 -107 32q-130 38 -196 55q-87 17 -149 23q-10 1 -28 1h-21h-20q36 -86 34 -187q-8 -213 -161 -385l-17 -16q-129 -140 -264 -153q-26 -5 -59 -1q-124 11 -155 135q-9 32 -6 75q1 79 62 188v0v0q-4 -7 16 28v0q189 288 492 351q-67 95 -188 103
q-115 10 -239 -59q-109 -61 -190 -165v0v-2l-19 -12q-12 0 -14 12v0v2q0 9 20 35q39 41 58 58q79 74 174 121.5t208 40.5q151 -12 229 -126q114 24 247 13q76 -7 133 -19q36 -9 107 -30q51 -16 101.5 -30t100.5 -28q57 21 118 37q107 26 168 30q18 2 58 2q43 0 63 -2
q86 -7 137 -26q50 -23 61 -57q3 -6 3 -23q-1 -38 -39 -58t-67 -28q-100 -29 -242 -19q-67 4 -149 19q-63 11 -166 40q-78 -43 -159 -103q-193 -146 -316 -314v0l-14 -15q-83 -131 -129 -236q-51 -119 -55 -217q-10 -139 73 -218q2 -4 5.5 -6t7.5 -4q42 -38 92 -49
q52 -17 108 -17q-71 85 -65 222q6 120 63.5 220.5t140.5 182.5q190 191 409 204q99 6 152 -44q52 -56 46 -171q-5 -125 -67.5 -230t-151.5 -187q-199 -188 -447 -222q75 -52 198 -44q141 6 262 103q10 11 20 11q13 0 13 -15q0 -19 -31 -36q-28 -19 -84 -44q-57 -25 -100 -37
t-80 -14q-150 -9 -247 70q-118 -4 -194 28q-109 42 -174 151t-58 237q5 100 45.5 196t98.5 178l7 13q199 276 537 432zM1536 1212l37.5 -12.5t39.5 -10.5q144 -41 246 -48q73 -7 130 10q50 13 50 42q2 22 -44 45q-55 24 -121 27q-85 6 -154 -2q-6 -1 -11.5 -2t-9.5 -1
l-34.5 -8t-40.5 -10q-31 -10 -88 -30zM751 1282q-155 -19 -272.5 -105.5t-204.5 -214.5v0l-16 -24q-65 -109 -67 -202q0 -21 5 -44q30 -110 123 -116q76 -5 153 42q78 48 158 151l13 14q125 174 133 358q1 74 -25 141zM1065 -30q123 7 233 73t199 151q83 78 153.5 184.5
t77.5 228.5q2 80 -37 120q-43 42 -119 36q-104 -4 -196.5 -70.5t-160.5 -140.5q-74 -82 -133 -183t-64 -215q-6 -116 47 -184z" />
    <glyph glyph-name="U" unicode="U" horiz-adv-x="1851" 
d="M2382 1243q-699 -959 -699 -1235q0 -66 42.5 -108.5t108.5 -42.5q115 0 227 124q10 13 21 13q13 0 13 -12t-36 -43q-122 -107 -225 -107q-100 0 -164 75.5t-64 188.5q0 195 111 370q-162 -228 -329.5 -371.5t-280.5 -143.5q-76 0 -121.5 53.5t-45.5 140.5q0 91 49 182.5
t218 310.5q175 231 223.5 321t48.5 192q0 95 -69 149t-186 54q-302 0 -583 -277t-281 -575q0 -112 62 -179t163 -67q196 0 377 222q191 238 191 431q0 162 -128 162q-133 0 -275 -161t-142 -316q0 -38 22 -65t51 -27h6q6 2 14 2q15 0 15 -12q0 -15 -27 -15q-61 0 -98.5 46.5
t-37.5 119.5q0 151 155 303t313 152q164 0 164 -187q0 -197 -189 -435q-194 -247 -411 -247q-129 0 -207.5 88t-78.5 230q0 331 346 600q133 105 291.5 169t284.5 64q156 0 241.5 -83.5t85.5 -229.5q0 -123 -60.5 -234t-305.5 -435q-105 -141 -138 -201t-33 -113
q0 -48 28.5 -78.5t71.5 -30.5q147 0 410.5 300.5t689.5 959.5q57 -4 63 -4q38 0 108 12z" />
    <glyph glyph-name="V" unicode="V" horiz-adv-x="1533" 
d="M3098 1423q0 -28 -36 -28h-17q-55 6 -89 6q-255 0 -603 -224q-167 -108 -282 -218.5t-426 -464.5q-367 -418 -554 -553q-100 -74 -113 -74q-14 0 -14 10q0 1 24 32q175 229 302 542t127 524q0 334 -267 334q-107 0 -246 -73t-254 -191q-126 -128 -201 -286.5t-75 -295.5
q0 -120 64 -191t171 -71q228 0 427 283q135 192 135 339q0 168 -134 168q-125 0 -265 -173.5t-140 -334.5q0 -117 77 -117h5q5 3 16 3q11 -5 11 -11q0 -16 -32 -16q-61 0 -99.5 51.5t-38.5 128.5q0 169 153 331.5t315 162.5q76 0 120.5 -52t44.5 -137q0 -166 -145 -363
q-209 -288 -454 -288q-131 0 -214.5 92.5t-83.5 235.5q0 281 279 555t570 274q174 0 280 -119t106 -311q0 -205 -115 -430.5t-372 -522.5q-9 -12 -9 -13v1q8 0 114 91q84 71 172 168q80 86 422 475q203 229 357 362t344 243q314 179 554 179q89 0 89 -33z" />
    <glyph glyph-name="W" unicode="W" horiz-adv-x="1892" 
d="M3479 1516q0 -29 -38 -29h-15q-31 4 -73 4q-230 0 -554 -206q-183 -116 -308 -240.5t-436 -500.5q-369 -446 -579 -601l-14 -11q-58 -42 -71 -42t-13 8q0 3 13 16q137 130 278 516q117 321 147 390q97 225 203 363q4 6 10 14l1 -1q6 0 -3 -9l-9 -9q-49 -49 -330 -427
q-377 -511 -667 -739q-155 -122 -185 -122q-11 4 -11 10q0 5 13 16q199 179 376.5 537t177.5 573q0 144 -70 227.5t-187 83.5q-256 0 -509.5 -288t-253.5 -580q0 -120 65 -193t170 -73q237 0 429 306q119 187 119 335q0 81 -36.5 128.5t-97.5 47.5q-121 0 -260 -177.5
t-139 -338.5q0 -127 87 -127h15q4 2 12 2q13 0 13 -10q0 -19 -42 -19q-62 0 -100 56.5t-38 138.5q0 169 149 334t305 165q75 0 119.5 -53.5t44.5 -142.5q0 -166 -125 -360q-200 -310 -459 -310q-131 0 -213.5 96t-82.5 246q0 296 275 563q289 281 557 281q160 0 267 -124.5
t107 -301.5q0 -193 -154 -458.5t-388 -475.5q-21 -19 -21 -20h-3q25 0 192 172q222 225 644 779q118 156 230 277t142 121q13 0 13 -8q0 -5 -7 -14q-62 -83 -101 -169q-41 -95 -133 -372q-99 -300 -181 -456q-84 -161 -211 -290q-2 -5 -4 -7q0 1 -3 1q11 0 138 129
q76 76 491 579q207 251 375.5 399.5t373.5 263.5q282 159 498 159q75 0 75 -32z" />
    <glyph glyph-name="X" unicode="X" horiz-adv-x="2060" 
d="M2674 1180q0 -33 -19.5 -75t-41.5 -42q-17 0 -17 14q0 5 16 23q29 27 29 78q0 58 -45 95.5t-114 37.5q-222 0 -577 -297q-54 -43 -327 -302q-158 -403 -158 -528q0 -203 186 -203q168 0 369 205.5t201 368.5q0 73 -43.5 115.5t-114.5 42.5q-79 0 -184 -61.5t-180 -152.5
q-14 -22 -30 -22q-11 4 -11 10q0 12 50 62q193 190 359 190q86 0 142.5 -58.5t56.5 -145.5q0 -194 -210.5 -387t-421.5 -193q-120 0 -199.5 82.5t-79.5 204.5q0 118 75 304q2 1 -60 -63q-264 -284 -463 -412t-385 -128q-122 0 -201.5 75t-79.5 187q0 118 83 223t210 152
q-6 34 -6 55q0 288 327 516q291 205 540 205q145 0 230.5 -81.5t85.5 -215.5q0 -117 -63 -283l75 74q264 264 446.5 383t331.5 119q95 0 156.5 -49t61.5 -123zM1572 1120q0 100 -56.5 156.5t-155.5 56.5q-147 0 -314.5 -86t-314.5 -237q-191 -200 -195 -414q51 12 97 12
q56 0 56 -14q-3 -10 -15 -10h-8l-40 2q-31 2 -88 -15q24 -200 247 -200q235 0 456 249q159 180 159 330q0 61 -39.5 98.5t-98.5 37.5q-140 0 -302 -165.5t-162 -310.5q0 -40 24 -68t55 -26q19 0 19 -10t-21 -10q-60 0 -95 42.5t-35 112.5q0 159 168.5 309t346.5 150
q77 0 125 -44.5t48 -115.5q0 -195 -227 -409q-208 -197 -419 -197q-236 0 -294 212q-115 -47 -187.5 -143.5t-72.5 -209.5q0 -102 66 -165t168 -63q159 0 358 127t488 412q27 27 97 93q111 270 136.5 352.5t25.5 160.5z" />
    <glyph glyph-name="Y" unicode="Y" horiz-adv-x="1810" 
d="M2352 1077q0 -5 -22 -20q-288 -205 -557 -767q-74 -152 -127 -239q41 -82 41 -170q0 -218 -196 -375q-109 -88 -151 -88q-15 0 -15 13q0 8 46 29q127 63 205 179.5t78 245.5q0 82 -26 137q-89 -146 -150.5 -220t-163.5 -150q-151 -118 -318.5 -186t-304.5 -68
q-170 0 -273 91.5t-103 238.5q0 195 187 353t480 213q23 76 63 138.5t174 234.5q233 301 233 463q0 108 -71 168t-197 60q-301 0 -599.5 -277t-298.5 -561q0 -109 68 -175.5t177 -66.5q176 0 354 166q109 102 175 224.5t66 224.5q0 64 -37.5 103.5t-96.5 39.5
q-138 0 -292 -172.5t-154 -328.5q0 -45 22 -73t53 -28q3 0 11 2h5q16 0 16 -10q0 -14 -28 -14q-57 0 -93.5 46.5t-36.5 114.5q0 171 160.5 329.5t334.5 158.5q75 0 120.5 -45.5t45.5 -122.5q0 -202 -205 -421.5t-424 -219.5q-135 0 -216.5 90.5t-81.5 237.5q0 298 321.5 549
t641.5 251q154 0 243.5 -87.5t89.5 -235.5q0 -135 -61.5 -251.5t-287.5 -403.5q-32 -41 -66 -94q11 1 39 1q177 0 331 -88q124 123 317 362q223 279 381 408q126 103 157 103q17 0 17 -17zM1731 463q-115 -143 -227 -256q38 -25 55 -41q7 15 73 130q53 92 99 167zM1461 202
q-134 81 -307 81q-37 0 -61 -2q-53 -91 -53 -154q0 -113 105 -113q119 0 316 188zM1546 141q-27 25 -62 47q-206 -198 -341 -198q-80 0 -128.5 54.5t-48.5 141.5q0 31 7 76q-245 -58 -415 -224t-170 -357q0 -118 85 -187.5t226 -69.5q456 0 847 717z" />
    <glyph glyph-name="Z" unicode="Z" horiz-adv-x="1411" 
d="M2125 1231q0 -67 -147 -184.5t-252 -138.5q-188 -327 -314.5 -445t-403.5 -227q139 -9 238 -98.5t103 -222.5q112 -107 112 -259q0 -210 -225 -357q-50 -33 -128 -62t-114 -29q-18 0 -18 12q0 13 23 16q167 24 296.5 154t129.5 274q0 122 -77 206q-12 -154 -122.5 -283
t-304.5 -205t-403 -76q-197 0 -323 97.5t-126 250.5q0 195 207 331t509 136q261 0 441 -112q-27 178 -270 210q-96 -39 -171 -39q-42 0 -42 17q0 38 208 43q142 56 267.5 176.5t422.5 485.5q-118 14 -170 79t-73 227q-18 144 -181 144q-225 0 -480 -203q-304 -243 -304 -492
q0 -105 74 -167t198 -62q185 0 374.5 165.5t189.5 326.5q0 64 -38.5 100.5t-101.5 36.5q-127 0 -291.5 -146t-164.5 -262q0 -50 59 -85q13 -7 13 -13q0 -10 -14 -10q-36 0 -70.5 46.5t-34.5 92.5q0 138 160.5 270.5t331.5 132.5q86 0 135 -43.5t49 -115.5
q0 -177 -197.5 -352t-399.5 -175q-150 0 -238.5 85.5t-88.5 224.5q0 216 216 403q143 124 316.5 197t322.5 73q179 0 255 -124q37 -60 50 -195t125 -133q121 141 241.5 240.5t176.5 99.5q44 0 44 -37zM2090 1229q0 12 -11 12q-43 0 -151.5 -98t-180.5 -204q130 33 279 196
q64 70 64 94zM1232 -53v27q-168 112 -411 112q-265 0 -473 -146t-208 -333q0 -120 104.5 -197.5t265.5 -77.5q261 0 491.5 196.5t230.5 418.5z" />
    <glyph glyph-name="bracketleft" unicode="[" horiz-adv-x="899" 
d="M1457 1440q0 -13 -20.5 -16t-122.5 -5l-872 -1544q126 0 126 -12q0 -21 -52 -21l-230 2l909 1606h52q119 0 160 4h18q32 0 32 -14z" />
    <glyph glyph-name="backslash" unicode="\" horiz-adv-x="610" 
d="M1220 1081q0 107 -98 107q-89 0 -186 -66q98 -65 98 -164q0 -42 -29 -101.5t-64 -59.5q-14 7 -14 16q0 4 4 10q60 67 60 135q0 84 -86 142q-161 -107 -406 -489q33 -7 86 -7q218 0 426.5 156.5t208.5 320.5zM846 1128q-47 19 -126 19q-164 0 -304 -109.5t-140 -238.5
q0 -109 102 -152q226 357 468 481zM322 314l-70 -115q-43 -69 -98 -190l-18 -30q-34 9 -59 9t-91 -10q23 38 61.5 105.5t116.5 204.5q27 49 78 134l117 195q-138 66 -138 192q0 143 151.5 258t339.5 115q100 0 174 -33q139 74 232 74q77 0 121.5 -46t44.5 -118
q0 -178 -224 -334t-479 -156q-64 0 -103 10l-70 -122l-60 -100q7 1 16 1q36 0 59 -9q37 15 148 142q64 72 131 72q92 0 92 -80q0 -51 -41 -102t-88 -51q-57 0 -57 49q0 39 70 83q22 14 22 40q0 14 -17 14q-35 0 -96 -71q-84 -96 -119 -111q91 -37 91 -111q0 -40 -50 -138
q-20 -39 -20 -52q0 -17 12 -17q36 0 97 62t198 246q18 24 34 24q17 -6 17 -16q0 -17 -98.5 -140.5t-151.5 -167.5t-104 -44q-48 0 -84.5 32t-36.5 72q0 32 56 146q20 40 20 55q0 19 -19 30q-32 -16 -63 -16q-34 0 -44 15z" />
    <glyph glyph-name="bracketright" unicode="]" horiz-adv-x="899" 
d="M1223 1453l-910 -1609q-26 2 -52 2q-29 0 -87.5 -2t-72.5 -2h-20q-32 0 -32 15q0 13 21.5 15.5t123.5 4.5l873 1542h-16l-41 2q-24 -2 -45 -2q-17 0 -25 13q0 22 52 22q49 0 90 -2t74 -2q30 0 67 3z" />
    <glyph glyph-name="asciicircum" unicode="^" horiz-adv-x="540" 
d="M758 554q-209 -328 -357 -628q130 -45 130 -178q0 -136 -149.5 -256.5t-320.5 -120.5q-63 0 -95 15q-154 -117 -274 -117q-67 0 -109.5 42.5t-42.5 108.5q0 184 230.5 361.5t470.5 177.5q34 0 49 -3q38 82 87 167q-94 -137 -187 -137q-45 0 -77 35t-32 83q0 60 71 180
l158 263q50 -4 58 -4q30 0 81 11l-201 -330q-80 -130 -80 -179q0 -37 30 -37q100 0 325 378l97 162q28 -5 60 -5q27 0 78 11zM503 -250q0 121 -110 158q-96 -190 -185.5 -300t-221.5 -206q35 -8 69 -8q161 0 304.5 113t143.5 243zM279 -64q-15 1 -46 1q-222 0 -435 -174
t-213 -355q0 -52 29 -84.5t72 -32.5q98 0 233 114q-113 61 -113 167q0 89 87 172q41 39 55 39q12 0 12 -8q0 -7 -25 -25q-100 -73 -100 -180q0 -96 102 -150q165 145 342 516z" />
    <glyph glyph-name="underscore" unicode="_" horiz-adv-x="548" 
d="M1269 1055q0 -173 -222 -326t-475 -153q-61 0 -105 11l-92 -151q15 21 68 71t104 50q60 0 97 -46.5t37 -115.5q0 -152 -194 -299q-146 -110 -259 -110q-55 0 -89.5 41.5t-34.5 103.5q0 72 96 228l161 261q-140 70 -140 191q0 138 149.5 251t334.5 113q113 0 174 -33
q137 72 227 72q163 0 163 -159zM1220 1083q0 109 -108 109q-80 0 -195 -70q102 -72 102 -164q0 -38 -27.5 -96.5t-53.5 -58.5q-9 4 -9 10q0 3 16 20q46 51 46 125q0 94 -94 150q-174 -127 -417 -502q44 -8 100 -8q222 0 431 158t209 327zM855 1128q-50 25 -148 25
q-163 0 -304.5 -112t-141.5 -244q0 -109 113 -158q235 369 481 489zM593 473q0 62 -48 62q-72 0 -243 -237q-131 -180 -131 -239q0 -51 44 -51q87 0 232.5 177.5t145.5 287.5z" />
    <glyph glyph-name="grave" unicode="`" horiz-adv-x="690" 
d="M1566 1016q0 -171 -220 -323t-471 -152q-15 0 -67 4q-147 -247 -201 -339q-67 -118 -67 -155q0 -43 32 -43q79 0 294 312q16 24 27 24t11 -8q0 -2 -8 -15l-12 -19q-211 -316 -320 -316q-47 0 -77.5 36t-30.5 91q0 49 4 57q-56 -78 -112.5 -131t-107.5 -53
q-57 0 -94.5 46.5t-37.5 114.5q0 167 207 305q159 105 261 105q68 0 68 -63q0 -27 26 30l27 43q-220 66 -220 232q0 140 151.5 250t348.5 110q158 0 242 -78q129 64 209 64q138 0 138 -129zM1531 1026q0 96 -101 96q-85 0 -189 -66q44 -51 44 -116q0 -45 -31.5 -109.5
t-59.5 -66.5q-11 0 -11 8q0 3 5 8q69 77 69 158q0 62 -35 104q-188 -133 -402 -477q13 -2 49 -2q228 0 445 151t217 312zM1196 1070q-80 67 -194 67q-177 0 -322.5 -113.5t-145.5 -253.5q0 -131 175 -184q129 193 235 299t252 185zM616 485q0 50 -42 50q-86 0 -232 -178
t-146 -285q0 -64 48 -64q77 0 267 274q105 148 105 203zM623 750l-4 -19h438l4 19h-438z" />
    <glyph glyph-name="a" unicode="a" 
d="M902 313q0 -21 -146 -195q-121 -145 -192 -145q-49 0 -80.5 35.5t-31.5 89.5t-6 43q-48 -67 -102.5 -117.5t-107.5 -50.5q-57 0 -94.5 47t-37.5 117q0 195 273 343q121 67 197 67q68 0 68 -64q0 -18 10 17l22 40q36 -8 58 -8q25 0 80 9l-180 -300q-92 -153 -92 -202
q0 -43 32 -43q35 0 122 89.5t178 224.5q6 13 17 13q13 0 13 -10zM614 479q0 45 -38 45q-88 0 -236 -178.5t-148 -288.5q0 -61 50 -61q66 0 234 226q138 189 138 257z" />
    <glyph glyph-name="b" unicode="b" horiz-adv-x="538" 
d="M741 1016l-466 -713q105 143 158 193.5t104 50.5q60 0 97 -46.5t37 -117.5q0 -153 -194 -299q-146 -111 -259 -111q-55 0 -89.5 40.5t-34.5 105.5q0 76 96 230l417 669q32 -10 61 -10q24 0 73 8zM583 461q0 63 -48 63q-70 0 -243 -238q-131 -181 -131 -241q0 -49 44 -49
q87 0 232.5 178.5t145.5 286.5z" />
    <glyph glyph-name="c" unicode="c" horiz-adv-x="495" 
d="M695 313q0 -15 -142 -170q-155 -170 -268 -170q-74 0 -125.5 55t-51.5 130q0 85 69 175.5t185 156.5q98 57 163 57q80 0 80 -92q0 -70 -47 -140.5t-99 -70.5t-52 49q0 55 95 101q69 34 69 89q0 41 -42 41q-78 0 -198.5 -163t-120.5 -275q0 -90 81 -90q63 0 166 85
t203 223q14 19 26 19q9 -4 9 -10z" />
    <glyph glyph-name="d" unicode="d" 
d="M1110 1017q-378 -602 -476 -768.5t-98 -211.5q0 -41 34 -41q85 0 302 314q6 13 17 13q13 0 13 -10q0 -5 -11 -17l-42 -59q-191 -264 -285 -264q-49 0 -80.5 36.5t-31.5 90.5t-5 45q-120 -172 -211 -172q-57 0 -94.5 47t-37.5 117q0 167 207 302q164 108 261 108
q68 0 68 -64q0 -28 32 41l297 500q38 -12 70 -12q8 0 71 5zM612 475q0 49 -42 49q-86 0 -232 -178.5t-146 -286.5q0 -63 48 -63q75 0 267 275q105 149 105 204z" />
    <glyph glyph-name="e" unicode="e" horiz-adv-x="503" 
d="M704 313q0 -5 -20 -27l-43 -54q-209 -259 -360 -259q-76 0 -124.5 52t-48.5 129q0 182 255 320q133 73 219 73q38 0 65.5 -23t27.5 -55q0 -74 -95 -125t-315 -95q-65 -99 -65 -169q0 -82 85 -82q154 0 381 306q14 19 29 19q9 -4 9 -10zM606 498q0 28 -28 28
q-50 0 -134.5 -72.5t-161.5 -179.5q126 32 225 98.5t99 125.5z" />
    <glyph glyph-name="f" unicode="f" horiz-adv-x="272" 
d="M879 1030q0 -89 -126.5 -224.5t-322.5 -258.5h166l-12 -23h-174l-80 -156q-152 -295 -259 -445t-248 -267q-195 -162 -364 -162q-81 0 -81 25q0 14 17 14q10 0 16 -3q32 -9 64 -9q132 0 266 119q84 73 147 173q51 79 247 437l150 274h-106l12 23h109q126 214 282.5 374
t244.5 160q52 0 52 -51zM853 1032q0 29 -26 29q-72 0 -201 -171q-65 -88 -186 -309q141 97 277 243t136 208z" />
    <glyph glyph-name="g" unicode="g" horiz-adv-x="686" 
d="M885 313q0 -17 -109 -139q-121 -133 -314 -239l-48 -90q-138 -253 -304.5 -387t-288.5 -134q-47 0 -76 27t-29 67q0 207 466 419q100 45 127 61l131 240q-60 -79 -107 -122t-98 -43q-57 0 -94.5 48t-37.5 114q0 173 227 317q154 95 243 95q66 0 66 -70q0 -18 12 20l24 43
q34 -8 52 -8q25 0 86 9q-10 -16 -92 -157l-240 -413q111 62 189.5 131.5t176.5 197.5q19 23 29 23q9 -4 9 -10zM615 477q0 47 -42 47q-86 0 -233 -178.5t-147 -286.5q0 -63 50 -63q56 0 195 175q177 225 177 306zM289 -135q1 1 -93 -46q-454 -224 -454 -403q0 -29 22 -49
t53 -20q107 0 210 111t258 401z" />
    <glyph glyph-name="h" unicode="h" horiz-adv-x="641" 
d="M843 315q0 -9 -11 -20l-43 -58q-190 -264 -287 -264q-51 0 -83.5 35.5t-32.5 89.5q0 70 77 184q118 175 118 207q0 35 -34 35q-56 0 -156.5 -114t-276.5 -433q-37 7 -57 7q-21 0 -69 -8l151 273q31 57 93 168q32 53 202 344l154 262q36 -7 55 -7q38 0 88 14
q-108 -177 -314 -509q-6 -10 -169 -255q190 281 303 281q48 0 79.5 -38.5t31.5 -92.5q0 -68 -88 -200q-98 -144 -98 -181q0 -39 36 -39q74 0 252 249l31 43l18 22q5 13 19 13q11 0 11 -8z" />
    <glyph glyph-name="i" unicode="i" horiz-adv-x="344" 
d="M527 727q0 -36 -31 -68t-70 -32q-52 0 -52 49q0 34 32 66t71 32q50 0 50 -47zM542 313q0 -5 -12 -17l-42 -59q-191 -264 -293 -264q-52 0 -85 34.5t-33 86.5q0 58 70 177l158 269q36 -8 53 -8q26 0 87 9l-231 -380q-49 -79 -49 -124q0 -41 40 -41q85 0 306 314
q6 13 17 13q14 0 14 -10z" />
    <glyph glyph-name="j" unicode="j" horiz-adv-x="309" 
d="M539 725q0 -36 -31.5 -66t-69.5 -30q-48 0 -48 47q0 34 31 65t68 31q50 0 50 -47zM510 315q0 -15 -113 -142.5t-310 -237.5l-50 -88q-155 -267 -306 -390q-163 -133 -281 -133q-109 0 -109 98q0 116 158 238q84 67 143 101q93 52 282 133l12 6l173 310q74 127 191 330
q34 -8 52 -8q27 0 84 9q-84 -136 -245 -417l-85 -153q109 60 189.5 131.5t175.5 197.5q15 23 28 23q11 0 11 -8zM-82 -134q-264 -135 -342 -188q-207 -142 -207 -260q0 -31 22.5 -51t54.5 -20q101 0 203 114q85 98 265 398z" />
    <glyph glyph-name="k" unicode="k" horiz-adv-x="616" 
d="M739 1028q-64 -105 -185 -302l-172 -278q-86 -140 -145 -252q-68 -125 -109 -195l-14 -24q-32 7 -57 7q-23 0 -77 -8q27 45 55 95l117 202q25 45 78 136l368 618q47 -9 67 -9q19 0 74 10zM821 313q0 -5 -11 -17l-43 -59q-190 -264 -291 -264q-47 0 -81 30.5t-34 68.5
q0 32 55 144q21 40 21 58q0 21 -27 36q-36 -15 -63 -15q-41 0 -41 24q0 21 39 21q34 0 59 -9q44 20 153 146q63 70 128 70q83 0 83 -76q0 -48 -39.5 -97.5t-82.5 -49.5q-50 0 -50 43q0 37 68 80q25 15 25 45q0 20 -24 20q-39 0 -103 -73q-83 -98 -130 -117q101 -46 101 -111
q0 -35 -51 -136q-19 -40 -19 -57q0 -22 26 -22q89 0 300 314q8 13 19 13q13 0 13 -10z" />
    <glyph glyph-name="l" unicode="l" horiz-adv-x="327" 
d="M730 1031q-426 -708 -495.5 -830.5t-69.5 -163.5t31 -41q79 0 301 314q6 13 21 13q9 -4 9 -10q0 -7 -11 -17l-42 -59q-192 -264 -286 -264q-47 0 -76 33.5t-29 85.5q0 55 25.5 107t173.5 298q182 301 308 526q36 -9 57 -9q35 0 83 17z" />
    <glyph glyph-name="m" unicode="m" horiz-adv-x="1114" 
d="M1316 313q0 -5 -12 -17l-43 -59q-190 -264 -284 -264q-51 0 -82.5 36.5t-31.5 92.5q0 45 18.5 83.5t92.5 145.5q84 120 84 156q0 37 -34 37q-126 0 -449 -543q-25 5 -59 5q-40 0 -81 -6l146 232q139 220 139 271q0 41 -30 41q-51 0 -175 -157t-249 -386q-28 5 -63 5
q-38 0 -79 -6l147 232q148 230 148 286q0 26 -16 26q-45 0 -196 -212q-13 -17 -25 -17q-9 4 -9 10q0 11 92.5 126.5t145.5 115.5q37 0 61 -32.5t24 -74.5q0 -57 13 -34q96 141 189 141q45 0 74 -35.5t29 -87.5q0 -57 20 -24q106 147 205 147q47 0 78 -38.5t31 -92.5
q0 -47 -22.5 -94t-113.5 -180q-48 -72 -48 -109t34 -37q73 0 251 249l31 43l18 22q5 13 17 13q14 0 14 -10z" />
    <glyph glyph-name="n" unicode="n" horiz-adv-x="800" 
d="M1004 313q0 -21 -146 -195q-121 -145 -193 -145q-49 0 -81 36.5t-32 88.5q0 45 18.5 83.5t98 156t79.5 149.5q0 37 -36 37q-140 0 -446 -542q-54 4 -63 4q-35 0 -77 -5l160 253q133 210 133 264q0 26 -18 26q-47 0 -195 -212q-11 -13 -18 -17q-15 0 -15 10q0 5 4 10
l19 24q155 208 213 208q37 0 63 -32.5t26 -76.5q0 -63 -88 -176q117 162 182 223.5t123 61.5q49 0 80 -37.5t31 -91.5q0 -66 -93 -206t-93 -179q0 -37 34 -37q85 0 300 314q5 13 17 13q13 0 13 -10z" />
    <glyph glyph-name="o" unicode="o" horiz-adv-x="593" 
d="M792 315q0 -17 -61 -77q-90 -90 -167 -90q-33 0 -53 10q-129 -185 -251 -185q-63 0 -107.5 51t-44.5 121q0 155 205 299q143 103 238 103q93 0 93 -96q0 -116 -120 -276q16 -9 37 -9q43 0 100.5 41t96.5 99q15 17 23 17q11 0 11 -8zM616 449q0 77 -67 77
q-86 0 -215.5 -172.5t-129.5 -290.5q0 -65 58 -65q104 0 229 174q-29 30 -29 66q0 50 40.5 103.5t81.5 53.5q22 0 24 -6q8 17 8 60z" />
    <glyph glyph-name="p" unicode="p" horiz-adv-x="542" 
d="M682 383q0 -165 -205 -300q-166 -110 -263 -110q-70 0 -70 64q0 18 -7 -3l-355 -592q-40 9 -61 9q-31 0 -79 -17l830 1365q33 -11 57 -11q26 0 77 12l-234 -378q27 35 77 80t101 45q57 0 94.5 -47.5t37.5 -116.5zM594 463q0 61 -50 61q-70 0 -240 -232
q-132 -182 -132 -249q0 -47 40 -47q88 0 235 177.5t147 289.5z" />
    <glyph glyph-name="q" unicode="q" horiz-adv-x="591" 
d="M812 543q-97 -167 -324 -538q-121 -203 -281 -469q-16 -26 -54 -86q-38 9 -68 9q-31 0 -75 -11l487 757q-4 -5 -39 -50q-135 -182 -221 -182q-55 0 -92.5 48t-37.5 116q0 161 207 300q166 110 263 110q68 0 68 -64q0 -20 17 26l18 32q23 -7 51 -7q21 0 81 9zM617 479
q0 45 -38 45q-86 0 -234 -178.5t-148 -288.5q0 -61 50 -61q65 0 231 222q139 189 139 261z" />
    <glyph glyph-name="r" unicode="r" horiz-adv-x="569" 
d="M772 313q0 -9 -61 -75q-77 -86 -149 -86q-83 0 -83 92q0 28 7 54q-45 -40 -83.5 -93.5t-138.5 -222.5q-58 4 -67 4q-3 0 -71 -5l168 272q122 200 122 247q0 24 -16 24q-50 0 -196 -212q-12 -17 -25 -17q-9 4 -9 10q0 5 5 9l18 25q156 208 215 208q87 0 87 -107
q0 -78 -40 -140q-3 -3 44 35q39 88 96 150t106 62q38 0 38 -31q0 -48 -141 -140q-21 -14 -66 -40l-10 -9q-14 -44 -14 -75q0 -80 56 -80q74 0 164 126q22 25 31 25q13 0 13 -10z" />
    <glyph glyph-name="s" unicode="s" horiz-adv-x="399" 
d="M538 702q0 -41 -125 -160q-6 -30 -6 -53q0 -59 53 -183q26 -64 26 -107q0 -91 -90 -158.5t-211 -67.5q-72 0 -114.5 40.5t-42.5 105.5q0 77 54.5 149t116.5 72q12 0 16 -2l76 93q37 43 95 119q17 69 53.5 121t74.5 52q24 0 24 -21zM384 307q0 29 -2 58.5t-2 85.5
q0 45 1 52q-39 -49 -143 -177q17 -16 17 -39q0 -63 -101 -84q-36 -7 -64 -40t-28 -69q0 -40 27.5 -65t66.5 -25q80 0 154 96t74 207z" />
    <glyph glyph-name="t" unicode="t" horiz-adv-x="337" 
d="M570 547l-12 -23h-131l-221 -378q-41 -68 -41 -109t40 -41q87 0 300 314q8 13 19 13q13 0 13 -10q0 -5 -11 -17l-42 -59q-191 -264 -289 -264q-52 0 -85 35.5t-33 87.5q0 60 53 151l165 277h-102l15 23h100l118 195q36 -9 61 -9q26 0 70 11l-117 -197h130z" />
    <glyph glyph-name="u" unicode="u" horiz-adv-x="641" 
d="M841 313q0 -23 -147 -195q-123 -145 -196 -145q-47 0 -79.5 36.5t-32.5 88.5q0 39 -5 30q-55 -69 -96 -107q-52 -48 -97 -48q-49 0 -80 35.5t-31 87.5q0 58 45 134l185 310q40 -8 58 -8q17 0 78 9l-241 -399q-37 -60 -37 -105q0 -41 32 -41q95 0 316 374l102 170
q35 -8 55 -8q25 0 82 9l-163 -268q-115 -185 -115 -238q0 -39 34 -39q76 0 253 249l32 43l17 22q6 13 17 13q14 0 14 -10z" />
    <glyph glyph-name="v" unicode="v" horiz-adv-x="559" 
d="M759 315q0 -13 -65 -79q-88 -93 -157 -93q-50 0 -75 41q-81 -114 -139 -162.5t-118 -48.5q-55 0 -91.5 36.5t-36.5 88.5q0 60 68 173l159 269q55 -6 71 -6q36 0 71 8l-214 -346q-69 -114 -69 -157t46 -43t95.5 44t145.5 167q-8 31 -8 53q0 90 56 188.5t114 98.5
q32 0 32 -33q0 -74 -166 -309q19 -41 59 -41q71 0 178 132q22 27 33 27t11 -8z" />
    <glyph glyph-name="w" unicode="w" horiz-adv-x="868" 
d="M1068 315q0 -13 -65 -79q-88 -93 -157 -93q-48 0 -74 41q-82 -114 -140 -162.5t-118 -48.5q-55 0 -90.5 35.5t-35.5 87.5q0 41 -1 39q-110 -162 -201 -162q-47 0 -78 36.5t-31 86.5q0 58 59 159l169 285q46 -8 64 -8q15 0 76 9l-231 -378q-53 -85 -53 -126t34 -41
q41 0 128.5 99t175.5 248l115 196q58 -5 72 -5q34 0 68 8l-212 -346q-70 -112 -70 -155q0 -45 44 -45q98 0 241 211q-6 37 -6 55q0 90 57 187.5t114 97.5q29 0 29 -35q0 -85 -164 -307q23 -41 59 -41q72 0 178 132q23 27 33 27q11 0 11 -8z" />
    <glyph glyph-name="x" unicode="x" horiz-adv-x="712" 
d="M911 323q-14 -38 -4 -19l-14 -16q-131 -175 -204.5 -245t-138.5 -70q-64 0 -110.5 48t-46.5 110v29q-109 -187 -216 -187q-37 0 -60 26.5t-23 61.5q0 53 38.5 98.5t85.5 45.5q60 0 60 -55q0 -60 -86 -84q-41 -11 -41 -41q0 -27 30 -27q69 0 163 132q151 212 151 337
q0 57 -48 57q-90 0 -237 -203q-18 -26 -31 -26q-9 4 -9 10q0 20 100.5 131t182.5 111q64 0 104 -42.5t40 -105.5q0 -30 6 -14q105 162 211 162q82 0 82 -86q0 -50 -34 -93.5t-77 -43.5q-56 0 -56 55q0 51 76 74q41 12 41 43q0 28 -34 28q-79 0 -200 -169t-121 -287
q0 -72 65 -72q99 0 315 302q19 25 27 25h13z" />
    <glyph glyph-name="y" unicode="y" horiz-adv-x="630" 
d="M829 313q0 -17 -111 -139q-121 -133 -318 -242l-48 -87q-146 -261 -304 -388q-167 -133 -289 -133q-45 0 -74 27t-29 67q0 203 466 419q39 19 115 53l12 8l125 223q-41 -57 -89.5 -102.5t-99.5 -45.5q-45 0 -77 36.5t-32 84.5q0 58 72 179l156 264q28 -5 57 -5q26 0 83 9
l-201 -327q-84 -136 -84 -177t34 -41q104 0 325 380l95 161q28 -5 60 -5q27 0 78 9q-129 -204 -333 -571q102 53 185.5 126.5t188.5 205.5q16 21 24 21q13 0 13 -10zM230 -133q2 1 -94 -48q-452 -224 -452 -403q0 -71 77 -71q103 0 206 114t258 400z" />
    <glyph glyph-name="z" unicode="z" horiz-adv-x="571" 
d="M801 532q0 -33 -94 -88q-101 -86 -346 -270q-31 -22 -74 -56l13 1q51 4 90.5 -33.5t48.5 -86.5q47 26 148 126.5t149 176.5q14 21 25 21t11 -8q0 -21 -111 -144.5t-218 -198.5v-25q0 -111 -79.5 -238t-197.5 -206q-256 -169 -410 -169q-124 0 -124 99q0 111 162 233
q84 65 431 216q67 31 125 63q15 43 15 82q0 71 -73 71q-21 0 -31 -1l-12 -11l-37 -35q-96 -90 -127 -90t-31 27q0 65 187 124q278 209 313 238l102 72q-58 -41 -108 -41q-35 0 -84.5 41t-76.5 41q-58 0 -181 -154q-14 -14 -24 -14q-9 4 -9 10q0 18 93 117q112 121 194 121
q34 0 138 -67q33 -21 59 -21q12 0 25 6l12 15l33 41q24 32 51 32q23 0 23 -17zM339 -86q-10 -5 -270 -126q-192 -88 -301.5 -184.5t-109.5 -174.5q0 -74 96 -74q139 0 324 178.5t261 380.5z" />
    <glyph glyph-name="braceleft" unicode="{" horiz-adv-x="544" 
d="M707 -240q0 -158 -195.5 -290.5t-427.5 -132.5q-150 0 -387 95q-100 40 -142 52q-76 -29 -149 -29q-79 0 -79 21q0 34 126 34q40 0 97 -8q92 40 175.5 129t199.5 282l551 899q25 -13 48 -13q30 0 79 14l-241 -392q35 46 84 91t102 45q56 0 93 -47.5t37 -114.5
q0 -165 -204 -302q-162 -107 -261 -107q-73 0 -73 63q0 17 -6 -2q-157 -265 -263 -374.5t-288 -177.5q27 -5 121 -34q261 -82 437 -82q210 0 359.5 107t149.5 260q0 83 -56 135t-144 52q-128 0 -230.5 -81.5t-102.5 -185.5q0 -62 45 -97.5t122 -35.5q105 0 162 62q6 8 12 8
q11 0 11 -9q0 -28 -61.5 -55.5t-121.5 -27.5q-89 0 -149 44.5t-60 108.5q0 110 120.5 199.5t271.5 89.5q105 0 171.5 -55t66.5 -138zM591 473q0 62 -51 62q-72 0 -239 -231q-133 -182 -133 -249q0 -47 40 -47q89 0 236 177.5t147 287.5z" />
    <glyph glyph-name="bar" unicode="|" horiz-adv-x="591" 
d="M809 551q-178 -298 -353 -629q126 -49 126 -178q0 -136 -149.5 -256.5t-320.5 -120.5q-53 0 -94 14q-155 -118 -275 -118q-67 0 -109.5 42.5t-42.5 108.5q0 186 229.5 363.5t469.5 177.5q36 0 51 -3l101 191q-113 -157 -205 -157q-55 0 -92.5 46.5t-37.5 112.5
q0 184 244 329q139 83 224 83q68 0 68 -68q0 -14 4 10l30 53q36 -9 58 -9q19 0 74 8zM615 485q0 50 -40 50q-86 0 -233 -177t-147 -284q0 -66 46 -66q68 0 244 235q130 176 130 242zM554 -254q0 115 -108 156q-106 -198 -191.5 -303t-218.5 -202q24 -7 70 -7
q161 0 304.5 113t143.5 243zM328 -69q-20 2 -46 2q-220 0 -433 -175t-213 -356q0 -52 29 -84.5t72 -32.5q98 0 233 115q-113 64 -113 168q0 89 87 172q41 39 55 39q12 0 12 -8t-25 -25q-100 -73 -100 -180q0 -96 101 -150q84 81 150 180.5t191 334.5z" />
    <glyph glyph-name="braceright" unicode="}" horiz-adv-x="595" 
d="M1071 -254q0 -157 -195.5 -290.5t-427.5 -133.5q-156 0 -387 95q-87 37 -142 52q-76 -28 -149 -28q-79 0 -79 20q0 35 124 35q36 0 99 -8q94 42 176.5 130t198.5 281l143 235q-44 -58 -92 -103t-103 -45q-58 0 -93 46.5t-35 117.5q0 164 202 299q164 108 266 108
q66 0 66 -63q0 -27 -44 -91l78 149q23 -5 51 -5q42 0 85 5l-287 -471q-24 -43 -41 -70q-138 -248 -250 -356.5t-289 -173.5q12 -3 122 -34q258 -80 437 -80q210 0 359.5 107t149.5 258q0 83 -56 134.5t-144 51.5q-128 0 -230.5 -82.5t-102.5 -183.5q0 -63 45 -98t122 -35
q105 0 162 63q6 6 12 6q11 0 11 -8q0 -28 -61.5 -56t-121.5 -28q-89 0 -149 44.5t-60 109.5q0 109 120.5 198.5t271.5 89.5q105 0 171.5 -54.5t66.5 -137.5zM615 492q0 43 -38 43q-87 0 -235 -178t-148 -287q0 -62 51 -62q67 0 231 222q139 189 139 262z" />
    <glyph glyph-name="asciitilde" unicode="~" horiz-adv-x="630" 
d="M1262 1055q0 -173 -222 -326t-475 -153q-63 0 -104 11q-70 -111 -207 -311q194 283 303 283q49 0 80.5 -39.5t31.5 -93.5q0 -45 -22.5 -87.5t-112.5 -175.5q-54 -81 -54 -120q0 -35 30 -35q75 0 304 317q12 17 22 17q13 0 13 -10q0 -7 -14 -24q-4 -6 -59 -78
q-111 -146 -165.5 -195t-104.5 -49q-51 0 -82.5 34t-31.5 86q0 72 78 186q117 167 117 210q0 35 -32 35q-134 0 -440 -550q-31 7 -68 7q-26 0 -59 -10q38 68 93 169q94 174 178 311l95 156q-140 76 -140 191q0 138 149 251t335 113q113 0 174 -33q133 72 228 72
q162 0 162 -159zM1214 1083q0 109 -108 109q-82 0 -196 -70q103 -70 103 -164q0 -40 -28 -97.5t-56 -57.5q-8 4 -8 10q0 5 15 20q48 51 48 125q0 96 -95 150q-99 -78 -187 -183t-228 -319q43 -8 97 -8q222 0 432.5 158t210.5 327zM848 1128q-44 25 -148 25
q-162 0 -303.5 -112t-141.5 -244q0 -109 112 -158q233 367 481 489z" />
    <glyph glyph-name="dieresis" unicode="&#xa8;" horiz-adv-x="1024" 
 />
    <glyph glyph-name="copyright" unicode="&#xa9;" horiz-adv-x="1572" 
d="M1820 702q0 -308 -228 -535.5t-537 -227.5q-274 0 -460 184.5t-186 454.5q0 310 230 536.5t545 226.5q268 0 452 -185.5t184 -453.5zM1779 698q0 264 -175.5 437.5t-439.5 173.5q-283 0 -498.5 -219t-215.5 -508q0 -259 175.5 -435t431.5 -176q289 0 505.5 216.5
t216.5 510.5zM1537 897q0 -101 -85.5 -183.5t-195.5 -82.5q-48 0 -83 23t-35 55q0 14 15 14q9 -4 9 -10q6 -47 57 -47q90 0 178.5 88.5t88.5 179.5q0 88 -95 88q-149 0 -360 -166q-117 -92 -184.5 -205.5t-67.5 -218.5q0 -182 198 -182t386 273q24 32 34 32q13 0 13 -10
q0 -34 -109 -150q-162 -172 -326 -172q-121 0 -205.5 82.5t-84.5 196.5q0 116 85.5 236t229.5 199q200 111 366 111q77 0 124 -41t47 -110z" />
    <glyph glyph-name="registered" unicode="&#xae;" horiz-adv-x="1572" 
d="M1820 702q0 -308 -228 -535.5t-537 -227.5q-274 0 -460 184.5t-186 454.5q0 310 230 536.5t545 226.5q268 0 452 -185.5t184 -453.5zM1779 698q0 264 -175.5 437.5t-439.5 173.5q-283 0 -498.5 -219t-215.5 -508q0 -259 175.5 -435t431.5 -176q289 0 505.5 216.5
t216.5 510.5zM1607 1067q0 -7 -35 -12q-49 -6 -127 -49q104 -67 104 -172q0 -147 -199 -174q79 -42 79 -130q0 -30 -21 -114q-22 -92 -22 -119q0 -74 66 -74q50 0 84 45q11 10 17 10q11 0 11 -10q-2 -18 -43.5 -40.5t-72.5 -22.5q-59 0 -100.5 51.5t-41.5 120.5q0 43 29 131
q20 63 20 96q0 31 -32 49q-47 -4 -63 -4q-54 0 -54 17q0 14 41 14q43 0 78 -12q141 43 141 192q0 77 -57 119q-152 -114 -234 -345q-88 -249 -215 -337q-99 -70 -200 -70q-79 0 -134 44.5t-55 105.5q0 40 25 68t62 28q58 0 58 -59q0 -62 -58 -62q-54 0 -54 45q0 11 8 34
q2 2 2 5h3q-3 0 -12.5 -19.5t-9.5 -39.5q0 -52 48 -90.5t115 -38.5q80 0 150 83q40 51 150 295q102 222 330 369q-82 64 -198 64q-171 0 -316.5 -116.5t-145.5 -252.5q0 -113 128 -113q22 0 62 11.5t47 11.5q13 0 13 -8q0 -11 -44 -22t-82 -11q-73 0 -118.5 40.5
t-45.5 105.5q0 152 143 265t337 113q135 0 256 -64q116 58 161 58q22 0 22 -10z" />
    <glyph glyph-name="acute" unicode="&#xb4;" horiz-adv-x="1024" 
 />
    <glyph glyph-name="paragraph" unicode="&#xb6;" horiz-adv-x="1693" 
d="M2477 1047q0 -58 -10.5 -110t-27.5 -52q-13 4 -13 12q0 18 9.5 67.5t9.5 77.5q0 122 -74.5 196.5t-195.5 74.5q-195 0 -381 -164q-106 -94 -182.5 -215.5t-223.5 -428t-435 -449.5q-205 -101 -371 -101q-161 0 -255 81.5t-94 217.5q0 57 34.5 150.5t64.5 93.5
q11 -4 11 -13q0 -4 -8 -17q-70 -112 -70 -214q0 -126 85.5 -200.5t227.5 -74.5q183 0 331 112t313 377q189 303 310 456t262 267q-108 50 -208 50q-187 0 -316.5 -130.5t-129.5 -322.5q0 -186 91 -186q22 0 38 11q0 5 9 5q11 0 11 -8q0 -14 -42 -27.5t-83 -13.5
q-137 0 -235 91t-98 212q0 171 193.5 290.5t472.5 119.5q177 0 321 -72q184 129 359 129q133 0 216.5 -82t83.5 -210z" />
    <glyph glyph-name="onequarter" unicode="&#xbc;" horiz-adv-x="1333" 
d="M1026 1155q0 -6 -139 -216q-177 -270 -216 -413q-26 7 -50 7q-19 0 -78 -8q43 123 261 379q87 105 89 107q-67 -71 -191.5 -174.5t-164.5 -103.5q-11 4 -11 10q0 9 30 22q144 69 442 389q7 11 18 11q10 -4 10 -10zM1482 510q0 -108 -133 -198q-62 -41 -258 -116
q-164 -64 -204 -102q-9 -6 50 -6q61 0 140 -28q70 -23 103 -23q111 0 149 139q3 14 15 14q13 0 13 -10q0 -33 -44 -95q-77 -109 -196 -109q-49 0 -133 29.5t-119 29.5q-55 0 -61 -43q0 -21 -17 -21q-15 0 -15 13q0 29 51 80q70 70 255 154q149 68 235 158t86 177
q0 76 -94 76q-103 0 -225 -105t-122 -196q0 -60 73 -60q62 0 139 59t110 134q3 12 15 12q13 0 13 -10q0 -28 -54 -90q-111 -125 -221 -125q-114 0 -114 108q0 106 124 199.5t266 93.5q75 0 124 -39.5t49 -99.5zM1404 1151q0 -9 -132 -152q-139 -150 -428.5 -522t-417.5 -565
q-32 14 -63 14q-27 0 -64 -6q200 238 570 645q334 364 504 575l7 10q3 9 15 9q9 0 9 -8z" />
    <glyph glyph-name="onehalf" unicode="&#xbd;" horiz-adv-x="1333" 
d="M1026 1155q0 -6 -139 -216q-177 -270 -216 -413q-26 7 -50 7q-19 0 -78 -8q43 123 261 379q87 105 89 107q-67 -71 -191.5 -174.5t-164.5 -103.5q-11 4 -11 10q0 9 30 22q144 69 442 389q7 11 18 11q10 -4 10 -10zM1482 510q0 -108 -133 -198q-62 -41 -258 -116
q-164 -64 -204 -102q-9 -6 50 -6q61 0 140 -28q70 -23 103 -23q111 0 149 139q3 14 15 14q13 0 13 -10q0 -33 -44 -95q-77 -109 -196 -109q-49 0 -133 29.5t-119 29.5q-55 0 -61 -43q0 -21 -17 -21q-15 0 -15 13q0 29 51 80q70 70 255 154q149 68 235 158t86 177
q0 76 -94 76q-103 0 -225 -105t-122 -196q0 -60 73 -60q62 0 139 59t110 134q3 12 15 12q13 0 13 -10q0 -28 -54 -90q-111 -125 -221 -125q-114 0 -114 108q0 106 124 199.5t266 93.5q75 0 124 -39.5t49 -99.5zM1404 1151q0 -9 -132 -152q-139 -150 -428.5 -522t-417.5 -565
q-32 14 -63 14q-27 0 -64 -6q200 238 570 645q334 364 504 575l7 10q3 9 15 9q9 0 9 -8z" />
    <glyph glyph-name="threequarters" unicode="&#xbe;" horiz-adv-x="1333" 
d="M1048 1073q0 -144 -230 -185q128 -29 128 -145q0 -89 -104.5 -156t-244.5 -67q-89 0 -146.5 35.5t-57.5 89.5t57.5 93.5t137.5 39.5q69 0 69 -14q0 -10 -13 -10h-7q-21 4 -36 4q-63 0 -107 -34.5t-44 -86.5q0 -94 122 -94q106 0 197 75t91 164q0 74 -85 97q-48 -9 -88 -9
t-40 15q0 18 54 18q38 0 73 -4q192 64 192 205q0 70 -89 70q-81 0 -163 -56t-82 -112q0 -48 59 -48q90 0 171 108q3 11 17 11q11 0 11 -8q0 -23 -67.5 -77t-133.5 -54q-91 0 -91 82q0 66 85 120t194 54q171 0 171 -121zM1669 698q0 -12 -23 -12q0 1 -19.5 5.5t-32.5 4.5
q-158 0 -402 -247q-189 -191 -270 -236q40 8 140 8q41 0 65 -3q18 29 141 197q96 131 120 177q3 12 16 12h13q-14 -38 -2 -15l-7 -12l-16 -31l-29 -49q-14 -25 -41 -76q-65 -117 -112 -208h48q143 0 143 90q0 14 -9 32q-2 2 -2 7q0 10 14 10q23 0 23 -49q0 -127 -236 -127
q-53 -115 -62 -183q-38 7 -53 7q-18 0 -75 -7q29 80 99 184q-9 1 -52 5q-67 7 -105 7q-26 0 -71 -5q-74 -47 -120 -47q-19 0 -19 13q0 23 122 52q128 72 317 263q258 258 420 258q77 0 77 -25zM1515 1151q0 -7 -132 -152q-141 -152 -422 -511.5t-427 -575.5q-30 14 -62 14
q-26 0 -62 -7q633 765 1028 1177l53 54q3 9 15 9q9 0 9 -8z" />
    <glyph glyph-name="Agrave" unicode="&#xc0;" horiz-adv-x="1951" 
d="M2735 1440q-4 -8 -13 -8q-32 0 -75 77t-63 167l110 76q-25 -64 -25 -116q0 -107 58 -181l2 -4q6 -6 6 -11zM2964 1196q0 -22 -27 -22q-15 0 -70 12q-105 24 -176 24q-165 -52 -281.5 -187t-284.5 -469q-241 -477 -598 -559q57 -9 116 -9q178 0 303 116q74 70 200 239
q13 17 25 17q9 -4 9 -10q0 -15 -116 -154q-106 -133 -195 -182t-220 -49q-75 0 -177 21q-68 -21 -149 -21q-64 0 -64 25q0 28 85 28q52 0 127 -10q148 34 229.5 122t300.5 452h-371q-559 -619 -973 -619q-190 0 -300 106t-110 283q0 218 169 413.5t418 271.5
q84 163 254.5 270.5t347.5 107.5q105 0 167.5 -53.5t62.5 -145.5q0 -69 -47 -162q-43 -83 -43 -114q0 -70 79 -70q96 0 200 145q10 15 21 15q15 0 15 -12q0 -11 -48 -66q-96 -108 -188 -108q-62 0 -99 42.5t-37 108.5q0 62 65 182q31 54 31 95q0 50 -53.5 83.5t-129.5 33.5
q-159 0 -318.5 -99.5t-238.5 -242.5q62 14 120 14q152 0 237.5 -79.5t85.5 -217.5q0 -33 -2 -43q67 52 113 160q3 14 15 14q15 0 15 -14q0 -30 -46.5 -92t-102.5 -108q-35 -193 -207.5 -346t-354.5 -153q-101 0 -166 64t-65 159q0 115 74.5 226.5t194.5 180.5q-2 24 -2 36
q0 72 31 150q-198 -73 -348.5 -273t-150.5 -404q0 -150 93 -240.5t246 -90.5q180 0 357.5 123.5t494.5 468.5q-125 0 -194 -2l19 28q100 0 198 -2q291 324 568 474.5t586 154.5q66 14 134 14q146 0 146 -51zM2596 1204q-213 -12 -434 -146t-511 -454h365q124 216 306 396.5
t274 203.5zM1271 786q0 114 -73.5 181t-193.5 67q-72 0 -146 -25q-40 -89 -40 -181q98 50 151 50q17 0 17 -10q0 -11 -42 -20q-56 -13 -124 -48q34 -196 227 -196q97 0 208 70q16 57 16 112zM1241 635q-95 -55 -199 -55q-103 0 -170.5 56.5t-82.5 145.5
q-101 -61 -169 -164.5t-68 -205.5q0 -94 53.5 -149.5t140.5 -55.5q140 0 283.5 126.5t211.5 301.5z" />
    <glyph glyph-name="Aacute" unicode="&#xc1;" horiz-adv-x="1951" 
d="M3002 1660q-99 -74 -260 -143q-119 -53 -141 -53q-13 0 -13 9q0 4 15 11q97 47 199 119t149 137zM2964 1196q0 -22 -27 -22q-15 0 -70 12q-105 24 -176 24q-165 -52 -281.5 -187t-284.5 -469q-241 -477 -598 -559q57 -9 116 -9q178 0 303 116q74 70 200 239q13 17 25 17
q9 -4 9 -10q0 -15 -116 -154q-106 -133 -195 -182t-220 -49q-75 0 -177 21q-68 -21 -149 -21q-64 0 -64 25q0 28 85 28q52 0 127 -10q148 34 229.5 122t300.5 452h-371q-559 -619 -973 -619q-190 0 -300 106t-110 283q0 218 169 413.5t418 271.5q84 163 254.5 270.5
t347.5 107.5q105 0 167.5 -53.5t62.5 -145.5q0 -69 -47 -162q-43 -83 -43 -114q0 -70 79 -70q96 0 200 145q10 15 21 15q15 0 15 -12q0 -11 -48 -66q-96 -108 -188 -108q-62 0 -99 42.5t-37 108.5q0 62 65 182q31 54 31 95q0 50 -53.5 83.5t-129.5 33.5q-159 0 -318.5 -99.5
t-238.5 -242.5q62 14 120 14q152 0 237.5 -79.5t85.5 -217.5q0 -33 -2 -43q67 52 113 160q3 14 15 14q15 0 15 -14q0 -30 -46.5 -92t-102.5 -108q-35 -193 -207.5 -346t-354.5 -153q-101 0 -166 64t-65 159q0 115 74.5 226.5t194.5 180.5q-2 24 -2 36q0 72 31 150
q-198 -73 -348.5 -273t-150.5 -404q0 -150 93 -240.5t246 -90.5q180 0 357.5 123.5t494.5 468.5q-125 0 -194 -2l19 28q100 0 198 -2q291 324 568 474.5t586 154.5q66 14 134 14q146 0 146 -51zM2596 1204q-213 -12 -434 -146t-511 -454h365q124 216 306 396.5t274 203.5z
M1271 786q0 114 -73.5 181t-193.5 67q-72 0 -146 -25q-40 -89 -40 -181q98 50 151 50q17 0 17 -10q0 -11 -42 -20q-56 -13 -124 -48q34 -196 227 -196q97 0 208 70q16 57 16 112zM1241 635q-95 -55 -199 -55q-103 0 -170.5 56.5t-82.5 145.5q-101 -61 -169 -164.5
t-68 -205.5q0 -94 53.5 -149.5t140.5 -55.5q140 0 283.5 126.5t211.5 301.5z" />
    <glyph glyph-name="Acircumflex" unicode="&#xc2;" horiz-adv-x="1951" 
d="M2886 1747q-8 -92 -20 -268q0 -13 -14 -13q-8 6 -8 13q-6 102 -21 133q-51 -36 -179.5 -92t-163.5 -56q-13 0 -13 10q4 4 17 10q111 47 225.5 120t176.5 143zM2964 1196q0 -22 -27 -22q-15 0 -70 12q-105 24 -176 24q-165 -52 -281.5 -187t-284.5 -469
q-241 -477 -598 -559q57 -9 116 -9q178 0 303 116q74 70 200 239q13 17 25 17q9 -4 9 -10q0 -15 -116 -154q-106 -133 -195 -182t-220 -49q-75 0 -177 21q-68 -21 -149 -21q-64 0 -64 25q0 28 85 28q52 0 127 -10q148 34 229.5 122t300.5 452h-371q-559 -619 -973 -619
q-190 0 -300 106t-110 283q0 218 169 413.5t418 271.5q84 163 254.5 270.5t347.5 107.5q105 0 167.5 -53.5t62.5 -145.5q0 -69 -47 -162q-43 -83 -43 -114q0 -70 79 -70q96 0 200 145q10 15 21 15q15 0 15 -12q0 -11 -48 -66q-96 -108 -188 -108q-62 0 -99 42.5t-37 108.5
q0 62 65 182q31 54 31 95q0 50 -53.5 83.5t-129.5 33.5q-159 0 -318.5 -99.5t-238.5 -242.5q62 14 120 14q152 0 237.5 -79.5t85.5 -217.5q0 -33 -2 -43q67 52 113 160q3 14 15 14q15 0 15 -14q0 -30 -46.5 -92t-102.5 -108q-35 -193 -207.5 -346t-354.5 -153
q-101 0 -166 64t-65 159q0 115 74.5 226.5t194.5 180.5q-2 24 -2 36q0 72 31 150q-198 -73 -348.5 -273t-150.5 -404q0 -150 93 -240.5t246 -90.5q180 0 357.5 123.5t494.5 468.5q-125 0 -194 -2l19 28q100 0 198 -2q291 324 568 474.5t586 154.5q66 14 134 14
q146 0 146 -51zM2596 1204q-213 -12 -434 -146t-511 -454h365q124 216 306 396.5t274 203.5zM1271 786q0 114 -73.5 181t-193.5 67q-72 0 -146 -25q-40 -89 -40 -181q98 50 151 50q17 0 17 -10q0 -11 -42 -20q-56 -13 -124 -48q34 -196 227 -196q97 0 208 70q16 57 16 112z
M1241 635q-95 -55 -199 -55q-103 0 -170.5 56.5t-82.5 145.5q-101 -61 -169 -164.5t-68 -205.5q0 -94 53.5 -149.5t140.5 -55.5q140 0 283.5 126.5t211.5 301.5z" />
    <glyph glyph-name="Atilde" unicode="&#xc3;" horiz-adv-x="1951" 
d="M2901 1552q0 -16 -60 -43.5t-90 -27.5q-32 0 -93 14l-20 4q-97 25 -125 25q-25 0 -52 -14q-11 -7 -20 -7q-13 0 -13 8t52 40t101 32q25 0 124 -23q87 -20 113 -20q32 0 55 15q11 5 17 5q11 -4 11 -8zM2964 1196q0 -22 -27 -22q-15 0 -70 12q-105 24 -176 24
q-165 -52 -281.5 -187t-284.5 -469q-241 -477 -598 -559q57 -9 116 -9q178 0 303 116q74 70 200 239q13 17 25 17q9 -4 9 -10q0 -15 -116 -154q-106 -133 -195 -182t-220 -49q-75 0 -177 21q-68 -21 -149 -21q-64 0 -64 25q0 28 85 28q52 0 127 -10q148 34 229.5 122
t300.5 452h-371q-559 -619 -973 -619q-190 0 -300 106t-110 283q0 218 169 413.5t418 271.5q84 163 254.5 270.5t347.5 107.5q105 0 167.5 -53.5t62.5 -145.5q0 -69 -47 -162q-43 -83 -43 -114q0 -70 79 -70q96 0 200 145q10 15 21 15q15 0 15 -12q0 -11 -48 -66
q-96 -108 -188 -108q-62 0 -99 42.5t-37 108.5q0 62 65 182q31 54 31 95q0 50 -53.5 83.5t-129.5 33.5q-159 0 -318.5 -99.5t-238.5 -242.5q62 14 120 14q152 0 237.5 -79.5t85.5 -217.5q0 -33 -2 -43q67 52 113 160q3 14 15 14q15 0 15 -14q0 -30 -46.5 -92t-102.5 -108
q-35 -193 -207.5 -346t-354.5 -153q-101 0 -166 64t-65 159q0 115 74.5 226.5t194.5 180.5q-2 24 -2 36q0 72 31 150q-198 -73 -348.5 -273t-150.5 -404q0 -150 93 -240.5t246 -90.5q180 0 357.5 123.5t494.5 468.5q-125 0 -194 -2l19 28q100 0 198 -2q291 324 568 474.5
t586 154.5q66 14 134 14q146 0 146 -51zM2596 1204q-213 -12 -434 -146t-511 -454h365q124 216 306 396.5t274 203.5zM1271 786q0 114 -73.5 181t-193.5 67q-72 0 -146 -25q-40 -89 -40 -181q98 50 151 50q17 0 17 -10q0 -11 -42 -20q-56 -13 -124 -48q34 -196 227 -196
q97 0 208 70q16 57 16 112zM1241 635q-95 -55 -199 -55q-103 0 -170.5 56.5t-82.5 145.5q-101 -61 -169 -164.5t-68 -205.5q0 -94 53.5 -149.5t140.5 -55.5q140 0 283.5 126.5t211.5 301.5z" />
    <glyph glyph-name="Egrave" unicode="&#xc8;" horiz-adv-x="1785" 
d="M2021 1440q-4 -8 -13 -8q-32 0 -75 77t-64 167l111 76q-25 -64 -25 -116q0 -107 58 -181l2 -4q6 -6 6 -11zM2199 1120q0 -71 -130 -71q-81 0 -139 11t-319 78q-164 -92 -164 -239q0 -69 42 -96q53 8 107 8q111 0 111 -29q0 -20 -64 -20t-149 20q-88 -12 -202 -61
q-21 -128 -139 -233.5t-266 -128.5q-19 -66 -19 -121q0 -188 185 -235q-33 52 -33 132q0 200 202.5 367.5t447.5 167.5q109 0 177.5 -56t68.5 -147q0 -196 -216 -354t-487 -158q-54 0 -89 4q84 -119 273 -119q109 0 186 35l16 2q12 -4 12 -12q0 -18 -75.5 -33.5
t-138.5 -15.5q-213 0 -324 152q-328 74 -328 313q0 34 7 69q-192 4 -315.5 112t-123.5 277q0 225 194.5 373.5t486.5 148.5q210 0 550 -78q136 64 320 64q139 0 237 -37t98 -90zM2164 1120q0 37 -80 66t-185 29q-139 0 -254 -59q265 -81 432 -81q87 0 87 45zM1884 475
q0 71 -55.5 116.5t-140.5 45.5q-212 0 -415 -176.5t-203 -362.5q0 -55 33 -107q54 -10 102 -10q232 0 455.5 162.5t223.5 331.5zM1509 1165q-240 50 -409 50q-308 0 -522 -149t-214 -368q0 -138 111.5 -227.5t282.5 -95.5q40 128 179 235.5t324 152.5q2 9 2 23
q0 106 -75 183t-197 96q-14 6 -14 12q0 14 21 14q31 0 87.5 -23t89.5 -48q121 -91 121 -248q73 16 157 27q-102 43 -102 145q0 135 158 221zM1253 704q-278 -124 -356 -317q126 24 228.5 115t127.5 202z" />
    <glyph glyph-name="Eacute" unicode="&#xc9;" horiz-adv-x="1785" 
d="M2360 1660q-100 -74 -260 -143q-119 -53 -142 -53q-13 0 -13 9q0 4 16 11q97 47 199 119t149 137zM2199 1120q0 -71 -130 -71q-81 0 -139 11t-319 78q-164 -92 -164 -239q0 -69 42 -96q53 8 107 8q111 0 111 -29q0 -20 -64 -20t-149 20q-88 -12 -202 -61
q-21 -128 -139 -233.5t-266 -128.5q-19 -66 -19 -121q0 -188 185 -235q-33 52 -33 132q0 200 202.5 367.5t447.5 167.5q109 0 177.5 -56t68.5 -147q0 -196 -216 -354t-487 -158q-54 0 -89 4q84 -119 273 -119q109 0 186 35l16 2q12 -4 12 -12q0 -18 -75.5 -33.5
t-138.5 -15.5q-213 0 -324 152q-328 74 -328 313q0 34 7 69q-192 4 -315.5 112t-123.5 277q0 225 194.5 373.5t486.5 148.5q210 0 550 -78q136 64 320 64q139 0 237 -37t98 -90zM2164 1120q0 37 -80 66t-185 29q-139 0 -254 -59q265 -81 432 -81q87 0 87 45zM1884 475
q0 71 -55.5 116.5t-140.5 45.5q-212 0 -415 -176.5t-203 -362.5q0 -55 33 -107q54 -10 102 -10q232 0 455.5 162.5t223.5 331.5zM1509 1165q-240 50 -409 50q-308 0 -522 -149t-214 -368q0 -138 111.5 -227.5t282.5 -95.5q40 128 179 235.5t324 152.5q2 9 2 23
q0 106 -75 183t-197 96q-14 6 -14 12q0 14 21 14q31 0 87.5 -23t89.5 -48q121 -91 121 -248q73 16 157 27q-102 43 -102 145q0 135 158 221zM1253 704q-278 -124 -356 -317q126 24 228.5 115t127.5 202z" />
    <glyph glyph-name="Ecircumflex" unicode="&#xca;" horiz-adv-x="1785" 
d="M2197 1747q-8 -92 -21 -268q0 -13 -14 -13q-8 6 -8 13q-6 102 -20 133q-52 -36 -180.5 -92t-163.5 -56q-13 0 -13 10q4 4 18 10q110 47 225 120t177 143zM2199 1120q0 -71 -130 -71q-81 0 -139 11t-319 78q-164 -92 -164 -239q0 -69 42 -96q53 8 107 8q111 0 111 -29
q0 -20 -64 -20t-149 20q-88 -12 -202 -61q-21 -128 -139 -233.5t-266 -128.5q-19 -66 -19 -121q0 -188 185 -235q-33 52 -33 132q0 200 202.5 367.5t447.5 167.5q109 0 177.5 -56t68.5 -147q0 -196 -216 -354t-487 -158q-54 0 -89 4q84 -119 273 -119q109 0 186 35l16 2
q12 -4 12 -12q0 -18 -75.5 -33.5t-138.5 -15.5q-213 0 -324 152q-328 74 -328 313q0 34 7 69q-192 4 -315.5 112t-123.5 277q0 225 194.5 373.5t486.5 148.5q210 0 550 -78q136 64 320 64q139 0 237 -37t98 -90zM2164 1120q0 37 -80 66t-185 29q-139 0 -254 -59
q265 -81 432 -81q87 0 87 45zM1884 475q0 71 -55.5 116.5t-140.5 45.5q-212 0 -415 -176.5t-203 -362.5q0 -55 33 -107q54 -10 102 -10q232 0 455.5 162.5t223.5 331.5zM1509 1165q-240 50 -409 50q-308 0 -522 -149t-214 -368q0 -138 111.5 -227.5t282.5 -95.5
q40 128 179 235.5t324 152.5q2 9 2 23q0 106 -75 183t-197 96q-14 6 -14 12q0 14 21 14q31 0 87.5 -23t89.5 -48q121 -91 121 -248q73 16 157 27q-102 43 -102 145q0 135 158 221zM1253 704q-278 -124 -356 -317q126 24 228.5 115t127.5 202z" />
    <glyph glyph-name="Igrave" unicode="&#xcc;" horiz-adv-x="1472" 
d="M2098 1440q-4 -8 -13 -8q-32 0 -75 77t-63 167l110 76q-25 -64 -25 -116q0 -107 58 -181l2 -4q6 -6 6 -11zM2262 1323q0 -18 -85 -55.5t-191 -66.5q-135 -99 -250 -249t-255 -410q5 -1 20 -1q118 0 219.5 73t123.5 179q5 20 18 20t13 -12q0 -61 -67 -140
q-51 -63 -137 -104t-170 -41q-14 0 -32 2q-90 -165 -114 -201.5t-73 -91.5q-116 -126 -289.5 -200t-345.5 -74q-197 0 -317 101t-120 267q0 212 200.5 383.5t447.5 171.5q143 0 228.5 -79t85.5 -211q0 -182 -151 -335t-333 -153q-98 0 -164 68t-66 168q0 136 122 244
t280 108q53 0 104 -27.5t51 -58.5q0 -10 -16 -10q-6 0 -14 9q-42 63 -115 63q-127 0 -242 -113.5t-115 -241.5q0 -85 49.5 -133.5t133.5 -48.5q160 0 302 148t142 315q0 115 -77.5 188.5t-196.5 73.5q-227 0 -408 -178.5t-181 -407.5q0 -124 98.5 -204.5t249.5 -80.5
q299 0 536 298q51 64 191 273q-171 73 -171 240q0 201 228 300q110 49 362 92q93 16 154 28l47 9q52 39 141 79.5t125 40.5q24 0 24 -14zM1931 1186l-45 -10q-37 -9 -108 -27q-242 -56 -385 -168t-143 -244q0 -117 115 -170q261 416 566 619z" />
    <glyph glyph-name="Iacute" unicode="&#xcd;" horiz-adv-x="1472" 
d="M2459 1660q-99 -74 -260 -143q-118 -53 -141 -53q-13 0 -13 9q0 4 15 11q98 47 199.5 119t148.5 137zM2262 1323q0 -18 -85 -55.5t-191 -66.5q-135 -99 -250 -249t-255 -410q5 -1 20 -1q118 0 219.5 73t123.5 179q5 20 18 20t13 -12q0 -61 -67 -140q-51 -63 -137 -104
t-170 -41q-14 0 -32 2q-90 -165 -114 -201.5t-73 -91.5q-116 -126 -289.5 -200t-345.5 -74q-197 0 -317 101t-120 267q0 212 200.5 383.5t447.5 171.5q143 0 228.5 -79t85.5 -211q0 -182 -151 -335t-333 -153q-98 0 -164 68t-66 168q0 136 122 244t280 108q53 0 104 -27.5
t51 -58.5q0 -10 -16 -10q-6 0 -14 9q-42 63 -115 63q-127 0 -242 -113.5t-115 -241.5q0 -85 49.5 -133.5t133.5 -48.5q160 0 302 148t142 315q0 115 -77.5 188.5t-196.5 73.5q-227 0 -408 -178.5t-181 -407.5q0 -124 98.5 -204.5t249.5 -80.5q299 0 536 298q51 64 191 273
q-171 73 -171 240q0 201 228 300q110 49 362 92q93 16 154 28l47 9q52 39 141 79.5t125 40.5q24 0 24 -14zM1931 1186l-45 -10q-37 -9 -108 -27q-242 -56 -385 -168t-143 -244q0 -117 115 -170q261 416 566 619z" />
    <glyph glyph-name="Eth" unicode="&#xd0;" horiz-adv-x="1734" 
d="M2582 1028q0 -51 -12.5 -109.5t-29.5 -58.5q-13 0 -13 10q0 7 2 13q23 61 23 143q0 126 -74.5 200.5t-197.5 74.5q-244 0 -462 -228q86 -160 86 -336q0 -328 -253.5 -558t-619.5 -230q-114 0 -307 31q-169 -31 -324 -31q-271 0 -271 57q0 29 67.5 49.5t154.5 20.5
q105 0 414 -68q190 50 306 154.5t296 392.5h-162l8 27h171q196 314 383 495q-143 242 -466 242q-334 0 -614 -264q-144 -134 -227.5 -294.5t-83.5 -299.5q0 -106 69.5 -169t182.5 -63q190 0 389 210.5t199 414.5q0 65 -37 105.5t-93 40.5q-139 0 -295 -178t-156 -337
q0 -100 79 -100h6q4 2 8 2q13 0 13 -10q0 -12 -25 -12q-62 0 -98 48.5t-36 125.5q0 164 166 324.5t338 160.5q74 0 118.5 -48.5t44.5 -125.5q0 -212 -208.5 -429.5t-412.5 -217.5q-148 0 -241.5 93.5t-93.5 238.5q0 172 115 349t305 295q266 166 594 166q329 0 491 -238
q243 220 495 220q131 0 210 -82.5t79 -216.5zM1835 811q0 125 -48 229q-108 -119 -233 -377q-14 -31 -39 -81h193l-10 -27h-197q-108 -230 -265.5 -358t-419.5 -201q109 -23 252 -23q380 0 613 366q154 239 154 472zM662 -10q-251 35 -385 35q-114 0 -114 -19q0 -31 256 -31
q150 0 243 15z" />
    <glyph glyph-name="Ograve" unicode="&#xd2;" horiz-adv-x="1583" 
d="M1732 1439q-6 -7 -14 -7q-31 0 -74 77t-64 167l109 76q-23 -64 -23 -116q0 -107 57 -181l1 -4q8 -6 8 -12zM1834 836q0 -166 -92.5 -337.5t-258.5 -314.5q-298 -254 -567 -254q-183 0 -299 133t-116 338q0 177 97 361.5t264 329.5q145 121 327.5 200.5t324.5 79.5
q132 0 209.5 -68t77.5 -182q0 -39 -8 -86q41 -100 41 -200zM1771 1118q0 100 -65 163t-166 63q-216 0 -437 -156q-212 -154 -348 -390q-144 -245 -144 -489q0 -156 84.5 -254t218.5 -98q179 0 373 149q190 148 314 368q133 231 135 416q-15 -33 -98.5 -125.5t-115.5 -92.5
q-15 0 -15 12q0 5 16 16q64 45 126 120.5t87 137.5q-23 242 -259 242q-211 0 -426 -233q-262 -284 -262 -547q0 -89 49 -144t127 -55q143 0 288 203t145 373q0 56 -27 92.5t-68 36.5q-11 0 -15 -2h-10q-15 0 -15 10q0 16 40 16q65 0 105.5 -53.5t40.5 -136.5
q0 -200 -156 -382.5t-330 -182.5q-99 0 -157.5 70t-58.5 179q0 264 242 522.5t490 258.5q216 0 290 -142q2 11 2 35z" />
    <glyph glyph-name="Oacute" unicode="&#xd3;" horiz-adv-x="1591" 
d="M1958 1660q-99 -74 -260 -143q-119 -53 -141 -53q-14 0 -14 9q0 4 16 11q97 47 199 119t149 137zM1834 836q0 -166 -92.5 -337.5t-258.5 -314.5q-298 -254 -567 -254q-183 0 -299 133t-116 338q0 177 97 361.5t264 329.5q145 121 327.5 200.5t324.5 79.5q132 0 209.5 -68
t77.5 -182q0 -39 -8 -86q41 -100 41 -200zM1771 1118q0 100 -65 163t-166 63q-216 0 -437 -156q-212 -154 -348 -390q-144 -245 -144 -489q0 -156 84.5 -254t218.5 -98q179 0 373 149q190 148 314 368q133 231 135 416q-15 -33 -98.5 -125.5t-115.5 -92.5q-15 0 -15 12
q0 5 16 16q64 45 126 120.5t87 137.5q-23 242 -259 242q-211 0 -426 -233q-262 -284 -262 -547q0 -89 49 -144t127 -55q143 0 288 203t145 373q0 56 -27 92.5t-68 36.5q-11 0 -15 -2h-10q-15 0 -15 10q0 16 40 16q65 0 105.5 -53.5t40.5 -136.5q0 -200 -156 -382.5
t-330 -182.5q-99 0 -157.5 70t-58.5 179q0 264 242 522.5t490 258.5q216 0 290 -142q2 11 2 35z" />
    <glyph glyph-name="Ocircumflex" unicode="&#xd4;" horiz-adv-x="1583" 
d="M1828 1747q-8 -92 -21 -268q0 -13 -14 -13q-8 6 -8 13q-6 102 -20 133q-52 -36 -180.5 -92t-163.5 -56q-13 0 -13 10q4 4 18 10q110 47 225 120t177 143zM1834 836q0 -166 -92.5 -337.5t-258.5 -314.5q-298 -254 -567 -254q-183 0 -299 133t-116 338q0 177 97 361.5
t264 329.5q145 121 327.5 200.5t324.5 79.5q132 0 209.5 -68t77.5 -182q0 -39 -8 -86q41 -100 41 -200zM1771 1118q0 100 -65 163t-166 63q-216 0 -437 -156q-212 -154 -348 -390q-144 -245 -144 -489q0 -156 84.5 -254t218.5 -98q179 0 373 149q190 148 314 368
q133 231 135 416q-15 -33 -98.5 -125.5t-115.5 -92.5q-15 0 -15 12q0 5 16 16q64 45 126 120.5t87 137.5q-23 242 -259 242q-211 0 -426 -233q-262 -284 -262 -547q0 -89 49 -144t127 -55q143 0 288 203t145 373q0 56 -27 92.5t-68 36.5q-11 0 -15 -2h-10q-15 0 -15 10
q0 16 40 16q65 0 105.5 -53.5t40.5 -136.5q0 -200 -156 -382.5t-330 -182.5q-99 0 -157.5 70t-58.5 179q0 264 242 522.5t490 258.5q216 0 290 -142q2 11 2 35z" />
    <glyph glyph-name="Otilde" unicode="&#xd5;" horiz-adv-x="1583" 
d="M1945 1552q0 -16 -60 -43.5t-91 -27.5q-32 0 -92 14l-20 4q-98 25 -125 25q-25 0 -53 -14q-10 -7 -19 -7q-13 0 -13 8t52 40t100 32q26 0 125 -23q87 -20 113 -20q32 0 54 15q11 5 16 5q13 -4 13 -8zM1834 836q0 -166 -92.5 -337.5t-258.5 -314.5q-298 -254 -567 -254
q-183 0 -299 133t-116 338q0 177 97 361.5t264 329.5q145 121 327.5 200.5t324.5 79.5q132 0 209.5 -68t77.5 -182q0 -39 -8 -86q41 -100 41 -200zM1771 1118q0 100 -65 163t-166 63q-216 0 -437 -156q-212 -154 -348 -390q-144 -245 -144 -489q0 -156 84.5 -254t218.5 -98
q179 0 373 149q190 148 314 368q133 231 135 416q-15 -33 -98.5 -125.5t-115.5 -92.5q-15 0 -15 12q0 5 16 16q64 45 126 120.5t87 137.5q-23 242 -259 242q-211 0 -426 -233q-262 -284 -262 -547q0 -89 49 -144t127 -55q143 0 288 203t145 373q0 56 -27 92.5t-68 36.5
q-11 0 -15 -2h-10q-15 0 -15 10q0 16 40 16q65 0 105.5 -53.5t40.5 -136.5q0 -200 -156 -382.5t-330 -182.5q-99 0 -157.5 70t-58.5 179q0 264 242 522.5t490 258.5q216 0 290 -142q2 11 2 35z" />
    <glyph glyph-name="Ugrave" unicode="&#xd9;" horiz-adv-x="1851" 
d="M1984 1440q-4 -8 -13 -8q-32 0 -75 77t-63 167l109 76q-23 -64 -23 -116q0 -107 57 -181l2 -4q6 -6 6 -11zM2382 1243q-699 -959 -699 -1235q0 -66 42.5 -108.5t108.5 -42.5q115 0 227 124q10 13 21 13q13 0 13 -12t-36 -43q-122 -107 -225 -107q-100 0 -164 75.5
t-64 188.5q0 195 111 370q-162 -228 -329.5 -371.5t-280.5 -143.5q-76 0 -121.5 53.5t-45.5 140.5q0 91 49 182.5t218 310.5q175 231 223.5 321t48.5 192q0 95 -69 149t-186 54q-302 0 -583 -277t-281 -575q0 -112 62 -179t163 -67q196 0 377 222q191 238 191 431
q0 162 -128 162q-133 0 -275 -161t-142 -316q0 -38 22 -65t51 -27h6q6 2 14 2q15 0 15 -12q0 -15 -27 -15q-61 0 -98.5 46.5t-37.5 119.5q0 151 155 303t313 152q164 0 164 -187q0 -197 -189 -435q-194 -247 -411 -247q-129 0 -207.5 88t-78.5 230q0 331 346 600
q133 105 291.5 169t284.5 64q156 0 241.5 -83.5t85.5 -229.5q0 -123 -60.5 -234t-305.5 -435q-105 -141 -138 -201t-33 -113q0 -48 28.5 -78.5t71.5 -30.5q147 0 410.5 300.5t689.5 959.5q57 -4 63 -4q38 0 108 12z" />
    <glyph glyph-name="Uacute" unicode="&#xda;" horiz-adv-x="1851" 
d="M2370 1660q-99 -74 -260 -143q-119 -53 -141 -53q-13 0 -13 9q0 4 15 11q97 47 199 119t149 137zM2382 1243q-699 -959 -699 -1235q0 -66 42.5 -108.5t108.5 -42.5q115 0 227 124q10 13 21 13q13 0 13 -12t-36 -43q-122 -107 -225 -107q-100 0 -164 75.5t-64 188.5
q0 195 111 370q-162 -228 -329.5 -371.5t-280.5 -143.5q-76 0 -121.5 53.5t-45.5 140.5q0 91 49 182.5t218 310.5q175 231 223.5 321t48.5 192q0 95 -69 149t-186 54q-302 0 -583 -277t-281 -575q0 -112 62 -179t163 -67q196 0 377 222q191 238 191 431q0 162 -128 162
q-133 0 -275 -161t-142 -316q0 -38 22 -65t51 -27h6q6 2 14 2q15 0 15 -12q0 -15 -27 -15q-61 0 -98.5 46.5t-37.5 119.5q0 151 155 303t313 152q164 0 164 -187q0 -197 -189 -435q-194 -247 -411 -247q-129 0 -207.5 88t-78.5 230q0 331 346 600q133 105 291.5 169
t284.5 64q156 0 241.5 -83.5t85.5 -229.5q0 -123 -60.5 -234t-305.5 -435q-105 -141 -138 -201t-33 -113q0 -48 28.5 -78.5t71.5 -30.5q147 0 410.5 300.5t689.5 959.5q57 -4 63 -4q38 0 108 12z" />
    <glyph glyph-name="Yacute" unicode="&#xdd;" horiz-adv-x="1810" 
d="M2419 1660q-99 -74 -260 -143q-119 -53 -141 -53q-13 0 -13 9q0 4 15 11q97 47 199 119t149 137zM2352 1077q0 -5 -22 -20q-288 -205 -557 -767q-74 -152 -127 -239q41 -82 41 -170q0 -218 -196 -375q-109 -88 -151 -88q-15 0 -15 13q0 8 46 29q127 63 205 179.5
t78 245.5q0 82 -26 137q-89 -146 -150.5 -220t-163.5 -150q-151 -118 -318.5 -186t-304.5 -68q-170 0 -273 91.5t-103 238.5q0 195 187 353t480 213q23 76 63 138.5t174 234.5q233 301 233 463q0 108 -71 168t-197 60q-301 0 -599.5 -277t-298.5 -561q0 -109 68 -175.5
t177 -66.5q176 0 354 166q109 102 175 224.5t66 224.5q0 64 -37.5 103.5t-96.5 39.5q-138 0 -292 -172.5t-154 -328.5q0 -45 22 -73t53 -28q3 0 11 2h5q16 0 16 -10q0 -14 -28 -14q-57 0 -93.5 46.5t-36.5 114.5q0 171 160.5 329.5t334.5 158.5q75 0 120.5 -45.5
t45.5 -122.5q0 -202 -205 -421.5t-424 -219.5q-135 0 -216.5 90.5t-81.5 237.5q0 298 321.5 549t641.5 251q154 0 243.5 -87.5t89.5 -235.5q0 -135 -61.5 -251.5t-287.5 -403.5q-32 -41 -66 -94q11 1 39 1q177 0 331 -88q124 123 317 362q223 279 381 408q126 103 157 103
q17 0 17 -17zM1731 463q-115 -143 -227 -256q38 -25 55 -41q7 15 73 130q53 92 99 167zM1461 202q-134 81 -307 81q-37 0 -61 -2q-53 -91 -53 -154q0 -113 105 -113q119 0 316 188zM1546 141q-27 25 -62 47q-206 -198 -341 -198q-80 0 -128.5 54.5t-48.5 141.5q0 31 7 76
q-245 -58 -415 -224t-170 -357q0 -118 85 -187.5t226 -69.5q456 0 847 717z" />
    <glyph glyph-name="agrave" unicode="&#xe0;" 
d="M702 639q-4 -8 -13 -8q-30 0 -71 75t-63 161l105 74q-22 -64 -22 -112q0 -103 54 -176q10 -9 10 -14zM902 313q0 -21 -146 -195q-121 -145 -192 -145q-49 0 -80.5 35.5t-31.5 89.5t-6 43q-48 -67 -102.5 -117.5t-107.5 -50.5q-57 0 -94.5 47t-37.5 117q0 195 273 343
q121 67 197 67q68 0 68 -64q0 -18 10 17l22 40q36 -8 58 -8q25 0 80 9l-180 -300q-92 -153 -92 -202q0 -43 32 -43q35 0 122 89.5t178 224.5q6 13 17 13q13 0 13 -10zM614 479q0 45 -38 45q-88 0 -236 -178.5t-148 -288.5q0 -61 50 -61q66 0 234 226q138 189 138 257z" />
    <glyph glyph-name="aacute" unicode="&#xe1;" 
d="M1016 843q-99 -78 -252 -141q-119 -51 -137 -51q-8 0 -13 5q0 4 15 13q232 111 339 248zM902 313q0 -21 -146 -195q-121 -145 -192 -145q-49 0 -80.5 35.5t-31.5 89.5t-6 43q-48 -67 -102.5 -117.5t-107.5 -50.5q-57 0 -94.5 47t-37.5 117q0 195 273 343q121 67 197 67
q68 0 68 -64q0 -18 10 17l22 40q36 -8 58 -8q25 0 80 9l-180 -300q-92 -153 -92 -202q0 -43 32 -43q35 0 122 89.5t178 224.5q6 13 17 13q13 0 13 -10zM614 479q0 45 -38 45q-88 0 -236 -178.5t-148 -288.5q0 -61 50 -61q66 0 234 226q138 189 138 257z" />
    <glyph glyph-name="acircumflex" unicode="&#xe2;" 
d="M827 921q-13 -145 -19 -264q0 -12 -11 -12t-13 27q-6 86 -19 115q-56 -36 -177 -90t-155 -54q-14 0 -14 9q4 4 18 10q110 46 221 117t169 142zM902 313q0 -21 -146 -195q-121 -145 -192 -145q-49 0 -80.5 35.5t-31.5 89.5t-6 43q-48 -67 -102.5 -117.5t-107.5 -50.5
q-57 0 -94.5 47t-37.5 117q0 195 273 343q121 67 197 67q68 0 68 -64q0 -18 10 17l22 40q36 -8 58 -8q25 0 80 9l-180 -300q-92 -153 -92 -202q0 -43 32 -43q35 0 122 89.5t178 224.5q6 13 17 13q13 0 13 -10zM614 479q0 45 -38 45q-88 0 -236 -178.5t-148 -288.5
q0 -61 50 -61q66 0 234 226q138 189 138 257z" />
    <glyph glyph-name="atilde" unicode="&#xe3;" 
d="M898 727q0 -16 -57.5 -42.5t-88.5 -26.5q-32 0 -90 14l-21 4q-93 25 -120 25q-21 0 -52 -14q-11 -7 -18 -7q-13 0 -13 8q0 16 57.5 43t90.5 27q36 0 123 -21l45 -10q42 -10 64 -10q30 0 55 13q10 5 14 5q11 0 11 -8zM902 313q0 -21 -146 -195q-121 -145 -192 -145
q-49 0 -80.5 35.5t-31.5 89.5t-6 43q-48 -67 -102.5 -117.5t-107.5 -50.5q-57 0 -94.5 47t-37.5 117q0 195 273 343q121 67 197 67q68 0 68 -64q0 -18 10 17l22 40q36 -8 58 -8q25 0 80 9l-180 -300q-92 -153 -92 -202q0 -43 32 -43q35 0 122 89.5t178 224.5q6 13 17 13
q13 0 13 -10zM614 479q0 45 -38 45q-88 0 -236 -178.5t-148 -288.5q0 -61 50 -61q66 0 234 226q138 189 138 257z" />
    <glyph glyph-name="egrave" unicode="&#xe8;" horiz-adv-x="503" 
d="M671 639q-4 -8 -13 -8q-30 0 -71 75t-63 161l105 74q-22 -64 -22 -112q0 -103 55 -176q9 -9 9 -14zM704 313q0 -5 -20 -27l-43 -54q-209 -259 -360 -259q-76 0 -124.5 52t-48.5 129q0 182 255 320q133 73 219 73q38 0 65.5 -23t27.5 -55q0 -74 -95 -125t-315 -95
q-65 -99 -65 -169q0 -82 85 -82q154 0 381 306q14 19 29 19q9 -4 9 -10zM606 498q0 28 -28 28q-50 0 -134.5 -72.5t-161.5 -179.5q126 32 225 98.5t99 125.5z" />
    <glyph glyph-name="eacute" unicode="&#xe9;" horiz-adv-x="503" 
d="M985 843q-99 -78 -252 -141q-118 -51 -137 -51q-8 0 -13 5q0 4 15 13q232 111 339 248zM704 313q0 -5 -20 -27l-43 -54q-209 -259 -360 -259q-76 0 -124.5 52t-48.5 129q0 182 255 320q133 73 219 73q38 0 65.5 -23t27.5 -55q0 -74 -95 -125t-315 -95q-65 -99 -65 -169
q0 -82 85 -82q154 0 381 306q14 19 29 19q9 -4 9 -10zM606 498q0 28 -28 28q-50 0 -134.5 -72.5t-161.5 -179.5q126 32 225 98.5t99 125.5z" />
    <glyph glyph-name="ecircumflex" unicode="&#xea;" horiz-adv-x="503" 
d="M798 921q-12 -145 -19 -264q0 -12 -11 -12t-13 27q-6 86 -19 115q-56 -36 -176.5 -90t-155.5 -54q-13 0 -13 9q4 4 17 10q111 46 221.5 117t168.5 142zM704 313q0 -5 -20 -27l-43 -54q-209 -259 -360 -259q-76 0 -124.5 52t-48.5 129q0 182 255 320q133 73 219 73
q38 0 65.5 -23t27.5 -55q0 -74 -95 -125t-315 -95q-65 -99 -65 -169q0 -82 85 -82q154 0 381 306q14 19 29 19q9 -4 9 -10zM606 498q0 28 -28 28q-50 0 -134.5 -72.5t-161.5 -179.5q126 32 225 98.5t99 125.5z" />
    <glyph glyph-name="igrave" unicode="&#xec;" horiz-adv-x="344" 
d="M474 639q-4 -8 -13 -8q-30 0 -71 75t-63 161l105 74q-22 -64 -22 -112q0 -103 55 -176q9 -9 9 -14zM542 313q0 -5 -12 -17l-42 -59q-191 -264 -293 -264q-52 0 -85 34.5t-33 86.5q0 58 70 177l158 269q36 -8 53 -8q26 0 87 9l-231 -380q-49 -79 -49 -124q0 -41 40 -41
q85 0 306 314q6 13 17 13q14 0 14 -10z" />
    <glyph glyph-name="iacute" unicode="&#xed;" horiz-adv-x="344" 
d="M788 843q-99 -78 -251 -141q-119 -51 -138 -51q-8 0 -13 5q0 5 16 13q231 111 338 248zM542 313q0 -5 -12 -17l-42 -59q-191 -264 -293 -264q-52 0 -85 34.5t-33 86.5q0 58 70 177l158 269q36 -8 53 -8q26 0 87 9l-231 -380q-49 -79 -49 -124q0 -41 40 -41q85 0 306 314
q6 13 17 13q14 0 14 -10z" />
    <glyph glyph-name="ograve" unicode="&#xf2;" horiz-adv-x="593" 
d="M693 639q-4 -8 -13 -8q-29 0 -70 75t-64 161l105 73q-21 -63 -21 -111q0 -103 54 -176q9 -9 9 -14zM792 315q0 -17 -61 -77q-90 -90 -167 -90q-33 0 -53 10q-129 -185 -251 -185q-63 0 -107.5 51t-44.5 121q0 155 205 299q143 103 238 103q93 0 93 -96q0 -116 -120 -276
q16 -9 37 -9q43 0 100.5 41t96.5 99q15 17 23 17q11 0 11 -8zM616 449q0 77 -67 77q-86 0 -215.5 -172.5t-129.5 -290.5q0 -65 58 -65q104 0 229 174q-29 30 -29 66q0 50 40.5 103.5t81.5 53.5q22 0 24 -6q8 17 8 60z" />
    <glyph glyph-name="oacute" unicode="&#xf3;" horiz-adv-x="593" 
d="M961 843q-100 -78 -252 -141q-119 -51 -137 -51q-8 0 -13 5q0 4 15 13q231 111 339 248zM792 315q0 -17 -61 -77q-90 -90 -167 -90q-33 0 -53 10q-129 -185 -251 -185q-63 0 -107.5 51t-44.5 121q0 155 205 299q143 103 238 103q93 0 93 -96q0 -116 -120 -276
q16 -9 37 -9q43 0 100.5 41t96.5 99q15 17 23 17q11 0 11 -8zM616 449q0 77 -67 77q-86 0 -215.5 -172.5t-129.5 -290.5q0 -65 58 -65q104 0 229 174q-29 30 -29 66q0 50 40.5 103.5t81.5 53.5q22 0 24 -6q8 17 8 60z" />
    <glyph glyph-name="ocircumflex" unicode="&#xf4;" horiz-adv-x="593" 
d="M796 921q-12 -145 -19 -264q0 -12 -11 -12t-13 27q-6 86 -19 115q-56 -36 -177 -90t-155 -54q-13 0 -13 9q4 4 17 10q111 46 221.5 117t168.5 142zM792 315q0 -17 -61 -77q-90 -90 -167 -90q-33 0 -53 10q-129 -185 -251 -185q-63 0 -107.5 51t-44.5 121q0 155 205 299
q143 103 238 103q93 0 93 -96q0 -116 -120 -276q16 -9 37 -9q43 0 100.5 41t96.5 99q15 17 23 17q11 0 11 -8zM616 449q0 77 -67 77q-86 0 -215.5 -172.5t-129.5 -290.5q0 -65 58 -65q104 0 229 174q-29 30 -29 66q0 50 40.5 103.5t81.5 53.5q22 0 24 -6q8 17 8 60z" />
    <glyph glyph-name="otilde" unicode="&#xf5;" horiz-adv-x="593" 
d="M845 727q0 -16 -58 -42.5t-88 -26.5q-32 0 -90 14l-21 4q-93 25 -121 25q-20 0 -51 -14q-11 -7 -18 -7q-14 0 -14 8q0 16 58 43t91 27q36 0 123 -21l45 -10q42 -10 63 -10q31 0 56 13q10 5 14 5q11 0 11 -8zM792 315q0 -17 -61 -77q-90 -90 -167 -90q-33 0 -53 10
q-129 -185 -251 -185q-63 0 -107.5 51t-44.5 121q0 155 205 299q143 103 238 103q93 0 93 -96q0 -116 -120 -276q16 -9 37 -9q43 0 100.5 41t96.5 99q15 17 23 17q11 0 11 -8zM616 449q0 77 -67 77q-86 0 -215.5 -172.5t-129.5 -290.5q0 -65 58 -65q104 0 229 174
q-29 30 -29 66q0 50 40.5 103.5t81.5 53.5q22 0 24 -6q8 17 8 60z" />
    <glyph glyph-name="divide" unicode="&#xf7;" horiz-adv-x="1706" 
 />
    <glyph glyph-name="glyph217" unicode="&#xf9;" horiz-adv-x="641" 
d="M601 639q-4 -8 -13 -8q-30 0 -71 75t-63 161l105 74q-22 -64 -22 -112q0 -103 55 -176q9 -9 9 -14zM841 313q0 -23 -147 -195q-123 -145 -196 -145q-47 0 -79.5 36.5t-32.5 88.5q0 39 -5 30q-55 -69 -96 -107q-52 -48 -97 -48q-49 0 -80 35.5t-31 87.5q0 58 45 134
l185 310q40 -8 58 -8q17 0 78 9l-241 -399q-37 -60 -37 -105q0 -41 32 -41q95 0 316 374l102 170q35 -8 55 -8q25 0 82 9l-163 -268q-115 -185 -115 -238q0 -39 34 -39q76 0 253 249l32 43l17 22q6 13 17 13q14 0 14 -10z" />
    <glyph glyph-name="glyph218" unicode="&#xfa;" horiz-adv-x="641" 
d="M938 843q-99 -78 -252 -141q-119 -51 -137 -51q-8 0 -13 5q0 4 15 13q232 111 339 248zM841 313q0 -23 -147 -195q-123 -145 -196 -145q-47 0 -79.5 36.5t-32.5 88.5q0 39 -5 30q-55 -69 -96 -107q-52 -48 -97 -48q-49 0 -80 35.5t-31 87.5q0 58 45 134l185 310
q40 -8 58 -8q17 0 78 9l-241 -399q-37 -60 -37 -105q0 -41 32 -41q95 0 316 374l102 170q35 -8 55 -8q25 0 82 9l-163 -268q-115 -185 -115 -238q0 -39 34 -39q76 0 253 249l32 43l17 22q6 13 17 13q14 0 14 -10z" />
    <glyph glyph-name="glyph235" unicode="&#xfd;" horiz-adv-x="630" 
d="M933 843q-100 -78 -252 -141q-119 -51 -137 -51q-7 0 -14 5q0 5 16 13q231 111 339 248zM829 313q0 -17 -111 -139q-121 -133 -318 -242l-48 -87q-146 -261 -304 -388q-167 -133 -289 -133q-45 0 -74 27t-29 67q0 203 466 419q39 19 115 53l12 8l125 223
q-41 -57 -89.5 -102.5t-99.5 -45.5q-45 0 -77 36.5t-32 84.5q0 58 72 179l156 264q28 -5 57 -5q26 0 83 9l-201 -327q-84 -136 -84 -177t34 -41q104 0 325 380l95 161q28 -5 60 -5q27 0 78 9q-129 -204 -333 -571q102 53 185.5 126.5t188.5 205.5q16 21 24 21q13 0 13 -10z
M230 -133q2 1 -94 -48q-452 -224 -452 -403q0 -71 77 -71q103 0 206 114t258 400z" />
    <glyph glyph-name="Abreve" unicode="&#x102;" horiz-adv-x="1951" 
d="M2964 1196q0 -22 -27 -22q-15 0 -70 12q-105 24 -176 24q-165 -52 -281.5 -187t-284.5 -469q-241 -477 -598 -559q57 -9 116 -9q178 0 303 116q74 70 200 239q13 17 25 17q9 -4 9 -10q0 -15 -116 -154q-106 -133 -195 -182t-220 -49q-75 0 -177 21q-68 -21 -149 -21
q-64 0 -64 25q0 28 85 28q52 0 127 -10q148 34 229.5 122t300.5 452h-371q-559 -619 -973 -619q-190 0 -300 106t-110 283q0 218 169 413.5t418 271.5q84 163 254.5 270.5t347.5 107.5q105 0 167.5 -53.5t62.5 -145.5q0 -69 -47 -162q-43 -83 -43 -114q0 -70 79 -70
q96 0 200 145q10 15 21 15q15 0 15 -12q0 -11 -48 -66q-96 -108 -188 -108q-62 0 -99 42.5t-37 108.5q0 62 65 182q31 54 31 95q0 50 -53.5 83.5t-129.5 33.5q-159 0 -318.5 -99.5t-238.5 -242.5q62 14 120 14q152 0 237.5 -79.5t85.5 -217.5q0 -33 -2 -43q67 52 113 160
q3 14 15 14q15 0 15 -14q0 -30 -46.5 -92t-102.5 -108q-35 -193 -207.5 -346t-354.5 -153q-101 0 -166 64t-65 159q0 115 74.5 226.5t194.5 180.5q-2 24 -2 36q0 72 31 150q-198 -73 -348.5 -273t-150.5 -404q0 -150 93 -240.5t246 -90.5q180 0 357.5 123.5t494.5 468.5
q-125 0 -194 -2l19 28q100 0 198 -2q291 324 568 474.5t586 154.5q66 14 134 14q146 0 146 -51zM2596 1204q-213 -12 -434 -146t-511 -454h365q124 216 306 396.5t274 203.5zM1271 786q0 114 -73.5 181t-193.5 67q-72 0 -146 -25q-40 -89 -40 -181q98 50 151 50q17 0 17 -10
q0 -11 -42 -20q-56 -13 -124 -48q34 -196 227 -196q97 0 208 70q16 57 16 112zM1241 635q-95 -55 -199 -55q-103 0 -170.5 56.5t-82.5 145.5q-101 -61 -169 -164.5t-68 -205.5q0 -94 53.5 -149.5t140.5 -55.5q140 0 283.5 126.5t211.5 301.5zM2956 1588q-5 -22 -69 -79
q-95 -85 -198 -94q-76 -7 -115 34t-24 108q10 44 29 45q11 0 11 -20q-2 -49 33 -76t95 -20q107 10 197 89q21 19 30 21q13 0 11 -8z" />
    <glyph glyph-name="abreve" unicode="&#x103;" 
d="M902 313q0 -21 -146 -195q-121 -145 -192 -145q-49 0 -80.5 35.5t-31.5 89.5t-6 43q-48 -67 -102.5 -117.5t-107.5 -50.5q-57 0 -94.5 47t-37.5 117q0 195 273 343q121 67 197 67q68 0 68 -64q0 -18 10 17l22 40q36 -8 58 -8q25 0 80 9l-180 -300q-92 -153 -92 -202
q0 -43 32 -43q35 0 122 89.5t178 224.5q6 13 17 13q13 0 13 -10zM614 479q0 45 -38 45q-88 0 -236 -178.5t-148 -288.5q0 -61 50 -61q66 0 234 226q138 189 138 257zM968 777q-5 -22 -69 -79q-95 -85 -198 -94q-76 -7 -115 34t-24 108q11 44 29 45q11 0 11 -20
q-2 -49 33.5 -76t94.5 -20q107 10 198 89q20 19 29 21q13 0 11 -8z" />
    <glyph glyph-name="Ccaron" unicode="&#x10c;" horiz-adv-x="1274" 
 />
    <glyph glyph-name="ccaron" unicode="&#x10d;" horiz-adv-x="922" 
 />
    <glyph glyph-name="Dslash" unicode="&#x110;" horiz-adv-x="1734" 
d="M2582 1028q0 -51 -12.5 -109.5t-29.5 -58.5q-13 0 -13 10q0 7 2 13q23 61 23 143q0 126 -74.5 200.5t-197.5 74.5q-244 0 -462 -228q86 -160 86 -336q0 -328 -253.5 -558t-619.5 -230q-114 0 -307 31q-169 -31 -324 -31q-271 0 -271 57q0 29 67.5 49.5t154.5 20.5
q105 0 414 -68q190 50 306 154.5t296 392.5h-162l8 27h171q196 314 383 495q-143 242 -466 242q-334 0 -614 -264q-144 -134 -227.5 -294.5t-83.5 -299.5q0 -106 69.5 -169t182.5 -63q190 0 389 210.5t199 414.5q0 65 -37 105.5t-93 40.5q-139 0 -295 -178t-156 -337
q0 -100 79 -100h6q4 2 8 2q13 0 13 -10q0 -12 -25 -12q-62 0 -98 48.5t-36 125.5q0 164 166 324.5t338 160.5q74 0 118.5 -48.5t44.5 -125.5q0 -212 -208.5 -429.5t-412.5 -217.5q-148 0 -241.5 93.5t-93.5 238.5q0 172 115 349t305 295q266 166 594 166q329 0 491 -238
q243 220 495 220q131 0 210 -82.5t79 -216.5zM1835 811q0 125 -48 229q-108 -119 -233 -377q-14 -31 -39 -81h193l-10 -27h-197q-108 -230 -265.5 -358t-419.5 -201q109 -23 252 -23q380 0 613 366q154 239 154 472zM662 -10q-251 35 -385 35q-114 0 -114 -19q0 -31 256 -31
q150 0 243 15z" />
    <glyph glyph-name="dcroat" unicode="&#x111;" 
d="M612 475q0 49 -42 49q-86 0 -232 -178.5t-146 -286.5q0 -63 48 -63q75 0 268 275q104 149 104 204zM811 758l159 266q38 -12 69 -12q8 0 72 5q-92 -147 -162 -259h129l-8 -35h-143q-220 -352 -292 -475q-99 -166 -99 -211q0 -41 34 -41q85 0 302 314q7 13 18 13
q13 0 13 -10q0 -5 -11 -17l-42 -59q-192 -264 -286 -264q-49 0 -80 36.5t-31 90.5t-2 50q-124 -177 -215 -177q-57 0 -94.5 47t-37.5 117q0 167 207 302q164 108 261 108q69 0 69 -64q0 -28 46 67l103 173h-187l8 35h200z" />
    <glyph glyph-name="Itilde" unicode="&#x128;" horiz-adv-x="1472" 
d="M2262 1323q0 -18 -85 -55.5t-191 -66.5q-135 -99 -250 -249t-255 -410q5 -1 20 -1q118 0 219.5 73t123.5 179q5 20 18 20t13 -12q0 -61 -67 -140q-51 -63 -137 -104t-170 -41q-14 0 -32 2q-90 -165 -114 -201.5t-73 -91.5q-116 -126 -289.5 -200t-345.5 -74
q-197 0 -317 101t-120 267q0 212 200.5 383.5t447.5 171.5q143 0 228.5 -79t85.5 -211q0 -182 -151 -335t-333 -153q-98 0 -164 68t-66 168q0 136 122 244t280 108q53 0 104 -27.5t51 -58.5q0 -10 -16 -10q-6 0 -14 9q-42 63 -115 63q-127 0 -242 -113.5t-115 -241.5
q0 -85 49.5 -133.5t133.5 -48.5q160 0 302 148t142 315q0 115 -77.5 188.5t-196.5 73.5q-227 0 -408 -178.5t-181 -407.5q0 -124 98.5 -204.5t249.5 -80.5q299 0 536 298q51 64 191 273q-171 73 -171 240q0 201 228 300q110 49 362 92q93 16 154 28l47 9q52 39 141 79.5
t125 40.5q24 0 24 -14zM1931 1186l-45 -10q-37 -9 -108 -27q-242 -56 -385 -168t-143 -244q0 -117 115 -170q261 416 566 619zM2188 1481q0 -16 -60 -43.5t-90 -27.5q-32 0 -93 14l-20 4q-97 25 -125 25q-25 0 -52 -14q-11 -7 -20 -7q-13 0 -13 8t52.5 40t100.5 32
q25 0 124 -23q88 -20 113 -20q32 0 55 15q11 5 17 5q11 -4 11 -8z" />
    <glyph glyph-name="itilde" unicode="&#x129;" horiz-adv-x="344" 
d="M542 313q0 -5 -12 -17l-42 -59q-191 -264 -293 -264q-52 0 -85 34.5t-33 86.5q0 58 70 177l158 269q36 -8 53 -8q26 0 87 9l-231 -380q-49 -79 -49 -124q0 -41 40 -41q85 0 306 314q6 13 17 13q14 0 14 -10zM692 727q0 -16 -58 -42.5t-88 -26.5q-32 0 -90 14l-21 4
q-93 25 -121 25q-20 0 -51 -14q-11 -7 -18 -7q-14 0 -14 8q0 16 58 43t91 27q36 0 123 -21l45 -10q42 -10 63 -10q31 0 56 13q10 5 14 5q11 0 11 -8z" />
    <glyph glyph-name="Utilde" unicode="&#x168;" horiz-adv-x="1851" 
d="M2204 1552q0 -16 -59.5 -43.5t-90.5 -27.5q-32 0 -92 14l-21 4q-97 25 -125 25q-24 0 -52 -14q-10 -7 -19 -7q-13 0 -13 8t52 40t100 32q25 0 125 -23q87 -20 112 -20q32 0 55 15q11 5 17 5q11 -4 11 -8zM2382 1243q-699 -959 -699 -1235q0 -66 42.5 -108.5t108.5 -42.5
q115 0 227 124q10 13 21 13q13 0 13 -12t-36 -43q-122 -107 -225 -107q-100 0 -164 75.5t-64 188.5q0 195 111 370q-162 -228 -329.5 -371.5t-280.5 -143.5q-76 0 -121.5 53.5t-45.5 140.5q0 91 49 182.5t218 310.5q175 231 223.5 321t48.5 192q0 95 -69 149t-186 54
q-302 0 -583 -277t-281 -575q0 -112 62 -179t163 -67q196 0 377 222q191 238 191 431q0 162 -128 162q-133 0 -275 -161t-142 -316q0 -38 22 -65t51 -27h6q6 2 14 2q15 0 15 -12q0 -15 -27 -15q-61 0 -98.5 46.5t-37.5 119.5q0 151 155 303t313 152q164 0 164 -187
q0 -197 -189 -435q-194 -247 -411 -247q-129 0 -207.5 88t-78.5 230q0 331 346 600q133 105 291.5 169t284.5 64q156 0 241.5 -83.5t85.5 -229.5q0 -123 -60.5 -234t-305.5 -435q-105 -141 -138 -201t-33 -113q0 -48 28.5 -78.5t71.5 -30.5q147 0 410.5 300.5t689.5 959.5
q57 -4 63 -4q38 0 108 12z" />
    <glyph glyph-name="utilde" unicode="&#x169;" horiz-adv-x="641" 
d="M841 313q0 -23 -147 -195q-123 -145 -196 -145q-47 0 -79.5 36.5t-32.5 88.5q0 39 -5 30q-55 -69 -96 -107q-52 -48 -97 -48q-49 0 -80 35.5t-31 87.5q0 58 45 134l185 310q40 -8 58 -8q17 0 78 9l-241 -399q-37 -60 -37 -105q0 -41 32 -41q95 0 316 374l102 170
q35 -8 55 -8q25 0 82 9l-163 -268q-115 -185 -115 -238q0 -39 34 -39q76 0 253 249l32 43l17 22q6 13 17 13q14 0 14 -10zM844 727q0 -16 -57.5 -42.5t-88.5 -26.5q-32 0 -90 14l-21 4q-93 25 -121 25q-20 0 -51 -14q-11 -7 -18 -7q-13 0 -13 8q0 16 57.5 43t90.5 27
q36 0 123 -21l45 -10q42 -10 63 -10q31 0 56 13q10 5 14 5q11 0 11 -8z" />
    <glyph glyph-name="Ohorn" unicode="&#x1a0;" horiz-adv-x="1583" 
d="M1771 1118q0 100 -65 163t-166 63q-216 0 -437 -156q-212 -154 -348 -390q-144 -245 -144 -489q0 -156 84.5 -254t218.5 -98q179 0 373 149q190 148 314 368q133 231 135 416q-15 -33 -98.5 -125.5t-115.5 -92.5q-15 0 -15 12q0 5 16 16q64 45 126 120.5t87 137.5
q-23 242 -259 242q-211 0 -426 -233q-262 -284 -262 -547q0 -89 49 -144t127 -55q143 0 288 203t145 373q0 56 -27 92.5t-68 36.5q-11 0 -15 -2h-10q-15 0 -15 10q0 16 40 16q65 0 105.5 -53.5t40.5 -136.5q0 -200 -156 -382.5t-330 -182.5q-99 0 -157.5 70t-58.5 179
q0 264 242 522.5t490 258.5q216 0 290 -142q2 11 2 35zM1803 1009q31 -86 31 -173q0 -166 -92.5 -337.5t-258.5 -314.5q-298 -254 -567 -254q-183 0 -299 133t-116 338q0 177 97 361.5t264 329.5q145 121 327.5 200.5t324.5 79.5q132 0 209.5 -68t77.5 -182q0 -37 -7 -81
q32 19 57 36q43 30 71 69q0 3 -4 3q-58 -2 -61 52q-2 45 43 99t88 56q52 2 55 -52q3 -79 -75 -174q-44 -57 -124 -100q-23 -12 -41 -21z" />
    <glyph glyph-name="ohorn" unicode="&#x1a1;" horiz-adv-x="593" 
d="M615 449q0 77 -66 77q-86 0 -216 -172.5t-130 -290.5q0 -65 59 -65q104 0 229 174q-29 30 -29 66q0 50 40.5 103.5t81.5 53.5q22 0 23 -5q8 16 8 59zM642 423q-12 -106 -118 -248q15 -9 37 -9q42 0 100 41t97 99q14 17 22 17q11 0 11 -8q0 -17 -61 -78q-89 -89 -167 -89
q-33 0 -52 9q-129 -184 -251 -184q-63 0 -107.5 51t-44.5 121q0 155 204 299q144 103 239 103q93 0 93 -96v3q-2 -1 5 2q32 16 55 41q0 1 -2 1q-41 4 -38 42q3 33 40 67t69 31q38 -4 35 -42q-5 -55 -70 -116q-37 -36 -99 -59q1 0 3 2z" />
    <glyph glyph-name="Uhorn" unicode="&#x1af;" horiz-adv-x="1851" 
d="M2271 1089q-588 -826 -588 -1081q0 -66 42.5 -108.5t108.5 -42.5q115 0 227 124q10 13 21 13q13 0 13 -12t-36 -43q-122 -107 -225 -107q-100 0 -164 75.5t-64 188.5q0 195 111 370q-162 -228 -329.5 -371.5t-280.5 -143.5q-76 0 -121.5 53.5t-45.5 140.5q0 91 49 182.5
t218 310.5q175 231 223.5 321t48.5 192q0 95 -69 149t-186 54q-302 0 -583 -277t-281 -575q0 -112 62 -179t163 -67q196 0 377 222q191 238 191 431q0 162 -128 162q-133 0 -275 -161t-142 -316q0 -38 22 -65t51 -27h6q6 2 14 2q15 0 15 -12q0 -15 -27 -15q-61 0 -98.5 46.5
t-37.5 119.5q0 151 155 303t313 152q164 0 164 -187q0 -197 -189 -435q-194 -247 -411 -247q-129 0 -207.5 88t-78.5 230q0 331 346 600q133 105 291.5 169t284.5 64q156 0 241.5 -83.5t85.5 -229.5q0 -123 -60.5 -234t-305.5 -435q-105 -141 -138 -201t-33 -113
q0 -48 28.5 -78.5t71.5 -30.5q147 0 410.5 300.5t689.5 959.5q57 -4 63 -4q38 0 108 12q-47 -64 -78 -108q17 7 44 21q46 23 79 59q0 3 -5 3q-56 6 -52 59q4 45 56 93t94 44q52 -6 48 -58q-7 -78 -98 -163q-52 -52 -137 -82q-39 -16 -62 -22z" />
    <glyph glyph-name="uhorn" unicode="&#x1b0;" horiz-adv-x="641" 
d="M724 537v3q3 33 40 67t69 31q38 -4 35 -42q-5 -55 -69 -116q-37 -36 -98 -58q-15 -6 -27 -10l-85 -139q-115 -185 -115 -238q0 -39 34 -39q76 0 253 249l32 43l17 22q6 13 17 13q14 0 14 -10q0 -23 -147 -195q-123 -145 -196 -145q-47 0 -79.5 36.5t-32.5 88.5
q0 39 -5 30q-55 -69 -96 -107q-52 -48 -97 -48q-49 0 -80 35.5t-31 87.5q0 58 45 134l185 310q40 -8 58 -8q17 0 78 9l-241 -399q-37 -60 -37 -105q0 -41 32 -41q95 0 316 374l102 170q35 -8 55 -8q18 0 54 5zM696 448q7 4 13 7q33 17 55 42q0 1 -2 1q-20 2 -29 12z" />
    <glyph glyph-name="uni1EA0" unicode="&#x1ea0;" horiz-adv-x="1951" 
d="M1196 -256q0 -40 -30 -71.5t-69 -31.5q-56 0 -56 51q0 36 32 67.5t71 31.5q52 0 52 -47zM2964 1196q0 -22 -27 -22q-15 0 -70 12q-105 24 -176 24q-165 -52 -281.5 -187t-284.5 -469q-241 -477 -598 -559q57 -9 116 -9q178 0 303 116q74 70 200 239q13 17 25 17
q9 -4 9 -10q0 -15 -116 -154q-106 -133 -195 -182t-220 -49q-75 0 -177 21q-68 -21 -149 -21q-64 0 -64 25q0 28 85 28q52 0 127 -10q148 34 229.5 122t300.5 452h-371q-559 -619 -973 -619q-190 0 -300 106t-110 283q0 218 169 413.5t418 271.5q84 163 254.5 270.5
t347.5 107.5q105 0 167.5 -53.5t62.5 -145.5q0 -69 -47 -162q-43 -83 -43 -114q0 -70 79 -70q96 0 200 145q10 15 21 15q15 0 15 -12q0 -11 -48 -66q-96 -108 -188 -108q-62 0 -99 42.5t-37 108.5q0 62 65 182q31 54 31 95q0 50 -53.5 83.5t-129.5 33.5q-159 0 -318.5 -99.5
t-238.5 -242.5q62 14 120 14q152 0 237.5 -79.5t85.5 -217.5q0 -33 -2 -43q67 52 113 160q3 14 15 14q15 0 15 -14q0 -30 -46.5 -92t-102.5 -108q-35 -193 -207.5 -346t-354.5 -153q-101 0 -166 64t-65 159q0 115 74.5 226.5t194.5 180.5q-2 24 -2 36q0 72 31 150
q-198 -73 -348.5 -273t-150.5 -404q0 -150 93 -240.5t246 -90.5q180 0 357.5 123.5t494.5 468.5q-125 0 -194 -2l19 28q100 0 198 -2q291 324 568 474.5t586 154.5q66 14 134 14q146 0 146 -51zM2596 1204q-213 -12 -434 -146t-511 -454h365q124 216 306 396.5t274 203.5z
M1271 786q0 114 -73.5 181t-193.5 67q-72 0 -146 -25q-40 -89 -40 -181q98 50 151 50q17 0 17 -10q0 -11 -42 -20q-56 -13 -124 -48q34 -196 227 -196q97 0 208 70q16 57 16 112zM1241 635q-95 -55 -199 -55q-103 0 -170.5 56.5t-82.5 145.5q-101 -61 -169 -164.5
t-68 -205.5q0 -94 53.5 -149.5t140.5 -55.5q140 0 283.5 126.5t211.5 301.5z" />
    <glyph glyph-name="uni1EA1" unicode="&#x1ea1;" 
d="M902 313q0 -21 -146 -195q-121 -145 -192 -145q-49 0 -80.5 35.5t-31.5 89.5t-6 43q-48 -67 -102.5 -117.5t-107.5 -50.5q-57 0 -94.5 47t-37.5 117q0 195 273 343q121 67 197 67q68 0 68 -64q0 -18 10 17l22 40q36 -8 58 -8q25 0 80 9l-180 -300q-92 -153 -92 -202
q0 -43 32 -43q35 0 122 89.5t178 224.5q6 13 17 13q13 0 13 -10zM614 479q0 45 -38 45q-88 0 -236 -178.5t-148 -288.5q0 -61 50 -61q66 0 234 226q138 189 138 257zM429 -140q0 -40 -30 -71.5t-69 -31.5q-56 0 -56 51q0 36 32 67.5t71 31.5q52 0 52 -47z" />
    <glyph glyph-name="uni1EA2" unicode="&#x1ea2;" horiz-adv-x="1951" 
d="M2964 1196q0 -22 -27 -22q-15 0 -70 12q-105 24 -176 24q-165 -52 -281.5 -187t-284.5 -469q-241 -477 -598 -559q57 -9 116 -9q178 0 303 116q74 70 200 239q13 17 25 17q9 -4 9 -10q0 -15 -116 -154q-106 -133 -195 -182t-220 -49q-75 0 -177 21q-68 -21 -149 -21
q-64 0 -64 25q0 28 85 28q52 0 127 -10q148 34 229.5 122t300.5 452h-371q-559 -619 -973 -619q-190 0 -300 106t-110 283q0 218 169 413.5t418 271.5q84 163 254.5 270.5t347.5 107.5q105 0 167.5 -53.5t62.5 -145.5q0 -69 -47 -162q-43 -83 -43 -114q0 -70 79 -70
q96 0 200 145q10 15 21 15q15 0 15 -12q0 -11 -48 -66q-96 -108 -188 -108q-62 0 -99 42.5t-37 108.5q0 62 65 182q31 54 31 95q0 50 -53.5 83.5t-129.5 33.5q-159 0 -318.5 -99.5t-238.5 -242.5q62 14 120 14q152 0 237.5 -79.5t85.5 -217.5q0 -33 -2 -43q67 52 113 160
q3 14 15 14q15 0 15 -14q0 -30 -46.5 -92t-102.5 -108q-35 -193 -207.5 -346t-354.5 -153q-101 0 -166 64t-65 159q0 115 74.5 226.5t194.5 180.5q-2 24 -2 36q0 72 31 150q-198 -73 -348.5 -273t-150.5 -404q0 -150 93 -240.5t246 -90.5q180 0 357.5 123.5t494.5 468.5
q-125 0 -194 -2l19 28q100 0 198 -2q291 324 568 474.5t586 154.5q66 14 134 14q146 0 146 -51zM2596 1204q-213 -12 -434 -146t-511 -454h365q124 216 306 396.5t274 203.5zM1271 786q0 114 -73.5 181t-193.5 67q-72 0 -146 -25q-40 -89 -40 -181q98 50 151 50q17 0 17 -10
q0 -11 -42 -20q-56 -13 -124 -48q34 -196 227 -196q97 0 208 70q16 57 16 112zM1241 635q-95 -55 -199 -55q-103 0 -170.5 56.5t-82.5 145.5q-101 -61 -169 -164.5t-68 -205.5q0 -94 53.5 -149.5t140.5 -55.5q140 0 283.5 126.5t211.5 301.5zM2864 1562q0 -63 -79 -113
q-30 -17 -135 -58q-92 -38 -100 -79q0 -12 4 -12q23 0 49 38q8 10 26 10q13 -6 13 -10q0 -8 -24 -31q-32 -29 -64 -29q-44 0 -44 33q0 22 27 46q14 11 25 19q15 10 67 39q161 89 161 175q0 59 -41 63q1 -5 1 -19q0 -70 -59 -136.5t-130 -66.5q-36 0 -56.5 20.5t-20.5 45.5
q0 66 74 122.5t144 56.5q-13 32 -46 32q-11 0 -21 -4q-7 -3 -17 -3q-16 5 -16 10q0 7 20 12.5t34 5.5q65 0 86 -54q48 -3 85 -36t37 -77zM2711 1634q0 15 -2 22q-54 0 -118 -60q-61 -58 -61 -109q0 -35 30 -35q46 0 98.5 60t52.5 122z" />
    <glyph glyph-name="uni1EA3" unicode="&#x1ea3;" 
d="M902 313q0 -21 -146 -195q-121 -145 -192 -145q-49 0 -80.5 35.5t-31.5 89.5t-6 43q-48 -67 -102.5 -117.5t-107.5 -50.5q-57 0 -94.5 47t-37.5 117q0 195 273 343q121 67 197 67q68 0 68 -64q0 -18 10 17l22 40q36 -8 58 -8q25 0 80 9l-180 -300q-92 -153 -92 -202
q0 -43 32 -43q35 0 122 89.5t178 224.5q6 13 17 13q13 0 13 -10zM614 479q0 45 -38 45q-88 0 -236 -178.5t-148 -288.5q0 -61 50 -61q66 0 234 226q138 189 138 257zM922 869q0 -58 -72 -103q-27 -16 -123 -53q-83 -35 -90 -72q0 -10 3 -10q20 0 44 34q6 9 24 9q13 -5 13 -9
q0 -7 -23 -28q-29 -27 -58 -27q-41 0 -41 30q0 20 25 43q13 10 23 17q13 9 61 35q120 78 129 159q8 48 -18 55v-15q0 -64 -54 -124.5t-119 -60.5q-33 0 -52 18.5t-19 42.5q0 60 67.5 111t130.5 51q-11 29 -41 29q-10 0 -18 -3q-6 -4 -17 -4q-14 5 -14 10q0 8 18.5 12.5
t30.5 4.5q59 0 80 -49q43 -3 76.5 -33t33.5 -70zM782 935q0 13 -2 18q-47 0 -103 -52q-55 -50 -55 -95q0 -30 27 -30q40 0 86.5 52.5t46.5 106.5z" />
    <glyph glyph-name="uni1EA4" unicode="&#x1ea4;" horiz-adv-x="1951" 
d="M3322 1806q-99 -74 -260 -143q-119 -53 -141 -53q-13 0 -13 9q0 4 15 11q97 47 199 119t149 137zM2964 1196q0 -22 -27 -22q-15 0 -70 12q-105 24 -176 24q-165 -52 -281.5 -187t-284.5 -469q-241 -477 -598 -559q57 -9 116 -9q178 0 303 116q74 70 200 239q13 17 25 17
q9 -4 9 -10q0 -15 -116 -154q-106 -133 -195 -182t-220 -49q-75 0 -177 21q-68 -21 -149 -21q-64 0 -64 25q0 28 85 28q52 0 127 -10q148 34 229.5 122t300.5 452h-371q-559 -619 -973 -619q-190 0 -300 106t-110 283q0 218 169 413.5t418 271.5q84 163 254.5 270.5
t347.5 107.5q105 0 167.5 -53.5t62.5 -145.5q0 -69 -47 -162q-43 -83 -43 -114q0 -70 79 -70q96 0 200 145q10 15 21 15q15 0 15 -12q0 -11 -48 -66q-96 -108 -188 -108q-62 0 -99 42.5t-37 108.5q0 62 65 182q31 54 31 95q0 50 -53.5 83.5t-129.5 33.5q-159 0 -318.5 -99.5
t-238.5 -242.5q62 14 120 14q152 0 237.5 -79.5t85.5 -217.5q0 -33 -2 -43q67 52 113 160q3 14 15 14q15 0 15 -14q0 -30 -46.5 -92t-102.5 -108q-35 -193 -207.5 -346t-354.5 -153q-101 0 -166 64t-65 159q0 115 74.5 226.5t194.5 180.5q-2 24 -2 36q0 72 31 150
q-198 -73 -348.5 -273t-150.5 -404q0 -150 93 -240.5t246 -90.5q180 0 357.5 123.5t494.5 468.5q-125 0 -194 -2l19 28q100 0 198 -2q291 324 568 474.5t586 154.5q66 14 134 14q146 0 146 -51zM2596 1204q-213 -12 -434 -146t-511 -454h365q124 216 306 396.5t274 203.5z
M1271 786q0 114 -73.5 181t-193.5 67q-72 0 -146 -25q-40 -89 -40 -181q98 50 151 50q17 0 17 -10q0 -11 -42 -20q-56 -13 -124 -48q34 -196 227 -196q97 0 208 70q16 57 16 112zM1241 635q-95 -55 -199 -55q-103 0 -170.5 56.5t-82.5 145.5q-101 -61 -169 -164.5
t-68 -205.5q0 -94 53.5 -149.5t140.5 -55.5q140 0 283.5 126.5t211.5 301.5zM2886 1747q-8 -92 -20 -268q0 -13 -14 -13q-8 6 -8 13q-6 102 -21 133q-51 -36 -179.5 -92t-163.5 -56q-13 0 -13 10q4 4 17 10q111 47 225.5 120t176.5 143z" />
    <glyph glyph-name="uni1EA5" unicode="&#x1ea5;" 
d="M1245 1001q-99 -78 -252 -141q-119 -51 -137 -51q-8 0 -13 5q0 4 15 13q232 111 339 248zM902 313q0 -21 -146 -195q-121 -145 -192 -145q-49 0 -80.5 35.5t-31.5 89.5t-6 43q-48 -67 -102.5 -117.5t-107.5 -50.5q-57 0 -94.5 47t-37.5 117q0 195 273 343q121 67 197 67
q68 0 68 -64q0 -18 10 17l22 40q36 -8 58 -8q25 0 80 9l-180 -300q-92 -153 -92 -202q0 -43 32 -43q35 0 122 89.5t178 224.5q6 13 17 13q13 0 13 -10zM614 479q0 45 -38 45q-88 0 -236 -178.5t-148 -288.5q0 -61 50 -61q66 0 234 226q138 189 138 257zM827 921
q-12 -145 -18 -264q0 -12 -11 -12q-12 0 -14 27q-6 86 -19 115q-56 -36 -176.5 -90t-155.5 -54q-13 0 -13 9q4 4 17 10q111 46 221.5 117t168.5 142z" />
    <glyph glyph-name="uni1EA6" unicode="&#x1ea6;" horiz-adv-x="1951" 
d="M2715 1644q-4 -8 -13 -8q-32 0 -75 77t-63 167l110 76q-25 -64 -25 -116q0 -107 58 -181l2 -4q6 -6 6 -11zM2964 1196q0 -22 -27 -22q-15 0 -70 12q-105 24 -176 24q-165 -52 -281.5 -187t-284.5 -469q-241 -477 -598 -559q57 -9 116 -9q178 0 303 116q74 70 200 239
q13 17 25 17q9 -4 9 -10q0 -15 -116 -154q-106 -133 -195 -182t-220 -49q-75 0 -177 21q-68 -21 -149 -21q-64 0 -64 25q0 28 85 28q52 0 127 -10q148 34 229.5 122t300.5 452h-371q-559 -619 -973 -619q-190 0 -300 106t-110 283q0 218 169 413.5t418 271.5
q84 163 254.5 270.5t347.5 107.5q105 0 167.5 -53.5t62.5 -145.5q0 -69 -47 -162q-43 -83 -43 -114q0 -70 79 -70q96 0 200 145q10 15 21 15q15 0 15 -12q0 -11 -48 -66q-96 -108 -188 -108q-62 0 -99 42.5t-37 108.5q0 62 65 182q31 54 31 95q0 50 -53.5 83.5t-129.5 33.5
q-159 0 -318.5 -99.5t-238.5 -242.5q62 14 120 14q152 0 237.5 -79.5t85.5 -217.5q0 -33 -2 -43q67 52 113 160q3 14 15 14q15 0 15 -14q0 -30 -46.5 -92t-102.5 -108q-35 -193 -207.5 -346t-354.5 -153q-101 0 -166 64t-65 159q0 115 74.5 226.5t194.5 180.5q-2 24 -2 36
q0 72 31 150q-198 -73 -348.5 -273t-150.5 -404q0 -150 93 -240.5t246 -90.5q180 0 357.5 123.5t494.5 468.5q-125 0 -194 -2l19 28q100 0 198 -2q291 324 568 474.5t586 154.5q66 14 134 14q146 0 146 -51zM2596 1204q-213 -12 -434 -146t-511 -454h365q124 216 306 396.5
t274 203.5zM1271 786q0 114 -73.5 181t-193.5 67q-72 0 -146 -25q-40 -89 -40 -181q98 50 151 50q17 0 17 -10q0 -11 -42 -20q-56 -13 -124 -48q34 -196 227 -196q97 0 208 70q16 57 16 112zM1241 635q-95 -55 -199 -55q-103 0 -170.5 56.5t-82.5 145.5
q-101 -61 -169 -164.5t-68 -205.5q0 -94 53.5 -149.5t140.5 -55.5q140 0 283.5 126.5t211.5 301.5zM2886 1747q-8 -92 -20 -268q0 -13 -14 -13q-8 6 -8 13q-6 102 -21 133q-51 -36 -179.5 -92t-163.5 -56q-13 0 -13 10q4 4 17 10q111 47 225.5 120t176.5 143z" />
    <glyph glyph-name="uni1EA7" unicode="&#x1ea7;" 
d="M711 844q-4 -8 -13 -8q-30 0 -71 75t-63 161l105 74q-22 -64 -22 -112q0 -103 54 -176q10 -9 10 -14zM902 313q0 -21 -146 -195q-121 -145 -192 -145q-49 0 -80.5 35.5t-31.5 89.5t-6 43q-48 -67 -102.5 -117.5t-107.5 -50.5q-57 0 -94.5 47t-37.5 117q0 195 273 343
q121 67 197 67q68 0 68 -64q0 -18 10 17l22 40q36 -8 58 -8q25 0 80 9l-180 -300q-92 -153 -92 -202q0 -43 32 -43q35 0 122 89.5t178 224.5q6 13 17 13q13 0 13 -10zM614 479q0 45 -38 45q-88 0 -236 -178.5t-148 -288.5q0 -61 50 -61q66 0 234 226q138 189 138 257z
M827 921q-12 -145 -18 -264q0 -12 -11 -12q-12 0 -14 27q-6 86 -19 115q-56 -36 -176.5 -90t-155.5 -54q-13 0 -13 9q4 4 17 10q111 46 221.5 117t168.5 142z" />
    <glyph glyph-name="uni1EA8" unicode="&#x1ea8;" horiz-adv-x="1951" 
d="M2964 1196q0 -22 -27 -22q-15 0 -70 12q-105 24 -176 24q-165 -52 -281.5 -187t-284.5 -469q-241 -477 -598 -559q57 -9 116 -9q178 0 303 116q74 70 200 239q13 17 25 17q9 -4 9 -10q0 -15 -116 -154q-106 -133 -195 -182t-220 -49q-75 0 -177 21q-68 -21 -149 -21
q-64 0 -64 25q0 28 85 28q52 0 127 -10q148 34 229.5 122t300.5 452h-371q-559 -619 -973 -619q-190 0 -300 106t-110 283q0 218 169 413.5t418 271.5q84 163 254.5 270.5t347.5 107.5q105 0 167.5 -53.5t62.5 -145.5q0 -69 -47 -162q-43 -83 -43 -114q0 -70 79 -70
q96 0 200 145q10 15 21 15q15 0 15 -12q0 -11 -48 -66q-96 -108 -188 -108q-62 0 -99 42.5t-37 108.5q0 62 65 182q31 54 31 95q0 50 -53.5 83.5t-129.5 33.5q-159 0 -318.5 -99.5t-238.5 -242.5q62 14 120 14q152 0 237.5 -79.5t85.5 -217.5q0 -33 -2 -43q67 52 113 160
q3 14 15 14q15 0 15 -14q0 -30 -46.5 -92t-102.5 -108q-35 -193 -207.5 -346t-354.5 -153q-101 0 -166 64t-65 159q0 115 74.5 226.5t194.5 180.5q-2 24 -2 36q0 72 31 150q-198 -73 -348.5 -273t-150.5 -404q0 -150 93 -240.5t246 -90.5q180 0 357.5 123.5t494.5 468.5
q-125 0 -194 -2l19 28q100 0 198 -2q291 324 568 474.5t586 154.5q66 14 134 14q146 0 146 -51zM2596 1204q-213 -12 -434 -146t-511 -454h365q124 216 306 396.5t274 203.5zM1271 786q0 114 -73.5 181t-193.5 67q-72 0 -146 -25q-40 -89 -40 -181q98 50 151 50q17 0 17 -10
q0 -11 -42 -20q-56 -13 -124 -48q34 -196 227 -196q97 0 208 70q16 57 16 112zM1241 635q-95 -55 -199 -55q-103 0 -170.5 56.5t-82.5 145.5q-101 -61 -169 -164.5t-68 -205.5q0 -94 53.5 -149.5t140.5 -55.5q140 0 283.5 126.5t211.5 301.5zM2886 1747q-8 -92 -20 -268
q0 -13 -14 -13q-8 6 -8 13q-6 102 -21 133q-51 -36 -179.5 -92t-163.5 -56q-13 0 -13 10q4 4 17 10q111 47 225.5 120t176.5 143zM3279 1888q0 -63 -80 -113q-29 -17 -134 -58q-92 -38 -100 -79q0 -12 3 -12q24 0 50 38q8 10 26 10q13 -6 13 -10q0 -8 -25 -31
q-31 -29 -64 -29q-43 0 -43 33q0 22 27 46q14 11 25 19q14 10 67 39q160 89 160 175q0 59 -40 63q1 -5 1 -19q0 -70 -59 -136.5t-130 -66.5q-36 0 -57 20.5t-21 45.5q0 66 74 122.5t145 56.5q-13 32 -47 32q-11 0 -20 -4q-8 -3 -19 -3q-14 5 -14 10q0 7 20 12.5t33 5.5
q64 0 87 -54q48 -3 85 -36t37 -77zM3126 1960q0 15 -2 22q-54 0 -118 -60q-61 -58 -61 -109q0 -35 30 -35q46 0 98.5 60t52.5 122z" />
    <glyph glyph-name="uni1EA9" unicode="&#x1ea9;" 
d="M902 313q0 -21 -146 -195q-121 -145 -192 -145q-49 0 -80.5 35.5t-31.5 89.5t-6 43q-48 -67 -102.5 -117.5t-107.5 -50.5q-57 0 -94.5 47t-37.5 117q0 195 273 343q121 67 197 67q68 0 68 -64q0 -18 10 17l22 40q36 -8 58 -8q25 0 80 9l-180 -300q-92 -153 -92 -202
q0 -43 32 -43q35 0 122 89.5t178 224.5q6 13 17 13q13 0 13 -10zM614 479q0 45 -38 45q-88 0 -236 -178.5t-148 -288.5q0 -61 50 -61q66 0 234 226q138 189 138 257zM1162 1039q0 -58 -72 -103q-27 -16 -123 -53q-83 -35 -90 -72q0 -10 3 -10q20 0 44 34q6 9 24 9
q13 -5 13 -9q0 -7 -23 -28q-29 -27 -58 -27q-41 0 -41 30q0 20 25 43q13 10 23 17q13 9 61 35q120 78 129 159q8 48 -18 55v-15q0 -64 -54 -124.5t-119 -60.5q-33 0 -52 18.5t-19 42.5q0 60 67.5 111t130.5 51q-11 29 -41 29q-10 0 -18 -3q-6 -4 -17 -4q-14 5 -14 10
q0 8 18.5 12.5t30.5 4.5q59 0 80 -49q43 -3 76.5 -33t33.5 -70zM1022 1105q0 13 -2 18q-47 0 -103 -52q-55 -50 -55 -95q0 -30 27 -30q40 0 86.5 52.5t46.5 106.5zM827 921q-12 -145 -18 -264q0 -12 -11 -12q-12 0 -14 27q-6 86 -19 115q-56 -36 -176.5 -90t-155.5 -54
q-13 0 -13 9q4 4 17 10q111 46 221.5 117t168.5 142z" />
    <glyph glyph-name="uni1EAA" unicode="&#x1eaa;" horiz-adv-x="1951" 
d="M3214 1822q0 -16 -60 -43.5t-90 -27.5q-32 0 -93 14l-20 4q-97 25 -125 25q-25 0 -52 -14q-11 -7 -20 -7q-13 0 -13 8t52 40t101 32q25 0 124 -23q87 -20 113 -20q32 0 55 15q11 5 17 5q11 -4 11 -8zM2964 1196q0 -22 -27 -22q-15 0 -70 12q-105 24 -176 24
q-165 -52 -281.5 -187t-284.5 -469q-241 -477 -598 -559q57 -9 116 -9q178 0 303 116q74 70 200 239q13 17 25 17q9 -4 9 -10q0 -15 -116 -154q-106 -133 -195 -182t-220 -49q-75 0 -177 21q-68 -21 -149 -21q-64 0 -64 25q0 28 85 28q52 0 127 -10q148 34 229.5 122
t300.5 452h-371q-559 -619 -973 -619q-190 0 -300 106t-110 283q0 218 169 413.5t418 271.5q84 163 254.5 270.5t347.5 107.5q105 0 167.5 -53.5t62.5 -145.5q0 -69 -47 -162q-43 -83 -43 -114q0 -70 79 -70q96 0 200 145q10 15 21 15q15 0 15 -12q0 -11 -48 -66
q-96 -108 -188 -108q-62 0 -99 42.5t-37 108.5q0 62 65 182q31 54 31 95q0 50 -53.5 83.5t-129.5 33.5q-159 0 -318.5 -99.5t-238.5 -242.5q62 14 120 14q152 0 237.5 -79.5t85.5 -217.5q0 -33 -2 -43q67 52 113 160q3 14 15 14q15 0 15 -14q0 -30 -46.5 -92t-102.5 -108
q-35 -193 -207.5 -346t-354.5 -153q-101 0 -166 64t-65 159q0 115 74.5 226.5t194.5 180.5q-2 24 -2 36q0 72 31 150q-198 -73 -348.5 -273t-150.5 -404q0 -150 93 -240.5t246 -90.5q180 0 357.5 123.5t494.5 468.5q-125 0 -194 -2l19 28q100 0 198 -2q291 324 568 474.5
t586 154.5q66 14 134 14q146 0 146 -51zM2596 1204q-213 -12 -434 -146t-511 -454h365q124 216 306 396.5t274 203.5zM1271 786q0 114 -73.5 181t-193.5 67q-72 0 -146 -25q-40 -89 -40 -181q98 50 151 50q17 0 17 -10q0 -11 -42 -20q-56 -13 -124 -48q34 -196 227 -196
q97 0 208 70q16 57 16 112zM1241 635q-95 -55 -199 -55q-103 0 -170.5 56.5t-82.5 145.5q-101 -61 -169 -164.5t-68 -205.5q0 -94 53.5 -149.5t140.5 -55.5q140 0 283.5 126.5t211.5 301.5zM2886 1747q-8 -92 -20 -268q0 -13 -14 -13q-8 6 -8 13q-6 102 -21 133
q-51 -36 -179.5 -92t-163.5 -56q-13 0 -13 10q4 4 17 10q111 47 225.5 120t176.5 143z" />
    <glyph glyph-name="uni1EAB" unicode="&#x1eab;" 
d="M1094 1005q0 -16 -57.5 -42.5t-88.5 -26.5q-32 0 -90 14l-21 4q-93 25 -120 25q-21 0 -52 -14q-11 -7 -18 -7q-13 0 -13 8q0 16 57.5 43t90.5 27q36 0 123 -21l45 -10q42 -10 64 -10q30 0 55 13q10 5 14 5q11 0 11 -8zM902 313q0 -21 -146 -195q-121 -145 -192 -145
q-49 0 -80.5 35.5t-31.5 89.5t-6 43q-48 -67 -102.5 -117.5t-107.5 -50.5q-57 0 -94.5 47t-37.5 117q0 195 273 343q121 67 197 67q68 0 68 -64q0 -18 10 17l22 40q36 -8 58 -8q25 0 80 9l-180 -300q-92 -153 -92 -202q0 -43 32 -43q35 0 122 89.5t178 224.5q6 13 17 13
q13 0 13 -10zM614 479q0 45 -38 45q-88 0 -236 -178.5t-148 -288.5q0 -61 50 -61q66 0 234 226q138 189 138 257zM827 921q-12 -145 -18 -264q0 -12 -11 -12q-12 0 -14 27q-6 86 -19 115q-56 -36 -176.5 -90t-155.5 -54q-13 0 -13 9q4 4 17 10q111 46 221.5 117t168.5 142z
" />
    <glyph glyph-name="uni1EAC" unicode="&#x1eac;" horiz-adv-x="1951" 
d="M1196 -256q0 -40 -30 -71.5t-69 -31.5q-56 0 -56 51q0 36 32 67.5t71 31.5q52 0 52 -47zM2964 1196q0 -22 -27 -22q-15 0 -70 12q-105 24 -176 24q-165 -52 -281.5 -187t-284.5 -469q-241 -477 -598 -559q57 -9 116 -9q178 0 303 116q74 70 200 239q13 17 25 17
q9 -4 9 -10q0 -15 -116 -154q-106 -133 -195 -182t-220 -49q-75 0 -177 21q-68 -21 -149 -21q-64 0 -64 25q0 28 85 28q52 0 127 -10q148 34 229.5 122t300.5 452h-371q-559 -619 -973 -619q-190 0 -300 106t-110 283q0 218 169 413.5t418 271.5q84 163 254.5 270.5
t347.5 107.5q105 0 167.5 -53.5t62.5 -145.5q0 -69 -47 -162q-43 -83 -43 -114q0 -70 79 -70q96 0 200 145q10 15 21 15q15 0 15 -12q0 -11 -48 -66q-96 -108 -188 -108q-62 0 -99 42.5t-37 108.5q0 62 65 182q31 54 31 95q0 50 -53.5 83.5t-129.5 33.5q-159 0 -318.5 -99.5
t-238.5 -242.5q62 14 120 14q152 0 237.5 -79.5t85.5 -217.5q0 -33 -2 -43q67 52 113 160q3 14 15 14q15 0 15 -14q0 -30 -46.5 -92t-102.5 -108q-35 -193 -207.5 -346t-354.5 -153q-101 0 -166 64t-65 159q0 115 74.5 226.5t194.5 180.5q-2 24 -2 36q0 72 31 150
q-198 -73 -348.5 -273t-150.5 -404q0 -150 93 -240.5t246 -90.5q180 0 357.5 123.5t494.5 468.5q-125 0 -194 -2l19 28q100 0 198 -2q291 324 568 474.5t586 154.5q66 14 134 14q146 0 146 -51zM2596 1204q-213 -12 -434 -146t-511 -454h365q124 216 306 396.5t274 203.5z
M1271 786q0 114 -73.5 181t-193.5 67q-72 0 -146 -25q-40 -89 -40 -181q98 50 151 50q17 0 17 -10q0 -11 -42 -20q-56 -13 -124 -48q34 -196 227 -196q97 0 208 70q16 57 16 112zM1241 635q-95 -55 -199 -55q-103 0 -170.5 56.5t-82.5 145.5q-101 -61 -169 -164.5
t-68 -205.5q0 -94 53.5 -149.5t140.5 -55.5q140 0 283.5 126.5t211.5 301.5zM2886 1747q-8 -92 -20 -268q0 -13 -14 -13q-8 6 -8 13q-6 102 -21 133q-51 -36 -179.5 -92t-163.5 -56q-13 0 -13 10q4 4 17 10q111 47 225.5 120t176.5 143z" />
    <glyph glyph-name="uni1EAD" unicode="&#x1ead;" 
d="M902 313q0 -21 -146 -195q-121 -145 -192 -145q-49 0 -80.5 35.5t-31.5 89.5t-6 43q-48 -67 -102.5 -117.5t-107.5 -50.5q-57 0 -94.5 47t-37.5 117q0 195 273 343q121 67 197 67q68 0 68 -64q0 -18 10 17l22 40q36 -8 58 -8q25 0 80 9l-180 -300q-92 -153 -92 -202
q0 -43 32 -43q35 0 122 89.5t178 224.5q6 13 17 13q13 0 13 -10zM614 479q0 45 -38 45q-88 0 -236 -178.5t-148 -288.5q0 -61 50 -61q66 0 234 226q138 189 138 257zM429 -140q0 -40 -30 -71.5t-69 -31.5q-56 0 -56 51q0 36 32 67.5t71 31.5q52 0 52 -47zM827 921
q-12 -145 -18 -264q0 -12 -11 -12q-12 0 -14 27q-6 86 -19 115q-56 -36 -176.5 -90t-155.5 -54q-13 0 -13 9q4 4 17 10q111 46 221.5 117t168.5 142z" />
    <glyph glyph-name="uni1EAE" unicode="&#x1eae;" horiz-adv-x="1951" 
d="M3137 1742q-99 -74 -260 -143q-119 -53 -141 -53q-13 0 -13 9q0 4 15 11q97 47 199 119t149 137zM2964 1196q0 -22 -27 -22q-15 0 -70 12q-105 24 -176 24q-165 -52 -281.5 -187t-284.5 -469q-241 -477 -598 -559q57 -9 116 -9q178 0 303 116q74 70 200 239q13 17 25 17
q9 -4 9 -10q0 -15 -116 -154q-106 -133 -195 -182t-220 -49q-75 0 -177 21q-68 -21 -149 -21q-64 0 -64 25q0 28 85 28q52 0 127 -10q148 34 229.5 122t300.5 452h-371q-559 -619 -973 -619q-190 0 -300 106t-110 283q0 218 169 413.5t418 271.5q84 163 254.5 270.5
t347.5 107.5q105 0 167.5 -53.5t62.5 -145.5q0 -69 -47 -162q-43 -83 -43 -114q0 -70 79 -70q96 0 200 145q10 15 21 15q15 0 15 -12q0 -11 -48 -66q-96 -108 -188 -108q-62 0 -99 42.5t-37 108.5q0 62 65 182q31 54 31 95q0 50 -53.5 83.5t-129.5 33.5q-159 0 -318.5 -99.5
t-238.5 -242.5q62 14 120 14q152 0 237.5 -79.5t85.5 -217.5q0 -33 -2 -43q67 52 113 160q3 14 15 14q15 0 15 -14q0 -30 -46.5 -92t-102.5 -108q-35 -193 -207.5 -346t-354.5 -153q-101 0 -166 64t-65 159q0 115 74.5 226.5t194.5 180.5q-2 24 -2 36q0 72 31 150
q-198 -73 -348.5 -273t-150.5 -404q0 -150 93 -240.5t246 -90.5q180 0 357.5 123.5t494.5 468.5q-125 0 -194 -2l19 28q100 0 198 -2q291 324 568 474.5t586 154.5q66 14 134 14q146 0 146 -51zM2596 1204q-213 -12 -434 -146t-511 -454h365q124 216 306 396.5t274 203.5z
M1271 786q0 114 -73.5 181t-193.5 67q-72 0 -146 -25q-40 -89 -40 -181q98 50 151 50q17 0 17 -10q0 -11 -42 -20q-56 -13 -124 -48q34 -196 227 -196q97 0 208 70q16 57 16 112zM1241 635q-95 -55 -199 -55q-103 0 -170.5 56.5t-82.5 145.5q-101 -61 -169 -164.5
t-68 -205.5q0 -94 53.5 -149.5t140.5 -55.5q140 0 283.5 126.5t211.5 301.5zM2957 1588q-5 -22 -69 -79q-95 -85 -198 -94q-77 -7 -116 34t-23 108q10 44 28 45q11 0 12 -20q-2 -49 33 -76t94 -20q107 10 198 89q20 19 30 21q13 0 11 -8z" />
    <glyph glyph-name="uni1EAF" unicode="&#x1eaf;" 
d="M1104 924q-99 -78 -252 -141q-119 -51 -137 -51q-8 0 -13 5q0 4 15 13q232 111 339 248zM902 313q0 -21 -146 -195q-121 -145 -192 -145q-49 0 -80.5 35.5t-31.5 89.5t-6 43q-48 -67 -102.5 -117.5t-107.5 -50.5q-57 0 -94.5 47t-37.5 117q0 195 273 343q121 67 197 67
q68 0 68 -64q0 -18 10 17l22 40q36 -8 58 -8q25 0 80 9l-180 -300q-92 -153 -92 -202q0 -43 32 -43q35 0 122 89.5t178 224.5q6 13 17 13q13 0 13 -10zM614 479q0 45 -38 45q-88 0 -236 -178.5t-148 -288.5q0 -61 50 -61q66 0 234 226q138 189 138 257zM969 777
q-5 -22 -69 -79q-95 -85 -198 -94q-77 -7 -116 34t-23 108q10 44 28 45q11 0 12 -20q-2 -49 33 -76t94 -20q107 10 198 89q20 19 30 21q13 0 11 -8z" />
    <glyph glyph-name="uni1EB0" unicode="&#x1eb0;" horiz-adv-x="1951" 
d="M2730 1559q-4 -8 -13 -8q-32 0 -75 77t-63 167l110 76q-25 -64 -25 -116q0 -107 58 -181l2 -4q6 -6 6 -11zM2964 1196q0 -22 -27 -22q-15 0 -70 12q-105 24 -176 24q-165 -52 -281.5 -187t-284.5 -469q-241 -477 -598 -559q57 -9 116 -9q178 0 303 116q74 70 200 239
q13 17 25 17q9 -4 9 -10q0 -15 -116 -154q-106 -133 -195 -182t-220 -49q-75 0 -177 21q-68 -21 -149 -21q-64 0 -64 25q0 28 85 28q52 0 127 -10q148 34 229.5 122t300.5 452h-371q-559 -619 -973 -619q-190 0 -300 106t-110 283q0 218 169 413.5t418 271.5
q84 163 254.5 270.5t347.5 107.5q105 0 167.5 -53.5t62.5 -145.5q0 -69 -47 -162q-43 -83 -43 -114q0 -70 79 -70q96 0 200 145q10 15 21 15q15 0 15 -12q0 -11 -48 -66q-96 -108 -188 -108q-62 0 -99 42.5t-37 108.5q0 62 65 182q31 54 31 95q0 50 -53.5 83.5t-129.5 33.5
q-159 0 -318.5 -99.5t-238.5 -242.5q62 14 120 14q152 0 237.5 -79.5t85.5 -217.5q0 -33 -2 -43q67 52 113 160q3 14 15 14q15 0 15 -14q0 -30 -46.5 -92t-102.5 -108q-35 -193 -207.5 -346t-354.5 -153q-101 0 -166 64t-65 159q0 115 74.5 226.5t194.5 180.5q-2 24 -2 36
q0 72 31 150q-198 -73 -348.5 -273t-150.5 -404q0 -150 93 -240.5t246 -90.5q180 0 357.5 123.5t494.5 468.5q-125 0 -194 -2l19 28q100 0 198 -2q291 324 568 474.5t586 154.5q66 14 134 14q146 0 146 -51zM2596 1204q-213 -12 -434 -146t-511 -454h365q124 216 306 396.5
t274 203.5zM1271 786q0 114 -73.5 181t-193.5 67q-72 0 -146 -25q-40 -89 -40 -181q98 50 151 50q17 0 17 -10q0 -11 -42 -20q-56 -13 -124 -48q34 -196 227 -196q97 0 208 70q16 57 16 112zM1241 635q-95 -55 -199 -55q-103 0 -170.5 56.5t-82.5 145.5
q-101 -61 -169 -164.5t-68 -205.5q0 -94 53.5 -149.5t140.5 -55.5q140 0 283.5 126.5t211.5 301.5zM2957 1588q-5 -22 -69 -79q-95 -85 -198 -94q-77 -7 -116 34t-23 108q10 44 28 45q11 0 12 -20q-2 -49 33 -76t94 -20q107 10 198 89q20 19 30 21q13 0 11 -8z" />
    <glyph glyph-name="uni1EB1" unicode="&#x1eb1;" 
d="M752 749q-4 -8 -13 -8q-30 0 -71 75t-63 161l105 74q-22 -64 -22 -112q0 -103 54 -176q10 -9 10 -14zM902 313q0 -21 -146 -195q-121 -145 -192 -145q-49 0 -80.5 35.5t-31.5 89.5t-6 43q-48 -67 -102.5 -117.5t-107.5 -50.5q-57 0 -94.5 47t-37.5 117q0 195 273 343
q121 67 197 67q68 0 68 -64q0 -18 10 17l22 40q36 -8 58 -8q25 0 80 9l-180 -300q-92 -153 -92 -202q0 -43 32 -43q35 0 122 89.5t178 224.5q6 13 17 13q13 0 13 -10zM614 479q0 45 -38 45q-88 0 -236 -178.5t-148 -288.5q0 -61 50 -61q66 0 234 226q138 189 138 257z
M969 777q-5 -22 -69 -79q-95 -85 -198 -94q-77 -7 -116 34t-23 108q10 44 28 45q11 0 12 -20q-2 -49 33 -76t94 -20q107 10 198 89q20 19 30 21q13 0 11 -8z" />
    <glyph glyph-name="uni1EB2" unicode="&#x1eb2;" horiz-adv-x="1951" 
d="M2964 1196q0 -22 -27 -22q-15 0 -70 12q-105 24 -176 24q-165 -52 -281.5 -187t-284.5 -469q-241 -477 -598 -559q57 -9 116 -9q178 0 303 116q74 70 200 239q13 17 25 17q9 -4 9 -10q0 -15 -116 -154q-106 -133 -195 -182t-220 -49q-75 0 -177 21q-68 -21 -149 -21
q-64 0 -64 25q0 28 85 28q52 0 127 -10q148 34 229.5 122t300.5 452h-371q-559 -619 -973 -619q-190 0 -300 106t-110 283q0 218 169 413.5t418 271.5q84 163 254.5 270.5t347.5 107.5q105 0 167.5 -53.5t62.5 -145.5q0 -69 -47 -162q-43 -83 -43 -114q0 -70 79 -70
q96 0 200 145q10 15 21 15q15 0 15 -12q0 -11 -48 -66q-96 -108 -188 -108q-62 0 -99 42.5t-37 108.5q0 62 65 182q31 54 31 95q0 50 -53.5 83.5t-129.5 33.5q-159 0 -318.5 -99.5t-238.5 -242.5q62 14 120 14q152 0 237.5 -79.5t85.5 -217.5q0 -33 -2 -43q67 52 113 160
q3 14 15 14q15 0 15 -14q0 -30 -46.5 -92t-102.5 -108q-35 -193 -207.5 -346t-354.5 -153q-101 0 -166 64t-65 159q0 115 74.5 226.5t194.5 180.5q-2 24 -2 36q0 72 31 150q-198 -73 -348.5 -273t-150.5 -404q0 -150 93 -240.5t246 -90.5q180 0 357.5 123.5t494.5 468.5
q-125 0 -194 -2l19 28q100 0 198 -2q291 324 568 474.5t586 154.5q66 14 134 14q146 0 146 -51zM2596 1204q-213 -12 -434 -146t-511 -454h365q124 216 306 396.5t274 203.5zM1271 786q0 114 -73.5 181t-193.5 67q-72 0 -146 -25q-40 -89 -40 -181q98 50 151 50q17 0 17 -10
q0 -11 -42 -20q-56 -13 -124 -48q34 -196 227 -196q97 0 208 70q16 57 16 112zM1241 635q-95 -55 -199 -55q-103 0 -170.5 56.5t-82.5 145.5q-101 -61 -169 -164.5t-68 -205.5q0 -94 53.5 -149.5t140.5 -55.5q140 0 283.5 126.5t211.5 301.5zM3072 1822q0 -63 -80 -113
q-29 -17 -134 -58q-92 -38 -100 -79q0 -12 3 -12q24 0 50 38q8 10 26 10q13 -6 13 -10q0 -8 -25 -31q-31 -29 -64 -29q-43 0 -43 33q0 22 27 46q14 11 25 19q14 10 67 39q160 89 160 175q0 59 -40 63q1 -5 1 -19q0 -70 -59 -136.5t-130 -66.5q-36 0 -57 20.5t-21 45.5
q0 66 74 122.5t145 56.5q-13 32 -47 32q-11 0 -20 -4q-8 -3 -19 -3q-14 5 -14 10q0 7 20 12.5t33 5.5q64 0 87 -54q48 -3 85 -36t37 -77zM2919 1894q0 15 -2 22q-54 0 -118 -60q-61 -58 -61 -109q0 -35 30 -35q46 0 98.5 60t52.5 122zM2957 1588q-5 -22 -69 -79
q-95 -85 -198 -94q-77 -7 -116 34t-23 108q10 44 28 45q11 0 12 -20q-2 -49 33 -76t94 -20q107 10 198 89q20 19 30 21q13 0 11 -8z" />
    <glyph glyph-name="uni1EB3" unicode="&#x1eb3;" 
d="M902 313q0 -21 -146 -195q-121 -145 -192 -145q-49 0 -80.5 35.5t-31.5 89.5t-6 43q-48 -67 -102.5 -117.5t-107.5 -50.5q-57 0 -94.5 47t-37.5 117q0 195 273 343q121 67 197 67q68 0 68 -64q0 -18 10 17l22 40q36 -8 58 -8q25 0 80 9l-180 -300q-92 -153 -92 -202
q0 -43 32 -43q35 0 122 89.5t178 224.5q6 13 17 13q13 0 13 -10zM614 479q0 45 -38 45q-88 0 -236 -178.5t-148 -288.5q0 -61 50 -61q66 0 234 226q138 189 138 257zM1047 986q0 -58 -72 -103q-27 -16 -123 -53q-83 -35 -90 -72q0 -10 3 -10q20 0 44 34q6 9 24 9
q13 -5 13 -9q0 -7 -23 -28q-29 -27 -58 -27q-41 0 -41 30q0 20 25 43q13 10 23 17q13 9 61 35q120 78 129 159q8 48 -18 55v-15q0 -64 -54 -124.5t-119 -60.5q-33 0 -52 18.5t-19 42.5q0 60 67.5 111t130.5 51q-11 29 -41 29q-10 0 -18 -3q-6 -4 -17 -4q-14 5 -14 10
q0 8 18.5 12.5t30.5 4.5q59 0 80 -49q43 -3 76.5 -33t33.5 -70zM907 1052q0 13 -2 18q-47 0 -103 -52q-55 -50 -55 -95q0 -30 27 -30q40 0 86.5 52.5t46.5 106.5zM969 777q-5 -22 -69 -79q-95 -85 -198 -94q-77 -7 -116 34t-23 108q10 44 28 45q11 0 12 -20q-2 -49 33 -76
t94 -20q107 10 198 89q20 19 30 21q13 0 11 -8z" />
    <glyph glyph-name="uni1EB4" unicode="&#x1eb4;" horiz-adv-x="1951" 
d="M3115 1695q0 -16 -60 -43.5t-90 -27.5q-32 0 -93 14l-20 4q-97 25 -125 25q-25 0 -52 -14q-11 -7 -20 -7q-13 0 -13 8t52 40t101 32q25 0 124 -23q87 -20 113 -20q32 0 55 15q11 5 17 5q11 -4 11 -8zM2964 1196q0 -22 -27 -22q-15 0 -70 12q-105 24 -176 24
q-165 -52 -281.5 -187t-284.5 -469q-241 -477 -598 -559q57 -9 116 -9q178 0 303 116q74 70 200 239q13 17 25 17q9 -4 9 -10q0 -15 -116 -154q-106 -133 -195 -182t-220 -49q-75 0 -177 21q-68 -21 -149 -21q-64 0 -64 25q0 28 85 28q52 0 127 -10q148 34 229.5 122
t300.5 452h-371q-559 -619 -973 -619q-190 0 -300 106t-110 283q0 218 169 413.5t418 271.5q84 163 254.5 270.5t347.5 107.5q105 0 167.5 -53.5t62.5 -145.5q0 -69 -47 -162q-43 -83 -43 -114q0 -70 79 -70q96 0 200 145q10 15 21 15q15 0 15 -12q0 -11 -48 -66
q-96 -108 -188 -108q-62 0 -99 42.5t-37 108.5q0 62 65 182q31 54 31 95q0 50 -53.5 83.5t-129.5 33.5q-159 0 -318.5 -99.5t-238.5 -242.5q62 14 120 14q152 0 237.5 -79.5t85.5 -217.5q0 -33 -2 -43q67 52 113 160q3 14 15 14q15 0 15 -14q0 -30 -46.5 -92t-102.5 -108
q-35 -193 -207.5 -346t-354.5 -153q-101 0 -166 64t-65 159q0 115 74.5 226.5t194.5 180.5q-2 24 -2 36q0 72 31 150q-198 -73 -348.5 -273t-150.5 -404q0 -150 93 -240.5t246 -90.5q180 0 357.5 123.5t494.5 468.5q-125 0 -194 -2l19 28q100 0 198 -2q291 324 568 474.5
t586 154.5q66 14 134 14q146 0 146 -51zM2596 1204q-213 -12 -434 -146t-511 -454h365q124 216 306 396.5t274 203.5zM1271 786q0 114 -73.5 181t-193.5 67q-72 0 -146 -25q-40 -89 -40 -181q98 50 151 50q17 0 17 -10q0 -11 -42 -20q-56 -13 -124 -48q34 -196 227 -196
q97 0 208 70q16 57 16 112zM1241 635q-95 -55 -199 -55q-103 0 -170.5 56.5t-82.5 145.5q-101 -61 -169 -164.5t-68 -205.5q0 -94 53.5 -149.5t140.5 -55.5q140 0 283.5 126.5t211.5 301.5zM2957 1588q-5 -22 -69 -79q-95 -85 -198 -94q-77 -7 -116 34t-23 108q10 44 28 45
q11 0 12 -20q-2 -49 33 -76t94 -20q107 10 198 89q20 19 30 21q13 0 11 -8z" />
    <glyph glyph-name="uni1EB5" unicode="&#x1eb5;" 
d="M1028 874q0 -16 -57.5 -42.5t-88.5 -26.5q-32 0 -90 14l-21 4q-93 25 -120 25q-21 0 -52 -14q-11 -7 -18 -7q-13 0 -13 8q0 16 57.5 43t90.5 27q36 0 123 -21l45 -10q42 -10 64 -10q30 0 55 13q10 5 14 5q11 0 11 -8zM902 313q0 -21 -146 -195q-121 -145 -192 -145
q-49 0 -80.5 35.5t-31.5 89.5t-6 43q-48 -67 -102.5 -117.5t-107.5 -50.5q-57 0 -94.5 47t-37.5 117q0 195 273 343q121 67 197 67q68 0 68 -64q0 -18 10 17l22 40q36 -8 58 -8q25 0 80 9l-180 -300q-92 -153 -92 -202q0 -43 32 -43q35 0 122 89.5t178 224.5q6 13 17 13
q13 0 13 -10zM614 479q0 45 -38 45q-88 0 -236 -178.5t-148 -288.5q0 -61 50 -61q66 0 234 226q138 189 138 257zM969 777q-5 -22 -69 -79q-95 -85 -198 -94q-77 -7 -116 34t-23 108q10 44 28 45q11 0 12 -20q-2 -49 33 -76t94 -20q107 10 198 89q20 19 30 21q13 0 11 -8z
" />
    <glyph glyph-name="uni1EB6" unicode="&#x1eb6;" horiz-adv-x="1951" 
d="M1196 -256q0 -40 -30 -71.5t-69 -31.5q-56 0 -56 51q0 36 32 67.5t71 31.5q52 0 52 -47zM2964 1196q0 -22 -27 -22q-15 0 -70 12q-105 24 -176 24q-165 -52 -281.5 -187t-284.5 -469q-241 -477 -598 -559q57 -9 116 -9q178 0 303 116q74 70 200 239q13 17 25 17
q9 -4 9 -10q0 -15 -116 -154q-106 -133 -195 -182t-220 -49q-75 0 -177 21q-68 -21 -149 -21q-64 0 -64 25q0 28 85 28q52 0 127 -10q148 34 229.5 122t300.5 452h-371q-559 -619 -973 -619q-190 0 -300 106t-110 283q0 218 169 413.5t418 271.5q84 163 254.5 270.5
t347.5 107.5q105 0 167.5 -53.5t62.5 -145.5q0 -69 -47 -162q-43 -83 -43 -114q0 -70 79 -70q96 0 200 145q10 15 21 15q15 0 15 -12q0 -11 -48 -66q-96 -108 -188 -108q-62 0 -99 42.5t-37 108.5q0 62 65 182q31 54 31 95q0 50 -53.5 83.5t-129.5 33.5q-159 0 -318.5 -99.5
t-238.5 -242.5q62 14 120 14q152 0 237.5 -79.5t85.5 -217.5q0 -33 -2 -43q67 52 113 160q3 14 15 14q15 0 15 -14q0 -30 -46.5 -92t-102.5 -108q-35 -193 -207.5 -346t-354.5 -153q-101 0 -166 64t-65 159q0 115 74.5 226.5t194.5 180.5q-2 24 -2 36q0 72 31 150
q-198 -73 -348.5 -273t-150.5 -404q0 -150 93 -240.5t246 -90.5q180 0 357.5 123.5t494.5 468.5q-125 0 -194 -2l19 28q100 0 198 -2q291 324 568 474.5t586 154.5q66 14 134 14q146 0 146 -51zM2596 1204q-213 -12 -434 -146t-511 -454h365q124 216 306 396.5t274 203.5z
M1271 786q0 114 -73.5 181t-193.5 67q-72 0 -146 -25q-40 -89 -40 -181q98 50 151 50q17 0 17 -10q0 -11 -42 -20q-56 -13 -124 -48q34 -196 227 -196q97 0 208 70q16 57 16 112zM1241 635q-95 -55 -199 -55q-103 0 -170.5 56.5t-82.5 145.5q-101 -61 -169 -164.5
t-68 -205.5q0 -94 53.5 -149.5t140.5 -55.5q140 0 283.5 126.5t211.5 301.5zM2957 1588q-5 -22 -69 -79q-95 -85 -198 -94q-77 -7 -116 34t-23 108q10 44 28 45q11 0 12 -20q-2 -49 33 -76t94 -20q107 10 198 89q20 19 30 21q13 0 11 -8z" />
    <glyph glyph-name="uni1EB7" unicode="&#x1eb7;" 
d="M902 313q0 -21 -146 -195q-121 -145 -192 -145q-49 0 -80.5 35.5t-31.5 89.5t-6 43q-48 -67 -102.5 -117.5t-107.5 -50.5q-57 0 -94.5 47t-37.5 117q0 195 273 343q121 67 197 67q68 0 68 -64q0 -18 10 17l22 40q36 -8 58 -8q25 0 80 9l-180 -300q-92 -153 -92 -202
q0 -43 32 -43q35 0 122 89.5t178 224.5q6 13 17 13q13 0 13 -10zM614 479q0 45 -38 45q-88 0 -236 -178.5t-148 -288.5q0 -61 50 -61q66 0 234 226q138 189 138 257zM429 -140q0 -40 -30 -71.5t-69 -31.5q-56 0 -56 51q0 36 32 67.5t71 31.5q52 0 52 -47zM969 777
q-5 -22 -69 -79q-95 -85 -198 -94q-77 -7 -116 34t-23 108q10 44 28 45q11 0 12 -20q-2 -49 33 -76t94 -20q107 10 198 89q20 19 30 21q13 0 11 -8z" />
    <glyph glyph-name="uni1EB8" unicode="&#x1eb8;" horiz-adv-x="1785" 
d="M2199 1120q0 -71 -130 -71q-81 0 -139 11t-319 78q-164 -92 -164 -239q0 -69 42 -96q53 8 107 8q111 0 111 -29q0 -20 -64 -20t-149 20q-88 -12 -202 -61q-21 -128 -139 -233.5t-266 -128.5q-19 -66 -19 -121q0 -188 185 -235q-33 52 -33 132q0 200 202.5 367.5
t447.5 167.5q109 0 177.5 -56t68.5 -147q0 -196 -216 -354t-487 -158q-54 0 -89 4q84 -119 273 -119q109 0 186 35l16 2q12 -4 12 -12q0 -18 -75.5 -33.5t-138.5 -15.5q-213 0 -324 152q-328 74 -328 313q0 34 7 69q-192 4 -315.5 112t-123.5 277q0 225 194.5 373.5
t486.5 148.5q210 0 550 -78q136 64 320 64q139 0 237 -37t98 -90zM2164 1120q0 37 -80 66t-185 29q-139 0 -254 -59q265 -81 432 -81q87 0 87 45zM1884 475q0 71 -55.5 116.5t-140.5 45.5q-212 0 -415 -176.5t-203 -362.5q0 -55 33 -107q54 -10 102 -10q232 0 455.5 162.5
t223.5 331.5zM1509 1165q-240 50 -409 50q-308 0 -522 -149t-214 -368q0 -138 111.5 -227.5t282.5 -95.5q40 128 179 235.5t324 152.5q2 9 2 23q0 106 -75 183t-197 96q-14 6 -14 12q0 14 21 14q31 0 87.5 -23t89.5 -48q121 -91 121 -248q73 16 157 27q-102 43 -102 145
q0 135 158 221zM1253 704q-278 -124 -356 -317q126 24 228.5 115t127.5 202zM1196 -256q0 -40 -30.5 -71.5t-69.5 -31.5q-56 0 -56 51q0 36 32.5 67.5t71.5 31.5q52 0 52 -47z" />
    <glyph glyph-name="uni1EB9" unicode="&#x1eb9;" horiz-adv-x="503" 
d="M704 313q0 -5 -20 -27l-43 -54q-209 -259 -360 -259q-76 0 -124.5 52t-48.5 129q0 182 255 320q133 73 219 73q38 0 65.5 -23t27.5 -55q0 -74 -95 -125t-315 -95q-65 -99 -65 -169q0 -82 85 -82q154 0 381 306q14 19 29 19q9 -4 9 -10zM606 498q0 28 -28 28
q-50 0 -134.5 -72.5t-161.5 -179.5q126 32 225 98.5t99 125.5zM268 -140q0 -40 -30 -71.5t-69 -31.5q-56 0 -56 51q0 36 32.5 67.5t70.5 31.5q52 0 52 -47z" />
    <glyph glyph-name="uni1EBA" unicode="&#x1eba;" horiz-adv-x="1785" 
d="M2199 1120q0 -71 -130 -71q-81 0 -139 11t-319 78q-164 -92 -164 -239q0 -69 42 -96q53 8 107 8q111 0 111 -29q0 -20 -64 -20t-149 20q-88 -12 -202 -61q-21 -128 -139 -233.5t-266 -128.5q-19 -66 -19 -121q0 -188 185 -235q-33 52 -33 132q0 200 202.5 367.5
t447.5 167.5q109 0 177.5 -56t68.5 -147q0 -196 -216 -354t-487 -158q-54 0 -89 4q84 -119 273 -119q109 0 186 35l16 2q12 -4 12 -12q0 -18 -75.5 -33.5t-138.5 -15.5q-213 0 -324 152q-328 74 -328 313q0 34 7 69q-192 4 -315.5 112t-123.5 277q0 225 194.5 373.5
t486.5 148.5q210 0 550 -78q136 64 320 64q139 0 237 -37t98 -90zM2164 1120q0 37 -80 66t-185 29q-139 0 -254 -59q265 -81 432 -81q87 0 87 45zM1884 475q0 71 -55.5 116.5t-140.5 45.5q-212 0 -415 -176.5t-203 -362.5q0 -55 33 -107q54 -10 102 -10q232 0 455.5 162.5
t223.5 331.5zM1509 1165q-240 50 -409 50q-308 0 -522 -149t-214 -368q0 -138 111.5 -227.5t282.5 -95.5q40 128 179 235.5t324 152.5q2 9 2 23q0 106 -75 183t-197 96q-14 6 -14 12q0 14 21 14q31 0 87.5 -23t89.5 -48q121 -91 121 -248q73 16 157 27q-102 43 -102 145
q0 135 158 221zM1253 704q-278 -124 -356 -317q126 24 228.5 115t127.5 202zM2167 1562q0 -63 -79 -113q-29 -17 -135 -58q-92 -38 -100 -79q0 -12 4 -12q24 0 50 38q6 10 26 10q13 -6 13 -10q0 -8 -25 -31q-32 -29 -64 -29q-43 0 -43 33q0 22 27 46q14 11 25 19
q14 10 67 39q160 89 160 175q0 59 -41 63q1 -5 1 -19q0 -70 -58.5 -136.5t-129.5 -66.5q-36 0 -57 20.5t-21 45.5q0 66 74 122.5t144 56.5q-12 32 -46 32q-11 0 -20 -4q-8 -3 -18 -3q-16 5 -16 10q0 8 20.5 13t33.5 5q64 0 87 -54q48 -3 84.5 -36t36.5 -77zM2015 1634
q0 15 -2 22q-54 0 -118 -60q-62 -58 -62 -109q0 -35 31 -35q46 0 98.5 60t52.5 122z" />
    <glyph glyph-name="uni1EBB" unicode="&#x1ebb;" horiz-adv-x="503" 
d="M704 313q0 -5 -20 -27l-43 -54q-209 -259 -360 -259q-76 0 -124.5 52t-48.5 129q0 182 255 320q133 73 219 73q38 0 65.5 -23t27.5 -55q0 -74 -95 -125t-315 -95q-65 -99 -65 -169q0 -82 85 -82q154 0 381 306q14 19 29 19q9 -4 9 -10zM606 498q0 28 -28 28
q-50 0 -134.5 -72.5t-161.5 -179.5q126 32 225 98.5t99 125.5zM922 869q0 -58 -72 -103q-27 -16 -123 -53q-84 -35 -91 -72q0 -10 3 -10q21 0 45 34q6 9 24 9q12 -5 12 -9q0 -7 -22 -28q-29 -27 -59 -27q-40 0 -40 30q0 20 24 43q13 10 23 17q13 9 61 35q120 78 129 159
q8 48 -18 55v-15q0 -64 -53.5 -124.5t-118.5 -60.5q-33 0 -52 18.5t-19 42.5q0 60 67.5 111t130.5 51q-11 29 -41 29q-10 0 -18 -3q-8 -4 -18 -4q-14 5 -14 10q0 8 18.5 12.5t31.5 4.5q58 0 79 -49q43 -3 77 -33t34 -70zM781 935q0 13 -1 18q-47 0 -104 -52q-54 -50 -54 -95
q0 -30 26 -30q40 0 86.5 52.5t46.5 106.5z" />
    <glyph glyph-name="uni1EBC" unicode="&#x1ebc;" horiz-adv-x="1785" 
d="M2199 1120q0 -71 -130 -71q-81 0 -139 11t-319 78q-164 -92 -164 -239q0 -69 42 -96q53 8 107 8q111 0 111 -29q0 -20 -64 -20t-149 20q-88 -12 -202 -61q-21 -128 -139 -233.5t-266 -128.5q-19 -66 -19 -121q0 -188 185 -235q-33 52 -33 132q0 200 202.5 367.5
t447.5 167.5q109 0 177.5 -56t68.5 -147q0 -196 -216 -354t-487 -158q-54 0 -89 4q84 -119 273 -119q109 0 186 35l16 2q12 -4 12 -12q0 -18 -75.5 -33.5t-138.5 -15.5q-213 0 -324 152q-328 74 -328 313q0 34 7 69q-192 4 -315.5 112t-123.5 277q0 225 194.5 373.5
t486.5 148.5q210 0 550 -78q136 64 320 64q139 0 237 -37t98 -90zM2164 1120q0 37 -80 66t-185 29q-139 0 -254 -59q265 -81 432 -81q87 0 87 45zM1884 475q0 71 -55.5 116.5t-140.5 45.5q-212 0 -415 -176.5t-203 -362.5q0 -55 33 -107q54 -10 102 -10q232 0 455.5 162.5
t223.5 331.5zM1509 1165q-240 50 -409 50q-308 0 -522 -149t-214 -368q0 -138 111.5 -227.5t282.5 -95.5q40 128 179 235.5t324 152.5q2 9 2 23q0 106 -75 183t-197 96q-14 6 -14 12q0 14 21 14q31 0 87.5 -23t89.5 -48q121 -91 121 -248q73 16 157 27q-102 43 -102 145
q0 135 158 221zM1253 704q-278 -124 -356 -317q126 24 228.5 115t127.5 202zM2278 1481q0 -16 -60 -43.5t-91 -27.5q-32 0 -92 14l-20 4q-98 25 -125 25q-25 0 -53 -14q-10 -7 -19 -7q-13 0 -13 8t52 40t100 32q26 0 125 -23q87 -20 113 -20q32 0 54 15q11 5 16 5
q13 -4 13 -8z" />
    <glyph glyph-name="uni1EBD" unicode="&#x1ebd;" horiz-adv-x="503" 
d="M704 313q0 -5 -20 -27l-43 -54q-209 -259 -360 -259q-76 0 -124.5 52t-48.5 129q0 182 255 320q133 73 219 73q38 0 65.5 -23t27.5 -55q0 -74 -95 -125t-315 -95q-65 -99 -65 -169q0 -82 85 -82q154 0 381 306q14 19 29 19q9 -4 9 -10zM606 498q0 28 -28 28
q-50 0 -134.5 -72.5t-161.5 -179.5q126 32 225 98.5t99 125.5zM898 727q0 -16 -58 -42.5t-89 -26.5t-90 14l-20 4q-93 25 -121 25q-20 0 -51 -14q-11 -7 -19 -7q-13 0 -13 8q0 16 58 43t91 27q35 0 122 -21l45 -10q42 -10 64 -10q31 0 55 13q11 5 15 5q11 0 11 -8z" />
    <glyph glyph-name="uni1EBE" unicode="&#x1ebe;" horiz-adv-x="1785" 
d="M2634 1802q-100 -74 -260 -143q-119 -53 -142 -53q-13 0 -13 9q0 4 16 11q97 47 199 119t149 137zM2199 1120q0 -71 -130 -71q-81 0 -139 11t-319 78q-164 -92 -164 -239q0 -69 42 -96q53 8 107 8q111 0 111 -29q0 -20 -64 -20t-149 20q-88 -12 -202 -61
q-21 -128 -139 -233.5t-266 -128.5q-19 -66 -19 -121q0 -188 185 -235q-33 52 -33 132q0 200 202.5 367.5t447.5 167.5q109 0 177.5 -56t68.5 -147q0 -196 -216 -354t-487 -158q-54 0 -89 4q84 -119 273 -119q109 0 186 35l16 2q12 -4 12 -12q0 -18 -75.5 -33.5
t-138.5 -15.5q-213 0 -324 152q-328 74 -328 313q0 34 7 69q-192 4 -315.5 112t-123.5 277q0 225 194.5 373.5t486.5 148.5q210 0 550 -78q136 64 320 64q139 0 237 -37t98 -90zM2164 1120q0 37 -80 66t-185 29q-139 0 -254 -59q265 -81 432 -81q87 0 87 45zM1884 475
q0 71 -55.5 116.5t-140.5 45.5q-212 0 -415 -176.5t-203 -362.5q0 -55 33 -107q54 -10 102 -10q232 0 455.5 162.5t223.5 331.5zM1509 1165q-240 50 -409 50q-308 0 -522 -149t-214 -368q0 -138 111.5 -227.5t282.5 -95.5q40 128 179 235.5t324 152.5q2 9 2 23
q0 106 -75 183t-197 96q-14 6 -14 12q0 14 21 14q31 0 87.5 -23t89.5 -48q121 -91 121 -248q73 16 157 27q-102 43 -102 145q0 135 158 221zM1253 704q-278 -124 -356 -317q126 24 228.5 115t127.5 202zM2197 1747q-8 -92 -21 -268q0 -13 -14 -13q-8 6 -8 13q-6 102 -20 133
q-52 -36 -180.5 -92t-163.5 -56q-13 0 -13 10q4 4 18 10q110 47 225 120t177 143z" />
    <glyph glyph-name="uni1EBF" unicode="&#x1ebf;" horiz-adv-x="503" 
d="M1215 1001q-99 -78 -252 -141q-118 -51 -137 -51q-8 0 -13 5q0 4 15 13q232 111 339 248zM704 313q0 -5 -20 -27l-43 -54q-209 -259 -360 -259q-76 0 -124.5 52t-48.5 129q0 182 255 320q133 73 219 73q38 0 65.5 -23t27.5 -55q0 -74 -95 -125t-315 -95q-65 -99 -65 -169
q0 -82 85 -82q154 0 381 306q14 19 29 19q9 -4 9 -10zM606 498q0 28 -28 28q-50 0 -134.5 -72.5t-161.5 -179.5q126 32 225 98.5t99 125.5zM798 921q-12 -145 -19 -264q0 -12 -11 -12t-13 27q-6 86 -19 115q-56 -36 -176.5 -90t-155.5 -54q-13 0 -13 9q4 4 17 10
q111 46 221.5 117t168.5 142z" />
    <glyph glyph-name="uni1EC0" unicode="&#x1ec0;" horiz-adv-x="1785" 
d="M2033 1666q-4 -8 -13 -8q-32 0 -75 77t-64 167l111 76q-25 -64 -25 -116q0 -107 58 -181l2 -4q6 -6 6 -11zM2199 1120q0 -71 -130 -71q-81 0 -139 11t-319 78q-164 -92 -164 -239q0 -69 42 -96q53 8 107 8q111 0 111 -29q0 -20 -64 -20t-149 20q-88 -12 -202 -61
q-21 -128 -139 -233.5t-266 -128.5q-19 -66 -19 -121q0 -188 185 -235q-33 52 -33 132q0 200 202.5 367.5t447.5 167.5q109 0 177.5 -56t68.5 -147q0 -196 -216 -354t-487 -158q-54 0 -89 4q84 -119 273 -119q109 0 186 35l16 2q12 -4 12 -12q0 -18 -75.5 -33.5
t-138.5 -15.5q-213 0 -324 152q-328 74 -328 313q0 34 7 69q-192 4 -315.5 112t-123.5 277q0 225 194.5 373.5t486.5 148.5q210 0 550 -78q136 64 320 64q139 0 237 -37t98 -90zM2164 1120q0 37 -80 66t-185 29q-139 0 -254 -59q265 -81 432 -81q87 0 87 45zM1884 475
q0 71 -55.5 116.5t-140.5 45.5q-212 0 -415 -176.5t-203 -362.5q0 -55 33 -107q54 -10 102 -10q232 0 455.5 162.5t223.5 331.5zM1509 1165q-240 50 -409 50q-308 0 -522 -149t-214 -368q0 -138 111.5 -227.5t282.5 -95.5q40 128 179 235.5t324 152.5q2 9 2 23
q0 106 -75 183t-197 96q-14 6 -14 12q0 14 21 14q31 0 87.5 -23t89.5 -48q121 -91 121 -248q73 16 157 27q-102 43 -102 145q0 135 158 221zM1253 704q-278 -124 -356 -317q126 24 228.5 115t127.5 202zM2197 1747q-8 -92 -21 -268q0 -13 -14 -13q-8 6 -8 13q-6 102 -20 133
q-52 -36 -180.5 -92t-163.5 -56q-13 0 -13 10q4 4 18 10q110 47 225 120t177 143z" />
    <glyph glyph-name="uni1EC1" unicode="&#x1ec1;" horiz-adv-x="503" 
d="M680 835q-4 -8 -13 -8q-30 0 -71 75t-63 161l105 74q-22 -64 -22 -112q0 -103 55 -176q9 -9 9 -14zM704 313q0 -5 -20 -27l-43 -54q-209 -259 -360 -259q-76 0 -124.5 52t-48.5 129q0 182 255 320q133 73 219 73q38 0 65.5 -23t27.5 -55q0 -74 -95 -125t-315 -95
q-65 -99 -65 -169q0 -82 85 -82q154 0 381 306q14 19 29 19q9 -4 9 -10zM606 498q0 28 -28 28q-50 0 -134.5 -72.5t-161.5 -179.5q126 32 225 98.5t99 125.5zM798 921q-12 -145 -19 -264q0 -12 -11 -12t-13 27q-6 86 -19 115q-56 -36 -176.5 -90t-155.5 -54q-13 0 -13 9
q4 4 17 10q111 46 221.5 117t168.5 142z" />
    <glyph glyph-name="uni1EC2" unicode="&#x1ec2;" horiz-adv-x="1785" 
d="M2199 1120q0 -71 -130 -71q-81 0 -139 11t-319 78q-164 -92 -164 -239q0 -69 42 -96q53 8 107 8q111 0 111 -29q0 -20 -64 -20t-149 20q-88 -12 -202 -61q-21 -128 -139 -233.5t-266 -128.5q-19 -66 -19 -121q0 -188 185 -235q-33 52 -33 132q0 200 202.5 367.5
t447.5 167.5q109 0 177.5 -56t68.5 -147q0 -196 -216 -354t-487 -158q-54 0 -89 4q84 -119 273 -119q109 0 186 35l16 2q12 -4 12 -12q0 -18 -75.5 -33.5t-138.5 -15.5q-213 0 -324 152q-328 74 -328 313q0 34 7 69q-192 4 -315.5 112t-123.5 277q0 225 194.5 373.5
t486.5 148.5q210 0 550 -78q136 64 320 64q139 0 237 -37t98 -90zM2164 1120q0 37 -80 66t-185 29q-139 0 -254 -59q265 -81 432 -81q87 0 87 45zM1884 475q0 71 -55.5 116.5t-140.5 45.5q-212 0 -415 -176.5t-203 -362.5q0 -55 33 -107q54 -10 102 -10q232 0 455.5 162.5
t223.5 331.5zM1509 1165q-240 50 -409 50q-308 0 -522 -149t-214 -368q0 -138 111.5 -227.5t282.5 -95.5q40 128 179 235.5t324 152.5q2 9 2 23q0 106 -75 183t-197 96q-14 6 -14 12q0 14 21 14q31 0 87.5 -23t89.5 -48q121 -91 121 -248q73 16 157 27q-102 43 -102 145
q0 135 158 221zM1253 704q-278 -124 -356 -317q126 24 228.5 115t127.5 202zM2577 1882q0 -63 -79 -113q-29 -17 -135 -58q-92 -38 -100 -79q0 -12 4 -12q24 0 50 38q6 10 26 10q13 -6 13 -10q0 -8 -25 -31q-32 -29 -64 -29q-43 0 -43 33q0 22 27 46q14 11 25 19
q14 10 67 39q160 89 160 175q0 59 -41 63q1 -5 1 -19q0 -70 -58.5 -136.5t-129.5 -66.5q-36 0 -57 20.5t-21 45.5q0 66 74 122.5t144 56.5q-12 32 -46 32q-11 0 -20 -4q-8 -3 -18 -3q-16 5 -16 10q0 8 20.5 13t33.5 5q64 0 87 -54q48 -3 84.5 -36t36.5 -77zM2425 1954
q0 15 -2 22q-54 0 -118 -60q-62 -58 -62 -109q0 -35 31 -35q46 0 98.5 60t52.5 122zM2197 1747q-8 -92 -21 -268q0 -13 -14 -13q-8 6 -8 13q-6 102 -20 133q-52 -36 -180.5 -92t-163.5 -56q-13 0 -13 10q4 4 18 10q110 47 225 120t177 143z" />
    <glyph glyph-name="uni1EC3" unicode="&#x1ec3;" horiz-adv-x="503" 
d="M704 313q0 -5 -20 -27l-43 -54q-209 -259 -360 -259q-76 0 -124.5 52t-48.5 129q0 182 255 320q133 73 219 73q38 0 65.5 -23t27.5 -55q0 -74 -95 -125t-315 -95q-65 -99 -65 -169q0 -82 85 -82q154 0 381 306q14 19 29 19q9 -4 9 -10zM606 498q0 28 -28 28
q-50 0 -134.5 -72.5t-161.5 -179.5q126 32 225 98.5t99 125.5zM1151 1050q0 -58 -72 -103q-27 -16 -123 -53q-84 -35 -91 -72q0 -10 3 -10q21 0 45 34q6 9 24 9q12 -5 12 -9q0 -7 -22 -28q-29 -27 -59 -27q-40 0 -40 30q0 20 24 43q13 10 23 17q13 9 61 35q120 78 129 159
q8 48 -18 55v-15q0 -64 -53.5 -124.5t-118.5 -60.5q-33 0 -52 18.5t-19 42.5q0 60 67.5 111t130.5 51q-11 29 -41 29q-10 0 -18 -3q-8 -4 -18 -4q-14 5 -14 10q0 8 18.5 12.5t31.5 4.5q58 0 79 -49q43 -3 77 -33t34 -70zM1010 1116q0 13 -1 18q-47 0 -104 -52
q-54 -50 -54 -95q0 -30 26 -30q40 0 86.5 52.5t46.5 106.5zM798 921q-12 -145 -19 -264q0 -12 -11 -12t-13 27q-6 86 -19 115q-56 -36 -176.5 -90t-155.5 -54q-13 0 -13 9q4 4 17 10q111 46 221.5 117t168.5 142z" />
    <glyph glyph-name="uni1EC4" unicode="&#x1ec4;" horiz-adv-x="1785" 
d="M2199 1120q0 -71 -130 -71q-81 0 -139 11t-319 78q-164 -92 -164 -239q0 -69 42 -96q53 8 107 8q111 0 111 -29q0 -20 -64 -20t-149 20q-88 -12 -202 -61q-21 -128 -139 -233.5t-266 -128.5q-19 -66 -19 -121q0 -188 185 -235q-33 52 -33 132q0 200 202.5 367.5
t447.5 167.5q109 0 177.5 -56t68.5 -147q0 -196 -216 -354t-487 -158q-54 0 -89 4q84 -119 273 -119q109 0 186 35l16 2q12 -4 12 -12q0 -18 -75.5 -33.5t-138.5 -15.5q-213 0 -324 152q-328 74 -328 313q0 34 7 69q-192 4 -315.5 112t-123.5 277q0 225 194.5 373.5
t486.5 148.5q210 0 550 -78q136 64 320 64q139 0 237 -37t98 -90zM2164 1120q0 37 -80 66t-185 29q-139 0 -254 -59q265 -81 432 -81q87 0 87 45zM1884 475q0 71 -55.5 116.5t-140.5 45.5q-212 0 -415 -176.5t-203 -362.5q0 -55 33 -107q54 -10 102 -10q232 0 455.5 162.5
t223.5 331.5zM1509 1165q-240 50 -409 50q-308 0 -522 -149t-214 -368q0 -138 111.5 -227.5t282.5 -95.5q40 128 179 235.5t324 152.5q2 9 2 23q0 106 -75 183t-197 96q-14 6 -14 12q0 14 21 14q31 0 87.5 -23t89.5 -48q121 -91 121 -248q73 16 157 27q-102 43 -102 145
q0 135 158 221zM1253 704q-278 -124 -356 -317q126 24 228.5 115t127.5 202zM2519 1848q0 -16 -60 -43.5t-91 -27.5q-32 0 -92 14l-20 4q-98 25 -125 25q-25 0 -53 -14q-10 -7 -19 -7q-13 0 -13 8t52 40t100 32q26 0 125 -23q87 -20 113 -20q32 0 54 15q11 5 16 5
q13 -4 13 -8zM2197 1747q-8 -92 -21 -268q0 -13 -14 -13q-8 6 -8 13q-6 102 -20 133q-52 -36 -180.5 -92t-163.5 -56q-13 0 -13 10q4 4 18 10q110 47 225 120t177 143z" />
    <glyph glyph-name="uni1EC5" unicode="&#x1ec5;" horiz-adv-x="503" 
d="M704 313q0 -5 -20 -27l-43 -54q-209 -259 -360 -259q-76 0 -124.5 52t-48.5 129q0 182 255 320q133 73 219 73q38 0 65.5 -23t27.5 -55q0 -74 -95 -125t-315 -95q-65 -99 -65 -169q0 -82 85 -82q154 0 381 306q14 19 29 19q9 -4 9 -10zM606 498q0 28 -28 28
q-50 0 -134.5 -72.5t-161.5 -179.5q126 32 225 98.5t99 125.5zM1069 997q0 -16 -58 -42.5t-89 -26.5t-90 14l-20 4q-93 25 -121 25q-20 0 -51 -14q-11 -7 -19 -7q-13 0 -13 8q0 16 58 43t91 27q35 0 122 -21l45 -10q42 -10 64 -10q31 0 55 13q11 5 15 5q11 0 11 -8zM798 921
q-12 -145 -19 -264q0 -12 -11 -12t-13 27q-6 86 -19 115q-56 -36 -176.5 -90t-155.5 -54q-13 0 -13 9q4 4 17 10q111 46 221.5 117t168.5 142z" />
    <glyph glyph-name="uni1EC6" unicode="&#x1ec6;" horiz-adv-x="1785" 
d="M2199 1120q0 -71 -130 -71q-81 0 -139 11t-319 78q-164 -92 -164 -239q0 -69 42 -96q53 8 107 8q111 0 111 -29q0 -20 -64 -20t-149 20q-88 -12 -202 -61q-21 -128 -139 -233.5t-266 -128.5q-19 -66 -19 -121q0 -188 185 -235q-33 52 -33 132q0 200 202.5 367.5
t447.5 167.5q109 0 177.5 -56t68.5 -147q0 -196 -216 -354t-487 -158q-54 0 -89 4q84 -119 273 -119q109 0 186 35l16 2q12 -4 12 -12q0 -18 -75.5 -33.5t-138.5 -15.5q-213 0 -324 152q-328 74 -328 313q0 34 7 69q-192 4 -315.5 112t-123.5 277q0 225 194.5 373.5
t486.5 148.5q210 0 550 -78q136 64 320 64q139 0 237 -37t98 -90zM2164 1120q0 37 -80 66t-185 29q-139 0 -254 -59q265 -81 432 -81q87 0 87 45zM1884 475q0 71 -55.5 116.5t-140.5 45.5q-212 0 -415 -176.5t-203 -362.5q0 -55 33 -107q54 -10 102 -10q232 0 455.5 162.5
t223.5 331.5zM1509 1165q-240 50 -409 50q-308 0 -522 -149t-214 -368q0 -138 111.5 -227.5t282.5 -95.5q40 128 179 235.5t324 152.5q2 9 2 23q0 106 -75 183t-197 96q-14 6 -14 12q0 14 21 14q31 0 87.5 -23t89.5 -48q121 -91 121 -248q73 16 157 27q-102 43 -102 145
q0 135 158 221zM1253 704q-278 -124 -356 -317q126 24 228.5 115t127.5 202zM1196 -256q0 -40 -30.5 -71.5t-69.5 -31.5q-56 0 -56 51q0 36 32.5 67.5t71.5 31.5q52 0 52 -47zM2197 1747q-8 -92 -21 -268q0 -13 -14 -13q-8 6 -8 13q-6 102 -20 133q-52 -36 -180.5 -92
t-163.5 -56q-13 0 -13 10q4 4 18 10q110 47 225 120t177 143z" />
    <glyph glyph-name="uni1EC7" unicode="&#x1ec7;" horiz-adv-x="503" 
d="M704 313q0 -5 -20 -27l-43 -54q-209 -259 -360 -259q-76 0 -124.5 52t-48.5 129q0 182 255 320q133 73 219 73q38 0 65.5 -23t27.5 -55q0 -74 -95 -125t-315 -95q-65 -99 -65 -169q0 -82 85 -82q154 0 381 306q14 19 29 19q9 -4 9 -10zM606 498q0 28 -28 28
q-50 0 -134.5 -72.5t-161.5 -179.5q126 32 225 98.5t99 125.5zM268 -140q0 -40 -30 -71.5t-69 -31.5q-56 0 -56 51q0 36 32.5 67.5t70.5 31.5q52 0 52 -47zM798 921q-12 -145 -19 -264q0 -12 -11 -12t-13 27q-6 86 -19 115q-56 -36 -176.5 -90t-155.5 -54q-13 0 -13 9
q4 4 17 10q111 46 221.5 117t168.5 142z" />
    <glyph glyph-name="uni1EC8" unicode="&#x1ec8;" horiz-adv-x="1472" 
d="M2262 1323q0 -18 -85 -55.5t-191 -66.5q-135 -99 -250 -249t-255 -410q5 -1 20 -1q118 0 219.5 73t123.5 179q5 20 18 20t13 -12q0 -61 -67 -140q-51 -63 -137 -104t-170 -41q-14 0 -32 2q-90 -165 -114 -201.5t-73 -91.5q-116 -126 -289.5 -200t-345.5 -74
q-197 0 -317 101t-120 267q0 212 200.5 383.5t447.5 171.5q143 0 228.5 -79t85.5 -211q0 -182 -151 -335t-333 -153q-98 0 -164 68t-66 168q0 136 122 244t280 108q53 0 104 -27.5t51 -58.5q0 -10 -16 -10q-6 0 -14 9q-42 63 -115 63q-127 0 -242 -113.5t-115 -241.5
q0 -85 49.5 -133.5t133.5 -48.5q160 0 302 148t142 315q0 115 -77.5 188.5t-196.5 73.5q-227 0 -408 -178.5t-181 -407.5q0 -124 98.5 -204.5t249.5 -80.5q299 0 536 298q51 64 191 273q-171 73 -171 240q0 201 228 300q110 49 362 92q93 16 154 28l47 9q52 39 141 79.5
t125 40.5q24 0 24 -14zM1931 1186l-45 -10q-37 -9 -108 -27q-242 -56 -385 -168t-143 -244q0 -117 115 -170q261 416 566 619zM2167 1562q0 -63 -79 -113q-30 -17 -135 -58q-92 -38 -100 -79q0 -12 4 -12q23 0 50 38q6 10 25 10q13 -6 13 -10q0 -8 -24 -31q-32 -29 -64 -29
q-44 0 -44 33q0 22 27 46q14 11 25 19q15 10 67 39q161 89 161 175q0 59 -41 63q1 -5 1 -19q0 -70 -59 -136.5t-130 -66.5q-36 0 -56.5 20.5t-20.5 45.5q0 66 74 122.5t144 56.5q-13 32 -46 32q-11 0 -21 -4q-7 -3 -17 -3q-16 5 -16 10q0 7 20 12.5t34 5.5q65 0 86 -54
q48 -3 85 -36t37 -77zM2014 1634q0 15 -2 22q-54 0 -118 -60q-61 -58 -61 -109q0 -35 30 -35q46 0 98.5 60t52.5 122z" />
    <glyph glyph-name="uni1EC9" unicode="&#x1ec9;" horiz-adv-x="344" 
d="M542 313q0 -5 -12 -17l-42 -59q-191 -264 -293 -264q-52 0 -85 34.5t-33 86.5q0 58 70 177l158 269q36 -8 53 -8q26 0 87 9l-231 -380q-49 -79 -49 -124q0 -41 40 -41q85 0 306 314q6 13 17 13q14 0 14 -10zM699 869q0 -58 -72 -103q-27 -16 -123 -53q-83 -35 -91 -72
q0 -10 3 -10q21 0 45 34q6 9 24 9q12 -5 12 -9q0 -7 -22 -28q-29 -27 -59 -27q-40 0 -40 30q0 20 25 43q12 10 22 17q13 9 61 35q120 78 129 159q8 48 -18 55v-15q0 -64 -53.5 -124.5t-118.5 -60.5q-33 0 -52 18.5t-19 42.5q0 60 67.5 111t130.5 51q-11 29 -41 29
q-10 0 -18 -3q-6 -4 -18 -4q-14 5 -14 10q0 8 19 12.5t31 4.5q58 0 79 -49q44 -3 77.5 -33t33.5 -70zM559 935q0 13 -2 18q-47 0 -103 -52q-55 -50 -55 -95q0 -30 26 -30q41 0 87.5 52.5t46.5 106.5z" />
    <glyph glyph-name="uni1ECA" unicode="&#x1eca;" horiz-adv-x="1472" 
d="M2262 1323q0 -18 -85 -55.5t-191 -66.5q-135 -99 -250 -249t-255 -410q5 -1 20 -1q118 0 219.5 73t123.5 179q5 20 18 20t13 -12q0 -61 -67 -140q-51 -63 -137 -104t-170 -41q-14 0 -32 2q-90 -165 -114 -201.5t-73 -91.5q-116 -126 -289.5 -200t-345.5 -74
q-197 0 -317 101t-120 267q0 212 200.5 383.5t447.5 171.5q143 0 228.5 -79t85.5 -211q0 -182 -151 -335t-333 -153q-98 0 -164 68t-66 168q0 136 122 244t280 108q53 0 104 -27.5t51 -58.5q0 -10 -16 -10q-6 0 -14 9q-42 63 -115 63q-127 0 -242 -113.5t-115 -241.5
q0 -85 49.5 -133.5t133.5 -48.5q160 0 302 148t142 315q0 115 -77.5 188.5t-196.5 73.5q-227 0 -408 -178.5t-181 -407.5q0 -124 98.5 -204.5t249.5 -80.5q299 0 536 298q51 64 191 273q-171 73 -171 240q0 201 228 300q110 49 362 92q93 16 154 28l47 9q52 39 141 79.5
t125 40.5q24 0 24 -14zM1931 1186l-45 -10q-37 -9 -108 -27q-242 -56 -385 -168t-143 -244q0 -117 115 -170q261 416 566 619zM901 -256q0 -40 -30 -71.5t-69 -31.5q-56 0 -56 51q0 36 32 67.5t71 31.5q52 0 52 -47z" />
    <glyph glyph-name="uni1ECB" unicode="&#x1ecb;" horiz-adv-x="344" 
d="M527 727q0 -36 -31 -68t-70 -32q-52 0 -52 49q0 34 32 66t71 32q50 0 50 -47zM541 313q0 -5 -11 -17l-42 -59q-191 -264 -294 -264q-51 0 -84 34.5t-33 86.5q0 58 69 177l159 269q36 -8 53 -8q26 0 87 9l-231 -380q-50 -79 -50 -124q0 -41 41 -41q85 0 306 314
q6 13 17 13q13 0 13 -10zM152 -140q0 -40 -30 -71.5t-69 -31.5q-56 0 -56 51q0 36 32 67.5t71 31.5q52 0 52 -47z" />
    <glyph glyph-name="uni1ECC" unicode="&#x1ecc;" horiz-adv-x="1583" 
d="M1834 836q0 -166 -92.5 -337.5t-258.5 -314.5q-298 -254 -567 -254q-183 0 -299 133t-116 338q0 177 97 361.5t264 329.5q145 121 327.5 200.5t324.5 79.5q132 0 209.5 -68t77.5 -182q0 -39 -8 -86q41 -100 41 -200zM1771 1118q0 100 -65 163t-166 63q-216 0 -437 -156
q-212 -154 -348 -390q-144 -245 -144 -489q0 -156 84.5 -254t218.5 -98q179 0 373 149q190 148 314 368q133 231 135 416q-15 -33 -98.5 -125.5t-115.5 -92.5q-15 0 -15 12q0 5 16 16q64 45 126 120.5t87 137.5q-23 242 -259 242q-211 0 -426 -233q-262 -284 -262 -547
q0 -89 49 -144t127 -55q143 0 288 203t145 373q0 56 -27 92.5t-68 36.5q-11 0 -15 -2h-10q-15 0 -15 10q0 16 40 16q65 0 105.5 -53.5t40.5 -136.5q0 -200 -156 -382.5t-330 -182.5q-99 0 -157.5 70t-58.5 179q0 264 242 522.5t490 258.5q216 0 290 -142q2 11 2 35z
M901 -256q0 -40 -30 -71.5t-69 -31.5q-56 0 -56 51q0 36 32 67.5t71 31.5q52 0 52 -47z" />
    <glyph glyph-name="uni1ECD" unicode="&#x1ecd;" horiz-adv-x="593" 
d="M792 315q0 -17 -61 -78q-89 -89 -167 -89q-33 0 -52 9q-129 -184 -251 -184q-64 0 -108.5 51t-44.5 121q0 155 205 299q144 103 239 103q93 0 93 -96q0 -116 -120 -276q15 -9 37 -9q42 0 100 41t97 99q14 17 22 17q11 0 11 -8zM616 449q0 77 -66 77q-86 0 -216 -172.5
t-130 -290.5q0 -65 59 -65q103 0 228 174q-28 30 -28 66q0 50 40.5 103.5t80.5 53.5q23 0 24 -5q8 16 8 59zM250 -140q0 -40 -30 -71.5t-69 -31.5q-56 0 -56 51q0 36 32 67.5t71 31.5q52 0 52 -47z" />
    <glyph glyph-name="uni1ECE" unicode="&#x1ece;" horiz-adv-x="1583" 
d="M1834 836q0 -166 -92.5 -337.5t-258.5 -314.5q-298 -254 -567 -254q-183 0 -299 133t-116 338q0 177 97 361.5t264 329.5q145 121 327.5 200.5t324.5 79.5q132 0 209.5 -68t77.5 -182q0 -39 -8 -86q41 -100 41 -200zM1771 1118q0 100 -65 163t-166 63q-216 0 -437 -156
q-212 -154 -348 -390q-144 -245 -144 -489q0 -156 84.5 -254t218.5 -98q179 0 373 149q190 148 314 368q133 231 135 416q-15 -33 -98.5 -125.5t-115.5 -92.5q-15 0 -15 12q0 5 16 16q64 45 126 120.5t87 137.5q-23 242 -259 242q-211 0 -426 -233q-262 -284 -262 -547
q0 -89 49 -144t127 -55q143 0 288 203t145 373q0 56 -27 92.5t-68 36.5q-11 0 -15 -2h-10q-15 0 -15 10q0 16 40 16q65 0 105.5 -53.5t40.5 -136.5q0 -200 -156 -382.5t-330 -182.5q-99 0 -157.5 70t-58.5 179q0 264 242 522.5t490 258.5q216 0 290 -142q2 11 2 35z
M1882 1723q0 -63 -79 -113q-29 -17 -135 -58q-92 -38 -100 -79q0 -12 4 -12q23 0 50 38q6 10 25 10q13 -6 13 -10q0 -8 -24 -31q-32 -29 -64 -29q-44 0 -44 33q0 22 27 46q14 11 25 19q15 10 67 39q161 89 161 175q0 59 -41 63q1 -5 1 -19q0 -70 -59 -136.5t-130 -66.5
q-35 0 -56 20.5t-21 45.5q0 66 74 122.5t144 56.5q-13 32 -46 32q-11 0 -21 -4q-7 -3 -17 -3q-16 5 -16 10q0 7 20 12.5t34 5.5q64 0 87 -54q47 -3 84 -36t37 -77zM1729 1795q0 15 -2 22q-54 0 -118 -60q-61 -58 -61 -109q0 -35 30 -35q46 0 98.5 60t52.5 122z" />
    <glyph glyph-name="uni1ECF" unicode="&#x1ecf;" horiz-adv-x="593" 
d="M792 315q0 -17 -61 -77q-90 -90 -167 -90q-33 0 -53 10q-129 -185 -251 -185q-63 0 -107.5 51t-44.5 121q0 155 205 299q143 103 238 103q93 0 93 -96q0 -116 -120 -276q16 -9 37 -9q43 0 100.5 41t96.5 99q15 17 23 17q11 0 11 -8zM616 449q0 77 -67 77
q-86 0 -215.5 -172.5t-129.5 -290.5q0 -65 58 -65q104 0 229 174q-29 30 -29 66q0 50 40.5 103.5t81.5 53.5q22 0 24 -6q8 17 8 60zM921 869q0 -58 -72 -103q-27 -16 -123 -53q-83 -35 -90 -72q0 -10 2 -10q21 0 45 34q6 9 24 9q13 -5 13 -9q0 -7 -23 -28q-29 -27 -59 -27
q-40 0 -40 30q0 20 25 43q12 10 22 17q14 9 62 35q119 78 128 159q8 48 -18 55v-15q0 -64 -53.5 -124.5t-118.5 -60.5q-33 0 -52 18.5t-19 42.5q0 60 67.5 111t130.5 51q-11 29 -41 29q-10 0 -18 -3q-6 -4 -18 -4q-13 5 -13 10q0 8 18.5 12.5t30.5 4.5q59 0 80 -49
q43 -3 76.5 -33t33.5 -70zM781 935q0 13 -2 18q-47 0 -103 -52q-55 -50 -55 -95q0 -30 27 -30q40 0 86.5 52.5t46.5 106.5z" />
    <glyph glyph-name="uni1ED0" unicode="&#x1ed0;" horiz-adv-x="1591" 
d="M2263 1802q-99 -74 -260 -143q-119 -53 -141 -53q-14 0 -14 9q0 4 16 11q97 47 199 119t149 137zM1834 836q0 -166 -92.5 -337.5t-258.5 -314.5q-298 -254 -567 -254q-183 0 -299 133t-116 338q0 177 97 361.5t264 329.5q145 121 327.5 200.5t324.5 79.5q132 0 209.5 -68
t77.5 -182q0 -39 -8 -86q41 -100 41 -200zM1771 1118q0 100 -65 163t-166 63q-216 0 -437 -156q-212 -154 -348 -390q-144 -245 -144 -489q0 -156 84.5 -254t218.5 -98q179 0 373 149q190 148 314 368q133 231 135 416q-15 -33 -98.5 -125.5t-115.5 -92.5q-15 0 -15 12
q0 5 16 16q64 45 126 120.5t87 137.5q-23 242 -259 242q-211 0 -426 -233q-262 -284 -262 -547q0 -89 49 -144t127 -55q143 0 288 203t145 373q0 56 -27 92.5t-68 36.5q-11 0 -15 -2h-10q-15 0 -15 10q0 16 40 16q65 0 105.5 -53.5t40.5 -136.5q0 -200 -156 -382.5
t-330 -182.5q-99 0 -157.5 70t-58.5 179q0 264 242 522.5t490 258.5q216 0 290 -142q2 11 2 35zM1828 1747q-8 -92 -21 -268q0 -13 -14 -13q-8 6 -8 13q-6 102 -20 133q-52 -36 -180.5 -92t-163.5 -56q-13 0 -13 10q4 4 18 10q110 47 225 120t177 143z" />
    <glyph glyph-name="uni1ED1" unicode="&#x1ed1;" horiz-adv-x="593" 
d="M1224 986q-100 -78 -252 -141q-119 -51 -137 -51q-8 0 -13 5q0 4 15 13q231 111 339 248zM792 315q0 -17 -61 -77q-90 -90 -167 -90q-33 0 -53 10q-129 -185 -251 -185q-63 0 -107.5 51t-44.5 121q0 155 205 299q143 103 238 103q93 0 93 -96q0 -116 -120 -276
q16 -9 37 -9q43 0 100.5 41t96.5 99q15 17 23 17q11 0 11 -8zM616 449q0 77 -67 77q-86 0 -215.5 -172.5t-129.5 -290.5q0 -65 58 -65q104 0 229 174q-29 30 -29 66q0 50 40.5 103.5t81.5 53.5q22 0 24 -6q8 17 8 60zM796 921q-12 -145 -18 -264q0 -12 -11 -12t-13 27
q-6 86 -19 115q-56 -36 -177 -90t-156 -54q-13 0 -13 9q4 4 17 10q111 46 221.5 117t168.5 142z" />
    <glyph glyph-name="uni1ED2" unicode="&#x1ed2;" horiz-adv-x="1583" 
d="M1661 1644q-6 -7 -14 -7q-31 0 -74 77t-64 167l109 76q-23 -64 -23 -116q0 -107 57 -181l1 -4q8 -6 8 -12zM1834 836q0 -166 -92.5 -337.5t-258.5 -314.5q-298 -254 -567 -254q-183 0 -299 133t-116 338q0 177 97 361.5t264 329.5q145 121 327.5 200.5t324.5 79.5
q132 0 209.5 -68t77.5 -182q0 -39 -8 -86q41 -100 41 -200zM1771 1118q0 100 -65 163t-166 63q-216 0 -437 -156q-212 -154 -348 -390q-144 -245 -144 -489q0 -156 84.5 -254t218.5 -98q179 0 373 149q190 148 314 368q133 231 135 416q-15 -33 -98.5 -125.5t-115.5 -92.5
q-15 0 -15 12q0 5 16 16q64 45 126 120.5t87 137.5q-23 242 -259 242q-211 0 -426 -233q-262 -284 -262 -547q0 -89 49 -144t127 -55q143 0 288 203t145 373q0 56 -27 92.5t-68 36.5q-11 0 -15 -2h-10q-15 0 -15 10q0 16 40 16q65 0 105.5 -53.5t40.5 -136.5
q0 -200 -156 -382.5t-330 -182.5q-99 0 -157.5 70t-58.5 179q0 264 242 522.5t490 258.5q216 0 290 -142q2 11 2 35zM1828 1747q-8 -92 -21 -268q0 -13 -14 -13q-8 6 -8 13q-6 102 -20 133q-52 -36 -180.5 -92t-163.5 -56q-13 0 -13 10q4 4 18 10q110 47 225 120t177 143z
" />
    <glyph glyph-name="uni1ED3" unicode="&#x1ed3;" horiz-adv-x="593" 
d="M665 837q-4 -8 -13 -8q-29 0 -70 75t-64 161l105 73q-21 -63 -21 -111q0 -103 54 -176q9 -9 9 -14zM792 315q0 -17 -61 -77q-90 -90 -167 -90q-33 0 -53 10q-129 -185 -251 -185q-63 0 -107.5 51t-44.5 121q0 155 205 299q143 103 238 103q93 0 93 -96q0 -116 -120 -276
q16 -9 37 -9q43 0 100.5 41t96.5 99q15 17 23 17q11 0 11 -8zM616 449q0 77 -67 77q-86 0 -215.5 -172.5t-129.5 -290.5q0 -65 58 -65q104 0 229 174q-29 30 -29 66q0 50 40.5 103.5t81.5 53.5q22 0 24 -6q8 17 8 60zM796 921q-12 -145 -18 -264q0 -12 -11 -12t-13 27
q-6 86 -19 115q-56 -36 -177 -90t-156 -54q-13 0 -13 9q4 4 17 10q111 46 221.5 117t168.5 142z" />
    <glyph glyph-name="uni1ED4" unicode="&#x1ed4;" horiz-adv-x="1583" 
d="M1834 836q0 -166 -92.5 -337.5t-258.5 -314.5q-298 -254 -567 -254q-183 0 -299 133t-116 338q0 177 97 361.5t264 329.5q145 121 327.5 200.5t324.5 79.5q132 0 209.5 -68t77.5 -182q0 -39 -8 -86q41 -100 41 -200zM1771 1118q0 100 -65 163t-166 63q-216 0 -437 -156
q-212 -154 -348 -390q-144 -245 -144 -489q0 -156 84.5 -254t218.5 -98q179 0 373 149q190 148 314 368q133 231 135 416q-15 -33 -98.5 -125.5t-115.5 -92.5q-15 0 -15 12q0 5 16 16q64 45 126 120.5t87 137.5q-23 242 -259 242q-211 0 -426 -233q-262 -284 -262 -547
q0 -89 49 -144t127 -55q143 0 288 203t145 373q0 56 -27 92.5t-68 36.5q-11 0 -15 -2h-10q-15 0 -15 10q0 16 40 16q65 0 105.5 -53.5t40.5 -136.5q0 -200 -156 -382.5t-330 -182.5q-99 0 -157.5 70t-58.5 179q0 264 242 522.5t490 258.5q216 0 290 -142q2 11 2 35z
M2208 1900q0 -63 -79 -113q-29 -17 -135 -58q-92 -38 -100 -79q0 -12 4 -12q23 0 50 38q6 10 25 10q13 -6 13 -10q0 -8 -24 -31q-32 -29 -64 -29q-44 0 -44 33q0 22 27 46q14 11 25 19q15 10 67 39q161 89 161 175q0 59 -41 63q1 -5 1 -19q0 -70 -59 -136.5t-130 -66.5
q-35 0 -56 20.5t-21 45.5q0 66 74 122.5t144 56.5q-13 32 -46 32q-11 0 -21 -4q-7 -3 -17 -3q-16 5 -16 10q0 7 20 12.5t34 5.5q64 0 87 -54q47 -3 84 -36t37 -77zM2055 1972q0 15 -2 22q-54 0 -118 -60q-61 -58 -61 -109q0 -35 30 -35q46 0 98.5 60t52.5 122zM1828 1747
q-8 -92 -21 -268q0 -13 -14 -13q-8 6 -8 13q-6 102 -20 133q-52 -36 -180.5 -92t-163.5 -56q-13 0 -13 10q4 4 18 10q110 47 225 120t177 143z" />
    <glyph glyph-name="uni1ED5" unicode="&#x1ed5;" horiz-adv-x="593" 
d="M792 315q0 -17 -61 -77q-90 -90 -167 -90q-33 0 -53 10q-129 -185 -251 -185q-63 0 -107.5 51t-44.5 121q0 155 205 299q143 103 238 103q93 0 93 -96q0 -116 -120 -276q16 -9 37 -9q43 0 100.5 41t96.5 99q15 17 23 17q11 0 11 -8zM616 449q0 77 -67 77
q-86 0 -215.5 -172.5t-129.5 -290.5q0 -65 58 -65q104 0 229 174q-29 30 -29 66q0 50 40.5 103.5t81.5 53.5q22 0 24 -6q8 17 8 60zM1147 1040q0 -58 -72 -103q-27 -16 -123 -53q-83 -35 -90 -72q0 -10 2 -10q21 0 45 34q6 9 24 9q13 -5 13 -9q0 -7 -23 -28q-29 -27 -59 -27
q-40 0 -40 30q0 20 25 43q12 10 22 17q14 9 62 35q119 78 128 159q8 48 -18 55v-15q0 -64 -53.5 -124.5t-118.5 -60.5q-33 0 -52 18.5t-19 42.5q0 60 67.5 111t130.5 51q-11 29 -41 29q-10 0 -18 -3q-6 -4 -18 -4q-13 5 -13 10q0 8 18.5 12.5t30.5 4.5q59 0 80 -49
q43 -3 76.5 -33t33.5 -70zM1007 1106q0 13 -2 18q-47 0 -103 -52q-55 -50 -55 -95q0 -30 27 -30q40 0 86.5 52.5t46.5 106.5zM796 921q-12 -145 -18 -264q0 -12 -11 -12t-13 27q-6 86 -19 115q-56 -36 -177 -90t-156 -54q-13 0 -13 9q4 4 17 10q111 46 221.5 117t168.5 142z
" />
    <glyph glyph-name="uni1ED6" unicode="&#x1ed6;" horiz-adv-x="1583" 
d="M2078 1822q0 -16 -60 -43.5t-91 -27.5q-32 0 -92 14l-20 4q-98 25 -125 25q-25 0 -53 -14q-10 -7 -19 -7q-13 0 -13 8t52 40t100 32q26 0 125 -23q87 -20 113 -20q32 0 54 15q11 5 16 5q13 -4 13 -8zM1834 836q0 -166 -92.5 -337.5t-258.5 -314.5q-298 -254 -567 -254
q-183 0 -299 133t-116 338q0 177 97 361.5t264 329.5q145 121 327.5 200.5t324.5 79.5q132 0 209.5 -68t77.5 -182q0 -39 -8 -86q41 -100 41 -200zM1771 1118q0 100 -65 163t-166 63q-216 0 -437 -156q-212 -154 -348 -390q-144 -245 -144 -489q0 -156 84.5 -254t218.5 -98
q179 0 373 149q190 148 314 368q133 231 135 416q-15 -33 -98.5 -125.5t-115.5 -92.5q-15 0 -15 12q0 5 16 16q64 45 126 120.5t87 137.5q-23 242 -259 242q-211 0 -426 -233q-262 -284 -262 -547q0 -89 49 -144t127 -55q143 0 288 203t145 373q0 56 -27 92.5t-68 36.5
q-11 0 -15 -2h-10q-15 0 -15 10q0 16 40 16q65 0 105.5 -53.5t40.5 -136.5q0 -200 -156 -382.5t-330 -182.5q-99 0 -157.5 70t-58.5 179q0 264 242 522.5t490 258.5q216 0 290 -142q2 11 2 35zM1828 1747q-8 -92 -21 -268q0 -13 -14 -13q-8 6 -8 13q-6 102 -20 133
q-52 -36 -180.5 -92t-163.5 -56q-13 0 -13 10q4 4 18 10q110 47 225 120t177 143z" />
    <glyph glyph-name="uni1ED7" unicode="&#x1ed7;" horiz-adv-x="593" 
d="M1060 994q0 -16 -58 -42.5t-88 -26.5q-32 0 -90 14l-21 4q-93 25 -121 25q-20 0 -51 -14q-11 -7 -18 -7q-14 0 -14 8q0 16 58 43t91 27q36 0 123 -21l45 -10q42 -10 63 -10q31 0 56 13q10 5 14 5q11 0 11 -8zM792 315q0 -17 -61 -77q-90 -90 -167 -90q-33 0 -53 10
q-129 -185 -251 -185q-63 0 -107.5 51t-44.5 121q0 155 205 299q143 103 238 103q93 0 93 -96q0 -116 -120 -276q16 -9 37 -9q43 0 100.5 41t96.5 99q15 17 23 17q11 0 11 -8zM616 449q0 77 -67 77q-86 0 -215.5 -172.5t-129.5 -290.5q0 -65 58 -65q104 0 229 174
q-29 30 -29 66q0 50 40.5 103.5t81.5 53.5q22 0 24 -6q8 17 8 60zM796 921q-12 -145 -18 -264q0 -12 -11 -12t-13 27q-6 86 -19 115q-56 -36 -177 -90t-156 -54q-13 0 -13 9q4 4 17 10q111 46 221.5 117t168.5 142z" />
    <glyph glyph-name="uni1ED8" unicode="&#x1ed8;" horiz-adv-x="1583" 
d="M1834 836q0 -166 -92.5 -337.5t-258.5 -314.5q-298 -254 -567 -254q-183 0 -299 133t-116 338q0 177 97 361.5t264 329.5q145 121 327.5 200.5t324.5 79.5q132 0 209.5 -68t77.5 -182q0 -39 -8 -86q41 -100 41 -200zM1771 1118q0 100 -65 163t-166 63q-216 0 -437 -156
q-212 -154 -348 -390q-144 -245 -144 -489q0 -156 84.5 -254t218.5 -98q179 0 373 149q190 148 314 368q133 231 135 416q-15 -33 -98.5 -125.5t-115.5 -92.5q-15 0 -15 12q0 5 16 16q64 45 126 120.5t87 137.5q-23 242 -259 242q-211 0 -426 -233q-262 -284 -262 -547
q0 -89 49 -144t127 -55q143 0 288 203t145 373q0 56 -27 92.5t-68 36.5q-11 0 -15 -2h-10q-15 0 -15 10q0 16 40 16q65 0 105.5 -53.5t40.5 -136.5q0 -200 -156 -382.5t-330 -182.5q-99 0 -157.5 70t-58.5 179q0 264 242 522.5t490 258.5q216 0 290 -142q2 11 2 35z
M901 -256q0 -40 -30 -71.5t-69 -31.5q-56 0 -56 51q0 36 32 67.5t71 31.5q52 0 52 -47zM1828 1747q-8 -92 -21 -268q0 -13 -14 -13q-8 6 -8 13q-6 102 -20 133q-52 -36 -180.5 -92t-163.5 -56q-13 0 -13 10q4 4 18 10q110 47 225 120t177 143z" />
    <glyph glyph-name="uni1ED9" unicode="&#x1ed9;" horiz-adv-x="593" 
d="M792 315q0 -17 -61 -78q-89 -89 -167 -89q-33 0 -52 9q-129 -184 -251 -184q-64 0 -108.5 51t-44.5 121q0 155 205 299q144 103 239 103q93 0 93 -96q0 -116 -120 -276q15 -9 37 -9q42 0 100 41t97 99q14 17 22 17q11 0 11 -8zM616 449q0 77 -66 77q-86 0 -216 -172.5
t-130 -290.5q0 -65 59 -65q103 0 228 174q-28 30 -28 66q0 50 40.5 103.5t80.5 53.5q23 0 24 -5q8 16 8 59zM250 -140q0 -40 -30 -71.5t-69 -31.5q-56 0 -56 51q0 36 32 67.5t71 31.5q52 0 52 -47zM797 921q-13 -145 -19 -264q0 -12 -11 -12t-13 27q-6 86 -19 115
q-56 -36 -177 -90t-155 -54q-13 0 -13 9q4 4 17 10q110 46 221 117t169 142z" />
    <glyph glyph-name="uni1EDA" unicode="&#x1eda;" horiz-adv-x="1591" 
d="M1958 1660q-100 -74 -260 -143q-119 -53 -142 -53q-13 0 -13 9q0 4 15 11q98 47 200 119t149 137zM1771 1118q0 100 -65.5 163t-165.5 63q-216 0 -437 -156q-212 -154 -349 -390q-143 -245 -143 -489q0 -156 84.5 -254t217.5 -98q180 0 374 149q190 148 314 368
q133 231 135 416q-15 -33 -98.5 -125.5t-115.5 -92.5q-16 0 -16 12q0 5 17 17q64 44 126 119.5t87 137.5q-23 242 -260 242q-211 0 -426 -233q-261 -284 -261 -547q0 -89 49 -144t126 -55q144 0 289 203t145 373q0 56 -27.5 92.5t-68.5 36.5q-10 0 -14 -2h-10q-15 0 -15 10
q0 16 39 16q66 0 106.5 -53.5t40.5 -136.5q0 -200 -156.5 -382.5t-330.5 -182.5q-98 0 -156.5 70t-58.5 179q0 264 242 522.5t490 258.5q215 0 289 -143q3 12 3 36zM1804 1010q30 -87 30 -174q0 -166 -93 -337.5t-259 -314.5q-297 -254 -567 -254q-182 0 -298 133t-116 338
q0 177 96.5 361.5t264.5 329.5q145 121 327.5 200.5t323.5 79.5q132 0 210 -68t78 -182q0 -39 -8 -86l-2 4q31 18 60 38q43 29 71 68q0 3 -4 3q-58 -2 -61 52q-2 45 43 99t87 56q53 2 56 -52q3 -79 -76 -174q-43 -57 -124 -100q-25 -13 -39 -20z" />
    <glyph glyph-name="uni1EDB" unicode="&#x1edb;" horiz-adv-x="593" 
d="M961 843q-100 -78 -252 -141q-119 -51 -137 -51q-8 0 -13 5q0 4 15 13q231 111 339 248zM616 449q0 77 -67 77q-86 0 -215.5 -172.5t-129.5 -290.5q0 -65 58 -65q104 0 229 174q-29 30 -29 66q0 50 40.5 103.5t81.5 53.5q22 0 24 -6q8 17 8 60zM642 422
q-12 -106 -118 -247q16 -9 37 -9q43 0 100.5 41t96.5 99q15 17 23 17q11 0 11 -8q0 -17 -61 -77q-90 -90 -167 -90q-33 0 -53 10q-129 -185 -251 -185q-63 0 -107.5 51t-44.5 121q0 155 205 299q143 103 238 103q93 0 93 -96v1q-2 -1 5 4q33 16 56 41q0 1 -2 1q-41 4 -38 42
q3 33 40 67t69 31q38 -4 35 -42q-5 -55 -70 -116q-37 -36 -99 -59q-1 0 2 1z" />
    <glyph glyph-name="uni1EDC" unicode="&#x1edc;" horiz-adv-x="1583" 
d="M1731 1440q-4 -8 -13 -8q-31 0 -74 77t-64 167l109 76q-23 -64 -23 -116q0 -107 57 -181l2 -4q6 -6 6 -11zM1771 1118q0 100 -65.5 163t-165.5 63q-216 0 -437 -156q-212 -154 -349 -390q-143 -245 -143 -489q0 -156 84.5 -254t217.5 -98q180 0 374 149q190 148 314 368
q133 231 135 416q-15 -33 -98.5 -125.5t-115.5 -92.5q-16 0 -16 12q0 5 17 17q64 44 126 119.5t87 137.5q-23 242 -260 242q-211 0 -426 -233q-261 -284 -261 -547q0 -89 49 -144t126 -55q144 0 289 203t145 373q0 56 -27.5 92.5t-68.5 36.5q-10 0 -14 -2h-10q-15 0 -15 10
q0 16 39 16q66 0 106.5 -53.5t40.5 -136.5q0 -200 -156.5 -382.5t-330.5 -182.5q-98 0 -156.5 70t-58.5 179q0 264 242 522.5t490 258.5q215 0 289 -143q3 12 3 36zM1804 1010q30 -87 30 -174q0 -166 -93 -337.5t-259 -314.5q-297 -254 -567 -254q-182 0 -298 133t-116 338
q0 177 96.5 361.5t264.5 329.5q145 121 327.5 200.5t323.5 79.5q132 0 210 -68t78 -182q0 -39 -8 -86l-2 4q31 18 60 38q43 29 71 68q0 3 -4 3q-58 -2 -61 52q-2 45 43 99t87 56q53 2 56 -52q3 -79 -76 -174q-43 -57 -124 -100q-25 -13 -39 -20z" />
    <glyph glyph-name="uni1EDD" unicode="&#x1edd;" horiz-adv-x="593" 
d="M693 639q-4 -8 -13 -8q-29 0 -70 75t-64 161l105 73q-21 -63 -21 -111q0 -103 54 -176q9 -9 9 -14zM616 449q0 77 -67 77q-86 0 -215.5 -172.5t-129.5 -290.5q0 -65 58 -65q104 0 229 174q-29 30 -29 66q0 50 40.5 103.5t81.5 53.5q22 0 24 -6q8 17 8 60zM642 422
q-12 -106 -118 -247q16 -9 37 -9q43 0 100.5 41t96.5 99q15 17 23 17q11 0 11 -8q0 -17 -61 -77q-90 -90 -167 -90q-33 0 -53 10q-129 -185 -251 -185q-63 0 -107.5 51t-44.5 121q0 155 205 299q143 103 238 103q93 0 93 -96v1q-2 -1 5 4q33 16 56 41q0 1 -2 1q-41 4 -38 42
q3 33 40 67t69 31q38 -4 35 -42q-5 -55 -70 -116q-37 -36 -99 -59q-1 0 2 1z" />
    <glyph glyph-name="uni1EDE" unicode="&#x1ede;" horiz-adv-x="1583" 
d="M1771 1118q0 100 -65.5 163t-165.5 63q-216 0 -437 -156q-212 -154 -349 -390q-143 -245 -143 -489q0 -156 84.5 -254t217.5 -98q180 0 374 149q190 148 314 368q133 231 135 416q-15 -33 -98.5 -125.5t-115.5 -92.5q-16 0 -16 12q0 5 17 17q64 44 126 119.5t87 137.5
q-23 242 -260 242q-211 0 -426 -233q-261 -284 -261 -547q0 -89 49 -144t126 -55q144 0 289 203t145 373q0 56 -27.5 92.5t-68.5 36.5q-10 0 -14 -2h-10q-15 0 -15 10q0 16 39 16q66 0 106.5 -53.5t40.5 -136.5q0 -200 -156.5 -382.5t-330.5 -182.5q-98 0 -156.5 70
t-58.5 179q0 264 242 522.5t490 258.5q215 0 289 -143q3 12 3 36zM1882 1723q0 -63 -79 -113q-30 -17 -135 -58q-92 -38 -100 -79q0 -12 4 -12q23 0 49 38q8 10 26 10q13 -6 13 -10q0 -8 -24 -31q-32 -29 -64 -29q-44 0 -44 33q0 22 27 46q14 11 25 19q15 10 67 39
q161 89 161 175q0 59 -41 63q1 -5 1 -19q0 -70 -59 -136.5t-130 -66.5q-36 0 -56.5 20.5t-20.5 45.5q0 66 74 122.5t144 56.5q-13 32 -46 32q-11 0 -21 -4q-7 -3 -17 -3q-16 5 -16 10q0 7 20 12.5t34 5.5q65 0 86 -54q48 -3 85 -36t37 -77zM1729 1795q0 15 -2 22
q-54 0 -118 -60q-61 -58 -61 -109q0 -35 30 -35q46 0 98.5 60t52.5 122zM1804 1010q30 -87 30 -174q0 -166 -93 -337.5t-259 -314.5q-297 -254 -567 -254q-182 0 -298 133t-116 338q0 177 96.5 361.5t264.5 329.5q145 121 327.5 200.5t323.5 79.5q132 0 210 -68t78 -182
q0 -39 -8 -86l-2 4q31 18 60 38q43 29 71 68q0 3 -4 3q-58 -2 -61 52q-2 45 43 99t87 56q53 2 56 -52q3 -79 -76 -174q-43 -57 -124 -100q-25 -13 -39 -20z" />
    <glyph glyph-name="uni1EDF" unicode="&#x1edf;" horiz-adv-x="593" 
d="M616 449q0 77 -67 77q-86 0 -215.5 -172.5t-129.5 -290.5q0 -65 58 -65q104 0 229 174q-29 30 -29 66q0 50 40.5 103.5t81.5 53.5q22 0 24 -6q8 17 8 60zM921 869q0 -58 -72 -103q-27 -16 -123 -53q-83 -35 -90 -72q0 -10 2 -10q21 0 45 34q6 9 24 9q13 -5 13 -9
q0 -7 -23 -28q-29 -27 -59 -27q-40 0 -40 30q0 20 25 43q12 10 22 17q14 9 62 35q119 78 128 159q8 48 -18 55v-15q0 -64 -53.5 -124.5t-118.5 -60.5q-33 0 -52 18.5t-19 42.5q0 60 67.5 111t130.5 51q-11 29 -41 29q-10 0 -18 -3q-6 -4 -18 -4q-13 5 -13 10q0 8 18.5 12.5
t30.5 4.5q59 0 80 -49q43 -3 76.5 -33t33.5 -70zM781 935q0 13 -2 18q-47 0 -103 -52q-55 -50 -55 -95q0 -30 27 -30q40 0 86.5 52.5t46.5 106.5zM642 422q-12 -106 -118 -247q16 -9 37 -9q43 0 100.5 41t96.5 99q15 17 23 17q11 0 11 -8q0 -17 -61 -77q-90 -90 -167 -90
q-33 0 -53 10q-129 -185 -251 -185q-63 0 -107.5 51t-44.5 121q0 155 205 299q143 103 238 103q93 0 93 -96v1q-2 -1 5 4q33 16 56 41q0 1 -2 1q-41 4 -38 42q3 33 40 67t69 31q38 -4 35 -42q-5 -55 -70 -116q-37 -36 -99 -59q-1 0 2 1z" />
    <glyph glyph-name="uni1EE0" unicode="&#x1ee0;" horiz-adv-x="1583" 
d="M1944 1552q0 -16 -59.5 -43.5t-90.5 -27.5q-32 0 -92 14l-21 4q-97 25 -125 25q-24 0 -52 -14q-10 -7 -19 -7q-13 0 -13 8t52 40t100 32q25 0 125 -23q87 -20 112 -20q32 0 55 15q11 5 17 5q11 -4 11 -8zM1771 1118q0 100 -65.5 163t-165.5 63q-216 0 -437 -156
q-212 -154 -349 -390q-143 -245 -143 -489q0 -156 84.5 -254t217.5 -98q180 0 374 149q190 148 314 368q133 231 135 416q-15 -33 -98.5 -125.5t-115.5 -92.5q-16 0 -16 12q0 5 17 17q64 44 126 119.5t87 137.5q-23 242 -260 242q-211 0 -426 -233q-261 -284 -261 -547
q0 -89 49 -144t126 -55q144 0 289 203t145 373q0 56 -27.5 92.5t-68.5 36.5q-10 0 -14 -2h-10q-15 0 -15 10q0 16 39 16q66 0 106.5 -53.5t40.5 -136.5q0 -200 -156.5 -382.5t-330.5 -182.5q-98 0 -156.5 70t-58.5 179q0 264 242 522.5t490 258.5q215 0 289 -143q3 12 3 36z
M1804 1010q30 -87 30 -174q0 -166 -93 -337.5t-259 -314.5q-297 -254 -567 -254q-182 0 -298 133t-116 338q0 177 96.5 361.5t264.5 329.5q145 121 327.5 200.5t323.5 79.5q132 0 210 -68t78 -182q0 -39 -8 -86l-2 4q31 18 60 38q43 29 71 68q0 3 -4 3q-58 -2 -61 52
q-2 45 43 99t87 56q53 2 56 -52q3 -79 -76 -174q-43 -57 -124 -100q-25 -13 -39 -20z" />
    <glyph glyph-name="uni1EE1" unicode="&#x1ee1;" horiz-adv-x="593" 
d="M845 727q0 -16 -58 -42.5t-88 -26.5q-32 0 -90 14l-21 4q-93 25 -121 25q-20 0 -51 -14q-11 -7 -18 -7q-14 0 -14 8q0 16 58 43t91 27q36 0 123 -21l45 -10q42 -10 63 -10q31 0 56 13q10 5 14 5q11 0 11 -8zM616 449q0 77 -67 77q-86 0 -215.5 -172.5t-129.5 -290.5
q0 -65 58 -65q104 0 229 174q-29 30 -29 66q0 50 40.5 103.5t81.5 53.5q22 0 24 -6q8 17 8 60zM642 422q-13 -107 -118 -247q16 -9 37 -9q43 0 100.5 41t96.5 99q15 17 23 17q11 0 11 -8q0 -17 -61 -77q-90 -90 -167 -90q-33 0 -53 10q-129 -185 -251 -185q-63 0 -107.5 51
t-44.5 121q0 155 205 299q143 103 238 103q92 0 93 -95q3 2 5 3q33 17 56 42q0 1 -2 1q-41 4 -38 42q3 33 40 67t69 31q38 -4 35 -42q-5 -55 -70 -116q-37 -36 -97 -58z" />
    <glyph glyph-name="uni1EE2" unicode="&#x1ee2;" horiz-adv-x="1583" 
d="M1771 1118q0 100 -65.5 163t-165.5 63q-216 0 -437 -156q-212 -154 -349 -390q-143 -245 -143 -489q0 -156 84.5 -254t217.5 -98q180 0 374 149q190 148 314 368q133 231 135 416q-15 -33 -98.5 -125.5t-115.5 -92.5q-16 0 -16 12q0 5 17 17q64 44 126 119.5t87 137.5
q-23 242 -260 242q-211 0 -426 -233q-261 -284 -261 -547q0 -89 49 -144t126 -55q144 0 289 203t145 373q0 56 -27.5 92.5t-68.5 36.5q-10 0 -14 -2h-10q-15 0 -15 10q0 16 39 16q66 0 106.5 -53.5t40.5 -136.5q0 -200 -156.5 -382.5t-330.5 -182.5q-98 0 -156.5 70
t-58.5 179q0 264 242 522.5t490 258.5q215 0 289 -143q3 12 3 36zM901 -256q0 -40 -30 -71.5t-69 -31.5q-56 0 -56 51q0 36 32 67.5t71 31.5q52 0 52 -47zM1804 1010q30 -87 30 -174q0 -166 -93 -337.5t-259 -314.5q-297 -254 -567 -254q-182 0 -298 133t-116 338
q0 177 96.5 361.5t264.5 329.5q145 121 327.5 200.5t323.5 79.5q132 0 210 -68t78 -182q0 -39 -8 -86l-2 4q31 18 60 38q43 29 71 68q0 3 -4 3q-58 -2 -61 52q-2 45 43 99t87 56q53 2 56 -52q3 -79 -76 -174q-43 -57 -124 -100q-25 -13 -39 -20z" />
    <glyph glyph-name="uni1EE3" unicode="&#x1ee3;" horiz-adv-x="593" 
d="M616 449q0 77 -66 77q-86 0 -216 -172.5t-130 -290.5q0 -65 59 -65q103 0 228 174q-28 30 -28 66q0 50 40.5 103.5t80.5 53.5q23 0 24 -5q8 16 8 59zM250 -140q0 -40 -30 -71.5t-69 -31.5q-56 0 -56 51q0 36 32 67.5t71 31.5q52 0 52 -47zM643 423q-12 -106 -118 -248
q15 -9 37 -9q42 0 100 41t97 99q14 17 22 17q11 0 11 -8q0 -17 -61 -78q-89 -89 -167 -89q-33 0 -52 9q-129 -184 -251 -184q-64 0 -108.5 51t-44.5 121q0 155 205 299q144 103 239 103q93 0 93 -96v3q-2 -1 5 2q32 16 55 41q0 1 -2 1q-41 4 -38 42q3 33 40 67t69 31
q38 -4 35 -42q-5 -55 -70 -116q-37 -36 -99 -59q1 0 3 2z" />
    <glyph glyph-name="uni1EE4" unicode="&#x1ee4;" horiz-adv-x="1851" 
d="M2382 1243q-699 -959 -699 -1235q0 -66 42.5 -108.5t108.5 -42.5q115 0 227 124q10 13 21 13q13 0 13 -12t-36 -43q-122 -107 -225 -107q-100 0 -164 75.5t-64 188.5q0 195 111 370q-162 -228 -329.5 -371.5t-280.5 -143.5q-76 0 -121.5 53.5t-45.5 140.5q0 91 49 182.5
t218 310.5q175 231 223.5 321t48.5 192q0 95 -69 149t-186 54q-302 0 -583 -277t-281 -575q0 -112 62 -179t163 -67q196 0 377 222q191 238 191 431q0 162 -128 162q-133 0 -275 -161t-142 -316q0 -38 22 -65t51 -27h6q6 2 14 2q15 0 15 -12q0 -15 -27 -15q-61 0 -98.5 46.5
t-37.5 119.5q0 151 155 303t313 152q164 0 164 -187q0 -197 -189 -435q-194 -247 -411 -247q-129 0 -207.5 88t-78.5 230q0 331 346 600q133 105 291.5 169t284.5 64q156 0 241.5 -83.5t85.5 -229.5q0 -123 -60.5 -234t-305.5 -435q-105 -141 -138 -201t-33 -113
q0 -48 28.5 -78.5t71.5 -30.5q147 0 410.5 300.5t689.5 959.5q57 -4 63 -4q38 0 108 12zM1402 -256q0 -40 -30 -71.5t-69 -31.5q-56 0 -56 51q0 36 32 67.5t71 31.5q52 0 52 -47z" />
    <glyph glyph-name="uni1EE5" unicode="&#x1ee5;" horiz-adv-x="641" 
d="M321 -140q0 -40 -30 -71.5t-69 -31.5q-56 0 -56 51q0 36 32.5 67.5t70.5 31.5q52 0 52 -47zM841 313q0 -23 -147 -195q-123 -145 -196 -145q-47 0 -79.5 36.5t-32.5 88.5q0 39 -5 30q-55 -69 -96 -107q-52 -48 -97 -48q-49 0 -80 35.5t-31 87.5q0 58 45 134l185 310
q40 -8 58 -8q17 0 78 9l-241 -399q-37 -60 -37 -105q0 -41 32 -41q95 0 316 374l102 170q35 -8 55 -8q25 0 82 9l-163 -268q-115 -185 -115 -238q0 -39 34 -39q76 0 253 249l32 43l17 22q6 13 17 13q14 0 14 -10z" />
    </font>
</defs>
</svg>
